%TF.GenerationSoftware,KiCad,Pcbnew,7.0.1*%
%TF.CreationDate,2023-10-06T11:12:28+02:00*%
%TF.ProjectId,Controller_board,436f6e74-726f-46c6-9c65-725f626f6172,rev?*%
%TF.SameCoordinates,Original*%
%TF.FileFunction,Copper,L4,Bot*%
%TF.FilePolarity,Positive*%
%FSLAX46Y46*%
G04 Gerber Fmt 4.6, Leading zero omitted, Abs format (unit mm)*
G04 Created by KiCad (PCBNEW 7.0.1) date 2023-10-06 11:12:28*
%MOMM*%
%LPD*%
G01*
G04 APERTURE LIST*
%TA.AperFunction,ComponentPad*%
%ADD10R,2.000000X2.000000*%
%TD*%
%TA.AperFunction,ComponentPad*%
%ADD11C,2.000000*%
%TD*%
%TA.AperFunction,ComponentPad*%
%ADD12R,3.000000X2.500000*%
%TD*%
%TA.AperFunction,ComponentPad*%
%ADD13O,1.350000X1.700000*%
%TD*%
%TA.AperFunction,ComponentPad*%
%ADD14O,1.100000X1.500000*%
%TD*%
%TA.AperFunction,ComponentPad*%
%ADD15C,1.778000*%
%TD*%
%TA.AperFunction,ComponentPad*%
%ADD16C,2.286000*%
%TD*%
%TA.AperFunction,ComponentPad*%
%ADD17R,1.500000X1.500000*%
%TD*%
%TA.AperFunction,ComponentPad*%
%ADD18C,1.500000*%
%TD*%
%TA.AperFunction,ComponentPad*%
%ADD19R,1.350000X1.350000*%
%TD*%
%TA.AperFunction,ComponentPad*%
%ADD20O,1.350000X1.350000*%
%TD*%
%TA.AperFunction,ComponentPad*%
%ADD21R,2.400000X2.400000*%
%TD*%
%TA.AperFunction,ComponentPad*%
%ADD22C,2.400000*%
%TD*%
%TA.AperFunction,SMDPad,CuDef*%
%ADD23R,2.413000X5.080000*%
%TD*%
%TA.AperFunction,SMDPad,CuDef*%
%ADD24C,1.000000*%
%TD*%
%TA.AperFunction,ViaPad*%
%ADD25C,0.600000*%
%TD*%
%TA.AperFunction,ViaPad*%
%ADD26C,0.700000*%
%TD*%
%TA.AperFunction,ViaPad*%
%ADD27C,0.500000*%
%TD*%
%TA.AperFunction,Conductor*%
%ADD28C,0.500000*%
%TD*%
%TA.AperFunction,Conductor*%
%ADD29C,0.300000*%
%TD*%
%TA.AperFunction,Conductor*%
%ADD30C,0.250000*%
%TD*%
G04 APERTURE END LIST*
D10*
%TO.P,SW2,A,A*%
%TO.N,ENC_A*%
X148833000Y-89829000D03*
D11*
%TO.P,SW2,B,B*%
%TO.N,ENC_B*%
X148833000Y-94829000D03*
%TO.P,SW2,C,C*%
%TO.N,-BATT*%
X148833000Y-92329000D03*
D12*
%TO.P,SW2,MP*%
%TO.N,N/C*%
X156333000Y-86729000D03*
X156333000Y-97929000D03*
D11*
%TO.P,SW2,S1,S1*%
%TO.N,ENC_BUTTON*%
X163333000Y-89829000D03*
%TO.P,SW2,S2,S2*%
%TO.N,-BATT*%
X163333000Y-94829000D03*
%TD*%
D13*
%TO.P,J1,6,Shield*%
%TO.N,unconnected-(J1-Shield-Pad6)*%
X87827000Y-81829400D03*
D14*
X87517000Y-84829400D03*
X82677000Y-84829400D03*
D13*
X82367000Y-81829400D03*
%TD*%
D15*
%TO.P,U9,B1A,SEL+*%
%TO.N,JOY2_BUTTON*%
X137300000Y-133175000D03*
%TO.P,U9,B1B*%
%TO.N,N/C*%
X137300000Y-126825000D03*
%TO.P,U9,B2A,SEL-*%
%TO.N,-BATT*%
X142380000Y-133175000D03*
%TO.P,U9,B2B*%
%TO.N,N/C*%
X142380000Y-126825000D03*
%TO.P,U9,H1,H+*%
%TO.N,+3.3V*%
X160160000Y-132540000D03*
%TO.P,U9,H2,H*%
%TO.N,JOY2_ADC_X*%
X160160000Y-130000000D03*
%TO.P,U9,H3,H-*%
%TO.N,-BATT*%
X160160000Y-127460000D03*
D16*
%TO.P,U9,S1,SHIELD*%
%TO.N,unconnected-(U9-SHIELD-PadS1)*%
X143332500Y-137620000D03*
%TO.P,U9,S2,SHIELD*%
%TO.N,unconnected-(U9-SHIELD-PadS2)*%
X156667500Y-137620000D03*
%TO.P,U9,S3,SHIELD*%
%TO.N,unconnected-(U9-SHIELD-PadS3)*%
X156667500Y-122380000D03*
%TO.P,U9,S4,SHIELD*%
%TO.N,unconnected-(U9-SHIELD-PadS4)*%
X143332500Y-122380000D03*
D15*
%TO.P,U9,V1,V+*%
%TO.N,+3.3V*%
X147460000Y-140160000D03*
%TO.P,U9,V2,V*%
%TO.N,JOY2_ADC_Y*%
X150000000Y-140160000D03*
%TO.P,U9,V3,V-*%
%TO.N,-BATT*%
X152540000Y-140160000D03*
%TD*%
D17*
%TO.P,J2,1,Pin_1*%
%TO.N,OLED_SDA*%
X131191000Y-91610000D03*
D18*
%TO.P,J2,2,Pin_2*%
%TO.N,OLED_SCL*%
X133191000Y-91610000D03*
%TO.P,J2,3,Pin_3*%
%TO.N,+3.3V*%
X135191000Y-91610000D03*
%TO.P,J2,4,Pin_4*%
%TO.N,-BATT*%
X137191000Y-91610000D03*
%TD*%
D19*
%TO.P,J3,1,Pin_1*%
%TO.N,+3.3V*%
X100854000Y-110300000D03*
D20*
%TO.P,J3,2,Pin_2*%
%TO.N,SWDIO*%
X102854000Y-110300000D03*
%TO.P,J3,3,Pin_3*%
%TO.N,-BATT*%
X100854000Y-112300000D03*
%TO.P,J3,4,Pin_4*%
%TO.N,SWCLK*%
X102854000Y-112300000D03*
%TO.P,J3,5,Pin_5*%
%TO.N,-BATT*%
X100854000Y-114300000D03*
%TO.P,J3,6,Pin_6*%
%TO.N,SWO*%
X102854000Y-114300000D03*
%TO.P,J3,7,Pin_7*%
%TO.N,unconnected-(J3-Pin_7-Pad7)*%
X100854000Y-116300000D03*
%TO.P,J3,8,Pin_8*%
%TO.N,unconnected-(J3-Pin_8-Pad8)*%
X102854000Y-116300000D03*
%TO.P,J3,9,Pin_9*%
%TO.N,-BATT*%
X100854000Y-118300000D03*
%TO.P,J3,10,Pin_10*%
%TO.N,NRST*%
X102854000Y-118300000D03*
%TD*%
D15*
%TO.P,U8,B1A,SEL+*%
%TO.N,JOY1_BUTTON*%
X67300000Y-133175000D03*
%TO.P,U8,B1B*%
%TO.N,N/C*%
X67300000Y-126825000D03*
%TO.P,U8,B2A,SEL-*%
%TO.N,-BATT*%
X72380000Y-133175000D03*
%TO.P,U8,B2B*%
%TO.N,N/C*%
X72380000Y-126825000D03*
%TO.P,U8,H1,H+*%
%TO.N,+3.3V*%
X90160000Y-132540000D03*
%TO.P,U8,H2,H*%
%TO.N,JOY1_ADC_X*%
X90160000Y-130000000D03*
%TO.P,U8,H3,H-*%
%TO.N,-BATT*%
X90160000Y-127460000D03*
D16*
%TO.P,U8,S1,SHIELD*%
%TO.N,unconnected-(U8-SHIELD-PadS1)*%
X73332500Y-137620000D03*
%TO.P,U8,S2,SHIELD*%
%TO.N,unconnected-(U8-SHIELD-PadS2)*%
X86667500Y-137620000D03*
%TO.P,U8,S3,SHIELD*%
%TO.N,unconnected-(U8-SHIELD-PadS3)*%
X86667500Y-122380000D03*
%TO.P,U8,S4,SHIELD*%
%TO.N,unconnected-(U8-SHIELD-PadS4)*%
X73332500Y-122380000D03*
D15*
%TO.P,U8,V1,V+*%
%TO.N,+3.3V*%
X77460000Y-140160000D03*
%TO.P,U8,V2,V*%
%TO.N,JOY1_ADC_Y*%
X80000000Y-140160000D03*
%TO.P,U8,V3,V-*%
%TO.N,-BATT*%
X82540000Y-140160000D03*
%TD*%
D21*
%TO.P,BT1,1,+*%
%TO.N,+BATT*%
X68518000Y-107978000D03*
D22*
%TO.P,BT1,2,-*%
%TO.N,-BATT*%
X68518000Y-111478000D03*
%TD*%
D23*
%TO.P,J4,2*%
%TO.N,-BATT*%
X110617000Y-82931000D03*
X119380000Y-82931000D03*
%TD*%
D24*
%TO.P,TP4,1,1*%
%TO.N,NRF_SCK*%
X117983000Y-101346000D03*
%TD*%
%TO.P,TP2,1,1*%
%TO.N,NRF_MOSI*%
X113411000Y-101346000D03*
%TD*%
%TO.P,TP3,1,1*%
%TO.N,NRF_MISO*%
X115697000Y-101346000D03*
%TD*%
D25*
%TO.N,-BATT*%
X107950000Y-119761000D03*
X115062000Y-113030000D03*
X84328000Y-115364500D03*
D26*
X125526800Y-83185000D03*
D25*
X121285000Y-80772000D03*
X83312000Y-93980000D03*
X103124000Y-93599000D03*
X132080000Y-119761000D03*
X94488000Y-109855000D03*
X133477000Y-121285000D03*
X83312000Y-99060000D03*
X112928400Y-92151200D03*
X121285000Y-82677000D03*
X80772000Y-99060000D03*
X73609200Y-105918000D03*
D26*
X104571800Y-87909400D03*
D25*
X108284000Y-92567000D03*
X108458000Y-125282200D03*
X113748200Y-120370600D03*
X108673600Y-118377609D03*
X127635000Y-118618000D03*
X88392000Y-93980000D03*
X136550400Y-101549200D03*
D26*
X104571800Y-85547200D03*
D25*
X111760000Y-117348000D03*
X116941600Y-121704400D03*
D26*
X106934000Y-90297000D03*
D25*
X122656600Y-105359200D03*
X76174600Y-96342200D03*
X76149200Y-83896200D03*
X108712000Y-80772000D03*
X70993000Y-96342200D03*
X112318800Y-86461600D03*
X92456000Y-98171000D03*
X93599000Y-98171000D03*
D26*
X104571800Y-83185000D03*
D25*
X116057649Y-87472360D03*
X108280200Y-97434400D03*
X85852000Y-96520000D03*
X90932000Y-93980000D03*
X119634000Y-100203000D03*
X113157000Y-98552000D03*
X138938000Y-107696000D03*
X80772000Y-96520000D03*
X132680200Y-108077000D03*
X104267000Y-94488000D03*
X117044639Y-87482536D03*
X133477000Y-120015000D03*
X111252000Y-101498400D03*
X118770400Y-121704400D03*
X83312000Y-96520000D03*
X92456000Y-100838000D03*
X124712259Y-117615721D03*
D26*
X125526800Y-80822800D03*
D25*
X124219868Y-101831556D03*
X122174000Y-112979200D03*
X135128000Y-112293400D03*
D26*
X125526800Y-90297000D03*
X104571800Y-80822800D03*
X125526800Y-85547200D03*
D25*
X80772000Y-93980000D03*
X96012000Y-96520000D03*
D26*
X104571800Y-90297000D03*
D25*
X93599000Y-100838000D03*
X85852000Y-93980000D03*
X83312000Y-104140000D03*
X103124000Y-94488000D03*
X71145400Y-83896200D03*
X139192000Y-112776000D03*
D26*
X111658400Y-90297000D03*
X109296200Y-90297000D03*
X123164600Y-90297000D03*
D25*
X125730000Y-118618000D03*
X112293400Y-97002600D03*
X85965800Y-89712800D03*
X136480896Y-103792531D03*
X124650000Y-92215200D03*
X121285000Y-84582000D03*
X83705200Y-86461600D03*
X104267000Y-95504000D03*
X108712000Y-82677000D03*
X107467400Y-115392200D03*
X95504000Y-109855000D03*
X140081000Y-108204000D03*
X134924800Y-103987600D03*
X109702600Y-120306600D03*
X108712000Y-84582000D03*
X82790800Y-86461600D03*
X116433600Y-113030000D03*
X131191000Y-111633000D03*
D26*
X120802400Y-90297000D03*
D25*
X110363000Y-94742000D03*
X121957600Y-97701600D03*
D26*
X120370600Y-96139000D03*
X118440200Y-90297000D03*
X125526800Y-87909400D03*
D25*
X80772000Y-104140000D03*
X104267000Y-93599000D03*
%TO.N,+3.3V*%
X125730000Y-122682000D03*
X110316000Y-92922600D03*
X101219000Y-93599000D03*
X123571000Y-117602000D03*
X124510800Y-111912400D03*
X120040400Y-121704400D03*
X138379200Y-102108000D03*
X108280200Y-96570800D03*
X121513600Y-98856800D03*
X108254800Y-102616000D03*
X99949000Y-93599000D03*
X145796000Y-92786200D03*
X108284000Y-93481400D03*
X99949000Y-95504000D03*
X129667000Y-114554000D03*
X126873000Y-122682000D03*
X101219000Y-94488000D03*
X145796000Y-91922600D03*
X109593159Y-118383631D03*
X128905000Y-102920800D03*
X122660372Y-101823798D03*
X99949000Y-94488000D03*
X132842000Y-97790000D03*
X130708400Y-106273600D03*
X103428800Y-125282200D03*
X108407200Y-115392200D03*
%TO.N,V_USB*%
X93599000Y-93472000D03*
X93599000Y-94361000D03*
X86524600Y-86461600D03*
X84899000Y-89712800D03*
X85725000Y-91806500D03*
X87388200Y-86461600D03*
D27*
%TO.N,+BATT*%
X80975200Y-102489000D03*
D25*
X72989255Y-105003451D03*
D27*
X81788000Y-102489000D03*
D25*
X77597000Y-110157500D03*
X78486000Y-110157500D03*
%TO.N,BATTERY_ADC*%
X110744000Y-108966000D03*
X89027000Y-107329500D03*
%TO.N,BOOT0*%
X105918000Y-117856000D03*
X105918000Y-115824000D03*
%TO.N,ENC_A*%
X139192000Y-110490000D03*
X132588000Y-110490000D03*
%TO.N,ENC_B*%
X139192000Y-109397800D03*
X132588000Y-109397800D03*
%TO.N,BUTTON_UP*%
X107696000Y-106426000D03*
X93726000Y-106426000D03*
%TO.N,ENC_BUTTON*%
X132562600Y-111607600D03*
X139192000Y-111607600D03*
%TO.N,MPU-6050_IRQ*%
X122216500Y-108077000D03*
X112395000Y-113425500D03*
%TO.N,JOY1_ADC_X*%
X116156266Y-116507734D03*
X113792000Y-117602000D03*
%TO.N,JOY2_ADC_Y*%
X118770400Y-117906800D03*
X118770400Y-116281200D03*
D27*
%TO.N,NRF_SCK*%
X114935000Y-98729800D03*
X117195600Y-99415600D03*
%TO.N,NRF_MISO*%
X116840000Y-100203000D03*
%TO.N,NRF_MOSI*%
X115510000Y-99812800D03*
D25*
%TO.N,I2C_SCL*%
X133604000Y-114554000D03*
X133604000Y-117475000D03*
%TO.N,Power_Btn*%
X89052400Y-108204000D03*
X106465900Y-108204000D03*
%TO.N,EN*%
X88392000Y-99187000D03*
X74676000Y-107315000D03*
%TO.N,KEEP_ALIVE*%
X86106000Y-109234500D03*
X107950000Y-109474000D03*
%TD*%
D28*
%TO.N,-BATT*%
X119686300Y-82550000D02*
X119381500Y-82854800D01*
X110313700Y-82550000D02*
X110618500Y-82854800D01*
D29*
%TO.N,BATTERY_ADC*%
X89027000Y-107329500D02*
X89041500Y-107315000D01*
X110109000Y-107315000D02*
X110744000Y-107950000D01*
X110744000Y-107950000D02*
X110744000Y-108966000D01*
X89041500Y-107315000D02*
X110109000Y-107315000D01*
%TO.N,BOOT0*%
X105918000Y-117856000D02*
X105918000Y-115824000D01*
%TO.N,ENC_A*%
X132588000Y-110490000D02*
X139192000Y-110490000D01*
D30*
%TO.N,ENC_B*%
X149250400Y-95246400D02*
X148833000Y-94829000D01*
D29*
X132588000Y-109397800D02*
X139192000Y-109397800D01*
%TO.N,BUTTON_UP*%
X93726000Y-106426000D02*
X107696000Y-106426000D01*
%TO.N,ENC_BUTTON*%
X132562600Y-111607600D02*
X139192000Y-111607600D01*
%TO.N,MPU-6050_IRQ*%
X112395000Y-108966000D02*
X112395000Y-113425500D01*
X122216500Y-108077000D02*
X113284000Y-108077000D01*
X113284000Y-108077000D02*
X112395000Y-108966000D01*
%TO.N,JOY1_ADC_X*%
X116156266Y-116507734D02*
X115062000Y-117602000D01*
X115062000Y-117602000D02*
X113792000Y-117602000D01*
%TO.N,JOY2_ADC_Y*%
X118770400Y-116281200D02*
X118770400Y-117906800D01*
D30*
%TO.N,NRF_SCK*%
X116789200Y-99009200D02*
X115214400Y-99009200D01*
X115214400Y-99009200D02*
X114935000Y-98729800D01*
D29*
X117983000Y-101346000D02*
X117983000Y-100203000D01*
D30*
X117195600Y-99415600D02*
X116789200Y-99009200D01*
D29*
X117983000Y-100203000D02*
X117195600Y-99415600D01*
%TO.N,NRF_MISO*%
X115697000Y-101346000D02*
X116840000Y-100203000D01*
D30*
%TO.N,NRF_MOSI*%
X115510000Y-99812800D02*
X114182200Y-99812800D01*
X114182200Y-99812800D02*
X113411000Y-100584000D01*
X113411000Y-100584000D02*
X113411000Y-101346000D01*
D29*
%TO.N,I2C_SCL*%
X133604000Y-117475000D02*
X133604000Y-114554000D01*
%TO.N,Power_Btn*%
X89052400Y-108204000D02*
X106465900Y-108204000D01*
%TO.N,EN*%
X88392000Y-105918000D02*
X86995000Y-107315000D01*
X86995000Y-107315000D02*
X74676000Y-107315000D01*
X88392000Y-99187000D02*
X88392000Y-105918000D01*
%TO.N,KEEP_ALIVE*%
X86262500Y-109078000D02*
X107554000Y-109078000D01*
X86106000Y-109234500D02*
X86262500Y-109078000D01*
X107554000Y-109078000D02*
X107950000Y-109474000D01*
%TD*%
%TA.AperFunction,Conductor*%
%TO.N,-BATT*%
G36*
X105043200Y-80317113D02*
G01*
X105088587Y-80362500D01*
X105105200Y-80424500D01*
X105105200Y-89814400D01*
X113363200Y-89814400D01*
X113425200Y-89831013D01*
X113470587Y-89876400D01*
X113487200Y-89938400D01*
X113487200Y-90706400D01*
X113470587Y-90768400D01*
X113425200Y-90813787D01*
X113363200Y-90830400D01*
X104162400Y-90830400D01*
X104100400Y-90813787D01*
X104055013Y-90768400D01*
X104038400Y-90706400D01*
X104038400Y-80424500D01*
X104055013Y-80362500D01*
X104100400Y-80317113D01*
X104162400Y-80300500D01*
X104981200Y-80300500D01*
X105043200Y-80317113D01*
G37*
%TD.AperFunction*%
%TD*%
%TA.AperFunction,Conductor*%
%TO.N,-BATT*%
G36*
X111798702Y-80318772D02*
G01*
X111844397Y-80368204D01*
X111858506Y-80395894D01*
X111870495Y-80432792D01*
X111885473Y-80527358D01*
X111887000Y-80546756D01*
X111887000Y-84680244D01*
X111885473Y-84699642D01*
X111870495Y-84794207D01*
X111858507Y-84831104D01*
X111819522Y-84907616D01*
X111796718Y-84939002D01*
X111736002Y-84999718D01*
X111704616Y-85022522D01*
X111628104Y-85061507D01*
X111591207Y-85073495D01*
X111511425Y-85086131D01*
X111496640Y-85088473D01*
X111477244Y-85090000D01*
X108613756Y-85090000D01*
X108594359Y-85088473D01*
X108575258Y-85085447D01*
X108499792Y-85073495D01*
X108462895Y-85061507D01*
X108386383Y-85022522D01*
X108354997Y-84999718D01*
X108294281Y-84939002D01*
X108271477Y-84907616D01*
X108232492Y-84831104D01*
X108220504Y-84794206D01*
X108205527Y-84699641D01*
X108204000Y-84680244D01*
X108204000Y-80546756D01*
X108205525Y-80527370D01*
X108220505Y-80432784D01*
X108232493Y-80395894D01*
X108246603Y-80368201D01*
X108292299Y-80318771D01*
X108357087Y-80300500D01*
X111733913Y-80300500D01*
X111798702Y-80318772D01*
G37*
%TD.AperFunction*%
%TD*%
%TA.AperFunction,Conductor*%
%TO.N,-BATT*%
G36*
X125972800Y-80317113D02*
G01*
X126018187Y-80362500D01*
X126034800Y-80424500D01*
X126034800Y-90706400D01*
X126018187Y-90768400D01*
X125972800Y-90813787D01*
X125910800Y-90830400D01*
X116710000Y-90830400D01*
X116648000Y-90813787D01*
X116602613Y-90768400D01*
X116586000Y-90706400D01*
X116586000Y-89938027D01*
X116602551Y-89876135D01*
X116647784Y-89830765D01*
X116709627Y-89814028D01*
X124951789Y-89789201D01*
X125018800Y-89789000D01*
X125018800Y-80424500D01*
X125035413Y-80362500D01*
X125080800Y-80317113D01*
X125142800Y-80300500D01*
X125910800Y-80300500D01*
X125972800Y-80317113D01*
G37*
%TD.AperFunction*%
%TD*%
%TA.AperFunction,Conductor*%
%TO.N,-BATT*%
G36*
X121704702Y-80318772D02*
G01*
X121750397Y-80368204D01*
X121764506Y-80395894D01*
X121776495Y-80432792D01*
X121791473Y-80527358D01*
X121793000Y-80546756D01*
X121793000Y-84680244D01*
X121791473Y-84699642D01*
X121776495Y-84794207D01*
X121764507Y-84831104D01*
X121725522Y-84907616D01*
X121702718Y-84939002D01*
X121642002Y-84999718D01*
X121610616Y-85022522D01*
X121534104Y-85061507D01*
X121497207Y-85073495D01*
X121417425Y-85086131D01*
X121402640Y-85088473D01*
X121383244Y-85090000D01*
X118519756Y-85090000D01*
X118500359Y-85088473D01*
X118481258Y-85085447D01*
X118405792Y-85073495D01*
X118368895Y-85061507D01*
X118292383Y-85022522D01*
X118260997Y-84999718D01*
X118200281Y-84939002D01*
X118177477Y-84907616D01*
X118138492Y-84831104D01*
X118126504Y-84794206D01*
X118111527Y-84699641D01*
X118110000Y-84680244D01*
X118110000Y-80546756D01*
X118111525Y-80527370D01*
X118126505Y-80432784D01*
X118138493Y-80395894D01*
X118152603Y-80368201D01*
X118198299Y-80318771D01*
X118263087Y-80300500D01*
X121639913Y-80300500D01*
X121704702Y-80318772D01*
G37*
%TD.AperFunction*%
%TD*%
M02*
