%TF.GenerationSoftware,KiCad,Pcbnew,7.0.1*%
%TF.CreationDate,2023-10-06T11:12:28+02:00*%
%TF.ProjectId,Controller_board,436f6e74-726f-46c6-9c65-725f626f6172,rev?*%
%TF.SameCoordinates,Original*%
%TF.FileFunction,Copper,L1,Top*%
%TF.FilePolarity,Positive*%
%FSLAX46Y46*%
G04 Gerber Fmt 4.6, Leading zero omitted, Abs format (unit mm)*
G04 Created by KiCad (PCBNEW 7.0.1) date 2023-10-06 11:12:28*
%MOMM*%
%LPD*%
G01*
G04 APERTURE LIST*
G04 Aperture macros list*
%AMRoundRect*
0 Rectangle with rounded corners*
0 $1 Rounding radius*
0 $2 $3 $4 $5 $6 $7 $8 $9 X,Y pos of 4 corners*
0 Add a 4 corners polygon primitive as box body*
4,1,4,$2,$3,$4,$5,$6,$7,$8,$9,$2,$3,0*
0 Add four circle primitives for the rounded corners*
1,1,$1+$1,$2,$3*
1,1,$1+$1,$4,$5*
1,1,$1+$1,$6,$7*
1,1,$1+$1,$8,$9*
0 Add four rect primitives between the rounded corners*
20,1,$1+$1,$2,$3,$4,$5,0*
20,1,$1+$1,$4,$5,$6,$7,0*
20,1,$1+$1,$6,$7,$8,$9,0*
20,1,$1+$1,$8,$9,$2,$3,0*%
%AMFreePoly0*
4,1,19,0.550000,-0.750000,0.000000,-0.750000,0.000000,-0.744911,-0.071157,-0.744911,-0.207708,-0.704816,-0.327430,-0.627875,-0.420627,-0.520320,-0.479746,-0.390866,-0.500000,-0.250000,-0.500000,0.250000,-0.479746,0.390866,-0.420627,0.520320,-0.327430,0.627875,-0.207708,0.704816,-0.071157,0.744911,0.000000,0.744911,0.000000,0.750000,0.550000,0.750000,0.550000,-0.750000,0.550000,-0.750000,
$1*%
%AMFreePoly1*
4,1,19,0.000000,0.744911,0.071157,0.744911,0.207708,0.704816,0.327430,0.627875,0.420627,0.520320,0.479746,0.390866,0.500000,0.250000,0.500000,-0.250000,0.479746,-0.390866,0.420627,-0.520320,0.327430,-0.627875,0.207708,-0.704816,0.071157,-0.744911,0.000000,-0.744911,0.000000,-0.750000,-0.550000,-0.750000,-0.550000,0.750000,0.000000,0.750000,0.000000,0.744911,0.000000,0.744911,
$1*%
G04 Aperture macros list end*
%TA.AperFunction,ComponentPad*%
%ADD10R,2.000000X2.000000*%
%TD*%
%TA.AperFunction,ComponentPad*%
%ADD11C,2.000000*%
%TD*%
%TA.AperFunction,ComponentPad*%
%ADD12R,3.000000X2.500000*%
%TD*%
%TA.AperFunction,SMDPad,CuDef*%
%ADD13RoundRect,0.225000X-0.250000X0.225000X-0.250000X-0.225000X0.250000X-0.225000X0.250000X0.225000X0*%
%TD*%
%TA.AperFunction,SMDPad,CuDef*%
%ADD14RoundRect,0.225000X-0.225000X-0.250000X0.225000X-0.250000X0.225000X0.250000X-0.225000X0.250000X0*%
%TD*%
%TA.AperFunction,SMDPad,CuDef*%
%ADD15FreePoly0,270.000000*%
%TD*%
%TA.AperFunction,SMDPad,CuDef*%
%ADD16R,1.500000X1.000000*%
%TD*%
%TA.AperFunction,SMDPad,CuDef*%
%ADD17FreePoly1,270.000000*%
%TD*%
%TA.AperFunction,SMDPad,CuDef*%
%ADD18RoundRect,0.140000X-0.140000X-0.170000X0.140000X-0.170000X0.140000X0.170000X-0.140000X0.170000X0*%
%TD*%
%TA.AperFunction,SMDPad,CuDef*%
%ADD19RoundRect,0.150000X0.587500X0.150000X-0.587500X0.150000X-0.587500X-0.150000X0.587500X-0.150000X0*%
%TD*%
%TA.AperFunction,SMDPad,CuDef*%
%ADD20R,0.400000X1.650000*%
%TD*%
%TA.AperFunction,SMDPad,CuDef*%
%ADD21R,1.825000X0.700000*%
%TD*%
%TA.AperFunction,SMDPad,CuDef*%
%ADD22R,2.000000X1.500000*%
%TD*%
%TA.AperFunction,SMDPad,CuDef*%
%ADD23R,1.350000X2.000000*%
%TD*%
%TA.AperFunction,ComponentPad*%
%ADD24O,1.350000X1.700000*%
%TD*%
%TA.AperFunction,ComponentPad*%
%ADD25O,1.100000X1.500000*%
%TD*%
%TA.AperFunction,SMDPad,CuDef*%
%ADD26R,1.430000X2.500000*%
%TD*%
%TA.AperFunction,SMDPad,CuDef*%
%ADD27RoundRect,0.140000X0.170000X-0.140000X0.170000X0.140000X-0.170000X0.140000X-0.170000X-0.140000X0*%
%TD*%
%TA.AperFunction,SMDPad,CuDef*%
%ADD28RoundRect,0.225000X0.250000X-0.225000X0.250000X0.225000X-0.250000X0.225000X-0.250000X-0.225000X0*%
%TD*%
%TA.AperFunction,SMDPad,CuDef*%
%ADD29RoundRect,0.200000X-0.275000X0.200000X-0.275000X-0.200000X0.275000X-0.200000X0.275000X0.200000X0*%
%TD*%
%TA.AperFunction,SMDPad,CuDef*%
%ADD30R,1.500000X2.200000*%
%TD*%
%TA.AperFunction,SMDPad,CuDef*%
%ADD31R,3.800000X2.200000*%
%TD*%
%TA.AperFunction,SMDPad,CuDef*%
%ADD32RoundRect,0.075000X0.350000X0.075000X-0.350000X0.075000X-0.350000X-0.075000X0.350000X-0.075000X0*%
%TD*%
%TA.AperFunction,SMDPad,CuDef*%
%ADD33RoundRect,0.075000X-0.075000X0.350000X-0.075000X-0.350000X0.075000X-0.350000X0.075000X0.350000X0*%
%TD*%
%TA.AperFunction,SMDPad,CuDef*%
%ADD34RoundRect,0.150000X-0.150000X0.587500X-0.150000X-0.587500X0.150000X-0.587500X0.150000X0.587500X0*%
%TD*%
%TA.AperFunction,SMDPad,CuDef*%
%ADD35RoundRect,0.225000X0.225000X0.375000X-0.225000X0.375000X-0.225000X-0.375000X0.225000X-0.375000X0*%
%TD*%
%TA.AperFunction,SMDPad,CuDef*%
%ADD36RoundRect,0.075000X0.075000X-0.700000X0.075000X0.700000X-0.075000X0.700000X-0.075000X-0.700000X0*%
%TD*%
%TA.AperFunction,SMDPad,CuDef*%
%ADD37RoundRect,0.075000X0.700000X-0.075000X0.700000X0.075000X-0.700000X0.075000X-0.700000X-0.075000X0*%
%TD*%
%TA.AperFunction,SMDPad,CuDef*%
%ADD38RoundRect,0.218750X0.256250X-0.218750X0.256250X0.218750X-0.256250X0.218750X-0.256250X-0.218750X0*%
%TD*%
%TA.AperFunction,SMDPad,CuDef*%
%ADD39RoundRect,0.140000X-0.170000X0.140000X-0.170000X-0.140000X0.170000X-0.140000X0.170000X0.140000X0*%
%TD*%
%TA.AperFunction,SMDPad,CuDef*%
%ADD40FreePoly0,0.000000*%
%TD*%
%TA.AperFunction,SMDPad,CuDef*%
%ADD41R,1.000000X1.500000*%
%TD*%
%TA.AperFunction,SMDPad,CuDef*%
%ADD42FreePoly1,0.000000*%
%TD*%
%TA.AperFunction,SMDPad,CuDef*%
%ADD43RoundRect,0.250000X0.250000X0.475000X-0.250000X0.475000X-0.250000X-0.475000X0.250000X-0.475000X0*%
%TD*%
%TA.AperFunction,SMDPad,CuDef*%
%ADD44RoundRect,0.200000X-0.200000X-0.275000X0.200000X-0.275000X0.200000X0.275000X-0.200000X0.275000X0*%
%TD*%
%TA.AperFunction,SMDPad,CuDef*%
%ADD45RoundRect,0.200000X0.200000X0.275000X-0.200000X0.275000X-0.200000X-0.275000X0.200000X-0.275000X0*%
%TD*%
%TA.AperFunction,ComponentPad*%
%ADD46C,1.778000*%
%TD*%
%TA.AperFunction,ComponentPad*%
%ADD47C,2.286000*%
%TD*%
%TA.AperFunction,ComponentPad*%
%ADD48R,1.500000X1.500000*%
%TD*%
%TA.AperFunction,ComponentPad*%
%ADD49C,1.500000*%
%TD*%
%TA.AperFunction,SMDPad,CuDef*%
%ADD50RoundRect,0.225000X0.225000X0.250000X-0.225000X0.250000X-0.225000X-0.250000X0.225000X-0.250000X0*%
%TD*%
%TA.AperFunction,SMDPad,CuDef*%
%ADD51RoundRect,0.250000X-0.312500X-1.450000X0.312500X-1.450000X0.312500X1.450000X-0.312500X1.450000X0*%
%TD*%
%TA.AperFunction,ComponentPad*%
%ADD52R,1.350000X1.350000*%
%TD*%
%TA.AperFunction,ComponentPad*%
%ADD53O,1.350000X1.350000*%
%TD*%
%TA.AperFunction,SMDPad,CuDef*%
%ADD54C,1.000000*%
%TD*%
%TA.AperFunction,ComponentPad*%
%ADD55R,2.400000X2.400000*%
%TD*%
%TA.AperFunction,ComponentPad*%
%ADD56C,2.400000*%
%TD*%
%TA.AperFunction,SMDPad,CuDef*%
%ADD57R,1.550000X1.300000*%
%TD*%
%TA.AperFunction,SMDPad,CuDef*%
%ADD58RoundRect,0.150000X0.825000X0.150000X-0.825000X0.150000X-0.825000X-0.150000X0.825000X-0.150000X0*%
%TD*%
%TA.AperFunction,SMDPad,CuDef*%
%ADD59RoundRect,0.140000X0.140000X0.170000X-0.140000X0.170000X-0.140000X-0.170000X0.140000X-0.170000X0*%
%TD*%
%TA.AperFunction,SMDPad,CuDef*%
%ADD60R,1.400000X1.200000*%
%TD*%
%TA.AperFunction,SMDPad,CuDef*%
%ADD61R,2.286000X5.080000*%
%TD*%
%TA.AperFunction,SMDPad,CuDef*%
%ADD62R,2.413000X5.080000*%
%TD*%
%TA.AperFunction,SMDPad,CuDef*%
%ADD63RoundRect,0.200000X0.275000X-0.200000X0.275000X0.200000X-0.275000X0.200000X-0.275000X-0.200000X0*%
%TD*%
%TA.AperFunction,SMDPad,CuDef*%
%ADD64RoundRect,0.147500X-0.147500X-0.172500X0.147500X-0.172500X0.147500X0.172500X-0.147500X0.172500X0*%
%TD*%
%TA.AperFunction,SMDPad,CuDef*%
%ADD65RoundRect,0.150000X0.512500X0.150000X-0.512500X0.150000X-0.512500X-0.150000X0.512500X-0.150000X0*%
%TD*%
%TA.AperFunction,SMDPad,CuDef*%
%ADD66RoundRect,0.062500X0.062500X-0.350000X0.062500X0.350000X-0.062500X0.350000X-0.062500X-0.350000X0*%
%TD*%
%TA.AperFunction,SMDPad,CuDef*%
%ADD67RoundRect,0.062500X0.350000X-0.062500X0.350000X0.062500X-0.350000X0.062500X-0.350000X-0.062500X0*%
%TD*%
%TA.AperFunction,SMDPad,CuDef*%
%ADD68R,2.500000X2.500000*%
%TD*%
%TA.AperFunction,SMDPad,CuDef*%
%ADD69R,1.200000X1.400000*%
%TD*%
%TA.AperFunction,SMDPad,CuDef*%
%ADD70RoundRect,0.147500X0.172500X-0.147500X0.172500X0.147500X-0.172500X0.147500X-0.172500X-0.147500X0*%
%TD*%
%TA.AperFunction,SMDPad,CuDef*%
%ADD71RoundRect,0.150000X-0.150000X0.512500X-0.150000X-0.512500X0.150000X-0.512500X0.150000X0.512500X0*%
%TD*%
%TA.AperFunction,ViaPad*%
%ADD72C,0.600000*%
%TD*%
%TA.AperFunction,ViaPad*%
%ADD73C,0.700000*%
%TD*%
%TA.AperFunction,ViaPad*%
%ADD74C,0.500000*%
%TD*%
%TA.AperFunction,Conductor*%
%ADD75C,0.300000*%
%TD*%
%TA.AperFunction,Conductor*%
%ADD76C,0.349250*%
%TD*%
%TA.AperFunction,Conductor*%
%ADD77C,0.250000*%
%TD*%
%TA.AperFunction,Conductor*%
%ADD78C,0.700000*%
%TD*%
%TA.AperFunction,Conductor*%
%ADD79C,0.500000*%
%TD*%
%TA.AperFunction,Conductor*%
%ADD80C,1.000000*%
%TD*%
G04 APERTURE END LIST*
D10*
%TO.P,SW2,A,A*%
%TO.N,ENC_A*%
X148833000Y-89829000D03*
D11*
%TO.P,SW2,B,B*%
%TO.N,ENC_B*%
X148833000Y-94829000D03*
%TO.P,SW2,C,C*%
%TO.N,-BATT*%
X148833000Y-92329000D03*
D12*
%TO.P,SW2,MP*%
%TO.N,N/C*%
X156333000Y-86729000D03*
X156333000Y-97929000D03*
D11*
%TO.P,SW2,S1,S1*%
%TO.N,ENC_BUTTON*%
X163333000Y-89829000D03*
%TO.P,SW2,S2,S2*%
%TO.N,-BATT*%
X163333000Y-94829000D03*
%TD*%
D13*
%TO.P,C12,1*%
%TO.N,Net-(U4-VREF+)*%
X118770400Y-119253000D03*
%TO.P,C12,2*%
%TO.N,-BATT*%
X118770400Y-120803000D03*
%TD*%
D14*
%TO.P,C20,1*%
%TO.N,-BATT*%
X136842200Y-102920800D03*
%TO.P,C20,2*%
%TO.N,+3.3V*%
X138392200Y-102920800D03*
%TD*%
D15*
%TO.P,JP1,1,A*%
%TO.N,+BATT*%
X76200000Y-110254500D03*
D16*
%TO.P,JP1,2,C*%
%TO.N,EN*%
X76200000Y-111554500D03*
D17*
%TO.P,JP1,3,B*%
%TO.N,LATCH_POWERUP*%
X76200000Y-112854500D03*
%TD*%
D18*
%TO.P,C15,1*%
%TO.N,Net-(U4-PH1)*%
X112032200Y-119418800D03*
%TO.P,C15,2*%
%TO.N,-BATT*%
X112992200Y-119418800D03*
%TD*%
D19*
%TO.P,Q1,1,G*%
%TO.N,-BATT*%
X83335100Y-102810600D03*
%TO.P,Q1,2,S*%
%TO.N,Net-(Q1-S)*%
X83335100Y-100910600D03*
%TO.P,Q1,3,D*%
%TO.N,+BATT*%
X81460100Y-101860600D03*
%TD*%
D20*
%TO.P,J1,1,VBUS*%
%TO.N,V_USB*%
X86397000Y-84709400D03*
%TO.P,J1,2,D-*%
%TO.N,USB_CONN_D-*%
X85747000Y-84709400D03*
%TO.P,J1,3,D+*%
%TO.N,USB_CONN_D+*%
X85097000Y-84709400D03*
%TO.P,J1,4,ID*%
%TO.N,unconnected-(J1-ID-Pad4)*%
X84447000Y-84709400D03*
%TO.P,J1,5,GND*%
%TO.N,-BATT*%
X83797000Y-84709400D03*
D21*
%TO.P,J1,6,Shield*%
%TO.N,unconnected-(J1-Shield-Pad6)*%
X88047000Y-83509400D03*
D22*
X87947000Y-84809400D03*
D23*
X87827000Y-82759400D03*
D24*
X87827000Y-81829400D03*
D25*
X87517000Y-84829400D03*
D26*
X86057000Y-81559400D03*
X84137000Y-81559400D03*
D25*
X82677000Y-84829400D03*
D24*
X82367000Y-81829400D03*
D23*
X82347000Y-82759400D03*
D22*
X82197000Y-84829400D03*
D21*
X82097000Y-83509400D03*
%TD*%
D27*
%TO.P,C22,1*%
%TO.N,Net-(C22-Pad1)*%
X114096800Y-88364000D03*
%TO.P,C22,2*%
%TO.N,Net-(C22-Pad2)*%
X114096800Y-87404000D03*
%TD*%
D13*
%TO.P,C3,1*%
%TO.N,+3.3V*%
X123647200Y-111493000D03*
%TO.P,C3,2*%
%TO.N,-BATT*%
X123647200Y-113043000D03*
%TD*%
D28*
%TO.P,C21,1*%
%TO.N,-BATT*%
X131673600Y-107810600D03*
%TO.P,C21,2*%
%TO.N,+3.3V*%
X131673600Y-106260600D03*
%TD*%
%TO.P,C32,1*%
%TO.N,+3.3V*%
X127635000Y-121374200D03*
%TO.P,C32,2*%
%TO.N,-BATT*%
X127635000Y-119824200D03*
%TD*%
D29*
%TO.P,R11,1*%
%TO.N,BOOT0*%
X105918000Y-119063000D03*
%TO.P,R11,2*%
%TO.N,Net-(SW1-B)*%
X105918000Y-120713000D03*
%TD*%
D30*
%TO.P,U1,1,GND*%
%TO.N,-BATT*%
X103392000Y-99466000D03*
%TO.P,U1,2,VOUT*%
%TO.N,+3.3V*%
X101092000Y-99466000D03*
%TO.P,U1,3,VIN*%
%TO.N,+5V*%
X98792000Y-99466000D03*
D31*
%TO.P,U1,4,VOUT*%
%TO.N,+3.3V*%
X101092000Y-105766000D03*
%TD*%
D32*
%TO.P,U5,1,CLKIN*%
%TO.N,-BATT*%
X137820400Y-108297600D03*
%TO.P,U5,2,NC*%
%TO.N,unconnected-(U5-NC-Pad2)*%
X137820400Y-107797600D03*
%TO.P,U5,3,NC*%
%TO.N,unconnected-(U5-NC-Pad3)*%
X137820400Y-107297600D03*
%TO.P,U5,4,NC*%
%TO.N,unconnected-(U5-NC-Pad4)*%
X137820400Y-106797600D03*
%TO.P,U5,5,NC*%
%TO.N,unconnected-(U5-NC-Pad5)*%
X137820400Y-106297600D03*
%TO.P,U5,6,AUX_DA*%
%TO.N,unconnected-(U5-AUX_DA-Pad6)*%
X137820400Y-105797600D03*
D33*
%TO.P,U5,7,AUX_CL*%
%TO.N,unconnected-(U5-AUX_CL-Pad7)*%
X137120400Y-105097600D03*
%TO.P,U5,8,VLOGIC*%
%TO.N,+3.3V*%
X136620400Y-105097600D03*
%TO.P,U5,9,AD0*%
%TO.N,-BATT*%
X136120400Y-105097600D03*
%TO.P,U5,10,REGOUT*%
%TO.N,Net-(U5-REGOUT)*%
X135620400Y-105097600D03*
%TO.P,U5,11,FSYNC*%
%TO.N,-BATT*%
X135120400Y-105097600D03*
%TO.P,U5,12,INT*%
%TO.N,MPU-6050_IRQ*%
X134620400Y-105097600D03*
D32*
%TO.P,U5,13,VDD*%
%TO.N,+3.3V*%
X133920400Y-105797600D03*
%TO.P,U5,14,NC*%
%TO.N,unconnected-(U5-NC-Pad14)*%
X133920400Y-106297600D03*
%TO.P,U5,15,NC*%
%TO.N,unconnected-(U5-NC-Pad15)*%
X133920400Y-106797600D03*
%TO.P,U5,16,NC*%
%TO.N,unconnected-(U5-NC-Pad16)*%
X133920400Y-107297600D03*
%TO.P,U5,17,NC*%
%TO.N,unconnected-(U5-NC-Pad17)*%
X133920400Y-107797600D03*
%TO.P,U5,18,GND*%
%TO.N,-BATT*%
X133920400Y-108297600D03*
D33*
%TO.P,U5,19,RESV*%
%TO.N,unconnected-(U5-RESV-Pad19)*%
X134620400Y-108997600D03*
%TO.P,U5,20,CPOUT*%
%TO.N,Net-(U5-CPOUT)*%
X135120400Y-108997600D03*
%TO.P,U5,21,RESV*%
%TO.N,unconnected-(U5-RESV-Pad21)*%
X135620400Y-108997600D03*
%TO.P,U5,22,RESV*%
%TO.N,unconnected-(U5-RESV-Pad22)*%
X136120400Y-108997600D03*
%TO.P,U5,23,SCL*%
%TO.N,I2C_SCL*%
X136620400Y-108997600D03*
%TO.P,U5,24,SDA*%
%TO.N,I2C_SDA*%
X137120400Y-108997600D03*
%TD*%
D34*
%TO.P,Q3,1,C*%
%TO.N,Net-(Q2-G)*%
X85278000Y-112268000D03*
%TO.P,Q3,2,B*%
%TO.N,Net-(Q3-B)*%
X83378000Y-112268000D03*
%TO.P,Q3,3,E*%
%TO.N,-BATT*%
X84328000Y-114143000D03*
%TD*%
D35*
%TO.P,D5,1,K*%
%TO.N,+5V*%
X98043000Y-93980000D03*
%TO.P,D5,2,A*%
%TO.N,V_USB*%
X94743000Y-93980000D03*
%TD*%
D34*
%TO.P,Q2,1,G*%
%TO.N,Net-(Q2-G)*%
X81214000Y-112268000D03*
%TO.P,Q2,2,S*%
%TO.N,+BATT*%
X79314000Y-112268000D03*
%TO.P,Q2,3,D*%
%TO.N,LATCH_POWERUP*%
X80264000Y-114143000D03*
%TD*%
D28*
%TO.P,C31,1*%
%TO.N,+3.3V*%
X125730000Y-121374200D03*
%TO.P,C31,2*%
%TO.N,-BATT*%
X125730000Y-119824200D03*
%TD*%
D36*
%TO.P,U4,1,VBAT*%
%TO.N,+3.3V*%
X111250000Y-114895000D03*
%TO.P,U4,2,PC13*%
%TO.N,MPU-6050_IRQ*%
X111750000Y-114895000D03*
%TO.P,U4,3,PC14*%
%TO.N,unconnected-(U4-PC14-Pad3)*%
X112250000Y-114895000D03*
%TO.P,U4,4,PC15*%
%TO.N,unconnected-(U4-PC15-Pad4)*%
X112750000Y-114895000D03*
%TO.P,U4,5,PH0*%
%TO.N,Net-(U4-PH0)*%
X113250000Y-114895000D03*
%TO.P,U4,6,PH1*%
%TO.N,Net-(U4-PH1)*%
X113750000Y-114895000D03*
%TO.P,U4,7,NRST*%
%TO.N,NRST*%
X114250000Y-114895000D03*
%TO.P,U4,8,PC0*%
%TO.N,JOY1_BUTTON*%
X114750000Y-114895000D03*
%TO.P,U4,9,PC1*%
%TO.N,JOY1_ADC_Y*%
X115250000Y-114895000D03*
%TO.P,U4,10,PC2*%
%TO.N,JOY1_ADC_X*%
X115750000Y-114895000D03*
%TO.P,U4,11,PC3*%
%TO.N,unconnected-(U4-PC3-Pad11)*%
X116250000Y-114895000D03*
%TO.P,U4,12,VSSA*%
%TO.N,-BATT*%
X116750000Y-114895000D03*
%TO.P,U4,13,VREF+*%
%TO.N,Net-(U4-VREF+)*%
X117250000Y-114895000D03*
%TO.P,U4,14,PA0*%
%TO.N,JOY2_BUTTON*%
X117750000Y-114895000D03*
%TO.P,U4,15,PA1*%
%TO.N,JOY2_ADC_Y*%
X118250000Y-114895000D03*
%TO.P,U4,16,PA2*%
%TO.N,JOY2_ADC_X*%
X118750000Y-114895000D03*
D37*
%TO.P,U4,17,PA3*%
%TO.N,unconnected-(U4-PA3-Pad17)*%
X120675000Y-112970000D03*
%TO.P,U4,18,VSS*%
%TO.N,-BATT*%
X120675000Y-112470000D03*
%TO.P,U4,19,VDD*%
%TO.N,+3.3V*%
X120675000Y-111970000D03*
%TO.P,U4,20,PA4*%
%TO.N,unconnected-(U4-PA4-Pad20)*%
X120675000Y-111470000D03*
%TO.P,U4,21,PA5*%
%TO.N,ENC_BUTTON*%
X120675000Y-110970000D03*
%TO.P,U4,22,PA6*%
%TO.N,ENC_A*%
X120675000Y-110470000D03*
%TO.P,U4,23,PA7*%
%TO.N,ENC_B*%
X120675000Y-109970000D03*
%TO.P,U4,24,PC4*%
%TO.N,unconnected-(U4-PC4-Pad24)*%
X120675000Y-109470000D03*
%TO.P,U4,25,PC5*%
%TO.N,BATTERY_ADC*%
X120675000Y-108970000D03*
%TO.P,U4,26,PB0*%
%TO.N,unconnected-(U4-PB0-Pad26)*%
X120675000Y-108470000D03*
%TO.P,U4,27,PB1*%
%TO.N,unconnected-(U4-PB1-Pad27)*%
X120675000Y-107970000D03*
%TO.P,U4,28,PB2*%
%TO.N,Net-(D4-K)*%
X120675000Y-107470000D03*
%TO.P,U4,29,PB10*%
%TO.N,unconnected-(U4-PB10-Pad29)*%
X120675000Y-106970000D03*
%TO.P,U4,30,VCAP1*%
%TO.N,Net-(U4-VCAP1)*%
X120675000Y-106470000D03*
%TO.P,U4,31,VSS*%
%TO.N,-BATT*%
X120675000Y-105970000D03*
%TO.P,U4,32,VDD*%
%TO.N,+3.3V*%
X120675000Y-105470000D03*
D36*
%TO.P,U4,33,PB12*%
%TO.N,NRF_IRQ*%
X118750000Y-103545000D03*
%TO.P,U4,34,PB13*%
%TO.N,NRF_SCK*%
X118250000Y-103545000D03*
%TO.P,U4,35,PB14*%
%TO.N,NRF_MISO*%
X117750000Y-103545000D03*
%TO.P,U4,36,PB15*%
%TO.N,NRF_MOSI*%
X117250000Y-103545000D03*
%TO.P,U4,37,PC6*%
%TO.N,NRF_CSN*%
X116750000Y-103545000D03*
%TO.P,U4,38,PC7*%
%TO.N,NRF_CE*%
X116250000Y-103545000D03*
%TO.P,U4,39,PC8*%
%TO.N,unconnected-(U4-PC8-Pad39)*%
X115750000Y-103545000D03*
%TO.P,U4,40,PC9*%
%TO.N,OLED_SDA*%
X115250000Y-103545000D03*
%TO.P,U4,41,PA8*%
%TO.N,OLED_SCL*%
X114750000Y-103545000D03*
%TO.P,U4,42,PA9*%
%TO.N,unconnected-(U4-PA9-Pad42)*%
X114250000Y-103545000D03*
%TO.P,U4,43,PA10*%
%TO.N,unconnected-(U4-PA10-Pad43)*%
X113750000Y-103545000D03*
%TO.P,U4,44,PA11*%
%TO.N,USB_D-*%
X113250000Y-103545000D03*
%TO.P,U4,45,PA12*%
%TO.N,USB_D+*%
X112750000Y-103545000D03*
%TO.P,U4,46,PA13*%
%TO.N,SWDIO*%
X112250000Y-103545000D03*
%TO.P,U4,47,VSS*%
%TO.N,-BATT*%
X111750000Y-103545000D03*
%TO.P,U4,48,VDD*%
%TO.N,+3.3V*%
X111250000Y-103545000D03*
D37*
%TO.P,U4,49,PA14*%
%TO.N,SWCLK*%
X109325000Y-105470000D03*
%TO.P,U4,50,PA15*%
%TO.N,unconnected-(U4-PA15-Pad50)*%
X109325000Y-105970000D03*
%TO.P,U4,51,PC10*%
%TO.N,BUTTON_UP*%
X109325000Y-106470000D03*
%TO.P,U4,52,PC11*%
%TO.N,unconnected-(U4-PC11-Pad52)*%
X109325000Y-106970000D03*
%TO.P,U4,53,PC12*%
%TO.N,unconnected-(U4-PC12-Pad53)*%
X109325000Y-107470000D03*
%TO.P,U4,54,PD2*%
%TO.N,Power_Btn*%
X109325000Y-107970000D03*
%TO.P,U4,55,PB3*%
%TO.N,SWO*%
X109325000Y-108470000D03*
%TO.P,U4,56,PB4*%
%TO.N,unconnected-(U4-PB4-Pad56)*%
X109325000Y-108970000D03*
%TO.P,U4,57,PB5*%
%TO.N,KEEP_ALIVE*%
X109325000Y-109470000D03*
%TO.P,U4,58,PB6*%
%TO.N,unconnected-(U4-PB6-Pad58)*%
X109325000Y-109970000D03*
%TO.P,U4,59,PB7*%
%TO.N,unconnected-(U4-PB7-Pad59)*%
X109325000Y-110470000D03*
%TO.P,U4,60,BOOT0*%
%TO.N,BOOT0*%
X109325000Y-110970000D03*
%TO.P,U4,61,PB8*%
%TO.N,I2C_SCL*%
X109325000Y-111470000D03*
%TO.P,U4,62,PB9*%
%TO.N,I2C_SDA*%
X109325000Y-111970000D03*
%TO.P,U4,63,VSS*%
%TO.N,-BATT*%
X109325000Y-112470000D03*
%TO.P,U4,64,VDD*%
%TO.N,+3.3V*%
X109325000Y-112970000D03*
%TD*%
D38*
%TO.P,D3,1,K*%
%TO.N,-BATT*%
X94996000Y-108483500D03*
%TO.P,D3,2,A*%
%TO.N,Net-(D3-A)*%
X94996000Y-106908500D03*
%TD*%
D39*
%TO.P,C27,1*%
%TO.N,-BATT*%
X116052600Y-88318400D03*
%TO.P,C27,2*%
%TO.N,NRF_VDD_PA*%
X116052600Y-89278400D03*
%TD*%
D40*
%TO.P,SW1,1,A*%
%TO.N,+3.3V*%
X104618000Y-125292100D03*
D41*
%TO.P,SW1,2,B*%
%TO.N,Net-(SW1-B)*%
X105918000Y-125292100D03*
D42*
%TO.P,SW1,3,C*%
%TO.N,-BATT*%
X107218000Y-125292100D03*
%TD*%
D43*
%TO.P,C8,1*%
%TO.N,+5V*%
X95057000Y-99517200D03*
%TO.P,C8,2*%
%TO.N,-BATT*%
X93157000Y-99517200D03*
%TD*%
D28*
%TO.P,C9,1*%
%TO.N,+5V*%
X96774000Y-99530200D03*
%TO.P,C9,2*%
%TO.N,-BATT*%
X96774000Y-97980200D03*
%TD*%
D44*
%TO.P,R7,1*%
%TO.N,+3.3V*%
X132842000Y-98806000D03*
%TO.P,R7,2*%
%TO.N,OLED_SCL*%
X134492000Y-98806000D03*
%TD*%
D13*
%TO.P,C13,1*%
%TO.N,Net-(U4-VREF+)*%
X116941600Y-119253000D03*
%TO.P,C13,2*%
%TO.N,-BATT*%
X116941600Y-120803000D03*
%TD*%
D45*
%TO.P,R3,1*%
%TO.N,+5V*%
X96583000Y-104775000D03*
%TO.P,R3,2*%
%TO.N,Net-(D3-A)*%
X94933000Y-104775000D03*
%TD*%
D46*
%TO.P,U9,B1A,SEL+*%
%TO.N,JOY2_BUTTON*%
X137300000Y-133175000D03*
%TO.P,U9,B1B*%
%TO.N,N/C*%
X137300000Y-126825000D03*
%TO.P,U9,B2A,SEL-*%
%TO.N,-BATT*%
X142380000Y-133175000D03*
%TO.P,U9,B2B*%
%TO.N,N/C*%
X142380000Y-126825000D03*
%TO.P,U9,H1,H+*%
%TO.N,+3.3V*%
X160160000Y-132540000D03*
%TO.P,U9,H2,H*%
%TO.N,JOY2_ADC_X*%
X160160000Y-130000000D03*
%TO.P,U9,H3,H-*%
%TO.N,-BATT*%
X160160000Y-127460000D03*
D47*
%TO.P,U9,S1,SHIELD*%
%TO.N,unconnected-(U9-SHIELD-PadS1)*%
X143332500Y-137620000D03*
%TO.P,U9,S2,SHIELD*%
%TO.N,unconnected-(U9-SHIELD-PadS2)*%
X156667500Y-137620000D03*
%TO.P,U9,S3,SHIELD*%
%TO.N,unconnected-(U9-SHIELD-PadS3)*%
X156667500Y-122380000D03*
%TO.P,U9,S4,SHIELD*%
%TO.N,unconnected-(U9-SHIELD-PadS4)*%
X143332500Y-122380000D03*
D46*
%TO.P,U9,V1,V+*%
%TO.N,+3.3V*%
X147460000Y-140160000D03*
%TO.P,U9,V2,V*%
%TO.N,JOY2_ADC_Y*%
X150000000Y-140160000D03*
%TO.P,U9,V3,V-*%
%TO.N,-BATT*%
X152540000Y-140160000D03*
%TD*%
D48*
%TO.P,J2,1,Pin_1*%
%TO.N,OLED_SDA*%
X131191000Y-91610000D03*
D49*
%TO.P,J2,2,Pin_2*%
%TO.N,OLED_SCL*%
X133191000Y-91610000D03*
%TO.P,J2,3,Pin_3*%
%TO.N,+3.3V*%
X135191000Y-91610000D03*
%TO.P,J2,4,Pin_4*%
%TO.N,-BATT*%
X137191000Y-91610000D03*
%TD*%
D50*
%TO.P,C6,1*%
%TO.N,+3.3V*%
X108420200Y-114401600D03*
%TO.P,C6,2*%
%TO.N,-BATT*%
X106870200Y-114401600D03*
%TD*%
D51*
%TO.P,L1,1*%
%TO.N,Net-(Q1-S)*%
X85949700Y-103454200D03*
%TO.P,L1,2*%
%TO.N,Net-(D2-A)*%
X90224700Y-103454200D03*
%TD*%
D52*
%TO.P,J3,1,Pin_1*%
%TO.N,+3.3V*%
X100854000Y-110300000D03*
D53*
%TO.P,J3,2,Pin_2*%
%TO.N,SWDIO*%
X102854000Y-110300000D03*
%TO.P,J3,3,Pin_3*%
%TO.N,-BATT*%
X100854000Y-112300000D03*
%TO.P,J3,4,Pin_4*%
%TO.N,SWCLK*%
X102854000Y-112300000D03*
%TO.P,J3,5,Pin_5*%
%TO.N,-BATT*%
X100854000Y-114300000D03*
%TO.P,J3,6,Pin_6*%
%TO.N,SWO*%
X102854000Y-114300000D03*
%TO.P,J3,7,Pin_7*%
%TO.N,unconnected-(J3-Pin_7-Pad7)*%
X100854000Y-116300000D03*
%TO.P,J3,8,Pin_8*%
%TO.N,unconnected-(J3-Pin_8-Pad8)*%
X102854000Y-116300000D03*
%TO.P,J3,9,Pin_9*%
%TO.N,-BATT*%
X100854000Y-118300000D03*
%TO.P,J3,10,Pin_10*%
%TO.N,NRST*%
X102854000Y-118300000D03*
%TD*%
D13*
%TO.P,C28,1*%
%TO.N,-BATT*%
X134975600Y-101383800D03*
%TO.P,C28,2*%
%TO.N,Net-(U5-REGOUT)*%
X134975600Y-102933800D03*
%TD*%
D46*
%TO.P,U8,B1A,SEL+*%
%TO.N,JOY1_BUTTON*%
X67300000Y-133175000D03*
%TO.P,U8,B1B*%
%TO.N,N/C*%
X67300000Y-126825000D03*
%TO.P,U8,B2A,SEL-*%
%TO.N,-BATT*%
X72380000Y-133175000D03*
%TO.P,U8,B2B*%
%TO.N,N/C*%
X72380000Y-126825000D03*
%TO.P,U8,H1,H+*%
%TO.N,+3.3V*%
X90160000Y-132540000D03*
%TO.P,U8,H2,H*%
%TO.N,JOY1_ADC_X*%
X90160000Y-130000000D03*
%TO.P,U8,H3,H-*%
%TO.N,-BATT*%
X90160000Y-127460000D03*
D47*
%TO.P,U8,S1,SHIELD*%
%TO.N,unconnected-(U8-SHIELD-PadS1)*%
X73332500Y-137620000D03*
%TO.P,U8,S2,SHIELD*%
%TO.N,unconnected-(U8-SHIELD-PadS2)*%
X86667500Y-137620000D03*
%TO.P,U8,S3,SHIELD*%
%TO.N,unconnected-(U8-SHIELD-PadS3)*%
X86667500Y-122380000D03*
%TO.P,U8,S4,SHIELD*%
%TO.N,unconnected-(U8-SHIELD-PadS4)*%
X73332500Y-122380000D03*
D46*
%TO.P,U8,V1,V+*%
%TO.N,+3.3V*%
X77460000Y-140160000D03*
%TO.P,U8,V2,V*%
%TO.N,JOY1_ADC_Y*%
X80000000Y-140160000D03*
%TO.P,U8,V3,V-*%
%TO.N,-BATT*%
X82540000Y-140160000D03*
%TD*%
D45*
%TO.P,R8,1*%
%TO.N,+3.3V*%
X132841000Y-96774000D03*
%TO.P,R8,2*%
%TO.N,OLED_SDA*%
X131191000Y-96774000D03*
%TD*%
D28*
%TO.P,C19,1*%
%TO.N,+3.3V*%
X120370600Y-98844400D03*
%TO.P,C19,2*%
%TO.N,-BATT*%
X120370600Y-97294400D03*
%TD*%
D54*
%TO.P,TP1,1,1*%
%TO.N,+5V*%
X97536000Y-108077000D03*
%TD*%
D55*
%TO.P,BT1,1,+*%
%TO.N,+BATT*%
X68518000Y-107978000D03*
D56*
%TO.P,BT1,2,-*%
%TO.N,-BATT*%
X68518000Y-111478000D03*
%TD*%
D57*
%TO.P,SW4,1,1*%
%TO.N,-BATT*%
X69685000Y-96338000D03*
X77635000Y-96338000D03*
%TO.P,SW4,2,2*%
%TO.N,BUTTON_DOWN*%
X69685000Y-100838000D03*
X77635000Y-100838000D03*
%TD*%
D44*
%TO.P,R18,1*%
%TO.N,Net-(Q3-B)*%
X83503000Y-110157500D03*
%TO.P,R18,2*%
%TO.N,KEEP_ALIVE*%
X85153000Y-110157500D03*
%TD*%
%TO.P,R13,1*%
%TO.N,+3.3V*%
X109541800Y-93938600D03*
%TO.P,R13,2*%
%TO.N,Net-(U6-IREF)*%
X111191800Y-93938600D03*
%TD*%
D28*
%TO.P,C5,1*%
%TO.N,+3.3V*%
X109321600Y-102629000D03*
%TO.P,C5,2*%
%TO.N,-BATT*%
X109321600Y-101079000D03*
%TD*%
D38*
%TO.P,FB1,1*%
%TO.N,+3.3V*%
X120523000Y-120802500D03*
%TO.P,FB1,2*%
%TO.N,Net-(U4-VREF+)*%
X120523000Y-119227500D03*
%TD*%
D28*
%TO.P,C16,1*%
%TO.N,Net-(U4-VCAP1)*%
X124180600Y-106261200D03*
%TO.P,C16,2*%
%TO.N,-BATT*%
X124180600Y-104711200D03*
%TD*%
D45*
%TO.P,R1,1*%
%TO.N,+5V*%
X93103200Y-96596200D03*
%TO.P,R1,2*%
%TO.N,Net-(U2-FB)*%
X91453200Y-96596200D03*
%TD*%
D58*
%TO.P,U7,1,E0*%
%TO.N,-BATT*%
X135317000Y-121285000D03*
%TO.P,U7,2,E1*%
X135317000Y-120015000D03*
%TO.P,U7,3,E2*%
X135317000Y-118745000D03*
%TO.P,U7,4,VSS*%
X135317000Y-117475000D03*
%TO.P,U7,5,SDA*%
%TO.N,I2C_SDA*%
X130367000Y-117475000D03*
%TO.P,U7,6,SCL*%
%TO.N,I2C_SCL*%
X130367000Y-118745000D03*
%TO.P,U7,7,~{WC}*%
%TO.N,-BATT*%
X130367000Y-120015000D03*
%TO.P,U7,8,VCC*%
%TO.N,+3.3V*%
X130367000Y-121285000D03*
%TD*%
D59*
%TO.P,C24,1*%
%TO.N,NRF_XC2*%
X123749900Y-97701600D03*
%TO.P,C24,2*%
%TO.N,-BATT*%
X122789900Y-97701600D03*
%TD*%
D14*
%TO.P,C11,1*%
%TO.N,+3.3V*%
X101485400Y-95504000D03*
%TO.P,C11,2*%
%TO.N,-BATT*%
X103035400Y-95504000D03*
%TD*%
D45*
%TO.P,R10,1*%
%TO.N,+3.3V*%
X128587000Y-114554000D03*
%TO.P,R10,2*%
%TO.N,I2C_SDA*%
X126937000Y-114554000D03*
%TD*%
D60*
%TO.P,Y1,1,1*%
%TO.N,Net-(U4-PH0)*%
X110243000Y-123035800D03*
%TO.P,Y1,2,2*%
%TO.N,-BATT*%
X112443000Y-123035800D03*
%TO.P,Y1,3,3*%
%TO.N,Net-(U4-PH1)*%
X112443000Y-121335800D03*
%TO.P,Y1,4,4*%
%TO.N,-BATT*%
X110243000Y-121335800D03*
%TD*%
D50*
%TO.P,C18,1*%
%TO.N,+3.3V*%
X111141800Y-92109800D03*
%TO.P,C18,2*%
%TO.N,-BATT*%
X109591800Y-92109800D03*
%TD*%
D61*
%TO.P,J4,1*%
%TO.N,Net-(C22-Pad2)*%
X114998500Y-82931000D03*
D62*
%TO.P,J4,2*%
%TO.N,-BATT*%
X110617000Y-82931000D03*
X119380000Y-82931000D03*
%TD*%
D14*
%TO.P,C4,1*%
%TO.N,+3.3V*%
X122669000Y-102920800D03*
%TO.P,C4,2*%
%TO.N,-BATT*%
X124219000Y-102920800D03*
%TD*%
D38*
%TO.P,D4,1,K*%
%TO.N,Net-(D4-K)*%
X126542800Y-106273700D03*
%TO.P,D4,2,A*%
%TO.N,Net-(D4-A)*%
X126542800Y-104698700D03*
%TD*%
D63*
%TO.P,R12,1*%
%TO.N,NRF_XC2*%
X120370600Y-94869000D03*
%TO.P,R12,2*%
%TO.N,NRF_XC1*%
X120370600Y-93219000D03*
%TD*%
D39*
%TO.P,C26,1*%
%TO.N,-BATT*%
X117043200Y-88318400D03*
%TO.P,C26,2*%
%TO.N,NRF_VDD_PA*%
X117043200Y-89278400D03*
%TD*%
D45*
%TO.P,R2,1*%
%TO.N,BATTERY_ADC*%
X74637400Y-103987600D03*
%TO.P,R2,2*%
%TO.N,+BATT*%
X72987400Y-103987600D03*
%TD*%
D44*
%TO.P,R9,1*%
%TO.N,+3.3V*%
X130874000Y-114554000D03*
%TO.P,R9,2*%
%TO.N,I2C_SCL*%
X132524000Y-114554000D03*
%TD*%
D13*
%TO.P,C17,1*%
%TO.N,+3.3V*%
X109601000Y-96253000D03*
%TO.P,C17,2*%
%TO.N,-BATT*%
X109601000Y-97803000D03*
%TD*%
D59*
%TO.P,C14,1*%
%TO.N,Net-(U4-PH0)*%
X110655400Y-119418800D03*
%TO.P,C14,2*%
%TO.N,-BATT*%
X109695400Y-119418800D03*
%TD*%
%TO.P,C23,1*%
%TO.N,Net-(C22-Pad2)*%
X114068800Y-86461600D03*
%TO.P,C23,2*%
%TO.N,-BATT*%
X113108800Y-86461600D03*
%TD*%
D64*
%TO.P,L5,1*%
%TO.N,NRF_ANT1*%
X115085000Y-90246200D03*
%TO.P,L5,2*%
%TO.N,NRF_VDD_PA*%
X116055000Y-90246200D03*
%TD*%
D27*
%TO.P,C29,1*%
%TO.N,-BATT*%
X135128000Y-111478000D03*
%TO.P,C29,2*%
%TO.N,Net-(U5-CPOUT)*%
X135128000Y-110518000D03*
%TD*%
D57*
%TO.P,SW3,1,1*%
%TO.N,-BATT*%
X69685000Y-83892000D03*
X77635000Y-83892000D03*
%TO.P,SW3,2,2*%
%TO.N,BUTTON_UP*%
X69685000Y-88392000D03*
X77635000Y-88392000D03*
%TD*%
D14*
%TO.P,C10,1*%
%TO.N,+3.3V*%
X101485400Y-97180400D03*
%TO.P,C10,2*%
%TO.N,-BATT*%
X103035400Y-97180400D03*
%TD*%
D65*
%TO.P,U2,1,SW*%
%TO.N,Net-(D2-A)*%
X90748700Y-100467200D03*
%TO.P,U2,2,GND*%
%TO.N,-BATT*%
X90748700Y-99517200D03*
%TO.P,U2,3,FB*%
%TO.N,Net-(U2-FB)*%
X90748700Y-98567200D03*
%TO.P,U2,4,EN*%
%TO.N,EN*%
X88473700Y-98567200D03*
%TO.P,U2,5,VIN*%
%TO.N,Net-(Q1-S)*%
X88473700Y-100467200D03*
%TD*%
D45*
%TO.P,R4,1*%
%TO.N,Net-(U2-FB)*%
X89547200Y-96596200D03*
%TO.P,R4,2*%
%TO.N,-BATT*%
X87897200Y-96596200D03*
%TD*%
D66*
%TO.P,U6,1,CE*%
%TO.N,NRF_CE*%
X113935000Y-97060500D03*
%TO.P,U6,2,CSN*%
%TO.N,NRF_CSN*%
X114435000Y-97060500D03*
%TO.P,U6,3,SCK*%
%TO.N,NRF_SCK*%
X114935000Y-97060500D03*
%TO.P,U6,4,MOSI*%
%TO.N,NRF_MOSI*%
X115435000Y-97060500D03*
%TO.P,U6,5,MISO*%
%TO.N,NRF_MISO*%
X115935000Y-97060500D03*
D67*
%TO.P,U6,6,IRQ*%
%TO.N,NRF_IRQ*%
X116872500Y-96123000D03*
%TO.P,U6,7,VDD*%
%TO.N,+3.3V*%
X116872500Y-95623000D03*
%TO.P,U6,8,VSS*%
%TO.N,-BATT*%
X116872500Y-95123000D03*
%TO.P,U6,9,XC2*%
%TO.N,NRF_XC2*%
X116872500Y-94623000D03*
%TO.P,U6,10,XC1*%
%TO.N,NRF_XC1*%
X116872500Y-94123000D03*
D66*
%TO.P,U6,11,VDD_PA*%
%TO.N,NRF_VDD_PA*%
X115935000Y-93185500D03*
%TO.P,U6,12,ANT1*%
%TO.N,NRF_ANT1*%
X115435000Y-93185500D03*
%TO.P,U6,13,ANT2*%
%TO.N,NRF_ANT2*%
X114935000Y-93185500D03*
%TO.P,U6,14,VSS*%
%TO.N,-BATT*%
X114435000Y-93185500D03*
%TO.P,U6,15,VDD*%
%TO.N,+3.3V*%
X113935000Y-93185500D03*
D67*
%TO.P,U6,16,IREF*%
%TO.N,Net-(U6-IREF)*%
X112997500Y-94123000D03*
%TO.P,U6,17,VSS*%
%TO.N,-BATT*%
X112997500Y-94623000D03*
%TO.P,U6,18,VDD*%
%TO.N,+3.3V*%
X112997500Y-95123000D03*
%TO.P,U6,19,DVDD*%
%TO.N,Net-(U6-DVDD)*%
X112997500Y-95623000D03*
%TO.P,U6,20,VSS*%
%TO.N,-BATT*%
X112997500Y-96123000D03*
D68*
%TO.P,U6,21*%
%TO.N,N/C*%
X114935000Y-95123000D03*
%TD*%
D69*
%TO.P,Y2,1,1*%
%TO.N,NRF_XC2*%
X124119900Y-96040800D03*
%TO.P,Y2,2,2*%
%TO.N,-BATT*%
X124119900Y-93840800D03*
%TO.P,Y2,3,3*%
%TO.N,NRF_XC1*%
X122419900Y-93840800D03*
%TO.P,Y2,4,4*%
%TO.N,-BATT*%
X122419900Y-96040800D03*
%TD*%
D70*
%TO.P,L3,1*%
%TO.N,NRF_ANT2*%
X114096800Y-90274000D03*
%TO.P,L3,2*%
%TO.N,Net-(C22-Pad1)*%
X114096800Y-89304000D03*
%TD*%
D44*
%TO.P,R16,1*%
%TO.N,+BATT*%
X87567000Y-110157500D03*
%TO.P,R16,2*%
%TO.N,Power_Btn*%
X89217000Y-110157500D03*
%TD*%
D35*
%TO.P,D2,1,K*%
%TO.N,+5V*%
X95198200Y-102565200D03*
%TO.P,D2,2,A*%
%TO.N,Net-(D2-A)*%
X91898200Y-102565200D03*
%TD*%
D64*
%TO.P,L4,1*%
%TO.N,NRF_ANT2*%
X114069000Y-91313000D03*
%TO.P,L4,2*%
%TO.N,NRF_ANT1*%
X115039000Y-91313000D03*
%TD*%
D28*
%TO.P,C7,1*%
%TO.N,Net-(Q1-S)*%
X85420200Y-100546200D03*
%TO.P,C7,2*%
%TO.N,-BATT*%
X85420200Y-98996200D03*
%TD*%
D13*
%TO.P,C30,1*%
%TO.N,Net-(U6-DVDD)*%
X111379000Y-96253000D03*
%TO.P,C30,2*%
%TO.N,-BATT*%
X111379000Y-97803000D03*
%TD*%
D34*
%TO.P,D1,1*%
%TO.N,Power_Btn*%
X89342000Y-112268000D03*
%TO.P,D1,2*%
%TO.N,Net-(Q2-G)*%
X87442000Y-112268000D03*
%TO.P,D1,3*%
%TO.N,BUTTON_DOWN*%
X88392000Y-114143000D03*
%TD*%
D63*
%TO.P,R15,1*%
%TO.N,ENC_B*%
X145796000Y-95414600D03*
%TO.P,R15,2*%
%TO.N,+3.3V*%
X145796000Y-93764600D03*
%TD*%
D44*
%TO.P,R17,1*%
%TO.N,+BATT*%
X79439000Y-110157500D03*
%TO.P,R17,2*%
%TO.N,Net-(Q2-G)*%
X81089000Y-110157500D03*
%TD*%
D18*
%TO.P,C25,1*%
%TO.N,NRF_XC1*%
X122789900Y-92215200D03*
%TO.P,C25,2*%
%TO.N,-BATT*%
X123749900Y-92215200D03*
%TD*%
D71*
%TO.P,U3,1,I/O1*%
%TO.N,USB_CONN_D-*%
X86382400Y-88575300D03*
%TO.P,U3,2,GND*%
%TO.N,-BATT*%
X85432400Y-88575300D03*
%TO.P,U3,3,I/O2*%
%TO.N,USB_CONN_D+*%
X84482400Y-88575300D03*
%TO.P,U3,4,I/O2*%
%TO.N,USB_D+*%
X84482400Y-90850300D03*
%TO.P,U3,5,VBUS*%
%TO.N,V_USB*%
X85432400Y-90850300D03*
%TO.P,U3,6,I/O1*%
%TO.N,USB_D-*%
X86382400Y-90850300D03*
%TD*%
D63*
%TO.P,R14,1*%
%TO.N,+3.3V*%
X145796000Y-90995000D03*
%TO.P,R14,2*%
%TO.N,ENC_A*%
X145796000Y-89345000D03*
%TD*%
D44*
%TO.P,R5,1*%
%TO.N,-BATT*%
X74613000Y-105918000D03*
%TO.P,R5,2*%
%TO.N,BATTERY_ADC*%
X76263000Y-105918000D03*
%TD*%
%TO.P,R6,1*%
%TO.N,Net-(D4-A)*%
X126251200Y-102920800D03*
%TO.P,R6,2*%
%TO.N,+3.3V*%
X127901200Y-102920800D03*
%TD*%
D50*
%TO.P,C2,1*%
%TO.N,+3.3V*%
X109601000Y-117336209D03*
%TO.P,C2,2*%
%TO.N,-BATT*%
X108051000Y-117336209D03*
%TD*%
D14*
%TO.P,C1,1*%
%TO.N,+3.3V*%
X123177000Y-116459000D03*
%TO.P,C1,2*%
%TO.N,-BATT*%
X124727000Y-116459000D03*
%TD*%
D72*
%TO.N,-BATT*%
X107950000Y-119761000D03*
X115062000Y-113030000D03*
X84328000Y-115364500D03*
D73*
X125526800Y-83185000D03*
D72*
X121285000Y-80772000D03*
X83312000Y-93980000D03*
X103124000Y-93599000D03*
X132080000Y-119761000D03*
X94488000Y-109855000D03*
X133477000Y-121285000D03*
X83312000Y-99060000D03*
X112928400Y-92151200D03*
X121285000Y-82677000D03*
X80772000Y-99060000D03*
X73609200Y-105918000D03*
D73*
X104571800Y-87909400D03*
D72*
X108284000Y-92567000D03*
X108458000Y-125282200D03*
X113748200Y-120370600D03*
X108673600Y-118377609D03*
X127635000Y-118618000D03*
X88392000Y-93980000D03*
X136550400Y-101549200D03*
D73*
X104571800Y-85547200D03*
D72*
X111760000Y-117348000D03*
X116941600Y-121704400D03*
D73*
X106934000Y-90297000D03*
D72*
X122656600Y-105359200D03*
X76174600Y-96342200D03*
X76149200Y-83896200D03*
X108712000Y-80772000D03*
X70993000Y-96342200D03*
X112318800Y-86461600D03*
X92456000Y-98171000D03*
X93599000Y-98171000D03*
D73*
X104571800Y-83185000D03*
D72*
X116057649Y-87472360D03*
X108280200Y-97434400D03*
X85852000Y-96520000D03*
X90932000Y-93980000D03*
X119634000Y-100203000D03*
X113157000Y-98552000D03*
X138938000Y-107696000D03*
X80772000Y-96520000D03*
X132680200Y-108077000D03*
X104267000Y-94488000D03*
X117044639Y-87482536D03*
X133477000Y-120015000D03*
X111252000Y-101498400D03*
X118770400Y-121704400D03*
X83312000Y-96520000D03*
X92456000Y-100838000D03*
X124712259Y-117615721D03*
D73*
X125526800Y-80822800D03*
D72*
X124219868Y-101831556D03*
X122174000Y-112979200D03*
X135128000Y-112293400D03*
D73*
X125526800Y-90297000D03*
X104571800Y-80822800D03*
X125526800Y-85547200D03*
D72*
X80772000Y-93980000D03*
X96012000Y-96520000D03*
D73*
X104571800Y-90297000D03*
D72*
X93599000Y-100838000D03*
X85852000Y-93980000D03*
X83312000Y-104140000D03*
X103124000Y-94488000D03*
X71145400Y-83896200D03*
X139192000Y-112776000D03*
D73*
X111658400Y-90297000D03*
X109296200Y-90297000D03*
X123164600Y-90297000D03*
D72*
X125730000Y-118618000D03*
X112293400Y-97002600D03*
X85965800Y-89712800D03*
X136480896Y-103792531D03*
X124650000Y-92215200D03*
X121285000Y-84582000D03*
X83705200Y-86461600D03*
X104267000Y-95504000D03*
X108712000Y-82677000D03*
X107467400Y-115392200D03*
X95504000Y-109855000D03*
X140081000Y-108204000D03*
X134924800Y-103987600D03*
X109702600Y-120306600D03*
X108712000Y-84582000D03*
X82790800Y-86461600D03*
X116433600Y-113030000D03*
X131191000Y-111633000D03*
D73*
X120802400Y-90297000D03*
D72*
X110363000Y-94742000D03*
X121957600Y-97701600D03*
D73*
X120370600Y-96139000D03*
X118440200Y-90297000D03*
X125526800Y-87909400D03*
D72*
X80772000Y-104140000D03*
X104267000Y-93599000D03*
%TO.N,+3.3V*%
X125730000Y-122682000D03*
X110316000Y-92922600D03*
X101219000Y-93599000D03*
X123571000Y-117602000D03*
X124510800Y-111912400D03*
X120040400Y-121704400D03*
X138379200Y-102108000D03*
X108280200Y-96570800D03*
X121513600Y-98856800D03*
X108254800Y-102616000D03*
X99949000Y-93599000D03*
X145796000Y-92786200D03*
X108284000Y-93481400D03*
X99949000Y-95504000D03*
X129667000Y-114554000D03*
X126873000Y-122682000D03*
X101219000Y-94488000D03*
X145796000Y-91922600D03*
X109593159Y-118383631D03*
X128905000Y-102920800D03*
X122660372Y-101823798D03*
X99949000Y-94488000D03*
X132842000Y-97790000D03*
X130708400Y-106273600D03*
X103428800Y-125282200D03*
X108407200Y-115392200D03*
%TO.N,V_USB*%
X93599000Y-93472000D03*
X93599000Y-94361000D03*
X86524600Y-86461600D03*
X84899000Y-89712800D03*
X85725000Y-91806500D03*
X87388200Y-86461600D03*
D74*
%TO.N,+BATT*%
X80975200Y-102489000D03*
D72*
X72989255Y-105003451D03*
D74*
X81788000Y-102489000D03*
D72*
X77597000Y-110157500D03*
X78486000Y-110157500D03*
%TO.N,BATTERY_ADC*%
X110744000Y-108966000D03*
X89027000Y-107329500D03*
%TO.N,BOOT0*%
X105918000Y-117856000D03*
X105918000Y-115824000D03*
%TO.N,ENC_A*%
X139192000Y-110490000D03*
X132588000Y-110490000D03*
%TO.N,ENC_B*%
X139192000Y-109397800D03*
X132588000Y-109397800D03*
%TO.N,BUTTON_UP*%
X107696000Y-106426000D03*
X93726000Y-106426000D03*
%TO.N,ENC_BUTTON*%
X132562600Y-111607600D03*
X139192000Y-111607600D03*
%TO.N,MPU-6050_IRQ*%
X122216500Y-108077000D03*
X112395000Y-113425500D03*
%TO.N,JOY1_ADC_X*%
X116156266Y-116507734D03*
X113792000Y-117602000D03*
%TO.N,JOY2_ADC_Y*%
X118770400Y-117906800D03*
X118770400Y-116281200D03*
D74*
%TO.N,NRF_SCK*%
X114935000Y-98729800D03*
X117195600Y-99415600D03*
%TO.N,NRF_MISO*%
X116840000Y-100203000D03*
%TO.N,NRF_MOSI*%
X115510000Y-99812800D03*
D72*
%TO.N,I2C_SCL*%
X133604000Y-114554000D03*
X133604000Y-117475000D03*
%TO.N,Power_Btn*%
X89052400Y-108204000D03*
X106465900Y-108204000D03*
%TO.N,EN*%
X88392000Y-99187000D03*
X74676000Y-107315000D03*
%TO.N,KEEP_ALIVE*%
X86106000Y-109234500D03*
X107950000Y-109474000D03*
%TD*%
D75*
%TO.N,-BATT*%
X116750000Y-113346400D02*
X116433600Y-113030000D01*
X108648800Y-97803000D02*
X108280200Y-97434400D01*
X136120400Y-104153027D02*
X136480896Y-103792531D01*
X136842200Y-102920800D02*
X136842200Y-103431227D01*
X114435000Y-93185500D02*
X114435000Y-92689637D01*
D76*
X117043200Y-88318400D02*
X117043200Y-87483975D01*
D77*
X120370600Y-97294400D02*
X120370600Y-96139000D01*
D78*
X134975600Y-101383800D02*
X136385000Y-101383800D01*
D75*
X138938000Y-107706041D02*
X138346441Y-108297600D01*
D79*
X85432400Y-89179400D02*
X85965800Y-89712800D01*
D77*
X122419900Y-97331600D02*
X122789900Y-97701600D01*
D78*
X136855200Y-101854000D02*
X136855200Y-102907800D01*
D75*
X107570200Y-112470000D02*
X106870200Y-113170000D01*
X121664800Y-112470000D02*
X122174000Y-112979200D01*
D80*
X70988800Y-96338000D02*
X70993000Y-96342200D01*
D75*
X110413800Y-94869000D02*
X110363000Y-94818200D01*
X112443000Y-123035800D02*
X113470600Y-123035800D01*
D77*
X124650000Y-92215200D02*
X123749900Y-92215200D01*
D78*
X84328000Y-114143000D02*
X84328000Y-115364500D01*
D79*
X108051000Y-117755009D02*
X108673600Y-118377609D01*
D75*
X138346441Y-108297600D02*
X137820400Y-108297600D01*
X113896563Y-92151200D02*
X112928400Y-92151200D01*
D79*
X124219000Y-102920800D02*
X124219000Y-101832424D01*
D75*
X136120400Y-105097600D02*
X136120400Y-104153027D01*
X110007400Y-120306600D02*
X109702600Y-120306600D01*
D77*
X111201200Y-101498400D02*
X111252000Y-101498400D01*
D75*
X108741200Y-92109800D02*
X108284000Y-92567000D01*
D76*
X117043200Y-87483975D02*
X117044639Y-87482536D01*
D75*
X109591800Y-92109800D02*
X108741200Y-92109800D01*
D79*
X85432400Y-88575300D02*
X85432400Y-89179400D01*
D77*
X111750000Y-102047200D02*
X111750000Y-103545000D01*
D76*
X113108800Y-86461600D02*
X112318800Y-86461600D01*
D78*
X74613000Y-105918000D02*
X73609200Y-105918000D01*
D75*
X109702600Y-119426000D02*
X109695400Y-119418800D01*
D79*
X108051000Y-117336209D02*
X108051000Y-117755009D01*
D77*
X111252000Y-101549200D02*
X111252000Y-101498400D01*
D75*
X111493000Y-97803000D02*
X112293400Y-97002600D01*
X132680200Y-108077000D02*
X132900800Y-108297600D01*
D77*
X116872500Y-95123000D02*
X117602000Y-95123000D01*
D78*
X136855200Y-102907800D02*
X136842200Y-102920800D01*
D79*
X135118003Y-111475941D02*
X135118003Y-112283403D01*
D80*
X69685000Y-96338000D02*
X70988800Y-96338000D01*
D75*
X107570200Y-112470000D02*
X109325000Y-112470000D01*
X135120400Y-105097600D02*
X135120400Y-104183200D01*
D80*
X77635000Y-83892000D02*
X76153400Y-83892000D01*
X76178800Y-96338000D02*
X76174600Y-96342200D01*
D75*
X138938000Y-107696000D02*
X138938000Y-107706041D01*
X132900800Y-108297600D02*
X133920400Y-108297600D01*
X112997500Y-94623000D02*
X111879000Y-94623000D01*
X112997500Y-96123000D02*
X112997500Y-96298500D01*
D78*
X136550400Y-101549200D02*
X136855200Y-101854000D01*
D79*
X106870200Y-114795000D02*
X107467400Y-115392200D01*
D75*
X135120400Y-104183200D02*
X134924800Y-103987600D01*
D77*
X122419900Y-96040800D02*
X122419900Y-97331600D01*
D75*
X120675000Y-112470000D02*
X121664800Y-112470000D01*
X132413800Y-107810600D02*
X131673600Y-107810600D01*
X136842200Y-103431227D02*
X136480896Y-103792531D01*
D79*
X106870200Y-114401600D02*
X106870200Y-114795000D01*
D80*
X69685000Y-83892000D02*
X71141200Y-83892000D01*
D79*
X107218000Y-125292100D02*
X108448100Y-125292100D01*
D77*
X124119900Y-93840800D02*
X124119900Y-92585200D01*
D75*
X113748200Y-120174800D02*
X112992200Y-119418800D01*
X113470600Y-123035800D02*
X113748200Y-122758200D01*
X109702600Y-120306600D02*
X109702600Y-119426000D01*
D77*
X110781800Y-101079000D02*
X111201200Y-101498400D01*
D78*
X136385000Y-101383800D02*
X136550400Y-101549200D01*
D80*
X76153400Y-83892000D02*
X76149200Y-83896200D01*
D77*
X118618000Y-96139000D02*
X120370600Y-96139000D01*
D75*
X112997500Y-96298500D02*
X112293400Y-97002600D01*
X106870200Y-113170000D02*
X106870200Y-114401600D01*
X122656600Y-105359200D02*
X123304600Y-104711200D01*
X111879000Y-94623000D02*
X111633000Y-94869000D01*
D77*
X111750000Y-102047200D02*
X111252000Y-101549200D01*
D76*
X116052600Y-88318400D02*
X116052600Y-87477409D01*
D75*
X132680200Y-108077000D02*
X132413800Y-107810600D01*
X114435000Y-92689637D02*
X113896563Y-92151200D01*
D77*
X109321600Y-101079000D02*
X110781800Y-101079000D01*
D76*
X116052600Y-87477409D02*
X116057649Y-87472360D01*
D80*
X71141200Y-83892000D02*
X71145400Y-83896200D01*
X77635000Y-96338000D02*
X76178800Y-96338000D01*
D79*
X124219000Y-101832424D02*
X124219868Y-101831556D01*
D75*
X113748200Y-122758200D02*
X113748200Y-120370600D01*
X111379000Y-97803000D02*
X111493000Y-97803000D01*
D77*
X121957600Y-97701600D02*
X122789900Y-97701600D01*
D78*
X124714000Y-116523220D02*
X124714000Y-117613980D01*
D75*
X110243000Y-121335800D02*
X110243000Y-120542200D01*
X123304600Y-104711200D02*
X123875800Y-104711200D01*
D79*
X110313700Y-82550000D02*
X110618500Y-82854800D01*
X119686300Y-82550000D02*
X119381500Y-82854800D01*
D75*
X111633000Y-94869000D02*
X110413800Y-94869000D01*
X122656600Y-105359200D02*
X122045800Y-105970000D01*
X110243000Y-120542200D02*
X110007400Y-120306600D01*
D77*
X117602000Y-95123000D02*
X118618000Y-96139000D01*
D75*
X123647200Y-113043000D02*
X122237800Y-113043000D01*
X109601000Y-97803000D02*
X108648800Y-97803000D01*
X116750000Y-114895000D02*
X116750000Y-113346400D01*
D77*
X124119900Y-92585200D02*
X123749900Y-92215200D01*
D75*
X122045800Y-105970000D02*
X120675000Y-105970000D01*
X122237800Y-113043000D02*
X122174000Y-112979200D01*
X123875800Y-104711200D02*
X124155200Y-104990600D01*
D79*
%TO.N,+5V*%
X98044000Y-98718000D02*
X98792000Y-99466000D01*
X97282000Y-104775000D02*
X96583000Y-104775000D01*
D75*
X94208600Y-96596200D02*
X93103200Y-96596200D01*
D79*
X97536000Y-105029000D02*
X97282000Y-104775000D01*
D78*
X98552000Y-99226000D02*
X98792000Y-99466000D01*
X98679000Y-99353000D02*
X98792000Y-99466000D01*
D75*
X94640400Y-97028000D02*
X94208600Y-96596200D01*
D79*
X96583000Y-104775000D02*
X96647000Y-104711000D01*
D75*
X94640400Y-98945400D02*
X94640400Y-97028000D01*
D79*
X97536000Y-108077000D02*
X97536000Y-105029000D01*
D75*
X95212200Y-99517200D02*
X94640400Y-98945400D01*
D78*
%TO.N,+3.3V*%
X145796000Y-92710000D02*
X145796000Y-91998800D01*
D79*
X108267800Y-102629000D02*
X108254800Y-102616000D01*
X125819200Y-121285000D02*
X125730000Y-121374200D01*
X122669000Y-102920800D02*
X122669000Y-101832426D01*
X130721400Y-106260600D02*
X130708400Y-106273600D01*
X120523000Y-120802500D02*
X120523000Y-121221800D01*
D75*
X137972800Y-104089200D02*
X138392200Y-103669800D01*
X110947200Y-102362000D02*
X109588600Y-102362000D01*
D79*
X123647200Y-111493000D02*
X124091400Y-111493000D01*
D75*
X109601000Y-96253000D02*
X108598000Y-96253000D01*
D79*
X127724200Y-121285000D02*
X127635000Y-121374200D01*
D75*
X123647200Y-111493000D02*
X123170200Y-111970000D01*
D77*
X112794300Y-93185500D02*
X113935000Y-93185500D01*
D79*
X120523000Y-121221800D02*
X120040400Y-121704400D01*
D77*
X116872500Y-95623000D02*
X117333008Y-95623000D01*
D79*
X131673600Y-106260600D02*
X130721400Y-106260600D01*
D77*
X111138000Y-92329000D02*
X111937800Y-92329000D01*
D75*
X123170200Y-111970000D02*
X120675000Y-111970000D01*
D77*
X111128800Y-92109800D02*
X110316000Y-92922600D01*
D75*
X109541800Y-93938600D02*
X108741200Y-93938600D01*
X111250000Y-115687209D02*
X109601000Y-117336209D01*
X137102759Y-104089200D02*
X137972800Y-104089200D01*
D77*
X111141800Y-92109800D02*
X111128800Y-92109800D01*
D75*
X111250000Y-114895000D02*
X111250000Y-115687209D01*
D77*
X111141800Y-92109800D02*
X111141800Y-92300000D01*
D78*
X123177000Y-117208000D02*
X123571000Y-117602000D01*
D79*
X109601000Y-117336209D02*
X109601000Y-118375790D01*
D75*
X108420200Y-113220200D02*
X108420200Y-114401600D01*
D78*
X132841000Y-96774000D02*
X132841000Y-97789000D01*
D79*
X138392200Y-102920800D02*
X138392200Y-102121000D01*
X130367000Y-121285000D02*
X127724200Y-121285000D01*
X124091400Y-111493000D02*
X124510800Y-111912400D01*
D78*
X132841000Y-96646000D02*
X132842000Y-96647000D01*
D77*
X118491000Y-98120200D02*
X119215200Y-98844400D01*
D75*
X108670400Y-112970000D02*
X108420200Y-113220200D01*
D79*
X108420200Y-115379200D02*
X108407200Y-115392200D01*
X109601000Y-118375790D02*
X109593159Y-118383631D01*
X122669000Y-101832426D02*
X122660372Y-101823798D01*
X103438700Y-125292100D02*
X103428800Y-125282200D01*
D75*
X111250000Y-103545000D02*
X111250000Y-102664800D01*
D77*
X117333008Y-95623000D02*
X118491000Y-96780992D01*
D78*
X132842000Y-98806000D02*
X132842000Y-97790000D01*
D75*
X136620400Y-104571559D02*
X137102759Y-104089200D01*
X109601000Y-95872000D02*
X110081000Y-95392000D01*
D78*
X128587000Y-114554000D02*
X129667000Y-114554000D01*
D75*
X132136600Y-105797600D02*
X131673600Y-106260600D01*
X122669000Y-104153000D02*
X122669000Y-102920800D01*
D77*
X119215200Y-98844400D02*
X120370600Y-98844400D01*
D78*
X123177000Y-116459000D02*
X123177000Y-117208000D01*
D79*
X109321600Y-102629000D02*
X108267800Y-102629000D01*
D77*
X121501200Y-98844400D02*
X121513600Y-98856800D01*
D79*
X127635000Y-121374200D02*
X127545800Y-121285000D01*
D78*
X145796000Y-91998800D02*
X145796000Y-90995000D01*
D79*
X108420200Y-114401600D02*
X108420200Y-115379200D01*
D75*
X138392200Y-103669800D02*
X138392200Y-102920800D01*
X120675000Y-105470000D02*
X121352000Y-105470000D01*
D77*
X118491000Y-96780992D02*
X118491000Y-98120200D01*
D78*
X129667000Y-114554000D02*
X130874000Y-114554000D01*
D77*
X111937800Y-92329000D02*
X112794300Y-93185500D01*
D75*
X121352000Y-105470000D02*
X122669000Y-104153000D01*
X108741200Y-93938600D02*
X108284000Y-93481400D01*
X133920400Y-105797600D02*
X132136600Y-105797600D01*
X110081000Y-95392000D02*
X111848661Y-95392000D01*
X111250000Y-102664800D02*
X110947200Y-102362000D01*
X109325000Y-112970000D02*
X108670400Y-112970000D01*
X111848661Y-95392000D02*
X112117661Y-95123000D01*
X108598000Y-96253000D02*
X108280200Y-96570800D01*
X109588600Y-102362000D02*
X109321600Y-102629000D01*
X112117661Y-95123000D02*
X112997500Y-95123000D01*
D78*
X127901200Y-102920800D02*
X128905000Y-102920800D01*
D79*
X127545800Y-121285000D02*
X125819200Y-121285000D01*
D75*
X136620400Y-105097600D02*
X136620400Y-104571559D01*
D79*
X104618000Y-125292100D02*
X103438700Y-125292100D01*
D77*
X120370600Y-98844400D02*
X121501200Y-98844400D01*
D78*
X145796000Y-93764600D02*
X145796000Y-92710000D01*
D75*
%TO.N,Net-(U4-VREF+)*%
X119809400Y-119492200D02*
X119634000Y-119316800D01*
X118834200Y-119316800D02*
X118770400Y-119253000D01*
X120396000Y-119492200D02*
X119809400Y-119492200D01*
X117250000Y-114895000D02*
X117250000Y-116557000D01*
X119634000Y-119316800D02*
X118834200Y-119316800D01*
X116840000Y-119151400D02*
X116941600Y-119253000D01*
X116941600Y-119253000D02*
X118770400Y-119253000D01*
X116840000Y-116967000D02*
X116840000Y-119151400D01*
X117250000Y-116557000D02*
X116840000Y-116967000D01*
%TO.N,Net-(U4-PH0)*%
X111963200Y-116179600D02*
X110655400Y-117487400D01*
X113250000Y-115197600D02*
X113250000Y-115214400D01*
X111360600Y-122047000D02*
X110371800Y-123035800D01*
X110655400Y-117487400D02*
X110655400Y-119418800D01*
X113250000Y-114895000D02*
X113250000Y-115771041D01*
X110655400Y-119418800D02*
X111360600Y-120124000D01*
X113250000Y-114895000D02*
X113250000Y-115197600D01*
X112841441Y-116179600D02*
X111963200Y-116179600D01*
X111360600Y-120124000D02*
X111360600Y-122047000D01*
X113250000Y-115771041D02*
X112841441Y-116179600D01*
X110371800Y-123035800D02*
X110243000Y-123035800D01*
%TO.N,Net-(U4-VCAP1)*%
X124155200Y-106540600D02*
X124084600Y-106470000D01*
X123120600Y-106470000D02*
X120675000Y-106470000D01*
X123329400Y-106261200D02*
X123120600Y-106470000D01*
X124180600Y-106261200D02*
X123329400Y-106261200D01*
D76*
%TO.N,NRF_VDD_PA*%
X116052600Y-89278400D02*
X116052600Y-90243800D01*
X116052600Y-90243800D02*
X116055000Y-90246200D01*
X116078000Y-93042500D02*
X116078000Y-90269200D01*
X116080600Y-90220600D02*
X116055000Y-90246200D01*
D75*
X116078000Y-90269200D02*
X116055000Y-90246200D01*
D76*
X117043200Y-89278400D02*
X116052600Y-89278400D01*
X116078000Y-93042500D02*
X115935000Y-93185500D01*
D77*
%TO.N,NRF_XC2*%
X124119900Y-95790800D02*
X124119900Y-96040800D01*
X118414800Y-94919800D02*
X120319800Y-94919800D01*
X123198100Y-94869000D02*
X124119900Y-95790800D01*
X116872500Y-94623000D02*
X118118000Y-94623000D01*
X120319800Y-94919800D02*
X120370600Y-94869000D01*
X120370600Y-94869000D02*
X123198100Y-94869000D01*
X124119900Y-97331600D02*
X123749900Y-97701600D01*
X118118000Y-94623000D02*
X118414800Y-94919800D01*
X124119900Y-96040800D02*
X124119900Y-97331600D01*
%TO.N,NRF_XC1*%
X120370600Y-93219000D02*
X121544100Y-93219000D01*
X118094000Y-94123000D02*
X116872500Y-94123000D01*
X122165900Y-93840800D02*
X122419900Y-93840800D01*
X118998000Y-93219000D02*
X118094000Y-94123000D01*
X121544100Y-93219000D02*
X122165900Y-93840800D01*
X120083100Y-93219000D02*
X118998000Y-93219000D01*
X122419900Y-92585200D02*
X122789900Y-92215200D01*
X122419900Y-93840800D02*
X122419900Y-92585200D01*
D79*
%TO.N,V_USB*%
X85432400Y-91513900D02*
X85725000Y-91806500D01*
X85432400Y-90246200D02*
X84899000Y-89712800D01*
X85432400Y-90850300D02*
X85432400Y-91513900D01*
X85432400Y-90850300D02*
X85432400Y-90246200D01*
%TO.N,Net-(D3-A)*%
X94996000Y-104838000D02*
X94996000Y-106908500D01*
X94933000Y-104775000D02*
X94996000Y-104838000D01*
D75*
%TO.N,Net-(D4-A)*%
X126542800Y-104548700D02*
X126542800Y-103962200D01*
X126542800Y-103962200D02*
X126238000Y-103657400D01*
X126238000Y-103657400D02*
X126251200Y-103644200D01*
X126251200Y-103644200D02*
X126251200Y-102920800D01*
%TO.N,USB_CONN_D-*%
X85726800Y-85831501D02*
X85726800Y-87086200D01*
X85751800Y-84569000D02*
X85751800Y-85806501D01*
X86382400Y-87741800D02*
X86382400Y-88575300D01*
X85726800Y-87086200D02*
X86382400Y-87741800D01*
X85751800Y-85806501D02*
X85726800Y-85831501D01*
%TO.N,USB_CONN_D+*%
X85101800Y-85806501D02*
X85126800Y-85831501D01*
X85101800Y-84569000D02*
X85101800Y-85806501D01*
X85126800Y-87046600D02*
X84482400Y-87691000D01*
X85126800Y-85831501D02*
X85126800Y-87046600D01*
X84482400Y-87691000D02*
X84482400Y-88575300D01*
D79*
%TO.N,unconnected-(J1-Shield-Pad6)*%
X88047000Y-83509400D02*
X88047000Y-84709400D01*
X88047000Y-84709400D02*
X87947000Y-84809400D01*
X84137000Y-81559400D02*
X83547000Y-81559400D01*
X86627000Y-81559400D02*
X87827000Y-82759400D01*
X83547000Y-81559400D02*
X82347000Y-82759400D01*
X86057000Y-81559400D02*
X84137000Y-81559400D01*
X82197000Y-84829400D02*
X82197000Y-83609400D01*
X82197000Y-83609400D02*
X82097000Y-83509400D01*
X86057000Y-81559400D02*
X86627000Y-81559400D01*
D75*
%TO.N,OLED_SDA*%
X115250000Y-103545000D02*
X115250000Y-104421041D01*
X116137359Y-105308400D02*
X118477621Y-105308400D01*
X119634000Y-101473000D02*
X121285000Y-99822000D01*
X121285000Y-99822000D02*
X129921000Y-99822000D01*
X119634000Y-104152021D02*
X119634000Y-101473000D01*
X131191000Y-98552000D02*
X131191000Y-91610000D01*
X115250000Y-104421041D02*
X116137359Y-105308400D01*
X118477621Y-105308400D02*
X119634000Y-104152021D01*
X129921000Y-99822000D02*
X131191000Y-98552000D01*
%TO.N,OLED_SCL*%
X114750000Y-104971000D02*
X115697000Y-105918000D01*
X114750000Y-103545000D02*
X114750000Y-104971000D01*
X120650000Y-101854000D02*
X121793000Y-100711000D01*
X134492000Y-95249000D02*
X133191000Y-93948000D01*
X121793000Y-100711000D02*
X133096000Y-100711000D01*
X120650000Y-104013000D02*
X120650000Y-101854000D01*
X134492000Y-99315000D02*
X134492000Y-95249000D01*
X115697000Y-105918000D02*
X118745000Y-105918000D01*
X118745000Y-105918000D02*
X120650000Y-104013000D01*
X133191000Y-93948000D02*
X133191000Y-91610000D01*
X133096000Y-100711000D02*
X134492000Y-99315000D01*
%TO.N,SWDIO*%
X105156000Y-108839000D02*
X103695000Y-110300000D01*
X112250000Y-103545000D02*
X112250000Y-104421041D01*
X107188000Y-104902000D02*
X105156000Y-106934000D01*
X103695000Y-110300000D02*
X102854000Y-110300000D01*
X111769041Y-104902000D02*
X107188000Y-104902000D01*
X105156000Y-106934000D02*
X105156000Y-108839000D01*
X112250000Y-104421041D02*
X111769041Y-104902000D01*
%TO.N,SWCLK*%
X105816400Y-107162600D02*
X105816400Y-109220000D01*
X105816400Y-109220000D02*
X102854000Y-112182400D01*
X109325000Y-105470000D02*
X107509000Y-105470000D01*
X102854000Y-112182400D02*
X102854000Y-112379000D01*
X102854000Y-112379000D02*
X102997000Y-112522000D01*
X107509000Y-105470000D02*
X105816400Y-107162600D01*
%TO.N,SWO*%
X103886000Y-112141000D02*
X103886000Y-113268000D01*
X109325000Y-108470000D02*
X107557000Y-108470000D01*
X103886000Y-113268000D02*
X102854000Y-114300000D01*
X107557000Y-108470000D02*
X103886000Y-112141000D01*
%TO.N,NRST*%
X111175800Y-112776000D02*
X109626400Y-114325400D01*
X106680000Y-116078000D02*
X104458000Y-118300000D01*
X114250000Y-113564200D02*
X113461800Y-112776000D01*
X114250000Y-114895000D02*
X114250000Y-113564200D01*
X109626400Y-115620800D02*
X109169200Y-116078000D01*
X109626400Y-114325400D02*
X109626400Y-115620800D01*
X113461800Y-112776000D02*
X111175800Y-112776000D01*
X102854000Y-118300000D02*
X102997000Y-118443000D01*
X109169200Y-116078000D02*
X106680000Y-116078000D01*
X104458000Y-118300000D02*
X102854000Y-118300000D01*
D76*
%TO.N,NRF_ANT2*%
X114096800Y-91285200D02*
X114069000Y-91313000D01*
D75*
X114069000Y-91366571D02*
X114069000Y-91313000D01*
D76*
X114935000Y-93185500D02*
X114935000Y-92232571D01*
X114935000Y-92232571D02*
X114069000Y-91366571D01*
X114096800Y-90274000D02*
X114096800Y-91285200D01*
%TO.N,NRF_ANT1*%
X115435000Y-93185500D02*
X115435000Y-91709000D01*
X115085000Y-91267000D02*
X115039000Y-91313000D01*
X115435000Y-91709000D02*
X115039000Y-91313000D01*
X115085000Y-90246200D02*
X115085000Y-91267000D01*
D75*
%TO.N,+BATT*%
X79439000Y-109156000D02*
X80010000Y-108585000D01*
X79314000Y-112268000D02*
X79314000Y-110282500D01*
X79314000Y-110282500D02*
X79439000Y-110157500D01*
X80010000Y-108585000D02*
X86868000Y-108585000D01*
D78*
X72987400Y-103987600D02*
X72987400Y-105001596D01*
D75*
X86868000Y-108585000D02*
X87567000Y-109284000D01*
X87567000Y-109284000D02*
X87567000Y-110157500D01*
X79439000Y-110157500D02*
X79439000Y-109156000D01*
%TO.N,BATTERY_ADC*%
X110748000Y-108970000D02*
X120675000Y-108970000D01*
X89027000Y-107329500D02*
X89012500Y-107315000D01*
X89012500Y-107315000D02*
X79502000Y-107315000D01*
X79502000Y-107315000D02*
X78105000Y-105918000D01*
X78105000Y-105918000D02*
X76263000Y-105918000D01*
X75793600Y-103987600D02*
X74637400Y-103987600D01*
X76263000Y-104457000D02*
X75793600Y-103987600D01*
X76263000Y-105918000D02*
X76263000Y-104457000D01*
X110744000Y-108966000D02*
X110748000Y-108970000D01*
%TO.N,Net-(U2-FB)*%
X90373200Y-96596200D02*
X90500200Y-96723200D01*
X90500200Y-97231200D02*
X90500200Y-96723200D01*
X90500200Y-96723200D02*
X90627200Y-96596200D01*
X90748700Y-97479700D02*
X90500200Y-97231200D01*
X90627200Y-96596200D02*
X91453200Y-96596200D01*
X90748700Y-98567200D02*
X90748700Y-97479700D01*
X89547200Y-96596200D02*
X90373200Y-96596200D01*
%TO.N,Net-(U4-PH1)*%
X112032200Y-119418800D02*
X112032200Y-120127800D01*
X112032200Y-119418800D02*
X112032200Y-118091800D01*
X112032200Y-120127800D02*
X112443000Y-120538600D01*
X112032200Y-118091800D02*
X113750000Y-116374000D01*
X113750000Y-116374000D02*
X113750000Y-114895000D01*
X112443000Y-121335800D02*
X112105000Y-120997800D01*
X112443000Y-120538600D02*
X112443000Y-121335800D01*
%TO.N,BOOT0*%
X106708000Y-110970000D02*
X109325000Y-110970000D01*
X105918000Y-119063000D02*
X105918000Y-117856000D01*
X105918000Y-115824000D02*
X105918000Y-111760000D01*
X105918000Y-111760000D02*
X106708000Y-110970000D01*
D78*
%TO.N,Net-(SW1-B)*%
X105918000Y-125292100D02*
X105918000Y-120713000D01*
D75*
%TO.N,ENC_A*%
X144399000Y-107823000D02*
X144399000Y-89916000D01*
X122194000Y-110470000D02*
X120675000Y-110470000D01*
X123190000Y-109474000D02*
X122194000Y-110470000D01*
X144399000Y-89916000D02*
X144970000Y-89345000D01*
D78*
X146799800Y-89345000D02*
X145796000Y-89345000D01*
D75*
X144970000Y-89345000D02*
X145796000Y-89345000D01*
D78*
X148833000Y-89829000D02*
X147283800Y-89829000D01*
X147283800Y-89829000D02*
X146799800Y-89345000D01*
D75*
X132588000Y-110490000D02*
X131572000Y-109474000D01*
X139192000Y-110490000D02*
X141732000Y-110490000D01*
X141732000Y-110490000D02*
X144399000Y-107823000D01*
X131572000Y-109474000D02*
X123190000Y-109474000D01*
%TO.N,ENC_B*%
X144272000Y-86995000D02*
X149987000Y-86995000D01*
X121551000Y-109970000D02*
X120675000Y-109970000D01*
X131855534Y-108839000D02*
X132029200Y-108839000D01*
X143510000Y-107061000D02*
X143510000Y-87757000D01*
X150495000Y-87503000D02*
X150495000Y-93167000D01*
X132029200Y-108839000D02*
X132588000Y-109397800D01*
D78*
X147537800Y-94829000D02*
X146952200Y-95414600D01*
X146952200Y-95414600D02*
X145796000Y-95414600D01*
D75*
X131855534Y-108839000D02*
X122682000Y-108839000D01*
X139192000Y-109397800D02*
X141173200Y-109397800D01*
X143510000Y-87757000D02*
X144272000Y-86995000D01*
X149987000Y-86995000D02*
X150495000Y-87503000D01*
D78*
X148833000Y-94829000D02*
X147537800Y-94829000D01*
D75*
X150495000Y-93167000D02*
X148833000Y-94829000D01*
X141173200Y-109397800D02*
X143510000Y-107061000D01*
X122682000Y-108839000D02*
X121551000Y-109970000D01*
%TO.N,BUTTON_DOWN*%
X79756000Y-106680000D02*
X89408000Y-106680000D01*
X78613000Y-101816000D02*
X78613000Y-105537000D01*
X77635000Y-100838000D02*
X78613000Y-101816000D01*
X89565000Y-114143000D02*
X88392000Y-114143000D01*
X90043000Y-107315000D02*
X90043000Y-113665000D01*
X90043000Y-113665000D02*
X89565000Y-114143000D01*
X89408000Y-106680000D02*
X90043000Y-107315000D01*
X78613000Y-105537000D02*
X79756000Y-106680000D01*
X69685000Y-100838000D02*
X77635000Y-100838000D01*
%TO.N,BUTTON_UP*%
X89789000Y-106045000D02*
X80010000Y-106045000D01*
X79248000Y-105283000D02*
X79248000Y-90005000D01*
X93726000Y-106426000D02*
X90170000Y-106426000D01*
X80010000Y-106045000D02*
X79248000Y-105283000D01*
X107696000Y-106426000D02*
X107740000Y-106470000D01*
X107740000Y-106470000D02*
X109325000Y-106470000D01*
X79248000Y-90005000D02*
X77635000Y-88392000D01*
X69685000Y-88392000D02*
X77635000Y-88392000D01*
X90170000Y-106426000D02*
X89789000Y-106045000D01*
%TO.N,ENC_BUTTON*%
X132562600Y-111607600D02*
X131318000Y-110363000D01*
X145542000Y-108458000D02*
X145542000Y-98298000D01*
X146304000Y-97536000D02*
X151384000Y-97536000D01*
X152146000Y-96774000D02*
X152146000Y-90678000D01*
X131318000Y-110363000D02*
X123190000Y-110363000D01*
X139192000Y-111607600D02*
X142392400Y-111607600D01*
X152146000Y-90678000D02*
X152995000Y-89829000D01*
X151384000Y-97536000D02*
X152146000Y-96774000D01*
X123190000Y-110363000D02*
X122583000Y-110970000D01*
X122583000Y-110970000D02*
X120675000Y-110970000D01*
X142392400Y-111607600D02*
X145542000Y-108458000D01*
X145542000Y-98298000D02*
X146304000Y-97536000D01*
X152995000Y-89829000D02*
X163333000Y-89829000D01*
%TO.N,USB_D+*%
X84482400Y-91696000D02*
X84482400Y-90850300D01*
X111408494Y-99923600D02*
X106781600Y-99923600D01*
X85242400Y-92456000D02*
X84482400Y-91696000D01*
X105613200Y-93675200D02*
X104394000Y-92456000D01*
X112522000Y-102440959D02*
X112522000Y-101037106D01*
X105613200Y-98755200D02*
X105613200Y-93675200D01*
X112750000Y-103545000D02*
X112750000Y-102668959D01*
X106781600Y-99923600D02*
X105613200Y-98755200D01*
X112522000Y-101037106D02*
X111408494Y-99923600D01*
X112750000Y-102668959D02*
X112522000Y-102440959D01*
X104394000Y-92456000D02*
X85242400Y-92456000D01*
%TO.N,USB_D-*%
X88539600Y-91241600D02*
X88539600Y-90944077D01*
X89139600Y-90944077D02*
X89139600Y-91241600D01*
X86382400Y-90850300D02*
X87040300Y-90850300D01*
X107289600Y-99060000D02*
X111861600Y-99060000D01*
X87040300Y-90850300D02*
X87731600Y-91541600D01*
X106527600Y-98298000D02*
X107289600Y-99060000D01*
X113250000Y-102668959D02*
X113250000Y-103545000D01*
X89439600Y-91541600D02*
X104749600Y-91541600D01*
X104749600Y-91541600D02*
X106527600Y-93319600D01*
X87731600Y-91541600D02*
X88239600Y-91541600D01*
X113487200Y-100685600D02*
X113487200Y-102431759D01*
X113487200Y-102431759D02*
X113250000Y-102668959D01*
X106527600Y-93319600D02*
X106527600Y-98298000D01*
X111861600Y-99060000D02*
X113487200Y-100685600D01*
X89139600Y-91241600D02*
G75*
G03*
X89439600Y-91541600I300000J0D01*
G01*
X88239600Y-91541600D02*
G75*
G03*
X88539600Y-91241600I0J300000D01*
G01*
X89139623Y-90944077D02*
G75*
G03*
X88839600Y-90644077I-300023J-23D01*
G01*
X88839600Y-90644100D02*
G75*
G03*
X88539600Y-90944077I0J-300000D01*
G01*
%TO.N,MPU-6050_IRQ*%
X128981200Y-107594400D02*
X128981200Y-105460800D01*
X128498600Y-108077000D02*
X128981200Y-107594400D01*
X122216500Y-108077000D02*
X128498600Y-108077000D01*
X112395000Y-113425500D02*
X112343459Y-113425500D01*
X112343459Y-113425500D02*
X111750000Y-114018959D01*
X129387600Y-105054400D02*
X134577200Y-105054400D01*
X134577200Y-105054400D02*
X134620400Y-105097600D01*
X134612800Y-105105200D02*
X134620400Y-105097600D01*
X111750000Y-114018959D02*
X111750000Y-114895000D01*
X128981200Y-105460800D02*
X129387600Y-105054400D01*
%TO.N,JOY1_BUTTON*%
X114750000Y-114895000D02*
X114750000Y-117086800D01*
X69202200Y-135077200D02*
X67300000Y-133175000D01*
X115189000Y-117525800D02*
X115189000Y-133350000D01*
X115189000Y-133350000D02*
X113461800Y-135077200D01*
X113461800Y-135077200D02*
X69202200Y-135077200D01*
X114750000Y-117086800D02*
X115189000Y-117525800D01*
%TO.N,JOY1_ADC_X*%
X115750000Y-116101468D02*
X115750000Y-114895000D01*
D77*
X115750000Y-114895000D02*
X115756800Y-114901800D01*
D75*
X114427000Y-118237000D02*
X114427000Y-128828800D01*
X113255800Y-130000000D02*
X90160000Y-130000000D01*
X114427000Y-128828800D02*
X113255800Y-130000000D01*
X113792000Y-117602000D02*
X114427000Y-118237000D01*
X116156266Y-116507734D02*
X115750000Y-116101468D01*
%TO.N,JOY1_ADC_Y*%
X115951000Y-117221000D02*
X115951000Y-133731000D01*
X115951000Y-133731000D02*
X113555000Y-136127000D01*
X81678000Y-136127000D02*
X80000000Y-137805000D01*
X80000000Y-137805000D02*
X80000000Y-140160000D01*
X113555000Y-136127000D02*
X81678000Y-136127000D01*
X115250000Y-114895000D02*
X115250000Y-116520000D01*
X115250000Y-116520000D02*
X115951000Y-117221000D01*
%TO.N,JOY2_BUTTON*%
X117750000Y-114895000D02*
X117750000Y-116530800D01*
X123774200Y-135077200D02*
X136245600Y-135077200D01*
X122428000Y-118618000D02*
X122428000Y-133731000D01*
X117750000Y-116530800D02*
X118262400Y-117043200D01*
X122428000Y-133731000D02*
X123774200Y-135077200D01*
X118262400Y-117043200D02*
X120853200Y-117043200D01*
X137300000Y-134022800D02*
X137300000Y-133175000D01*
X120853200Y-117043200D02*
X122428000Y-118618000D01*
X136245600Y-135077200D02*
X137300000Y-134022800D01*
%TO.N,JOY2_ADC_X*%
X123190000Y-129286000D02*
X123904000Y-130000000D01*
X123904000Y-130000000D02*
X160160000Y-130000000D01*
X119888000Y-116332000D02*
X121158000Y-116332000D01*
X118750000Y-115194000D02*
X119888000Y-116332000D01*
X121158000Y-116332000D02*
X123190000Y-118364000D01*
X118750000Y-114895000D02*
X118750000Y-115194000D01*
X123190000Y-118364000D02*
X123190000Y-129286000D01*
%TO.N,JOY2_ADC_Y*%
X118250000Y-115771041D02*
X118760159Y-116281200D01*
X118250000Y-114895000D02*
X118250000Y-115771041D01*
X118760159Y-116281200D02*
X118770400Y-116281200D01*
X142714079Y-136127000D02*
X148573000Y-136127000D01*
X121666000Y-118918083D02*
X121666000Y-133985000D01*
X150000000Y-137554000D02*
X150000000Y-140160000D01*
X121666000Y-133985000D02*
X123825000Y-136144000D01*
X148573000Y-136127000D02*
X150000000Y-137554000D01*
X118770400Y-117906800D02*
X120654717Y-117906800D01*
X123825000Y-136144000D02*
X142697079Y-136144000D01*
X120654717Y-117906800D02*
X121666000Y-118918083D01*
X142697079Y-136144000D02*
X142714079Y-136127000D01*
D77*
%TO.N,NRF_IRQ*%
X118750000Y-99801600D02*
X118750000Y-103545000D01*
X116865400Y-96130100D02*
X116865400Y-97917000D01*
X116865400Y-97917000D02*
X118750000Y-99801600D01*
D75*
X118750000Y-103545000D02*
X118770400Y-103524600D01*
D77*
X116872500Y-96123000D02*
X116865400Y-96130100D01*
%TO.N,NRF_SCK*%
X117195600Y-99415600D02*
X118250000Y-100470000D01*
X118250000Y-100470000D02*
X118250000Y-103545000D01*
X114935000Y-97060500D02*
X114935000Y-98729800D01*
%TO.N,NRF_MISO*%
X115960000Y-97085500D02*
X115960000Y-99323000D01*
X116840000Y-100203000D02*
X117750000Y-101113000D01*
X115960000Y-99323000D02*
X116840000Y-100203000D01*
X117750000Y-101113000D02*
X117750000Y-103545000D01*
X115935000Y-97060500D02*
X115960000Y-97085500D01*
%TO.N,NRF_MOSI*%
X115510000Y-99812800D02*
X117250000Y-101552800D01*
X117250000Y-101552800D02*
X117250000Y-103545000D01*
X115435000Y-98416627D02*
X115510000Y-98491627D01*
X115435000Y-97060500D02*
X115435000Y-98416627D01*
X115510000Y-98491627D02*
X115510000Y-99812800D01*
%TO.N,NRF_CSN*%
X116750000Y-101967200D02*
X116750000Y-103545000D01*
X114360000Y-99577200D02*
X116750000Y-101967200D01*
X114360000Y-98491627D02*
X114360000Y-99577200D01*
X114435000Y-97060500D02*
X114435000Y-98416627D01*
X114435000Y-98416627D02*
X114360000Y-98491627D01*
%TO.N,NRF_CE*%
X113910000Y-99990800D02*
X113910000Y-97085500D01*
X113910000Y-97085500D02*
X113935000Y-97060500D01*
X116250000Y-103545000D02*
X116250000Y-102330800D01*
X116250000Y-102330800D02*
X113910000Y-99990800D01*
D75*
%TO.N,I2C_SDA*%
X117471000Y-112141000D02*
X120265000Y-114935000D01*
D79*
X126937000Y-115316000D02*
X126937000Y-115670246D01*
X126937000Y-114554000D02*
X126937000Y-115316000D01*
D75*
X126949200Y-116916200D02*
X126949200Y-115328200D01*
X126949200Y-115328200D02*
X126937000Y-115316000D01*
X110372041Y-112141000D02*
X117471000Y-112141000D01*
X110201041Y-111970000D02*
X110372041Y-112141000D01*
X136144000Y-115824000D02*
X137261600Y-114706400D01*
X130367000Y-117475000D02*
X127508000Y-117475000D01*
D79*
X126937000Y-115670246D02*
X126934022Y-115673224D01*
D75*
X137261600Y-109677200D02*
X137120400Y-109536000D01*
X109325000Y-111970000D02*
X110201041Y-111970000D01*
X132334000Y-115824000D02*
X136144000Y-115824000D01*
X120265000Y-114935000D02*
X125095000Y-114935000D01*
X137120400Y-109536000D02*
X137120400Y-108997600D01*
X127508000Y-117475000D02*
X126949200Y-116916200D01*
X137261600Y-114706400D02*
X137261600Y-109677200D01*
X125095000Y-114935000D02*
X125984000Y-115824000D01*
X125984000Y-115824000D02*
X132334000Y-115824000D01*
%TO.N,I2C_SCL*%
X136448800Y-112776000D02*
X136448800Y-109695241D01*
X133223000Y-118745000D02*
X133604000Y-118364000D01*
X136620400Y-109523641D02*
X136620400Y-108997600D01*
X125095000Y-114300000D02*
X125984000Y-113411000D01*
D79*
X132524000Y-114554000D02*
X133604000Y-114554000D01*
D75*
X109325000Y-111470000D02*
X110201041Y-111470000D01*
X136448800Y-109695241D02*
X136620400Y-109523641D01*
X130367000Y-118745000D02*
X132080000Y-118745000D01*
X135813800Y-113411000D02*
X136448800Y-112776000D01*
X125984000Y-113411000D02*
X135813800Y-113411000D01*
X110201041Y-111470000D02*
X110292041Y-111379000D01*
X133604000Y-118364000D02*
X133604000Y-117475000D01*
X110292041Y-111379000D02*
X117602000Y-111379000D01*
D79*
X132524000Y-114554000D02*
X132524000Y-113589119D01*
D75*
X132080000Y-118745000D02*
X133223000Y-118745000D01*
X117602000Y-111379000D02*
X120523000Y-114300000D01*
X120523000Y-114300000D02*
X125095000Y-114300000D01*
D76*
%TO.N,Net-(C22-Pad1)*%
X114096800Y-89304000D02*
X114096800Y-88364000D01*
%TO.N,Net-(C22-Pad2)*%
X114068800Y-86461600D02*
X115000000Y-85530400D01*
X114068800Y-86461600D02*
X114068800Y-87376000D01*
X114068800Y-87376000D02*
X114096800Y-87404000D01*
X115000000Y-85530400D02*
X115000000Y-82550000D01*
D75*
%TO.N,Net-(U5-REGOUT)*%
X134975600Y-102933800D02*
X135620400Y-103578600D01*
X135620400Y-103578600D02*
X135620400Y-105097600D01*
%TO.N,Net-(U5-CPOUT)*%
X135120400Y-110317200D02*
X135100000Y-110337600D01*
X135120400Y-108794400D02*
X135120400Y-110317200D01*
%TO.N,Net-(U6-DVDD)*%
X111899600Y-96167000D02*
X111379000Y-96167000D01*
X112997500Y-95623000D02*
X112443600Y-95623000D01*
X112443600Y-95623000D02*
X111899600Y-96167000D01*
%TO.N,Net-(D4-K)*%
X125651500Y-107315000D02*
X126542800Y-106423700D01*
X121706041Y-107315000D02*
X125651500Y-107315000D01*
X120675000Y-107470000D02*
X121551041Y-107470000D01*
X121551041Y-107470000D02*
X121706041Y-107315000D01*
D77*
%TO.N,Net-(U6-IREF)*%
X111233200Y-93980000D02*
X111191800Y-93938600D01*
X112284000Y-94123000D02*
X112141000Y-93980000D01*
X112141000Y-93980000D02*
X111233200Y-93980000D01*
X112997500Y-94123000D02*
X112284000Y-94123000D01*
D75*
%TO.N,Power_Btn*%
X89052400Y-109992900D02*
X89217000Y-110157500D01*
X106699900Y-107970000D02*
X109325000Y-107970000D01*
X89281000Y-110221500D02*
X89217000Y-110157500D01*
X89281000Y-112207000D02*
X89281000Y-110221500D01*
X89052400Y-108204000D02*
X89052400Y-109992900D01*
X106465900Y-108204000D02*
X106699900Y-107970000D01*
X89342000Y-112268000D02*
X89281000Y-112207000D01*
%TO.N,Net-(Q2-G)*%
X84403000Y-109597500D02*
X84403000Y-111393000D01*
X81534000Y-109141500D02*
X83947000Y-109141500D01*
X83947000Y-109141500D02*
X84403000Y-109597500D01*
X81214000Y-110282500D02*
X81089000Y-110157500D01*
X85278000Y-112268000D02*
X87442000Y-112268000D01*
X81089000Y-109586500D02*
X81534000Y-109141500D01*
X81089000Y-110157500D02*
X81089000Y-109586500D01*
X81214000Y-112268000D02*
X81214000Y-110282500D01*
X84403000Y-111393000D02*
X85278000Y-112268000D01*
%TO.N,EN*%
X88392000Y-99187000D02*
X88392000Y-98648900D01*
X74422000Y-110792500D02*
X74422000Y-107569000D01*
X88392000Y-98648900D02*
X88473700Y-98567200D01*
X75184000Y-111554500D02*
X74422000Y-110792500D01*
X74422000Y-107569000D02*
X74676000Y-107315000D01*
X76200000Y-111554500D02*
X75184000Y-111554500D01*
%TO.N,LATCH_POWERUP*%
X80264000Y-114143000D02*
X77488500Y-114143000D01*
X77488500Y-114143000D02*
X76200000Y-112854500D01*
%TO.N,Net-(Q3-B)*%
X83378000Y-112268000D02*
X83378000Y-110282500D01*
X83378000Y-110282500D02*
X83503000Y-110157500D01*
%TO.N,KEEP_ALIVE*%
X107954000Y-109470000D02*
X109325000Y-109470000D01*
X85183000Y-110157500D02*
X85153000Y-110157500D01*
X86106000Y-109234500D02*
X85183000Y-110157500D01*
X107950000Y-109474000D02*
X107954000Y-109470000D01*
%TD*%
%TA.AperFunction,Conductor*%
%TO.N,-BATT*%
G36*
X84124800Y-103987600D02*
G01*
X82550000Y-103987600D01*
X82550000Y-102463600D01*
X84124800Y-102463600D01*
X84124800Y-103987600D01*
G37*
%TD.AperFunction*%
%TD*%
%TA.AperFunction,Conductor*%
%TO.N,+3.3V*%
G36*
X101514459Y-92965061D02*
G01*
X101619623Y-92978906D01*
X101650891Y-92987284D01*
X101741318Y-93024740D01*
X101769352Y-93040925D01*
X101847002Y-93100509D01*
X101869891Y-93123398D01*
X101929474Y-93201048D01*
X101945659Y-93229081D01*
X101983115Y-93319508D01*
X101991493Y-93350775D01*
X102005339Y-93455940D01*
X102006400Y-93472126D01*
X102006400Y-98298000D01*
X100183680Y-98298000D01*
X100184861Y-98289947D01*
X100197711Y-98232103D01*
X100199981Y-98223393D01*
X100327722Y-97797593D01*
X100327927Y-97796920D01*
X100329811Y-97790808D01*
X100330295Y-97789277D01*
X100332395Y-97782815D01*
X100380800Y-97637600D01*
X100380800Y-97637599D01*
X100431600Y-97485200D01*
X100270958Y-97485200D01*
X99822126Y-97485200D01*
X99805941Y-97484139D01*
X99792917Y-97482424D01*
X99700775Y-97470293D01*
X99669508Y-97461915D01*
X99579081Y-97424459D01*
X99551048Y-97408274D01*
X99473398Y-97348691D01*
X99450508Y-97325801D01*
X99390925Y-97248151D01*
X99374740Y-97220118D01*
X99337284Y-97129691D01*
X99328906Y-97098423D01*
X99315061Y-96993259D01*
X99314000Y-96977074D01*
X99314000Y-93472126D01*
X99315061Y-93455941D01*
X99328906Y-93350776D01*
X99337284Y-93319508D01*
X99374740Y-93229081D01*
X99390923Y-93201050D01*
X99450513Y-93123392D01*
X99473392Y-93100513D01*
X99551050Y-93040923D01*
X99579079Y-93024740D01*
X99669509Y-92987283D01*
X99700775Y-92978906D01*
X99805940Y-92965061D01*
X99822126Y-92964000D01*
X101498274Y-92964000D01*
X101514459Y-92965061D01*
G37*
%TD.AperFunction*%
%TD*%
%TA.AperFunction,Conductor*%
%TO.N,-BATT*%
G36*
X83973400Y-83735013D02*
G01*
X84018787Y-83780400D01*
X84035400Y-83842400D01*
X84035400Y-86744000D01*
X84018787Y-86806000D01*
X83973400Y-86851387D01*
X83911400Y-86868000D01*
X82559200Y-86868000D01*
X82497200Y-86851387D01*
X82451813Y-86806000D01*
X82435200Y-86744000D01*
X82435200Y-86192306D01*
X82445249Y-86143406D01*
X82473768Y-86102432D01*
X82516133Y-86076025D01*
X82610643Y-86041020D01*
X83121000Y-85852000D01*
X83172729Y-85806018D01*
X83230913Y-85777082D01*
X83275231Y-85768267D01*
X83341552Y-85723952D01*
X83385867Y-85657631D01*
X83387669Y-85648570D01*
X83401691Y-85611122D01*
X83426901Y-85580087D01*
X83578200Y-85445600D01*
X83578200Y-83842400D01*
X83594813Y-83780400D01*
X83640200Y-83735013D01*
X83702200Y-83718400D01*
X83911400Y-83718400D01*
X83973400Y-83735013D01*
G37*
%TD.AperFunction*%
%TD*%
%TA.AperFunction,Conductor*%
%TO.N,V_USB*%
G36*
X95139059Y-93092061D02*
G01*
X95244223Y-93105906D01*
X95275491Y-93114284D01*
X95365918Y-93151740D01*
X95393952Y-93167925D01*
X95471602Y-93227509D01*
X95494491Y-93250398D01*
X95554074Y-93328048D01*
X95570259Y-93356081D01*
X95607715Y-93446508D01*
X95616093Y-93477775D01*
X95629939Y-93582940D01*
X95631000Y-93599126D01*
X95631000Y-94360874D01*
X95629939Y-94377060D01*
X95616093Y-94482224D01*
X95607715Y-94513491D01*
X95570259Y-94603918D01*
X95554074Y-94631951D01*
X95494491Y-94709601D01*
X95471601Y-94732491D01*
X95393951Y-94792074D01*
X95365918Y-94808259D01*
X95275491Y-94845715D01*
X95244224Y-94854093D01*
X95150398Y-94866446D01*
X95139058Y-94867939D01*
X95122874Y-94869000D01*
X93599126Y-94869000D01*
X93582941Y-94867939D01*
X93569917Y-94866224D01*
X93477775Y-94854093D01*
X93446508Y-94845715D01*
X93356081Y-94808259D01*
X93328048Y-94792074D01*
X93250398Y-94732491D01*
X93227508Y-94709601D01*
X93167925Y-94631951D01*
X93151740Y-94603918D01*
X93114284Y-94513491D01*
X93105906Y-94482223D01*
X93092061Y-94377059D01*
X93091000Y-94360874D01*
X93091000Y-93599126D01*
X93092061Y-93582941D01*
X93105906Y-93477776D01*
X93114284Y-93446508D01*
X93151740Y-93356081D01*
X93167923Y-93328050D01*
X93227513Y-93250392D01*
X93250392Y-93227513D01*
X93328050Y-93167923D01*
X93356079Y-93151740D01*
X93446509Y-93114283D01*
X93477775Y-93105906D01*
X93582940Y-93092061D01*
X93599126Y-93091000D01*
X95122874Y-93091000D01*
X95139059Y-93092061D01*
G37*
%TD.AperFunction*%
%TD*%
%TA.AperFunction,Conductor*%
%TO.N,Net-(Q1-S)*%
G36*
X89069171Y-100103781D02*
G01*
X89147818Y-100119424D01*
X89192508Y-100137935D01*
X89248826Y-100175566D01*
X89283033Y-100209773D01*
X89303276Y-100240068D01*
X89320662Y-100266088D01*
X89339176Y-100310787D01*
X89354817Y-100389420D01*
X89357200Y-100413611D01*
X89357200Y-100982989D01*
X89354817Y-101007180D01*
X89339176Y-101085812D01*
X89320662Y-101130511D01*
X89283036Y-101186823D01*
X89248823Y-101221036D01*
X89192511Y-101258662D01*
X89147812Y-101277176D01*
X89069180Y-101292817D01*
X89044989Y-101295200D01*
X87630000Y-101295200D01*
X87626178Y-101591329D01*
X87626179Y-101591329D01*
X87583177Y-104923959D01*
X87580523Y-104947922D01*
X87564126Y-105025751D01*
X87545334Y-105069907D01*
X87507557Y-105125470D01*
X87473406Y-105159183D01*
X87418237Y-105195662D01*
X87417357Y-105196244D01*
X87372962Y-105214465D01*
X87312876Y-105226316D01*
X87294929Y-105229856D01*
X87270935Y-105232200D01*
X85478411Y-105232200D01*
X85454220Y-105229817D01*
X85375587Y-105214176D01*
X85330889Y-105195662D01*
X85274573Y-105158033D01*
X85240366Y-105123826D01*
X85202735Y-105067508D01*
X85184224Y-105022818D01*
X85168581Y-104944171D01*
X85166200Y-104919989D01*
X85166200Y-101849199D01*
X85166200Y-101549200D01*
X84866201Y-101549200D01*
X82811411Y-101549200D01*
X82787220Y-101546817D01*
X82708587Y-101531176D01*
X82663889Y-101512662D01*
X82607573Y-101475033D01*
X82573366Y-101440826D01*
X82535735Y-101384508D01*
X82517224Y-101339818D01*
X82501581Y-101261171D01*
X82499200Y-101236989D01*
X82499200Y-100464411D01*
X82501581Y-100440228D01*
X82517225Y-100361579D01*
X82535734Y-100316893D01*
X82573368Y-100260570D01*
X82607570Y-100226368D01*
X82663893Y-100188734D01*
X82708579Y-100170225D01*
X82787228Y-100154581D01*
X82811411Y-100152200D01*
X84505800Y-100152200D01*
X84531200Y-100152200D01*
X84531200Y-100137454D01*
X84571032Y-100110839D01*
X84618485Y-100101400D01*
X89044989Y-100101400D01*
X89069171Y-100103781D01*
G37*
%TD.AperFunction*%
%TD*%
%TA.AperFunction,Conductor*%
%TO.N,+3.3V*%
G36*
X127244641Y-120905527D02*
G01*
X127339207Y-120920504D01*
X127376102Y-120932491D01*
X127452617Y-120971477D01*
X127484002Y-120994281D01*
X127544718Y-121054997D01*
X127567522Y-121086383D01*
X127606507Y-121162895D01*
X127618495Y-121199792D01*
X127633473Y-121294358D01*
X127635000Y-121313756D01*
X127635000Y-122780244D01*
X127633473Y-122799642D01*
X127618495Y-122894207D01*
X127606507Y-122931104D01*
X127567522Y-123007616D01*
X127544718Y-123039002D01*
X127484002Y-123099718D01*
X127452616Y-123122522D01*
X127376104Y-123161507D01*
X127339207Y-123173495D01*
X127259425Y-123186131D01*
X127244640Y-123188473D01*
X127225244Y-123190000D01*
X125504756Y-123190000D01*
X125485359Y-123188473D01*
X125466258Y-123185447D01*
X125390792Y-123173495D01*
X125353895Y-123161507D01*
X125277383Y-123122522D01*
X125245997Y-123099718D01*
X125185281Y-123039002D01*
X125162477Y-123007616D01*
X125123492Y-122931104D01*
X125111504Y-122894206D01*
X125096527Y-122799641D01*
X125095000Y-122780244D01*
X125095000Y-121313756D01*
X125096525Y-121294370D01*
X125111505Y-121199784D01*
X125123490Y-121162898D01*
X125162479Y-121086379D01*
X125185278Y-121055000D01*
X125246000Y-120994278D01*
X125277379Y-120971479D01*
X125353898Y-120932490D01*
X125390784Y-120920505D01*
X125485370Y-120905525D01*
X125504756Y-120904000D01*
X127225244Y-120904000D01*
X127244641Y-120905527D01*
G37*
%TD.AperFunction*%
%TD*%
%TA.AperFunction,Conductor*%
%TO.N,-BATT*%
G36*
X92941155Y-97775947D02*
G01*
X93925136Y-97786643D01*
X93949132Y-97789254D01*
X93969657Y-97793539D01*
X94027087Y-97805531D01*
X94071328Y-97824280D01*
X94127014Y-97862038D01*
X94160802Y-97896195D01*
X94197953Y-97952289D01*
X94216220Y-97996731D01*
X94231650Y-98074859D01*
X94234000Y-98098884D01*
X94234000Y-98578172D01*
X94224561Y-98625624D01*
X94209524Y-98661924D01*
X94192909Y-98723933D01*
X94182500Y-98802999D01*
X94182500Y-101013689D01*
X94177156Y-101049700D01*
X94161584Y-101082607D01*
X94159817Y-101085250D01*
X94125624Y-101119434D01*
X94069312Y-101157061D01*
X94024612Y-101175576D01*
X93945980Y-101191217D01*
X93921789Y-101193600D01*
X92209411Y-101193600D01*
X92185220Y-101191217D01*
X92106587Y-101175576D01*
X92061889Y-101157062D01*
X92005573Y-101119433D01*
X91971366Y-101085226D01*
X91933735Y-101028908D01*
X91915224Y-100984218D01*
X91899581Y-100905571D01*
X91897200Y-100881389D01*
X91897200Y-100172799D01*
X91897200Y-99872800D01*
X91597201Y-99872800D01*
X90329811Y-99872800D01*
X90305620Y-99870417D01*
X90226987Y-99854776D01*
X90182289Y-99836262D01*
X90125973Y-99798633D01*
X90091766Y-99764426D01*
X90054135Y-99708108D01*
X90035624Y-99663418D01*
X90019981Y-99584771D01*
X90017600Y-99560589D01*
X90017600Y-99418880D01*
X90019942Y-99394896D01*
X90025816Y-99365097D01*
X90035321Y-99316890D01*
X90053527Y-99272511D01*
X90090562Y-99216472D01*
X90124250Y-99182326D01*
X90179782Y-99144539D01*
X90223910Y-99125734D01*
X90301703Y-99109302D01*
X90325645Y-99106637D01*
X90695640Y-99101636D01*
X91106949Y-99096078D01*
X91897200Y-99085400D01*
X91897200Y-98080175D01*
X91899614Y-98055826D01*
X91915470Y-97976672D01*
X91934231Y-97931726D01*
X91972341Y-97875191D01*
X92006967Y-97840939D01*
X92063914Y-97803445D01*
X92109062Y-97785174D01*
X92188379Y-97770179D01*
X92212750Y-97768029D01*
X92941155Y-97775947D01*
G37*
%TD.AperFunction*%
%TD*%
%TA.AperFunction,Conductor*%
%TO.N,-BATT*%
G36*
X95494641Y-107951527D02*
G01*
X95589207Y-107966504D01*
X95626102Y-107978491D01*
X95702617Y-108017477D01*
X95734002Y-108040281D01*
X95794718Y-108100997D01*
X95817522Y-108132383D01*
X95856507Y-108208895D01*
X95868495Y-108245792D01*
X95883473Y-108340358D01*
X95885000Y-108359756D01*
X95885000Y-109826244D01*
X95883473Y-109845642D01*
X95868495Y-109940207D01*
X95856507Y-109977104D01*
X95817522Y-110053616D01*
X95794718Y-110085002D01*
X95734002Y-110145718D01*
X95702616Y-110168522D01*
X95626104Y-110207507D01*
X95589207Y-110219495D01*
X95509425Y-110232131D01*
X95494640Y-110234473D01*
X95475244Y-110236000D01*
X94516756Y-110236000D01*
X94497359Y-110234473D01*
X94478258Y-110231447D01*
X94402792Y-110219495D01*
X94365895Y-110207507D01*
X94289383Y-110168522D01*
X94257997Y-110145718D01*
X94197281Y-110085002D01*
X94174477Y-110053616D01*
X94135492Y-109977104D01*
X94123504Y-109940206D01*
X94108527Y-109845641D01*
X94107000Y-109826244D01*
X94107000Y-108359756D01*
X94108525Y-108340370D01*
X94123505Y-108245784D01*
X94135490Y-108208898D01*
X94174479Y-108132379D01*
X94197278Y-108101000D01*
X94258000Y-108040278D01*
X94289379Y-108017479D01*
X94365898Y-107978490D01*
X94402784Y-107966505D01*
X94497370Y-107951525D01*
X94516756Y-107950000D01*
X95475244Y-107950000D01*
X95494641Y-107951527D01*
G37*
%TD.AperFunction*%
%TD*%
%TA.AperFunction,Conductor*%
%TO.N,V_USB*%
G36*
X86564200Y-83735013D02*
G01*
X86609587Y-83780400D01*
X86626200Y-83842400D01*
X86626200Y-85445600D01*
X86626201Y-85445601D01*
X86708954Y-85519159D01*
X86734167Y-85550197D01*
X86748190Y-85587646D01*
X86758132Y-85637630D01*
X86802447Y-85703952D01*
X86868769Y-85748267D01*
X86927251Y-85759900D01*
X86927252Y-85759900D01*
X86932643Y-85759900D01*
X86976710Y-85767995D01*
X87015024Y-85791221D01*
X87083400Y-85852000D01*
X87664313Y-86075428D01*
X87705977Y-86102002D01*
X87733953Y-86142737D01*
X87743800Y-86191163D01*
X87743800Y-86744000D01*
X87727187Y-86806000D01*
X87681800Y-86851387D01*
X87619800Y-86868000D01*
X86293000Y-86868000D01*
X86231000Y-86851387D01*
X86185613Y-86806000D01*
X86169000Y-86744000D01*
X86169000Y-83842400D01*
X86185613Y-83780400D01*
X86231000Y-83735013D01*
X86293000Y-83718400D01*
X86502200Y-83718400D01*
X86564200Y-83735013D01*
G37*
%TD.AperFunction*%
%TD*%
%TA.AperFunction,Conductor*%
%TO.N,-BATT*%
G36*
X88646000Y-96583497D02*
G01*
X88646000Y-97842700D01*
X88629387Y-97904700D01*
X88584000Y-97950087D01*
X88522000Y-97966700D01*
X87906931Y-97966700D01*
X87876503Y-97969553D01*
X87748315Y-98014407D01*
X87639049Y-98095049D01*
X87558407Y-98204315D01*
X87513553Y-98332503D01*
X87510700Y-98362931D01*
X87510700Y-98771469D01*
X87513553Y-98801896D01*
X87558407Y-98930084D01*
X87639048Y-99039349D01*
X87738213Y-99112536D01*
X87771382Y-99149304D01*
X87787518Y-99196120D01*
X87806956Y-99343762D01*
X87867463Y-99489840D01*
X87948206Y-99595067D01*
X87972003Y-99649347D01*
X87967890Y-99708472D01*
X87936805Y-99758935D01*
X87885851Y-99789206D01*
X87881414Y-99790553D01*
X87845393Y-99795900D01*
X85720430Y-99795900D01*
X85717088Y-99795700D01*
X85711344Y-99795700D01*
X85129056Y-99795700D01*
X85123312Y-99795700D01*
X85119970Y-99795900D01*
X84618485Y-99795900D01*
X84558880Y-99801770D01*
X84511432Y-99811208D01*
X84475856Y-99822000D01*
X84201000Y-99822000D01*
X84201000Y-99846700D01*
X82811411Y-99846700D01*
X82781477Y-99848170D01*
X82757294Y-99850551D01*
X82757287Y-99850551D01*
X82757287Y-99850552D01*
X82727633Y-99854950D01*
X82648975Y-99870596D01*
X82591676Y-99887977D01*
X82546979Y-99906491D01*
X82494168Y-99934718D01*
X82437841Y-99972354D01*
X82391548Y-100010347D01*
X82357347Y-100044548D01*
X82319354Y-100090841D01*
X82281718Y-100147168D01*
X82253491Y-100199979D01*
X82234977Y-100244676D01*
X82217596Y-100301975D01*
X82206160Y-100359471D01*
X82201951Y-100380629D01*
X82197551Y-100410294D01*
X82195170Y-100434477D01*
X82195170Y-100434479D01*
X82193700Y-100464419D01*
X82193700Y-101099988D01*
X82180460Y-101155740D01*
X82143566Y-101199586D01*
X82090898Y-101222163D01*
X82033704Y-101218648D01*
X81999290Y-101208208D01*
X81951842Y-101198770D01*
X81892238Y-101192900D01*
X80870962Y-101192900D01*
X80811357Y-101198770D01*
X80763918Y-101208206D01*
X80740590Y-101215282D01*
X80706598Y-101225594D01*
X80706596Y-101225594D01*
X80706596Y-101225595D01*
X80653781Y-101253826D01*
X80613550Y-101280708D01*
X80567256Y-101318700D01*
X80439900Y-101446056D01*
X80401908Y-101492350D01*
X80375026Y-101532581D01*
X80346795Y-101585396D01*
X80329406Y-101642718D01*
X80319970Y-101690157D01*
X80314100Y-101749762D01*
X80314100Y-102542438D01*
X80319970Y-102602042D01*
X80329406Y-102649481D01*
X80329408Y-102649490D01*
X80329409Y-102649491D01*
X80346794Y-102706802D01*
X80346795Y-102706803D01*
X80375026Y-102759618D01*
X80401908Y-102799849D01*
X80439900Y-102846143D01*
X80567256Y-102973499D01*
X80567260Y-102973502D01*
X80613552Y-103011493D01*
X80653780Y-103038373D01*
X80706598Y-103066606D01*
X80763909Y-103083991D01*
X80763915Y-103083992D01*
X80763918Y-103083993D01*
X80810158Y-103093190D01*
X80811362Y-103093430D01*
X80870962Y-103099300D01*
X81892238Y-103099300D01*
X81951838Y-103093430D01*
X81999291Y-103083991D01*
X82056602Y-103066606D01*
X82109420Y-103038373D01*
X82149648Y-103011493D01*
X82195940Y-102973502D01*
X82323302Y-102846140D01*
X82361293Y-102799848D01*
X82388173Y-102759620D01*
X82416406Y-102706802D01*
X82433791Y-102649491D01*
X82443230Y-102602038D01*
X82449100Y-102542438D01*
X82449100Y-102463600D01*
X82550000Y-102463600D01*
X82550000Y-103987600D01*
X84124800Y-103987600D01*
X84124800Y-102463600D01*
X82550000Y-102463600D01*
X82449100Y-102463600D01*
X82449100Y-102248246D01*
X82456058Y-102207292D01*
X82495246Y-102095299D01*
X82498100Y-102064866D01*
X82498100Y-101951887D01*
X82510005Y-101898870D01*
X82543435Y-101856034D01*
X82591970Y-101831603D01*
X82646291Y-101830270D01*
X82670995Y-101835183D01*
X82727620Y-101846447D01*
X82757271Y-101850845D01*
X82781462Y-101853228D01*
X82781475Y-101853228D01*
X82781479Y-101853229D01*
X82811402Y-101854700D01*
X82811411Y-101854700D01*
X84077000Y-101854700D01*
X84139000Y-101871313D01*
X84184387Y-101916700D01*
X84201000Y-101978700D01*
X84201000Y-104657907D01*
X84200403Y-104670061D01*
X84182982Y-104846934D01*
X84178240Y-104870775D01*
X84128424Y-105034998D01*
X84119121Y-105057456D01*
X84038227Y-105208798D01*
X84024722Y-105229010D01*
X83915854Y-105361666D01*
X83898666Y-105378854D01*
X83766010Y-105487722D01*
X83745799Y-105501227D01*
X83598690Y-105579858D01*
X83540238Y-105594500D01*
X80289762Y-105594500D01*
X80231309Y-105579858D01*
X80141515Y-105531862D01*
X80112288Y-105510185D01*
X79782813Y-105180710D01*
X79761136Y-105151482D01*
X79713142Y-105061691D01*
X79698500Y-105003238D01*
X79698500Y-93624762D01*
X79713140Y-93566312D01*
X79791779Y-93419187D01*
X79805272Y-93398995D01*
X79914149Y-93266328D01*
X79931328Y-93249149D01*
X80063995Y-93140272D01*
X80084195Y-93126775D01*
X80235549Y-93045875D01*
X80257994Y-93036577D01*
X80422232Y-92986757D01*
X80446056Y-92982018D01*
X80622938Y-92964597D01*
X80635093Y-92964000D01*
X88646000Y-92964000D01*
X88646000Y-96583497D01*
G37*
%TD.AperFunction*%
%TD*%
%TA.AperFunction,Conductor*%
%TO.N,+3.3V*%
G36*
X102006400Y-102057200D02*
G01*
X102060281Y-102134507D01*
X102060283Y-102134511D01*
X103115511Y-103648533D01*
X103125084Y-103664774D01*
X103152630Y-103720864D01*
X103163895Y-103756727D01*
X103173367Y-103818486D01*
X103174800Y-103837284D01*
X103174800Y-106672589D01*
X103172417Y-106696780D01*
X103156776Y-106775412D01*
X103138262Y-106820111D01*
X103100636Y-106876423D01*
X103066423Y-106910636D01*
X103010111Y-106948262D01*
X102965412Y-106966776D01*
X102886780Y-106982417D01*
X102862589Y-106984800D01*
X99321411Y-106984800D01*
X99297220Y-106982417D01*
X99218587Y-106966776D01*
X99173889Y-106948262D01*
X99117573Y-106910633D01*
X99083366Y-106876426D01*
X99045735Y-106820108D01*
X99027224Y-106775418D01*
X99011581Y-106696771D01*
X99009200Y-106672589D01*
X99009200Y-103837284D01*
X99010633Y-103818488D01*
X99020104Y-103756729D01*
X99031369Y-103720864D01*
X99033438Y-103716649D01*
X99058919Y-103664765D01*
X99068479Y-103648546D01*
X100123719Y-102134507D01*
X100177600Y-102057200D01*
X100177600Y-98346551D01*
X100177929Y-98337525D01*
X100180121Y-98307491D01*
X100181514Y-98298000D01*
X102006400Y-98298000D01*
X102006400Y-102057200D01*
G37*
%TD.AperFunction*%
%TD*%
%TA.AperFunction,Conductor*%
%TO.N,-BATT*%
G36*
X119090371Y-120538381D02*
G01*
X119130746Y-120546412D01*
X119175443Y-120564927D01*
X119199313Y-120580877D01*
X119233522Y-120615086D01*
X119249472Y-120638956D01*
X119267988Y-120683656D01*
X119276017Y-120724019D01*
X119278400Y-120748211D01*
X119278400Y-121847789D01*
X119276017Y-121871982D01*
X119267988Y-121912344D01*
X119249472Y-121957043D01*
X119233522Y-121980913D01*
X119199313Y-122015122D01*
X119175443Y-122031072D01*
X119130744Y-122049588D01*
X119114241Y-122052870D01*
X119090378Y-122057617D01*
X119066189Y-122060000D01*
X116645811Y-122060000D01*
X116621620Y-122057617D01*
X116606344Y-122054578D01*
X116581256Y-122049588D01*
X116536556Y-122031072D01*
X116512686Y-122015122D01*
X116478477Y-121980913D01*
X116462527Y-121957043D01*
X116444012Y-121912346D01*
X116435981Y-121871971D01*
X116433600Y-121847789D01*
X116433600Y-120748211D01*
X116435981Y-120724027D01*
X116444012Y-120683653D01*
X116462527Y-120638956D01*
X116478477Y-120615086D01*
X116512686Y-120580877D01*
X116536556Y-120564927D01*
X116581253Y-120546412D01*
X116621627Y-120538381D01*
X116645811Y-120536000D01*
X119066189Y-120536000D01*
X119090371Y-120538381D01*
G37*
%TD.AperFunction*%
%TD*%
%TA.AperFunction,Conductor*%
%TO.N,-BATT*%
G36*
X136134641Y-116968527D02*
G01*
X136229207Y-116983504D01*
X136266102Y-116995491D01*
X136342617Y-117034477D01*
X136374002Y-117057281D01*
X136434718Y-117117997D01*
X136457522Y-117149383D01*
X136496507Y-117225895D01*
X136508495Y-117262792D01*
X136523473Y-117357358D01*
X136525000Y-117376756D01*
X136525000Y-121383244D01*
X136523473Y-121402642D01*
X136508495Y-121497207D01*
X136496507Y-121534104D01*
X136457522Y-121610616D01*
X136434718Y-121642002D01*
X136374002Y-121702718D01*
X136342616Y-121725522D01*
X136266104Y-121764507D01*
X136229207Y-121776495D01*
X136149425Y-121789131D01*
X136134640Y-121791473D01*
X136115244Y-121793000D01*
X133251756Y-121793000D01*
X133232359Y-121791473D01*
X133213258Y-121788447D01*
X133137792Y-121776495D01*
X133100895Y-121764507D01*
X133024383Y-121725522D01*
X132992997Y-121702718D01*
X132932281Y-121642002D01*
X132909477Y-121610616D01*
X132870492Y-121534104D01*
X132858504Y-121497206D01*
X132843527Y-121402641D01*
X132842000Y-121383244D01*
X132842000Y-120795998D01*
X132842000Y-120396000D01*
X132442002Y-120396000D01*
X125504756Y-120396000D01*
X125485359Y-120394473D01*
X125466258Y-120391447D01*
X125390792Y-120379495D01*
X125353895Y-120367507D01*
X125277383Y-120328522D01*
X125245997Y-120305718D01*
X125185281Y-120245002D01*
X125162477Y-120213616D01*
X125123492Y-120137104D01*
X125111504Y-120100206D01*
X125096527Y-120005641D01*
X125095000Y-119986244D01*
X125095000Y-118519756D01*
X125096525Y-118500370D01*
X125111505Y-118405784D01*
X125123490Y-118368898D01*
X125162479Y-118292379D01*
X125185278Y-118261000D01*
X125246000Y-118200278D01*
X125277379Y-118177479D01*
X125353898Y-118138490D01*
X125390784Y-118126505D01*
X125485370Y-118111525D01*
X125504756Y-118110000D01*
X129231956Y-118110000D01*
X129288251Y-118123515D01*
X129332274Y-118161115D01*
X129354429Y-118214602D01*
X129349887Y-118272318D01*
X129319637Y-118321681D01*
X129252802Y-118388515D01*
X129201426Y-118493609D01*
X129191500Y-118561737D01*
X129191500Y-118928263D01*
X129201426Y-118996390D01*
X129201426Y-118996391D01*
X129201427Y-118996393D01*
X129217343Y-119028949D01*
X129252802Y-119101484D01*
X129335515Y-119184197D01*
X129335516Y-119184197D01*
X129335517Y-119184198D01*
X129440607Y-119235573D01*
X129467860Y-119239543D01*
X129508737Y-119245500D01*
X129508740Y-119245500D01*
X131225260Y-119245500D01*
X131225263Y-119245500D01*
X131259326Y-119240536D01*
X131293393Y-119235573D01*
X131398483Y-119184198D01*
X131450864Y-119131816D01*
X131491090Y-119104939D01*
X131538543Y-119095500D01*
X132021512Y-119095500D01*
X132109040Y-119095500D01*
X133173788Y-119095500D01*
X133199234Y-119098139D01*
X133200556Y-119098416D01*
X133208315Y-119100043D01*
X133234364Y-119096795D01*
X133237123Y-119096452D01*
X133251795Y-119095541D01*
X133271013Y-119092334D01*
X133276069Y-119091596D01*
X133324393Y-119085573D01*
X133324394Y-119085572D01*
X133331808Y-119084648D01*
X133338378Y-119081092D01*
X133338381Y-119081092D01*
X133381201Y-119057918D01*
X133385747Y-119055577D01*
X133429484Y-119034198D01*
X133429486Y-119034195D01*
X133436195Y-119030916D01*
X133441254Y-119025419D01*
X133441258Y-119025418D01*
X133474254Y-118989572D01*
X133477756Y-118985924D01*
X133817046Y-118646634D01*
X133836903Y-118630510D01*
X133844669Y-118625437D01*
X133862496Y-118602531D01*
X133872232Y-118591506D01*
X133872371Y-118591310D01*
X133872375Y-118591307D01*
X133883554Y-118575648D01*
X133886604Y-118571556D01*
X133916517Y-118533126D01*
X133916517Y-118533124D01*
X133921107Y-118527228D01*
X133923239Y-118520067D01*
X133937131Y-118473401D01*
X133938686Y-118468549D01*
X133954500Y-118422488D01*
X133954500Y-118422485D01*
X133956925Y-118415421D01*
X133956616Y-118407956D01*
X133956617Y-118407954D01*
X133954605Y-118359331D01*
X133954500Y-118354208D01*
X133954500Y-117881036D01*
X133962318Y-117837703D01*
X133984787Y-117799834D01*
X134029376Y-117748374D01*
X134029375Y-117748374D01*
X134029377Y-117748373D01*
X134089165Y-117617457D01*
X134109647Y-117475000D01*
X134089165Y-117332543D01*
X134057310Y-117262792D01*
X134021971Y-117185410D01*
X134023096Y-117184895D01*
X134009938Y-117160067D01*
X134008046Y-117104358D01*
X134030748Y-117053448D01*
X134073453Y-117017627D01*
X134116898Y-116995490D01*
X134153784Y-116983505D01*
X134248370Y-116968525D01*
X134267756Y-116967000D01*
X136115244Y-116967000D01*
X136134641Y-116968527D01*
G37*
%TD.AperFunction*%
%TD*%
%TA.AperFunction,Conductor*%
%TO.N,-BATT*%
G36*
X104260987Y-92973439D02*
G01*
X104301215Y-93000319D01*
X105126381Y-93825484D01*
X105153261Y-93865712D01*
X105162700Y-93913165D01*
X105162700Y-97349875D01*
X105148689Y-97407132D01*
X105109823Y-97451450D01*
X105054885Y-97472813D01*
X104998989Y-97480172D01*
X104968858Y-97484139D01*
X104952674Y-97485200D01*
X104089200Y-97485200D01*
X104114599Y-97637595D01*
X104114599Y-97637598D01*
X104133550Y-97751301D01*
X104140000Y-97790000D01*
X104152403Y-97827210D01*
X104152406Y-97827218D01*
X104265165Y-98165495D01*
X104267935Y-98175073D01*
X104283555Y-98238540D01*
X104286747Y-98258211D01*
X104291999Y-98323364D01*
X104292400Y-98333327D01*
X104292400Y-100228274D01*
X104291339Y-100244460D01*
X104277493Y-100349624D01*
X104269115Y-100380891D01*
X104231659Y-100471318D01*
X104215474Y-100499351D01*
X104155891Y-100577001D01*
X104133001Y-100599891D01*
X104055351Y-100659474D01*
X104027318Y-100675659D01*
X103936891Y-100713115D01*
X103905624Y-100721493D01*
X103811798Y-100733846D01*
X103800458Y-100735339D01*
X103784274Y-100736400D01*
X102587600Y-100736400D01*
X102525600Y-100719787D01*
X102480213Y-100674400D01*
X102463600Y-100612400D01*
X102463600Y-93472126D01*
X102464661Y-93455941D01*
X102478506Y-93350776D01*
X102486884Y-93319508D01*
X102524340Y-93229081D01*
X102540523Y-93201050D01*
X102600113Y-93123392D01*
X102622992Y-93100513D01*
X102700650Y-93040923D01*
X102728679Y-93024740D01*
X102819109Y-92987283D01*
X102850375Y-92978906D01*
X102955540Y-92965061D01*
X102971726Y-92964000D01*
X104213534Y-92964000D01*
X104260987Y-92973439D01*
G37*
%TD.AperFunction*%
%TD*%
%TA.AperFunction,Conductor*%
%TO.N,+5V*%
G36*
X99026743Y-92978642D02*
G01*
X99071392Y-93019109D01*
X99091693Y-93075846D01*
X99082851Y-93135453D01*
X99055039Y-93202596D01*
X99042194Y-93240438D01*
X99033813Y-93271716D01*
X99026020Y-93310898D01*
X99012173Y-93416074D01*
X99010216Y-93435936D01*
X99009154Y-93452138D01*
X99008500Y-93472139D01*
X99008500Y-96977061D01*
X99009154Y-96997061D01*
X99010216Y-97013263D01*
X99012173Y-97033125D01*
X99026020Y-97138300D01*
X99033813Y-97177482D01*
X99042194Y-97208760D01*
X99055039Y-97246602D01*
X99092495Y-97337029D01*
X99110168Y-97372866D01*
X99126355Y-97400902D01*
X99148556Y-97434129D01*
X99208137Y-97511777D01*
X99234489Y-97541825D01*
X99257373Y-97564709D01*
X99287421Y-97591061D01*
X99365069Y-97650642D01*
X99381795Y-97661817D01*
X99398297Y-97672844D01*
X99426330Y-97689029D01*
X99462171Y-97706704D01*
X99552598Y-97744160D01*
X99590438Y-97757005D01*
X99621705Y-97765383D01*
X99660897Y-97773179D01*
X99736342Y-97783112D01*
X99766046Y-97787023D01*
X99766053Y-97787023D01*
X99766063Y-97787025D01*
X99785957Y-97788985D01*
X99802142Y-97790046D01*
X99822126Y-97790700D01*
X99844178Y-97790700D01*
X99899845Y-97803897D01*
X99943662Y-97840681D01*
X99966303Y-97893220D01*
X99962948Y-97950331D01*
X99907362Y-98135613D01*
X99904360Y-98146328D01*
X99902093Y-98155027D01*
X99899480Y-98165855D01*
X99886631Y-98223691D01*
X99884979Y-98232667D01*
X99880583Y-98249669D01*
X99879252Y-98253631D01*
X99877857Y-98263141D01*
X99875430Y-98285253D01*
X99873237Y-98315304D01*
X99872633Y-98326360D01*
X99872301Y-98335457D01*
X99872100Y-98346528D01*
X99872100Y-101922293D01*
X99866401Y-101959452D01*
X99849829Y-101993195D01*
X98817858Y-103473845D01*
X98805294Y-103493419D01*
X98795734Y-103509639D01*
X98784703Y-103530094D01*
X98757152Y-103586196D01*
X98739906Y-103629322D01*
X98728644Y-103665178D01*
X98718132Y-103710427D01*
X98708661Y-103772186D01*
X98706017Y-103795254D01*
X98704582Y-103814067D01*
X98703700Y-103837274D01*
X98703700Y-105133600D01*
X98687087Y-105195600D01*
X98641700Y-105240987D01*
X98579700Y-105257600D01*
X96542400Y-105257600D01*
X96480400Y-105240987D01*
X96435013Y-105195600D01*
X96418400Y-105133600D01*
X96418400Y-100454000D01*
X96435013Y-100392000D01*
X96480400Y-100346613D01*
X96542400Y-100330000D01*
X97663000Y-100330000D01*
X97663000Y-100076000D01*
X95758000Y-100076000D01*
X95758000Y-103127000D01*
X95741387Y-103189000D01*
X95696000Y-103234387D01*
X95634000Y-103251000D01*
X94612000Y-103251000D01*
X94550000Y-103234387D01*
X94504613Y-103189000D01*
X94488000Y-103127000D01*
X94488000Y-98803000D01*
X94504613Y-98741000D01*
X94550000Y-98695613D01*
X94612000Y-98679000D01*
X96269458Y-98679000D01*
X96314949Y-98687646D01*
X96398410Y-98720559D01*
X96415299Y-98722587D01*
X96482852Y-98730700D01*
X96482856Y-98730700D01*
X97065144Y-98730700D01*
X97065148Y-98730700D01*
X97121441Y-98723939D01*
X97149590Y-98720559D01*
X97233050Y-98687646D01*
X97278542Y-98679000D01*
X97790000Y-98679000D01*
X97790000Y-93088000D01*
X97806613Y-93026000D01*
X97852000Y-92980613D01*
X97914000Y-92964000D01*
X98968290Y-92964000D01*
X99026743Y-92978642D01*
G37*
%TD.AperFunction*%
%TD*%
%TA.AperFunction,Conductor*%
%TO.N,-BATT*%
G36*
X92599059Y-92965061D02*
G01*
X92704223Y-92978906D01*
X92735491Y-92987284D01*
X92825918Y-93024740D01*
X92853956Y-93040929D01*
X92855680Y-93042252D01*
X92892569Y-93088215D01*
X92904072Y-93146017D01*
X92888501Y-93199469D01*
X92888961Y-93199696D01*
X92887676Y-93202301D01*
X92887589Y-93202601D01*
X92887172Y-93203321D01*
X92869495Y-93239169D01*
X92832039Y-93329596D01*
X92819194Y-93367438D01*
X92810813Y-93398716D01*
X92803020Y-93437898D01*
X92789173Y-93543074D01*
X92787216Y-93562936D01*
X92786154Y-93579138D01*
X92785500Y-93599139D01*
X92785500Y-94360861D01*
X92786154Y-94380861D01*
X92787216Y-94397063D01*
X92789173Y-94416925D01*
X92803020Y-94522100D01*
X92810813Y-94561282D01*
X92819194Y-94592560D01*
X92832039Y-94630402D01*
X92869495Y-94720829D01*
X92887168Y-94756666D01*
X92903355Y-94784702D01*
X92925556Y-94817929D01*
X92985137Y-94895577D01*
X93011489Y-94925625D01*
X93034373Y-94948509D01*
X93064421Y-94974861D01*
X93142069Y-95034442D01*
X93158795Y-95045617D01*
X93175297Y-95056644D01*
X93203330Y-95072829D01*
X93239171Y-95090504D01*
X93329598Y-95127960D01*
X93367438Y-95140805D01*
X93398705Y-95149183D01*
X93437897Y-95156979D01*
X93513342Y-95166912D01*
X93543046Y-95170823D01*
X93543053Y-95170823D01*
X93543063Y-95170825D01*
X93562957Y-95172785D01*
X93579142Y-95173846D01*
X93599126Y-95174500D01*
X95122861Y-95174500D01*
X95122874Y-95174500D01*
X95142859Y-95173846D01*
X95159043Y-95172785D01*
X95159053Y-95172783D01*
X95159068Y-95172783D01*
X95173315Y-95171378D01*
X95178936Y-95170825D01*
X95284102Y-95156979D01*
X95323294Y-95149183D01*
X95354561Y-95140805D01*
X95392401Y-95127960D01*
X95482828Y-95090504D01*
X95518669Y-95072829D01*
X95546702Y-95056644D01*
X95579928Y-95034443D01*
X95657578Y-94974860D01*
X95687622Y-94948512D01*
X95710512Y-94925622D01*
X95723122Y-94911242D01*
X95765176Y-94880053D01*
X95816352Y-94869000D01*
X97154874Y-94869000D01*
X97171059Y-94870061D01*
X97276223Y-94883906D01*
X97307491Y-94892284D01*
X97397918Y-94929740D01*
X97425951Y-94945925D01*
X97435986Y-94953625D01*
X97471712Y-94997157D01*
X97484500Y-95052001D01*
X97484500Y-98249500D01*
X97467887Y-98311500D01*
X97422500Y-98356887D01*
X97360500Y-98373500D01*
X97278542Y-98373500D01*
X97221501Y-98378872D01*
X97221496Y-98378872D01*
X97221495Y-98378873D01*
X97176016Y-98387516D01*
X97120970Y-98403448D01*
X97088954Y-98416073D01*
X97058281Y-98423829D01*
X97054752Y-98424253D01*
X97054265Y-98424312D01*
X97039453Y-98425200D01*
X96508553Y-98425200D01*
X96493765Y-98424314D01*
X96489723Y-98423829D01*
X96459041Y-98416072D01*
X96427024Y-98403446D01*
X96415241Y-98400036D01*
X96371993Y-98387519D01*
X96326500Y-98378873D01*
X96326489Y-98378872D01*
X96269458Y-98373500D01*
X96269452Y-98373500D01*
X95214900Y-98373500D01*
X95152900Y-98356887D01*
X95107513Y-98311500D01*
X95090900Y-98249500D01*
X95090900Y-97060262D01*
X95091680Y-97046378D01*
X95095670Y-97010966D01*
X95093257Y-96998213D01*
X95085035Y-96954761D01*
X95084264Y-96950220D01*
X95074848Y-96887744D01*
X95073242Y-96882861D01*
X95066022Y-96869202D01*
X95043696Y-96826961D01*
X95041641Y-96822892D01*
X95016825Y-96771358D01*
X95016823Y-96771356D01*
X95014207Y-96765923D01*
X95011227Y-96761723D01*
X94966565Y-96717062D01*
X94963346Y-96713721D01*
X94920358Y-96667391D01*
X94905467Y-96655964D01*
X94549968Y-96300465D01*
X94540702Y-96290097D01*
X94527329Y-96273328D01*
X94518479Y-96262230D01*
X94471208Y-96230000D01*
X94467470Y-96227348D01*
X94416635Y-96189829D01*
X94412024Y-96187502D01*
X94351649Y-96168879D01*
X94347244Y-96167430D01*
X94287623Y-96146568D01*
X94282514Y-96145700D01*
X94276502Y-96145700D01*
X94219338Y-96145700D01*
X94214701Y-96145613D01*
X94151570Y-96143250D01*
X94132965Y-96145700D01*
X93876156Y-96145700D01*
X93825708Y-96134974D01*
X93783987Y-96104651D01*
X93682570Y-95991965D01*
X93675474Y-95983327D01*
X93666501Y-95971342D01*
X93660746Y-95963654D01*
X93660744Y-95963653D01*
X93660744Y-95963652D01*
X93659258Y-95962539D01*
X93641411Y-95946234D01*
X93472000Y-95758000D01*
X93249319Y-95758000D01*
X93249316Y-95758000D01*
X89145999Y-95758000D01*
X88646000Y-95758000D01*
X88646000Y-92964000D01*
X92582874Y-92964000D01*
X92599059Y-92965061D01*
G37*
%TD.AperFunction*%
%TD*%
%TA.AperFunction,Conductor*%
%TO.N,Net-(D2-A)*%
G36*
X91629700Y-100168813D02*
G01*
X91675087Y-100214200D01*
X91691700Y-100276200D01*
X91691700Y-100881380D01*
X91692690Y-100901540D01*
X91695068Y-100925697D01*
X91698030Y-100945671D01*
X91713670Y-101024299D01*
X91725368Y-101062867D01*
X91743873Y-101107543D01*
X91753688Y-101125903D01*
X91762869Y-101143079D01*
X91800500Y-101199397D01*
X91800505Y-101199403D01*
X91826055Y-101230535D01*
X91860261Y-101264742D01*
X91880446Y-101281307D01*
X91891404Y-101290300D01*
X91897200Y-101294173D01*
X91897200Y-101295200D01*
X91898737Y-101295200D01*
X91947720Y-101327929D01*
X91983249Y-101346920D01*
X92027947Y-101365434D01*
X92030954Y-101366346D01*
X92066496Y-101377127D01*
X92145113Y-101392765D01*
X92145116Y-101392765D01*
X92145129Y-101392768D01*
X92165074Y-101395727D01*
X92189265Y-101398110D01*
X92209411Y-101399100D01*
X92209421Y-101399100D01*
X92388765Y-101399100D01*
X92447218Y-101413741D01*
X92491865Y-101454206D01*
X92495662Y-101459888D01*
X92514176Y-101504587D01*
X92529817Y-101583220D01*
X92532200Y-101607411D01*
X92532200Y-104919989D01*
X92529817Y-104944180D01*
X92514176Y-105022812D01*
X92495662Y-105067511D01*
X92458036Y-105123823D01*
X92423823Y-105158036D01*
X92367511Y-105195662D01*
X92322812Y-105214176D01*
X92244180Y-105229817D01*
X92219989Y-105232200D01*
X89796411Y-105232200D01*
X89772220Y-105229817D01*
X89693587Y-105214176D01*
X89648889Y-105195662D01*
X89592573Y-105158033D01*
X89558366Y-105123826D01*
X89520735Y-105067508D01*
X89502224Y-105022818D01*
X89486581Y-104944171D01*
X89484200Y-104919989D01*
X89484200Y-101629025D01*
X89488425Y-101596933D01*
X89501122Y-101549544D01*
X89533214Y-101493957D01*
X89555957Y-101471214D01*
X89611542Y-101439122D01*
X89652453Y-101428160D01*
X89674701Y-101422200D01*
X89865200Y-101422200D01*
X89865200Y-100464411D01*
X89867581Y-100440228D01*
X89883225Y-100361579D01*
X89901734Y-100316893D01*
X89939368Y-100260570D01*
X89973570Y-100226368D01*
X90029893Y-100188734D01*
X90074579Y-100170225D01*
X90153228Y-100154581D01*
X90177411Y-100152200D01*
X91567700Y-100152200D01*
X91629700Y-100168813D01*
G37*
%TD.AperFunction*%
%TD*%
%TA.AperFunction,Conductor*%
%TO.N,+BATT*%
G36*
X79492641Y-109524027D02*
G01*
X79587207Y-109539004D01*
X79624102Y-109550991D01*
X79700617Y-109589977D01*
X79732002Y-109612781D01*
X79792718Y-109673497D01*
X79815522Y-109704883D01*
X79854507Y-109781395D01*
X79866495Y-109818292D01*
X79881473Y-109912858D01*
X79883000Y-109932256D01*
X79883000Y-112668744D01*
X79881473Y-112688142D01*
X79866495Y-112782707D01*
X79854507Y-112819604D01*
X79815522Y-112896116D01*
X79792718Y-112927502D01*
X79732002Y-112988218D01*
X79700616Y-113011022D01*
X79624104Y-113050007D01*
X79587207Y-113061995D01*
X79507425Y-113074631D01*
X79492640Y-113076973D01*
X79473244Y-113078500D01*
X79276756Y-113078500D01*
X79257359Y-113076973D01*
X79238258Y-113073947D01*
X79162792Y-113061995D01*
X79125895Y-113050007D01*
X79049383Y-113011022D01*
X79017997Y-112988218D01*
X78957281Y-112927502D01*
X78934477Y-112896116D01*
X78895492Y-112819604D01*
X78883504Y-112782706D01*
X78868527Y-112688141D01*
X78867000Y-112668744D01*
X78867000Y-111192498D01*
X78867000Y-110792500D01*
X78467002Y-110792500D01*
X75847756Y-110792500D01*
X75828359Y-110790973D01*
X75809258Y-110787947D01*
X75733792Y-110775995D01*
X75696895Y-110764007D01*
X75620383Y-110725022D01*
X75588997Y-110702218D01*
X75528281Y-110641502D01*
X75505477Y-110610116D01*
X75466492Y-110533604D01*
X75454504Y-110496706D01*
X75439527Y-110402141D01*
X75438000Y-110382744D01*
X75438000Y-109932256D01*
X75439525Y-109912870D01*
X75454505Y-109818284D01*
X75466490Y-109781398D01*
X75505479Y-109704879D01*
X75528278Y-109673500D01*
X75589000Y-109612778D01*
X75620379Y-109589979D01*
X75696898Y-109550990D01*
X75733784Y-109539005D01*
X75828370Y-109524025D01*
X75847756Y-109522500D01*
X79473244Y-109522500D01*
X79492641Y-109524027D01*
G37*
%TD.AperFunction*%
%TD*%
%TA.AperFunction,Conductor*%
%TO.N,+BATT*%
G36*
X81939691Y-101507839D02*
G01*
X81979919Y-101534719D01*
X82107281Y-101662081D01*
X82134161Y-101702309D01*
X82143600Y-101749762D01*
X82143600Y-102542438D01*
X82134161Y-102589891D01*
X82107281Y-102630119D01*
X81979919Y-102757481D01*
X81939691Y-102784361D01*
X81892238Y-102793800D01*
X80870962Y-102793800D01*
X80823509Y-102784361D01*
X80783281Y-102757481D01*
X80655919Y-102630119D01*
X80629039Y-102589891D01*
X80619600Y-102542438D01*
X80619600Y-101749762D01*
X80629039Y-101702309D01*
X80655919Y-101662081D01*
X80783281Y-101534719D01*
X80823509Y-101507839D01*
X80870962Y-101498400D01*
X81892238Y-101498400D01*
X81939691Y-101507839D01*
G37*
%TD.AperFunction*%
%TD*%
%TA.AperFunction,Conductor*%
%TO.N,-BATT*%
G36*
X105043200Y-80317113D02*
G01*
X105088587Y-80362500D01*
X105105200Y-80424500D01*
X105105200Y-89814400D01*
X113363200Y-89814400D01*
X113425200Y-89831013D01*
X113470587Y-89876400D01*
X113487200Y-89938400D01*
X113487200Y-90706400D01*
X113470587Y-90768400D01*
X113425200Y-90813787D01*
X113363200Y-90830400D01*
X104162400Y-90830400D01*
X104100400Y-90813787D01*
X104055013Y-90768400D01*
X104038400Y-90706400D01*
X104038400Y-80424500D01*
X104055013Y-80362500D01*
X104100400Y-80317113D01*
X104162400Y-80300500D01*
X104981200Y-80300500D01*
X105043200Y-80317113D01*
G37*
%TD.AperFunction*%
%TD*%
%TA.AperFunction,Conductor*%
%TO.N,-BATT*%
G36*
X111798702Y-80318772D02*
G01*
X111844397Y-80368204D01*
X111858506Y-80395894D01*
X111870495Y-80432792D01*
X111885473Y-80527358D01*
X111887000Y-80546756D01*
X111887000Y-84680244D01*
X111885473Y-84699642D01*
X111870495Y-84794207D01*
X111858507Y-84831104D01*
X111819522Y-84907616D01*
X111796718Y-84939002D01*
X111736002Y-84999718D01*
X111704616Y-85022522D01*
X111628104Y-85061507D01*
X111591207Y-85073495D01*
X111511425Y-85086131D01*
X111496640Y-85088473D01*
X111477244Y-85090000D01*
X108613756Y-85090000D01*
X108594359Y-85088473D01*
X108575258Y-85085447D01*
X108499792Y-85073495D01*
X108462895Y-85061507D01*
X108386383Y-85022522D01*
X108354997Y-84999718D01*
X108294281Y-84939002D01*
X108271477Y-84907616D01*
X108232492Y-84831104D01*
X108220504Y-84794206D01*
X108205527Y-84699641D01*
X108204000Y-84680244D01*
X108204000Y-80546756D01*
X108205525Y-80527370D01*
X108220505Y-80432784D01*
X108232493Y-80395894D01*
X108246603Y-80368201D01*
X108292299Y-80318771D01*
X108357087Y-80300500D01*
X111733913Y-80300500D01*
X111798702Y-80318772D01*
G37*
%TD.AperFunction*%
%TD*%
%TA.AperFunction,Conductor*%
%TO.N,-BATT*%
G36*
X125972800Y-80317113D02*
G01*
X126018187Y-80362500D01*
X126034800Y-80424500D01*
X126034800Y-90706400D01*
X126018187Y-90768400D01*
X125972800Y-90813787D01*
X125910800Y-90830400D01*
X116710000Y-90830400D01*
X116648000Y-90813787D01*
X116602613Y-90768400D01*
X116586000Y-90706400D01*
X116586000Y-89938027D01*
X116602551Y-89876135D01*
X116647784Y-89830765D01*
X116709627Y-89814028D01*
X124951789Y-89789201D01*
X125018800Y-89789000D01*
X125018800Y-80424500D01*
X125035413Y-80362500D01*
X125080800Y-80317113D01*
X125142800Y-80300500D01*
X125910800Y-80300500D01*
X125972800Y-80317113D01*
G37*
%TD.AperFunction*%
%TD*%
%TA.AperFunction,Conductor*%
%TO.N,-BATT*%
G36*
X121704702Y-80318772D02*
G01*
X121750397Y-80368204D01*
X121764506Y-80395894D01*
X121776495Y-80432792D01*
X121791473Y-80527358D01*
X121793000Y-80546756D01*
X121793000Y-84680244D01*
X121791473Y-84699642D01*
X121776495Y-84794207D01*
X121764507Y-84831104D01*
X121725522Y-84907616D01*
X121702718Y-84939002D01*
X121642002Y-84999718D01*
X121610616Y-85022522D01*
X121534104Y-85061507D01*
X121497207Y-85073495D01*
X121417425Y-85086131D01*
X121402640Y-85088473D01*
X121383244Y-85090000D01*
X118519756Y-85090000D01*
X118500359Y-85088473D01*
X118481258Y-85085447D01*
X118405792Y-85073495D01*
X118368895Y-85061507D01*
X118292383Y-85022522D01*
X118260997Y-84999718D01*
X118200281Y-84939002D01*
X118177477Y-84907616D01*
X118138492Y-84831104D01*
X118126504Y-84794206D01*
X118111527Y-84699641D01*
X118110000Y-84680244D01*
X118110000Y-80546756D01*
X118111525Y-80527370D01*
X118126505Y-80432784D01*
X118138493Y-80395894D01*
X118152603Y-80368201D01*
X118198299Y-80318771D01*
X118263087Y-80300500D01*
X121639913Y-80300500D01*
X121704702Y-80318772D01*
G37*
%TD.AperFunction*%
%TD*%
M02*
