%TF.GenerationSoftware,KiCad,Pcbnew,7.0.1*%
%TF.CreationDate,2023-10-06T11:12:28+02:00*%
%TF.ProjectId,Controller_board,436f6e74-726f-46c6-9c65-725f626f6172,rev?*%
%TF.SameCoordinates,Original*%
%TF.FileFunction,Legend,Top*%
%TF.FilePolarity,Positive*%
%FSLAX46Y46*%
G04 Gerber Fmt 4.6, Leading zero omitted, Abs format (unit mm)*
G04 Created by KiCad (PCBNEW 7.0.1) date 2023-10-06 11:12:28*
%MOMM*%
%LPD*%
G01*
G04 APERTURE LIST*
%ADD10C,0.150000*%
%ADD11C,0.275000*%
%ADD12C,0.348566*%
%ADD13C,0.200000*%
%ADD14C,0.125000*%
%ADD15C,0.100000*%
%ADD16C,0.120000*%
%ADD17C,0.127000*%
G04 APERTURE END LIST*
D10*
X104190800Y-137871200D02*
X126288800Y-137871200D01*
X126288800Y-141884400D01*
X104190800Y-141884400D01*
X104190800Y-137871200D01*
D11*
X137957900Y-108813600D02*
G75*
G03*
X137957900Y-108813600I-137500J0D01*
G01*
D12*
X110257883Y-115112800D02*
G75*
G03*
X110257883Y-115112800I-174283J0D01*
G01*
D11*
X113377610Y-97009011D02*
G75*
G03*
X113377610Y-97009011I-137500J0D01*
G01*
D10*
X111745666Y-108942333D02*
X111745666Y-109442333D01*
X111745666Y-109442333D02*
X111712333Y-109542333D01*
X111712333Y-109542333D02*
X111645666Y-109609000D01*
X111645666Y-109609000D02*
X111545666Y-109642333D01*
X111545666Y-109642333D02*
X111479000Y-109642333D01*
X112412333Y-109642333D02*
X112078999Y-109642333D01*
X112078999Y-109642333D02*
X112078999Y-108942333D01*
X113045666Y-109575666D02*
X113012333Y-109609000D01*
X113012333Y-109609000D02*
X112912333Y-109642333D01*
X112912333Y-109642333D02*
X112845666Y-109642333D01*
X112845666Y-109642333D02*
X112745666Y-109609000D01*
X112745666Y-109609000D02*
X112679000Y-109542333D01*
X112679000Y-109542333D02*
X112645666Y-109475666D01*
X112645666Y-109475666D02*
X112612333Y-109342333D01*
X112612333Y-109342333D02*
X112612333Y-109242333D01*
X112612333Y-109242333D02*
X112645666Y-109109000D01*
X112645666Y-109109000D02*
X112679000Y-109042333D01*
X112679000Y-109042333D02*
X112745666Y-108975666D01*
X112745666Y-108975666D02*
X112845666Y-108942333D01*
X112845666Y-108942333D02*
X112912333Y-108942333D01*
X112912333Y-108942333D02*
X113012333Y-108975666D01*
X113012333Y-108975666D02*
X113045666Y-109009000D01*
X113545666Y-108942333D02*
X113545666Y-109442333D01*
X113545666Y-109442333D02*
X113512333Y-109542333D01*
X113512333Y-109542333D02*
X113445666Y-109609000D01*
X113445666Y-109609000D02*
X113345666Y-109642333D01*
X113345666Y-109642333D02*
X113279000Y-109642333D01*
X114212333Y-109642333D02*
X113878999Y-109642333D01*
X113878999Y-109642333D02*
X113878999Y-108942333D01*
X114845666Y-109575666D02*
X114812333Y-109609000D01*
X114812333Y-109609000D02*
X114712333Y-109642333D01*
X114712333Y-109642333D02*
X114645666Y-109642333D01*
X114645666Y-109642333D02*
X114545666Y-109609000D01*
X114545666Y-109609000D02*
X114479000Y-109542333D01*
X114479000Y-109542333D02*
X114445666Y-109475666D01*
X114445666Y-109475666D02*
X114412333Y-109342333D01*
X114412333Y-109342333D02*
X114412333Y-109242333D01*
X114412333Y-109242333D02*
X114445666Y-109109000D01*
X114445666Y-109109000D02*
X114479000Y-109042333D01*
X114479000Y-109042333D02*
X114545666Y-108975666D01*
X114545666Y-108975666D02*
X114645666Y-108942333D01*
X114645666Y-108942333D02*
X114712333Y-108942333D01*
X114712333Y-108942333D02*
X114812333Y-108975666D01*
X114812333Y-108975666D02*
X114845666Y-109009000D01*
X115345666Y-108942333D02*
X115345666Y-109442333D01*
X115345666Y-109442333D02*
X115312333Y-109542333D01*
X115312333Y-109542333D02*
X115245666Y-109609000D01*
X115245666Y-109609000D02*
X115145666Y-109642333D01*
X115145666Y-109642333D02*
X115079000Y-109642333D01*
X116012333Y-109642333D02*
X115678999Y-109642333D01*
X115678999Y-109642333D02*
X115678999Y-108942333D01*
X116645666Y-109575666D02*
X116612333Y-109609000D01*
X116612333Y-109609000D02*
X116512333Y-109642333D01*
X116512333Y-109642333D02*
X116445666Y-109642333D01*
X116445666Y-109642333D02*
X116345666Y-109609000D01*
X116345666Y-109609000D02*
X116279000Y-109542333D01*
X116279000Y-109542333D02*
X116245666Y-109475666D01*
X116245666Y-109475666D02*
X116212333Y-109342333D01*
X116212333Y-109342333D02*
X116212333Y-109242333D01*
X116212333Y-109242333D02*
X116245666Y-109109000D01*
X116245666Y-109109000D02*
X116279000Y-109042333D01*
X116279000Y-109042333D02*
X116345666Y-108975666D01*
X116345666Y-108975666D02*
X116445666Y-108942333D01*
X116445666Y-108942333D02*
X116512333Y-108942333D01*
X116512333Y-108942333D02*
X116612333Y-108975666D01*
X116612333Y-108975666D02*
X116645666Y-109009000D01*
X117145666Y-108942333D02*
X117145666Y-109442333D01*
X117145666Y-109442333D02*
X117112333Y-109542333D01*
X117112333Y-109542333D02*
X117045666Y-109609000D01*
X117045666Y-109609000D02*
X116945666Y-109642333D01*
X116945666Y-109642333D02*
X116879000Y-109642333D01*
X117812333Y-109642333D02*
X117478999Y-109642333D01*
X117478999Y-109642333D02*
X117478999Y-108942333D01*
X118445666Y-109575666D02*
X118412333Y-109609000D01*
X118412333Y-109609000D02*
X118312333Y-109642333D01*
X118312333Y-109642333D02*
X118245666Y-109642333D01*
X118245666Y-109642333D02*
X118145666Y-109609000D01*
X118145666Y-109609000D02*
X118079000Y-109542333D01*
X118079000Y-109542333D02*
X118045666Y-109475666D01*
X118045666Y-109475666D02*
X118012333Y-109342333D01*
X118012333Y-109342333D02*
X118012333Y-109242333D01*
X118012333Y-109242333D02*
X118045666Y-109109000D01*
X118045666Y-109109000D02*
X118079000Y-109042333D01*
X118079000Y-109042333D02*
X118145666Y-108975666D01*
X118145666Y-108975666D02*
X118245666Y-108942333D01*
X118245666Y-108942333D02*
X118312333Y-108942333D01*
X118312333Y-108942333D02*
X118412333Y-108975666D01*
X118412333Y-108975666D02*
X118445666Y-109009000D01*
G36*
X105764847Y-104053517D02*
G01*
X105774935Y-104054845D01*
X105784042Y-104058828D01*
X105791470Y-104064753D01*
X105797866Y-104072967D01*
X105801608Y-104082163D01*
X105802705Y-104091375D01*
X105802705Y-104143155D01*
X105801377Y-104153243D01*
X105797394Y-104162350D01*
X105791470Y-104169777D01*
X105783255Y-104176174D01*
X105774059Y-104179915D01*
X105764847Y-104181012D01*
X105486655Y-104181012D01*
X105486655Y-104455297D01*
X105485298Y-104465385D01*
X105481229Y-104474492D01*
X105475175Y-104481919D01*
X105466792Y-104488316D01*
X105457428Y-104492057D01*
X105448064Y-104493155D01*
X105403612Y-104493155D01*
X105393356Y-104491827D01*
X105384081Y-104487844D01*
X105376501Y-104481919D01*
X105369965Y-104473705D01*
X105366143Y-104464508D01*
X105365022Y-104455297D01*
X105365022Y-104181012D01*
X105090248Y-104181012D01*
X105080160Y-104179685D01*
X105071053Y-104175702D01*
X105063626Y-104169777D01*
X105057229Y-104161562D01*
X105053488Y-104152366D01*
X105052391Y-104143155D01*
X105052391Y-104091375D01*
X105053718Y-104081287D01*
X105057701Y-104072180D01*
X105063626Y-104064753D01*
X105071841Y-104058356D01*
X105081037Y-104054615D01*
X105090248Y-104053517D01*
X105365022Y-104053517D01*
X105365022Y-103777767D01*
X105366378Y-103767679D01*
X105370448Y-103758572D01*
X105376501Y-103751145D01*
X105384884Y-103744748D01*
X105394248Y-103741007D01*
X105403612Y-103739910D01*
X105448064Y-103739910D01*
X105458320Y-103741237D01*
X105467595Y-103745220D01*
X105475175Y-103751145D01*
X105481711Y-103759360D01*
X105485534Y-103768556D01*
X105486655Y-103777767D01*
X105486655Y-104053517D01*
X105764847Y-104053517D01*
G37*
G36*
X105743598Y-103267544D02*
G01*
X105743415Y-103255949D01*
X105742865Y-103244612D01*
X105741949Y-103233532D01*
X105740667Y-103222710D01*
X105739019Y-103212146D01*
X105737004Y-103201839D01*
X105734622Y-103191790D01*
X105731874Y-103181998D01*
X105728760Y-103172464D01*
X105725280Y-103163187D01*
X105721433Y-103154169D01*
X105714976Y-103141123D01*
X105707694Y-103128658D01*
X105699589Y-103116771D01*
X105696703Y-103112938D01*
X105687535Y-103102070D01*
X105677615Y-103092270D01*
X105666944Y-103083540D01*
X105655522Y-103075878D01*
X105643348Y-103069286D01*
X105630423Y-103063762D01*
X105616747Y-103059308D01*
X105607212Y-103056932D01*
X105597343Y-103055032D01*
X105587140Y-103053607D01*
X105576603Y-103052656D01*
X105565732Y-103052181D01*
X105560172Y-103052122D01*
X105549370Y-103052349D01*
X105538945Y-103053030D01*
X105528899Y-103054165D01*
X105519231Y-103055755D01*
X105505436Y-103058991D01*
X105492492Y-103063248D01*
X105480397Y-103068528D01*
X105469153Y-103074829D01*
X105458759Y-103082152D01*
X105449215Y-103090497D01*
X105440521Y-103099863D01*
X105432677Y-103110252D01*
X105425562Y-103121470D01*
X105419147Y-103133418D01*
X105413432Y-103146097D01*
X105408417Y-103159505D01*
X105405462Y-103168849D01*
X105402818Y-103178517D01*
X105400486Y-103188510D01*
X105398464Y-103198828D01*
X105396753Y-103209469D01*
X105395354Y-103220436D01*
X105394265Y-103231726D01*
X105393487Y-103243341D01*
X105393021Y-103255280D01*
X105392865Y-103267544D01*
X105392865Y-103383804D01*
X105391567Y-103393892D01*
X105387670Y-103402999D01*
X105381874Y-103410426D01*
X105373828Y-103416823D01*
X105364799Y-103420564D01*
X105355740Y-103421661D01*
X105306159Y-103421661D01*
X105295880Y-103420427D01*
X105286567Y-103416724D01*
X105285399Y-103416044D01*
X105277293Y-103410552D01*
X105269553Y-103404457D01*
X105263417Y-103399191D01*
X104986445Y-103147132D01*
X104986445Y-103550377D01*
X104985175Y-103560465D01*
X104981366Y-103569572D01*
X104975699Y-103577000D01*
X104967709Y-103583396D01*
X104958006Y-103587346D01*
X104950053Y-103588235D01*
X104901205Y-103588235D01*
X104890763Y-103586655D01*
X104881421Y-103581915D01*
X104875803Y-103577000D01*
X104869546Y-103568785D01*
X104865886Y-103559589D01*
X104864812Y-103550377D01*
X104864812Y-102998877D01*
X104866140Y-102988789D01*
X104870123Y-102979682D01*
X104876048Y-102972254D01*
X104884291Y-102965858D01*
X104893574Y-102962116D01*
X104902914Y-102961019D01*
X104953717Y-102961019D01*
X104964128Y-102962591D01*
X104974089Y-102966547D01*
X104983259Y-102971853D01*
X104991347Y-102977627D01*
X104999841Y-102984628D01*
X105001588Y-102986176D01*
X105271232Y-103234083D01*
X105271537Y-103216619D01*
X105272450Y-103199583D01*
X105273972Y-103182975D01*
X105276102Y-103166794D01*
X105278841Y-103151040D01*
X105282189Y-103135714D01*
X105286146Y-103120815D01*
X105290711Y-103106344D01*
X105295885Y-103092300D01*
X105301667Y-103078683D01*
X105308059Y-103065494D01*
X105315059Y-103052732D01*
X105322668Y-103040398D01*
X105330885Y-103028491D01*
X105339711Y-103017012D01*
X105349146Y-103005960D01*
X105359064Y-102995431D01*
X105369403Y-102985581D01*
X105380161Y-102976410D01*
X105391339Y-102967919D01*
X105402937Y-102960107D01*
X105414954Y-102952974D01*
X105427391Y-102946521D01*
X105440248Y-102940747D01*
X105453525Y-102935652D01*
X105467222Y-102931237D01*
X105481339Y-102927501D01*
X105495875Y-102924444D01*
X105510831Y-102922066D01*
X105526207Y-102920368D01*
X105542002Y-102919349D01*
X105558218Y-102919009D01*
X105569819Y-102919193D01*
X105581238Y-102919742D01*
X105592473Y-102920658D01*
X105603525Y-102921940D01*
X105614394Y-102923589D01*
X105625079Y-102925604D01*
X105635582Y-102927985D01*
X105645901Y-102930733D01*
X105656037Y-102933847D01*
X105665990Y-102937328D01*
X105675760Y-102941174D01*
X105685346Y-102945388D01*
X105694750Y-102949967D01*
X105703970Y-102954913D01*
X105713007Y-102960225D01*
X105721860Y-102965904D01*
X105730463Y-102971892D01*
X105738809Y-102978131D01*
X105746896Y-102984623D01*
X105754726Y-102991366D01*
X105762299Y-102998362D01*
X105769614Y-103005609D01*
X105776671Y-103013108D01*
X105783471Y-103020859D01*
X105790013Y-103028861D01*
X105796297Y-103037116D01*
X105802324Y-103045623D01*
X105808093Y-103054381D01*
X105813605Y-103063391D01*
X105818859Y-103072653D01*
X105823856Y-103082167D01*
X105828595Y-103091933D01*
X105833031Y-103101893D01*
X105837181Y-103111988D01*
X105841045Y-103122219D01*
X105844623Y-103132585D01*
X105847915Y-103143086D01*
X105850920Y-103153723D01*
X105853639Y-103164495D01*
X105856072Y-103175403D01*
X105858219Y-103186447D01*
X105860079Y-103197626D01*
X105861653Y-103208940D01*
X105862941Y-103220390D01*
X105863943Y-103231975D01*
X105864659Y-103243696D01*
X105865088Y-103255552D01*
X105865231Y-103267544D01*
X105865092Y-103282295D01*
X105864674Y-103296750D01*
X105863977Y-103310909D01*
X105863002Y-103324773D01*
X105861749Y-103338341D01*
X105860216Y-103351613D01*
X105858406Y-103364589D01*
X105856316Y-103377270D01*
X105853948Y-103389655D01*
X105851302Y-103401744D01*
X105848376Y-103413537D01*
X105845173Y-103425035D01*
X105841690Y-103436237D01*
X105837929Y-103447143D01*
X105833890Y-103457753D01*
X105829572Y-103468067D01*
X105825003Y-103478040D01*
X105820271Y-103487687D01*
X105815378Y-103497007D01*
X105810322Y-103506001D01*
X105805104Y-103514669D01*
X105799724Y-103523011D01*
X105791350Y-103534911D01*
X105782611Y-103546077D01*
X105773507Y-103556509D01*
X105764038Y-103566207D01*
X105754204Y-103575171D01*
X105744005Y-103583401D01*
X105737004Y-103588479D01*
X105726267Y-103595486D01*
X105715397Y-103601854D01*
X105704394Y-103607582D01*
X105693257Y-103612671D01*
X105681988Y-103617119D01*
X105670586Y-103620928D01*
X105659050Y-103624097D01*
X105647382Y-103626627D01*
X105635580Y-103628517D01*
X105623645Y-103629767D01*
X105615615Y-103630245D01*
X105605370Y-103628515D01*
X105596434Y-103623326D01*
X105594121Y-103621208D01*
X105588112Y-103613143D01*
X105585067Y-103603285D01*
X105584840Y-103599470D01*
X105584840Y-103534990D01*
X105586180Y-103525235D01*
X105590654Y-103516218D01*
X105594366Y-103512031D01*
X105602270Y-103505337D01*
X105610899Y-103500335D01*
X105615126Y-103498598D01*
X105625994Y-103494943D01*
X105636433Y-103490755D01*
X105646442Y-103486035D01*
X105656022Y-103480783D01*
X105665172Y-103474999D01*
X105673893Y-103468682D01*
X105682185Y-103461832D01*
X105690048Y-103454451D01*
X105697481Y-103446537D01*
X105704485Y-103438090D01*
X105708916Y-103432164D01*
X105715114Y-103422499D01*
X105720702Y-103411642D01*
X105725681Y-103399590D01*
X105730050Y-103386345D01*
X105732624Y-103376852D01*
X105734927Y-103366829D01*
X105736960Y-103356275D01*
X105738721Y-103345190D01*
X105740211Y-103333575D01*
X105741430Y-103321430D01*
X105742379Y-103308754D01*
X105743056Y-103295548D01*
X105743463Y-103281811D01*
X105743598Y-103267544D01*
G37*
G36*
X105677653Y-102635443D02*
G01*
X105679009Y-102625355D01*
X105683078Y-102616248D01*
X105689132Y-102608821D01*
X105697376Y-102602424D01*
X105706658Y-102598683D01*
X105715999Y-102597586D01*
X105811253Y-102597586D01*
X105821509Y-102598913D01*
X105830784Y-102602896D01*
X105838364Y-102608821D01*
X105844761Y-102617036D01*
X105848502Y-102626232D01*
X105849600Y-102635443D01*
X105849600Y-102729233D01*
X105848272Y-102739321D01*
X105844289Y-102748428D01*
X105838364Y-102755855D01*
X105829982Y-102762252D01*
X105820618Y-102765993D01*
X105811253Y-102767090D01*
X105715999Y-102767090D01*
X105705771Y-102765763D01*
X105696583Y-102761780D01*
X105689132Y-102755855D01*
X105682596Y-102747640D01*
X105678774Y-102738444D01*
X105677653Y-102729233D01*
X105677653Y-102635443D01*
G37*
G36*
X105743598Y-102089316D02*
G01*
X105743415Y-102077722D01*
X105742865Y-102066384D01*
X105741949Y-102055305D01*
X105740667Y-102044483D01*
X105739019Y-102033918D01*
X105737004Y-102023611D01*
X105734622Y-102013562D01*
X105731874Y-102003770D01*
X105728760Y-101994236D01*
X105725280Y-101984960D01*
X105721433Y-101975941D01*
X105714976Y-101962896D01*
X105707694Y-101950430D01*
X105699589Y-101938544D01*
X105696703Y-101934711D01*
X105687535Y-101923842D01*
X105677615Y-101914043D01*
X105666944Y-101905312D01*
X105655522Y-101897651D01*
X105643348Y-101891058D01*
X105630423Y-101885535D01*
X105616747Y-101881081D01*
X105607212Y-101878705D01*
X105597343Y-101876804D01*
X105587140Y-101875379D01*
X105576603Y-101874429D01*
X105565732Y-101873954D01*
X105560172Y-101873894D01*
X105549370Y-101874121D01*
X105538945Y-101874803D01*
X105528899Y-101875938D01*
X105519231Y-101877527D01*
X105505436Y-101880763D01*
X105492492Y-101885021D01*
X105480397Y-101890300D01*
X105469153Y-101896601D01*
X105458759Y-101903924D01*
X105449215Y-101912269D01*
X105440521Y-101921636D01*
X105432677Y-101932024D01*
X105425562Y-101943243D01*
X105419147Y-101955191D01*
X105413432Y-101967869D01*
X105408417Y-101981277D01*
X105405462Y-101990621D01*
X105402818Y-102000290D01*
X105400486Y-102010283D01*
X105398464Y-102020600D01*
X105396753Y-102031242D01*
X105395354Y-102042208D01*
X105394265Y-102053499D01*
X105393487Y-102065114D01*
X105393021Y-102077053D01*
X105392865Y-102089316D01*
X105392865Y-102205576D01*
X105391567Y-102215664D01*
X105387670Y-102224771D01*
X105381874Y-102232199D01*
X105373828Y-102238595D01*
X105364799Y-102242337D01*
X105355740Y-102243434D01*
X105306159Y-102243434D01*
X105295880Y-102242199D01*
X105286567Y-102238496D01*
X105285399Y-102237816D01*
X105277293Y-102232325D01*
X105269553Y-102226230D01*
X105263417Y-102220963D01*
X104986445Y-101968905D01*
X104986445Y-102372150D01*
X104985175Y-102382238D01*
X104981366Y-102391345D01*
X104975699Y-102398772D01*
X104967709Y-102405169D01*
X104958006Y-102409119D01*
X104950053Y-102410007D01*
X104901205Y-102410007D01*
X104890763Y-102408427D01*
X104881421Y-102403688D01*
X104875803Y-102398772D01*
X104869546Y-102390557D01*
X104865886Y-102381361D01*
X104864812Y-102372150D01*
X104864812Y-101820649D01*
X104866140Y-101810561D01*
X104870123Y-101801454D01*
X104876048Y-101794027D01*
X104884291Y-101787630D01*
X104893574Y-101783889D01*
X104902914Y-101782792D01*
X104953717Y-101782792D01*
X104964128Y-101784364D01*
X104974089Y-101788319D01*
X104983259Y-101793626D01*
X104991347Y-101799399D01*
X104999841Y-101806401D01*
X105001588Y-101807949D01*
X105271232Y-102055855D01*
X105271537Y-102038392D01*
X105272450Y-102021356D01*
X105273972Y-102004747D01*
X105276102Y-101988566D01*
X105278841Y-101972813D01*
X105282189Y-101957486D01*
X105286146Y-101942588D01*
X105290711Y-101928116D01*
X105295885Y-101914072D01*
X105301667Y-101900456D01*
X105308059Y-101887267D01*
X105315059Y-101874505D01*
X105322668Y-101862171D01*
X105330885Y-101850264D01*
X105339711Y-101838784D01*
X105349146Y-101827732D01*
X105359064Y-101817203D01*
X105369403Y-101807353D01*
X105380161Y-101798183D01*
X105391339Y-101789692D01*
X105402937Y-101781880D01*
X105414954Y-101774747D01*
X105427391Y-101768294D01*
X105440248Y-101762520D01*
X105453525Y-101757425D01*
X105467222Y-101753009D01*
X105481339Y-101749273D01*
X105495875Y-101746216D01*
X105510831Y-101743839D01*
X105526207Y-101742141D01*
X105542002Y-101741122D01*
X105558218Y-101740782D01*
X105569819Y-101740965D01*
X105581238Y-101741515D01*
X105592473Y-101742431D01*
X105603525Y-101743713D01*
X105614394Y-101745361D01*
X105625079Y-101747376D01*
X105635582Y-101749758D01*
X105645901Y-101752506D01*
X105656037Y-101755620D01*
X105665990Y-101759100D01*
X105675760Y-101762947D01*
X105685346Y-101767160D01*
X105694750Y-101771740D01*
X105703970Y-101776686D01*
X105713007Y-101781998D01*
X105721860Y-101787677D01*
X105730463Y-101793664D01*
X105738809Y-101799904D01*
X105746896Y-101806395D01*
X105754726Y-101813139D01*
X105762299Y-101820134D01*
X105769614Y-101827381D01*
X105776671Y-101834880D01*
X105783471Y-101842631D01*
X105790013Y-101850634D01*
X105796297Y-101858889D01*
X105802324Y-101867395D01*
X105808093Y-101876154D01*
X105813605Y-101885164D01*
X105818859Y-101894426D01*
X105823856Y-101903940D01*
X105828595Y-101913706D01*
X105833031Y-101923665D01*
X105837181Y-101933760D01*
X105841045Y-101943991D01*
X105844623Y-101954357D01*
X105847915Y-101964859D01*
X105850920Y-101975495D01*
X105853639Y-101986268D01*
X105856072Y-101997176D01*
X105858219Y-102008219D01*
X105860079Y-102019398D01*
X105861653Y-102030712D01*
X105862941Y-102042162D01*
X105863943Y-102053748D01*
X105864659Y-102065468D01*
X105865088Y-102077325D01*
X105865231Y-102089316D01*
X105865092Y-102104067D01*
X105864674Y-102118523D01*
X105863977Y-102132682D01*
X105863002Y-102146546D01*
X105861749Y-102160113D01*
X105860216Y-102173386D01*
X105858406Y-102186362D01*
X105856316Y-102199043D01*
X105853948Y-102211427D01*
X105851302Y-102223516D01*
X105848376Y-102235310D01*
X105845173Y-102246807D01*
X105841690Y-102258009D01*
X105837929Y-102268915D01*
X105833890Y-102279525D01*
X105829572Y-102289840D01*
X105825003Y-102299813D01*
X105820271Y-102309459D01*
X105815378Y-102318780D01*
X105810322Y-102327774D01*
X105805104Y-102336442D01*
X105799724Y-102344783D01*
X105791350Y-102356683D01*
X105782611Y-102367850D01*
X105773507Y-102378282D01*
X105764038Y-102387980D01*
X105754204Y-102396943D01*
X105744005Y-102405173D01*
X105737004Y-102410252D01*
X105726267Y-102417259D01*
X105715397Y-102423627D01*
X105704394Y-102429355D01*
X105693257Y-102434443D01*
X105681988Y-102438892D01*
X105670586Y-102442701D01*
X105659050Y-102445870D01*
X105647382Y-102448399D01*
X105635580Y-102450289D01*
X105623645Y-102451539D01*
X105615615Y-102452017D01*
X105605370Y-102450287D01*
X105596434Y-102445098D01*
X105594121Y-102442980D01*
X105588112Y-102434915D01*
X105585067Y-102425058D01*
X105584840Y-102421242D01*
X105584840Y-102356762D01*
X105586180Y-102347008D01*
X105590654Y-102337991D01*
X105594366Y-102333804D01*
X105602270Y-102327109D01*
X105610899Y-102322108D01*
X105615126Y-102320370D01*
X105625994Y-102316715D01*
X105636433Y-102312528D01*
X105646442Y-102307808D01*
X105656022Y-102302556D01*
X105665172Y-102296771D01*
X105673893Y-102290454D01*
X105682185Y-102283605D01*
X105690048Y-102276223D01*
X105697481Y-102268309D01*
X105704485Y-102259863D01*
X105708916Y-102253936D01*
X105715114Y-102244272D01*
X105720702Y-102233414D01*
X105725681Y-102221363D01*
X105730050Y-102208118D01*
X105732624Y-102198625D01*
X105734927Y-102188601D01*
X105736960Y-102178047D01*
X105738721Y-102166963D01*
X105740211Y-102155348D01*
X105741430Y-102143203D01*
X105742379Y-102130527D01*
X105743056Y-102117320D01*
X105743463Y-102103584D01*
X105743598Y-102089316D01*
G37*
G36*
X104899983Y-100954564D02*
G01*
X104889851Y-100949950D01*
X104881436Y-100943893D01*
X104874739Y-100936393D01*
X104869758Y-100927449D01*
X104866495Y-100917063D01*
X104864950Y-100905234D01*
X104864812Y-100900098D01*
X104864812Y-100848319D01*
X104866788Y-100838604D01*
X104872713Y-100830099D01*
X104876780Y-100826581D01*
X104885389Y-100821436D01*
X104895094Y-100818426D01*
X104904868Y-100817544D01*
X104914924Y-100818932D01*
X104918790Y-100820231D01*
X105793912Y-101122603D01*
X105803392Y-101126170D01*
X105813410Y-101131242D01*
X105822305Y-101137296D01*
X105830079Y-101144332D01*
X105834945Y-101149958D01*
X105840655Y-101158631D01*
X105844963Y-101168191D01*
X105847868Y-101178639D01*
X105849371Y-101189976D01*
X105849600Y-101196853D01*
X105849600Y-101252785D01*
X105849110Y-101262721D01*
X105846935Y-101274967D01*
X105843019Y-101286069D01*
X105837364Y-101296026D01*
X105829968Y-101304838D01*
X105820831Y-101312504D01*
X105809955Y-101319027D01*
X105800656Y-101323167D01*
X105793912Y-101325569D01*
X104918790Y-101629407D01*
X104909271Y-101632052D01*
X104904868Y-101632338D01*
X104895094Y-101631456D01*
X104885389Y-101628446D01*
X104876780Y-101623301D01*
X104869487Y-101615859D01*
X104865385Y-101606712D01*
X104864812Y-101601319D01*
X104864812Y-101549540D01*
X104865362Y-101539499D01*
X104867594Y-101528247D01*
X104871544Y-101518438D01*
X104877211Y-101510072D01*
X104884596Y-101503149D01*
X104893698Y-101497669D01*
X104899983Y-101495074D01*
X105710381Y-101224941D01*
X104899983Y-100954564D01*
G37*
D13*
G36*
X123324490Y-139707800D02*
G01*
X123344278Y-139708866D01*
X123369474Y-139712277D01*
X123393310Y-139717964D01*
X123415788Y-139725925D01*
X123436907Y-139736160D01*
X123456668Y-139748670D01*
X123475070Y-139763454D01*
X123492114Y-139780513D01*
X123496182Y-139785063D01*
X123511386Y-139803904D01*
X123524881Y-139823768D01*
X123536665Y-139844655D01*
X123546740Y-139866564D01*
X123555106Y-139889496D01*
X123561761Y-139913451D01*
X123566707Y-139938429D01*
X123569295Y-139957833D01*
X123065666Y-139957833D01*
X123069322Y-139932088D01*
X123074672Y-139907366D01*
X123081717Y-139883667D01*
X123090457Y-139860991D01*
X123100890Y-139839337D01*
X123113019Y-139818706D01*
X123126841Y-139799098D01*
X123142358Y-139780513D01*
X123146522Y-139776035D01*
X123164028Y-139759545D01*
X123182892Y-139745329D01*
X123203114Y-139733388D01*
X123224695Y-139723721D01*
X123247635Y-139716329D01*
X123271933Y-139711211D01*
X123297590Y-139708368D01*
X123317725Y-139707728D01*
X123324490Y-139707800D01*
G37*
G36*
X119955129Y-139770803D02*
G01*
X119975551Y-139771705D01*
X120001578Y-139774590D01*
X120026232Y-139779398D01*
X120049511Y-139786130D01*
X120071417Y-139794786D01*
X120091948Y-139805365D01*
X120111106Y-139817867D01*
X120128890Y-139832292D01*
X120133136Y-139836155D01*
X120148935Y-139852531D01*
X120162842Y-139870387D01*
X120174855Y-139889724D01*
X120184976Y-139910542D01*
X120193204Y-139932841D01*
X120199539Y-139956620D01*
X120203981Y-139981880D01*
X120206071Y-140001797D01*
X120207330Y-140015703D01*
X120208904Y-140035590D01*
X120210263Y-140057315D01*
X120211108Y-140077451D01*
X120211444Y-140098517D01*
X120211255Y-140114122D01*
X120210557Y-140133803D01*
X120209345Y-140155075D01*
X120207897Y-140174572D01*
X120206071Y-140195237D01*
X120205493Y-140201969D01*
X120203048Y-140221615D01*
X120198133Y-140246528D01*
X120191325Y-140269975D01*
X120182623Y-140291957D01*
X120172029Y-140312474D01*
X120159542Y-140331525D01*
X120145163Y-140349110D01*
X120128890Y-140365230D01*
X120120170Y-140372624D01*
X120101699Y-140385981D01*
X120081854Y-140397430D01*
X120060636Y-140406971D01*
X120038043Y-140414604D01*
X120014077Y-140420328D01*
X119988737Y-140424144D01*
X119968830Y-140425754D01*
X119948150Y-140426291D01*
X119941201Y-140426231D01*
X119920856Y-140425337D01*
X119894905Y-140422475D01*
X119870298Y-140417704D01*
X119847034Y-140411026D01*
X119825113Y-140402439D01*
X119804535Y-140391944D01*
X119785301Y-140379541D01*
X119767411Y-140365230D01*
X119763195Y-140361338D01*
X119747506Y-140344851D01*
X119733695Y-140326899D01*
X119721761Y-140307482D01*
X119711706Y-140286599D01*
X119703527Y-140264251D01*
X119697226Y-140240437D01*
X119692803Y-140215158D01*
X119690718Y-140195237D01*
X119689722Y-140183204D01*
X119688715Y-140162780D01*
X119688134Y-140140801D01*
X119687859Y-140118910D01*
X119687787Y-140098517D01*
X119687813Y-140086046D01*
X119688019Y-140063217D01*
X119688431Y-140043205D01*
X119689173Y-140023416D01*
X119690718Y-140001797D01*
X119691296Y-139995065D01*
X119693733Y-139975426D01*
X119698626Y-139950536D01*
X119705396Y-139927127D01*
X119714043Y-139905199D01*
X119724569Y-139884751D01*
X119736972Y-139865784D01*
X119751252Y-139848298D01*
X119767411Y-139832292D01*
X119776188Y-139824839D01*
X119794750Y-139811375D01*
X119814656Y-139799835D01*
X119835905Y-139790218D01*
X119858498Y-139782524D01*
X119882434Y-139776754D01*
X119907713Y-139772907D01*
X119927554Y-139771284D01*
X119948150Y-139770743D01*
X119955129Y-139770803D01*
G37*
G36*
X113843196Y-139770803D02*
G01*
X113863618Y-139771705D01*
X113889645Y-139774590D01*
X113914299Y-139779398D01*
X113937578Y-139786130D01*
X113959484Y-139794786D01*
X113980015Y-139805365D01*
X113999173Y-139817867D01*
X114016957Y-139832292D01*
X114021203Y-139836155D01*
X114037002Y-139852531D01*
X114050909Y-139870387D01*
X114062922Y-139889724D01*
X114073043Y-139910542D01*
X114081271Y-139932841D01*
X114087606Y-139956620D01*
X114092048Y-139981880D01*
X114094138Y-140001797D01*
X114095397Y-140015703D01*
X114096971Y-140035590D01*
X114098330Y-140057315D01*
X114099175Y-140077451D01*
X114099511Y-140098517D01*
X114099322Y-140114122D01*
X114098624Y-140133803D01*
X114097412Y-140155075D01*
X114095964Y-140174572D01*
X114094138Y-140195237D01*
X114093560Y-140201969D01*
X114091115Y-140221615D01*
X114086200Y-140246528D01*
X114079392Y-140269975D01*
X114070690Y-140291957D01*
X114060096Y-140312474D01*
X114047609Y-140331525D01*
X114033230Y-140349110D01*
X114016957Y-140365230D01*
X114008237Y-140372624D01*
X113989766Y-140385981D01*
X113969921Y-140397430D01*
X113948703Y-140406971D01*
X113926110Y-140414604D01*
X113902144Y-140420328D01*
X113876804Y-140424144D01*
X113856897Y-140425754D01*
X113836217Y-140426291D01*
X113829268Y-140426231D01*
X113808923Y-140425337D01*
X113782972Y-140422475D01*
X113758365Y-140417704D01*
X113735101Y-140411026D01*
X113713180Y-140402439D01*
X113692602Y-140391944D01*
X113673368Y-140379541D01*
X113655478Y-140365230D01*
X113651262Y-140361338D01*
X113635573Y-140344851D01*
X113621762Y-140326899D01*
X113609828Y-140307482D01*
X113599772Y-140286599D01*
X113591594Y-140264251D01*
X113585293Y-140240437D01*
X113580870Y-140215158D01*
X113578785Y-140195237D01*
X113577789Y-140183204D01*
X113576782Y-140162780D01*
X113576201Y-140140801D01*
X113575926Y-140118910D01*
X113575854Y-140098517D01*
X113575880Y-140086046D01*
X113576086Y-140063217D01*
X113576498Y-140043205D01*
X113577240Y-140023416D01*
X113578785Y-140001797D01*
X113579363Y-139995065D01*
X113581800Y-139975426D01*
X113586693Y-139950536D01*
X113593463Y-139927127D01*
X113602110Y-139905199D01*
X113612636Y-139884751D01*
X113625039Y-139865784D01*
X113639319Y-139848298D01*
X113655478Y-139832292D01*
X113664255Y-139824839D01*
X113682817Y-139811375D01*
X113702723Y-139799835D01*
X113723972Y-139790218D01*
X113746565Y-139782524D01*
X113770501Y-139776754D01*
X113795780Y-139772907D01*
X113815621Y-139771284D01*
X113836217Y-139770743D01*
X113843196Y-139770803D01*
G37*
G36*
X107850962Y-139302589D02*
G01*
X107881729Y-139304964D01*
X107910374Y-139308924D01*
X107936898Y-139314467D01*
X107961299Y-139321594D01*
X107983579Y-139330305D01*
X108003736Y-139340599D01*
X108021772Y-139352477D01*
X108037686Y-139365939D01*
X108051478Y-139380985D01*
X108063148Y-139397614D01*
X108072697Y-139415828D01*
X108080123Y-139435625D01*
X108085428Y-139457006D01*
X108088611Y-139479970D01*
X108089672Y-139504518D01*
X108088611Y-139529126D01*
X108085428Y-139552146D01*
X108080123Y-139573578D01*
X108072697Y-139593423D01*
X108063148Y-139611680D01*
X108051478Y-139628350D01*
X108037686Y-139643432D01*
X108021772Y-139656926D01*
X108003736Y-139668833D01*
X107983579Y-139679152D01*
X107961299Y-139687884D01*
X107936898Y-139695028D01*
X107910374Y-139700584D01*
X107881729Y-139704553D01*
X107850962Y-139706935D01*
X107818073Y-139707728D01*
X107502023Y-139707728D01*
X107502023Y-139301797D01*
X107818073Y-139301797D01*
X107850962Y-139302589D01*
G37*
G36*
X126004416Y-141450177D02*
G01*
X104576463Y-141450177D01*
X104576463Y-140756996D01*
X105162177Y-140756996D01*
X105164371Y-140775467D01*
X105171854Y-140794021D01*
X105184647Y-140810729D01*
X105199502Y-140822579D01*
X105217716Y-140830544D01*
X105237892Y-140833200D01*
X105590579Y-140833200D01*
X105609212Y-140831005D01*
X105627614Y-140823522D01*
X105643824Y-140810729D01*
X105655673Y-140795569D01*
X105663639Y-140777019D01*
X105666294Y-140756507D01*
X105666294Y-140039899D01*
X105666353Y-140031986D01*
X105667233Y-140008910D01*
X105669169Y-139986831D01*
X105672162Y-139965748D01*
X105676210Y-139945661D01*
X105681315Y-139926570D01*
X105689764Y-139902665D01*
X105700091Y-139880530D01*
X105712296Y-139860167D01*
X105726378Y-139841574D01*
X105738259Y-139828915D01*
X105755730Y-139813975D01*
X105775063Y-139801247D01*
X105796259Y-139790733D01*
X105819317Y-139782433D01*
X105844237Y-139776346D01*
X105864150Y-139773233D01*
X105885110Y-139771366D01*
X105907117Y-139770743D01*
X105929645Y-139771379D01*
X105951064Y-139773285D01*
X105971376Y-139776462D01*
X105990580Y-139780910D01*
X106014462Y-139788817D01*
X106036375Y-139798984D01*
X106056319Y-139811410D01*
X106074294Y-139826095D01*
X106090300Y-139843039D01*
X106094026Y-139847609D01*
X106107750Y-139866908D01*
X106119580Y-139887840D01*
X106129518Y-139910406D01*
X106137562Y-139934605D01*
X106142354Y-139953826D01*
X106146080Y-139973966D01*
X106148742Y-139995025D01*
X106150339Y-140017002D01*
X106150872Y-140039899D01*
X106150872Y-140756507D01*
X106153066Y-140775236D01*
X106160549Y-140793964D01*
X106173342Y-140810729D01*
X106188197Y-140822579D01*
X106206411Y-140830544D01*
X106226587Y-140833200D01*
X106579274Y-140833200D01*
X106597697Y-140831005D01*
X106616089Y-140823522D01*
X106632519Y-140810729D01*
X106644368Y-140795617D01*
X106652334Y-140777230D01*
X106654989Y-140756996D01*
X106983740Y-140756996D01*
X106985934Y-140775676D01*
X106993417Y-140794242D01*
X107006210Y-140810729D01*
X107021065Y-140822579D01*
X107039279Y-140830544D01*
X107059455Y-140833200D01*
X107426308Y-140833200D01*
X107444731Y-140831005D01*
X107463123Y-140823522D01*
X107479553Y-140810729D01*
X107491402Y-140795521D01*
X107499368Y-140776809D01*
X107502023Y-140756019D01*
X107502023Y-140145900D01*
X107759455Y-140145900D01*
X108070132Y-140756019D01*
X108073406Y-140762319D01*
X108084054Y-140779878D01*
X108097335Y-140797032D01*
X108112142Y-140811706D01*
X108126400Y-140821109D01*
X108146162Y-140828477D01*
X108167037Y-140832171D01*
X108187857Y-140833200D01*
X108568876Y-140833200D01*
X108576494Y-140832746D01*
X108596049Y-140826656D01*
X108611863Y-140814637D01*
X108618171Y-140807436D01*
X108627362Y-140790183D01*
X108630425Y-140770673D01*
X108628742Y-140757717D01*
X108628462Y-140756996D01*
X108929867Y-140756996D01*
X108932061Y-140775676D01*
X108939544Y-140794242D01*
X108952337Y-140810729D01*
X108967192Y-140822579D01*
X108985406Y-140830544D01*
X109005582Y-140833200D01*
X109372435Y-140833200D01*
X109390858Y-140831005D01*
X109409250Y-140823522D01*
X109425680Y-140810729D01*
X109437529Y-140795617D01*
X109445495Y-140777230D01*
X109448150Y-140756996D01*
X109448150Y-140145412D01*
X110229239Y-140145412D01*
X110247662Y-140143265D01*
X110266054Y-140135945D01*
X110282484Y-140123430D01*
X110293346Y-140110447D01*
X110302299Y-140091213D01*
X110304954Y-140071650D01*
X110304954Y-139876745D01*
X111131472Y-139876745D01*
X111131523Y-139893560D01*
X111131752Y-139917290D01*
X111132165Y-139942515D01*
X111132594Y-139962417D01*
X111133126Y-139983159D01*
X111133762Y-140004743D01*
X111134500Y-140027169D01*
X111135342Y-140050436D01*
X111136286Y-140074544D01*
X111137334Y-140099494D01*
X111139108Y-140125844D01*
X111141623Y-140151892D01*
X111144879Y-140177638D01*
X111148874Y-140203083D01*
X111153610Y-140228227D01*
X111159087Y-140253069D01*
X111165303Y-140277610D01*
X111172260Y-140301849D01*
X111179958Y-140325787D01*
X111188396Y-140349423D01*
X111197574Y-140372758D01*
X111207493Y-140395791D01*
X111218151Y-140418523D01*
X111229551Y-140440953D01*
X111241690Y-140463082D01*
X111254570Y-140484909D01*
X111268219Y-140506311D01*
X111282544Y-140527163D01*
X111297544Y-140547466D01*
X111313219Y-140567219D01*
X111329570Y-140586423D01*
X111346596Y-140605077D01*
X111364298Y-140623181D01*
X111382676Y-140640736D01*
X111401729Y-140657742D01*
X111421457Y-140674197D01*
X111441861Y-140690104D01*
X111462940Y-140705460D01*
X111484695Y-140720268D01*
X111507125Y-140734525D01*
X111530231Y-140748234D01*
X111554012Y-140761392D01*
X111578454Y-140773873D01*
X111603418Y-140785549D01*
X111628905Y-140796420D01*
X111654915Y-140806485D01*
X111681448Y-140815746D01*
X111708503Y-140824201D01*
X111736082Y-140831850D01*
X111764183Y-140838695D01*
X111792807Y-140844734D01*
X111821954Y-140849968D01*
X111851624Y-140854397D01*
X111881816Y-140858021D01*
X111912532Y-140860839D01*
X111943770Y-140862852D01*
X111975531Y-140864060D01*
X112007815Y-140864463D01*
X112037754Y-140864102D01*
X112067365Y-140863020D01*
X112096647Y-140861217D01*
X112125601Y-140858692D01*
X112154227Y-140855447D01*
X112182525Y-140851480D01*
X112210495Y-140846791D01*
X112238136Y-140841382D01*
X112265449Y-140835251D01*
X112292435Y-140828399D01*
X112319091Y-140820825D01*
X112345420Y-140812530D01*
X112371420Y-140803514D01*
X112397093Y-140793777D01*
X112422437Y-140783319D01*
X112447452Y-140772139D01*
X112471982Y-140760343D01*
X112495866Y-140748035D01*
X112519105Y-140735216D01*
X112541700Y-140721886D01*
X112563649Y-140708044D01*
X112584953Y-140693691D01*
X112605613Y-140678827D01*
X112625628Y-140663451D01*
X112644997Y-140647563D01*
X112663722Y-140631165D01*
X112681801Y-140614255D01*
X112699236Y-140596833D01*
X112716026Y-140578901D01*
X112732171Y-140560457D01*
X112747671Y-140541501D01*
X112762526Y-140522034D01*
X112776615Y-140502136D01*
X112789820Y-140482009D01*
X112802139Y-140461653D01*
X112813572Y-140441068D01*
X112824121Y-140420254D01*
X112833784Y-140399210D01*
X112842561Y-140377938D01*
X112850453Y-140356437D01*
X112857460Y-140334707D01*
X112863581Y-140312749D01*
X112868817Y-140290561D01*
X112873168Y-140268144D01*
X112876633Y-140245498D01*
X112879213Y-140222623D01*
X112880907Y-140199519D01*
X112881716Y-140176186D01*
X112881263Y-140168427D01*
X112875172Y-140148605D01*
X112863154Y-140132711D01*
X112858528Y-140128475D01*
X112840657Y-140118097D01*
X112820167Y-140114637D01*
X112453314Y-140114637D01*
X112447805Y-140114706D01*
X112427945Y-140116354D01*
X112408015Y-140121506D01*
X112391277Y-140132223D01*
X112384010Y-140141222D01*
X112373630Y-140159349D01*
X112365326Y-140178316D01*
X112358060Y-140198168D01*
X112349664Y-140221531D01*
X112339863Y-140243994D01*
X112328659Y-140265556D01*
X112316050Y-140286218D01*
X112302036Y-140305978D01*
X112286618Y-140324839D01*
X112269796Y-140342798D01*
X112251570Y-140359857D01*
X112231198Y-140375427D01*
X112214026Y-140385743D01*
X112195232Y-140394890D01*
X112174814Y-140402870D01*
X112152773Y-140409682D01*
X112129110Y-140415327D01*
X112103824Y-140419803D01*
X112076915Y-140423112D01*
X112048382Y-140425253D01*
X112028460Y-140426031D01*
X112007815Y-140426291D01*
X111986139Y-140425930D01*
X111965195Y-140424848D01*
X111944984Y-140423045D01*
X111925505Y-140420521D01*
X111897662Y-140415382D01*
X111871467Y-140408620D01*
X111846920Y-140400235D01*
X111824023Y-140390227D01*
X111802773Y-140378596D01*
X111783173Y-140365343D01*
X111765221Y-140350466D01*
X111748918Y-140333967D01*
X111738877Y-140322200D01*
X111724861Y-140303697D01*
X111712098Y-140284172D01*
X111700589Y-140263626D01*
X111690334Y-140242057D01*
X111681332Y-140219467D01*
X111673584Y-140195855D01*
X111667090Y-140171222D01*
X111661849Y-140145566D01*
X111657862Y-140118889D01*
X111655852Y-140098517D01*
X113072226Y-140098517D01*
X113074668Y-140208915D01*
X113076103Y-140231502D01*
X113078210Y-140253833D01*
X113080988Y-140275908D01*
X113084438Y-140297728D01*
X113088559Y-140319292D01*
X113093353Y-140340600D01*
X113098818Y-140361652D01*
X113104954Y-140382449D01*
X113111762Y-140402991D01*
X113119242Y-140423276D01*
X113127394Y-140443306D01*
X113136217Y-140463080D01*
X113145712Y-140482598D01*
X113155879Y-140501861D01*
X113166717Y-140520868D01*
X113178227Y-140539620D01*
X113190430Y-140558005D01*
X113203224Y-140575913D01*
X113216609Y-140593343D01*
X113230587Y-140610297D01*
X113245155Y-140626774D01*
X113260315Y-140642774D01*
X113276067Y-140658297D01*
X113292411Y-140673343D01*
X113309345Y-140687911D01*
X113326872Y-140702003D01*
X113344990Y-140715618D01*
X113363699Y-140728755D01*
X113383000Y-140741416D01*
X113402892Y-140753599D01*
X113423376Y-140765306D01*
X113444452Y-140776535D01*
X113466018Y-140787183D01*
X113487973Y-140797143D01*
X113510317Y-140806417D01*
X113533051Y-140815003D01*
X113556174Y-140822903D01*
X113579686Y-140830116D01*
X113603587Y-140836642D01*
X113627878Y-140842481D01*
X113652558Y-140847633D01*
X113677627Y-140852098D01*
X113703086Y-140855876D01*
X113728934Y-140858967D01*
X113755171Y-140861371D01*
X113781797Y-140863089D01*
X113808812Y-140864119D01*
X113836217Y-140864463D01*
X113863681Y-140864121D01*
X113890752Y-140863096D01*
X113917430Y-140861389D01*
X113943715Y-140858998D01*
X113969606Y-140855924D01*
X113995105Y-140852166D01*
X114020210Y-140847726D01*
X114044923Y-140842603D01*
X114069242Y-140836796D01*
X114093168Y-140830307D01*
X114116702Y-140823134D01*
X114139842Y-140815278D01*
X114162589Y-140806739D01*
X114184943Y-140797517D01*
X114206903Y-140787612D01*
X114228471Y-140777024D01*
X114249545Y-140765796D01*
X114264946Y-140756996D01*
X114859595Y-140756996D01*
X114861789Y-140775467D01*
X114869272Y-140794021D01*
X114882065Y-140810729D01*
X114896920Y-140822579D01*
X114915134Y-140830544D01*
X114935310Y-140833200D01*
X115287997Y-140833200D01*
X115306630Y-140831005D01*
X115325032Y-140823522D01*
X115341242Y-140810729D01*
X115353091Y-140795569D01*
X115361057Y-140777019D01*
X115363712Y-140756507D01*
X115363712Y-140039899D01*
X115363771Y-140031986D01*
X115364651Y-140008910D01*
X115366587Y-139986831D01*
X115369580Y-139965748D01*
X115373628Y-139945661D01*
X115378733Y-139926570D01*
X115387182Y-139902665D01*
X115397509Y-139880530D01*
X115409714Y-139860167D01*
X115423796Y-139841574D01*
X115435677Y-139828915D01*
X115453148Y-139813975D01*
X115472481Y-139801247D01*
X115493677Y-139790733D01*
X115516735Y-139782433D01*
X115541655Y-139776346D01*
X115561568Y-139773233D01*
X115582528Y-139771366D01*
X115604535Y-139770743D01*
X115627063Y-139771379D01*
X115648482Y-139773285D01*
X115668794Y-139776462D01*
X115687998Y-139780910D01*
X115711880Y-139788817D01*
X115733793Y-139798984D01*
X115753737Y-139811410D01*
X115771712Y-139826095D01*
X115787718Y-139843039D01*
X115791444Y-139847609D01*
X115805168Y-139866908D01*
X115816998Y-139887840D01*
X115826936Y-139910406D01*
X115834980Y-139934605D01*
X115839772Y-139953826D01*
X115843498Y-139973966D01*
X115846160Y-139995025D01*
X115847757Y-140017002D01*
X115848290Y-140039899D01*
X115848290Y-140756507D01*
X115850484Y-140775236D01*
X115857967Y-140793964D01*
X115870760Y-140810729D01*
X115885615Y-140822579D01*
X115903829Y-140830544D01*
X115924005Y-140833200D01*
X116276692Y-140833200D01*
X116295115Y-140831005D01*
X116313507Y-140823522D01*
X116329937Y-140810729D01*
X116341786Y-140795617D01*
X116349752Y-140777230D01*
X116352407Y-140756996D01*
X116352407Y-139978350D01*
X116352248Y-139958327D01*
X116351772Y-139938620D01*
X116349865Y-139900154D01*
X116346688Y-139862951D01*
X116342240Y-139827011D01*
X116336522Y-139792334D01*
X116329532Y-139758920D01*
X116321272Y-139726770D01*
X116320973Y-139725802D01*
X116534124Y-139725802D01*
X116536270Y-139744273D01*
X116543591Y-139762828D01*
X116556106Y-139779536D01*
X116570960Y-139791385D01*
X116589174Y-139799351D01*
X116609351Y-139802006D01*
X116816957Y-139802006D01*
X116816957Y-140276814D01*
X116817573Y-140308514D01*
X116819422Y-140339379D01*
X116822504Y-140369407D01*
X116826818Y-140398600D01*
X116832365Y-140426957D01*
X116839145Y-140454478D01*
X116847157Y-140481164D01*
X116856402Y-140507013D01*
X116866880Y-140532027D01*
X116878590Y-140556205D01*
X116891533Y-140579548D01*
X116905709Y-140602054D01*
X116921117Y-140623725D01*
X116937758Y-140644560D01*
X116955632Y-140664559D01*
X116974738Y-140683723D01*
X116994943Y-140701824D01*
X117015992Y-140718756D01*
X117037884Y-140734522D01*
X117060620Y-140749119D01*
X117084199Y-140762548D01*
X117108621Y-140774810D01*
X117133887Y-140785904D01*
X117159996Y-140795830D01*
X117186949Y-140804589D01*
X117214745Y-140812179D01*
X117243384Y-140818602D01*
X117272867Y-140823857D01*
X117303193Y-140827944D01*
X117334363Y-140830864D01*
X117366375Y-140832616D01*
X117399232Y-140833200D01*
X117664968Y-140833200D01*
X117683391Y-140831005D01*
X117701783Y-140823522D01*
X117718213Y-140810729D01*
X117730063Y-140795617D01*
X117738028Y-140777230D01*
X117740683Y-140756996D01*
X117978087Y-140756996D01*
X117980282Y-140775467D01*
X117987765Y-140794021D01*
X118000558Y-140810729D01*
X118015413Y-140822579D01*
X118033626Y-140830544D01*
X118053803Y-140833200D01*
X118406489Y-140833200D01*
X118425122Y-140831005D01*
X118443525Y-140823522D01*
X118459734Y-140810729D01*
X118471584Y-140795617D01*
X118479549Y-140777230D01*
X118482205Y-140756996D01*
X118482205Y-140098517D01*
X119184159Y-140098517D01*
X119186601Y-140208915D01*
X119188036Y-140231502D01*
X119190143Y-140253833D01*
X119192921Y-140275908D01*
X119196371Y-140297728D01*
X119200492Y-140319292D01*
X119205286Y-140340600D01*
X119210751Y-140361652D01*
X119216887Y-140382449D01*
X119223695Y-140402991D01*
X119231175Y-140423276D01*
X119239327Y-140443306D01*
X119248150Y-140463080D01*
X119257645Y-140482598D01*
X119267812Y-140501861D01*
X119278650Y-140520868D01*
X119290160Y-140539620D01*
X119302363Y-140558005D01*
X119315157Y-140575913D01*
X119328542Y-140593343D01*
X119342520Y-140610297D01*
X119357088Y-140626774D01*
X119372248Y-140642774D01*
X119388000Y-140658297D01*
X119404344Y-140673343D01*
X119421278Y-140687911D01*
X119438805Y-140702003D01*
X119456923Y-140715618D01*
X119475632Y-140728755D01*
X119494933Y-140741416D01*
X119514825Y-140753599D01*
X119535309Y-140765306D01*
X119556385Y-140776535D01*
X119577951Y-140787183D01*
X119599906Y-140797143D01*
X119622250Y-140806417D01*
X119644984Y-140815003D01*
X119668107Y-140822903D01*
X119691619Y-140830116D01*
X119715520Y-140836642D01*
X119739811Y-140842481D01*
X119764491Y-140847633D01*
X119789560Y-140852098D01*
X119815019Y-140855876D01*
X119840867Y-140858967D01*
X119867104Y-140861371D01*
X119893730Y-140863089D01*
X119920745Y-140864119D01*
X119948150Y-140864463D01*
X119975614Y-140864121D01*
X120002685Y-140863096D01*
X120029363Y-140861389D01*
X120055648Y-140858998D01*
X120081539Y-140855924D01*
X120107038Y-140852166D01*
X120132143Y-140847726D01*
X120156856Y-140842603D01*
X120181175Y-140836796D01*
X120205101Y-140830307D01*
X120228635Y-140823134D01*
X120251775Y-140815278D01*
X120274522Y-140806739D01*
X120296876Y-140797517D01*
X120318836Y-140787612D01*
X120340404Y-140777024D01*
X120361478Y-140765796D01*
X120376879Y-140756996D01*
X120971528Y-140756996D01*
X120973722Y-140775676D01*
X120981205Y-140794242D01*
X120993998Y-140810729D01*
X121008853Y-140822579D01*
X121027067Y-140830544D01*
X121047243Y-140833200D01*
X121399930Y-140833200D01*
X121418563Y-140831005D01*
X121436965Y-140823522D01*
X121453175Y-140810729D01*
X121465024Y-140795827D01*
X121472990Y-140777450D01*
X121475645Y-140756996D01*
X121800000Y-140756996D01*
X121802194Y-140775676D01*
X121809677Y-140794242D01*
X121822470Y-140810729D01*
X121837325Y-140822579D01*
X121855539Y-140830544D01*
X121875715Y-140833200D01*
X122228401Y-140833200D01*
X122247035Y-140831005D01*
X122265437Y-140823522D01*
X122281646Y-140810729D01*
X122293496Y-140795827D01*
X122301462Y-140777450D01*
X122304117Y-140756996D01*
X122304117Y-140098517D01*
X122561549Y-140098517D01*
X122561741Y-140120894D01*
X122562320Y-140142963D01*
X122563283Y-140164724D01*
X122564632Y-140186177D01*
X122566367Y-140207322D01*
X122568487Y-140228158D01*
X122570992Y-140248687D01*
X122573883Y-140268907D01*
X122577159Y-140288819D01*
X122580821Y-140308423D01*
X122589301Y-140346706D01*
X122599322Y-140383756D01*
X122610886Y-140419574D01*
X122623991Y-140454159D01*
X122638638Y-140487512D01*
X122654827Y-140519632D01*
X122672557Y-140550519D01*
X122691829Y-140580173D01*
X122712643Y-140608595D01*
X122734999Y-140635784D01*
X122758897Y-140661741D01*
X122771391Y-140674213D01*
X122797342Y-140697970D01*
X122824575Y-140720142D01*
X122853091Y-140740731D01*
X122882888Y-140759736D01*
X122913968Y-140777158D01*
X122946330Y-140792995D01*
X122979975Y-140807249D01*
X123014902Y-140819919D01*
X123051111Y-140831006D01*
X123088602Y-140840508D01*
X123107828Y-140844666D01*
X123127375Y-140848427D01*
X123147243Y-140851792D01*
X123167431Y-140854762D01*
X123187940Y-140857336D01*
X123208769Y-140859513D01*
X123229919Y-140861295D01*
X123251390Y-140862681D01*
X123273181Y-140863671D01*
X123295292Y-140864265D01*
X123317725Y-140864463D01*
X123346822Y-140864153D01*
X123375373Y-140863226D01*
X123403379Y-140861681D01*
X123430840Y-140859517D01*
X123457754Y-140856735D01*
X123484123Y-140853334D01*
X123509946Y-140849316D01*
X123535223Y-140844679D01*
X123559954Y-140839424D01*
X123584140Y-140833551D01*
X123607780Y-140827059D01*
X123630874Y-140819949D01*
X123653423Y-140812221D01*
X123675426Y-140803875D01*
X123696883Y-140794911D01*
X123717794Y-140785328D01*
X123738116Y-140775289D01*
X123757804Y-140765079D01*
X123772638Y-140756996D01*
X124326448Y-140756996D01*
X124328642Y-140775467D01*
X124336125Y-140794021D01*
X124348918Y-140810729D01*
X124363773Y-140822579D01*
X124381987Y-140830544D01*
X124402163Y-140833200D01*
X124754849Y-140833200D01*
X124773483Y-140831005D01*
X124791885Y-140823522D01*
X124808094Y-140810729D01*
X124819944Y-140795617D01*
X124827910Y-140777230D01*
X124830565Y-140756996D01*
X124830565Y-140061881D01*
X124831144Y-140038599D01*
X124832883Y-140016383D01*
X124835781Y-139995231D01*
X124839838Y-139975144D01*
X124847051Y-139950017D01*
X124856325Y-139926784D01*
X124867659Y-139905443D01*
X124881054Y-139885995D01*
X124896510Y-139868440D01*
X124900691Y-139864353D01*
X124918585Y-139849302D01*
X124938357Y-139836326D01*
X124960007Y-139825427D01*
X124983535Y-139816604D01*
X125002412Y-139811348D01*
X125022346Y-139807261D01*
X125043337Y-139804342D01*
X125065383Y-139802590D01*
X125088485Y-139802006D01*
X125342986Y-139802006D01*
X125361409Y-139799812D01*
X125379802Y-139792329D01*
X125396231Y-139779536D01*
X125408081Y-139764423D01*
X125416046Y-139746036D01*
X125418702Y-139725802D01*
X125418702Y-139440038D01*
X125416507Y-139421615D01*
X125409024Y-139403223D01*
X125396231Y-139386793D01*
X125381376Y-139374686D01*
X125363163Y-139366547D01*
X125342986Y-139363835D01*
X125174947Y-139363835D01*
X125146932Y-139364403D01*
X125119550Y-139366109D01*
X125092801Y-139368952D01*
X125066687Y-139372933D01*
X125041205Y-139378050D01*
X125016357Y-139384305D01*
X124992143Y-139391697D01*
X124968562Y-139400227D01*
X124945615Y-139409893D01*
X124923301Y-139420697D01*
X124901620Y-139432639D01*
X124880573Y-139445717D01*
X124860160Y-139459933D01*
X124840380Y-139475286D01*
X124821234Y-139491776D01*
X124802721Y-139509403D01*
X124802721Y-139442481D01*
X124800527Y-139423237D01*
X124793044Y-139404163D01*
X124780251Y-139387282D01*
X124765396Y-139374917D01*
X124747182Y-139366605D01*
X124727006Y-139363835D01*
X124402163Y-139363835D01*
X124383740Y-139366077D01*
X124365347Y-139373722D01*
X124348918Y-139386793D01*
X124337068Y-139401648D01*
X124329103Y-139419862D01*
X124326448Y-139440038D01*
X124326448Y-140756996D01*
X123772638Y-140756996D01*
X123776859Y-140754696D01*
X123795280Y-140744142D01*
X123813068Y-140733417D01*
X123830222Y-140722519D01*
X123846743Y-140711450D01*
X123870336Y-140694524D01*
X123892504Y-140677212D01*
X123913247Y-140659514D01*
X123932564Y-140641429D01*
X123950456Y-140622957D01*
X123966922Y-140604100D01*
X123981937Y-140585448D01*
X123995476Y-140567595D01*
X124007537Y-140550540D01*
X124021321Y-140529043D01*
X124032480Y-140508966D01*
X124041013Y-140490308D01*
X124047988Y-140468982D01*
X124050942Y-140446319D01*
X124050536Y-140437892D01*
X124045687Y-140418550D01*
X124034333Y-140401867D01*
X124027693Y-140396222D01*
X124008993Y-140387594D01*
X123989392Y-140385258D01*
X123625471Y-140385258D01*
X123617349Y-140385373D01*
X123596650Y-140387090D01*
X123577599Y-140392585D01*
X123564936Y-140400325D01*
X123549105Y-140412006D01*
X123533147Y-140424825D01*
X123521364Y-140434109D01*
X123503746Y-140445983D01*
X123484819Y-140456548D01*
X123464583Y-140465805D01*
X123446196Y-140472697D01*
X123426350Y-140478341D01*
X123404545Y-140482818D01*
X123384879Y-140485656D01*
X123363854Y-140487684D01*
X123341469Y-140488900D01*
X123317725Y-140489306D01*
X123292842Y-140488519D01*
X123268754Y-140486161D01*
X123245459Y-140482230D01*
X123222958Y-140476727D01*
X123201251Y-140469652D01*
X123180338Y-140461004D01*
X123160218Y-140450784D01*
X123140893Y-140438992D01*
X123131783Y-140432380D01*
X123115327Y-140417588D01*
X123101222Y-140400705D01*
X123089468Y-140381730D01*
X123080065Y-140360664D01*
X123073012Y-140337507D01*
X123068311Y-140312258D01*
X123066327Y-140291949D01*
X123065666Y-140270464D01*
X123997697Y-140270464D01*
X124016120Y-140268222D01*
X124034512Y-140260576D01*
X124050942Y-140247505D01*
X124062791Y-140232297D01*
X124070757Y-140213585D01*
X124073412Y-140192795D01*
X124073412Y-140112683D01*
X124073105Y-140088381D01*
X124072183Y-140064201D01*
X124070647Y-140040143D01*
X124068497Y-140016207D01*
X124065732Y-139992393D01*
X124062352Y-139968702D01*
X124058359Y-139945133D01*
X124053750Y-139921685D01*
X124048528Y-139898360D01*
X124042691Y-139875157D01*
X124036239Y-139852076D01*
X124029173Y-139829117D01*
X124021493Y-139806280D01*
X124013198Y-139783566D01*
X124004289Y-139760973D01*
X123994766Y-139738503D01*
X123984639Y-139716351D01*
X123973799Y-139694715D01*
X123962245Y-139673594D01*
X123949978Y-139652988D01*
X123936997Y-139632897D01*
X123923302Y-139613321D01*
X123908893Y-139594260D01*
X123893771Y-139575715D01*
X123877936Y-139557685D01*
X123861386Y-139540170D01*
X123844123Y-139523171D01*
X123826147Y-139506686D01*
X123807456Y-139490717D01*
X123788052Y-139475263D01*
X123767935Y-139460324D01*
X123747103Y-139445900D01*
X123725620Y-139432177D01*
X123703422Y-139419339D01*
X123680511Y-139407386D01*
X123656886Y-139396319D01*
X123632548Y-139386137D01*
X123607496Y-139376840D01*
X123581730Y-139368429D01*
X123555251Y-139360904D01*
X123528058Y-139354263D01*
X123500151Y-139348508D01*
X123471531Y-139343639D01*
X123442197Y-139339654D01*
X123412149Y-139336556D01*
X123381388Y-139334342D01*
X123349913Y-139333014D01*
X123317725Y-139332571D01*
X123288190Y-139332955D01*
X123259183Y-139334106D01*
X123230702Y-139336023D01*
X123202747Y-139338708D01*
X123175320Y-139342160D01*
X123148418Y-139346379D01*
X123122044Y-139351365D01*
X123096196Y-139357118D01*
X123070875Y-139363638D01*
X123046081Y-139370925D01*
X123021813Y-139378979D01*
X122998072Y-139387801D01*
X122974857Y-139397389D01*
X122952169Y-139407745D01*
X122930008Y-139418867D01*
X122908374Y-139430757D01*
X122887384Y-139443263D01*
X122867035Y-139456357D01*
X122847328Y-139470038D01*
X122828262Y-139484307D01*
X122809837Y-139499164D01*
X122792053Y-139514609D01*
X122774910Y-139530641D01*
X122758408Y-139547261D01*
X122742548Y-139564469D01*
X122727329Y-139582264D01*
X122712750Y-139600647D01*
X122698813Y-139619618D01*
X122685517Y-139639176D01*
X122672862Y-139659323D01*
X122660849Y-139680057D01*
X122649476Y-139701378D01*
X122638829Y-139723194D01*
X122628868Y-139745411D01*
X122619595Y-139768028D01*
X122611008Y-139791046D01*
X122603108Y-139814464D01*
X122595895Y-139838284D01*
X122589369Y-139862504D01*
X122583531Y-139887125D01*
X122578379Y-139912146D01*
X122573913Y-139937569D01*
X122570948Y-139957833D01*
X122570135Y-139963392D01*
X122567044Y-139989615D01*
X122564640Y-140016240D01*
X122562923Y-140043265D01*
X122561892Y-140070691D01*
X122561549Y-140098517D01*
X122304117Y-140098517D01*
X122304117Y-138908566D01*
X122301922Y-138889885D01*
X122294440Y-138871320D01*
X122281646Y-138854832D01*
X122267001Y-138842983D01*
X122248798Y-138835017D01*
X122228401Y-138832362D01*
X121875715Y-138832362D01*
X121857292Y-138834556D01*
X121838899Y-138842039D01*
X121822470Y-138854832D01*
X121810620Y-138869735D01*
X121802655Y-138888111D01*
X121800000Y-138908566D01*
X121800000Y-140756996D01*
X121475645Y-140756996D01*
X121475645Y-138908566D01*
X121473451Y-138889885D01*
X121465968Y-138871320D01*
X121453175Y-138854832D01*
X121438530Y-138842983D01*
X121420326Y-138835017D01*
X121399930Y-138832362D01*
X121047243Y-138832362D01*
X121028820Y-138834556D01*
X121010428Y-138842039D01*
X120993998Y-138854832D01*
X120982149Y-138869735D01*
X120974183Y-138888111D01*
X120971528Y-138908566D01*
X120971528Y-140756996D01*
X120376879Y-140756996D01*
X120381956Y-140754095D01*
X120401839Y-140741921D01*
X120421127Y-140729274D01*
X120439819Y-140716154D01*
X120457916Y-140702560D01*
X120475417Y-140688493D01*
X120492323Y-140673953D01*
X120508634Y-140658940D01*
X120524350Y-140643453D01*
X120539470Y-140627494D01*
X120553995Y-140611061D01*
X120567924Y-140594154D01*
X120581258Y-140576775D01*
X120593997Y-140558922D01*
X120606140Y-140540597D01*
X120617710Y-140521906D01*
X120628603Y-140502960D01*
X120638821Y-140483759D01*
X120648364Y-140464301D01*
X120657231Y-140444588D01*
X120665423Y-140424619D01*
X120672939Y-140404395D01*
X120679780Y-140383915D01*
X120685945Y-140363179D01*
X120691435Y-140342187D01*
X120696249Y-140320940D01*
X120700388Y-140299437D01*
X120703851Y-140277679D01*
X120706639Y-140255664D01*
X120708751Y-140233394D01*
X120710188Y-140210869D01*
X120710760Y-140202946D01*
X120711676Y-140182063D01*
X120712163Y-140161993D01*
X120712437Y-140142382D01*
X120712592Y-140120148D01*
X120712630Y-140100471D01*
X120712571Y-140076982D01*
X120712392Y-140055973D01*
X120712020Y-140034037D01*
X120711369Y-140012960D01*
X120710188Y-139993004D01*
X120709106Y-139970351D01*
X120707326Y-139947941D01*
X120704847Y-139925776D01*
X120701670Y-139903855D01*
X120697794Y-139882179D01*
X120693221Y-139860747D01*
X120687948Y-139839559D01*
X120681978Y-139818615D01*
X120675309Y-139797915D01*
X120667942Y-139777460D01*
X120659876Y-139757249D01*
X120651112Y-139737282D01*
X120641649Y-139717559D01*
X120631488Y-139698081D01*
X120620629Y-139678847D01*
X120609071Y-139659857D01*
X120596863Y-139641235D01*
X120584052Y-139623106D01*
X120570637Y-139605469D01*
X120556620Y-139588324D01*
X120542000Y-139571672D01*
X120526777Y-139555512D01*
X120510951Y-139539844D01*
X120494521Y-139524668D01*
X120477489Y-139509985D01*
X120459854Y-139495794D01*
X120441616Y-139482096D01*
X120422775Y-139468889D01*
X120403331Y-139456176D01*
X120383284Y-139443954D01*
X120362634Y-139432224D01*
X120341381Y-139420987D01*
X120319695Y-139410281D01*
X120297624Y-139400265D01*
X120275167Y-139390940D01*
X120252324Y-139382305D01*
X120229096Y-139374362D01*
X120205483Y-139367109D01*
X120181484Y-139360547D01*
X120157100Y-139354675D01*
X120132330Y-139349495D01*
X120107175Y-139345005D01*
X120081635Y-139341206D01*
X120055709Y-139338097D01*
X120029397Y-139335680D01*
X120002700Y-139333953D01*
X119975618Y-139332917D01*
X119948150Y-139332571D01*
X119920740Y-139332915D01*
X119893707Y-139333945D01*
X119867052Y-139335663D01*
X119840775Y-139338067D01*
X119814876Y-139341158D01*
X119789354Y-139344936D01*
X119764211Y-139349401D01*
X119739445Y-139354553D01*
X119715057Y-139360392D01*
X119691046Y-139366918D01*
X119667414Y-139374131D01*
X119644159Y-139382031D01*
X119621283Y-139390617D01*
X119598784Y-139399891D01*
X119576663Y-139409851D01*
X119554919Y-139420499D01*
X119533725Y-139431734D01*
X119513131Y-139443458D01*
X119493135Y-139455670D01*
X119473739Y-139468370D01*
X119454942Y-139481560D01*
X119436744Y-139495237D01*
X119419145Y-139509403D01*
X119402145Y-139524058D01*
X119385745Y-139539201D01*
X119369943Y-139554832D01*
X119354741Y-139570952D01*
X119340138Y-139587561D01*
X119326134Y-139604658D01*
X119312730Y-139622243D01*
X119299924Y-139640317D01*
X119287718Y-139658880D01*
X119276160Y-139677807D01*
X119265301Y-139696974D01*
X119255140Y-139716382D01*
X119245677Y-139736030D01*
X119236913Y-139755919D01*
X119228847Y-139776048D01*
X119221480Y-139796417D01*
X119214811Y-139817027D01*
X119208840Y-139837877D01*
X119203568Y-139858968D01*
X119198994Y-139880299D01*
X119195119Y-139901871D01*
X119191942Y-139923683D01*
X119189463Y-139945735D01*
X119187683Y-139968028D01*
X119186601Y-139990562D01*
X119184159Y-140098517D01*
X118482205Y-140098517D01*
X118482205Y-140061881D01*
X118482784Y-140038599D01*
X118484523Y-140016383D01*
X118487421Y-139995231D01*
X118491478Y-139975144D01*
X118498691Y-139950017D01*
X118507965Y-139926784D01*
X118519299Y-139905443D01*
X118532694Y-139885995D01*
X118548150Y-139868440D01*
X118552331Y-139864353D01*
X118570225Y-139849302D01*
X118589997Y-139836326D01*
X118611647Y-139825427D01*
X118635175Y-139816604D01*
X118654052Y-139811348D01*
X118673986Y-139807261D01*
X118694976Y-139804342D01*
X118717023Y-139802590D01*
X118740125Y-139802006D01*
X118994626Y-139802006D01*
X119013049Y-139799812D01*
X119031441Y-139792329D01*
X119047871Y-139779536D01*
X119059721Y-139764423D01*
X119067686Y-139746036D01*
X119070341Y-139725802D01*
X119070341Y-139440038D01*
X119068147Y-139421615D01*
X119060664Y-139403223D01*
X119047871Y-139386793D01*
X119033016Y-139374686D01*
X119014802Y-139366547D01*
X118994626Y-139363835D01*
X118826587Y-139363835D01*
X118798572Y-139364403D01*
X118771190Y-139366109D01*
X118744441Y-139368952D01*
X118718326Y-139372933D01*
X118692845Y-139378050D01*
X118667997Y-139384305D01*
X118643783Y-139391697D01*
X118620202Y-139400227D01*
X118597254Y-139409893D01*
X118574941Y-139420697D01*
X118553260Y-139432639D01*
X118532213Y-139445717D01*
X118511800Y-139459933D01*
X118492020Y-139475286D01*
X118472874Y-139491776D01*
X118454361Y-139509403D01*
X118454361Y-139442481D01*
X118452167Y-139423237D01*
X118444684Y-139404163D01*
X118431891Y-139387282D01*
X118417036Y-139374917D01*
X118398822Y-139366605D01*
X118378646Y-139363835D01*
X118053803Y-139363835D01*
X118035380Y-139366077D01*
X118016987Y-139373722D01*
X118000558Y-139386793D01*
X117988708Y-139401648D01*
X117980743Y-139419862D01*
X117978087Y-139440038D01*
X117978087Y-140756996D01*
X117740683Y-140756996D01*
X117740683Y-140471232D01*
X117738489Y-140452808D01*
X117731006Y-140434416D01*
X117718213Y-140417987D01*
X117703358Y-140405879D01*
X117685144Y-140397741D01*
X117664968Y-140395028D01*
X117441242Y-140395028D01*
X117419679Y-140393839D01*
X117394228Y-140388553D01*
X117372548Y-140379039D01*
X117354638Y-140365297D01*
X117340499Y-140347326D01*
X117330130Y-140325126D01*
X117324827Y-140305702D01*
X117321646Y-140283899D01*
X117320586Y-140259717D01*
X117320586Y-139802006D01*
X117637124Y-139802006D01*
X117655548Y-139799812D01*
X117673940Y-139792329D01*
X117690369Y-139779536D01*
X117702219Y-139764423D01*
X117710185Y-139746036D01*
X117712840Y-139725802D01*
X117712840Y-139440038D01*
X117710645Y-139421615D01*
X117703163Y-139403223D01*
X117690369Y-139386793D01*
X117675514Y-139374686D01*
X117657301Y-139366547D01*
X117637124Y-139363835D01*
X117320586Y-139363835D01*
X117320586Y-138908077D01*
X117318391Y-138889654D01*
X117310909Y-138871262D01*
X117298115Y-138854832D01*
X117283518Y-138842983D01*
X117265477Y-138835017D01*
X117245359Y-138832362D01*
X116892184Y-138832362D01*
X116873761Y-138834556D01*
X116855368Y-138842039D01*
X116838939Y-138854832D01*
X116827347Y-138869687D01*
X116819554Y-138887901D01*
X116816957Y-138908077D01*
X116816957Y-139363835D01*
X116609351Y-139363835D01*
X116590927Y-139366077D01*
X116572535Y-139373722D01*
X116556106Y-139386793D01*
X116544514Y-139401648D01*
X116536721Y-139419862D01*
X116534124Y-139440038D01*
X116534124Y-139725802D01*
X116320973Y-139725802D01*
X116311741Y-139695883D01*
X116300939Y-139666259D01*
X116288866Y-139637898D01*
X116275522Y-139610800D01*
X116260908Y-139584966D01*
X116245022Y-139560395D01*
X116227866Y-139537087D01*
X116209439Y-139515042D01*
X116189741Y-139494260D01*
X116168998Y-139474681D01*
X116147312Y-139456364D01*
X116124683Y-139439311D01*
X116101112Y-139423521D01*
X116076598Y-139408995D01*
X116051141Y-139395731D01*
X116024742Y-139383731D01*
X115997400Y-139372994D01*
X115969116Y-139363520D01*
X115939889Y-139355309D01*
X115909719Y-139348361D01*
X115878606Y-139342677D01*
X115846551Y-139338256D01*
X115813554Y-139335098D01*
X115779614Y-139333203D01*
X115744731Y-139332571D01*
X115712334Y-139333249D01*
X115680968Y-139335281D01*
X115650632Y-139338668D01*
X115621327Y-139343410D01*
X115593052Y-139349506D01*
X115565808Y-139356958D01*
X115539594Y-139365764D01*
X115514410Y-139375925D01*
X115490257Y-139387440D01*
X115467134Y-139400311D01*
X115445041Y-139414536D01*
X115423979Y-139430116D01*
X115403947Y-139447051D01*
X115384946Y-139465340D01*
X115366975Y-139484985D01*
X115350034Y-139505984D01*
X115350034Y-139440527D01*
X115347840Y-139421846D01*
X115340357Y-139403281D01*
X115327564Y-139386793D01*
X115312709Y-139374686D01*
X115294495Y-139366547D01*
X115274319Y-139363835D01*
X114935310Y-139363835D01*
X114916887Y-139366077D01*
X114898495Y-139373722D01*
X114882065Y-139386793D01*
X114870216Y-139401648D01*
X114862250Y-139419862D01*
X114859595Y-139440038D01*
X114859595Y-140756996D01*
X114264946Y-140756996D01*
X114270023Y-140754095D01*
X114289906Y-140741921D01*
X114309193Y-140729274D01*
X114327886Y-140716154D01*
X114345983Y-140702560D01*
X114363484Y-140688493D01*
X114380390Y-140673953D01*
X114396701Y-140658940D01*
X114412417Y-140643453D01*
X114427537Y-140627494D01*
X114442062Y-140611061D01*
X114455991Y-140594154D01*
X114469325Y-140576775D01*
X114482064Y-140558922D01*
X114494207Y-140540597D01*
X114505777Y-140521906D01*
X114516670Y-140502960D01*
X114526888Y-140483759D01*
X114536431Y-140464301D01*
X114545298Y-140444588D01*
X114553490Y-140424619D01*
X114561006Y-140404395D01*
X114567847Y-140383915D01*
X114574012Y-140363179D01*
X114579502Y-140342187D01*
X114584316Y-140320940D01*
X114588455Y-140299437D01*
X114591918Y-140277679D01*
X114594706Y-140255664D01*
X114596818Y-140233394D01*
X114598255Y-140210869D01*
X114598827Y-140202946D01*
X114599743Y-140182063D01*
X114600230Y-140161993D01*
X114600504Y-140142382D01*
X114600659Y-140120148D01*
X114600697Y-140100471D01*
X114600638Y-140076982D01*
X114600459Y-140055973D01*
X114600087Y-140034037D01*
X114599436Y-140012960D01*
X114598255Y-139993004D01*
X114597173Y-139970351D01*
X114595393Y-139947941D01*
X114592914Y-139925776D01*
X114589737Y-139903855D01*
X114585861Y-139882179D01*
X114581288Y-139860747D01*
X114576015Y-139839559D01*
X114570045Y-139818615D01*
X114563376Y-139797915D01*
X114556009Y-139777460D01*
X114547943Y-139757249D01*
X114539179Y-139737282D01*
X114529716Y-139717559D01*
X114519555Y-139698081D01*
X114508696Y-139678847D01*
X114497138Y-139659857D01*
X114484930Y-139641235D01*
X114472119Y-139623106D01*
X114458704Y-139605469D01*
X114444687Y-139588324D01*
X114430067Y-139571672D01*
X114414844Y-139555512D01*
X114399018Y-139539844D01*
X114382588Y-139524668D01*
X114365556Y-139509985D01*
X114347921Y-139495794D01*
X114329683Y-139482096D01*
X114310842Y-139468889D01*
X114291398Y-139456176D01*
X114271351Y-139443954D01*
X114250701Y-139432224D01*
X114229448Y-139420987D01*
X114207762Y-139410281D01*
X114185691Y-139400265D01*
X114163234Y-139390940D01*
X114140391Y-139382305D01*
X114117163Y-139374362D01*
X114093550Y-139367109D01*
X114069551Y-139360547D01*
X114045167Y-139354675D01*
X114020397Y-139349495D01*
X113995242Y-139345005D01*
X113969702Y-139341206D01*
X113943776Y-139338097D01*
X113917464Y-139335680D01*
X113890767Y-139333953D01*
X113863685Y-139332917D01*
X113836217Y-139332571D01*
X113808807Y-139332915D01*
X113781774Y-139333945D01*
X113755119Y-139335663D01*
X113728842Y-139338067D01*
X113702943Y-139341158D01*
X113677421Y-139344936D01*
X113652278Y-139349401D01*
X113627512Y-139354553D01*
X113603124Y-139360392D01*
X113579113Y-139366918D01*
X113555481Y-139374131D01*
X113532226Y-139382031D01*
X113509350Y-139390617D01*
X113486851Y-139399891D01*
X113464730Y-139409851D01*
X113442986Y-139420499D01*
X113421792Y-139431734D01*
X113401198Y-139443458D01*
X113381202Y-139455670D01*
X113361806Y-139468370D01*
X113343009Y-139481560D01*
X113324811Y-139495237D01*
X113307212Y-139509403D01*
X113290212Y-139524058D01*
X113273812Y-139539201D01*
X113258010Y-139554832D01*
X113242808Y-139570952D01*
X113228205Y-139587561D01*
X113214201Y-139604658D01*
X113200797Y-139622243D01*
X113187991Y-139640317D01*
X113175785Y-139658880D01*
X113164227Y-139677807D01*
X113153368Y-139696974D01*
X113143207Y-139716382D01*
X113133744Y-139736030D01*
X113124980Y-139755919D01*
X113116914Y-139776048D01*
X113109547Y-139796417D01*
X113102878Y-139817027D01*
X113096907Y-139837877D01*
X113091635Y-139858968D01*
X113087061Y-139880299D01*
X113083186Y-139901871D01*
X113080009Y-139923683D01*
X113077530Y-139945735D01*
X113075750Y-139968028D01*
X113074668Y-139990562D01*
X113072226Y-140098517D01*
X111655852Y-140098517D01*
X111655129Y-140091190D01*
X111654478Y-140078111D01*
X111653581Y-140057993D01*
X111652778Y-140037273D01*
X111652069Y-140015952D01*
X111651455Y-139994031D01*
X111650936Y-139971508D01*
X111650511Y-139948384D01*
X111650180Y-139924659D01*
X111649944Y-139900333D01*
X111649802Y-139875406D01*
X111649755Y-139849878D01*
X111649761Y-139840947D01*
X111649839Y-139814692D01*
X111650012Y-139789244D01*
X111650280Y-139764603D01*
X111650642Y-139740769D01*
X111651099Y-139717742D01*
X111651650Y-139695523D01*
X111652295Y-139674111D01*
X111653035Y-139653506D01*
X111653869Y-139633708D01*
X111655129Y-139608566D01*
X111656812Y-139589864D01*
X111660381Y-139562663D01*
X111665204Y-139536484D01*
X111671280Y-139511326D01*
X111678610Y-139487191D01*
X111687194Y-139464077D01*
X111697032Y-139441985D01*
X111708123Y-139420914D01*
X111720467Y-139400866D01*
X111734066Y-139381839D01*
X111748918Y-139363835D01*
X111765221Y-139347161D01*
X111783173Y-139332127D01*
X111802773Y-139318733D01*
X111824023Y-139306979D01*
X111846920Y-139296866D01*
X111871467Y-139288392D01*
X111897662Y-139281559D01*
X111925505Y-139276365D01*
X111944984Y-139273814D01*
X111965195Y-139271992D01*
X111986139Y-139270898D01*
X112007815Y-139270534D01*
X112028460Y-139270793D01*
X112048382Y-139271572D01*
X112076915Y-139273713D01*
X112103824Y-139277021D01*
X112129110Y-139281498D01*
X112152773Y-139287142D01*
X112174814Y-139293954D01*
X112195232Y-139301934D01*
X112214026Y-139311082D01*
X112231198Y-139321397D01*
X112251570Y-139336968D01*
X112269796Y-139354027D01*
X112286618Y-139371986D01*
X112302036Y-139390846D01*
X112316050Y-139410607D01*
X112328659Y-139431268D01*
X112339863Y-139452831D01*
X112349664Y-139475293D01*
X112358060Y-139498657D01*
X112362212Y-139510495D01*
X112369478Y-139528824D01*
X112378820Y-139547925D01*
X112391277Y-139565579D01*
X112393522Y-139567649D01*
X112411566Y-139577267D01*
X112432584Y-139581608D01*
X112453314Y-139582676D01*
X112820167Y-139582676D01*
X112827785Y-139582235D01*
X112847340Y-139576304D01*
X112863154Y-139564602D01*
X112867504Y-139559862D01*
X112878163Y-139541710D01*
X112881716Y-139521127D01*
X112880907Y-139497794D01*
X112879213Y-139474690D01*
X112876633Y-139451815D01*
X112873168Y-139429169D01*
X112868817Y-139406753D01*
X112863581Y-139384565D01*
X112857460Y-139362606D01*
X112850453Y-139340876D01*
X112842561Y-139319375D01*
X112833784Y-139298103D01*
X112824121Y-139277060D01*
X112813572Y-139256246D01*
X112802139Y-139235660D01*
X112789820Y-139215304D01*
X112776615Y-139195177D01*
X112762526Y-139175279D01*
X112747671Y-139155753D01*
X112732171Y-139136742D01*
X112716026Y-139118246D01*
X112699236Y-139100266D01*
X112681801Y-139082801D01*
X112663722Y-139065851D01*
X112644997Y-139049416D01*
X112625628Y-139033496D01*
X112605613Y-139018092D01*
X112584953Y-139003202D01*
X112563649Y-138988828D01*
X112541700Y-138974969D01*
X112519105Y-138961626D01*
X112495866Y-138948797D01*
X112471982Y-138936484D01*
X112447452Y-138924686D01*
X112422437Y-138913506D01*
X112397093Y-138903048D01*
X112371420Y-138893310D01*
X112345420Y-138884294D01*
X112319091Y-138876000D01*
X112292435Y-138868426D01*
X112265449Y-138861574D01*
X112238136Y-138855443D01*
X112210495Y-138850033D01*
X112182525Y-138845345D01*
X112154227Y-138841378D01*
X112125601Y-138838132D01*
X112096647Y-138835608D01*
X112067365Y-138833805D01*
X112037754Y-138832723D01*
X112007815Y-138832362D01*
X111975526Y-138832765D01*
X111943747Y-138833973D01*
X111912480Y-138835986D01*
X111881725Y-138838804D01*
X111851481Y-138842428D01*
X111821748Y-138846856D01*
X111792527Y-138852090D01*
X111763817Y-138858130D01*
X111735618Y-138864974D01*
X111707931Y-138872624D01*
X111680755Y-138881079D01*
X111654091Y-138890339D01*
X111627938Y-138900405D01*
X111602296Y-138911275D01*
X111577166Y-138922951D01*
X111552547Y-138935433D01*
X111528588Y-138948591D01*
X111505316Y-138962299D01*
X111482731Y-138976557D01*
X111460833Y-138991364D01*
X111439622Y-139006721D01*
X111419098Y-139022627D01*
X111399261Y-139039083D01*
X111380111Y-139056089D01*
X111361648Y-139073643D01*
X111343872Y-139091748D01*
X111326782Y-139110402D01*
X111310380Y-139129606D01*
X111294664Y-139149359D01*
X111279636Y-139169661D01*
X111265294Y-139190514D01*
X111251639Y-139211915D01*
X111238771Y-139233743D01*
X111226666Y-139255872D01*
X111215324Y-139278302D01*
X111204745Y-139301034D01*
X111194929Y-139324067D01*
X111185877Y-139347402D01*
X111177588Y-139371038D01*
X111170062Y-139394975D01*
X111163300Y-139419215D01*
X111157301Y-139443755D01*
X111152065Y-139468598D01*
X111147592Y-139493741D01*
X111143883Y-139519186D01*
X111140936Y-139544933D01*
X111138753Y-139570981D01*
X111137334Y-139597331D01*
X111136624Y-139618916D01*
X111135960Y-139639951D01*
X111135342Y-139660437D01*
X111134769Y-139680373D01*
X111133996Y-139709247D01*
X111133327Y-139736885D01*
X111132760Y-139763286D01*
X111132296Y-139788451D01*
X111131936Y-139812379D01*
X111131678Y-139835071D01*
X111131523Y-139856526D01*
X111131472Y-139876745D01*
X110304954Y-139876745D01*
X110304954Y-139781001D01*
X110303177Y-139764858D01*
X110295277Y-139745258D01*
X110282484Y-139729222D01*
X110267629Y-139717630D01*
X110249415Y-139709837D01*
X110229239Y-139707240D01*
X109448150Y-139707240D01*
X109448150Y-139301797D01*
X110285415Y-139301797D01*
X110303790Y-139299650D01*
X110322020Y-139292330D01*
X110338171Y-139279815D01*
X110349033Y-139266832D01*
X110357986Y-139247598D01*
X110360642Y-139228036D01*
X110360642Y-138937387D01*
X110358864Y-138921244D01*
X110350964Y-138901643D01*
X110338171Y-138885607D01*
X110323574Y-138874015D01*
X110305533Y-138866223D01*
X110285415Y-138863625D01*
X109005582Y-138863625D01*
X108987159Y-138865820D01*
X108968767Y-138873302D01*
X108952337Y-138886096D01*
X108940488Y-138900998D01*
X108932522Y-138919375D01*
X108929867Y-138939829D01*
X108929867Y-140756996D01*
X108628462Y-140756996D01*
X108621632Y-140739410D01*
X108274808Y-140062369D01*
X108295304Y-140052507D01*
X108315150Y-140042154D01*
X108334345Y-140031311D01*
X108352889Y-140019978D01*
X108370783Y-140008154D01*
X108388026Y-139995840D01*
X108404618Y-139983035D01*
X108420560Y-139969740D01*
X108435850Y-139955955D01*
X108450491Y-139941679D01*
X108464480Y-139926913D01*
X108477819Y-139911656D01*
X108490507Y-139895909D01*
X108502545Y-139879672D01*
X108513932Y-139862944D01*
X108524668Y-139845726D01*
X108534754Y-139828017D01*
X108544188Y-139809818D01*
X108552973Y-139791129D01*
X108561106Y-139771949D01*
X108568589Y-139752279D01*
X108575421Y-139732118D01*
X108581602Y-139711467D01*
X108587133Y-139690326D01*
X108592013Y-139668694D01*
X108596243Y-139646572D01*
X108599821Y-139623960D01*
X108602749Y-139600857D01*
X108605027Y-139577264D01*
X108606653Y-139553180D01*
X108607629Y-139528606D01*
X108607955Y-139503541D01*
X108607144Y-139464346D01*
X108604711Y-139426384D01*
X108600656Y-139389654D01*
X108594979Y-139354156D01*
X108587681Y-139319892D01*
X108578760Y-139286860D01*
X108568218Y-139255061D01*
X108556053Y-139224494D01*
X108542267Y-139195160D01*
X108526859Y-139167059D01*
X108509828Y-139140190D01*
X108491176Y-139114554D01*
X108470902Y-139090151D01*
X108449006Y-139066980D01*
X108425488Y-139045042D01*
X108400348Y-139024337D01*
X108387239Y-139014449D01*
X108360037Y-138995616D01*
X108331522Y-138978038D01*
X108301693Y-138961716D01*
X108270552Y-138946649D01*
X108238099Y-138932838D01*
X108204332Y-138920282D01*
X108169253Y-138908982D01*
X108132861Y-138898938D01*
X108095156Y-138890149D01*
X108075811Y-138886225D01*
X108056138Y-138882616D01*
X108036137Y-138879320D01*
X108015807Y-138876338D01*
X107995150Y-138873670D01*
X107974164Y-138871315D01*
X107952850Y-138869275D01*
X107931208Y-138867549D01*
X107909237Y-138866136D01*
X107886939Y-138865038D01*
X107864312Y-138864253D01*
X107841357Y-138863782D01*
X107818073Y-138863625D01*
X107059455Y-138863625D01*
X107041032Y-138865820D01*
X107022640Y-138873302D01*
X107006210Y-138886096D01*
X106994361Y-138900998D01*
X106986395Y-138919375D01*
X106983740Y-138939829D01*
X106983740Y-139301797D01*
X106983740Y-140756996D01*
X106654989Y-140756996D01*
X106654989Y-139978350D01*
X106654830Y-139958327D01*
X106654354Y-139938620D01*
X106652447Y-139900154D01*
X106649270Y-139862951D01*
X106644822Y-139827011D01*
X106639104Y-139792334D01*
X106632114Y-139758920D01*
X106623854Y-139726770D01*
X106614323Y-139695883D01*
X106603521Y-139666259D01*
X106591448Y-139637898D01*
X106578104Y-139610800D01*
X106563490Y-139584966D01*
X106547604Y-139560395D01*
X106530448Y-139537087D01*
X106512021Y-139515042D01*
X106492323Y-139494260D01*
X106471580Y-139474681D01*
X106449894Y-139456364D01*
X106427265Y-139439311D01*
X106403694Y-139423521D01*
X106379180Y-139408995D01*
X106353723Y-139395731D01*
X106327324Y-139383731D01*
X106299982Y-139372994D01*
X106271698Y-139363520D01*
X106242470Y-139355309D01*
X106212301Y-139348361D01*
X106181188Y-139342677D01*
X106149133Y-139338256D01*
X106116136Y-139335098D01*
X106082196Y-139333203D01*
X106047313Y-139332571D01*
X106014916Y-139333249D01*
X105983550Y-139335281D01*
X105953214Y-139338668D01*
X105923909Y-139343410D01*
X105895634Y-139349506D01*
X105868390Y-139356958D01*
X105842176Y-139365764D01*
X105816992Y-139375925D01*
X105792838Y-139387440D01*
X105769716Y-139400311D01*
X105747623Y-139414536D01*
X105726561Y-139430116D01*
X105706529Y-139447051D01*
X105687528Y-139465340D01*
X105669557Y-139484985D01*
X105652616Y-139505984D01*
X105652616Y-139440527D01*
X105650422Y-139421846D01*
X105642939Y-139403281D01*
X105630146Y-139386793D01*
X105615291Y-139374686D01*
X105597077Y-139366547D01*
X105576901Y-139363835D01*
X105237892Y-139363835D01*
X105219469Y-139366077D01*
X105201077Y-139373722D01*
X105184647Y-139386793D01*
X105172797Y-139401648D01*
X105164832Y-139419862D01*
X105162177Y-139440038D01*
X105162177Y-140756996D01*
X104576463Y-140756996D01*
X104576463Y-138246648D01*
X126004416Y-138246648D01*
X126004416Y-141450177D01*
G37*
D10*
G36*
X93852247Y-108727117D02*
G01*
X93862335Y-108728445D01*
X93871442Y-108732428D01*
X93878870Y-108738353D01*
X93885266Y-108746567D01*
X93889008Y-108755763D01*
X93890105Y-108764975D01*
X93890105Y-108816755D01*
X93888777Y-108826843D01*
X93884794Y-108835950D01*
X93878870Y-108843377D01*
X93870655Y-108849774D01*
X93861459Y-108853515D01*
X93852247Y-108854612D01*
X93574055Y-108854612D01*
X93574055Y-109128897D01*
X93572698Y-109138985D01*
X93568629Y-109148092D01*
X93562575Y-109155519D01*
X93554192Y-109161916D01*
X93544828Y-109165657D01*
X93535464Y-109166755D01*
X93491012Y-109166755D01*
X93480756Y-109165427D01*
X93471481Y-109161444D01*
X93463901Y-109155519D01*
X93457365Y-109147305D01*
X93453543Y-109138108D01*
X93452422Y-109128897D01*
X93452422Y-108854612D01*
X93177648Y-108854612D01*
X93167560Y-108853285D01*
X93158453Y-108849302D01*
X93151026Y-108843377D01*
X93144629Y-108835162D01*
X93140888Y-108825966D01*
X93139791Y-108816755D01*
X93139791Y-108764975D01*
X93141118Y-108754887D01*
X93145101Y-108745780D01*
X93151026Y-108738353D01*
X93159241Y-108731956D01*
X93168437Y-108728215D01*
X93177648Y-108727117D01*
X93452422Y-108727117D01*
X93452422Y-108451367D01*
X93453778Y-108441279D01*
X93457848Y-108432172D01*
X93463901Y-108424745D01*
X93472284Y-108418348D01*
X93481648Y-108414607D01*
X93491012Y-108413510D01*
X93535464Y-108413510D01*
X93545720Y-108414837D01*
X93554995Y-108418820D01*
X93562575Y-108424745D01*
X93569111Y-108432960D01*
X93572934Y-108442156D01*
X93574055Y-108451367D01*
X93574055Y-108727117D01*
X93852247Y-108727117D01*
G37*
G36*
X93830998Y-107946762D02*
G01*
X93830791Y-107934833D01*
X93830170Y-107923165D01*
X93829135Y-107911759D01*
X93827686Y-107900615D01*
X93825822Y-107889732D01*
X93823545Y-107879110D01*
X93820853Y-107868750D01*
X93817748Y-107858651D01*
X93814228Y-107848813D01*
X93810295Y-107839237D01*
X93805947Y-107829923D01*
X93801185Y-107820870D01*
X93796009Y-107812078D01*
X93790419Y-107803547D01*
X93784415Y-107795278D01*
X93777997Y-107787271D01*
X93771193Y-107779640D01*
X93764030Y-107772502D01*
X93756508Y-107765856D01*
X93748627Y-107759702D01*
X93740388Y-107754041D01*
X93731790Y-107748871D01*
X93722833Y-107744195D01*
X93713517Y-107740010D01*
X93703843Y-107736318D01*
X93693810Y-107733118D01*
X93683418Y-107730410D01*
X93672668Y-107728195D01*
X93661558Y-107726472D01*
X93650090Y-107725241D01*
X93638264Y-107724502D01*
X93626078Y-107724256D01*
X93613893Y-107724502D01*
X93602066Y-107725241D01*
X93590598Y-107726472D01*
X93579489Y-107728195D01*
X93568739Y-107730410D01*
X93558347Y-107733118D01*
X93548314Y-107736318D01*
X93538639Y-107740010D01*
X93529324Y-107744195D01*
X93520367Y-107748871D01*
X93511769Y-107754041D01*
X93503530Y-107759702D01*
X93495649Y-107765856D01*
X93488127Y-107772502D01*
X93480964Y-107779640D01*
X93474159Y-107787271D01*
X93467741Y-107795278D01*
X93461737Y-107803547D01*
X93456147Y-107812078D01*
X93450971Y-107820870D01*
X93446210Y-107829923D01*
X93441862Y-107839237D01*
X93437928Y-107848813D01*
X93434409Y-107858651D01*
X93431303Y-107868750D01*
X93428612Y-107879110D01*
X93426334Y-107889732D01*
X93424471Y-107900615D01*
X93423022Y-107911759D01*
X93421987Y-107923165D01*
X93421366Y-107934833D01*
X93421159Y-107946762D01*
X93421277Y-107957302D01*
X93421631Y-107967401D01*
X93422470Y-107980178D01*
X93423730Y-107992169D01*
X93425409Y-108003373D01*
X93427508Y-108013792D01*
X93430027Y-108023424D01*
X93433765Y-108034359D01*
X93434592Y-108036399D01*
X93439011Y-108046474D01*
X93443870Y-108056549D01*
X93449171Y-108066624D01*
X93454914Y-108076699D01*
X93461097Y-108086774D01*
X93467722Y-108096849D01*
X93470496Y-108100879D01*
X93476449Y-108109000D01*
X93482198Y-108117406D01*
X93487407Y-108125840D01*
X93489547Y-108129699D01*
X93493416Y-108139007D01*
X93495500Y-108149346D01*
X93495897Y-108156810D01*
X93495897Y-108228129D01*
X93494405Y-108237884D01*
X93489463Y-108247127D01*
X93486860Y-108250111D01*
X93478953Y-108255962D01*
X93469176Y-108258928D01*
X93465367Y-108259148D01*
X92988849Y-108217138D01*
X92979096Y-108215811D01*
X92969577Y-108211334D01*
X92963203Y-108205903D01*
X92956946Y-108197688D01*
X92953286Y-108188492D01*
X92952212Y-108179281D01*
X92952212Y-107684933D01*
X92953511Y-107674874D01*
X92957407Y-107665854D01*
X92963203Y-107658555D01*
X92971053Y-107652158D01*
X92980670Y-107648209D01*
X92988605Y-107647320D01*
X93037453Y-107647320D01*
X93047929Y-107648900D01*
X93057374Y-107653640D01*
X93063099Y-107658555D01*
X93069217Y-107666631D01*
X93072796Y-107675745D01*
X93073845Y-107684933D01*
X93073845Y-108092330D01*
X93330545Y-108114801D01*
X93325001Y-108101205D01*
X93321608Y-108091893D01*
X93318458Y-108082383D01*
X93315550Y-108072674D01*
X93312884Y-108062767D01*
X93310461Y-108052662D01*
X93308280Y-108042358D01*
X93306341Y-108031855D01*
X93304645Y-108021154D01*
X93303191Y-108010255D01*
X93301979Y-107999157D01*
X93301010Y-107987861D01*
X93300283Y-107976366D01*
X93299798Y-107964673D01*
X93299556Y-107952782D01*
X93299526Y-107946762D01*
X93299680Y-107934410D01*
X93300144Y-107922207D01*
X93300917Y-107910154D01*
X93301999Y-107898249D01*
X93303390Y-107886493D01*
X93305090Y-107874885D01*
X93307099Y-107863427D01*
X93309418Y-107852117D01*
X93312045Y-107840957D01*
X93314982Y-107829945D01*
X93318227Y-107819082D01*
X93321782Y-107808367D01*
X93325646Y-107797802D01*
X93329819Y-107787385D01*
X93334302Y-107777118D01*
X93339093Y-107766999D01*
X93344175Y-107757053D01*
X93349531Y-107747364D01*
X93355159Y-107737933D01*
X93361060Y-107728760D01*
X93367233Y-107719844D01*
X93373680Y-107711185D01*
X93380400Y-107702785D01*
X93387392Y-107694642D01*
X93394657Y-107686756D01*
X93402195Y-107679129D01*
X93410006Y-107671758D01*
X93418090Y-107664646D01*
X93426447Y-107657791D01*
X93435077Y-107651193D01*
X93443979Y-107644854D01*
X93453154Y-107638771D01*
X93462531Y-107633004D01*
X93472099Y-107627609D01*
X93481857Y-107622585D01*
X93491806Y-107617934D01*
X93501946Y-107613655D01*
X93512276Y-107609748D01*
X93522798Y-107606214D01*
X93533510Y-107603051D01*
X93544413Y-107600260D01*
X93555507Y-107597842D01*
X93566792Y-107595795D01*
X93578268Y-107594121D01*
X93589934Y-107592818D01*
X93601791Y-107591888D01*
X93613839Y-107591330D01*
X93626078Y-107591144D01*
X93638318Y-107591330D01*
X93650369Y-107591888D01*
X93662231Y-107592818D01*
X93673904Y-107594121D01*
X93685388Y-107595795D01*
X93696684Y-107597842D01*
X93707790Y-107600260D01*
X93718707Y-107603051D01*
X93729436Y-107606214D01*
X93739976Y-107609748D01*
X93750326Y-107613655D01*
X93760488Y-107617934D01*
X93770461Y-107622585D01*
X93780245Y-107627609D01*
X93789840Y-107633004D01*
X93799247Y-107638771D01*
X93808392Y-107644854D01*
X93817267Y-107651193D01*
X93825871Y-107657791D01*
X93834204Y-107664646D01*
X93842266Y-107671758D01*
X93850057Y-107679129D01*
X93857577Y-107686756D01*
X93864826Y-107694642D01*
X93871804Y-107702785D01*
X93878511Y-107711185D01*
X93884947Y-107719844D01*
X93891112Y-107728760D01*
X93897007Y-107737933D01*
X93902630Y-107747364D01*
X93907982Y-107757053D01*
X93913064Y-107766999D01*
X93917855Y-107777118D01*
X93922337Y-107787385D01*
X93926510Y-107797802D01*
X93930374Y-107808367D01*
X93933929Y-107819082D01*
X93937175Y-107829945D01*
X93940112Y-107840957D01*
X93942739Y-107852117D01*
X93945058Y-107863427D01*
X93947067Y-107874885D01*
X93948767Y-107886493D01*
X93950158Y-107898249D01*
X93951240Y-107910154D01*
X93952013Y-107922207D01*
X93952476Y-107934410D01*
X93952631Y-107946762D01*
X93952498Y-107958289D01*
X93952101Y-107969728D01*
X93951437Y-107981080D01*
X93950509Y-107992343D01*
X93949316Y-108003519D01*
X93947857Y-108014608D01*
X93946133Y-108025608D01*
X93944144Y-108036521D01*
X93941889Y-108047346D01*
X93939369Y-108058083D01*
X93936584Y-108068732D01*
X93933534Y-108079294D01*
X93930219Y-108089768D01*
X93926638Y-108100154D01*
X93922792Y-108110452D01*
X93918681Y-108120662D01*
X93914332Y-108130674D01*
X93909770Y-108140435D01*
X93904997Y-108149946D01*
X93900012Y-108159207D01*
X93894815Y-108168218D01*
X93889406Y-108176980D01*
X93883786Y-108185491D01*
X93877954Y-108193752D01*
X93871910Y-108201763D01*
X93865654Y-108209525D01*
X93859186Y-108217036D01*
X93852507Y-108224298D01*
X93845615Y-108231309D01*
X93838512Y-108238071D01*
X93831198Y-108244582D01*
X93823671Y-108250844D01*
X93812087Y-108259587D01*
X93800232Y-108267496D01*
X93788107Y-108274573D01*
X93775711Y-108280817D01*
X93763045Y-108286228D01*
X93750109Y-108290806D01*
X93736902Y-108294551D01*
X93723424Y-108297464D01*
X93709676Y-108299543D01*
X93695658Y-108300790D01*
X93686162Y-108301158D01*
X93675917Y-108299428D01*
X93666981Y-108294239D01*
X93664669Y-108292121D01*
X93658818Y-108284016D01*
X93655852Y-108274025D01*
X93655632Y-108270139D01*
X93655632Y-108205903D01*
X93657043Y-108196068D01*
X93661275Y-108187200D01*
X93664180Y-108183433D01*
X93671895Y-108176422D01*
X93680733Y-108171596D01*
X93686651Y-108169511D01*
X93698653Y-108165696D01*
X93710204Y-108161122D01*
X93721304Y-108155787D01*
X93731954Y-108149693D01*
X93742153Y-108142839D01*
X93751901Y-108135224D01*
X93761198Y-108126850D01*
X93770044Y-108117716D01*
X93778440Y-108107822D01*
X93786385Y-108097168D01*
X93791431Y-108089644D01*
X93798502Y-108077929D01*
X93804877Y-108065867D01*
X93810558Y-108053457D01*
X93815542Y-108040700D01*
X93819831Y-108027594D01*
X93823425Y-108014141D01*
X93826323Y-108000340D01*
X93828525Y-107986191D01*
X93830032Y-107971695D01*
X93830650Y-107961838D01*
X93830959Y-107951826D01*
X93830998Y-107946762D01*
G37*
G36*
X92987383Y-106807369D02*
G01*
X92977251Y-106802755D01*
X92968836Y-106796697D01*
X92962139Y-106789197D01*
X92957158Y-106780254D01*
X92953895Y-106769868D01*
X92952350Y-106758038D01*
X92952212Y-106752903D01*
X92952212Y-106701123D01*
X92954188Y-106691408D01*
X92960113Y-106682903D01*
X92964180Y-106679385D01*
X92972789Y-106674240D01*
X92982494Y-106671231D01*
X92992268Y-106670348D01*
X93002324Y-106671736D01*
X93006190Y-106673035D01*
X93881312Y-106975408D01*
X93890792Y-106978974D01*
X93900810Y-106984046D01*
X93909705Y-106990100D01*
X93917479Y-106997136D01*
X93922345Y-107002763D01*
X93928055Y-107011435D01*
X93932363Y-107020995D01*
X93935268Y-107031444D01*
X93936771Y-107042781D01*
X93937000Y-107049658D01*
X93937000Y-107105589D01*
X93936510Y-107115525D01*
X93934335Y-107127772D01*
X93930419Y-107138873D01*
X93924764Y-107148830D01*
X93917368Y-107157642D01*
X93908231Y-107165309D01*
X93897355Y-107171831D01*
X93888056Y-107175971D01*
X93881312Y-107178374D01*
X93006190Y-107482212D01*
X92996671Y-107484856D01*
X92992268Y-107485143D01*
X92982494Y-107484260D01*
X92972789Y-107481251D01*
X92964180Y-107476106D01*
X92956887Y-107468664D01*
X92952785Y-107459517D01*
X92952212Y-107454124D01*
X92952212Y-107402344D01*
X92952762Y-107392304D01*
X92954994Y-107381051D01*
X92958944Y-107371242D01*
X92964611Y-107362876D01*
X92971996Y-107355953D01*
X92981098Y-107350473D01*
X92987383Y-107347878D01*
X93797781Y-107077745D01*
X92987383Y-106807369D01*
G37*
X65762142Y-104401000D02*
X66905000Y-104401000D01*
X66333571Y-104972428D02*
X66333571Y-103829571D01*
G36*
X106356668Y-126643782D02*
G01*
X106367469Y-126644414D01*
X106377996Y-126645467D01*
X106388251Y-126646941D01*
X106398232Y-126648837D01*
X106407940Y-126651155D01*
X106417374Y-126653893D01*
X106426536Y-126657053D01*
X106435424Y-126660634D01*
X106444039Y-126664637D01*
X106452381Y-126669061D01*
X106460449Y-126673906D01*
X106468244Y-126679172D01*
X106475766Y-126684860D01*
X106483015Y-126690969D01*
X106489990Y-126697500D01*
X106496652Y-126704418D01*
X106502911Y-126711739D01*
X106508766Y-126719463D01*
X106514219Y-126727590D01*
X106519269Y-126736121D01*
X106523915Y-126745054D01*
X106528159Y-126754390D01*
X106532000Y-126764129D01*
X106535438Y-126774271D01*
X106538472Y-126784817D01*
X106541104Y-126795765D01*
X106543333Y-126807116D01*
X106545159Y-126818870D01*
X106546581Y-126831027D01*
X106547601Y-126843587D01*
X106548218Y-126856551D01*
X106548502Y-126864963D01*
X106548767Y-126873055D01*
X106549131Y-126884592D01*
X106549454Y-126895408D01*
X106549736Y-126905503D01*
X106549976Y-126914876D01*
X106550175Y-126923528D01*
X106550377Y-126933942D01*
X106550505Y-126943073D01*
X106550562Y-126952685D01*
X106550553Y-126956289D01*
X106550480Y-126964459D01*
X106550333Y-126973911D01*
X106550175Y-126981842D01*
X106549976Y-126990493D01*
X106549736Y-126999867D01*
X106549454Y-127009961D01*
X106549131Y-127020777D01*
X106548767Y-127032314D01*
X106548502Y-127040406D01*
X106548218Y-127048819D01*
X106547601Y-127061783D01*
X106546581Y-127074345D01*
X106545159Y-127086506D01*
X106543333Y-127098266D01*
X106541104Y-127109624D01*
X106538472Y-127120580D01*
X106535438Y-127131135D01*
X106532000Y-127141289D01*
X106528159Y-127151041D01*
X106523915Y-127160392D01*
X106519269Y-127169341D01*
X106514219Y-127177889D01*
X106508766Y-127186035D01*
X106502911Y-127193780D01*
X106496652Y-127201123D01*
X106489990Y-127208065D01*
X106483015Y-127214572D01*
X106475766Y-127220659D01*
X106468244Y-127226326D01*
X106460449Y-127231573D01*
X106452381Y-127236401D01*
X106444039Y-127240809D01*
X106435424Y-127244797D01*
X106426536Y-127248365D01*
X106417374Y-127251513D01*
X106407940Y-127254242D01*
X106398232Y-127256551D01*
X106388251Y-127258440D01*
X106377996Y-127259909D01*
X106367469Y-127260959D01*
X106356668Y-127261588D01*
X106345594Y-127261798D01*
X106334519Y-127261588D01*
X106323716Y-127260959D01*
X106313184Y-127259909D01*
X106302925Y-127258440D01*
X106292937Y-127256551D01*
X106283220Y-127254242D01*
X106273776Y-127251513D01*
X106264603Y-127248365D01*
X106255702Y-127244797D01*
X106247072Y-127240809D01*
X106238715Y-127236401D01*
X106230629Y-127231573D01*
X106222814Y-127226326D01*
X106215272Y-127220659D01*
X106208001Y-127214572D01*
X106201002Y-127208065D01*
X106194363Y-127201123D01*
X106188124Y-127193780D01*
X106182285Y-127186035D01*
X106176846Y-127177889D01*
X106171807Y-127169341D01*
X106167168Y-127160392D01*
X106162929Y-127151041D01*
X106159090Y-127141289D01*
X106155651Y-127131135D01*
X106152611Y-127120580D01*
X106149972Y-127109624D01*
X106147733Y-127098266D01*
X106145893Y-127086506D01*
X106144454Y-127074345D01*
X106143414Y-127061783D01*
X106142775Y-127048819D01*
X106142546Y-127039794D01*
X106142347Y-127029914D01*
X106142218Y-127021944D01*
X106142107Y-127013492D01*
X106142012Y-127004560D01*
X106141935Y-126995146D01*
X106141875Y-126985252D01*
X106141832Y-126974877D01*
X106141806Y-126964021D01*
X106141798Y-126952685D01*
X106141806Y-126941348D01*
X106141832Y-126930492D01*
X106141875Y-126920117D01*
X106141935Y-126910223D01*
X106142012Y-126900810D01*
X106142107Y-126891877D01*
X106142218Y-126883426D01*
X106142347Y-126875455D01*
X106142546Y-126865575D01*
X106142775Y-126856551D01*
X106143414Y-126843587D01*
X106144454Y-126831027D01*
X106145893Y-126818870D01*
X106147733Y-126807116D01*
X106149972Y-126795765D01*
X106152611Y-126784817D01*
X106155651Y-126774271D01*
X106159090Y-126764129D01*
X106162929Y-126754390D01*
X106167168Y-126745054D01*
X106171807Y-126736121D01*
X106176846Y-126727590D01*
X106182285Y-126719463D01*
X106188124Y-126711739D01*
X106194363Y-126704418D01*
X106201002Y-126697500D01*
X106208001Y-126690969D01*
X106215272Y-126684860D01*
X106222814Y-126679172D01*
X106230629Y-126673906D01*
X106238715Y-126669061D01*
X106247072Y-126664637D01*
X106255702Y-126660634D01*
X106264603Y-126657053D01*
X106273776Y-126653893D01*
X106283220Y-126651155D01*
X106292937Y-126648837D01*
X106302925Y-126646941D01*
X106313184Y-126645467D01*
X106323716Y-126644414D01*
X106334519Y-126643782D01*
X106345594Y-126643571D01*
X106356668Y-126643782D01*
G37*
G36*
X105604009Y-126643782D02*
G01*
X105614810Y-126644414D01*
X105625338Y-126645467D01*
X105635592Y-126646941D01*
X105645573Y-126648837D01*
X105655281Y-126651155D01*
X105664716Y-126653893D01*
X105673877Y-126657053D01*
X105682765Y-126660634D01*
X105691380Y-126664637D01*
X105699722Y-126669061D01*
X105707790Y-126673906D01*
X105715585Y-126679172D01*
X105723107Y-126684860D01*
X105730356Y-126690969D01*
X105737331Y-126697500D01*
X105743993Y-126704418D01*
X105750252Y-126711739D01*
X105756108Y-126719463D01*
X105761560Y-126727590D01*
X105766610Y-126736121D01*
X105771257Y-126745054D01*
X105775500Y-126754390D01*
X105779341Y-126764129D01*
X105782779Y-126774271D01*
X105785814Y-126784817D01*
X105788445Y-126795765D01*
X105790674Y-126807116D01*
X105792500Y-126818870D01*
X105793922Y-126831027D01*
X105794942Y-126843587D01*
X105795559Y-126856551D01*
X105795843Y-126864963D01*
X105796108Y-126873055D01*
X105796473Y-126884592D01*
X105796795Y-126895408D01*
X105797077Y-126905503D01*
X105797317Y-126914876D01*
X105797517Y-126923528D01*
X105797718Y-126933942D01*
X105797846Y-126943073D01*
X105797904Y-126952685D01*
X105797894Y-126956289D01*
X105797821Y-126964459D01*
X105797675Y-126973911D01*
X105797517Y-126981842D01*
X105797317Y-126990493D01*
X105797077Y-126999867D01*
X105796795Y-127009961D01*
X105796473Y-127020777D01*
X105796108Y-127032314D01*
X105795843Y-127040406D01*
X105795559Y-127048819D01*
X105794942Y-127061783D01*
X105793922Y-127074345D01*
X105792500Y-127086506D01*
X105790674Y-127098266D01*
X105788445Y-127109624D01*
X105785814Y-127120580D01*
X105782779Y-127131135D01*
X105779341Y-127141289D01*
X105775500Y-127151041D01*
X105771257Y-127160392D01*
X105766610Y-127169341D01*
X105761560Y-127177889D01*
X105756108Y-127186035D01*
X105750252Y-127193780D01*
X105743993Y-127201123D01*
X105737331Y-127208065D01*
X105730356Y-127214572D01*
X105723107Y-127220659D01*
X105715585Y-127226326D01*
X105707790Y-127231573D01*
X105699722Y-127236401D01*
X105691380Y-127240809D01*
X105682765Y-127244797D01*
X105673877Y-127248365D01*
X105664716Y-127251513D01*
X105655281Y-127254242D01*
X105645573Y-127256551D01*
X105635592Y-127258440D01*
X105625338Y-127259909D01*
X105614810Y-127260959D01*
X105604009Y-127261588D01*
X105592935Y-127261798D01*
X105581860Y-127261588D01*
X105571057Y-127260959D01*
X105560526Y-127259909D01*
X105550266Y-127258440D01*
X105540278Y-127256551D01*
X105530562Y-127254242D01*
X105521117Y-127251513D01*
X105511944Y-127248365D01*
X105503043Y-127244797D01*
X105494414Y-127240809D01*
X105486056Y-127236401D01*
X105477970Y-127231573D01*
X105470156Y-127226326D01*
X105462613Y-127220659D01*
X105455342Y-127214572D01*
X105448343Y-127208065D01*
X105441704Y-127201123D01*
X105435466Y-127193780D01*
X105429627Y-127186035D01*
X105424188Y-127177889D01*
X105419149Y-127169341D01*
X105414510Y-127160392D01*
X105410270Y-127151041D01*
X105406431Y-127141289D01*
X105402992Y-127131135D01*
X105399953Y-127120580D01*
X105397313Y-127109624D01*
X105395074Y-127098266D01*
X105393234Y-127086506D01*
X105391795Y-127074345D01*
X105390755Y-127061783D01*
X105390116Y-127048819D01*
X105389887Y-127039794D01*
X105389688Y-127029914D01*
X105389560Y-127021944D01*
X105389448Y-127013492D01*
X105389353Y-127004560D01*
X105389276Y-126995146D01*
X105389216Y-126985252D01*
X105389173Y-126974877D01*
X105389147Y-126964021D01*
X105389139Y-126952685D01*
X105389147Y-126941348D01*
X105389173Y-126930492D01*
X105389216Y-126920117D01*
X105389276Y-126910223D01*
X105389353Y-126900810D01*
X105389448Y-126891877D01*
X105389560Y-126883426D01*
X105389688Y-126875455D01*
X105389887Y-126865575D01*
X105390116Y-126856551D01*
X105390755Y-126843587D01*
X105391795Y-126831027D01*
X105393234Y-126818870D01*
X105395074Y-126807116D01*
X105397313Y-126795765D01*
X105399953Y-126784817D01*
X105402992Y-126774271D01*
X105406431Y-126764129D01*
X105410270Y-126754390D01*
X105414510Y-126745054D01*
X105419149Y-126736121D01*
X105424188Y-126727590D01*
X105429627Y-126719463D01*
X105435466Y-126711739D01*
X105441704Y-126704418D01*
X105448343Y-126697500D01*
X105455342Y-126690969D01*
X105462613Y-126684860D01*
X105470156Y-126679172D01*
X105477970Y-126673906D01*
X105486056Y-126669061D01*
X105494414Y-126664637D01*
X105503043Y-126660634D01*
X105511944Y-126657053D01*
X105521117Y-126653893D01*
X105530562Y-126651155D01*
X105540278Y-126648837D01*
X105550266Y-126646941D01*
X105560526Y-126645467D01*
X105571057Y-126644414D01*
X105581860Y-126643782D01*
X105592935Y-126643571D01*
X105604009Y-126643782D01*
G37*
G36*
X104906088Y-126983985D02*
G01*
X104915178Y-126984286D01*
X104923980Y-126984887D01*
X104932494Y-126985790D01*
X104940719Y-126986993D01*
X104948655Y-126988496D01*
X104960019Y-126991315D01*
X104970733Y-126994811D01*
X104980798Y-126998984D01*
X104990214Y-127003833D01*
X104998981Y-127009359D01*
X105007099Y-127015561D01*
X105014568Y-127022440D01*
X105019182Y-127027301D01*
X105025545Y-127034866D01*
X105031238Y-127042761D01*
X105036261Y-127050986D01*
X105040614Y-127059541D01*
X105044298Y-127068425D01*
X105047312Y-127077639D01*
X105049656Y-127087183D01*
X105051330Y-127097057D01*
X105052335Y-127107260D01*
X105052670Y-127117793D01*
X105052514Y-127124708D01*
X105051697Y-127134817D01*
X105050179Y-127144611D01*
X105047960Y-127154088D01*
X105045040Y-127163249D01*
X105041420Y-127172095D01*
X105037099Y-127180624D01*
X105032078Y-127188838D01*
X105026356Y-127196735D01*
X105019933Y-127204317D01*
X105012809Y-127211582D01*
X105010299Y-127213902D01*
X105002392Y-127220421D01*
X104993923Y-127226276D01*
X104984889Y-127231469D01*
X104975293Y-127235999D01*
X104965133Y-127239865D01*
X104954410Y-127243069D01*
X104943124Y-127245610D01*
X104935287Y-127246936D01*
X104927199Y-127247967D01*
X104918861Y-127248704D01*
X104910273Y-127249146D01*
X104901435Y-127249293D01*
X104672823Y-127249293D01*
X104672823Y-126983948D01*
X104901435Y-126983948D01*
X104906088Y-126983985D01*
G37*
G36*
X104890384Y-126656105D02*
G01*
X104899337Y-126656337D01*
X104908011Y-126656801D01*
X104916405Y-126657497D01*
X104924520Y-126658425D01*
X104932356Y-126659586D01*
X104943586Y-126661761D01*
X104954187Y-126664458D01*
X104964159Y-126667678D01*
X104973503Y-126671419D01*
X104982219Y-126675683D01*
X104990306Y-126680468D01*
X104997764Y-126685776D01*
X105002378Y-126689591D01*
X105008741Y-126695697D01*
X105014434Y-126702262D01*
X105019457Y-126709289D01*
X105023810Y-126716775D01*
X105027494Y-126724722D01*
X105030508Y-126733129D01*
X105032852Y-126741996D01*
X105034526Y-126751323D01*
X105035531Y-126761111D01*
X105035866Y-126771359D01*
X105035717Y-126778242D01*
X105034936Y-126788183D01*
X105033485Y-126797664D01*
X105031364Y-126806684D01*
X105028573Y-126815245D01*
X105025113Y-126823345D01*
X105020982Y-126830985D01*
X105016182Y-126838164D01*
X105010713Y-126844883D01*
X105004573Y-126851143D01*
X104997764Y-126856941D01*
X104995348Y-126858769D01*
X104987680Y-126863902D01*
X104979383Y-126868514D01*
X104970458Y-126872604D01*
X104960905Y-126876171D01*
X104950723Y-126879216D01*
X104939912Y-126881740D01*
X104928473Y-126883741D01*
X104920498Y-126884785D01*
X104912243Y-126885597D01*
X104903709Y-126886177D01*
X104894896Y-126886525D01*
X104885803Y-126886641D01*
X104672823Y-126886641D01*
X104672823Y-126656076D01*
X104885803Y-126656076D01*
X104890384Y-126656105D01*
G37*
G36*
X107672793Y-127698391D02*
G01*
X104227243Y-127698391D01*
X104227243Y-127316118D01*
X104566529Y-127316118D01*
X104567407Y-127323590D01*
X104570400Y-127331016D01*
X104575517Y-127337611D01*
X104581459Y-127342351D01*
X104588744Y-127345537D01*
X104596815Y-127346600D01*
X104912572Y-127346600D01*
X104922160Y-127346471D01*
X104931580Y-127346087D01*
X104940833Y-127345445D01*
X104949917Y-127344548D01*
X104958833Y-127343394D01*
X104967582Y-127341983D01*
X104976162Y-127340316D01*
X104984575Y-127338393D01*
X104992820Y-127336213D01*
X105000896Y-127333777D01*
X105008805Y-127331084D01*
X105016546Y-127328135D01*
X105024119Y-127324929D01*
X105031525Y-127321467D01*
X105038762Y-127317748D01*
X105045831Y-127313773D01*
X105049309Y-127311702D01*
X105056104Y-127307445D01*
X105062683Y-127303033D01*
X105072148Y-127296127D01*
X105081129Y-127288873D01*
X105089626Y-127281273D01*
X105097639Y-127273326D01*
X105105167Y-127265032D01*
X105112211Y-127256391D01*
X105118770Y-127247403D01*
X105124846Y-127238068D01*
X105130437Y-127228386D01*
X105133891Y-127221768D01*
X105138655Y-127211752D01*
X105142918Y-127201629D01*
X105146679Y-127191400D01*
X105149938Y-127181065D01*
X105152696Y-127170623D01*
X105154953Y-127160074D01*
X105156708Y-127149419D01*
X105157961Y-127138658D01*
X105158714Y-127127790D01*
X105158964Y-127116816D01*
X105158848Y-127109360D01*
X105158239Y-127098333D01*
X105157108Y-127087494D01*
X105155455Y-127076845D01*
X105153280Y-127066385D01*
X105150582Y-127056114D01*
X105147363Y-127046031D01*
X105143621Y-127036138D01*
X105139358Y-127026433D01*
X105134572Y-127016917D01*
X105129264Y-127007590D01*
X105125485Y-127001504D01*
X105119563Y-126992632D01*
X105113340Y-126984070D01*
X105106814Y-126975816D01*
X105099986Y-126967872D01*
X105092855Y-126960237D01*
X105085423Y-126952911D01*
X105085174Y-126952685D01*
X105282649Y-126952685D01*
X105282650Y-126956817D01*
X105282659Y-126964889D01*
X105282690Y-126976517D01*
X105282742Y-126987567D01*
X105282814Y-126998041D01*
X105282907Y-127007937D01*
X105283020Y-127017256D01*
X105283154Y-127025999D01*
X105283308Y-127034164D01*
X105283546Y-127044154D01*
X105283821Y-127053117D01*
X105284365Y-127063776D01*
X105285168Y-127074308D01*
X105286228Y-127084714D01*
X105287546Y-127094993D01*
X105289122Y-127105145D01*
X105290956Y-127115170D01*
X105293048Y-127125069D01*
X105295398Y-127134841D01*
X105298006Y-127144486D01*
X105300872Y-127154005D01*
X105303996Y-127163397D01*
X105307378Y-127172662D01*
X105311018Y-127181800D01*
X105314916Y-127190812D01*
X105319072Y-127199697D01*
X105323486Y-127208456D01*
X105328180Y-127217014D01*
X105333125Y-127225348D01*
X105338322Y-127233458D01*
X105343771Y-127241343D01*
X105349471Y-127249004D01*
X105355424Y-127256440D01*
X105361629Y-127263652D01*
X105368085Y-127270640D01*
X105374793Y-127277403D01*
X105381753Y-127283942D01*
X105388966Y-127290256D01*
X105396429Y-127296347D01*
X105404145Y-127302212D01*
X105412113Y-127307853D01*
X105420332Y-127313270D01*
X105428804Y-127318463D01*
X105437528Y-127323384D01*
X105446456Y-127327988D01*
X105455590Y-127332275D01*
X105464927Y-127336244D01*
X105474470Y-127339895D01*
X105484216Y-127343229D01*
X105494168Y-127346245D01*
X105504324Y-127348944D01*
X105514684Y-127351326D01*
X105525249Y-127353389D01*
X105536019Y-127355136D01*
X105546993Y-127356565D01*
X105558172Y-127357676D01*
X105569555Y-127358470D01*
X105581143Y-127358946D01*
X105592935Y-127359105D01*
X105604727Y-127358946D01*
X105616312Y-127358470D01*
X105627692Y-127357676D01*
X105638865Y-127356565D01*
X105649832Y-127355136D01*
X105660593Y-127353389D01*
X105671148Y-127351326D01*
X105681497Y-127348944D01*
X105691640Y-127346245D01*
X105701577Y-127343229D01*
X105711308Y-127339895D01*
X105720833Y-127336244D01*
X105730151Y-127332275D01*
X105739264Y-127327988D01*
X105748170Y-127323384D01*
X105756871Y-127318463D01*
X105765365Y-127313270D01*
X105773605Y-127307853D01*
X105781589Y-127302212D01*
X105789318Y-127296347D01*
X105796793Y-127290256D01*
X105804013Y-127283942D01*
X105810977Y-127277403D01*
X105817687Y-127270640D01*
X105824142Y-127263652D01*
X105830342Y-127256440D01*
X105836287Y-127249004D01*
X105841977Y-127241343D01*
X105847412Y-127233458D01*
X105852593Y-127225348D01*
X105857518Y-127217014D01*
X105862188Y-127208456D01*
X105866626Y-127199697D01*
X105870804Y-127190812D01*
X105874723Y-127181800D01*
X105878382Y-127172662D01*
X105881781Y-127163397D01*
X105884921Y-127154005D01*
X105887802Y-127144486D01*
X105890423Y-127134841D01*
X105892784Y-127125069D01*
X105894886Y-127115170D01*
X105896729Y-127105145D01*
X105898312Y-127094993D01*
X105899635Y-127084714D01*
X105900699Y-127074308D01*
X105901504Y-127063776D01*
X105902049Y-127053117D01*
X105902181Y-127048926D01*
X105902433Y-127040747D01*
X105902779Y-127028988D01*
X105903088Y-127017840D01*
X105903359Y-127007303D01*
X105903592Y-126997378D01*
X105903787Y-126988065D01*
X105903944Y-126979362D01*
X105904064Y-126971272D01*
X105904165Y-126961435D01*
X105904198Y-126952685D01*
X106035308Y-126952685D01*
X106035309Y-126956817D01*
X106035318Y-126964889D01*
X106035349Y-126976517D01*
X106035400Y-126987567D01*
X106035473Y-126998041D01*
X106035565Y-127007937D01*
X106035679Y-127017256D01*
X106035813Y-127025999D01*
X106035967Y-127034164D01*
X106036205Y-127044154D01*
X106036480Y-127053117D01*
X106037024Y-127063776D01*
X106037826Y-127074308D01*
X106038887Y-127084714D01*
X106040205Y-127094993D01*
X106041781Y-127105145D01*
X106043615Y-127115170D01*
X106045707Y-127125069D01*
X106048057Y-127134841D01*
X106050665Y-127144486D01*
X106053531Y-127154005D01*
X106056655Y-127163397D01*
X106060037Y-127172662D01*
X106063677Y-127181800D01*
X106067575Y-127190812D01*
X106071731Y-127199697D01*
X106076145Y-127208456D01*
X106080838Y-127217014D01*
X106085784Y-127225348D01*
X106090981Y-127233458D01*
X106096429Y-127241343D01*
X106102130Y-127249004D01*
X106108083Y-127256440D01*
X106114287Y-127263652D01*
X106120744Y-127270640D01*
X106127452Y-127277403D01*
X106134412Y-127283942D01*
X106141624Y-127290256D01*
X106149088Y-127296347D01*
X106156804Y-127302212D01*
X106164772Y-127307853D01*
X106172991Y-127313270D01*
X106181463Y-127318463D01*
X106190187Y-127323384D01*
X106199115Y-127327988D01*
X106208248Y-127332275D01*
X106217586Y-127336244D01*
X106227128Y-127339895D01*
X106236875Y-127343229D01*
X106246827Y-127346245D01*
X106256982Y-127348944D01*
X106267343Y-127351326D01*
X106277908Y-127353389D01*
X106288678Y-127355136D01*
X106299652Y-127356565D01*
X106310830Y-127357676D01*
X106322214Y-127358470D01*
X106333801Y-127358946D01*
X106345594Y-127359105D01*
X106357385Y-127358946D01*
X106368971Y-127358470D01*
X106380350Y-127357676D01*
X106391524Y-127356565D01*
X106402491Y-127355136D01*
X106413252Y-127353389D01*
X106423807Y-127351326D01*
X106434156Y-127348944D01*
X106444299Y-127346245D01*
X106454236Y-127343229D01*
X106463967Y-127339895D01*
X106473492Y-127336244D01*
X106482810Y-127332275D01*
X106491923Y-127327988D01*
X106500829Y-127323384D01*
X106509530Y-127318463D01*
X106518024Y-127313270D01*
X106526263Y-127307853D01*
X106534248Y-127302212D01*
X106541977Y-127296347D01*
X106549452Y-127290256D01*
X106556671Y-127283942D01*
X106563636Y-127277403D01*
X106570346Y-127270640D01*
X106576801Y-127263652D01*
X106583001Y-127256440D01*
X106588946Y-127249004D01*
X106594636Y-127241343D01*
X106600071Y-127233458D01*
X106605251Y-127225348D01*
X106610177Y-127217014D01*
X106614847Y-127208456D01*
X106619285Y-127199697D01*
X106623463Y-127190812D01*
X106627381Y-127181800D01*
X106631040Y-127172662D01*
X106634440Y-127163397D01*
X106637580Y-127154005D01*
X106640461Y-127144486D01*
X106643082Y-127134841D01*
X106645443Y-127125069D01*
X106647545Y-127115170D01*
X106649388Y-127105145D01*
X106650971Y-127094993D01*
X106652294Y-127084714D01*
X106653358Y-127074308D01*
X106654163Y-127063776D01*
X106654708Y-127053117D01*
X106654840Y-127048926D01*
X106655092Y-127040747D01*
X106655438Y-127028988D01*
X106655747Y-127017840D01*
X106656017Y-127007303D01*
X106656250Y-126997378D01*
X106656445Y-126988065D01*
X106656603Y-126979362D01*
X106656723Y-126971272D01*
X106656823Y-126961435D01*
X106656857Y-126952685D01*
X106656838Y-126946224D01*
X106656754Y-126936659D01*
X106656647Y-126928772D01*
X106656502Y-126920273D01*
X106656320Y-126911163D01*
X106656099Y-126901442D01*
X106655841Y-126891109D01*
X106655545Y-126880166D01*
X106655211Y-126868610D01*
X106654968Y-126860567D01*
X106654708Y-126852252D01*
X106654305Y-126841594D01*
X106653633Y-126831064D01*
X106652693Y-126820662D01*
X106651484Y-126810389D01*
X106650006Y-126800244D01*
X106648260Y-126790227D01*
X106646245Y-126780338D01*
X106643961Y-126770577D01*
X106641409Y-126760945D01*
X106638587Y-126751441D01*
X106635498Y-126742065D01*
X106632139Y-126732817D01*
X106628512Y-126723698D01*
X106624617Y-126714707D01*
X106620452Y-126705844D01*
X106616019Y-126697109D01*
X106611347Y-126688527D01*
X106606415Y-126680171D01*
X106601223Y-126672040D01*
X106595772Y-126664136D01*
X106590061Y-126656458D01*
X106584091Y-126649005D01*
X106577861Y-126641779D01*
X106571372Y-126634778D01*
X106564623Y-126628003D01*
X106563509Y-126626962D01*
X106747715Y-126626962D01*
X106748426Y-126633325D01*
X106751586Y-126641087D01*
X106756703Y-126647479D01*
X106762645Y-126652013D01*
X106769931Y-126655060D01*
X106778001Y-126656076D01*
X106987269Y-126656076D01*
X106987269Y-127316118D01*
X106988146Y-127323506D01*
X106991139Y-127330928D01*
X106996257Y-127337611D01*
X107002199Y-127342351D01*
X107009484Y-127345537D01*
X107017555Y-127346600D01*
X107063472Y-127346600D01*
X107070842Y-127345722D01*
X107078198Y-127342729D01*
X107084770Y-127337611D01*
X107089510Y-127331566D01*
X107092696Y-127324212D01*
X107093758Y-127316118D01*
X107093758Y-126656076D01*
X107303221Y-126656076D01*
X107310590Y-126655237D01*
X107317947Y-126652374D01*
X107324519Y-126647479D01*
X107328451Y-126642899D01*
X107332243Y-126635343D01*
X107333507Y-126626962D01*
X107333507Y-126587884D01*
X107332796Y-126581536D01*
X107329636Y-126573843D01*
X107324519Y-126567563D01*
X107318577Y-126562926D01*
X107311292Y-126559809D01*
X107303221Y-126558770D01*
X106778001Y-126558770D01*
X106770632Y-126559628D01*
X106763275Y-126562556D01*
X106756703Y-126567563D01*
X106752771Y-126572057D01*
X106748979Y-126579530D01*
X106747715Y-126587884D01*
X106747715Y-126626962D01*
X106563509Y-126626962D01*
X106557615Y-126621455D01*
X106550347Y-126615132D01*
X106542820Y-126609035D01*
X106535033Y-126603164D01*
X106526987Y-126597519D01*
X106518681Y-126592100D01*
X106510116Y-126586907D01*
X106501344Y-126581985D01*
X106492372Y-126577381D01*
X106483197Y-126573095D01*
X106473821Y-126569126D01*
X106464244Y-126565474D01*
X106454465Y-126562140D01*
X106444485Y-126559124D01*
X106434303Y-126556425D01*
X106423919Y-126554044D01*
X106413335Y-126551980D01*
X106402548Y-126550233D01*
X106391560Y-126548805D01*
X106380371Y-126547693D01*
X106368980Y-126546900D01*
X106357388Y-126546423D01*
X106345594Y-126546265D01*
X106333799Y-126546423D01*
X106322204Y-126546900D01*
X106310810Y-126547693D01*
X106299615Y-126548805D01*
X106288620Y-126550233D01*
X106277826Y-126551980D01*
X106267231Y-126554044D01*
X106256836Y-126556425D01*
X106246641Y-126559124D01*
X106236646Y-126562140D01*
X106226851Y-126565474D01*
X106217256Y-126569126D01*
X106207861Y-126573095D01*
X106198666Y-126577381D01*
X106189671Y-126581985D01*
X106180876Y-126586907D01*
X106172334Y-126592100D01*
X106164048Y-126597519D01*
X106156019Y-126603164D01*
X106148246Y-126609035D01*
X106140729Y-126615132D01*
X106133469Y-126621455D01*
X106126465Y-126628003D01*
X106119718Y-126634778D01*
X106113227Y-126641779D01*
X106106993Y-126649005D01*
X106101015Y-126656458D01*
X106095294Y-126664136D01*
X106089829Y-126672040D01*
X106084620Y-126680171D01*
X106079668Y-126688527D01*
X106074973Y-126697109D01*
X106070563Y-126705844D01*
X106066421Y-126714707D01*
X106062546Y-126723698D01*
X106058938Y-126732817D01*
X106055597Y-126742065D01*
X106052524Y-126751441D01*
X106049717Y-126760945D01*
X106047178Y-126770577D01*
X106044906Y-126780338D01*
X106042901Y-126790227D01*
X106041163Y-126800244D01*
X106039692Y-126810389D01*
X106038488Y-126820662D01*
X106037552Y-126831064D01*
X106036882Y-126841594D01*
X106036480Y-126852252D01*
X106036271Y-126858879D01*
X106036023Y-126868612D01*
X106035862Y-126876585D01*
X106035721Y-126885135D01*
X106035601Y-126894262D01*
X106035501Y-126903966D01*
X106035422Y-126914247D01*
X106035364Y-126925105D01*
X106035326Y-126936540D01*
X106035312Y-126944484D01*
X106035308Y-126952685D01*
X105904198Y-126952685D01*
X105904179Y-126946224D01*
X105904095Y-126936659D01*
X105903988Y-126928772D01*
X105903843Y-126920273D01*
X105903661Y-126911163D01*
X105903440Y-126901442D01*
X105903182Y-126891109D01*
X105902886Y-126880166D01*
X105902553Y-126868610D01*
X105902309Y-126860567D01*
X105902049Y-126852252D01*
X105901646Y-126841594D01*
X105900974Y-126831064D01*
X105900034Y-126820662D01*
X105898825Y-126810389D01*
X105897347Y-126800244D01*
X105895601Y-126790227D01*
X105893586Y-126780338D01*
X105891302Y-126770577D01*
X105888750Y-126760945D01*
X105885929Y-126751441D01*
X105882839Y-126742065D01*
X105879481Y-126732817D01*
X105875854Y-126723698D01*
X105871958Y-126714707D01*
X105867794Y-126705844D01*
X105863361Y-126697109D01*
X105858688Y-126688527D01*
X105853756Y-126680171D01*
X105848564Y-126672040D01*
X105843113Y-126664136D01*
X105837402Y-126656458D01*
X105831432Y-126649005D01*
X105825202Y-126641779D01*
X105818713Y-126634778D01*
X105811964Y-126628003D01*
X105804956Y-126621455D01*
X105797688Y-126615132D01*
X105790161Y-126609035D01*
X105782374Y-126603164D01*
X105774328Y-126597519D01*
X105766022Y-126592100D01*
X105757457Y-126586907D01*
X105748686Y-126581985D01*
X105739713Y-126577381D01*
X105730538Y-126573095D01*
X105721163Y-126569126D01*
X105711585Y-126565474D01*
X105701806Y-126562140D01*
X105691826Y-126559124D01*
X105681644Y-126556425D01*
X105671261Y-126554044D01*
X105660676Y-126551980D01*
X105649889Y-126550233D01*
X105638902Y-126548805D01*
X105627712Y-126547693D01*
X105616321Y-126546900D01*
X105604729Y-126546423D01*
X105592935Y-126546265D01*
X105581140Y-126546423D01*
X105569546Y-126546900D01*
X105558151Y-126547693D01*
X105546956Y-126548805D01*
X105535962Y-126550233D01*
X105525167Y-126551980D01*
X105514572Y-126554044D01*
X105504177Y-126556425D01*
X105493982Y-126559124D01*
X105483987Y-126562140D01*
X105474193Y-126565474D01*
X105464598Y-126569126D01*
X105455203Y-126573095D01*
X105446008Y-126577381D01*
X105437013Y-126581985D01*
X105428218Y-126586907D01*
X105419675Y-126592100D01*
X105411389Y-126597519D01*
X105403360Y-126603164D01*
X105395587Y-126609035D01*
X105388070Y-126615132D01*
X105380810Y-126621455D01*
X105373806Y-126628003D01*
X105367059Y-126634778D01*
X105360568Y-126641779D01*
X105354334Y-126649005D01*
X105348356Y-126656458D01*
X105342635Y-126664136D01*
X105337170Y-126672040D01*
X105331962Y-126680171D01*
X105327010Y-126688527D01*
X105322314Y-126697109D01*
X105317905Y-126705844D01*
X105313762Y-126714707D01*
X105309887Y-126723698D01*
X105306279Y-126732817D01*
X105302939Y-126742065D01*
X105299865Y-126751441D01*
X105297058Y-126760945D01*
X105294519Y-126770577D01*
X105292247Y-126780338D01*
X105290242Y-126790227D01*
X105288504Y-126800244D01*
X105287033Y-126810389D01*
X105285829Y-126820662D01*
X105284893Y-126831064D01*
X105284224Y-126841594D01*
X105283821Y-126852252D01*
X105283612Y-126858879D01*
X105283364Y-126868612D01*
X105283203Y-126876585D01*
X105283062Y-126885135D01*
X105282942Y-126894262D01*
X105282842Y-126903966D01*
X105282763Y-126914247D01*
X105282705Y-126925105D01*
X105282667Y-126936540D01*
X105282653Y-126944484D01*
X105282649Y-126952685D01*
X105085174Y-126952685D01*
X105077688Y-126945894D01*
X105069651Y-126939186D01*
X105061311Y-126932787D01*
X105052670Y-126926697D01*
X105054490Y-126925554D01*
X105061792Y-126920579D01*
X105069124Y-126914963D01*
X105076486Y-126908705D01*
X105083879Y-126901807D01*
X105089444Y-126896213D01*
X105095026Y-126890258D01*
X105100625Y-126883942D01*
X105106241Y-126877265D01*
X105111874Y-126870228D01*
X105115542Y-126865322D01*
X105120599Y-126857608D01*
X105125124Y-126849468D01*
X105129117Y-126840902D01*
X105132578Y-126831910D01*
X105135506Y-126822492D01*
X105137901Y-126812648D01*
X105139765Y-126802378D01*
X105141096Y-126791683D01*
X105141894Y-126780561D01*
X105142160Y-126769014D01*
X105142068Y-126763266D01*
X105141583Y-126754612D01*
X105140683Y-126745921D01*
X105139367Y-126737192D01*
X105137635Y-126728425D01*
X105135488Y-126719620D01*
X105132925Y-126710777D01*
X105129947Y-126701897D01*
X105126553Y-126692979D01*
X105122743Y-126684023D01*
X105118518Y-126675029D01*
X105117022Y-126672039D01*
X105112164Y-126663232D01*
X105106754Y-126654673D01*
X105100791Y-126646361D01*
X105094275Y-126638297D01*
X105087206Y-126630479D01*
X105079584Y-126622909D01*
X105071409Y-126615587D01*
X105062681Y-126608511D01*
X105053400Y-126601683D01*
X105046905Y-126597269D01*
X105040165Y-126592964D01*
X105033194Y-126588823D01*
X105025959Y-126584950D01*
X105018460Y-126581343D01*
X105010697Y-126578004D01*
X105002670Y-126574932D01*
X104994378Y-126572127D01*
X104985823Y-126569589D01*
X104977003Y-126567318D01*
X104967920Y-126565315D01*
X104958572Y-126563578D01*
X104948961Y-126562109D01*
X104939085Y-126560907D01*
X104928945Y-126559972D01*
X104918541Y-126559304D01*
X104907873Y-126558903D01*
X104896941Y-126558770D01*
X104596815Y-126558770D01*
X104589446Y-126559648D01*
X104582089Y-126562641D01*
X104575517Y-126567758D01*
X104570777Y-126573719D01*
X104567591Y-126581070D01*
X104566529Y-126589251D01*
X104566529Y-126656076D01*
X104566529Y-126983948D01*
X104566529Y-127316118D01*
X104227243Y-127316118D01*
X104227243Y-126206979D01*
X107672793Y-126206979D01*
X107672793Y-127698391D01*
G37*
D14*
G36*
X135988505Y-96125373D02*
G01*
X136004706Y-96126321D01*
X136020498Y-96127900D01*
X136035879Y-96130112D01*
X136050851Y-96132956D01*
X136065413Y-96136432D01*
X136079565Y-96140540D01*
X136093307Y-96145280D01*
X136106639Y-96150652D01*
X136119561Y-96156656D01*
X136132074Y-96163291D01*
X136144176Y-96170559D01*
X136155869Y-96178459D01*
X136167152Y-96186990D01*
X136178025Y-96196154D01*
X136188488Y-96205950D01*
X136198481Y-96216327D01*
X136207869Y-96227309D01*
X136216652Y-96238895D01*
X136224831Y-96251086D01*
X136232406Y-96263881D01*
X136239376Y-96277281D01*
X136245742Y-96291285D01*
X136251503Y-96305894D01*
X136256659Y-96321107D01*
X136261211Y-96336925D01*
X136265159Y-96353347D01*
X136268502Y-96370374D01*
X136271241Y-96388005D01*
X136273375Y-96406241D01*
X136274904Y-96425081D01*
X136275829Y-96444526D01*
X136276255Y-96457145D01*
X136276654Y-96469283D01*
X136277200Y-96486589D01*
X136277684Y-96502812D01*
X136278107Y-96517954D01*
X136278467Y-96532014D01*
X136278766Y-96544992D01*
X136279068Y-96560613D01*
X136279261Y-96574310D01*
X136279346Y-96588727D01*
X136279333Y-96594133D01*
X136279223Y-96606388D01*
X136279003Y-96620567D01*
X136278766Y-96632463D01*
X136278467Y-96645440D01*
X136278107Y-96659500D01*
X136277684Y-96674642D01*
X136277200Y-96690866D01*
X136276654Y-96708171D01*
X136276255Y-96720309D01*
X136275829Y-96732928D01*
X136274904Y-96752374D01*
X136273375Y-96771218D01*
X136271241Y-96789459D01*
X136268502Y-96807099D01*
X136265159Y-96824136D01*
X136261211Y-96840571D01*
X136256659Y-96856403D01*
X136251503Y-96871634D01*
X136245742Y-96886262D01*
X136239376Y-96900288D01*
X136232406Y-96913712D01*
X136224831Y-96926533D01*
X136216652Y-96938753D01*
X136207869Y-96950370D01*
X136198481Y-96961385D01*
X136188488Y-96971798D01*
X136178025Y-96981558D01*
X136167152Y-96990688D01*
X136155869Y-96999189D01*
X136144176Y-97007060D01*
X136132074Y-97014302D01*
X136119561Y-97020913D01*
X136106639Y-97026895D01*
X136093307Y-97032248D01*
X136079565Y-97036970D01*
X136065413Y-97041063D01*
X136050851Y-97044527D01*
X136035879Y-97047360D01*
X136020498Y-97049564D01*
X136004706Y-97051138D01*
X135988505Y-97052083D01*
X135971894Y-97052398D01*
X135955281Y-97052083D01*
X135939076Y-97051138D01*
X135923279Y-97049564D01*
X135907890Y-97047360D01*
X135892908Y-97044527D01*
X135878333Y-97041063D01*
X135864166Y-97036970D01*
X135850407Y-97032248D01*
X135837055Y-97026895D01*
X135824111Y-97020913D01*
X135811575Y-97014302D01*
X135799446Y-97007060D01*
X135787725Y-96999189D01*
X135776411Y-96990688D01*
X135765505Y-96981558D01*
X135755006Y-96971798D01*
X135745048Y-96961385D01*
X135735689Y-96950370D01*
X135726931Y-96938753D01*
X135718772Y-96926533D01*
X135711214Y-96913712D01*
X135704255Y-96900288D01*
X135697897Y-96886262D01*
X135692138Y-96871634D01*
X135686979Y-96856403D01*
X135682420Y-96840571D01*
X135678461Y-96824136D01*
X135675102Y-96807099D01*
X135672343Y-96789459D01*
X135670183Y-96771218D01*
X135668624Y-96752374D01*
X135667665Y-96732928D01*
X135667321Y-96719391D01*
X135667024Y-96704572D01*
X135666830Y-96692616D01*
X135666663Y-96679938D01*
X135666521Y-96666540D01*
X135666405Y-96652420D01*
X135666315Y-96637578D01*
X135666251Y-96622016D01*
X135666212Y-96605732D01*
X135666199Y-96588727D01*
X135666212Y-96571722D01*
X135666251Y-96555438D01*
X135666315Y-96539876D01*
X135666405Y-96525035D01*
X135666521Y-96510915D01*
X135666663Y-96497516D01*
X135666830Y-96484839D01*
X135667024Y-96472883D01*
X135667321Y-96458063D01*
X135667665Y-96444526D01*
X135668624Y-96425081D01*
X135670183Y-96406241D01*
X135672343Y-96388005D01*
X135675102Y-96370374D01*
X135678461Y-96353347D01*
X135682420Y-96336925D01*
X135686979Y-96321107D01*
X135692138Y-96305894D01*
X135697897Y-96291285D01*
X135704255Y-96277281D01*
X135711214Y-96263881D01*
X135718772Y-96251086D01*
X135726931Y-96238895D01*
X135735689Y-96227309D01*
X135745048Y-96216327D01*
X135755006Y-96205950D01*
X135765505Y-96196154D01*
X135776411Y-96186990D01*
X135787725Y-96178459D01*
X135799446Y-96170559D01*
X135811575Y-96163291D01*
X135824111Y-96156656D01*
X135837055Y-96150652D01*
X135850407Y-96145280D01*
X135864166Y-96140540D01*
X135878333Y-96136432D01*
X135892908Y-96132956D01*
X135907890Y-96130112D01*
X135923279Y-96127900D01*
X135939076Y-96126321D01*
X135955281Y-96125373D01*
X135971894Y-96125057D01*
X135988505Y-96125373D01*
G37*
G36*
X139069740Y-96144166D02*
G01*
X139089722Y-96145220D01*
X139109006Y-96146978D01*
X139127591Y-96149438D01*
X139145477Y-96152601D01*
X139162665Y-96156468D01*
X139179155Y-96161037D01*
X139194947Y-96166309D01*
X139210040Y-96172284D01*
X139224434Y-96178963D01*
X139238131Y-96186344D01*
X139251129Y-96194428D01*
X139263428Y-96203215D01*
X139275029Y-96212705D01*
X139285932Y-96222898D01*
X139296136Y-96233793D01*
X139305697Y-96245195D01*
X139314670Y-96256980D01*
X139323054Y-96269147D01*
X139330849Y-96281696D01*
X139338057Y-96294627D01*
X139344675Y-96307941D01*
X139350705Y-96321637D01*
X139356147Y-96335716D01*
X139361000Y-96350177D01*
X139365265Y-96365021D01*
X139368941Y-96380246D01*
X139372029Y-96395855D01*
X139374528Y-96411845D01*
X139376439Y-96428218D01*
X139377761Y-96444974D01*
X139378495Y-96462112D01*
X139378708Y-96468617D01*
X139379093Y-96482191D01*
X139379422Y-96496516D01*
X139379697Y-96511591D01*
X139379867Y-96523391D01*
X139380006Y-96535614D01*
X139380115Y-96548258D01*
X139380192Y-96561325D01*
X139380238Y-96574815D01*
X139380254Y-96588727D01*
X139380252Y-96593412D01*
X139380226Y-96607183D01*
X139380170Y-96620532D01*
X139380082Y-96633458D01*
X139379963Y-96645962D01*
X139379814Y-96658043D01*
X139379567Y-96673495D01*
X139379264Y-96688195D01*
X139378907Y-96702144D01*
X139378495Y-96715343D01*
X139377777Y-96732691D01*
X139376503Y-96749639D01*
X139374672Y-96766186D01*
X139372285Y-96782332D01*
X139369342Y-96798078D01*
X139365842Y-96813423D01*
X139361785Y-96828367D01*
X139357173Y-96842911D01*
X139352004Y-96857054D01*
X139346278Y-96870796D01*
X139339996Y-96884137D01*
X139333158Y-96897078D01*
X139325763Y-96909618D01*
X139317811Y-96921757D01*
X139309304Y-96933495D01*
X139300240Y-96944833D01*
X139290533Y-96955587D01*
X139280099Y-96965647D01*
X139268936Y-96975014D01*
X139257045Y-96983686D01*
X139244426Y-96991665D01*
X139231079Y-96998950D01*
X139217004Y-97005541D01*
X139202201Y-97011438D01*
X139186669Y-97016642D01*
X139170409Y-97021152D01*
X139153422Y-97024967D01*
X139135706Y-97028090D01*
X139117261Y-97030518D01*
X139098089Y-97032252D01*
X139078189Y-97033293D01*
X139057560Y-97033640D01*
X138785278Y-97033640D01*
X138785278Y-96143814D01*
X139049060Y-96143814D01*
X139069740Y-96144166D01*
G37*
G36*
X139898624Y-97557286D02*
G01*
X135147535Y-97557286D01*
X135147535Y-96588727D01*
X135506464Y-96588727D01*
X135506466Y-96594926D01*
X135506480Y-96607034D01*
X135506526Y-96624475D01*
X135506604Y-96641051D01*
X135506712Y-96656761D01*
X135506851Y-96671606D01*
X135507021Y-96685585D01*
X135507222Y-96698698D01*
X135507454Y-96710946D01*
X135507811Y-96725931D01*
X135508223Y-96739376D01*
X135509039Y-96755365D01*
X135510243Y-96771163D01*
X135511833Y-96786771D01*
X135513810Y-96802189D01*
X135516174Y-96817418D01*
X135518925Y-96832456D01*
X135522064Y-96847304D01*
X135525589Y-96861962D01*
X135529501Y-96876430D01*
X135533800Y-96890708D01*
X135538486Y-96904795D01*
X135543559Y-96918693D01*
X135549019Y-96932401D01*
X135554866Y-96945919D01*
X135561100Y-96959246D01*
X135567721Y-96972384D01*
X135574760Y-96985222D01*
X135582178Y-96997723D01*
X135589974Y-97009887D01*
X135598147Y-97021715D01*
X135606698Y-97033206D01*
X135615627Y-97044361D01*
X135624934Y-97055179D01*
X135634619Y-97065660D01*
X135644681Y-97075805D01*
X135655121Y-97085613D01*
X135665939Y-97095085D01*
X135677135Y-97104220D01*
X135688709Y-97113019D01*
X135700660Y-97121480D01*
X135712990Y-97129606D01*
X135725697Y-97137394D01*
X135738783Y-97144777D01*
X135752176Y-97151683D01*
X135765875Y-97158112D01*
X135779882Y-97164066D01*
X135794195Y-97169543D01*
X135808816Y-97174544D01*
X135823743Y-97179068D01*
X135838977Y-97183117D01*
X135854517Y-97186689D01*
X135870365Y-97189784D01*
X135886519Y-97192404D01*
X135902980Y-97194547D01*
X135919748Y-97196214D01*
X135936823Y-97197405D01*
X135954205Y-97198119D01*
X135971894Y-97198357D01*
X135989581Y-97198119D01*
X136006959Y-97197405D01*
X136024028Y-97196214D01*
X136040788Y-97194547D01*
X136057239Y-97192404D01*
X136073381Y-97189784D01*
X136089214Y-97186689D01*
X136104737Y-97183117D01*
X136119952Y-97179068D01*
X136134857Y-97174544D01*
X136149453Y-97169543D01*
X136163740Y-97164066D01*
X136177718Y-97158112D01*
X136191387Y-97151683D01*
X136204747Y-97144777D01*
X136217797Y-97137394D01*
X136223551Y-97133877D01*
X136680882Y-97133877D01*
X136682198Y-97145086D01*
X136686688Y-97156225D01*
X136694364Y-97166117D01*
X136703277Y-97173227D01*
X136714205Y-97178006D01*
X136726311Y-97179600D01*
X137410093Y-97179600D01*
X137421118Y-97178340D01*
X137432056Y-97174046D01*
X137441747Y-97166703D01*
X137447645Y-97159834D01*
X137453333Y-97148500D01*
X137455229Y-97135929D01*
X137455229Y-97133877D01*
X137631670Y-97133877D01*
X137633263Y-97146150D01*
X137638043Y-97157176D01*
X137645152Y-97166117D01*
X137655010Y-97173793D01*
X137666046Y-97178283D01*
X137677099Y-97179600D01*
X138355606Y-97179600D01*
X138367712Y-97178076D01*
X138378640Y-97173504D01*
X138387553Y-97166703D01*
X138395229Y-97157116D01*
X138399969Y-97145473D01*
X138401035Y-97135929D01*
X138401035Y-97133877D01*
X138625836Y-97133877D01*
X138627153Y-97145086D01*
X138631643Y-97156225D01*
X138639319Y-97166117D01*
X138648232Y-97173227D01*
X138659160Y-97178006D01*
X138671266Y-97179600D01*
X139066060Y-97179600D01*
X139083154Y-97179385D01*
X139099999Y-97178743D01*
X139116594Y-97177673D01*
X139132939Y-97176174D01*
X139149035Y-97174247D01*
X139164882Y-97171892D01*
X139180479Y-97169109D01*
X139195826Y-97165897D01*
X139210924Y-97162258D01*
X139225772Y-97158190D01*
X139240370Y-97153694D01*
X139254719Y-97148770D01*
X139268818Y-97143418D01*
X139282668Y-97137637D01*
X139296268Y-97131428D01*
X139309619Y-97124791D01*
X139322667Y-97117749D01*
X139335360Y-97110325D01*
X139347699Y-97102518D01*
X139359682Y-97094328D01*
X139371311Y-97085756D01*
X139382585Y-97076802D01*
X139393503Y-97067466D01*
X139404067Y-97057747D01*
X139414276Y-97047645D01*
X139424130Y-97037162D01*
X139433629Y-97026296D01*
X139442774Y-97015047D01*
X139451563Y-97003416D01*
X139459997Y-96991403D01*
X139468077Y-96979007D01*
X139475801Y-96966229D01*
X139483154Y-96953082D01*
X139490044Y-96939654D01*
X139496471Y-96925944D01*
X139502436Y-96911952D01*
X139507938Y-96897679D01*
X139512978Y-96883124D01*
X139517556Y-96868287D01*
X139521670Y-96853169D01*
X139525322Y-96837769D01*
X139528512Y-96822088D01*
X139531239Y-96806124D01*
X139533504Y-96789880D01*
X139535306Y-96773353D01*
X139536645Y-96756545D01*
X139537522Y-96739455D01*
X139537937Y-96722084D01*
X139538251Y-96712296D01*
X139538622Y-96698372D01*
X139538938Y-96683449D01*
X139539139Y-96671602D01*
X139539309Y-96659194D01*
X139539448Y-96646223D01*
X139539556Y-96632692D01*
X139539634Y-96618598D01*
X139539680Y-96603944D01*
X139539695Y-96588727D01*
X139539689Y-96578521D01*
X139539652Y-96563678D01*
X139539585Y-96549398D01*
X139539488Y-96535679D01*
X139539359Y-96522522D01*
X139539199Y-96509926D01*
X139539008Y-96497892D01*
X139538706Y-96482720D01*
X139538349Y-96468546D01*
X139537937Y-96455371D01*
X139537517Y-96438000D01*
X139536623Y-96420914D01*
X139535254Y-96404112D01*
X139533412Y-96387593D01*
X139531096Y-96371359D01*
X139528306Y-96355408D01*
X139525042Y-96339741D01*
X139521304Y-96324359D01*
X139517092Y-96309260D01*
X139512406Y-96294445D01*
X139507246Y-96279914D01*
X139501612Y-96265667D01*
X139495504Y-96251704D01*
X139488922Y-96238025D01*
X139481866Y-96224630D01*
X139474336Y-96211519D01*
X139466388Y-96198705D01*
X139458079Y-96186276D01*
X139449407Y-96174232D01*
X139440374Y-96162572D01*
X139430979Y-96151297D01*
X139421222Y-96140407D01*
X139411104Y-96129902D01*
X139400624Y-96119781D01*
X139389781Y-96110045D01*
X139378578Y-96100693D01*
X139367012Y-96091727D01*
X139355084Y-96083145D01*
X139342795Y-96074947D01*
X139330144Y-96067134D01*
X139317131Y-96059706D01*
X139303757Y-96052663D01*
X139290080Y-96046026D01*
X139276160Y-96039817D01*
X139261998Y-96034037D01*
X139247593Y-96028684D01*
X139232945Y-96023760D01*
X139218055Y-96019264D01*
X139202922Y-96015197D01*
X139187546Y-96011557D01*
X139171927Y-96008346D01*
X139156066Y-96005562D01*
X139139962Y-96003207D01*
X139123615Y-96001280D01*
X139107026Y-95999782D01*
X139090194Y-95998711D01*
X139073119Y-95998069D01*
X139055801Y-95997855D01*
X138671266Y-95997855D01*
X138660212Y-95999172D01*
X138649176Y-96003661D01*
X138639319Y-96011337D01*
X138632209Y-96020279D01*
X138627429Y-96031305D01*
X138625836Y-96043577D01*
X138625836Y-96143814D01*
X138625836Y-97133877D01*
X138401035Y-97133877D01*
X138401035Y-97077311D01*
X138399139Y-97064781D01*
X138393451Y-97053570D01*
X138387553Y-97046829D01*
X138377695Y-97039320D01*
X138366660Y-97034928D01*
X138355606Y-97033640D01*
X137791112Y-97033640D01*
X137791112Y-96650276D01*
X138305194Y-96650276D01*
X138317432Y-96648753D01*
X138328354Y-96644181D01*
X138337141Y-96637380D01*
X138344817Y-96627793D01*
X138349557Y-96616150D01*
X138350624Y-96606606D01*
X138350624Y-96547987D01*
X138348728Y-96535458D01*
X138343040Y-96524247D01*
X138337141Y-96517506D01*
X138327416Y-96509997D01*
X138316374Y-96505605D01*
X138305194Y-96504317D01*
X137791112Y-96504317D01*
X137791112Y-96143814D01*
X138342417Y-96143814D01*
X138354488Y-96142291D01*
X138365312Y-96137719D01*
X138374071Y-96130918D01*
X138381747Y-96121331D01*
X138386487Y-96109688D01*
X138387553Y-96100144D01*
X138387553Y-96041526D01*
X138385657Y-96028996D01*
X138379969Y-96017785D01*
X138374071Y-96011044D01*
X138364380Y-96003535D01*
X138353442Y-95999143D01*
X138342417Y-95997855D01*
X137677099Y-95997855D01*
X137664994Y-95999448D01*
X137654065Y-96004227D01*
X137645152Y-96011337D01*
X137637477Y-96021230D01*
X137632987Y-96032369D01*
X137631670Y-96043577D01*
X137631670Y-97133877D01*
X137455229Y-97133877D01*
X137455229Y-97077311D01*
X137454163Y-97067790D01*
X137449423Y-97056249D01*
X137441747Y-97046829D01*
X137432989Y-97039874D01*
X137422164Y-97035198D01*
X137410093Y-97033640D01*
X136840323Y-97033640D01*
X136840323Y-96043577D01*
X136839007Y-96032523D01*
X136834517Y-96021488D01*
X136826841Y-96011630D01*
X136818083Y-96004366D01*
X136807258Y-95999483D01*
X136795187Y-95997855D01*
X136726311Y-95997855D01*
X136715257Y-95999172D01*
X136704222Y-96003661D01*
X136694364Y-96011337D01*
X136687254Y-96020279D01*
X136682475Y-96031305D01*
X136680882Y-96043577D01*
X136680882Y-97133877D01*
X136223551Y-97133877D01*
X136230539Y-97129606D01*
X136242898Y-97121480D01*
X136254874Y-97113019D01*
X136266469Y-97104220D01*
X136277681Y-97095085D01*
X136288510Y-97085613D01*
X136298957Y-97075805D01*
X136309022Y-97065660D01*
X136318704Y-97055179D01*
X136328004Y-97044361D01*
X136336922Y-97033206D01*
X136345457Y-97021715D01*
X136353610Y-97009887D01*
X136361380Y-96997723D01*
X136368768Y-96985222D01*
X136375774Y-96972384D01*
X136382430Y-96959246D01*
X136388697Y-96945919D01*
X136394575Y-96932401D01*
X136400063Y-96918693D01*
X136405163Y-96904795D01*
X136409873Y-96890708D01*
X136414194Y-96876430D01*
X136418125Y-96861962D01*
X136421668Y-96847304D01*
X136424821Y-96832456D01*
X136427584Y-96817418D01*
X136429959Y-96802189D01*
X136431944Y-96786771D01*
X136433540Y-96771163D01*
X136434747Y-96755365D01*
X136435564Y-96739376D01*
X136435763Y-96733089D01*
X136436140Y-96720820D01*
X136436660Y-96703182D01*
X136437123Y-96686460D01*
X136437529Y-96670655D01*
X136437878Y-96655768D01*
X136438171Y-96641797D01*
X136438407Y-96628744D01*
X136438587Y-96616608D01*
X136438738Y-96601852D01*
X136438788Y-96588727D01*
X136438760Y-96579036D01*
X136438634Y-96564689D01*
X136438473Y-96552858D01*
X136438256Y-96540110D01*
X136437982Y-96526445D01*
X136437652Y-96511863D01*
X136437264Y-96496364D01*
X136436820Y-96479949D01*
X136436320Y-96462615D01*
X136435955Y-96450551D01*
X136435564Y-96438078D01*
X136434960Y-96422091D01*
X136433952Y-96406296D01*
X136432542Y-96390694D01*
X136430728Y-96375283D01*
X136428512Y-96360066D01*
X136425892Y-96345040D01*
X136422870Y-96330207D01*
X136419444Y-96315566D01*
X136415616Y-96301118D01*
X136411384Y-96286861D01*
X136406750Y-96272798D01*
X136401712Y-96258926D01*
X136396272Y-96245247D01*
X136390428Y-96231760D01*
X136384182Y-96218466D01*
X136377532Y-96205364D01*
X136370523Y-96192491D01*
X136363125Y-96179956D01*
X136355337Y-96167761D01*
X136347160Y-96155904D01*
X136338594Y-96144387D01*
X136329639Y-96133208D01*
X136320295Y-96122368D01*
X136310561Y-96111867D01*
X136300438Y-96101705D01*
X136289925Y-96091882D01*
X136279024Y-96082398D01*
X136267733Y-96073253D01*
X136256053Y-96064446D01*
X136243983Y-96055979D01*
X136231524Y-96047850D01*
X136218677Y-96040060D01*
X136205519Y-96032678D01*
X136192060Y-96025772D01*
X136178299Y-96019342D01*
X136164235Y-96013389D01*
X136149869Y-96007912D01*
X136135200Y-96002911D01*
X136120230Y-95998386D01*
X136104957Y-95994338D01*
X136089382Y-95990766D01*
X136073505Y-95987670D01*
X136057325Y-95985050D01*
X136040843Y-95982907D01*
X136024059Y-95981240D01*
X136006973Y-95980050D01*
X135989584Y-95979335D01*
X135971894Y-95979097D01*
X135954202Y-95979335D01*
X135936810Y-95980050D01*
X135919718Y-95981240D01*
X135902925Y-95982907D01*
X135886433Y-95985050D01*
X135870241Y-95987670D01*
X135854349Y-95990766D01*
X135838757Y-95994338D01*
X135823465Y-95998386D01*
X135808472Y-96002911D01*
X135793780Y-96007912D01*
X135779387Y-96013389D01*
X135765295Y-96019342D01*
X135751503Y-96025772D01*
X135738010Y-96032678D01*
X135724818Y-96040060D01*
X135712004Y-96047850D01*
X135699575Y-96055979D01*
X135687531Y-96064446D01*
X135675871Y-96073253D01*
X135664596Y-96082398D01*
X135653706Y-96091882D01*
X135643201Y-96101705D01*
X135633080Y-96111867D01*
X135623344Y-96122368D01*
X135613992Y-96133208D01*
X135605026Y-96144387D01*
X135596443Y-96155904D01*
X135588246Y-96167761D01*
X135580433Y-96179956D01*
X135573005Y-96192491D01*
X135565962Y-96205364D01*
X135559348Y-96218466D01*
X135553135Y-96231760D01*
X135547322Y-96245247D01*
X135541910Y-96258926D01*
X135536899Y-96272798D01*
X135532289Y-96286861D01*
X135528079Y-96301118D01*
X135524270Y-96315566D01*
X135520861Y-96330207D01*
X135517854Y-96345040D01*
X135515247Y-96360066D01*
X135513041Y-96375283D01*
X135511235Y-96390694D01*
X135509830Y-96406296D01*
X135508826Y-96422091D01*
X135508223Y-96438078D01*
X135507909Y-96448018D01*
X135507538Y-96462618D01*
X135507296Y-96474577D01*
X135507084Y-96487402D01*
X135506904Y-96501093D01*
X135506755Y-96515649D01*
X135506636Y-96531071D01*
X135506549Y-96547358D01*
X135506492Y-96564511D01*
X135506471Y-96576427D01*
X135506464Y-96588727D01*
X135147535Y-96588727D01*
X135147535Y-95620168D01*
X139898624Y-95620168D01*
X139898624Y-97557286D01*
G37*
G36*
X69172679Y-114433327D02*
G01*
X68707250Y-114433327D01*
X68940844Y-113826921D01*
X69172679Y-114433327D01*
G37*
G36*
X67903832Y-114302078D02*
G01*
X67917468Y-114302529D01*
X67930671Y-114303431D01*
X67943441Y-114304785D01*
X67955778Y-114306589D01*
X67967683Y-114308845D01*
X67984728Y-114313073D01*
X68000800Y-114318317D01*
X68015898Y-114324576D01*
X68030022Y-114331850D01*
X68043172Y-114340139D01*
X68055349Y-114349442D01*
X68066552Y-114359761D01*
X68073473Y-114367051D01*
X68083017Y-114378400D01*
X68091557Y-114390242D01*
X68099091Y-114402580D01*
X68105622Y-114415412D01*
X68111147Y-114428738D01*
X68115668Y-114442559D01*
X68119184Y-114456875D01*
X68121696Y-114471685D01*
X68123203Y-114486990D01*
X68123705Y-114502789D01*
X68123471Y-114513162D01*
X68122245Y-114528326D01*
X68119968Y-114543016D01*
X68116640Y-114557232D01*
X68112261Y-114570974D01*
X68106831Y-114584243D01*
X68100349Y-114597037D01*
X68092817Y-114609357D01*
X68084234Y-114621203D01*
X68074600Y-114632575D01*
X68063914Y-114643473D01*
X68060149Y-114646954D01*
X68048289Y-114656731D01*
X68035584Y-114665514D01*
X68022034Y-114673303D01*
X68007640Y-114680098D01*
X67992400Y-114685898D01*
X67976316Y-114690704D01*
X67959386Y-114694516D01*
X67947630Y-114696505D01*
X67935499Y-114698051D01*
X67922992Y-114699156D01*
X67910110Y-114699819D01*
X67896852Y-114700040D01*
X67553935Y-114700040D01*
X67553935Y-114302022D01*
X67896852Y-114302022D01*
X67903832Y-114302078D01*
G37*
G36*
X67880277Y-113810258D02*
G01*
X67893706Y-113810606D01*
X67906717Y-113811302D01*
X67919308Y-113812346D01*
X67931481Y-113813738D01*
X67943234Y-113815479D01*
X67960079Y-113818742D01*
X67975980Y-113822788D01*
X67990939Y-113827617D01*
X68004955Y-113833229D01*
X68018028Y-113839624D01*
X68030159Y-113846803D01*
X68041346Y-113854764D01*
X68048267Y-113860486D01*
X68057811Y-113869645D01*
X68066351Y-113879494D01*
X68073885Y-113890033D01*
X68080416Y-113901263D01*
X68085941Y-113913183D01*
X68090462Y-113925793D01*
X68093978Y-113939094D01*
X68096490Y-113953085D01*
X68097997Y-113967767D01*
X68098499Y-113983138D01*
X68098276Y-113993463D01*
X68097104Y-114008375D01*
X68094927Y-114022596D01*
X68091746Y-114036127D01*
X68087560Y-114048967D01*
X68082369Y-114061117D01*
X68076174Y-114072577D01*
X68068974Y-114083346D01*
X68060769Y-114093425D01*
X68051560Y-114102814D01*
X68041346Y-114111512D01*
X68037722Y-114114253D01*
X68026220Y-114121954D01*
X68013775Y-114128871D01*
X68000388Y-114135006D01*
X67986058Y-114140357D01*
X67970785Y-114144925D01*
X67954569Y-114148710D01*
X67937410Y-114151712D01*
X67925447Y-114153278D01*
X67913065Y-114154496D01*
X67900264Y-114155366D01*
X67887044Y-114155888D01*
X67873405Y-114156062D01*
X67553935Y-114156062D01*
X67553935Y-113810214D01*
X67873405Y-113810214D01*
X67880277Y-113810258D01*
G37*
G36*
X71743276Y-115204929D02*
G01*
X67035565Y-115204929D01*
X67035565Y-114800277D01*
X67394494Y-114800277D01*
X67395810Y-114811486D01*
X67400300Y-114822625D01*
X67407976Y-114832517D01*
X67416889Y-114839627D01*
X67427817Y-114844406D01*
X67439923Y-114846000D01*
X67913558Y-114846000D01*
X67927941Y-114845807D01*
X67942071Y-114845230D01*
X67955949Y-114844268D01*
X67969576Y-114842922D01*
X67982950Y-114841191D01*
X67996073Y-114839075D01*
X68008944Y-114836575D01*
X68021563Y-114833690D01*
X68033930Y-114830420D01*
X68046045Y-114826765D01*
X68057908Y-114822726D01*
X68069520Y-114818302D01*
X68080879Y-114813494D01*
X68089715Y-114809363D01*
X68396573Y-114809363D01*
X68396838Y-114813934D01*
X68400396Y-114825667D01*
X68407418Y-114835155D01*
X68410914Y-114838279D01*
X68421845Y-114844210D01*
X68433503Y-114846000D01*
X68495638Y-114846000D01*
X68501801Y-114845835D01*
X68515996Y-114843980D01*
X68528460Y-114840064D01*
X68539192Y-114834088D01*
X68548192Y-114826051D01*
X68555460Y-114815953D01*
X68560997Y-114803794D01*
X68648632Y-114579286D01*
X69231591Y-114579286D01*
X69318932Y-114803794D01*
X69322046Y-114811337D01*
X69328622Y-114822259D01*
X69336930Y-114831121D01*
X69346969Y-114837921D01*
X69358740Y-114842661D01*
X69372242Y-114845340D01*
X69384291Y-114846000D01*
X69446427Y-114846000D01*
X69451082Y-114845735D01*
X69462975Y-114842176D01*
X69472512Y-114835155D01*
X69475636Y-114831574D01*
X69481566Y-114820483D01*
X69483356Y-114808777D01*
X69483350Y-114808239D01*
X69480980Y-114796410D01*
X69476615Y-114785330D01*
X69084796Y-113766544D01*
X69550181Y-113766544D01*
X69551247Y-113776088D01*
X69555987Y-113787731D01*
X69563663Y-113797318D01*
X69572576Y-113804119D01*
X69583504Y-113808691D01*
X69595610Y-113810214D01*
X69909511Y-113810214D01*
X69909511Y-114800277D01*
X69910828Y-114811360D01*
X69915317Y-114822493D01*
X69922993Y-114832517D01*
X69931906Y-114839627D01*
X69942834Y-114844406D01*
X69954940Y-114846000D01*
X70023817Y-114846000D01*
X70034871Y-114844683D01*
X70045906Y-114840193D01*
X70055764Y-114832517D01*
X70062873Y-114823450D01*
X70067653Y-114812418D01*
X70069246Y-114800277D01*
X70069246Y-113810214D01*
X70383440Y-113810214D01*
X70394494Y-113808955D01*
X70405529Y-113804661D01*
X70415387Y-113797318D01*
X70421285Y-113790449D01*
X70426973Y-113779115D01*
X70428869Y-113766544D01*
X70505659Y-113766544D01*
X70506725Y-113776088D01*
X70511465Y-113787731D01*
X70519141Y-113797318D01*
X70528054Y-113804119D01*
X70538982Y-113808691D01*
X70551088Y-113810214D01*
X70864989Y-113810214D01*
X70864989Y-114800277D01*
X70866306Y-114811360D01*
X70870795Y-114822493D01*
X70878471Y-114832517D01*
X70887384Y-114839627D01*
X70898312Y-114844406D01*
X70910418Y-114846000D01*
X70979295Y-114846000D01*
X70990349Y-114844683D01*
X71001384Y-114840193D01*
X71011242Y-114832517D01*
X71018351Y-114823450D01*
X71023131Y-114812418D01*
X71024724Y-114800277D01*
X71024724Y-113810214D01*
X71338918Y-113810214D01*
X71349972Y-113808955D01*
X71361007Y-113804661D01*
X71370865Y-113797318D01*
X71376763Y-113790449D01*
X71382451Y-113779115D01*
X71384347Y-113766544D01*
X71384347Y-113707926D01*
X71383281Y-113698405D01*
X71378541Y-113686864D01*
X71370865Y-113677444D01*
X71361952Y-113670489D01*
X71351024Y-113665813D01*
X71338918Y-113664255D01*
X70551088Y-113664255D01*
X70540034Y-113665543D01*
X70528999Y-113669935D01*
X70519141Y-113677444D01*
X70513243Y-113684185D01*
X70507555Y-113695396D01*
X70505659Y-113707926D01*
X70505659Y-113766544D01*
X70428869Y-113766544D01*
X70428869Y-113707926D01*
X70427803Y-113698405D01*
X70423063Y-113686864D01*
X70415387Y-113677444D01*
X70406474Y-113670489D01*
X70395546Y-113665813D01*
X70383440Y-113664255D01*
X69595610Y-113664255D01*
X69584556Y-113665543D01*
X69573521Y-113669935D01*
X69563663Y-113677444D01*
X69557765Y-113684185D01*
X69552077Y-113695396D01*
X69550181Y-113707926D01*
X69550181Y-113766544D01*
X69084796Y-113766544D01*
X69066873Y-113719942D01*
X69062473Y-113709990D01*
X69055741Y-113698244D01*
X69048020Y-113688237D01*
X69039310Y-113679971D01*
X69027031Y-113672086D01*
X69016095Y-113667735D01*
X69004170Y-113665125D01*
X68991256Y-113664255D01*
X68890432Y-113664255D01*
X68880604Y-113664744D01*
X68868381Y-113666920D01*
X68857166Y-113670835D01*
X68844563Y-113678177D01*
X68835615Y-113686008D01*
X68827674Y-113695579D01*
X68820741Y-113706891D01*
X68814815Y-113719942D01*
X68539349Y-114433327D01*
X68403314Y-114785623D01*
X68402899Y-114786569D01*
X68398706Y-114797668D01*
X68396573Y-114809363D01*
X68089715Y-114809363D01*
X68091987Y-114808301D01*
X68102843Y-114802723D01*
X68113447Y-114796760D01*
X68118664Y-114793654D01*
X68128856Y-114787268D01*
X68138725Y-114780650D01*
X68152923Y-114770290D01*
X68166394Y-114759410D01*
X68179139Y-114748010D01*
X68191158Y-114736089D01*
X68202450Y-114723648D01*
X68213016Y-114710686D01*
X68222856Y-114697204D01*
X68231969Y-114683202D01*
X68240355Y-114668679D01*
X68245537Y-114658752D01*
X68252683Y-114643728D01*
X68259077Y-114628544D01*
X68264718Y-114613200D01*
X68269607Y-114597697D01*
X68273744Y-114582034D01*
X68277129Y-114566212D01*
X68279762Y-114550229D01*
X68281642Y-114534087D01*
X68282771Y-114517785D01*
X68283147Y-114501324D01*
X68282973Y-114490140D01*
X68282059Y-114473599D01*
X68280362Y-114457342D01*
X68277883Y-114441368D01*
X68274620Y-114425678D01*
X68270574Y-114410271D01*
X68265744Y-114395147D01*
X68260132Y-114380307D01*
X68253737Y-114365750D01*
X68246558Y-114351476D01*
X68238597Y-114337486D01*
X68232927Y-114328357D01*
X68224045Y-114315049D01*
X68214710Y-114302205D01*
X68204921Y-114289825D01*
X68194679Y-114277908D01*
X68183983Y-114266455D01*
X68172834Y-114255466D01*
X68161232Y-114244941D01*
X68149176Y-114234879D01*
X68136667Y-114225281D01*
X68123705Y-114216146D01*
X68126436Y-114214431D01*
X68137388Y-114206968D01*
X68148386Y-114198544D01*
X68159429Y-114189158D01*
X68170519Y-114178811D01*
X68178866Y-114170419D01*
X68187239Y-114161487D01*
X68195637Y-114152013D01*
X68204062Y-114141998D01*
X68212512Y-114131443D01*
X68218013Y-114124083D01*
X68225599Y-114112512D01*
X68232387Y-114100302D01*
X68238376Y-114087453D01*
X68243567Y-114073965D01*
X68247959Y-114059838D01*
X68251552Y-114045072D01*
X68254347Y-114029668D01*
X68256344Y-114013624D01*
X68257542Y-113996942D01*
X68257941Y-113979621D01*
X68257802Y-113970999D01*
X68257075Y-113958019D01*
X68255724Y-113944982D01*
X68253750Y-113931888D01*
X68251153Y-113918737D01*
X68247932Y-113905530D01*
X68244088Y-113892266D01*
X68239620Y-113878946D01*
X68234529Y-113865569D01*
X68228815Y-113852135D01*
X68222477Y-113838644D01*
X68220233Y-113834159D01*
X68212947Y-113820949D01*
X68204832Y-113808110D01*
X68195887Y-113795642D01*
X68186113Y-113783545D01*
X68175509Y-113771819D01*
X68164076Y-113760464D01*
X68151813Y-113749480D01*
X68138721Y-113738867D01*
X68124800Y-113728625D01*
X68115058Y-113722003D01*
X68104947Y-113715546D01*
X68094491Y-113709335D01*
X68083639Y-113703525D01*
X68072390Y-113698115D01*
X68060745Y-113693106D01*
X68048705Y-113688498D01*
X68036268Y-113684290D01*
X68023435Y-113680484D01*
X68010205Y-113677078D01*
X67996580Y-113674072D01*
X67982559Y-113671468D01*
X67968141Y-113669264D01*
X67953327Y-113667461D01*
X67938117Y-113666058D01*
X67922511Y-113665056D01*
X67906509Y-113664455D01*
X67890111Y-113664255D01*
X67439923Y-113664255D01*
X67428869Y-113665572D01*
X67417834Y-113670061D01*
X67407976Y-113677737D01*
X67400866Y-113686679D01*
X67396087Y-113697705D01*
X67394494Y-113709977D01*
X67394494Y-113810214D01*
X67394494Y-114302022D01*
X67394494Y-114800277D01*
X67035565Y-114800277D01*
X67035565Y-113305326D01*
X71743276Y-113305326D01*
X71743276Y-115204929D01*
G37*
G36*
X103057976Y-119842366D02*
G01*
X103077958Y-119843420D01*
X103097241Y-119845178D01*
X103115826Y-119847638D01*
X103133713Y-119850801D01*
X103150901Y-119854668D01*
X103167391Y-119859237D01*
X103183182Y-119864509D01*
X103198276Y-119870484D01*
X103212670Y-119877163D01*
X103226367Y-119884544D01*
X103239364Y-119892628D01*
X103251664Y-119901415D01*
X103263265Y-119910905D01*
X103274168Y-119921098D01*
X103284372Y-119931993D01*
X103293933Y-119943395D01*
X103302906Y-119955180D01*
X103311290Y-119967347D01*
X103319085Y-119979896D01*
X103326292Y-119992827D01*
X103332911Y-120006141D01*
X103338941Y-120019837D01*
X103344383Y-120033916D01*
X103349236Y-120048377D01*
X103353501Y-120063221D01*
X103357177Y-120078446D01*
X103360265Y-120094055D01*
X103362764Y-120110045D01*
X103364675Y-120126418D01*
X103365997Y-120143174D01*
X103366731Y-120160312D01*
X103366944Y-120166817D01*
X103367329Y-120180391D01*
X103367658Y-120194716D01*
X103367933Y-120209791D01*
X103368103Y-120221591D01*
X103368242Y-120233814D01*
X103368350Y-120246458D01*
X103368428Y-120259525D01*
X103368474Y-120273015D01*
X103368490Y-120286927D01*
X103368488Y-120291612D01*
X103368462Y-120305383D01*
X103368405Y-120318732D01*
X103368318Y-120331658D01*
X103368199Y-120344162D01*
X103368050Y-120356243D01*
X103367803Y-120371695D01*
X103367500Y-120386395D01*
X103367143Y-120400344D01*
X103366731Y-120413543D01*
X103366013Y-120430891D01*
X103364739Y-120447839D01*
X103362908Y-120464386D01*
X103360521Y-120480532D01*
X103357578Y-120496278D01*
X103354078Y-120511623D01*
X103350021Y-120526567D01*
X103345409Y-120541111D01*
X103340239Y-120555254D01*
X103334514Y-120568996D01*
X103328232Y-120582337D01*
X103321393Y-120595278D01*
X103313999Y-120607818D01*
X103306047Y-120619957D01*
X103297540Y-120631695D01*
X103288476Y-120643033D01*
X103278769Y-120653787D01*
X103268335Y-120663847D01*
X103257172Y-120673214D01*
X103245281Y-120681886D01*
X103232662Y-120689865D01*
X103219315Y-120697150D01*
X103205240Y-120703741D01*
X103190436Y-120709638D01*
X103174905Y-120714842D01*
X103158645Y-120719352D01*
X103141657Y-120723167D01*
X103123941Y-120726290D01*
X103105497Y-120728718D01*
X103086325Y-120730452D01*
X103066424Y-120731493D01*
X103045796Y-120731840D01*
X102773514Y-120731840D01*
X102773514Y-119842014D01*
X103037296Y-119842014D01*
X103057976Y-119842366D01*
G37*
G36*
X103886860Y-121255486D02*
G01*
X99806364Y-121255486D01*
X99806364Y-120585294D01*
X100165293Y-120585294D01*
X100165914Y-120594275D01*
X100167660Y-120607763D01*
X100170386Y-120621271D01*
X100174090Y-120634800D01*
X100178773Y-120648350D01*
X100184435Y-120661920D01*
X100191076Y-120675511D01*
X100198696Y-120689123D01*
X100207295Y-120702755D01*
X100216872Y-120716408D01*
X100227429Y-120730081D01*
X100234962Y-120739067D01*
X100242834Y-120747850D01*
X100251046Y-120756432D01*
X100259596Y-120764813D01*
X100268485Y-120772992D01*
X100277712Y-120780969D01*
X100287279Y-120788746D01*
X100297185Y-120796320D01*
X100307429Y-120803693D01*
X100318012Y-120810865D01*
X100328935Y-120817835D01*
X100340196Y-120824603D01*
X100351796Y-120831170D01*
X100363735Y-120837536D01*
X100376012Y-120843700D01*
X100388629Y-120849663D01*
X100401537Y-120855341D01*
X100414613Y-120860654D01*
X100427860Y-120865600D01*
X100441276Y-120870179D01*
X100454861Y-120874392D01*
X100468616Y-120878239D01*
X100482540Y-120881720D01*
X100496633Y-120884834D01*
X100510896Y-120887581D01*
X100525329Y-120889963D01*
X100539931Y-120891978D01*
X100554702Y-120893626D01*
X100569643Y-120894909D01*
X100584753Y-120895825D01*
X100600033Y-120896374D01*
X100615482Y-120896557D01*
X100632172Y-120896384D01*
X100648610Y-120895866D01*
X100664797Y-120895001D01*
X100680731Y-120893791D01*
X100696414Y-120892235D01*
X100711845Y-120890334D01*
X100727024Y-120888086D01*
X100741951Y-120885493D01*
X100756626Y-120882554D01*
X100771049Y-120879270D01*
X100785221Y-120875639D01*
X100799140Y-120871663D01*
X100812808Y-120867341D01*
X100826224Y-120862673D01*
X100839388Y-120857660D01*
X100852300Y-120852301D01*
X100864942Y-120846636D01*
X100877222Y-120840705D01*
X100889140Y-120834509D01*
X100900696Y-120828047D01*
X100911891Y-120821320D01*
X100922724Y-120814327D01*
X100933195Y-120807068D01*
X100943305Y-120799544D01*
X100953052Y-120791754D01*
X100962438Y-120783699D01*
X100971462Y-120775378D01*
X100980124Y-120766791D01*
X100988425Y-120757939D01*
X100996363Y-120748821D01*
X101003940Y-120739437D01*
X101011155Y-120729788D01*
X101017970Y-120719877D01*
X101024344Y-120709780D01*
X101030279Y-120699498D01*
X101035775Y-120689030D01*
X101040831Y-120678377D01*
X101045447Y-120667538D01*
X101049624Y-120656514D01*
X101053360Y-120645305D01*
X101056658Y-120633910D01*
X101059515Y-120622329D01*
X101061933Y-120610563D01*
X101063912Y-120598612D01*
X101065450Y-120586475D01*
X101066550Y-120574152D01*
X101067209Y-120561644D01*
X101067429Y-120548951D01*
X101067116Y-120533188D01*
X101066179Y-120517847D01*
X101064616Y-120502926D01*
X101062428Y-120488428D01*
X101059615Y-120474350D01*
X101056177Y-120460694D01*
X101052114Y-120447459D01*
X101047425Y-120434645D01*
X101042112Y-120422253D01*
X101036173Y-120410282D01*
X101029610Y-120398732D01*
X101022421Y-120387604D01*
X101014607Y-120376897D01*
X101006168Y-120366611D01*
X100997104Y-120356747D01*
X100987415Y-120347304D01*
X100982323Y-120342692D01*
X100971486Y-120333601D01*
X100959776Y-120324690D01*
X100947193Y-120315956D01*
X100933739Y-120307402D01*
X100919412Y-120299026D01*
X100904212Y-120290828D01*
X100888140Y-120282810D01*
X100871196Y-120274969D01*
X100853379Y-120267308D01*
X100834690Y-120259825D01*
X100815128Y-120252520D01*
X100794694Y-120245395D01*
X100773388Y-120238447D01*
X100751209Y-120231679D01*
X100739793Y-120228362D01*
X100728158Y-120225089D01*
X100716305Y-120221861D01*
X100707546Y-120219527D01*
X100690446Y-120214925D01*
X100673904Y-120210409D01*
X100657922Y-120205981D01*
X100642498Y-120201639D01*
X100627633Y-120197385D01*
X100613326Y-120193218D01*
X100599578Y-120189137D01*
X100586389Y-120185144D01*
X100573759Y-120181237D01*
X100561687Y-120177418D01*
X100550174Y-120173686D01*
X100533952Y-120168250D01*
X100518987Y-120163011D01*
X100505279Y-120157967D01*
X100492562Y-120152931D01*
X100480457Y-120147715D01*
X100468966Y-120142318D01*
X100458087Y-120136741D01*
X100444536Y-120129024D01*
X100432075Y-120120987D01*
X100420704Y-120112629D01*
X100410423Y-120103951D01*
X100401232Y-120094952D01*
X100393195Y-120085463D01*
X100386229Y-120075315D01*
X100380336Y-120064507D01*
X100375513Y-120053040D01*
X100371763Y-120040914D01*
X100369084Y-120028127D01*
X100367476Y-120014682D01*
X100366940Y-120000577D01*
X100367212Y-119990069D01*
X100368636Y-119974883D01*
X100371282Y-119960387D01*
X100375148Y-119946581D01*
X100380236Y-119933466D01*
X100386545Y-119921041D01*
X100394074Y-119909306D01*
X100402825Y-119898262D01*
X100412797Y-119887908D01*
X100423989Y-119878245D01*
X100436403Y-119869272D01*
X100449755Y-119861048D01*
X100463654Y-119853634D01*
X100478098Y-119847028D01*
X100493089Y-119841231D01*
X100508625Y-119836243D01*
X100524708Y-119832064D01*
X100541337Y-119828694D01*
X100558512Y-119826133D01*
X100570266Y-119824874D01*
X100582262Y-119823976D01*
X100594501Y-119823436D01*
X100606982Y-119823257D01*
X100620479Y-119823458D01*
X100633640Y-119824063D01*
X100646464Y-119825070D01*
X100658951Y-119826481D01*
X100671102Y-119828294D01*
X100682916Y-119830511D01*
X100694393Y-119833130D01*
X100710978Y-119837815D01*
X100726806Y-119843407D01*
X100741877Y-119849905D01*
X100756190Y-119857310D01*
X100769746Y-119865622D01*
X100782544Y-119874841D01*
X100786663Y-119878066D01*
X100798554Y-119887764D01*
X100809744Y-119897493D01*
X100820234Y-119907252D01*
X100830022Y-119917043D01*
X100839111Y-119926864D01*
X100847498Y-119936717D01*
X100855185Y-119946600D01*
X100862171Y-119956514D01*
X100868456Y-119966459D01*
X100875747Y-119979767D01*
X100882344Y-119991161D01*
X100889294Y-120001156D01*
X100897729Y-120009956D01*
X100903353Y-120013290D01*
X100915226Y-120016676D01*
X100927917Y-120017576D01*
X100996794Y-120017576D01*
X101002385Y-120017195D01*
X101013652Y-120013753D01*
X101023758Y-120006732D01*
X101027093Y-120003151D01*
X101032927Y-119992059D01*
X101033723Y-119980354D01*
X101033474Y-119976569D01*
X101031521Y-119961207D01*
X101029052Y-119949451D01*
X101025723Y-119937494D01*
X101021534Y-119925336D01*
X101016484Y-119912977D01*
X101010574Y-119900417D01*
X101003803Y-119887657D01*
X100996172Y-119874695D01*
X100987681Y-119861533D01*
X100978329Y-119848169D01*
X100968163Y-119834851D01*
X100957230Y-119821935D01*
X100945529Y-119809421D01*
X100933060Y-119797309D01*
X100924321Y-119789457D01*
X100915241Y-119781784D01*
X100905820Y-119774290D01*
X100896057Y-119766974D01*
X100885954Y-119759837D01*
X100875509Y-119752878D01*
X100864723Y-119746098D01*
X100853596Y-119739497D01*
X100845630Y-119735036D01*
X101206061Y-119735036D01*
X101207820Y-119748518D01*
X101414449Y-120790165D01*
X101416377Y-120798469D01*
X101419853Y-120811359D01*
X101423658Y-120823062D01*
X101428659Y-120835536D01*
X101434134Y-120846300D01*
X101441120Y-120856697D01*
X101448258Y-120863868D01*
X101458512Y-120870360D01*
X101470842Y-120874832D01*
X101483062Y-120877058D01*
X101496808Y-120877800D01*
X101563926Y-120877800D01*
X101575015Y-120877249D01*
X101587133Y-120875133D01*
X101599629Y-120870659D01*
X101610358Y-120864025D01*
X101619320Y-120855231D01*
X101623835Y-120849287D01*
X101630231Y-120839237D01*
X101636173Y-120827827D01*
X101641661Y-120815057D01*
X101645889Y-120803377D01*
X101649801Y-120790751D01*
X101804261Y-120232412D01*
X101958720Y-120790751D01*
X101960977Y-120798440D01*
X101965003Y-120810498D01*
X101969358Y-120821612D01*
X101975018Y-120833702D01*
X101981152Y-120844432D01*
X101988908Y-120855231D01*
X101996492Y-120862901D01*
X102007007Y-120869843D01*
X102019316Y-120874626D01*
X102031297Y-120877006D01*
X102044596Y-120877800D01*
X102111714Y-120877800D01*
X102123267Y-120877284D01*
X102135714Y-120875306D01*
X102148282Y-120871123D01*
X102158747Y-120864920D01*
X102167108Y-120856697D01*
X102171184Y-120851041D01*
X102177831Y-120839314D01*
X102180997Y-120832077D01*
X102614072Y-120832077D01*
X102615389Y-120843286D01*
X102619879Y-120854425D01*
X102627554Y-120864317D01*
X102636467Y-120871427D01*
X102647396Y-120876206D01*
X102659501Y-120877800D01*
X103054296Y-120877800D01*
X103071390Y-120877585D01*
X103088235Y-120876943D01*
X103104830Y-120875873D01*
X103121175Y-120874374D01*
X103137271Y-120872447D01*
X103153118Y-120870092D01*
X103168715Y-120867309D01*
X103184062Y-120864097D01*
X103199159Y-120860458D01*
X103214007Y-120856390D01*
X103228606Y-120851894D01*
X103242955Y-120846970D01*
X103257054Y-120841618D01*
X103270904Y-120835837D01*
X103284504Y-120829628D01*
X103297854Y-120822991D01*
X103310903Y-120815949D01*
X103323596Y-120808525D01*
X103335935Y-120800718D01*
X103347918Y-120792528D01*
X103359547Y-120783956D01*
X103370821Y-120775002D01*
X103381739Y-120765666D01*
X103392303Y-120755947D01*
X103402512Y-120745845D01*
X103412366Y-120735362D01*
X103421865Y-120724496D01*
X103431010Y-120713247D01*
X103439799Y-120701616D01*
X103448233Y-120689603D01*
X103456313Y-120677207D01*
X103464037Y-120664429D01*
X103471390Y-120651282D01*
X103478280Y-120637854D01*
X103484707Y-120624144D01*
X103490672Y-120610152D01*
X103496174Y-120595879D01*
X103501214Y-120581324D01*
X103505791Y-120566487D01*
X103509906Y-120551369D01*
X103513558Y-120535969D01*
X103516748Y-120520288D01*
X103519475Y-120504324D01*
X103521740Y-120488080D01*
X103523542Y-120471553D01*
X103524881Y-120454745D01*
X103525758Y-120437655D01*
X103526173Y-120420284D01*
X103526487Y-120410496D01*
X103526858Y-120396572D01*
X103527174Y-120381649D01*
X103527375Y-120369802D01*
X103527545Y-120357394D01*
X103527684Y-120344423D01*
X103527792Y-120330892D01*
X103527869Y-120316798D01*
X103527916Y-120302144D01*
X103527931Y-120286927D01*
X103527924Y-120276721D01*
X103527888Y-120261878D01*
X103527821Y-120247598D01*
X103527723Y-120233879D01*
X103527595Y-120220722D01*
X103527435Y-120208126D01*
X103527244Y-120196092D01*
X103526942Y-120180920D01*
X103526585Y-120166746D01*
X103526173Y-120153571D01*
X103525753Y-120136200D01*
X103524858Y-120119114D01*
X103523490Y-120102312D01*
X103521648Y-120085793D01*
X103519332Y-120069559D01*
X103516542Y-120053608D01*
X103513278Y-120037941D01*
X103509540Y-120022559D01*
X103505328Y-120007460D01*
X103500642Y-119992645D01*
X103495482Y-119978114D01*
X103489848Y-119963867D01*
X103483740Y-119949904D01*
X103477158Y-119936225D01*
X103470102Y-119922830D01*
X103462572Y-119909719D01*
X103454624Y-119896905D01*
X103446314Y-119884476D01*
X103437643Y-119872432D01*
X103428610Y-119860772D01*
X103419215Y-119849497D01*
X103409458Y-119838607D01*
X103399340Y-119828102D01*
X103388859Y-119817981D01*
X103378017Y-119808245D01*
X103366813Y-119798893D01*
X103355248Y-119789927D01*
X103343320Y-119781345D01*
X103331031Y-119773147D01*
X103318380Y-119765334D01*
X103305367Y-119757906D01*
X103291993Y-119750863D01*
X103278316Y-119744226D01*
X103264396Y-119738017D01*
X103250234Y-119732237D01*
X103235829Y-119726884D01*
X103221181Y-119721960D01*
X103206291Y-119717464D01*
X103191158Y-119713397D01*
X103175782Y-119709757D01*
X103160163Y-119706546D01*
X103144302Y-119703762D01*
X103128198Y-119701407D01*
X103111851Y-119699480D01*
X103095262Y-119697982D01*
X103078430Y-119696911D01*
X103061355Y-119696269D01*
X103044037Y-119696055D01*
X102659501Y-119696055D01*
X102648447Y-119697372D01*
X102637412Y-119701861D01*
X102627554Y-119709537D01*
X102620445Y-119718479D01*
X102615665Y-119729505D01*
X102614072Y-119741777D01*
X102614072Y-119842014D01*
X102614072Y-120832077D01*
X102180997Y-120832077D01*
X102183038Y-120827410D01*
X102187031Y-120816183D01*
X102190709Y-120803768D01*
X102194072Y-120790165D01*
X102400702Y-119748518D01*
X102402167Y-119735036D01*
X102401786Y-119729256D01*
X102398344Y-119717791D01*
X102391323Y-119707779D01*
X102387102Y-119703794D01*
X102376895Y-119697990D01*
X102365238Y-119696055D01*
X102298120Y-119696055D01*
X102286980Y-119697143D01*
X102275652Y-119700851D01*
X102265293Y-119707192D01*
X102263569Y-119708597D01*
X102255314Y-119718083D01*
X102249612Y-119729292D01*
X102245949Y-119741484D01*
X102074784Y-120671463D01*
X101889843Y-120006146D01*
X101886415Y-119994764D01*
X101880562Y-119983590D01*
X101873137Y-119973612D01*
X101867607Y-119968134D01*
X101857535Y-119962042D01*
X101845330Y-119958500D01*
X101832690Y-119957492D01*
X101775538Y-119957492D01*
X101769076Y-119957744D01*
X101756044Y-119960153D01*
X101745099Y-119965112D01*
X101735384Y-119973612D01*
X101727960Y-119983773D01*
X101722107Y-119995149D01*
X101718678Y-120006732D01*
X101533737Y-120677325D01*
X101362279Y-119741777D01*
X101361619Y-119738860D01*
X101357745Y-119726979D01*
X101351700Y-119716172D01*
X101342935Y-119707192D01*
X101333713Y-119701319D01*
X101322577Y-119697371D01*
X101310402Y-119696055D01*
X101242991Y-119696055D01*
X101238412Y-119696341D01*
X101226583Y-119700188D01*
X101216905Y-119707779D01*
X101213220Y-119712220D01*
X101207851Y-119722902D01*
X101206061Y-119735036D01*
X100845630Y-119735036D01*
X100842127Y-119733074D01*
X100830318Y-119726830D01*
X100818248Y-119720831D01*
X100805927Y-119715220D01*
X100793354Y-119709996D01*
X100780529Y-119705159D01*
X100767452Y-119700709D01*
X100754123Y-119696646D01*
X100740543Y-119692969D01*
X100726710Y-119689680D01*
X100712626Y-119686778D01*
X100698289Y-119684263D01*
X100683701Y-119682134D01*
X100668861Y-119680393D01*
X100653769Y-119679038D01*
X100638425Y-119678071D01*
X100622830Y-119677491D01*
X100606982Y-119677297D01*
X100591188Y-119677477D01*
X100575681Y-119678016D01*
X100560460Y-119678915D01*
X100545525Y-119680173D01*
X100530876Y-119681791D01*
X100516513Y-119683768D01*
X100502437Y-119686105D01*
X100488647Y-119688801D01*
X100475143Y-119691857D01*
X100461925Y-119695272D01*
X100448993Y-119699047D01*
X100436348Y-119703181D01*
X100423989Y-119707674D01*
X100411916Y-119712528D01*
X100400129Y-119717740D01*
X100388629Y-119723312D01*
X100383013Y-119726217D01*
X100372045Y-119732195D01*
X100361429Y-119738401D01*
X100351167Y-119744833D01*
X100341256Y-119751491D01*
X100331699Y-119758377D01*
X100318024Y-119769130D01*
X100305142Y-119780393D01*
X100293054Y-119792166D01*
X100281759Y-119804449D01*
X100271257Y-119817242D01*
X100261549Y-119830546D01*
X100252635Y-119844359D01*
X100247133Y-119853756D01*
X100239547Y-119868058D01*
X100232759Y-119882608D01*
X100226770Y-119897404D01*
X100221580Y-119912448D01*
X100217187Y-119927739D01*
X100213594Y-119943278D01*
X100210799Y-119959063D01*
X100208803Y-119975096D01*
X100207605Y-119991377D01*
X100207206Y-120007904D01*
X100207487Y-120022665D01*
X100208332Y-120037126D01*
X100209740Y-120051287D01*
X100211712Y-120065149D01*
X100214247Y-120078710D01*
X100217345Y-120091971D01*
X100221006Y-120104932D01*
X100225231Y-120117594D01*
X100230019Y-120129955D01*
X100235370Y-120142016D01*
X100241284Y-120153778D01*
X100247762Y-120165239D01*
X100254803Y-120176401D01*
X100262407Y-120187262D01*
X100270575Y-120197824D01*
X100279306Y-120208086D01*
X100288709Y-120218047D01*
X100298819Y-120227709D01*
X100309638Y-120237071D01*
X100321163Y-120246133D01*
X100333396Y-120254894D01*
X100346337Y-120263356D01*
X100359985Y-120271518D01*
X100374341Y-120279380D01*
X100389404Y-120286942D01*
X100405175Y-120294204D01*
X100421653Y-120301166D01*
X100438839Y-120307828D01*
X100456733Y-120314190D01*
X100475334Y-120320253D01*
X100494642Y-120326015D01*
X100514658Y-120331477D01*
X100533061Y-120336336D01*
X100550901Y-120341094D01*
X100568177Y-120345752D01*
X100584890Y-120350308D01*
X100601040Y-120354764D01*
X100616627Y-120359119D01*
X100631650Y-120363374D01*
X100646110Y-120367527D01*
X100660007Y-120371580D01*
X100673340Y-120375532D01*
X100686110Y-120379384D01*
X100698317Y-120383134D01*
X100709960Y-120386784D01*
X100726369Y-120392070D01*
X100741511Y-120397130D01*
X100755728Y-120402181D01*
X100769363Y-120407444D01*
X100782415Y-120412918D01*
X100794886Y-120418603D01*
X100806774Y-120424500D01*
X100818080Y-120430607D01*
X100828804Y-120436926D01*
X100838946Y-120443456D01*
X100851562Y-120452492D01*
X100863144Y-120461903D01*
X100873585Y-120471776D01*
X100882635Y-120482199D01*
X100890292Y-120493172D01*
X100896557Y-120504694D01*
X100901429Y-120516766D01*
X100904910Y-120529387D01*
X100906998Y-120542558D01*
X100907694Y-120556278D01*
X100907611Y-120561686D01*
X100906366Y-120577518D01*
X100903627Y-120592763D01*
X100899394Y-120607420D01*
X100893666Y-120621490D01*
X100886445Y-120634973D01*
X100877729Y-120647869D01*
X100867520Y-120660177D01*
X100855816Y-120671898D01*
X100842619Y-120683031D01*
X100832990Y-120690127D01*
X100822697Y-120696962D01*
X100811962Y-120703457D01*
X100800931Y-120709533D01*
X100789604Y-120715190D01*
X100777983Y-120720428D01*
X100766066Y-120725247D01*
X100753853Y-120729646D01*
X100741345Y-120733627D01*
X100728542Y-120737189D01*
X100715443Y-120740332D01*
X100702049Y-120743055D01*
X100688360Y-120745360D01*
X100674375Y-120747246D01*
X100660095Y-120748712D01*
X100645519Y-120749760D01*
X100630648Y-120750388D01*
X100615482Y-120750598D01*
X100607875Y-120750548D01*
X100592959Y-120750147D01*
X100578442Y-120749346D01*
X100564323Y-120748143D01*
X100550603Y-120746541D01*
X100537281Y-120744537D01*
X100524357Y-120742133D01*
X100511832Y-120739328D01*
X100499706Y-120736122D01*
X100487977Y-120732516D01*
X100476648Y-120728509D01*
X100465716Y-120724101D01*
X100450066Y-120716738D01*
X100435312Y-120708473D01*
X100421455Y-120699307D01*
X100412691Y-120692820D01*
X100400202Y-120682944D01*
X100388501Y-120672892D01*
X100377588Y-120662665D01*
X100367464Y-120652263D01*
X100358127Y-120641686D01*
X100349579Y-120630934D01*
X100341819Y-120620007D01*
X100334848Y-120608904D01*
X100328665Y-120597626D01*
X100323270Y-120586174D01*
X100317384Y-120574803D01*
X100310571Y-120564888D01*
X100301288Y-120556278D01*
X100295005Y-120552816D01*
X100282997Y-120549300D01*
X100271099Y-120548365D01*
X100202223Y-120548365D01*
X100197568Y-120548630D01*
X100185674Y-120552188D01*
X100176138Y-120559209D01*
X100173014Y-120562705D01*
X100167083Y-120573637D01*
X100165293Y-120585294D01*
X99806364Y-120585294D01*
X99806364Y-119318368D01*
X103886860Y-119318368D01*
X103886860Y-121255486D01*
G37*
D15*
G36*
X74892923Y-112358757D02*
G01*
X74892893Y-112363967D01*
X74892650Y-112374146D01*
X74892164Y-112384001D01*
X74891436Y-112393533D01*
X74890465Y-112402741D01*
X74889252Y-112411625D01*
X74887795Y-112420186D01*
X74886096Y-112428423D01*
X74884155Y-112436337D01*
X74880787Y-112447600D01*
X74876873Y-112458135D01*
X74872413Y-112467942D01*
X74867407Y-112477021D01*
X74861855Y-112485372D01*
X74857844Y-112490530D01*
X74851258Y-112497643D01*
X74843989Y-112504008D01*
X74836036Y-112509624D01*
X74827399Y-112514490D01*
X74818079Y-112518609D01*
X74808076Y-112521978D01*
X74797389Y-112524599D01*
X74786019Y-112526471D01*
X74778059Y-112527303D01*
X74769795Y-112527802D01*
X74761227Y-112527968D01*
X74752836Y-112527803D01*
X74744712Y-112527307D01*
X74729262Y-112525324D01*
X74714877Y-112522019D01*
X74701559Y-112517392D01*
X74689305Y-112511444D01*
X74678117Y-112504173D01*
X74667995Y-112495580D01*
X74658938Y-112485665D01*
X74650947Y-112474429D01*
X74644021Y-112461870D01*
X74638161Y-112447989D01*
X74635630Y-112440553D01*
X74633366Y-112432787D01*
X74631368Y-112424690D01*
X74629637Y-112416262D01*
X74628172Y-112407504D01*
X74626973Y-112398416D01*
X74626041Y-112388997D01*
X74625375Y-112379247D01*
X74624975Y-112369167D01*
X74624842Y-112358757D01*
X74624842Y-112169420D01*
X74892923Y-112169420D01*
X74892923Y-112358757D01*
G37*
G36*
X74892923Y-110766293D02*
G01*
X74892788Y-110776692D01*
X74892384Y-110786760D01*
X74891710Y-110796498D01*
X74890767Y-110805906D01*
X74889555Y-110814984D01*
X74888073Y-110823732D01*
X74886322Y-110832150D01*
X74884301Y-110840238D01*
X74882011Y-110847995D01*
X74876622Y-110862520D01*
X74870156Y-110875725D01*
X74862612Y-110887609D01*
X74853990Y-110898172D01*
X74844291Y-110907415D01*
X74833513Y-110915338D01*
X74821659Y-110921940D01*
X74808726Y-110927222D01*
X74794716Y-110931183D01*
X74779627Y-110933824D01*
X74771679Y-110934649D01*
X74763462Y-110935144D01*
X74754975Y-110935309D01*
X74746199Y-110935138D01*
X74737700Y-110934625D01*
X74729480Y-110933771D01*
X74721538Y-110932574D01*
X74710145Y-110930137D01*
X74699377Y-110926932D01*
X74689235Y-110922957D01*
X74679717Y-110918212D01*
X74670825Y-110912699D01*
X74662558Y-110906415D01*
X74654915Y-110899363D01*
X74647898Y-110891541D01*
X74641543Y-110883036D01*
X74635813Y-110873862D01*
X74630708Y-110864017D01*
X74626228Y-110853503D01*
X74623589Y-110846122D01*
X74621227Y-110838443D01*
X74619143Y-110830466D01*
X74617338Y-110822191D01*
X74615810Y-110813619D01*
X74614559Y-110804749D01*
X74613587Y-110795582D01*
X74612892Y-110786117D01*
X74612476Y-110776354D01*
X74612337Y-110766293D01*
X74612337Y-110565623D01*
X74892923Y-110565623D01*
X74892923Y-110766293D01*
G37*
G36*
X75254516Y-112909881D02*
G01*
X73938114Y-112909881D01*
X73938114Y-112620780D01*
X74202400Y-112620780D01*
X74202581Y-112623884D01*
X74205017Y-112631813D01*
X74209824Y-112638170D01*
X74212712Y-112640694D01*
X74219675Y-112644370D01*
X74227605Y-112645595D01*
X74232921Y-112644922D01*
X74240306Y-112642078D01*
X74542581Y-112473062D01*
X74545609Y-112482176D01*
X74548879Y-112491054D01*
X74552393Y-112499695D01*
X74556149Y-112508099D01*
X74560147Y-112516267D01*
X74564389Y-112524198D01*
X74568873Y-112531892D01*
X74573600Y-112539350D01*
X74578569Y-112546571D01*
X74583782Y-112553556D01*
X74589237Y-112560304D01*
X74594934Y-112566815D01*
X74600875Y-112573090D01*
X74607058Y-112579128D01*
X74613484Y-112584929D01*
X74620152Y-112590494D01*
X74627068Y-112595794D01*
X74634233Y-112600752D01*
X74641649Y-112605369D01*
X74649315Y-112609643D01*
X74657232Y-112613575D01*
X74665398Y-112617166D01*
X74673816Y-112620414D01*
X74682483Y-112623321D01*
X74691401Y-112625885D01*
X74700569Y-112628108D01*
X74709988Y-112629988D01*
X74719657Y-112631527D01*
X74729576Y-112632724D01*
X74739746Y-112633579D01*
X74750166Y-112634092D01*
X74760836Y-112634263D01*
X74775019Y-112633965D01*
X74788747Y-112633072D01*
X74802020Y-112631584D01*
X74814838Y-112629500D01*
X74827202Y-112626821D01*
X74839110Y-112623546D01*
X74850564Y-112619677D01*
X74861562Y-112615212D01*
X74872106Y-112610151D01*
X74882195Y-112604495D01*
X74891828Y-112598244D01*
X74901007Y-112591398D01*
X74909731Y-112583956D01*
X74918001Y-112575919D01*
X74925815Y-112567287D01*
X74933174Y-112558059D01*
X74940083Y-112548395D01*
X74946546Y-112538406D01*
X74952564Y-112528093D01*
X74958136Y-112517453D01*
X74963262Y-112506489D01*
X74967942Y-112495200D01*
X74972177Y-112483585D01*
X74975965Y-112471646D01*
X74979309Y-112459381D01*
X74982206Y-112446791D01*
X74984657Y-112433876D01*
X74986663Y-112420636D01*
X74988223Y-112407070D01*
X74989338Y-112393180D01*
X74990006Y-112378964D01*
X74990229Y-112364423D01*
X74990229Y-112093411D01*
X74989351Y-112086042D01*
X74986358Y-112078685D01*
X74981241Y-112072113D01*
X74975280Y-112067373D01*
X74967929Y-112064187D01*
X74959748Y-112063125D01*
X74232881Y-112063125D01*
X74225409Y-112064003D01*
X74217983Y-112066996D01*
X74211388Y-112072113D01*
X74206648Y-112078055D01*
X74203462Y-112085341D01*
X74202400Y-112093411D01*
X74202400Y-112139329D01*
X74203296Y-112146679D01*
X74206355Y-112153971D01*
X74211583Y-112160431D01*
X74217666Y-112165171D01*
X74225151Y-112168358D01*
X74233467Y-112169420D01*
X74527536Y-112169420D01*
X74527536Y-112362078D01*
X74233467Y-112524646D01*
X74227915Y-112527924D01*
X74221362Y-112532690D01*
X74214535Y-112539283D01*
X74209226Y-112546581D01*
X74205433Y-112554586D01*
X74203158Y-112563297D01*
X74202400Y-112572713D01*
X74202400Y-112620780D01*
X73938114Y-112620780D01*
X73938114Y-111728219D01*
X74202400Y-111728219D01*
X74202743Y-111735922D01*
X74204062Y-111744220D01*
X74206851Y-111752599D01*
X74210986Y-111759575D01*
X74216468Y-111765149D01*
X74220238Y-111767866D01*
X74228056Y-111772298D01*
X74235993Y-111775769D01*
X74243477Y-111778431D01*
X74251754Y-111780883D01*
X74260822Y-111783125D01*
X74955254Y-111920878D01*
X74964242Y-111921855D01*
X74968095Y-111921601D01*
X74975738Y-111919306D01*
X74982413Y-111914625D01*
X74985070Y-111911811D01*
X74988939Y-111905007D01*
X74990229Y-111897235D01*
X74990229Y-111852490D01*
X74989504Y-111845064D01*
X74987032Y-111837512D01*
X74982804Y-111830606D01*
X74981868Y-111829456D01*
X74975544Y-111823953D01*
X74968071Y-111820152D01*
X74959943Y-111817710D01*
X74339957Y-111703600D01*
X74783502Y-111580306D01*
X74791090Y-111578020D01*
X74798539Y-111574118D01*
X74805191Y-111569168D01*
X74808843Y-111565482D01*
X74812905Y-111558767D01*
X74815266Y-111550630D01*
X74815938Y-111542204D01*
X74815938Y-111504102D01*
X74815770Y-111499794D01*
X74814164Y-111491106D01*
X74810858Y-111483809D01*
X74805191Y-111477333D01*
X74798417Y-111472383D01*
X74790833Y-111468481D01*
X74783111Y-111466196D01*
X74336049Y-111342902D01*
X74959748Y-111228596D01*
X74961693Y-111228157D01*
X74969613Y-111225574D01*
X74976818Y-111221544D01*
X74982804Y-111215700D01*
X74986720Y-111209552D01*
X74989352Y-111202128D01*
X74990229Y-111194011D01*
X74990229Y-111149071D01*
X74990038Y-111146019D01*
X74987474Y-111138133D01*
X74982413Y-111131681D01*
X74979453Y-111129224D01*
X74972331Y-111125644D01*
X74964242Y-111124451D01*
X74955254Y-111125623D01*
X74260822Y-111263376D01*
X74255286Y-111264661D01*
X74246693Y-111266979D01*
X74238891Y-111269516D01*
X74230575Y-111272850D01*
X74223399Y-111276500D01*
X74216468Y-111281157D01*
X74211687Y-111285915D01*
X74207359Y-111292751D01*
X74204378Y-111300971D01*
X74202894Y-111309118D01*
X74202400Y-111318282D01*
X74202400Y-111363027D01*
X74202767Y-111370421D01*
X74204177Y-111378499D01*
X74207160Y-111386830D01*
X74211582Y-111393982D01*
X74217445Y-111399957D01*
X74221408Y-111402967D01*
X74228108Y-111407231D01*
X74235714Y-111411192D01*
X74244228Y-111414851D01*
X74252015Y-111417669D01*
X74260432Y-111420278D01*
X74632658Y-111523251D01*
X74260432Y-111626224D01*
X74255306Y-111627728D01*
X74247267Y-111630412D01*
X74239858Y-111633316D01*
X74231798Y-111637089D01*
X74224644Y-111641179D01*
X74217445Y-111646349D01*
X74212332Y-111651405D01*
X74207704Y-111658415D01*
X74204515Y-111666621D01*
X74202928Y-111674608D01*
X74202400Y-111683474D01*
X74202400Y-111728219D01*
X73938114Y-111728219D01*
X73938114Y-110535533D01*
X74202400Y-110535533D01*
X74203296Y-110542883D01*
X74206355Y-110550175D01*
X74211583Y-110556635D01*
X74217666Y-110561375D01*
X74225151Y-110564561D01*
X74233467Y-110565623D01*
X74515030Y-110565623D01*
X74515030Y-110771764D01*
X74515134Y-110781088D01*
X74515446Y-110790302D01*
X74515965Y-110799407D01*
X74516691Y-110808401D01*
X74517625Y-110817285D01*
X74518767Y-110826060D01*
X74520117Y-110834724D01*
X74521674Y-110843279D01*
X74523438Y-110851723D01*
X74525411Y-110860058D01*
X74527591Y-110868283D01*
X74529978Y-110876398D01*
X74532573Y-110884403D01*
X74535376Y-110892298D01*
X74538386Y-110900083D01*
X74541604Y-110907759D01*
X74545058Y-110915307D01*
X74548727Y-110922661D01*
X74552611Y-110929821D01*
X74556710Y-110936787D01*
X74561025Y-110943559D01*
X74565555Y-110950138D01*
X74570300Y-110956523D01*
X74575261Y-110962713D01*
X74580436Y-110968710D01*
X74585827Y-110974513D01*
X74591433Y-110980123D01*
X74597255Y-110985538D01*
X74603291Y-110990759D01*
X74609543Y-110995787D01*
X74616010Y-111000621D01*
X74622693Y-111005260D01*
X74629597Y-111009685D01*
X74636682Y-111013824D01*
X74643946Y-111017678D01*
X74651391Y-111021246D01*
X74659016Y-111024529D01*
X74666821Y-111027526D01*
X74674806Y-111030238D01*
X74682972Y-111032665D01*
X74691317Y-111034805D01*
X74699843Y-111036661D01*
X74708549Y-111038231D01*
X74717434Y-111039516D01*
X74726500Y-111040515D01*
X74735746Y-111041228D01*
X74745173Y-111041656D01*
X74754779Y-111041799D01*
X74768997Y-111041499D01*
X74782782Y-111040599D01*
X74796132Y-111039100D01*
X74809050Y-111037000D01*
X74821534Y-111034300D01*
X74833584Y-111031001D01*
X74845201Y-111027101D01*
X74856384Y-111022602D01*
X74867134Y-111017502D01*
X74877450Y-111011803D01*
X74887333Y-111005504D01*
X74896782Y-110998605D01*
X74905798Y-110991106D01*
X74914380Y-110983007D01*
X74922528Y-110974308D01*
X74930243Y-110965009D01*
X74937507Y-110955256D01*
X74944302Y-110945192D01*
X74950629Y-110934819D01*
X74956487Y-110924135D01*
X74961876Y-110913142D01*
X74966797Y-110901839D01*
X74971249Y-110890226D01*
X74975233Y-110878303D01*
X74978748Y-110866070D01*
X74981794Y-110853528D01*
X74984371Y-110840675D01*
X74986480Y-110827513D01*
X74988120Y-110814040D01*
X74989292Y-110800258D01*
X74989995Y-110786166D01*
X74990229Y-110771764D01*
X74990229Y-110489615D01*
X74989351Y-110482246D01*
X74986358Y-110474889D01*
X74981241Y-110468317D01*
X74975280Y-110463577D01*
X74967929Y-110460391D01*
X74959748Y-110459329D01*
X74232881Y-110459329D01*
X74225409Y-110460207D01*
X74217983Y-110463200D01*
X74211388Y-110468317D01*
X74206648Y-110474259D01*
X74203462Y-110481544D01*
X74202400Y-110489615D01*
X74202400Y-110535533D01*
X73938114Y-110535533D01*
X73938114Y-110195043D01*
X75254516Y-110195043D01*
X75254516Y-112909881D01*
G37*
D16*
%TO.C,SW2*%
X148533000Y-88229000D02*
X149133000Y-88229000D01*
X148833000Y-88529000D02*
X148533000Y-88229000D01*
X149133000Y-88229000D02*
X148833000Y-88529000D01*
X149633000Y-86029000D02*
X149633000Y-88529000D01*
X149633000Y-98629000D02*
X149633000Y-95829000D01*
X154433000Y-86029000D02*
X149633000Y-86029000D01*
X154533000Y-98629000D02*
X149633000Y-98629000D01*
X155833000Y-92329000D02*
X156833000Y-92329000D01*
X156333000Y-91829000D02*
X156333000Y-92829000D01*
X158133000Y-86029000D02*
X163033000Y-86029000D01*
X163033000Y-86029000D02*
X163033000Y-88629000D01*
X163033000Y-91029000D02*
X163033000Y-93629000D01*
X163033000Y-96029000D02*
X163033000Y-98629000D01*
X163033000Y-98629000D02*
X158133000Y-98629000D01*
X159333000Y-92329000D02*
G75*
G03*
X159333000Y-92329000I-3000000J0D01*
G01*
%TO.C,C12*%
X119280400Y-119887420D02*
X119280400Y-120168580D01*
X118260400Y-119887420D02*
X118260400Y-120168580D01*
%TO.C,C20*%
X137476620Y-102410800D02*
X137757780Y-102410800D01*
X137476620Y-103430800D02*
X137757780Y-103430800D01*
%TO.C,JP1*%
X75900000Y-109504500D02*
X76500000Y-109504500D01*
X77200000Y-110154500D02*
X77200000Y-112954500D01*
X75200000Y-112954500D02*
X75200000Y-110154500D01*
X76500000Y-113604500D02*
X75900000Y-113604500D01*
X77200000Y-110204500D02*
G75*
G03*
X76500000Y-109504500I-699999J1D01*
G01*
X75900000Y-109504500D02*
G75*
G03*
X75200000Y-110204500I-1J-699999D01*
G01*
X76500000Y-113604500D02*
G75*
G03*
X77200000Y-112904500I0J700000D01*
G01*
X75200000Y-112904500D02*
G75*
G03*
X75900000Y-113604500I700000J0D01*
G01*
%TO.C,C15*%
X112404364Y-119058800D02*
X112620036Y-119058800D01*
X112404364Y-119778800D02*
X112620036Y-119778800D01*
%TO.C,Q1*%
X82397600Y-103420600D02*
X84072600Y-103420600D01*
X82397600Y-103420600D02*
X81747600Y-103420600D01*
X82397600Y-100300600D02*
X83047600Y-100300600D01*
X82397600Y-100300600D02*
X81747600Y-100300600D01*
%TO.C,J1*%
X89247000Y-83009400D02*
X89247000Y-84559400D01*
X89247000Y-83009400D02*
X88947000Y-83009400D01*
X88947000Y-80209400D02*
X88947000Y-83009400D01*
X86797000Y-86259400D02*
X85997000Y-86259400D01*
X86397000Y-85809400D02*
X86797000Y-86259400D01*
X85997000Y-86259400D02*
X86397000Y-85809400D01*
X81247000Y-83009400D02*
X80947000Y-83009400D01*
X81247000Y-80209400D02*
X81247000Y-83009400D01*
X80947000Y-83009400D02*
X80947000Y-84559400D01*
%TO.C,C22*%
X113736800Y-87991836D02*
X113736800Y-87776164D01*
X114456800Y-87991836D02*
X114456800Y-87776164D01*
%TO.C,C3*%
X124157200Y-112127420D02*
X124157200Y-112408580D01*
X123137200Y-112127420D02*
X123137200Y-112408580D01*
%TO.C,C21*%
X131163600Y-107176180D02*
X131163600Y-106895020D01*
X132183600Y-107176180D02*
X132183600Y-106895020D01*
%TO.C,C32*%
X127125000Y-120739780D02*
X127125000Y-120458620D01*
X128145000Y-120739780D02*
X128145000Y-120458620D01*
%TO.C,R11*%
X106440500Y-119650742D02*
X106440500Y-120125258D01*
X105395500Y-119650742D02*
X105395500Y-120125258D01*
D15*
%TO.C,U1*%
X104367000Y-104391000D02*
X104367000Y-103991000D01*
X104367000Y-101641000D02*
X104367000Y-101166000D01*
X104367000Y-101166000D02*
X104067000Y-100841000D01*
X104067000Y-100841000D02*
X104067000Y-100646000D01*
X103867000Y-104391000D02*
X104367000Y-104391000D01*
X98192000Y-104391000D02*
X97817000Y-104391000D01*
X97817000Y-104391000D02*
X97817000Y-104091000D01*
X97817000Y-101316000D02*
X97817000Y-100841000D01*
X97817000Y-100841000D02*
X98267000Y-100841000D01*
D10*
%TO.C,U5*%
X138020400Y-109197600D02*
X137495400Y-109197600D01*
X138020400Y-104897600D02*
X138020400Y-105422600D01*
X138020400Y-104897600D02*
X137495400Y-104897600D01*
X133720400Y-109197600D02*
X134245400Y-109197600D01*
X133720400Y-109197600D02*
X133720400Y-108672600D01*
X133720400Y-104897600D02*
X134245400Y-104897600D01*
X133720400Y-104897600D02*
X133720400Y-105422600D01*
D16*
%TO.C,Q3*%
X85888000Y-113205500D02*
X85888000Y-111530500D01*
X85888000Y-113205500D02*
X85888000Y-113855500D01*
X82768000Y-113205500D02*
X82768000Y-112555500D01*
X82768000Y-113205500D02*
X82768000Y-113855500D01*
%TO.C,D5*%
X98753000Y-94980000D02*
X98753000Y-92980000D01*
X98753000Y-94980000D02*
X94743000Y-94980000D01*
X98753000Y-92980000D02*
X94743000Y-92980000D01*
%TO.C,Q2*%
X81824000Y-113205500D02*
X81824000Y-111530500D01*
X81824000Y-113205500D02*
X81824000Y-113855500D01*
X78704000Y-113205500D02*
X78704000Y-112555500D01*
X78704000Y-113205500D02*
X78704000Y-113855500D01*
%TO.C,C31*%
X125220000Y-120739780D02*
X125220000Y-120458620D01*
X126240000Y-120739780D02*
X126240000Y-120458620D01*
%TO.C,U4*%
X109890000Y-114330000D02*
X110840000Y-114330000D01*
X110840000Y-114330000D02*
X110840000Y-115670000D01*
X120110000Y-114330000D02*
X119160000Y-114330000D01*
X109890000Y-113380000D02*
X109890000Y-114330000D01*
X120110000Y-113380000D02*
X120110000Y-114330000D01*
X109890000Y-105060000D02*
X109890000Y-104110000D01*
X120110000Y-105060000D02*
X120110000Y-104110000D01*
X109890000Y-104110000D02*
X110840000Y-104110000D01*
X120110000Y-104110000D02*
X119160000Y-104110000D01*
%TO.C,D3*%
X94261000Y-109181000D02*
X95731000Y-109181000D01*
X95731000Y-109181000D02*
X95731000Y-106896000D01*
X94261000Y-106896000D02*
X94261000Y-109181000D01*
%TO.C,C27*%
X116412600Y-88690564D02*
X116412600Y-88906236D01*
X115692600Y-88690564D02*
X115692600Y-88906236D01*
%TO.C,SW1*%
X103868000Y-125592100D02*
X103868000Y-124992100D01*
X104518000Y-124292100D02*
X107318000Y-124292100D01*
X107318000Y-126292100D02*
X104518000Y-126292100D01*
X107968000Y-124992100D02*
X107968000Y-125592100D01*
X104568000Y-124292100D02*
G75*
G03*
X103868000Y-124992100I-1J-699999D01*
G01*
X103868000Y-125592100D02*
G75*
G03*
X104568000Y-126292100I699999J-1D01*
G01*
X107968000Y-124992100D02*
G75*
G03*
X107268000Y-124292100I-700000J0D01*
G01*
X107268000Y-126292100D02*
G75*
G03*
X107968000Y-125592100I0J700000D01*
G01*
%TO.C,C8*%
X94368252Y-100252200D02*
X93845748Y-100252200D01*
X94368252Y-98782200D02*
X93845748Y-98782200D01*
%TO.C,C9*%
X96264000Y-98895780D02*
X96264000Y-98614620D01*
X97284000Y-98895780D02*
X97284000Y-98614620D01*
%TO.C,R7*%
X133429742Y-98283500D02*
X133904258Y-98283500D01*
X133429742Y-99328500D02*
X133904258Y-99328500D01*
%TO.C,C13*%
X117451600Y-119887420D02*
X117451600Y-120168580D01*
X116431600Y-119887420D02*
X116431600Y-120168580D01*
%TO.C,R3*%
X95995258Y-105297500D02*
X95520742Y-105297500D01*
X95995258Y-104252500D02*
X95520742Y-104252500D01*
D17*
%TO.C,U9*%
X145100000Y-141100000D02*
X145100000Y-137950000D01*
X154900000Y-141100000D02*
X145100000Y-141100000D01*
X154900000Y-137950000D02*
X154900000Y-141100000D01*
X155170000Y-137950000D02*
X154900000Y-137950000D01*
X142000000Y-136070000D02*
X142000000Y-135450000D01*
X135700000Y-135450000D02*
X135700000Y-124550000D01*
X142000000Y-135450000D02*
X135700000Y-135450000D01*
X157900000Y-134850000D02*
X157900000Y-136070000D01*
X161100000Y-134850000D02*
X157900000Y-134850000D01*
X157900000Y-125150000D02*
X161100000Y-125150000D01*
X135700000Y-124550000D02*
X142000000Y-124550000D01*
X142000000Y-124550000D02*
X142000000Y-123920000D01*
X157900000Y-123920000D02*
X157900000Y-125150000D01*
X145900000Y-122050000D02*
X145900000Y-120500000D01*
X154000000Y-122050000D02*
X155120000Y-122050000D01*
X145900000Y-120500000D02*
X154000000Y-120500000D01*
X154000000Y-120500000D02*
X154000000Y-122050000D01*
D13*
X136750000Y-136050000D02*
G75*
G03*
X136750000Y-136050000I-100000J0D01*
G01*
D16*
%TO.C,C6*%
X107785780Y-114911600D02*
X107504620Y-114911600D01*
X107785780Y-113891600D02*
X107504620Y-113891600D01*
%TO.C,L1*%
X86700948Y-101744200D02*
X89473452Y-101744200D01*
X86700948Y-105164200D02*
X89473452Y-105164200D01*
%TO.C,J3*%
X99794000Y-109240000D02*
X100854000Y-109240000D01*
X99794000Y-110300000D02*
X99794000Y-109240000D01*
X99794000Y-111300000D02*
X99794000Y-119360000D01*
X99794000Y-111300000D02*
X101854000Y-111300000D01*
X99794000Y-119360000D02*
X103914000Y-119360000D01*
X101854000Y-109240000D02*
X103914000Y-109240000D01*
X101854000Y-111300000D02*
X101854000Y-109240000D01*
X103914000Y-109240000D02*
X103914000Y-119360000D01*
%TO.C,C28*%
X135485600Y-102018220D02*
X135485600Y-102299380D01*
X134465600Y-102018220D02*
X134465600Y-102299380D01*
D17*
%TO.C,U8*%
X75100000Y-141100000D02*
X75100000Y-137950000D01*
X84900000Y-141100000D02*
X75100000Y-141100000D01*
X84900000Y-137950000D02*
X84900000Y-141100000D01*
X85170000Y-137950000D02*
X84900000Y-137950000D01*
X72000000Y-136070000D02*
X72000000Y-135450000D01*
X65700000Y-135450000D02*
X65700000Y-124550000D01*
X72000000Y-135450000D02*
X65700000Y-135450000D01*
X87900000Y-134850000D02*
X87900000Y-136070000D01*
X91100000Y-134850000D02*
X87900000Y-134850000D01*
X87900000Y-125150000D02*
X91100000Y-125150000D01*
X65700000Y-124550000D02*
X72000000Y-124550000D01*
X72000000Y-124550000D02*
X72000000Y-123920000D01*
X87900000Y-123920000D02*
X87900000Y-125150000D01*
X75900000Y-122050000D02*
X75900000Y-120500000D01*
X84000000Y-122050000D02*
X85120000Y-122050000D01*
X75900000Y-120500000D02*
X84000000Y-120500000D01*
X84000000Y-120500000D02*
X84000000Y-122050000D01*
D13*
X66750000Y-136050000D02*
G75*
G03*
X66750000Y-136050000I-100000J0D01*
G01*
D16*
%TO.C,R8*%
X132253258Y-97296500D02*
X131778742Y-97296500D01*
X132253258Y-96251500D02*
X131778742Y-96251500D01*
%TO.C,C19*%
X119860600Y-98209980D02*
X119860600Y-97928820D01*
X120880600Y-98209980D02*
X120880600Y-97928820D01*
%TO.C,TP1*%
X98236000Y-108077000D02*
G75*
G03*
X98236000Y-108077000I-700000J0D01*
G01*
%TO.C,BT1*%
X64358000Y-105928000D02*
X63718000Y-105928000D01*
X63718000Y-105928000D02*
X63718000Y-106328000D01*
X71678000Y-106168000D02*
X63958000Y-106168000D01*
X71678000Y-106168000D02*
X71678000Y-113288000D01*
X65518000Y-106168000D02*
X65518000Y-113288000D01*
X64418000Y-106168000D02*
X64418000Y-113288000D01*
X63958000Y-106168000D02*
X63958000Y-113288000D01*
X67577000Y-110333000D02*
X67449000Y-110204000D01*
X67337000Y-110503000D02*
X67244000Y-110409000D01*
X69793000Y-112548000D02*
X69699000Y-112454000D01*
X69587000Y-112753000D02*
X69459000Y-112624000D01*
X71678000Y-113288000D02*
X63958000Y-113288000D01*
X69384000Y-106538000D02*
G75*
G03*
X67628106Y-106552642I-866000J-1439998D01*
G01*
X69958000Y-108844000D02*
G75*
G03*
X69943358Y-107088106I-1439998J866000D01*
G01*
X67078000Y-107112000D02*
G75*
G03*
X66837902Y-108006674I1440014J-866003D01*
G01*
X66838001Y-107978000D02*
G75*
G03*
X67093280Y-108868264I1679989J-3D01*
G01*
X67627001Y-109402999D02*
G75*
G03*
X69408192Y-109403503I890999J1425002D01*
G01*
X70198000Y-111478000D02*
G75*
G03*
X70198000Y-111478000I-1680000J0D01*
G01*
%TO.C,SW4*%
X70510000Y-95138000D02*
X76810000Y-95138000D01*
X70510000Y-95388000D02*
X70510000Y-95138000D01*
X70510000Y-99888000D02*
X70510000Y-97288000D01*
X70510000Y-102038000D02*
X70510000Y-101788000D01*
X76810000Y-95138000D02*
X76810000Y-95388000D01*
X76810000Y-97288000D02*
X76810000Y-99888000D01*
X76810000Y-101788000D02*
X76810000Y-102038000D01*
X76810000Y-102038000D02*
X70510000Y-102038000D01*
%TO.C,R18*%
X84090742Y-109635000D02*
X84565258Y-109635000D01*
X84090742Y-110680000D02*
X84565258Y-110680000D01*
%TO.C,R13*%
X110129542Y-93416100D02*
X110604058Y-93416100D01*
X110129542Y-94461100D02*
X110604058Y-94461100D01*
%TO.C,C5*%
X108811600Y-101994580D02*
X108811600Y-101713420D01*
X109831600Y-101994580D02*
X109831600Y-101713420D01*
%TO.C,FB1*%
X120013000Y-120177779D02*
X120013000Y-119852221D01*
X121033000Y-120177779D02*
X121033000Y-119852221D01*
%TO.C,C16*%
X123670600Y-105626780D02*
X123670600Y-105345620D01*
X124690600Y-105626780D02*
X124690600Y-105345620D01*
%TO.C,R1*%
X92515458Y-97118700D02*
X92040942Y-97118700D01*
X92515458Y-96073700D02*
X92040942Y-96073700D01*
%TO.C,U7*%
X132842000Y-121940000D02*
X136292000Y-121940000D01*
X132842000Y-121940000D02*
X130892000Y-121940000D01*
X132842000Y-116820000D02*
X134792000Y-116820000D01*
X132842000Y-116820000D02*
X130892000Y-116820000D01*
%TO.C,C24*%
X123377736Y-98061600D02*
X123162064Y-98061600D01*
X123377736Y-97341600D02*
X123162064Y-97341600D01*
%TO.C,C11*%
X102119820Y-94994000D02*
X102400980Y-94994000D01*
X102119820Y-96014000D02*
X102400980Y-96014000D01*
%TO.C,R10*%
X127999258Y-115076500D02*
X127524742Y-115076500D01*
X127999258Y-114031500D02*
X127524742Y-114031500D01*
%TO.C,Y1*%
X109343000Y-120535800D02*
X109343000Y-123835800D01*
X109343000Y-123835800D02*
X113343000Y-123835800D01*
%TO.C,C18*%
X110507380Y-92619800D02*
X110226220Y-92619800D01*
X110507380Y-91599800D02*
X110226220Y-91599800D01*
%TO.C,C4*%
X123303420Y-102410800D02*
X123584580Y-102410800D01*
X123303420Y-103430800D02*
X123584580Y-103430800D01*
%TO.C,D4*%
X125807800Y-106971200D02*
X127277800Y-106971200D01*
X127277800Y-106971200D02*
X127277800Y-104686200D01*
X125807800Y-104686200D02*
X125807800Y-106971200D01*
%TO.C,R12*%
X119848100Y-94281258D02*
X119848100Y-93806742D01*
X120893100Y-94281258D02*
X120893100Y-93806742D01*
%TO.C,C26*%
X117403200Y-88690564D02*
X117403200Y-88906236D01*
X116683200Y-88690564D02*
X116683200Y-88906236D01*
%TO.C,R2*%
X74049658Y-104510100D02*
X73575142Y-104510100D01*
X74049658Y-103465100D02*
X73575142Y-103465100D01*
%TO.C,R9*%
X131461742Y-114031500D02*
X131936258Y-114031500D01*
X131461742Y-115076500D02*
X131936258Y-115076500D01*
%TO.C,C17*%
X110111000Y-96887420D02*
X110111000Y-97168580D01*
X109091000Y-96887420D02*
X109091000Y-97168580D01*
%TO.C,C14*%
X110283236Y-119778800D02*
X110067564Y-119778800D01*
X110283236Y-119058800D02*
X110067564Y-119058800D01*
%TO.C,C23*%
X113696636Y-86821600D02*
X113480964Y-86821600D01*
X113696636Y-86101600D02*
X113480964Y-86101600D01*
%TO.C,C29*%
X134768000Y-111105836D02*
X134768000Y-110890164D01*
X135488000Y-111105836D02*
X135488000Y-110890164D01*
%TO.C,SW3*%
X70510000Y-82692000D02*
X76810000Y-82692000D01*
X70510000Y-82942000D02*
X70510000Y-82692000D01*
X70510000Y-87442000D02*
X70510000Y-84842000D01*
X70510000Y-89592000D02*
X70510000Y-89342000D01*
X76810000Y-82692000D02*
X76810000Y-82942000D01*
X76810000Y-84842000D02*
X76810000Y-87442000D01*
X76810000Y-89342000D02*
X76810000Y-89592000D01*
X76810000Y-89592000D02*
X70510000Y-89592000D01*
%TO.C,C10*%
X102119820Y-96670400D02*
X102400980Y-96670400D01*
X102119820Y-97690400D02*
X102400980Y-97690400D01*
%TO.C,U2*%
X89611200Y-101077200D02*
X91411200Y-101077200D01*
X89611200Y-101077200D02*
X88811200Y-101077200D01*
X89611200Y-97957200D02*
X90411200Y-97957200D01*
X89611200Y-97957200D02*
X88811200Y-97957200D01*
%TO.C,R4*%
X88959458Y-97118700D02*
X88484942Y-97118700D01*
X88959458Y-96073700D02*
X88484942Y-96073700D01*
%TO.C,U6*%
X117045000Y-97233000D02*
X116320000Y-97233000D01*
X112825000Y-96508000D02*
X112825000Y-97233000D01*
X117045000Y-96508000D02*
X117045000Y-97233000D01*
X112825000Y-93738000D02*
X112825000Y-93013000D01*
X117045000Y-93738000D02*
X117045000Y-93013000D01*
X112825000Y-93013000D02*
X113550000Y-93013000D01*
X117045000Y-93013000D02*
X116320000Y-93013000D01*
%TO.C,Y2*%
X121619900Y-96940800D02*
X124919900Y-96940800D01*
X124919900Y-96940800D02*
X124919900Y-92940800D01*
%TO.C,R16*%
X88154742Y-109635000D02*
X88629258Y-109635000D01*
X88154742Y-110680000D02*
X88629258Y-110680000D01*
%TO.C,D2*%
X95908200Y-103565200D02*
X95908200Y-101565200D01*
X95908200Y-103565200D02*
X91898200Y-103565200D01*
X95908200Y-101565200D02*
X91898200Y-101565200D01*
%TO.C,C7*%
X84910200Y-99911780D02*
X84910200Y-99630620D01*
X85930200Y-99911780D02*
X85930200Y-99630620D01*
%TO.C,C30*%
X111889000Y-96887420D02*
X111889000Y-97168580D01*
X110869000Y-96887420D02*
X110869000Y-97168580D01*
%TO.C,D1*%
X89952000Y-113205500D02*
X89952000Y-111530500D01*
X89952000Y-113205500D02*
X89952000Y-113855500D01*
X86832000Y-113205500D02*
X86832000Y-112555500D01*
X86832000Y-113205500D02*
X86832000Y-113855500D01*
%TO.C,R15*%
X145273500Y-94826858D02*
X145273500Y-94352342D01*
X146318500Y-94826858D02*
X146318500Y-94352342D01*
%TO.C,R17*%
X80026742Y-109635000D02*
X80501258Y-109635000D01*
X80026742Y-110680000D02*
X80501258Y-110680000D01*
%TO.C,C25*%
X123162064Y-91855200D02*
X123377736Y-91855200D01*
X123162064Y-92575200D02*
X123377736Y-92575200D01*
%TO.C,U3*%
X86992400Y-89712800D02*
X86992400Y-87912800D01*
X86992400Y-89712800D02*
X86992400Y-90512800D01*
X83872400Y-89712800D02*
X83872400Y-88912800D01*
X83872400Y-89712800D02*
X83872400Y-90512800D01*
%TO.C,R14*%
X145273500Y-90407258D02*
X145273500Y-89932742D01*
X146318500Y-90407258D02*
X146318500Y-89932742D01*
%TO.C,R5*%
X75200742Y-105395500D02*
X75675258Y-105395500D01*
X75200742Y-106440500D02*
X75675258Y-106440500D01*
%TO.C,R6*%
X126838942Y-102398300D02*
X127313458Y-102398300D01*
X126838942Y-103443300D02*
X127313458Y-103443300D01*
%TO.C,C2*%
X108966580Y-117846209D02*
X108685420Y-117846209D01*
X108966580Y-116826209D02*
X108685420Y-116826209D01*
%TO.C,C1*%
X123811420Y-115949000D02*
X124092580Y-115949000D01*
X123811420Y-116969000D02*
X124092580Y-116969000D01*
%TD*%
M02*
