%TF.GenerationSoftware,KiCad,Pcbnew,7.0.1*%
%TF.CreationDate,2023-10-06T11:12:28+02:00*%
%TF.ProjectId,Controller_board,436f6e74-726f-46c6-9c65-725f626f6172,rev?*%
%TF.SameCoordinates,Original*%
%TF.FileFunction,Soldermask,Top*%
%TF.FilePolarity,Negative*%
%FSLAX46Y46*%
G04 Gerber Fmt 4.6, Leading zero omitted, Abs format (unit mm)*
G04 Created by KiCad (PCBNEW 7.0.1) date 2023-10-06 11:12:28*
%MOMM*%
%LPD*%
G01*
G04 APERTURE LIST*
G04 Aperture macros list*
%AMRoundRect*
0 Rectangle with rounded corners*
0 $1 Rounding radius*
0 $2 $3 $4 $5 $6 $7 $8 $9 X,Y pos of 4 corners*
0 Add a 4 corners polygon primitive as box body*
4,1,4,$2,$3,$4,$5,$6,$7,$8,$9,$2,$3,0*
0 Add four circle primitives for the rounded corners*
1,1,$1+$1,$2,$3*
1,1,$1+$1,$4,$5*
1,1,$1+$1,$6,$7*
1,1,$1+$1,$8,$9*
0 Add four rect primitives between the rounded corners*
20,1,$1+$1,$2,$3,$4,$5,0*
20,1,$1+$1,$4,$5,$6,$7,0*
20,1,$1+$1,$6,$7,$8,$9,0*
20,1,$1+$1,$8,$9,$2,$3,0*%
%AMFreePoly0*
4,1,19,0.550000,-0.750000,0.000000,-0.750000,0.000000,-0.744911,-0.071157,-0.744911,-0.207708,-0.704816,-0.327430,-0.627875,-0.420627,-0.520320,-0.479746,-0.390866,-0.500000,-0.250000,-0.500000,0.250000,-0.479746,0.390866,-0.420627,0.520320,-0.327430,0.627875,-0.207708,0.704816,-0.071157,0.744911,0.000000,0.744911,0.000000,0.750000,0.550000,0.750000,0.550000,-0.750000,0.550000,-0.750000,
$1*%
%AMFreePoly1*
4,1,19,0.000000,0.744911,0.071157,0.744911,0.207708,0.704816,0.327430,0.627875,0.420627,0.520320,0.479746,0.390866,0.500000,0.250000,0.500000,-0.250000,0.479746,-0.390866,0.420627,-0.520320,0.327430,-0.627875,0.207708,-0.704816,0.071157,-0.744911,0.000000,-0.744911,0.000000,-0.750000,-0.550000,-0.750000,-0.550000,0.750000,0.000000,0.750000,0.000000,0.744911,0.000000,0.744911,
$1*%
G04 Aperture macros list end*
%ADD10C,0.150000*%
%ADD11R,2.000000X2.000000*%
%ADD12C,2.000000*%
%ADD13R,3.000000X2.500000*%
%ADD14RoundRect,0.225000X-0.250000X0.225000X-0.250000X-0.225000X0.250000X-0.225000X0.250000X0.225000X0*%
%ADD15RoundRect,0.225000X-0.225000X-0.250000X0.225000X-0.250000X0.225000X0.250000X-0.225000X0.250000X0*%
%ADD16FreePoly0,270.000000*%
%ADD17R,1.500000X1.000000*%
%ADD18FreePoly1,270.000000*%
%ADD19RoundRect,0.140000X-0.140000X-0.170000X0.140000X-0.170000X0.140000X0.170000X-0.140000X0.170000X0*%
%ADD20RoundRect,0.150000X0.587500X0.150000X-0.587500X0.150000X-0.587500X-0.150000X0.587500X-0.150000X0*%
%ADD21R,0.400000X1.650000*%
%ADD22R,1.825000X0.700000*%
%ADD23R,2.000000X1.500000*%
%ADD24R,1.350000X2.000000*%
%ADD25O,1.350000X1.700000*%
%ADD26O,1.100000X1.500000*%
%ADD27R,1.430000X2.500000*%
%ADD28RoundRect,0.140000X0.170000X-0.140000X0.170000X0.140000X-0.170000X0.140000X-0.170000X-0.140000X0*%
%ADD29RoundRect,0.225000X0.250000X-0.225000X0.250000X0.225000X-0.250000X0.225000X-0.250000X-0.225000X0*%
%ADD30RoundRect,0.200000X-0.275000X0.200000X-0.275000X-0.200000X0.275000X-0.200000X0.275000X0.200000X0*%
%ADD31R,1.500000X2.200000*%
%ADD32R,3.800000X2.200000*%
%ADD33RoundRect,0.075000X0.350000X0.075000X-0.350000X0.075000X-0.350000X-0.075000X0.350000X-0.075000X0*%
%ADD34RoundRect,0.075000X-0.075000X0.350000X-0.075000X-0.350000X0.075000X-0.350000X0.075000X0.350000X0*%
%ADD35RoundRect,0.150000X-0.150000X0.587500X-0.150000X-0.587500X0.150000X-0.587500X0.150000X0.587500X0*%
%ADD36RoundRect,0.225000X0.225000X0.375000X-0.225000X0.375000X-0.225000X-0.375000X0.225000X-0.375000X0*%
%ADD37RoundRect,0.075000X0.075000X-0.700000X0.075000X0.700000X-0.075000X0.700000X-0.075000X-0.700000X0*%
%ADD38RoundRect,0.075000X0.700000X-0.075000X0.700000X0.075000X-0.700000X0.075000X-0.700000X-0.075000X0*%
%ADD39RoundRect,0.218750X0.256250X-0.218750X0.256250X0.218750X-0.256250X0.218750X-0.256250X-0.218750X0*%
%ADD40RoundRect,0.140000X-0.170000X0.140000X-0.170000X-0.140000X0.170000X-0.140000X0.170000X0.140000X0*%
%ADD41FreePoly0,0.000000*%
%ADD42R,1.000000X1.500000*%
%ADD43FreePoly1,0.000000*%
%ADD44RoundRect,0.250000X0.250000X0.475000X-0.250000X0.475000X-0.250000X-0.475000X0.250000X-0.475000X0*%
%ADD45RoundRect,0.200000X-0.200000X-0.275000X0.200000X-0.275000X0.200000X0.275000X-0.200000X0.275000X0*%
%ADD46RoundRect,0.200000X0.200000X0.275000X-0.200000X0.275000X-0.200000X-0.275000X0.200000X-0.275000X0*%
%ADD47C,1.778000*%
%ADD48C,2.286000*%
%ADD49R,1.500000X1.500000*%
%ADD50C,1.500000*%
%ADD51RoundRect,0.225000X0.225000X0.250000X-0.225000X0.250000X-0.225000X-0.250000X0.225000X-0.250000X0*%
%ADD52RoundRect,0.250000X-0.312500X-1.450000X0.312500X-1.450000X0.312500X1.450000X-0.312500X1.450000X0*%
%ADD53R,1.350000X1.350000*%
%ADD54O,1.350000X1.350000*%
%ADD55C,1.000000*%
%ADD56R,2.400000X2.400000*%
%ADD57C,2.400000*%
%ADD58R,1.550000X1.300000*%
%ADD59RoundRect,0.150000X0.825000X0.150000X-0.825000X0.150000X-0.825000X-0.150000X0.825000X-0.150000X0*%
%ADD60RoundRect,0.140000X0.140000X0.170000X-0.140000X0.170000X-0.140000X-0.170000X0.140000X-0.170000X0*%
%ADD61R,1.400000X1.200000*%
%ADD62R,2.286000X5.080000*%
%ADD63R,2.413000X5.080000*%
%ADD64RoundRect,0.200000X0.275000X-0.200000X0.275000X0.200000X-0.275000X0.200000X-0.275000X-0.200000X0*%
%ADD65RoundRect,0.147500X-0.147500X-0.172500X0.147500X-0.172500X0.147500X0.172500X-0.147500X0.172500X0*%
%ADD66RoundRect,0.150000X0.512500X0.150000X-0.512500X0.150000X-0.512500X-0.150000X0.512500X-0.150000X0*%
%ADD67RoundRect,0.062500X0.062500X-0.350000X0.062500X0.350000X-0.062500X0.350000X-0.062500X-0.350000X0*%
%ADD68RoundRect,0.062500X0.350000X-0.062500X0.350000X0.062500X-0.350000X0.062500X-0.350000X-0.062500X0*%
%ADD69R,2.500000X2.500000*%
%ADD70R,1.200000X1.400000*%
%ADD71RoundRect,0.147500X0.172500X-0.147500X0.172500X0.147500X-0.172500X0.147500X-0.172500X-0.147500X0*%
%ADD72RoundRect,0.150000X-0.150000X0.512500X-0.150000X-0.512500X0.150000X-0.512500X0.150000X0.512500X0*%
G04 APERTURE END LIST*
D10*
X126034800Y-90830400D02*
X116586000Y-90830400D01*
X116586000Y-89814400D01*
X125018800Y-89814400D01*
X125018800Y-80010000D01*
X126034800Y-80010000D01*
X126034800Y-90830400D01*
G36*
X126034800Y-90830400D02*
G01*
X116586000Y-90830400D01*
X116586000Y-89814400D01*
X125018800Y-89814400D01*
X125018800Y-80010000D01*
X126034800Y-80010000D01*
X126034800Y-90830400D01*
G37*
X105105200Y-89814400D02*
X113487200Y-89814400D01*
X113487200Y-90830400D01*
X104038400Y-90830400D01*
X104038400Y-80010000D01*
X105105200Y-80010000D01*
X105105200Y-89814400D01*
G36*
X105105200Y-89814400D02*
G01*
X113487200Y-89814400D01*
X113487200Y-90830400D01*
X104038400Y-90830400D01*
X104038400Y-80010000D01*
X105105200Y-80010000D01*
X105105200Y-89814400D01*
G37*
D11*
%TO.C,SW2*%
X148833000Y-89829000D03*
D12*
X148833000Y-94829000D03*
X148833000Y-92329000D03*
D13*
X156333000Y-86729000D03*
X156333000Y-97929000D03*
D12*
X163333000Y-89829000D03*
X163333000Y-94829000D03*
%TD*%
D14*
%TO.C,C12*%
X118770400Y-119253000D03*
X118770400Y-120803000D03*
%TD*%
D15*
%TO.C,C20*%
X136842200Y-102920800D03*
X138392200Y-102920800D03*
%TD*%
D16*
%TO.C,JP1*%
X76200000Y-110254500D03*
D17*
X76200000Y-111554500D03*
D18*
X76200000Y-112854500D03*
%TD*%
D19*
%TO.C,C15*%
X112032200Y-119418800D03*
X112992200Y-119418800D03*
%TD*%
D20*
%TO.C,Q1*%
X83335100Y-102810600D03*
X83335100Y-100910600D03*
X81460100Y-101860600D03*
%TD*%
D21*
%TO.C,J1*%
X86397000Y-84709400D03*
X85747000Y-84709400D03*
X85097000Y-84709400D03*
X84447000Y-84709400D03*
X83797000Y-84709400D03*
D22*
X88047000Y-83509400D03*
D23*
X87947000Y-84809400D03*
D24*
X87827000Y-82759400D03*
D25*
X87827000Y-81829400D03*
D26*
X87517000Y-84829400D03*
D27*
X86057000Y-81559400D03*
X84137000Y-81559400D03*
D26*
X82677000Y-84829400D03*
D25*
X82367000Y-81829400D03*
D24*
X82347000Y-82759400D03*
D23*
X82197000Y-84829400D03*
D22*
X82097000Y-83509400D03*
%TD*%
D28*
%TO.C,C22*%
X114096800Y-88364000D03*
X114096800Y-87404000D03*
%TD*%
D14*
%TO.C,C3*%
X123647200Y-111493000D03*
X123647200Y-113043000D03*
%TD*%
D29*
%TO.C,C21*%
X131673600Y-107810600D03*
X131673600Y-106260600D03*
%TD*%
%TO.C,C32*%
X127635000Y-121374200D03*
X127635000Y-119824200D03*
%TD*%
D30*
%TO.C,R11*%
X105918000Y-119063000D03*
X105918000Y-120713000D03*
%TD*%
D31*
%TO.C,U1*%
X103392000Y-99466000D03*
X101092000Y-99466000D03*
X98792000Y-99466000D03*
D32*
X101092000Y-105766000D03*
%TD*%
D33*
%TO.C,U5*%
X137820400Y-108297600D03*
X137820400Y-107797600D03*
X137820400Y-107297600D03*
X137820400Y-106797600D03*
X137820400Y-106297600D03*
X137820400Y-105797600D03*
D34*
X137120400Y-105097600D03*
X136620400Y-105097600D03*
X136120400Y-105097600D03*
X135620400Y-105097600D03*
X135120400Y-105097600D03*
X134620400Y-105097600D03*
D33*
X133920400Y-105797600D03*
X133920400Y-106297600D03*
X133920400Y-106797600D03*
X133920400Y-107297600D03*
X133920400Y-107797600D03*
X133920400Y-108297600D03*
D34*
X134620400Y-108997600D03*
X135120400Y-108997600D03*
X135620400Y-108997600D03*
X136120400Y-108997600D03*
X136620400Y-108997600D03*
X137120400Y-108997600D03*
%TD*%
D35*
%TO.C,Q3*%
X85278000Y-112268000D03*
X83378000Y-112268000D03*
X84328000Y-114143000D03*
%TD*%
D36*
%TO.C,D5*%
X98043000Y-93980000D03*
X94743000Y-93980000D03*
%TD*%
D35*
%TO.C,Q2*%
X81214000Y-112268000D03*
X79314000Y-112268000D03*
X80264000Y-114143000D03*
%TD*%
D29*
%TO.C,C31*%
X125730000Y-121374200D03*
X125730000Y-119824200D03*
%TD*%
D37*
%TO.C,U4*%
X111250000Y-114895000D03*
X111750000Y-114895000D03*
X112250000Y-114895000D03*
X112750000Y-114895000D03*
X113250000Y-114895000D03*
X113750000Y-114895000D03*
X114250000Y-114895000D03*
X114750000Y-114895000D03*
X115250000Y-114895000D03*
X115750000Y-114895000D03*
X116250000Y-114895000D03*
X116750000Y-114895000D03*
X117250000Y-114895000D03*
X117750000Y-114895000D03*
X118250000Y-114895000D03*
X118750000Y-114895000D03*
D38*
X120675000Y-112970000D03*
X120675000Y-112470000D03*
X120675000Y-111970000D03*
X120675000Y-111470000D03*
X120675000Y-110970000D03*
X120675000Y-110470000D03*
X120675000Y-109970000D03*
X120675000Y-109470000D03*
X120675000Y-108970000D03*
X120675000Y-108470000D03*
X120675000Y-107970000D03*
X120675000Y-107470000D03*
X120675000Y-106970000D03*
X120675000Y-106470000D03*
X120675000Y-105970000D03*
X120675000Y-105470000D03*
D37*
X118750000Y-103545000D03*
X118250000Y-103545000D03*
X117750000Y-103545000D03*
X117250000Y-103545000D03*
X116750000Y-103545000D03*
X116250000Y-103545000D03*
X115750000Y-103545000D03*
X115250000Y-103545000D03*
X114750000Y-103545000D03*
X114250000Y-103545000D03*
X113750000Y-103545000D03*
X113250000Y-103545000D03*
X112750000Y-103545000D03*
X112250000Y-103545000D03*
X111750000Y-103545000D03*
X111250000Y-103545000D03*
D38*
X109325000Y-105470000D03*
X109325000Y-105970000D03*
X109325000Y-106470000D03*
X109325000Y-106970000D03*
X109325000Y-107470000D03*
X109325000Y-107970000D03*
X109325000Y-108470000D03*
X109325000Y-108970000D03*
X109325000Y-109470000D03*
X109325000Y-109970000D03*
X109325000Y-110470000D03*
X109325000Y-110970000D03*
X109325000Y-111470000D03*
X109325000Y-111970000D03*
X109325000Y-112470000D03*
X109325000Y-112970000D03*
%TD*%
D39*
%TO.C,D3*%
X94996000Y-108483500D03*
X94996000Y-106908500D03*
%TD*%
D40*
%TO.C,C27*%
X116052600Y-88318400D03*
X116052600Y-89278400D03*
%TD*%
D41*
%TO.C,SW1*%
X104618000Y-125292100D03*
D42*
X105918000Y-125292100D03*
D43*
X107218000Y-125292100D03*
%TD*%
D44*
%TO.C,C8*%
X95057000Y-99517200D03*
X93157000Y-99517200D03*
%TD*%
D29*
%TO.C,C9*%
X96774000Y-99530200D03*
X96774000Y-97980200D03*
%TD*%
D45*
%TO.C,R7*%
X132842000Y-98806000D03*
X134492000Y-98806000D03*
%TD*%
D14*
%TO.C,C13*%
X116941600Y-119253000D03*
X116941600Y-120803000D03*
%TD*%
D46*
%TO.C,R3*%
X96583000Y-104775000D03*
X94933000Y-104775000D03*
%TD*%
D47*
%TO.C,U9*%
X137300000Y-133175000D03*
X137300000Y-126825000D03*
X142380000Y-133175000D03*
X142380000Y-126825000D03*
X160160000Y-132540000D03*
X160160000Y-130000000D03*
X160160000Y-127460000D03*
D48*
X143332500Y-137620000D03*
X156667500Y-137620000D03*
X156667500Y-122380000D03*
X143332500Y-122380000D03*
D47*
X147460000Y-140160000D03*
X150000000Y-140160000D03*
X152540000Y-140160000D03*
%TD*%
D49*
%TO.C,J2*%
X131191000Y-91610000D03*
D50*
X133191000Y-91610000D03*
X135191000Y-91610000D03*
X137191000Y-91610000D03*
%TD*%
D51*
%TO.C,C6*%
X108420200Y-114401600D03*
X106870200Y-114401600D03*
%TD*%
D52*
%TO.C,L1*%
X85949700Y-103454200D03*
X90224700Y-103454200D03*
%TD*%
D53*
%TO.C,J3*%
X100854000Y-110300000D03*
D54*
X102854000Y-110300000D03*
X100854000Y-112300000D03*
X102854000Y-112300000D03*
X100854000Y-114300000D03*
X102854000Y-114300000D03*
X100854000Y-116300000D03*
X102854000Y-116300000D03*
X100854000Y-118300000D03*
X102854000Y-118300000D03*
%TD*%
D14*
%TO.C,C28*%
X134975600Y-101383800D03*
X134975600Y-102933800D03*
%TD*%
D47*
%TO.C,U8*%
X67300000Y-133175000D03*
X67300000Y-126825000D03*
X72380000Y-133175000D03*
X72380000Y-126825000D03*
X90160000Y-132540000D03*
X90160000Y-130000000D03*
X90160000Y-127460000D03*
D48*
X73332500Y-137620000D03*
X86667500Y-137620000D03*
X86667500Y-122380000D03*
X73332500Y-122380000D03*
D47*
X77460000Y-140160000D03*
X80000000Y-140160000D03*
X82540000Y-140160000D03*
%TD*%
D46*
%TO.C,R8*%
X132841000Y-96774000D03*
X131191000Y-96774000D03*
%TD*%
D29*
%TO.C,C19*%
X120370600Y-98844400D03*
X120370600Y-97294400D03*
%TD*%
D55*
%TO.C,TP1*%
X97536000Y-108077000D03*
%TD*%
D56*
%TO.C,BT1*%
X68518000Y-107978000D03*
D57*
X68518000Y-111478000D03*
%TD*%
D58*
%TO.C,SW4*%
X69685000Y-96338000D03*
X77635000Y-96338000D03*
X69685000Y-100838000D03*
X77635000Y-100838000D03*
%TD*%
D45*
%TO.C,R18*%
X83503000Y-110157500D03*
X85153000Y-110157500D03*
%TD*%
%TO.C,R13*%
X109541800Y-93938600D03*
X111191800Y-93938600D03*
%TD*%
D29*
%TO.C,C5*%
X109321600Y-102629000D03*
X109321600Y-101079000D03*
%TD*%
D39*
%TO.C,FB1*%
X120523000Y-120802500D03*
X120523000Y-119227500D03*
%TD*%
D29*
%TO.C,C16*%
X124180600Y-106261200D03*
X124180600Y-104711200D03*
%TD*%
D46*
%TO.C,R1*%
X93103200Y-96596200D03*
X91453200Y-96596200D03*
%TD*%
D59*
%TO.C,U7*%
X135317000Y-121285000D03*
X135317000Y-120015000D03*
X135317000Y-118745000D03*
X135317000Y-117475000D03*
X130367000Y-117475000D03*
X130367000Y-118745000D03*
X130367000Y-120015000D03*
X130367000Y-121285000D03*
%TD*%
D60*
%TO.C,C24*%
X123749900Y-97701600D03*
X122789900Y-97701600D03*
%TD*%
D15*
%TO.C,C11*%
X101485400Y-95504000D03*
X103035400Y-95504000D03*
%TD*%
D46*
%TO.C,R10*%
X128587000Y-114554000D03*
X126937000Y-114554000D03*
%TD*%
D61*
%TO.C,Y1*%
X110243000Y-123035800D03*
X112443000Y-123035800D03*
X112443000Y-121335800D03*
X110243000Y-121335800D03*
%TD*%
D51*
%TO.C,C18*%
X111141800Y-92109800D03*
X109591800Y-92109800D03*
%TD*%
D62*
%TO.C,J4*%
X114998500Y-82931000D03*
D63*
X110617000Y-82931000D03*
X119380000Y-82931000D03*
%TD*%
D15*
%TO.C,C4*%
X122669000Y-102920800D03*
X124219000Y-102920800D03*
%TD*%
D39*
%TO.C,D4*%
X126542800Y-106273700D03*
X126542800Y-104698700D03*
%TD*%
D64*
%TO.C,R12*%
X120370600Y-94869000D03*
X120370600Y-93219000D03*
%TD*%
D40*
%TO.C,C26*%
X117043200Y-88318400D03*
X117043200Y-89278400D03*
%TD*%
D46*
%TO.C,R2*%
X74637400Y-103987600D03*
X72987400Y-103987600D03*
%TD*%
D45*
%TO.C,R9*%
X130874000Y-114554000D03*
X132524000Y-114554000D03*
%TD*%
D14*
%TO.C,C17*%
X109601000Y-96253000D03*
X109601000Y-97803000D03*
%TD*%
D60*
%TO.C,C14*%
X110655400Y-119418800D03*
X109695400Y-119418800D03*
%TD*%
%TO.C,C23*%
X114068800Y-86461600D03*
X113108800Y-86461600D03*
%TD*%
D65*
%TO.C,L5*%
X115085000Y-90246200D03*
X116055000Y-90246200D03*
%TD*%
D28*
%TO.C,C29*%
X135128000Y-111478000D03*
X135128000Y-110518000D03*
%TD*%
D58*
%TO.C,SW3*%
X69685000Y-83892000D03*
X77635000Y-83892000D03*
X69685000Y-88392000D03*
X77635000Y-88392000D03*
%TD*%
D15*
%TO.C,C10*%
X101485400Y-97180400D03*
X103035400Y-97180400D03*
%TD*%
D66*
%TO.C,U2*%
X90748700Y-100467200D03*
X90748700Y-99517200D03*
X90748700Y-98567200D03*
X88473700Y-98567200D03*
X88473700Y-100467200D03*
%TD*%
D46*
%TO.C,R4*%
X89547200Y-96596200D03*
X87897200Y-96596200D03*
%TD*%
D67*
%TO.C,U6*%
X113935000Y-97060500D03*
X114435000Y-97060500D03*
X114935000Y-97060500D03*
X115435000Y-97060500D03*
X115935000Y-97060500D03*
D68*
X116872500Y-96123000D03*
X116872500Y-95623000D03*
X116872500Y-95123000D03*
X116872500Y-94623000D03*
X116872500Y-94123000D03*
D67*
X115935000Y-93185500D03*
X115435000Y-93185500D03*
X114935000Y-93185500D03*
X114435000Y-93185500D03*
X113935000Y-93185500D03*
D68*
X112997500Y-94123000D03*
X112997500Y-94623000D03*
X112997500Y-95123000D03*
X112997500Y-95623000D03*
X112997500Y-96123000D03*
D69*
X114935000Y-95123000D03*
%TD*%
D70*
%TO.C,Y2*%
X124119900Y-96040800D03*
X124119900Y-93840800D03*
X122419900Y-93840800D03*
X122419900Y-96040800D03*
%TD*%
D71*
%TO.C,L3*%
X114096800Y-90274000D03*
X114096800Y-89304000D03*
%TD*%
D45*
%TO.C,R16*%
X87567000Y-110157500D03*
X89217000Y-110157500D03*
%TD*%
D36*
%TO.C,D2*%
X95198200Y-102565200D03*
X91898200Y-102565200D03*
%TD*%
D65*
%TO.C,L4*%
X114069000Y-91313000D03*
X115039000Y-91313000D03*
%TD*%
D29*
%TO.C,C7*%
X85420200Y-100546200D03*
X85420200Y-98996200D03*
%TD*%
D14*
%TO.C,C30*%
X111379000Y-96253000D03*
X111379000Y-97803000D03*
%TD*%
D35*
%TO.C,D1*%
X89342000Y-112268000D03*
X87442000Y-112268000D03*
X88392000Y-114143000D03*
%TD*%
D64*
%TO.C,R15*%
X145796000Y-95414600D03*
X145796000Y-93764600D03*
%TD*%
D45*
%TO.C,R17*%
X79439000Y-110157500D03*
X81089000Y-110157500D03*
%TD*%
D19*
%TO.C,C25*%
X122789900Y-92215200D03*
X123749900Y-92215200D03*
%TD*%
D72*
%TO.C,U3*%
X86382400Y-88575300D03*
X85432400Y-88575300D03*
X84482400Y-88575300D03*
X84482400Y-90850300D03*
X85432400Y-90850300D03*
X86382400Y-90850300D03*
%TD*%
D64*
%TO.C,R14*%
X145796000Y-90995000D03*
X145796000Y-89345000D03*
%TD*%
D45*
%TO.C,R5*%
X74613000Y-105918000D03*
X76263000Y-105918000D03*
%TD*%
%TO.C,R6*%
X126251200Y-102920800D03*
X127901200Y-102920800D03*
%TD*%
D51*
%TO.C,C2*%
X109601000Y-117336209D03*
X108051000Y-117336209D03*
%TD*%
D15*
%TO.C,C1*%
X123177000Y-116459000D03*
X124727000Y-116459000D03*
%TD*%
M02*
