%TF.GenerationSoftware,KiCad,Pcbnew,7.0.1*%
%TF.CreationDate,2023-10-06T11:12:28+02:00*%
%TF.ProjectId,Controller_board,436f6e74-726f-46c6-9c65-725f626f6172,rev?*%
%TF.SameCoordinates,Original*%
%TF.FileFunction,Copper,L2,Inr*%
%TF.FilePolarity,Positive*%
%FSLAX46Y46*%
G04 Gerber Fmt 4.6, Leading zero omitted, Abs format (unit mm)*
G04 Created by KiCad (PCBNEW 7.0.1) date 2023-10-06 11:12:28*
%MOMM*%
%LPD*%
G01*
G04 APERTURE LIST*
%TA.AperFunction,ComponentPad*%
%ADD10R,2.000000X2.000000*%
%TD*%
%TA.AperFunction,ComponentPad*%
%ADD11C,2.000000*%
%TD*%
%TA.AperFunction,ComponentPad*%
%ADD12R,3.000000X2.500000*%
%TD*%
%TA.AperFunction,ComponentPad*%
%ADD13O,1.350000X1.700000*%
%TD*%
%TA.AperFunction,ComponentPad*%
%ADD14O,1.100000X1.500000*%
%TD*%
%TA.AperFunction,ComponentPad*%
%ADD15C,1.778000*%
%TD*%
%TA.AperFunction,ComponentPad*%
%ADD16C,2.286000*%
%TD*%
%TA.AperFunction,ComponentPad*%
%ADD17R,1.500000X1.500000*%
%TD*%
%TA.AperFunction,ComponentPad*%
%ADD18C,1.500000*%
%TD*%
%TA.AperFunction,ComponentPad*%
%ADD19R,1.350000X1.350000*%
%TD*%
%TA.AperFunction,ComponentPad*%
%ADD20O,1.350000X1.350000*%
%TD*%
%TA.AperFunction,ComponentPad*%
%ADD21R,2.400000X2.400000*%
%TD*%
%TA.AperFunction,ComponentPad*%
%ADD22C,2.400000*%
%TD*%
%TA.AperFunction,ViaPad*%
%ADD23C,0.600000*%
%TD*%
%TA.AperFunction,ViaPad*%
%ADD24C,0.700000*%
%TD*%
%TA.AperFunction,ViaPad*%
%ADD25C,0.500000*%
%TD*%
G04 APERTURE END LIST*
D10*
%TO.N,ENC_A*%
%TO.C,SW2*%
X148833000Y-89829000D03*
D11*
%TO.N,ENC_B*%
X148833000Y-94829000D03*
%TO.N,-BATT*%
X148833000Y-92329000D03*
D12*
%TO.N,N/C*%
X156333000Y-86729000D03*
X156333000Y-97929000D03*
D11*
%TO.N,ENC_BUTTON*%
X163333000Y-89829000D03*
%TO.N,-BATT*%
X163333000Y-94829000D03*
%TD*%
D13*
%TO.N,unconnected-(J1-Shield-Pad6)*%
%TO.C,J1*%
X87827000Y-81829400D03*
D14*
X87517000Y-84829400D03*
X82677000Y-84829400D03*
D13*
X82367000Y-81829400D03*
%TD*%
D15*
%TO.N,JOY2_BUTTON*%
%TO.C,U9*%
X137300000Y-133175000D03*
%TO.N,N/C*%
X137300000Y-126825000D03*
%TO.N,-BATT*%
X142380000Y-133175000D03*
%TO.N,N/C*%
X142380000Y-126825000D03*
%TO.N,+3.3V*%
X160160000Y-132540000D03*
%TO.N,JOY2_ADC_X*%
X160160000Y-130000000D03*
%TO.N,-BATT*%
X160160000Y-127460000D03*
D16*
%TO.N,unconnected-(U9-SHIELD-PadS1)*%
X143332500Y-137620000D03*
%TO.N,unconnected-(U9-SHIELD-PadS2)*%
X156667500Y-137620000D03*
%TO.N,unconnected-(U9-SHIELD-PadS3)*%
X156667500Y-122380000D03*
%TO.N,unconnected-(U9-SHIELD-PadS4)*%
X143332500Y-122380000D03*
D15*
%TO.N,+3.3V*%
X147460000Y-140160000D03*
%TO.N,JOY2_ADC_Y*%
X150000000Y-140160000D03*
%TO.N,-BATT*%
X152540000Y-140160000D03*
%TD*%
D17*
%TO.N,OLED_SDA*%
%TO.C,J2*%
X131191000Y-91610000D03*
D18*
%TO.N,OLED_SCL*%
X133191000Y-91610000D03*
%TO.N,+3.3V*%
X135191000Y-91610000D03*
%TO.N,-BATT*%
X137191000Y-91610000D03*
%TD*%
D19*
%TO.N,+3.3V*%
%TO.C,J3*%
X100854000Y-110300000D03*
D20*
%TO.N,SWDIO*%
X102854000Y-110300000D03*
%TO.N,-BATT*%
X100854000Y-112300000D03*
%TO.N,SWCLK*%
X102854000Y-112300000D03*
%TO.N,-BATT*%
X100854000Y-114300000D03*
%TO.N,SWO*%
X102854000Y-114300000D03*
%TO.N,unconnected-(J3-Pin_7-Pad7)*%
X100854000Y-116300000D03*
%TO.N,unconnected-(J3-Pin_8-Pad8)*%
X102854000Y-116300000D03*
%TO.N,-BATT*%
X100854000Y-118300000D03*
%TO.N,NRST*%
X102854000Y-118300000D03*
%TD*%
D15*
%TO.N,JOY1_BUTTON*%
%TO.C,U8*%
X67300000Y-133175000D03*
%TO.N,N/C*%
X67300000Y-126825000D03*
%TO.N,-BATT*%
X72380000Y-133175000D03*
%TO.N,N/C*%
X72380000Y-126825000D03*
%TO.N,+3.3V*%
X90160000Y-132540000D03*
%TO.N,JOY1_ADC_X*%
X90160000Y-130000000D03*
%TO.N,-BATT*%
X90160000Y-127460000D03*
D16*
%TO.N,unconnected-(U8-SHIELD-PadS1)*%
X73332500Y-137620000D03*
%TO.N,unconnected-(U8-SHIELD-PadS2)*%
X86667500Y-137620000D03*
%TO.N,unconnected-(U8-SHIELD-PadS3)*%
X86667500Y-122380000D03*
%TO.N,unconnected-(U8-SHIELD-PadS4)*%
X73332500Y-122380000D03*
D15*
%TO.N,+3.3V*%
X77460000Y-140160000D03*
%TO.N,JOY1_ADC_Y*%
X80000000Y-140160000D03*
%TO.N,-BATT*%
X82540000Y-140160000D03*
%TD*%
D21*
%TO.N,+BATT*%
%TO.C,BT1*%
X68518000Y-107978000D03*
D22*
%TO.N,-BATT*%
X68518000Y-111478000D03*
%TD*%
D23*
%TO.N,-BATT*%
X107950000Y-119761000D03*
X115062000Y-113030000D03*
X84328000Y-115364500D03*
D24*
X125526800Y-83185000D03*
D23*
X121285000Y-80772000D03*
X83312000Y-93980000D03*
X103124000Y-93599000D03*
X132080000Y-119761000D03*
X94488000Y-109855000D03*
X133477000Y-121285000D03*
X83312000Y-99060000D03*
X112928400Y-92151200D03*
X121285000Y-82677000D03*
X80772000Y-99060000D03*
X73609200Y-105918000D03*
D24*
X104571800Y-87909400D03*
D23*
X108284000Y-92567000D03*
X108458000Y-125282200D03*
X113748200Y-120370600D03*
X108673600Y-118377609D03*
X127635000Y-118618000D03*
X88392000Y-93980000D03*
X136550400Y-101549200D03*
D24*
X104571800Y-85547200D03*
D23*
X111760000Y-117348000D03*
X116941600Y-121704400D03*
D24*
X106934000Y-90297000D03*
D23*
X122656600Y-105359200D03*
X76174600Y-96342200D03*
X76149200Y-83896200D03*
X108712000Y-80772000D03*
X70993000Y-96342200D03*
X112318800Y-86461600D03*
X92456000Y-98171000D03*
X93599000Y-98171000D03*
D24*
X104571800Y-83185000D03*
D23*
X116057649Y-87472360D03*
X108280200Y-97434400D03*
X85852000Y-96520000D03*
X90932000Y-93980000D03*
X119634000Y-100203000D03*
X113157000Y-98552000D03*
X138938000Y-107696000D03*
X80772000Y-96520000D03*
X132680200Y-108077000D03*
X104267000Y-94488000D03*
X117044639Y-87482536D03*
X133477000Y-120015000D03*
X111252000Y-101498400D03*
X118770400Y-121704400D03*
X83312000Y-96520000D03*
X92456000Y-100838000D03*
X124712259Y-117615721D03*
D24*
X125526800Y-80822800D03*
D23*
X124219868Y-101831556D03*
X122174000Y-112979200D03*
X135128000Y-112293400D03*
D24*
X125526800Y-90297000D03*
X104571800Y-80822800D03*
X125526800Y-85547200D03*
D23*
X80772000Y-93980000D03*
X96012000Y-96520000D03*
D24*
X104571800Y-90297000D03*
D23*
X93599000Y-100838000D03*
X85852000Y-93980000D03*
X83312000Y-104140000D03*
X103124000Y-94488000D03*
X71145400Y-83896200D03*
X139192000Y-112776000D03*
D24*
X111658400Y-90297000D03*
X109296200Y-90297000D03*
X123164600Y-90297000D03*
D23*
X125730000Y-118618000D03*
X112293400Y-97002600D03*
X85965800Y-89712800D03*
X136480896Y-103792531D03*
X124650000Y-92215200D03*
X121285000Y-84582000D03*
X83705200Y-86461600D03*
X104267000Y-95504000D03*
X108712000Y-82677000D03*
X107467400Y-115392200D03*
X95504000Y-109855000D03*
X140081000Y-108204000D03*
X134924800Y-103987600D03*
X109702600Y-120306600D03*
X108712000Y-84582000D03*
X82790800Y-86461600D03*
X116433600Y-113030000D03*
X131191000Y-111633000D03*
D24*
X120802400Y-90297000D03*
D23*
X110363000Y-94742000D03*
X121957600Y-97701600D03*
D24*
X120370600Y-96139000D03*
X118440200Y-90297000D03*
X125526800Y-87909400D03*
D23*
X80772000Y-104140000D03*
X104267000Y-93599000D03*
%TO.N,+3.3V*%
X125730000Y-122682000D03*
X110316000Y-92922600D03*
X101219000Y-93599000D03*
X123571000Y-117602000D03*
X124510800Y-111912400D03*
X120040400Y-121704400D03*
X138379200Y-102108000D03*
X108280200Y-96570800D03*
X121513600Y-98856800D03*
X108254800Y-102616000D03*
X99949000Y-93599000D03*
X145796000Y-92786200D03*
X108284000Y-93481400D03*
X99949000Y-95504000D03*
X129667000Y-114554000D03*
X126873000Y-122682000D03*
X101219000Y-94488000D03*
X145796000Y-91922600D03*
X109593159Y-118383631D03*
X128905000Y-102920800D03*
X122660372Y-101823798D03*
X99949000Y-94488000D03*
X132842000Y-97790000D03*
X130708400Y-106273600D03*
X103428800Y-125282200D03*
X108407200Y-115392200D03*
%TO.N,V_USB*%
X93599000Y-93472000D03*
X93599000Y-94361000D03*
X86524600Y-86461600D03*
X84899000Y-89712800D03*
X85725000Y-91806500D03*
X87388200Y-86461600D03*
D25*
%TO.N,+BATT*%
X80975200Y-102489000D03*
D23*
X72989255Y-105003451D03*
D25*
X81788000Y-102489000D03*
D23*
X77597000Y-110157500D03*
X78486000Y-110157500D03*
%TO.N,BATTERY_ADC*%
X110744000Y-108966000D03*
X89027000Y-107329500D03*
%TO.N,BOOT0*%
X105918000Y-117856000D03*
X105918000Y-115824000D03*
%TO.N,ENC_A*%
X139192000Y-110490000D03*
X132588000Y-110490000D03*
%TO.N,ENC_B*%
X139192000Y-109397800D03*
X132588000Y-109397800D03*
%TO.N,BUTTON_UP*%
X107696000Y-106426000D03*
X93726000Y-106426000D03*
%TO.N,ENC_BUTTON*%
X132562600Y-111607600D03*
X139192000Y-111607600D03*
%TO.N,MPU-6050_IRQ*%
X122216500Y-108077000D03*
X112395000Y-113425500D03*
%TO.N,JOY1_ADC_X*%
X116156266Y-116507734D03*
X113792000Y-117602000D03*
%TO.N,JOY2_ADC_Y*%
X118770400Y-117906800D03*
X118770400Y-116281200D03*
D25*
%TO.N,NRF_SCK*%
X114935000Y-98729800D03*
X117195600Y-99415600D03*
%TO.N,NRF_MISO*%
X116840000Y-100203000D03*
%TO.N,NRF_MOSI*%
X115510000Y-99812800D03*
D23*
%TO.N,I2C_SCL*%
X133604000Y-114554000D03*
X133604000Y-117475000D03*
%TO.N,Power_Btn*%
X89052400Y-108204000D03*
X106465900Y-108204000D03*
%TO.N,EN*%
X88392000Y-99187000D03*
X74676000Y-107315000D03*
%TO.N,KEEP_ALIVE*%
X86106000Y-109234500D03*
X107950000Y-109474000D03*
%TD*%
%TA.AperFunction,Conductor*%
%TO.N,-BATT*%
G36*
X160002702Y-80300617D02*
G01*
X160404202Y-80318147D01*
X160414937Y-80319087D01*
X160810693Y-80371189D01*
X160821331Y-80373064D01*
X161211043Y-80459462D01*
X161221483Y-80462260D01*
X161602168Y-80582289D01*
X161612315Y-80585982D01*
X161981102Y-80738739D01*
X161990893Y-80743305D01*
X162344942Y-80927611D01*
X162354309Y-80933018D01*
X162371102Y-80943717D01*
X162690959Y-81147488D01*
X162699820Y-81153693D01*
X163016487Y-81396680D01*
X163024774Y-81403634D01*
X163319056Y-81673294D01*
X163326705Y-81680943D01*
X163596365Y-81975225D01*
X163603319Y-81983512D01*
X163846306Y-82300179D01*
X163852511Y-82309040D01*
X164066980Y-82645689D01*
X164072388Y-82655057D01*
X164256691Y-83009099D01*
X164261263Y-83018903D01*
X164414013Y-83387674D01*
X164417713Y-83397840D01*
X164537738Y-83778512D01*
X164540538Y-83788960D01*
X164626933Y-84178660D01*
X164628811Y-84189314D01*
X164680910Y-84585042D01*
X164681853Y-84595818D01*
X164699382Y-84997297D01*
X164699500Y-85002706D01*
X164699500Y-89122896D01*
X164681789Y-89186760D01*
X164633715Y-89232381D01*
X164569012Y-89246726D01*
X164506162Y-89225698D01*
X164470879Y-89184389D01*
X164469790Y-89185152D01*
X164333046Y-88989859D01*
X164172140Y-88828953D01*
X163985735Y-88698432D01*
X163779497Y-88602261D01*
X163559689Y-88543364D01*
X163332999Y-88523531D01*
X163106310Y-88543364D01*
X162886502Y-88602261D01*
X162680264Y-88698432D01*
X162493859Y-88828953D01*
X162332953Y-88989859D01*
X162202432Y-89176264D01*
X162106261Y-89382502D01*
X162047364Y-89602310D01*
X162027531Y-89829000D01*
X162047364Y-90055689D01*
X162106261Y-90275497D01*
X162202432Y-90481735D01*
X162332953Y-90668140D01*
X162493859Y-90829046D01*
X162680264Y-90959567D01*
X162680265Y-90959567D01*
X162680266Y-90959568D01*
X162886504Y-91055739D01*
X163106308Y-91114635D01*
X163333000Y-91134468D01*
X163559692Y-91114635D01*
X163779496Y-91055739D01*
X163985734Y-90959568D01*
X164172139Y-90829047D01*
X164333047Y-90668139D01*
X164463568Y-90481734D01*
X164463568Y-90481733D01*
X164469790Y-90472848D01*
X164470879Y-90473610D01*
X164506162Y-90432302D01*
X164569012Y-90411274D01*
X164633715Y-90425619D01*
X164681789Y-90471240D01*
X164699500Y-90535104D01*
X164699500Y-93836429D01*
X164680688Y-93902091D01*
X164629961Y-93947829D01*
X164562709Y-93959767D01*
X164556434Y-93959116D01*
X163686553Y-94829000D01*
X163686553Y-94829001D01*
X164556434Y-95698882D01*
X164562709Y-95698232D01*
X164629961Y-95710170D01*
X164680688Y-95755908D01*
X164699500Y-95821570D01*
X164699500Y-139997294D01*
X164699382Y-140002703D01*
X164681853Y-140404181D01*
X164680910Y-140414957D01*
X164628811Y-140810685D01*
X164626933Y-140821339D01*
X164540538Y-141211039D01*
X164537738Y-141221487D01*
X164417713Y-141602159D01*
X164414013Y-141612325D01*
X164261263Y-141981096D01*
X164256691Y-141990900D01*
X164072388Y-142344942D01*
X164066980Y-142354310D01*
X163852511Y-142690959D01*
X163846306Y-142699820D01*
X163603319Y-143016487D01*
X163596365Y-143024774D01*
X163326705Y-143319056D01*
X163319056Y-143326705D01*
X163024774Y-143596365D01*
X163016487Y-143603319D01*
X162699820Y-143846306D01*
X162690959Y-143852511D01*
X162354310Y-144066980D01*
X162344942Y-144072388D01*
X161990900Y-144256691D01*
X161981096Y-144261263D01*
X161612325Y-144414013D01*
X161602159Y-144417713D01*
X161221487Y-144537738D01*
X161211039Y-144540538D01*
X160821339Y-144626933D01*
X160810685Y-144628811D01*
X160414957Y-144680910D01*
X160404181Y-144681853D01*
X160002703Y-144699382D01*
X159997294Y-144699500D01*
X70002706Y-144699500D01*
X69997297Y-144699382D01*
X69595818Y-144681853D01*
X69585042Y-144680910D01*
X69189314Y-144628811D01*
X69178660Y-144626933D01*
X68788960Y-144540538D01*
X68778512Y-144537738D01*
X68397840Y-144417713D01*
X68387674Y-144414013D01*
X68018903Y-144261263D01*
X68009099Y-144256691D01*
X67655057Y-144072388D01*
X67645689Y-144066980D01*
X67309040Y-143852511D01*
X67300179Y-143846306D01*
X66983512Y-143603319D01*
X66975225Y-143596365D01*
X66680943Y-143326705D01*
X66673294Y-143319056D01*
X66403634Y-143024774D01*
X66396680Y-143016487D01*
X66153693Y-142699820D01*
X66147488Y-142690959D01*
X65933019Y-142354310D01*
X65927611Y-142344942D01*
X65812884Y-142124554D01*
X65743305Y-141990893D01*
X65738736Y-141981096D01*
X65585982Y-141612315D01*
X65582286Y-141602159D01*
X65567505Y-141555281D01*
X65462260Y-141221483D01*
X65459461Y-141211039D01*
X65373064Y-140821331D01*
X65371188Y-140810685D01*
X65368317Y-140788874D01*
X65319087Y-140414937D01*
X65318147Y-140404202D01*
X65307485Y-140160000D01*
X76265404Y-140160000D01*
X76285744Y-140379507D01*
X76346070Y-140591536D01*
X76378266Y-140656193D01*
X76444334Y-140788874D01*
X76484236Y-140841712D01*
X76577183Y-140964795D01*
X76740094Y-141113308D01*
X76927524Y-141229359D01*
X77113916Y-141301567D01*
X77133083Y-141308993D01*
X77349777Y-141349500D01*
X77570221Y-141349500D01*
X77570223Y-141349500D01*
X77786917Y-141308993D01*
X77923956Y-141255903D01*
X77992475Y-141229359D01*
X78179905Y-141113308D01*
X78342816Y-140964795D01*
X78354226Y-140949686D01*
X78475666Y-140788874D01*
X78573928Y-140591538D01*
X78580264Y-140569272D01*
X78610734Y-140462179D01*
X78643133Y-140407625D01*
X78698275Y-140376240D01*
X78761725Y-140376240D01*
X78816867Y-140407625D01*
X78849266Y-140462179D01*
X78886070Y-140591536D01*
X78918266Y-140656193D01*
X78984334Y-140788874D01*
X79024236Y-140841712D01*
X79117183Y-140964795D01*
X79280094Y-141113308D01*
X79467524Y-141229359D01*
X79653916Y-141301567D01*
X79673083Y-141308993D01*
X79889777Y-141349500D01*
X80110221Y-141349500D01*
X80110223Y-141349500D01*
X80326917Y-141308993D01*
X80338484Y-141304512D01*
X81749038Y-141304512D01*
X81777685Y-141326808D01*
X81980137Y-141436369D01*
X82197848Y-141511110D01*
X82424905Y-141549000D01*
X82655095Y-141549000D01*
X82882151Y-141511110D01*
X83099862Y-141436369D01*
X83302315Y-141326807D01*
X83330959Y-141304512D01*
X82540000Y-140513553D01*
X81749038Y-141304512D01*
X80338484Y-141304512D01*
X80463956Y-141255903D01*
X80532475Y-141229359D01*
X80719905Y-141113308D01*
X80882816Y-140964795D01*
X80894226Y-140949686D01*
X81015666Y-140788874D01*
X81048242Y-140723451D01*
X81095251Y-140672510D01*
X81162257Y-140654760D01*
X81228321Y-140675747D01*
X81272798Y-140728913D01*
X81314223Y-140823353D01*
X81396760Y-140949685D01*
X82186447Y-140160001D01*
X82186447Y-140160000D01*
X82893553Y-140160000D01*
X83683238Y-140949686D01*
X83765773Y-140823357D01*
X83858241Y-140612554D01*
X83914751Y-140389400D01*
X83933760Y-140160000D01*
X83920502Y-140000000D01*
X92194753Y-140000000D01*
X92213722Y-140325669D01*
X92270368Y-140646928D01*
X92270370Y-140646934D01*
X92363931Y-140959451D01*
X92430299Y-141113308D01*
X92493142Y-141258994D01*
X92656250Y-141541507D01*
X92701404Y-141602159D01*
X92851057Y-141803177D01*
X93074923Y-142040462D01*
X93324823Y-142250153D01*
X93597377Y-142429414D01*
X93597383Y-142429417D01*
X93888896Y-142575821D01*
X93888899Y-142575822D01*
X94195446Y-142687396D01*
X94512874Y-142762628D01*
X94836889Y-142800500D01*
X95163107Y-142800500D01*
X95163111Y-142800500D01*
X95487126Y-142762628D01*
X95804554Y-142687396D01*
X96111101Y-142575822D01*
X96402623Y-142429414D01*
X96675177Y-142250153D01*
X96925077Y-142040462D01*
X97148943Y-141803177D01*
X97343749Y-141541508D01*
X97506859Y-141258992D01*
X97636069Y-140959451D01*
X97729630Y-140646934D01*
X97786278Y-140325669D01*
X97805246Y-140000000D01*
X132194753Y-140000000D01*
X132213722Y-140325669D01*
X132270368Y-140646928D01*
X132270370Y-140646934D01*
X132363931Y-140959451D01*
X132430299Y-141113308D01*
X132493142Y-141258994D01*
X132656250Y-141541507D01*
X132701404Y-141602159D01*
X132851057Y-141803177D01*
X133074923Y-142040462D01*
X133324823Y-142250153D01*
X133597377Y-142429414D01*
X133597383Y-142429417D01*
X133888896Y-142575821D01*
X133888899Y-142575822D01*
X134195446Y-142687396D01*
X134512874Y-142762628D01*
X134836889Y-142800500D01*
X135163107Y-142800500D01*
X135163111Y-142800500D01*
X135487126Y-142762628D01*
X135804554Y-142687396D01*
X136111101Y-142575822D01*
X136402623Y-142429414D01*
X136675177Y-142250153D01*
X136925077Y-142040462D01*
X137148943Y-141803177D01*
X137343749Y-141541508D01*
X137506859Y-141258992D01*
X137636069Y-140959451D01*
X137729630Y-140646934D01*
X137786278Y-140325669D01*
X137795927Y-140160000D01*
X146265404Y-140160000D01*
X146285744Y-140379507D01*
X146346070Y-140591536D01*
X146378266Y-140656193D01*
X146444334Y-140788874D01*
X146484236Y-140841712D01*
X146577183Y-140964795D01*
X146740094Y-141113308D01*
X146927524Y-141229359D01*
X147113916Y-141301567D01*
X147133083Y-141308993D01*
X147349777Y-141349500D01*
X147570221Y-141349500D01*
X147570223Y-141349500D01*
X147786917Y-141308993D01*
X147923956Y-141255903D01*
X147992475Y-141229359D01*
X148179905Y-141113308D01*
X148342816Y-140964795D01*
X148354226Y-140949686D01*
X148475666Y-140788874D01*
X148573928Y-140591538D01*
X148580264Y-140569272D01*
X148610734Y-140462179D01*
X148643133Y-140407625D01*
X148698275Y-140376240D01*
X148761725Y-140376240D01*
X148816867Y-140407625D01*
X148849266Y-140462179D01*
X148886070Y-140591536D01*
X148918266Y-140656193D01*
X148984334Y-140788874D01*
X149024236Y-140841712D01*
X149117183Y-140964795D01*
X149280094Y-141113308D01*
X149467524Y-141229359D01*
X149653916Y-141301567D01*
X149673083Y-141308993D01*
X149889777Y-141349500D01*
X150110221Y-141349500D01*
X150110223Y-141349500D01*
X150326917Y-141308993D01*
X150338484Y-141304512D01*
X151749038Y-141304512D01*
X151777685Y-141326808D01*
X151980137Y-141436369D01*
X152197848Y-141511110D01*
X152424905Y-141549000D01*
X152655095Y-141549000D01*
X152882151Y-141511110D01*
X153099862Y-141436369D01*
X153302315Y-141326807D01*
X153330959Y-141304512D01*
X152540000Y-140513553D01*
X151749038Y-141304512D01*
X150338484Y-141304512D01*
X150463956Y-141255903D01*
X150532475Y-141229359D01*
X150719905Y-141113308D01*
X150882816Y-140964795D01*
X150894226Y-140949686D01*
X151015666Y-140788874D01*
X151048242Y-140723451D01*
X151095251Y-140672510D01*
X151162257Y-140654760D01*
X151228321Y-140675747D01*
X151272798Y-140728913D01*
X151314223Y-140823353D01*
X151396760Y-140949685D01*
X152186446Y-140160001D01*
X152893553Y-140160001D01*
X153683238Y-140949686D01*
X153765773Y-140823357D01*
X153858241Y-140612554D01*
X153914751Y-140389400D01*
X153933760Y-140159999D01*
X153914751Y-139930599D01*
X153858241Y-139707445D01*
X153765774Y-139496643D01*
X153683238Y-139370312D01*
X152893553Y-140160000D01*
X152893553Y-140160001D01*
X152186446Y-140160001D01*
X152186447Y-140160000D01*
X151396760Y-139370313D01*
X151314225Y-139496642D01*
X151272798Y-139591087D01*
X151228320Y-139644253D01*
X151162257Y-139665239D01*
X151095251Y-139647489D01*
X151048242Y-139596548D01*
X151045523Y-139591087D01*
X151015666Y-139531126D01*
X150927704Y-139414647D01*
X150882816Y-139355204D01*
X150719905Y-139206691D01*
X150532475Y-139090640D01*
X150338480Y-139015486D01*
X151749039Y-139015486D01*
X152540000Y-139806447D01*
X152540001Y-139806447D01*
X153330959Y-139015487D01*
X153330959Y-139015485D01*
X153302317Y-138993193D01*
X153099862Y-138883630D01*
X152882151Y-138808889D01*
X152655095Y-138771000D01*
X152424905Y-138771000D01*
X152197848Y-138808889D01*
X151980134Y-138883631D01*
X151777682Y-138993192D01*
X151749039Y-139015484D01*
X151749039Y-139015486D01*
X150338480Y-139015486D01*
X150326921Y-139011008D01*
X150326918Y-139011007D01*
X150326917Y-139011007D01*
X150110223Y-138970500D01*
X149889777Y-138970500D01*
X149673083Y-139011007D01*
X149673078Y-139011008D01*
X149467524Y-139090640D01*
X149280094Y-139206691D01*
X149117183Y-139355204D01*
X148984334Y-139531126D01*
X148886070Y-139728464D01*
X148849266Y-139857820D01*
X148816867Y-139912374D01*
X148761725Y-139943759D01*
X148698275Y-139943759D01*
X148643133Y-139912374D01*
X148610734Y-139857820D01*
X148573929Y-139728464D01*
X148546973Y-139674330D01*
X148475666Y-139531126D01*
X148387704Y-139414647D01*
X148342816Y-139355204D01*
X148179905Y-139206691D01*
X147992475Y-139090640D01*
X147786921Y-139011008D01*
X147786918Y-139011007D01*
X147786917Y-139011007D01*
X147570223Y-138970500D01*
X147349777Y-138970500D01*
X147133083Y-139011007D01*
X147133078Y-139011008D01*
X146927524Y-139090640D01*
X146740094Y-139206691D01*
X146577183Y-139355204D01*
X146444334Y-139531126D01*
X146346070Y-139728463D01*
X146285744Y-139940492D01*
X146265404Y-140160000D01*
X137795927Y-140160000D01*
X137805246Y-140000000D01*
X137786278Y-139674331D01*
X137729630Y-139353066D01*
X137636069Y-139040549D01*
X137506859Y-138741008D01*
X137343749Y-138458492D01*
X137148943Y-138196823D01*
X136925077Y-137959538D01*
X136804548Y-137858402D01*
X136675180Y-137749849D01*
X136675177Y-137749847D01*
X136477752Y-137619999D01*
X141884052Y-137619999D01*
X141903807Y-137858402D01*
X141903807Y-137858405D01*
X141903808Y-137858407D01*
X141931542Y-137967927D01*
X141962535Y-138090312D01*
X142058627Y-138309382D01*
X142189473Y-138509656D01*
X142351493Y-138685657D01*
X142422605Y-138741005D01*
X142540275Y-138832591D01*
X142750665Y-138946449D01*
X142820723Y-138970500D01*
X142976923Y-139024124D01*
X142976925Y-139024124D01*
X142976927Y-139024125D01*
X143212888Y-139063500D01*
X143452111Y-139063500D01*
X143452112Y-139063500D01*
X143688073Y-139024125D01*
X143914335Y-138946449D01*
X144124725Y-138832591D01*
X144313506Y-138685657D01*
X144475528Y-138509655D01*
X144606371Y-138309385D01*
X144702466Y-138090310D01*
X144761192Y-137858407D01*
X144780947Y-137620000D01*
X144780947Y-137619999D01*
X155219052Y-137619999D01*
X155238807Y-137858402D01*
X155238807Y-137858405D01*
X155238808Y-137858407D01*
X155266542Y-137967927D01*
X155297535Y-138090312D01*
X155393627Y-138309382D01*
X155524473Y-138509656D01*
X155686493Y-138685657D01*
X155757605Y-138741005D01*
X155875275Y-138832591D01*
X156085665Y-138946449D01*
X156155723Y-138970500D01*
X156311923Y-139024124D01*
X156311925Y-139024124D01*
X156311927Y-139024125D01*
X156547888Y-139063500D01*
X156787111Y-139063500D01*
X156787112Y-139063500D01*
X157023073Y-139024125D01*
X157249335Y-138946449D01*
X157459725Y-138832591D01*
X157648506Y-138685657D01*
X157810528Y-138509655D01*
X157941371Y-138309385D01*
X158037466Y-138090310D01*
X158096192Y-137858407D01*
X158115947Y-137620000D01*
X158096192Y-137381593D01*
X158037466Y-137149690D01*
X157941371Y-136930615D01*
X157810528Y-136730345D01*
X157786681Y-136704440D01*
X157648506Y-136554342D01*
X157459726Y-136407410D01*
X157459725Y-136407409D01*
X157249335Y-136293551D01*
X157249331Y-136293549D01*
X157249330Y-136293549D01*
X157023076Y-136215875D01*
X156846102Y-136186343D01*
X156787112Y-136176500D01*
X156547888Y-136176500D01*
X156500695Y-136184374D01*
X156311923Y-136215875D01*
X156085669Y-136293549D01*
X155875273Y-136407410D01*
X155686493Y-136554342D01*
X155524473Y-136730343D01*
X155393627Y-136930617D01*
X155297535Y-137149687D01*
X155297534Y-137149690D01*
X155256278Y-137312605D01*
X155238807Y-137381597D01*
X155219052Y-137619999D01*
X144780947Y-137619999D01*
X144761192Y-137381593D01*
X144702466Y-137149690D01*
X144606371Y-136930615D01*
X144475528Y-136730345D01*
X144451681Y-136704440D01*
X144313506Y-136554342D01*
X144124726Y-136407410D01*
X144124725Y-136407409D01*
X143914335Y-136293551D01*
X143914331Y-136293549D01*
X143914330Y-136293549D01*
X143688076Y-136215875D01*
X143511102Y-136186343D01*
X143452112Y-136176500D01*
X143212888Y-136176500D01*
X143165695Y-136184374D01*
X142976923Y-136215875D01*
X142750669Y-136293549D01*
X142540273Y-136407410D01*
X142351493Y-136554342D01*
X142189473Y-136730343D01*
X142058627Y-136930617D01*
X141962535Y-137149687D01*
X141962534Y-137149690D01*
X141921278Y-137312605D01*
X141903807Y-137381597D01*
X141884052Y-137619999D01*
X136477752Y-137619999D01*
X136402623Y-137570586D01*
X136402619Y-137570584D01*
X136402616Y-137570582D01*
X136111103Y-137424178D01*
X135804557Y-137312605D01*
X135804556Y-137312604D01*
X135804554Y-137312604D01*
X135630157Y-137271271D01*
X135487127Y-137237372D01*
X135422322Y-137229797D01*
X135163111Y-137199500D01*
X134836889Y-137199500D01*
X134620879Y-137224747D01*
X134512872Y-137237372D01*
X134195442Y-137312605D01*
X133888896Y-137424178D01*
X133597383Y-137570582D01*
X133324819Y-137749849D01*
X133074922Y-137959538D01*
X132851058Y-138196821D01*
X132656250Y-138458492D01*
X132493142Y-138741005D01*
X132463860Y-138808889D01*
X132363931Y-139040549D01*
X132314192Y-139206691D01*
X132270368Y-139353071D01*
X132213722Y-139674330D01*
X132194753Y-140000000D01*
X97805246Y-140000000D01*
X97786278Y-139674331D01*
X97729630Y-139353066D01*
X97636069Y-139040549D01*
X97506859Y-138741008D01*
X97343749Y-138458492D01*
X97148943Y-138196823D01*
X96925077Y-137959538D01*
X96804548Y-137858402D01*
X96675180Y-137749849D01*
X96675177Y-137749847D01*
X96402623Y-137570586D01*
X96402619Y-137570584D01*
X96402616Y-137570582D01*
X96111103Y-137424178D01*
X95804557Y-137312605D01*
X95804556Y-137312604D01*
X95804554Y-137312604D01*
X95630157Y-137271271D01*
X95487127Y-137237372D01*
X95422322Y-137229797D01*
X95163111Y-137199500D01*
X94836889Y-137199500D01*
X94620879Y-137224747D01*
X94512872Y-137237372D01*
X94195442Y-137312605D01*
X93888896Y-137424178D01*
X93597383Y-137570582D01*
X93324819Y-137749849D01*
X93074922Y-137959538D01*
X92851058Y-138196821D01*
X92656250Y-138458492D01*
X92493142Y-138741005D01*
X92463860Y-138808889D01*
X92363931Y-139040549D01*
X92314192Y-139206691D01*
X92270368Y-139353071D01*
X92213722Y-139674330D01*
X92194753Y-140000000D01*
X83920502Y-140000000D01*
X83914751Y-139930599D01*
X83858241Y-139707445D01*
X83765774Y-139496643D01*
X83683238Y-139370312D01*
X82893553Y-140160000D01*
X82186447Y-140160000D01*
X81396760Y-139370313D01*
X81314225Y-139496642D01*
X81272798Y-139591087D01*
X81228320Y-139644253D01*
X81162257Y-139665239D01*
X81095251Y-139647489D01*
X81048242Y-139596548D01*
X81045523Y-139591087D01*
X81015666Y-139531126D01*
X80927704Y-139414647D01*
X80882816Y-139355204D01*
X80719905Y-139206691D01*
X80532475Y-139090640D01*
X80338480Y-139015486D01*
X81749039Y-139015486D01*
X82540000Y-139806447D01*
X82540001Y-139806447D01*
X83330959Y-139015487D01*
X83330959Y-139015485D01*
X83302317Y-138993193D01*
X83099862Y-138883630D01*
X82882151Y-138808889D01*
X82655095Y-138771000D01*
X82424905Y-138771000D01*
X82197848Y-138808889D01*
X81980134Y-138883631D01*
X81777682Y-138993192D01*
X81749039Y-139015484D01*
X81749039Y-139015486D01*
X80338480Y-139015486D01*
X80326921Y-139011008D01*
X80326918Y-139011007D01*
X80326917Y-139011007D01*
X80110223Y-138970500D01*
X79889777Y-138970500D01*
X79673083Y-139011007D01*
X79673078Y-139011008D01*
X79467524Y-139090640D01*
X79280094Y-139206691D01*
X79117183Y-139355204D01*
X78984334Y-139531126D01*
X78886070Y-139728464D01*
X78849266Y-139857820D01*
X78816867Y-139912374D01*
X78761725Y-139943759D01*
X78698275Y-139943759D01*
X78643133Y-139912374D01*
X78610734Y-139857820D01*
X78573929Y-139728464D01*
X78546973Y-139674330D01*
X78475666Y-139531126D01*
X78387704Y-139414647D01*
X78342816Y-139355204D01*
X78179905Y-139206691D01*
X77992475Y-139090640D01*
X77786921Y-139011008D01*
X77786918Y-139011007D01*
X77786917Y-139011007D01*
X77570223Y-138970500D01*
X77349777Y-138970500D01*
X77133083Y-139011007D01*
X77133078Y-139011008D01*
X76927524Y-139090640D01*
X76740094Y-139206691D01*
X76577183Y-139355204D01*
X76444334Y-139531126D01*
X76346070Y-139728463D01*
X76285744Y-139940492D01*
X76265404Y-140160000D01*
X65307485Y-140160000D01*
X65300617Y-140002702D01*
X65300500Y-139997294D01*
X65300500Y-137619999D01*
X71884052Y-137619999D01*
X71903807Y-137858402D01*
X71903807Y-137858405D01*
X71903808Y-137858407D01*
X71931542Y-137967927D01*
X71962535Y-138090312D01*
X72058627Y-138309382D01*
X72189473Y-138509656D01*
X72351493Y-138685657D01*
X72422605Y-138741005D01*
X72540275Y-138832591D01*
X72750665Y-138946449D01*
X72820723Y-138970500D01*
X72976923Y-139024124D01*
X72976925Y-139024124D01*
X72976927Y-139024125D01*
X73212888Y-139063500D01*
X73452111Y-139063500D01*
X73452112Y-139063500D01*
X73688073Y-139024125D01*
X73914335Y-138946449D01*
X74124725Y-138832591D01*
X74313506Y-138685657D01*
X74475528Y-138509655D01*
X74606371Y-138309385D01*
X74702466Y-138090310D01*
X74761192Y-137858407D01*
X74780947Y-137620000D01*
X74780947Y-137619999D01*
X85219052Y-137619999D01*
X85238807Y-137858402D01*
X85238807Y-137858405D01*
X85238808Y-137858407D01*
X85266542Y-137967927D01*
X85297535Y-138090312D01*
X85393627Y-138309382D01*
X85524473Y-138509656D01*
X85686493Y-138685657D01*
X85757605Y-138741005D01*
X85875275Y-138832591D01*
X86085665Y-138946449D01*
X86155723Y-138970500D01*
X86311923Y-139024124D01*
X86311925Y-139024124D01*
X86311927Y-139024125D01*
X86547888Y-139063500D01*
X86787111Y-139063500D01*
X86787112Y-139063500D01*
X87023073Y-139024125D01*
X87249335Y-138946449D01*
X87459725Y-138832591D01*
X87648506Y-138685657D01*
X87810528Y-138509655D01*
X87941371Y-138309385D01*
X88037466Y-138090310D01*
X88096192Y-137858407D01*
X88115947Y-137620000D01*
X88096192Y-137381593D01*
X88037466Y-137149690D01*
X87941371Y-136930615D01*
X87810528Y-136730345D01*
X87786681Y-136704440D01*
X87648506Y-136554342D01*
X87459726Y-136407410D01*
X87459725Y-136407409D01*
X87249335Y-136293551D01*
X87249331Y-136293549D01*
X87249330Y-136293549D01*
X87023076Y-136215875D01*
X86846102Y-136186343D01*
X86787112Y-136176500D01*
X86547888Y-136176500D01*
X86500695Y-136184374D01*
X86311923Y-136215875D01*
X86085669Y-136293549D01*
X85875273Y-136407410D01*
X85686493Y-136554342D01*
X85524473Y-136730343D01*
X85393627Y-136930617D01*
X85297535Y-137149687D01*
X85297534Y-137149690D01*
X85256278Y-137312605D01*
X85238807Y-137381597D01*
X85219052Y-137619999D01*
X74780947Y-137619999D01*
X74761192Y-137381593D01*
X74702466Y-137149690D01*
X74606371Y-136930615D01*
X74475528Y-136730345D01*
X74451681Y-136704440D01*
X74313506Y-136554342D01*
X74124726Y-136407410D01*
X74124725Y-136407409D01*
X73914335Y-136293551D01*
X73914331Y-136293549D01*
X73914330Y-136293549D01*
X73688076Y-136215875D01*
X73511102Y-136186343D01*
X73452112Y-136176500D01*
X73212888Y-136176500D01*
X73165695Y-136184374D01*
X72976923Y-136215875D01*
X72750669Y-136293549D01*
X72540273Y-136407410D01*
X72351493Y-136554342D01*
X72189473Y-136730343D01*
X72058627Y-136930617D01*
X71962535Y-137149687D01*
X71962534Y-137149690D01*
X71921278Y-137312605D01*
X71903807Y-137381597D01*
X71884052Y-137619999D01*
X65300500Y-137619999D01*
X65300500Y-133174999D01*
X66105404Y-133174999D01*
X66125744Y-133394507D01*
X66186070Y-133606536D01*
X66247300Y-133729500D01*
X66284334Y-133803874D01*
X66350758Y-133891834D01*
X66417183Y-133979795D01*
X66580094Y-134128308D01*
X66767524Y-134244359D01*
X66953916Y-134316567D01*
X66973083Y-134323993D01*
X67189777Y-134364500D01*
X67410221Y-134364500D01*
X67410223Y-134364500D01*
X67626917Y-134323993D01*
X67638484Y-134319512D01*
X71589038Y-134319512D01*
X71617685Y-134341808D01*
X71820137Y-134451369D01*
X72037848Y-134526110D01*
X72264905Y-134564000D01*
X72495095Y-134564000D01*
X72722151Y-134526110D01*
X72939862Y-134451369D01*
X73142315Y-134341807D01*
X73170959Y-134319512D01*
X72380000Y-133528553D01*
X71589038Y-134319512D01*
X67638484Y-134319512D01*
X67763956Y-134270903D01*
X67832475Y-134244359D01*
X68019905Y-134128308D01*
X68182816Y-133979795D01*
X68194226Y-133964686D01*
X68315666Y-133803874D01*
X68413928Y-133606538D01*
X68474256Y-133394506D01*
X68494596Y-133175000D01*
X68494596Y-133174999D01*
X70986239Y-133174999D01*
X71005248Y-133404400D01*
X71061759Y-133627554D01*
X71154223Y-133838353D01*
X71236760Y-133964685D01*
X72026447Y-133175001D01*
X72026447Y-133175000D01*
X72733553Y-133175000D01*
X73523238Y-133964686D01*
X73605773Y-133838357D01*
X73698241Y-133627554D01*
X73754751Y-133404400D01*
X73773760Y-133175000D01*
X73754751Y-132945599D01*
X73698241Y-132722445D01*
X73618213Y-132540000D01*
X88965404Y-132540000D01*
X88985744Y-132759507D01*
X89046070Y-132971536D01*
X89111758Y-133103454D01*
X89144334Y-133168874D01*
X89210758Y-133256834D01*
X89277183Y-133344795D01*
X89440094Y-133493308D01*
X89627524Y-133609359D01*
X89813916Y-133681567D01*
X89833083Y-133688993D01*
X90049777Y-133729500D01*
X90270221Y-133729500D01*
X90270223Y-133729500D01*
X90486917Y-133688993D01*
X90645508Y-133627554D01*
X90692475Y-133609359D01*
X90697035Y-133606536D01*
X90879905Y-133493308D01*
X90977432Y-133404400D01*
X91042816Y-133344795D01*
X91042817Y-133344794D01*
X91171041Y-133174999D01*
X136105404Y-133174999D01*
X136125744Y-133394507D01*
X136186070Y-133606536D01*
X136247300Y-133729500D01*
X136284334Y-133803874D01*
X136350758Y-133891834D01*
X136417183Y-133979795D01*
X136580094Y-134128308D01*
X136767524Y-134244359D01*
X136953916Y-134316567D01*
X136973083Y-134323993D01*
X137189777Y-134364500D01*
X137410221Y-134364500D01*
X137410223Y-134364500D01*
X137626917Y-134323993D01*
X137638484Y-134319512D01*
X141589038Y-134319512D01*
X141617685Y-134341808D01*
X141820137Y-134451369D01*
X142037848Y-134526110D01*
X142264905Y-134564000D01*
X142495095Y-134564000D01*
X142722151Y-134526110D01*
X142939862Y-134451369D01*
X143142315Y-134341807D01*
X143170959Y-134319512D01*
X142380000Y-133528553D01*
X141589038Y-134319512D01*
X137638484Y-134319512D01*
X137763956Y-134270903D01*
X137832475Y-134244359D01*
X138019905Y-134128308D01*
X138182816Y-133979795D01*
X138194226Y-133964686D01*
X138315666Y-133803874D01*
X138413928Y-133606538D01*
X138474256Y-133394506D01*
X138494596Y-133175000D01*
X138494596Y-133174999D01*
X140986239Y-133174999D01*
X141005248Y-133404400D01*
X141061759Y-133627554D01*
X141154223Y-133838353D01*
X141236760Y-133964685D01*
X142026447Y-133175001D01*
X142733553Y-133175001D01*
X143523238Y-133964686D01*
X143605773Y-133838357D01*
X143698241Y-133627554D01*
X143754751Y-133404400D01*
X143773760Y-133174999D01*
X143754751Y-132945599D01*
X143698241Y-132722445D01*
X143618213Y-132540000D01*
X158965404Y-132540000D01*
X158985744Y-132759507D01*
X159046070Y-132971536D01*
X159111758Y-133103454D01*
X159144334Y-133168874D01*
X159210758Y-133256834D01*
X159277183Y-133344795D01*
X159440094Y-133493308D01*
X159627524Y-133609359D01*
X159813916Y-133681567D01*
X159833083Y-133688993D01*
X160049777Y-133729500D01*
X160270221Y-133729500D01*
X160270223Y-133729500D01*
X160486917Y-133688993D01*
X160645508Y-133627554D01*
X160692475Y-133609359D01*
X160697035Y-133606536D01*
X160879905Y-133493308D01*
X160977432Y-133404400D01*
X161042816Y-133344795D01*
X161042817Y-133344794D01*
X161175666Y-133168874D01*
X161273928Y-132971538D01*
X161278494Y-132955492D01*
X161316632Y-132821447D01*
X161334256Y-132759506D01*
X161354596Y-132540000D01*
X161334256Y-132320494D01*
X161306144Y-132221691D01*
X161273929Y-132108463D01*
X161212700Y-131985500D01*
X161175666Y-131911126D01*
X161081175Y-131786000D01*
X161042816Y-131735204D01*
X160879905Y-131586691D01*
X160692475Y-131470640D01*
X160476203Y-131386856D01*
X160477063Y-131384634D01*
X160430879Y-131361637D01*
X160395151Y-131303934D01*
X160395151Y-131236066D01*
X160430879Y-131178363D01*
X160477063Y-131155365D01*
X160476203Y-131153144D01*
X160692475Y-131069359D01*
X160879905Y-130953308D01*
X161042816Y-130804795D01*
X161042817Y-130804794D01*
X161175666Y-130628874D01*
X161273928Y-130431538D01*
X161334256Y-130219506D01*
X161354596Y-130000000D01*
X161334256Y-129780494D01*
X161311577Y-129700788D01*
X161273929Y-129568463D01*
X161241084Y-129502503D01*
X161175666Y-129371126D01*
X161087704Y-129254647D01*
X161042816Y-129195204D01*
X160879907Y-129046693D01*
X160719746Y-128947526D01*
X160675826Y-128900851D01*
X160661077Y-128838481D01*
X160679439Y-128777078D01*
X160726007Y-128733044D01*
X160922313Y-128626809D01*
X160950959Y-128604512D01*
X160160000Y-127813553D01*
X159369038Y-128604512D01*
X159397688Y-128626810D01*
X159593992Y-128733044D01*
X159640560Y-128777078D01*
X159658922Y-128838481D01*
X159644173Y-128900851D01*
X159600253Y-128947526D01*
X159440092Y-129046693D01*
X159277183Y-129195204D01*
X159144334Y-129371126D01*
X159046070Y-129568463D01*
X158985744Y-129780492D01*
X158965404Y-129999999D01*
X158985744Y-130219507D01*
X159046070Y-130431536D01*
X159111758Y-130563454D01*
X159144334Y-130628874D01*
X159210758Y-130716834D01*
X159277183Y-130804795D01*
X159440094Y-130953308D01*
X159627524Y-131069359D01*
X159843797Y-131153144D01*
X159842936Y-131155365D01*
X159889122Y-131178364D01*
X159924849Y-131236066D01*
X159924849Y-131303934D01*
X159889122Y-131361636D01*
X159842936Y-131384634D01*
X159843797Y-131386856D01*
X159627524Y-131470640D01*
X159440094Y-131586691D01*
X159277183Y-131735204D01*
X159144334Y-131911126D01*
X159046070Y-132108463D01*
X158985744Y-132320492D01*
X158965404Y-132540000D01*
X143618213Y-132540000D01*
X143605774Y-132511643D01*
X143523238Y-132385312D01*
X142733553Y-133175000D01*
X142733553Y-133175001D01*
X142026447Y-133175001D01*
X142026447Y-133175000D01*
X141236760Y-132385313D01*
X141154224Y-132511644D01*
X141061758Y-132722445D01*
X141005248Y-132945599D01*
X140986239Y-133174999D01*
X138494596Y-133174999D01*
X138474256Y-132955494D01*
X138436117Y-132821447D01*
X138413929Y-132743463D01*
X138381084Y-132677503D01*
X138315666Y-132546126D01*
X138227704Y-132429647D01*
X138182816Y-132370204D01*
X138019905Y-132221691D01*
X137832475Y-132105640D01*
X137638480Y-132030486D01*
X141589039Y-132030486D01*
X142380000Y-132821447D01*
X142380001Y-132821447D01*
X143170959Y-132030487D01*
X143170959Y-132030485D01*
X143142317Y-132008193D01*
X142939862Y-131898630D01*
X142722151Y-131823889D01*
X142495095Y-131786000D01*
X142264905Y-131786000D01*
X142037848Y-131823889D01*
X141820134Y-131898631D01*
X141617682Y-132008192D01*
X141589039Y-132030484D01*
X141589039Y-132030486D01*
X137638480Y-132030486D01*
X137626921Y-132026008D01*
X137626918Y-132026007D01*
X137626917Y-132026007D01*
X137410223Y-131985500D01*
X137189777Y-131985500D01*
X136973083Y-132026007D01*
X136973078Y-132026008D01*
X136767524Y-132105640D01*
X136580094Y-132221691D01*
X136417183Y-132370204D01*
X136284334Y-132546126D01*
X136186070Y-132743463D01*
X136125744Y-132955492D01*
X136105404Y-133174999D01*
X91171041Y-133174999D01*
X91175666Y-133168874D01*
X91273928Y-132971538D01*
X91278494Y-132955492D01*
X91316632Y-132821447D01*
X91334256Y-132759506D01*
X91354596Y-132540000D01*
X91334256Y-132320494D01*
X91306144Y-132221691D01*
X91273929Y-132108463D01*
X91212700Y-131985500D01*
X91175666Y-131911126D01*
X91081175Y-131786000D01*
X91042816Y-131735204D01*
X90879905Y-131586691D01*
X90692475Y-131470640D01*
X90476203Y-131386856D01*
X90477063Y-131384634D01*
X90430879Y-131361637D01*
X90395151Y-131303934D01*
X90395151Y-131236066D01*
X90430879Y-131178363D01*
X90477063Y-131155365D01*
X90476203Y-131153144D01*
X90692475Y-131069359D01*
X90879905Y-130953308D01*
X91042816Y-130804795D01*
X91042817Y-130804794D01*
X91175666Y-130628874D01*
X91273928Y-130431538D01*
X91334256Y-130219506D01*
X91354596Y-130000000D01*
X91334256Y-129780494D01*
X91311577Y-129700788D01*
X91273929Y-129568463D01*
X91241084Y-129502503D01*
X91175666Y-129371126D01*
X91087704Y-129254647D01*
X91042816Y-129195204D01*
X90879907Y-129046693D01*
X90719746Y-128947526D01*
X90675826Y-128900851D01*
X90661077Y-128838481D01*
X90679439Y-128777078D01*
X90726007Y-128733044D01*
X90922313Y-128626809D01*
X90950959Y-128604512D01*
X90160000Y-127813553D01*
X89369038Y-128604512D01*
X89397688Y-128626810D01*
X89593992Y-128733044D01*
X89640560Y-128777078D01*
X89658922Y-128838481D01*
X89644173Y-128900851D01*
X89600253Y-128947526D01*
X89440092Y-129046693D01*
X89277183Y-129195204D01*
X89144334Y-129371126D01*
X89046070Y-129568463D01*
X88985744Y-129780492D01*
X88965404Y-130000000D01*
X88985744Y-130219507D01*
X89046070Y-130431536D01*
X89111758Y-130563454D01*
X89144334Y-130628874D01*
X89210758Y-130716834D01*
X89277183Y-130804795D01*
X89440094Y-130953308D01*
X89627524Y-131069359D01*
X89843797Y-131153144D01*
X89842936Y-131155365D01*
X89889122Y-131178364D01*
X89924849Y-131236066D01*
X89924849Y-131303934D01*
X89889122Y-131361636D01*
X89842936Y-131384634D01*
X89843797Y-131386856D01*
X89627524Y-131470640D01*
X89440094Y-131586691D01*
X89277183Y-131735204D01*
X89144334Y-131911126D01*
X89046070Y-132108463D01*
X88985744Y-132320492D01*
X88965404Y-132540000D01*
X73618213Y-132540000D01*
X73605774Y-132511643D01*
X73523238Y-132385312D01*
X72733553Y-133175000D01*
X72026447Y-133175000D01*
X71236760Y-132385313D01*
X71154224Y-132511644D01*
X71061758Y-132722445D01*
X71005248Y-132945599D01*
X70986239Y-133174999D01*
X68494596Y-133174999D01*
X68474256Y-132955494D01*
X68436117Y-132821447D01*
X68413929Y-132743463D01*
X68381084Y-132677503D01*
X68315666Y-132546126D01*
X68227704Y-132429647D01*
X68182816Y-132370204D01*
X68019905Y-132221691D01*
X67832475Y-132105640D01*
X67638480Y-132030486D01*
X71589039Y-132030486D01*
X72380000Y-132821447D01*
X72380001Y-132821447D01*
X73170959Y-132030487D01*
X73170959Y-132030485D01*
X73142317Y-132008193D01*
X72939862Y-131898630D01*
X72722151Y-131823889D01*
X72495095Y-131786000D01*
X72264905Y-131786000D01*
X72037848Y-131823889D01*
X71820134Y-131898631D01*
X71617682Y-132008192D01*
X71589039Y-132030484D01*
X71589039Y-132030486D01*
X67638480Y-132030486D01*
X67626921Y-132026008D01*
X67626918Y-132026007D01*
X67626917Y-132026007D01*
X67410223Y-131985500D01*
X67189777Y-131985500D01*
X66973083Y-132026007D01*
X66973078Y-132026008D01*
X66767524Y-132105640D01*
X66580094Y-132221691D01*
X66417183Y-132370204D01*
X66284334Y-132546126D01*
X66186070Y-132743463D01*
X66125744Y-132955492D01*
X66105404Y-133174999D01*
X65300500Y-133174999D01*
X65300500Y-126824999D01*
X66105404Y-126824999D01*
X66125744Y-127044507D01*
X66186070Y-127256536D01*
X66251758Y-127388454D01*
X66284334Y-127453874D01*
X66350758Y-127541834D01*
X66417183Y-127629795D01*
X66580094Y-127778308D01*
X66767524Y-127894359D01*
X66953916Y-127966567D01*
X66973083Y-127973993D01*
X67189777Y-128014500D01*
X67410221Y-128014500D01*
X67410223Y-128014500D01*
X67626917Y-127973993D01*
X67785508Y-127912554D01*
X67832475Y-127894359D01*
X68019905Y-127778308D01*
X68182816Y-127629795D01*
X68182817Y-127629794D01*
X68315666Y-127453874D01*
X68413928Y-127256538D01*
X68421309Y-127230599D01*
X68456632Y-127106447D01*
X68474256Y-127044506D01*
X68494596Y-126825000D01*
X68494596Y-126824999D01*
X71185404Y-126824999D01*
X71205744Y-127044507D01*
X71266070Y-127256536D01*
X71331758Y-127388454D01*
X71364334Y-127453874D01*
X71430758Y-127541834D01*
X71497183Y-127629795D01*
X71660094Y-127778308D01*
X71847524Y-127894359D01*
X72033916Y-127966567D01*
X72053083Y-127973993D01*
X72269777Y-128014500D01*
X72490221Y-128014500D01*
X72490223Y-128014500D01*
X72706917Y-127973993D01*
X72865508Y-127912554D01*
X72912475Y-127894359D01*
X73099905Y-127778308D01*
X73262816Y-127629795D01*
X73262817Y-127629794D01*
X73391040Y-127460000D01*
X88766239Y-127460000D01*
X88785248Y-127689400D01*
X88841759Y-127912554D01*
X88934223Y-128123353D01*
X89016760Y-128249685D01*
X89806447Y-127460001D01*
X90513553Y-127460001D01*
X91303238Y-128249686D01*
X91385773Y-128123357D01*
X91478241Y-127912554D01*
X91534751Y-127689400D01*
X91553760Y-127460000D01*
X91534751Y-127230599D01*
X91478241Y-127007445D01*
X91398213Y-126825000D01*
X136105404Y-126825000D01*
X136125744Y-127044507D01*
X136186070Y-127256536D01*
X136251758Y-127388454D01*
X136284334Y-127453874D01*
X136350758Y-127541834D01*
X136417183Y-127629795D01*
X136580094Y-127778308D01*
X136767524Y-127894359D01*
X136953916Y-127966567D01*
X136973083Y-127973993D01*
X137189777Y-128014500D01*
X137410221Y-128014500D01*
X137410223Y-128014500D01*
X137626917Y-127973993D01*
X137785508Y-127912554D01*
X137832475Y-127894359D01*
X138019905Y-127778308D01*
X138182816Y-127629795D01*
X138182817Y-127629794D01*
X138315666Y-127453874D01*
X138413928Y-127256538D01*
X138421309Y-127230599D01*
X138456632Y-127106447D01*
X138474256Y-127044506D01*
X138494596Y-126825000D01*
X141185404Y-126825000D01*
X141205744Y-127044507D01*
X141266070Y-127256536D01*
X141331758Y-127388454D01*
X141364334Y-127453874D01*
X141430758Y-127541834D01*
X141497183Y-127629795D01*
X141660094Y-127778308D01*
X141847524Y-127894359D01*
X142033916Y-127966567D01*
X142053083Y-127973993D01*
X142269777Y-128014500D01*
X142490221Y-128014500D01*
X142490223Y-128014500D01*
X142706917Y-127973993D01*
X142865508Y-127912554D01*
X142912475Y-127894359D01*
X143099905Y-127778308D01*
X143262816Y-127629795D01*
X143262817Y-127629794D01*
X143391041Y-127459999D01*
X158766239Y-127459999D01*
X158785248Y-127689400D01*
X158841759Y-127912554D01*
X158934223Y-128123353D01*
X159016760Y-128249685D01*
X159806447Y-127460001D01*
X159806447Y-127460000D01*
X160513553Y-127460000D01*
X161303238Y-128249686D01*
X161385773Y-128123357D01*
X161478241Y-127912554D01*
X161534751Y-127689400D01*
X161553760Y-127459999D01*
X161534751Y-127230599D01*
X161478241Y-127007445D01*
X161385774Y-126796643D01*
X161303238Y-126670312D01*
X160513553Y-127460000D01*
X159806447Y-127460000D01*
X159016760Y-126670313D01*
X158934224Y-126796644D01*
X158841758Y-127007445D01*
X158785248Y-127230599D01*
X158766239Y-127459999D01*
X143391041Y-127459999D01*
X143395666Y-127453874D01*
X143493928Y-127256538D01*
X143501309Y-127230599D01*
X143536632Y-127106447D01*
X143554256Y-127044506D01*
X143574596Y-126825000D01*
X143554256Y-126605494D01*
X143531577Y-126525788D01*
X143493929Y-126393463D01*
X143455100Y-126315486D01*
X159369039Y-126315486D01*
X160160000Y-127106447D01*
X160160001Y-127106447D01*
X160950959Y-126315487D01*
X160950959Y-126315485D01*
X160922317Y-126293193D01*
X160719862Y-126183630D01*
X160502151Y-126108889D01*
X160275095Y-126071000D01*
X160044905Y-126071000D01*
X159817848Y-126108889D01*
X159600134Y-126183631D01*
X159397682Y-126293192D01*
X159369039Y-126315484D01*
X159369039Y-126315486D01*
X143455100Y-126315486D01*
X143443999Y-126293192D01*
X143395666Y-126196126D01*
X143301175Y-126071000D01*
X143262816Y-126020204D01*
X143099905Y-125871691D01*
X142912475Y-125755640D01*
X142706921Y-125676008D01*
X142706918Y-125676007D01*
X142706917Y-125676007D01*
X142490223Y-125635500D01*
X142269777Y-125635500D01*
X142053083Y-125676007D01*
X142053078Y-125676008D01*
X141847524Y-125755640D01*
X141660094Y-125871691D01*
X141497183Y-126020204D01*
X141364334Y-126196126D01*
X141266070Y-126393463D01*
X141205744Y-126605492D01*
X141185404Y-126825000D01*
X138494596Y-126825000D01*
X138474256Y-126605494D01*
X138451577Y-126525788D01*
X138413929Y-126393463D01*
X138363999Y-126293192D01*
X138315666Y-126196126D01*
X138221175Y-126071000D01*
X138182816Y-126020204D01*
X138019905Y-125871691D01*
X137832475Y-125755640D01*
X137626921Y-125676008D01*
X137626918Y-125676007D01*
X137626917Y-125676007D01*
X137410223Y-125635500D01*
X137189777Y-125635500D01*
X136973083Y-125676007D01*
X136973078Y-125676008D01*
X136767524Y-125755640D01*
X136580094Y-125871691D01*
X136417183Y-126020204D01*
X136284334Y-126196126D01*
X136186070Y-126393463D01*
X136125744Y-126605492D01*
X136105404Y-126825000D01*
X91398213Y-126825000D01*
X91385774Y-126796643D01*
X91303238Y-126670312D01*
X90513553Y-127460000D01*
X90513553Y-127460001D01*
X89806447Y-127460001D01*
X89806447Y-127460000D01*
X89016760Y-126670313D01*
X88934224Y-126796644D01*
X88841758Y-127007445D01*
X88785248Y-127230599D01*
X88766239Y-127460000D01*
X73391040Y-127460000D01*
X73395666Y-127453874D01*
X73493928Y-127256538D01*
X73501309Y-127230599D01*
X73536632Y-127106447D01*
X73554256Y-127044506D01*
X73574596Y-126825000D01*
X73554256Y-126605494D01*
X73531577Y-126525788D01*
X73493929Y-126393463D01*
X73455100Y-126315486D01*
X89369039Y-126315486D01*
X90160000Y-127106447D01*
X90160001Y-127106447D01*
X90950959Y-126315487D01*
X90950959Y-126315485D01*
X90922317Y-126293193D01*
X90719862Y-126183630D01*
X90502151Y-126108889D01*
X90275095Y-126071000D01*
X90044905Y-126071000D01*
X89817848Y-126108889D01*
X89600134Y-126183631D01*
X89397682Y-126293192D01*
X89369039Y-126315484D01*
X89369039Y-126315486D01*
X73455100Y-126315486D01*
X73443999Y-126293192D01*
X73395666Y-126196126D01*
X73301175Y-126071000D01*
X73262816Y-126020204D01*
X73099905Y-125871691D01*
X72912475Y-125755640D01*
X72706921Y-125676008D01*
X72706918Y-125676007D01*
X72706917Y-125676007D01*
X72490223Y-125635500D01*
X72269777Y-125635500D01*
X72053083Y-125676007D01*
X72053078Y-125676008D01*
X71847524Y-125755640D01*
X71660094Y-125871691D01*
X71497183Y-126020204D01*
X71364334Y-126196126D01*
X71266070Y-126393463D01*
X71205744Y-126605492D01*
X71185404Y-126824999D01*
X68494596Y-126824999D01*
X68474256Y-126605494D01*
X68451577Y-126525788D01*
X68413929Y-126393463D01*
X68363999Y-126293192D01*
X68315666Y-126196126D01*
X68221175Y-126071000D01*
X68182816Y-126020204D01*
X68019905Y-125871691D01*
X67832475Y-125755640D01*
X67626921Y-125676008D01*
X67626918Y-125676007D01*
X67626917Y-125676007D01*
X67410223Y-125635500D01*
X67189777Y-125635500D01*
X66973083Y-125676007D01*
X66973078Y-125676008D01*
X66767524Y-125755640D01*
X66580094Y-125871691D01*
X66417183Y-126020204D01*
X66284334Y-126196126D01*
X66186070Y-126393463D01*
X66125744Y-126605492D01*
X66105404Y-126824999D01*
X65300500Y-126824999D01*
X65300500Y-125282200D01*
X102823117Y-125282200D01*
X102843756Y-125438962D01*
X102904263Y-125585040D01*
X103000517Y-125710482D01*
X103125959Y-125806736D01*
X103272038Y-125867244D01*
X103428800Y-125887882D01*
X103585562Y-125867244D01*
X103731641Y-125806736D01*
X103857082Y-125710482D01*
X103953336Y-125585041D01*
X104013844Y-125438962D01*
X104034482Y-125282200D01*
X104013844Y-125125438D01*
X103953336Y-124979359D01*
X103953335Y-124979358D01*
X103857082Y-124853917D01*
X103731640Y-124757663D01*
X103585562Y-124697156D01*
X103428800Y-124676517D01*
X103272037Y-124697156D01*
X103125959Y-124757663D01*
X103000517Y-124853917D01*
X102904263Y-124979359D01*
X102843756Y-125125437D01*
X102823117Y-125282200D01*
X65300500Y-125282200D01*
X65300500Y-122380000D01*
X71884052Y-122380000D01*
X71903807Y-122618402D01*
X71962535Y-122850312D01*
X72058627Y-123069382D01*
X72058629Y-123069385D01*
X72187765Y-123267043D01*
X72189473Y-123269656D01*
X72351493Y-123445657D01*
X72471765Y-123539267D01*
X72540275Y-123592591D01*
X72750665Y-123706449D01*
X72863796Y-123745287D01*
X72976923Y-123784124D01*
X72976925Y-123784124D01*
X72976927Y-123784125D01*
X73212888Y-123823500D01*
X73452111Y-123823500D01*
X73452112Y-123823500D01*
X73688073Y-123784125D01*
X73914335Y-123706449D01*
X74124725Y-123592591D01*
X74313506Y-123445657D01*
X74475528Y-123269655D01*
X74606371Y-123069385D01*
X74702466Y-122850310D01*
X74761192Y-122618407D01*
X74780947Y-122380000D01*
X85219052Y-122380000D01*
X85238807Y-122618402D01*
X85297535Y-122850312D01*
X85393627Y-123069382D01*
X85393629Y-123069385D01*
X85522765Y-123267043D01*
X85524473Y-123269656D01*
X85686493Y-123445657D01*
X85806765Y-123539267D01*
X85875275Y-123592591D01*
X86085665Y-123706449D01*
X86198796Y-123745287D01*
X86311923Y-123784124D01*
X86311925Y-123784124D01*
X86311927Y-123784125D01*
X86547888Y-123823500D01*
X86787111Y-123823500D01*
X86787112Y-123823500D01*
X87023073Y-123784125D01*
X87249335Y-123706449D01*
X87459725Y-123592591D01*
X87648506Y-123445657D01*
X87810528Y-123269655D01*
X87941371Y-123069385D01*
X88037466Y-122850310D01*
X88080088Y-122682000D01*
X125124317Y-122682000D01*
X125144956Y-122838762D01*
X125205463Y-122984840D01*
X125301717Y-123110282D01*
X125427158Y-123206535D01*
X125427159Y-123206536D01*
X125573238Y-123267044D01*
X125730000Y-123287682D01*
X125886762Y-123267044D01*
X126032841Y-123206536D01*
X126158282Y-123110282D01*
X126203124Y-123051841D01*
X126246654Y-123016117D01*
X126301498Y-123003329D01*
X126356342Y-123016116D01*
X126399874Y-123051842D01*
X126444716Y-123110281D01*
X126444719Y-123110283D01*
X126570159Y-123206536D01*
X126716238Y-123267044D01*
X126873000Y-123287682D01*
X127029762Y-123267044D01*
X127175841Y-123206536D01*
X127301282Y-123110282D01*
X127397536Y-122984841D01*
X127458044Y-122838762D01*
X127478682Y-122682000D01*
X127458044Y-122525238D01*
X127397884Y-122379999D01*
X141884052Y-122379999D01*
X141903807Y-122618402D01*
X141962535Y-122850312D01*
X142058627Y-123069382D01*
X142058629Y-123069385D01*
X142187765Y-123267043D01*
X142189473Y-123269656D01*
X142351493Y-123445657D01*
X142471765Y-123539267D01*
X142540275Y-123592591D01*
X142750665Y-123706449D01*
X142863796Y-123745287D01*
X142976923Y-123784124D01*
X142976925Y-123784124D01*
X142976927Y-123784125D01*
X143212888Y-123823500D01*
X143452111Y-123823500D01*
X143452112Y-123823500D01*
X143688073Y-123784125D01*
X143914335Y-123706449D01*
X144124725Y-123592591D01*
X144313506Y-123445657D01*
X144475528Y-123269655D01*
X144606371Y-123069385D01*
X144702466Y-122850310D01*
X144761192Y-122618407D01*
X144780947Y-122380000D01*
X155219052Y-122380000D01*
X155238807Y-122618402D01*
X155297535Y-122850312D01*
X155393627Y-123069382D01*
X155393629Y-123069385D01*
X155522765Y-123267043D01*
X155524473Y-123269656D01*
X155686493Y-123445657D01*
X155806765Y-123539267D01*
X155875275Y-123592591D01*
X156085665Y-123706449D01*
X156198796Y-123745287D01*
X156311923Y-123784124D01*
X156311925Y-123784124D01*
X156311927Y-123784125D01*
X156547888Y-123823500D01*
X156787111Y-123823500D01*
X156787112Y-123823500D01*
X157023073Y-123784125D01*
X157249335Y-123706449D01*
X157459725Y-123592591D01*
X157648506Y-123445657D01*
X157810528Y-123269655D01*
X157941371Y-123069385D01*
X158037466Y-122850310D01*
X158096192Y-122618407D01*
X158115947Y-122380000D01*
X158096192Y-122141593D01*
X158037466Y-121909690D01*
X157941371Y-121690615D01*
X157810528Y-121490345D01*
X157786681Y-121464440D01*
X157648506Y-121314342D01*
X157459726Y-121167410D01*
X157459725Y-121167409D01*
X157249335Y-121053551D01*
X157249331Y-121053549D01*
X157249330Y-121053549D01*
X157023076Y-120975875D01*
X156846102Y-120946343D01*
X156787112Y-120936500D01*
X156547888Y-120936500D01*
X156500695Y-120944375D01*
X156311923Y-120975875D01*
X156085669Y-121053549D01*
X155875273Y-121167410D01*
X155686493Y-121314342D01*
X155524473Y-121490343D01*
X155393627Y-121690617D01*
X155297535Y-121909687D01*
X155238807Y-122141597D01*
X155219052Y-122380000D01*
X144780947Y-122380000D01*
X144761192Y-122141593D01*
X144702466Y-121909690D01*
X144606371Y-121690615D01*
X144475528Y-121490345D01*
X144451681Y-121464440D01*
X144313506Y-121314342D01*
X144124726Y-121167410D01*
X144124725Y-121167409D01*
X143914335Y-121053551D01*
X143914331Y-121053549D01*
X143914330Y-121053549D01*
X143688076Y-120975875D01*
X143511102Y-120946343D01*
X143452112Y-120936500D01*
X143212888Y-120936500D01*
X143165695Y-120944375D01*
X142976923Y-120975875D01*
X142750669Y-121053549D01*
X142540273Y-121167410D01*
X142351493Y-121314342D01*
X142189473Y-121490343D01*
X142058627Y-121690617D01*
X141962535Y-121909687D01*
X141903807Y-122141597D01*
X141884052Y-122379999D01*
X127397884Y-122379999D01*
X127397536Y-122379159D01*
X127383349Y-122360670D01*
X127301282Y-122253717D01*
X127175840Y-122157463D01*
X127029762Y-122096956D01*
X126873000Y-122076317D01*
X126716237Y-122096956D01*
X126570159Y-122157463D01*
X126444716Y-122253718D01*
X126399875Y-122312157D01*
X126356344Y-122347882D01*
X126301500Y-122360670D01*
X126246656Y-122347882D01*
X126203125Y-122312157D01*
X126158283Y-122253718D01*
X126032840Y-122157463D01*
X125886762Y-122096956D01*
X125730000Y-122076317D01*
X125573237Y-122096956D01*
X125427159Y-122157463D01*
X125301717Y-122253717D01*
X125205463Y-122379159D01*
X125144956Y-122525237D01*
X125124317Y-122682000D01*
X88080088Y-122682000D01*
X88096192Y-122618407D01*
X88115947Y-122380000D01*
X88096192Y-122141593D01*
X88037466Y-121909690D01*
X87947417Y-121704399D01*
X119434717Y-121704399D01*
X119455356Y-121861162D01*
X119515863Y-122007240D01*
X119612117Y-122132682D01*
X119737558Y-122228935D01*
X119737559Y-122228936D01*
X119883638Y-122289444D01*
X120040400Y-122310082D01*
X120197162Y-122289444D01*
X120343241Y-122228936D01*
X120468682Y-122132682D01*
X120564936Y-122007241D01*
X120625444Y-121861162D01*
X120646082Y-121704400D01*
X120625444Y-121547638D01*
X120564936Y-121401559D01*
X120468682Y-121276117D01*
X120343240Y-121179863D01*
X120197162Y-121119356D01*
X120040400Y-121098717D01*
X119883637Y-121119356D01*
X119737559Y-121179863D01*
X119612117Y-121276117D01*
X119515863Y-121401559D01*
X119455356Y-121547637D01*
X119434717Y-121704399D01*
X87947417Y-121704399D01*
X87941371Y-121690615D01*
X87810528Y-121490345D01*
X87786681Y-121464440D01*
X87648506Y-121314342D01*
X87459726Y-121167410D01*
X87459725Y-121167409D01*
X87249335Y-121053551D01*
X87249331Y-121053549D01*
X87249330Y-121053549D01*
X87023076Y-120975875D01*
X86846102Y-120946343D01*
X86787112Y-120936500D01*
X86547888Y-120936500D01*
X86500695Y-120944375D01*
X86311923Y-120975875D01*
X86085669Y-121053549D01*
X85875273Y-121167410D01*
X85686493Y-121314342D01*
X85524473Y-121490343D01*
X85393627Y-121690617D01*
X85297535Y-121909687D01*
X85238807Y-122141597D01*
X85219052Y-122380000D01*
X74780947Y-122380000D01*
X74761192Y-122141593D01*
X74702466Y-121909690D01*
X74606371Y-121690615D01*
X74475528Y-121490345D01*
X74451681Y-121464440D01*
X74313506Y-121314342D01*
X74124726Y-121167410D01*
X74124725Y-121167409D01*
X73914335Y-121053551D01*
X73914331Y-121053549D01*
X73914330Y-121053549D01*
X73688076Y-120975875D01*
X73511102Y-120946343D01*
X73452112Y-120936500D01*
X73212888Y-120936500D01*
X73165695Y-120944375D01*
X72976923Y-120975875D01*
X72750669Y-121053549D01*
X72540273Y-121167410D01*
X72351493Y-121314342D01*
X72189473Y-121490343D01*
X72058627Y-121690617D01*
X71962535Y-121909687D01*
X71903807Y-122141597D01*
X71884052Y-122380000D01*
X65300500Y-122380000D01*
X65300500Y-118550000D01*
X99703495Y-118550000D01*
X99753651Y-118726278D01*
X99850712Y-118921205D01*
X99981944Y-119094985D01*
X100142868Y-119241685D01*
X100328012Y-119356322D01*
X100531069Y-119434986D01*
X100604000Y-119448620D01*
X100604000Y-118550000D01*
X99703495Y-118550000D01*
X65300500Y-118550000D01*
X65300500Y-118049999D01*
X99703494Y-118049999D01*
X99703495Y-118050000D01*
X100980000Y-118050000D01*
X101042000Y-118066613D01*
X101087387Y-118112000D01*
X101104000Y-118174000D01*
X101104000Y-119448620D01*
X101176930Y-119434986D01*
X101379987Y-119356322D01*
X101565131Y-119241685D01*
X101726055Y-119094985D01*
X101857284Y-118921208D01*
X101864279Y-118907161D01*
X101904172Y-118860844D01*
X101961345Y-118839215D01*
X102021904Y-118847528D01*
X102071133Y-118883763D01*
X102160880Y-118993120D01*
X102309419Y-119115023D01*
X102478886Y-119205605D01*
X102662769Y-119261385D01*
X102854000Y-119280220D01*
X103045231Y-119261385D01*
X103229114Y-119205605D01*
X103398581Y-119115023D01*
X103547120Y-118993120D01*
X103669023Y-118844581D01*
X103759605Y-118675114D01*
X103815385Y-118491231D01*
X103834220Y-118300000D01*
X103815385Y-118108769D01*
X103759605Y-117924886D01*
X103722785Y-117856000D01*
X105312317Y-117856000D01*
X105332956Y-118012762D01*
X105393463Y-118158840D01*
X105489717Y-118284282D01*
X105555922Y-118335082D01*
X105615159Y-118380536D01*
X105761238Y-118441044D01*
X105918000Y-118461682D01*
X106074762Y-118441044D01*
X106213369Y-118383631D01*
X108987476Y-118383631D01*
X109008115Y-118540393D01*
X109068622Y-118686471D01*
X109164876Y-118811913D01*
X109211291Y-118847528D01*
X109290318Y-118908167D01*
X109436397Y-118968675D01*
X109593159Y-118989313D01*
X109749921Y-118968675D01*
X109896000Y-118908167D01*
X110021441Y-118811913D01*
X110117695Y-118686472D01*
X110178203Y-118540393D01*
X110198841Y-118383631D01*
X110178203Y-118226869D01*
X110117695Y-118080790D01*
X110078939Y-118030282D01*
X110021441Y-117955348D01*
X109895999Y-117859094D01*
X109749921Y-117798587D01*
X109593159Y-117777948D01*
X109436396Y-117798587D01*
X109290318Y-117859094D01*
X109164876Y-117955348D01*
X109068622Y-118080790D01*
X109008115Y-118226868D01*
X108987476Y-118383631D01*
X106213369Y-118383631D01*
X106220841Y-118380536D01*
X106346282Y-118284282D01*
X106442536Y-118158841D01*
X106503044Y-118012762D01*
X106523682Y-117856000D01*
X106503044Y-117699238D01*
X106462767Y-117602000D01*
X113186317Y-117602000D01*
X113206956Y-117758762D01*
X113267463Y-117904840D01*
X113363717Y-118030282D01*
X113466006Y-118108770D01*
X113489159Y-118126536D01*
X113635238Y-118187044D01*
X113792000Y-118207682D01*
X113948762Y-118187044D01*
X114094841Y-118126536D01*
X114220282Y-118030282D01*
X114315033Y-117906800D01*
X118164717Y-117906800D01*
X118185356Y-118063562D01*
X118245863Y-118209640D01*
X118342117Y-118335082D01*
X118405388Y-118383631D01*
X118467559Y-118431336D01*
X118613638Y-118491844D01*
X118770400Y-118512482D01*
X118927162Y-118491844D01*
X119073241Y-118431336D01*
X119198682Y-118335082D01*
X119294936Y-118209641D01*
X119355444Y-118063562D01*
X119376082Y-117906800D01*
X119355444Y-117750038D01*
X119294936Y-117603959D01*
X119293433Y-117602000D01*
X122965317Y-117602000D01*
X122985956Y-117758762D01*
X123046463Y-117904840D01*
X123142717Y-118030282D01*
X123245006Y-118108770D01*
X123268159Y-118126536D01*
X123414238Y-118187044D01*
X123571000Y-118207682D01*
X123727762Y-118187044D01*
X123873841Y-118126536D01*
X123999282Y-118030282D01*
X124095536Y-117904841D01*
X124156044Y-117758762D01*
X124176682Y-117602000D01*
X124159962Y-117474999D01*
X132998317Y-117474999D01*
X133018956Y-117631762D01*
X133079463Y-117777840D01*
X133175717Y-117903282D01*
X133243573Y-117955349D01*
X133301159Y-117999536D01*
X133447238Y-118060044D01*
X133604000Y-118080682D01*
X133760762Y-118060044D01*
X133906841Y-117999536D01*
X134032282Y-117903282D01*
X134128536Y-117777841D01*
X134189044Y-117631762D01*
X134209682Y-117475000D01*
X134189044Y-117318238D01*
X134128536Y-117172159D01*
X134084694Y-117115023D01*
X134032282Y-117046717D01*
X133906840Y-116950463D01*
X133760762Y-116889956D01*
X133604000Y-116869317D01*
X133447237Y-116889956D01*
X133301159Y-116950463D01*
X133175717Y-117046717D01*
X133079463Y-117172159D01*
X133018956Y-117318237D01*
X132998317Y-117474999D01*
X124159962Y-117474999D01*
X124156044Y-117445238D01*
X124095536Y-117299159D01*
X124058059Y-117250318D01*
X123999282Y-117173717D01*
X123873840Y-117077463D01*
X123727762Y-117016956D01*
X123571000Y-116996317D01*
X123414237Y-117016956D01*
X123268159Y-117077463D01*
X123142717Y-117173717D01*
X123046463Y-117299159D01*
X122985956Y-117445237D01*
X122965317Y-117602000D01*
X119293433Y-117602000D01*
X119255956Y-117553159D01*
X119198682Y-117478517D01*
X119073240Y-117382263D01*
X118927162Y-117321756D01*
X118770400Y-117301117D01*
X118613637Y-117321756D01*
X118467559Y-117382263D01*
X118342117Y-117478517D01*
X118245863Y-117603959D01*
X118185356Y-117750037D01*
X118164717Y-117906800D01*
X114315033Y-117906800D01*
X114316536Y-117904841D01*
X114377044Y-117758762D01*
X114397682Y-117602000D01*
X114377044Y-117445238D01*
X114316536Y-117299159D01*
X114279059Y-117250318D01*
X114220282Y-117173717D01*
X114094840Y-117077463D01*
X113948762Y-117016956D01*
X113792000Y-116996317D01*
X113635237Y-117016956D01*
X113489159Y-117077463D01*
X113363717Y-117173717D01*
X113267463Y-117299159D01*
X113206956Y-117445237D01*
X113186317Y-117602000D01*
X106462767Y-117602000D01*
X106442536Y-117553159D01*
X106405593Y-117505014D01*
X106346282Y-117427717D01*
X106220840Y-117331463D01*
X106074762Y-117270956D01*
X105918000Y-117250317D01*
X105761237Y-117270956D01*
X105615159Y-117331463D01*
X105489717Y-117427717D01*
X105393463Y-117553159D01*
X105332956Y-117699237D01*
X105312317Y-117856000D01*
X103722785Y-117856000D01*
X103669023Y-117755419D01*
X103547120Y-117606880D01*
X103398581Y-117484977D01*
X103379915Y-117475000D01*
X103257107Y-117409357D01*
X103209201Y-117363747D01*
X103191560Y-117299998D01*
X103209202Y-117236250D01*
X103257103Y-117190644D01*
X103398581Y-117115023D01*
X103547120Y-116993120D01*
X103669023Y-116844581D01*
X103759605Y-116675114D01*
X103810379Y-116507733D01*
X115550583Y-116507733D01*
X115571222Y-116664496D01*
X115631729Y-116810574D01*
X115727983Y-116936016D01*
X115806570Y-116996317D01*
X115853425Y-117032270D01*
X115999504Y-117092778D01*
X116156266Y-117113416D01*
X116313028Y-117092778D01*
X116459107Y-117032270D01*
X116584548Y-116936016D01*
X116680802Y-116810575D01*
X116741310Y-116664496D01*
X116761948Y-116507734D01*
X116741310Y-116350972D01*
X116712409Y-116281200D01*
X118164717Y-116281200D01*
X118185356Y-116437962D01*
X118245863Y-116584040D01*
X118342117Y-116709482D01*
X118467558Y-116805735D01*
X118467559Y-116805736D01*
X118613638Y-116866244D01*
X118770400Y-116886882D01*
X118927162Y-116866244D01*
X119073241Y-116805736D01*
X119198682Y-116709482D01*
X119294936Y-116584041D01*
X119355444Y-116437962D01*
X119376082Y-116281200D01*
X119355444Y-116124438D01*
X119294936Y-115978359D01*
X119252220Y-115922690D01*
X119198682Y-115852917D01*
X119073240Y-115756663D01*
X118927162Y-115696156D01*
X118770400Y-115675517D01*
X118613637Y-115696156D01*
X118467559Y-115756663D01*
X118342117Y-115852917D01*
X118245863Y-115978359D01*
X118185356Y-116124437D01*
X118164717Y-116281200D01*
X116712409Y-116281200D01*
X116680802Y-116204893D01*
X116619067Y-116124438D01*
X116584548Y-116079451D01*
X116459106Y-115983197D01*
X116313028Y-115922690D01*
X116156266Y-115902051D01*
X115999503Y-115922690D01*
X115853425Y-115983197D01*
X115727983Y-116079451D01*
X115631729Y-116204893D01*
X115571222Y-116350971D01*
X115550583Y-116507733D01*
X103810379Y-116507733D01*
X103815385Y-116491231D01*
X103834220Y-116300000D01*
X103815385Y-116108769D01*
X103759605Y-115924886D01*
X103705680Y-115824000D01*
X105312317Y-115824000D01*
X105332956Y-115980762D01*
X105393463Y-116126840D01*
X105489717Y-116252282D01*
X105551905Y-116300000D01*
X105615159Y-116348536D01*
X105761238Y-116409044D01*
X105918000Y-116429682D01*
X106074762Y-116409044D01*
X106220841Y-116348536D01*
X106346282Y-116252282D01*
X106442536Y-116126841D01*
X106503044Y-115980762D01*
X106523682Y-115824000D01*
X106503044Y-115667238D01*
X106442536Y-115521159D01*
X106414772Y-115484976D01*
X106346282Y-115395717D01*
X106341699Y-115392200D01*
X107801517Y-115392200D01*
X107822156Y-115548962D01*
X107882663Y-115695040D01*
X107978917Y-115820482D01*
X108078498Y-115896892D01*
X108104359Y-115916736D01*
X108250438Y-115977244D01*
X108407200Y-115997882D01*
X108563962Y-115977244D01*
X108710041Y-115916736D01*
X108835482Y-115820482D01*
X108931736Y-115695041D01*
X108992244Y-115548962D01*
X109012882Y-115392200D01*
X108992244Y-115235438D01*
X108931736Y-115089359D01*
X108923431Y-115078536D01*
X108835482Y-114963917D01*
X108710040Y-114867663D01*
X108563962Y-114807156D01*
X108407200Y-114786517D01*
X108250437Y-114807156D01*
X108104359Y-114867663D01*
X107978917Y-114963917D01*
X107882663Y-115089359D01*
X107822156Y-115235437D01*
X107801517Y-115392200D01*
X106341699Y-115392200D01*
X106220840Y-115299463D01*
X106074762Y-115238956D01*
X105918000Y-115218317D01*
X105761237Y-115238956D01*
X105615159Y-115299463D01*
X105489717Y-115395717D01*
X105393463Y-115521159D01*
X105332956Y-115667237D01*
X105312317Y-115824000D01*
X103705680Y-115824000D01*
X103669023Y-115755419D01*
X103547120Y-115606880D01*
X103398581Y-115484977D01*
X103367747Y-115468496D01*
X103257107Y-115409357D01*
X103209201Y-115363747D01*
X103191560Y-115299998D01*
X103209202Y-115236250D01*
X103257103Y-115190644D01*
X103398581Y-115115023D01*
X103547120Y-114993120D01*
X103669023Y-114844581D01*
X103759605Y-114675114D01*
X103796344Y-114554000D01*
X129061317Y-114554000D01*
X129081956Y-114710762D01*
X129142463Y-114856840D01*
X129238717Y-114982282D01*
X129252842Y-114993120D01*
X129364159Y-115078536D01*
X129510238Y-115139044D01*
X129667000Y-115159682D01*
X129823762Y-115139044D01*
X129969841Y-115078536D01*
X130095282Y-114982282D01*
X130191536Y-114856841D01*
X130252044Y-114710762D01*
X130272682Y-114554000D01*
X132998317Y-114554000D01*
X133018956Y-114710762D01*
X133079463Y-114856840D01*
X133175717Y-114982282D01*
X133189842Y-114993120D01*
X133301159Y-115078536D01*
X133447238Y-115139044D01*
X133604000Y-115159682D01*
X133760762Y-115139044D01*
X133906841Y-115078536D01*
X134032282Y-114982282D01*
X134128536Y-114856841D01*
X134189044Y-114710762D01*
X134209682Y-114554000D01*
X134189044Y-114397238D01*
X134128536Y-114251159D01*
X134128535Y-114251158D01*
X134032282Y-114125717D01*
X133906840Y-114029463D01*
X133760762Y-113968956D01*
X133604000Y-113948317D01*
X133447237Y-113968956D01*
X133301159Y-114029463D01*
X133175717Y-114125717D01*
X133079463Y-114251159D01*
X133018956Y-114397237D01*
X132998317Y-114554000D01*
X130272682Y-114554000D01*
X130252044Y-114397238D01*
X130191536Y-114251159D01*
X130191535Y-114251158D01*
X130095282Y-114125717D01*
X129969840Y-114029463D01*
X129823762Y-113968956D01*
X129667000Y-113948317D01*
X129510237Y-113968956D01*
X129364159Y-114029463D01*
X129238717Y-114125717D01*
X129142463Y-114251159D01*
X129081956Y-114397237D01*
X129061317Y-114554000D01*
X103796344Y-114554000D01*
X103815385Y-114491231D01*
X103834220Y-114300000D01*
X103815385Y-114108769D01*
X103759605Y-113924886D01*
X103669023Y-113755419D01*
X103547120Y-113606880D01*
X103398581Y-113484977D01*
X103398580Y-113484976D01*
X103287307Y-113425500D01*
X111789317Y-113425500D01*
X111809956Y-113582262D01*
X111870463Y-113728340D01*
X111966717Y-113853782D01*
X112059379Y-113924883D01*
X112092159Y-113950036D01*
X112238238Y-114010544D01*
X112395000Y-114031182D01*
X112551762Y-114010544D01*
X112697841Y-113950036D01*
X112823282Y-113853782D01*
X112919536Y-113728341D01*
X112980044Y-113582262D01*
X113000682Y-113425500D01*
X112980044Y-113268738D01*
X112919536Y-113122659D01*
X112875233Y-113064922D01*
X112823282Y-112997217D01*
X112697840Y-112900963D01*
X112551762Y-112840456D01*
X112395000Y-112819817D01*
X112238237Y-112840456D01*
X112092159Y-112900963D01*
X111966717Y-112997217D01*
X111870463Y-113122659D01*
X111809956Y-113268737D01*
X111789317Y-113425500D01*
X103287307Y-113425500D01*
X103257105Y-113409357D01*
X103209202Y-113363749D01*
X103191560Y-113300000D01*
X103209202Y-113236251D01*
X103257105Y-113190642D01*
X103398581Y-113115023D01*
X103547120Y-112993120D01*
X103669023Y-112844581D01*
X103759605Y-112675114D01*
X103815385Y-112491231D01*
X103834220Y-112300000D01*
X103815385Y-112108769D01*
X103759605Y-111924886D01*
X103752931Y-111912399D01*
X123905117Y-111912399D01*
X123925756Y-112069162D01*
X123986263Y-112215240D01*
X124082517Y-112340682D01*
X124207958Y-112436935D01*
X124207959Y-112436936D01*
X124354038Y-112497444D01*
X124510800Y-112518082D01*
X124667562Y-112497444D01*
X124813641Y-112436936D01*
X124939082Y-112340682D01*
X125035336Y-112215241D01*
X125095844Y-112069162D01*
X125116482Y-111912400D01*
X125095844Y-111755638D01*
X125035336Y-111609559D01*
X125033833Y-111607600D01*
X131956917Y-111607600D01*
X131977556Y-111764362D01*
X132038063Y-111910440D01*
X132134317Y-112035882D01*
X132177689Y-112069162D01*
X132259759Y-112132136D01*
X132405838Y-112192644D01*
X132562600Y-112213282D01*
X132719362Y-112192644D01*
X132865441Y-112132136D01*
X132990882Y-112035882D01*
X133087136Y-111910441D01*
X133147644Y-111764362D01*
X133168282Y-111607600D01*
X138586317Y-111607600D01*
X138606956Y-111764362D01*
X138667463Y-111910440D01*
X138763717Y-112035882D01*
X138807089Y-112069162D01*
X138889159Y-112132136D01*
X139035238Y-112192644D01*
X139192000Y-112213282D01*
X139348762Y-112192644D01*
X139494841Y-112132136D01*
X139620282Y-112035882D01*
X139716536Y-111910441D01*
X139777044Y-111764362D01*
X139797682Y-111607600D01*
X139777044Y-111450838D01*
X139716536Y-111304759D01*
X139657026Y-111227204D01*
X139620281Y-111179316D01*
X139578393Y-111147174D01*
X139542667Y-111103642D01*
X139529880Y-111048798D01*
X139542668Y-110993954D01*
X139578392Y-110950424D01*
X139620282Y-110918282D01*
X139716536Y-110792841D01*
X139777044Y-110646762D01*
X139797682Y-110490000D01*
X139777044Y-110333238D01*
X139716536Y-110187159D01*
X139658298Y-110111261D01*
X139620282Y-110061717D01*
X139594945Y-110042276D01*
X139559219Y-109998744D01*
X139546431Y-109943900D01*
X139559219Y-109889056D01*
X139594945Y-109845524D01*
X139620282Y-109826082D01*
X139625299Y-109819544D01*
X139716536Y-109700641D01*
X139777044Y-109554562D01*
X139797682Y-109397800D01*
X139777044Y-109241038D01*
X139716536Y-109094959D01*
X139678752Y-109045718D01*
X139620282Y-108969517D01*
X139494840Y-108873263D01*
X139348762Y-108812756D01*
X139192000Y-108792117D01*
X139035237Y-108812756D01*
X138889159Y-108873263D01*
X138763717Y-108969517D01*
X138667463Y-109094959D01*
X138606956Y-109241037D01*
X138586317Y-109397799D01*
X138606956Y-109554562D01*
X138667463Y-109700640D01*
X138763718Y-109826083D01*
X138789055Y-109845525D01*
X138824780Y-109889057D01*
X138837568Y-109943900D01*
X138824780Y-109998743D01*
X138789055Y-110042275D01*
X138763718Y-110061716D01*
X138667463Y-110187159D01*
X138606956Y-110333237D01*
X138586317Y-110489999D01*
X138606956Y-110646762D01*
X138667463Y-110792840D01*
X138763718Y-110918283D01*
X138805606Y-110950425D01*
X138841331Y-110993957D01*
X138854119Y-111048800D01*
X138841331Y-111103643D01*
X138805606Y-111147175D01*
X138763718Y-111179316D01*
X138667463Y-111304759D01*
X138606956Y-111450837D01*
X138586317Y-111607600D01*
X133168282Y-111607600D01*
X133147644Y-111450838D01*
X133087136Y-111304759D01*
X133053854Y-111261385D01*
X132990882Y-111179317D01*
X132961694Y-111156921D01*
X132925968Y-111113389D01*
X132913180Y-111058545D01*
X132925968Y-111003701D01*
X132961694Y-110960169D01*
X133016282Y-110918282D01*
X133063134Y-110857223D01*
X133112536Y-110792841D01*
X133173044Y-110646762D01*
X133193682Y-110490000D01*
X133173044Y-110333238D01*
X133112536Y-110187159D01*
X133054298Y-110111261D01*
X133016282Y-110061717D01*
X132990945Y-110042276D01*
X132955219Y-109998744D01*
X132942431Y-109943900D01*
X132955219Y-109889056D01*
X132990945Y-109845524D01*
X133016282Y-109826082D01*
X133021299Y-109819544D01*
X133112536Y-109700641D01*
X133173044Y-109554562D01*
X133193682Y-109397800D01*
X133173044Y-109241038D01*
X133112536Y-109094959D01*
X133074752Y-109045718D01*
X133016282Y-108969517D01*
X132890840Y-108873263D01*
X132744762Y-108812756D01*
X132588000Y-108792117D01*
X132431237Y-108812756D01*
X132285159Y-108873263D01*
X132159717Y-108969517D01*
X132063463Y-109094959D01*
X132002956Y-109241037D01*
X131982317Y-109397799D01*
X132002956Y-109554562D01*
X132063463Y-109700640D01*
X132159718Y-109826083D01*
X132185055Y-109845525D01*
X132220780Y-109889057D01*
X132233568Y-109943900D01*
X132220780Y-109998743D01*
X132185055Y-110042275D01*
X132159718Y-110061716D01*
X132063463Y-110187159D01*
X132002956Y-110333237D01*
X131982317Y-110489999D01*
X132002956Y-110646762D01*
X132063463Y-110792840D01*
X132103164Y-110844580D01*
X132159718Y-110918282D01*
X132180843Y-110934491D01*
X132188905Y-110940678D01*
X132224631Y-110984209D01*
X132237419Y-111039053D01*
X132224632Y-111093896D01*
X132188907Y-111137429D01*
X132134317Y-111179318D01*
X132038063Y-111304759D01*
X131977556Y-111450837D01*
X131956917Y-111607600D01*
X125033833Y-111607600D01*
X124955117Y-111505015D01*
X124939082Y-111484117D01*
X124813640Y-111387863D01*
X124667562Y-111327356D01*
X124510800Y-111306717D01*
X124354037Y-111327356D01*
X124207959Y-111387863D01*
X124082517Y-111484117D01*
X123986263Y-111609559D01*
X123925756Y-111755637D01*
X123905117Y-111912399D01*
X103752931Y-111912399D01*
X103669023Y-111755419D01*
X103547120Y-111606880D01*
X103398581Y-111484977D01*
X103398580Y-111484976D01*
X103312257Y-111438836D01*
X103257105Y-111409357D01*
X103209202Y-111363749D01*
X103191560Y-111300000D01*
X103209202Y-111236251D01*
X103257105Y-111190642D01*
X103398581Y-111115023D01*
X103547120Y-110993120D01*
X103669023Y-110844581D01*
X103759605Y-110675114D01*
X103815385Y-110491231D01*
X103834220Y-110300000D01*
X103815385Y-110108769D01*
X103759605Y-109924886D01*
X103669023Y-109755419D01*
X103547120Y-109606880D01*
X103398581Y-109484977D01*
X103398580Y-109484976D01*
X103378043Y-109473999D01*
X107344317Y-109473999D01*
X107364956Y-109630762D01*
X107425463Y-109776840D01*
X107521717Y-109902282D01*
X107647158Y-109998535D01*
X107647159Y-109998536D01*
X107793238Y-110059044D01*
X107950000Y-110079682D01*
X108106762Y-110059044D01*
X108252841Y-109998536D01*
X108378282Y-109902282D01*
X108474536Y-109776841D01*
X108535044Y-109630762D01*
X108555682Y-109474000D01*
X108535044Y-109317238D01*
X108474536Y-109171159D01*
X108402852Y-109077738D01*
X108378282Y-109045717D01*
X108274390Y-108965999D01*
X110138317Y-108965999D01*
X110158956Y-109122762D01*
X110219463Y-109268840D01*
X110315717Y-109394282D01*
X110419609Y-109474000D01*
X110441159Y-109490536D01*
X110587238Y-109551044D01*
X110744000Y-109571682D01*
X110900762Y-109551044D01*
X111046841Y-109490536D01*
X111172282Y-109394282D01*
X111268536Y-109268841D01*
X111329044Y-109122762D01*
X111349682Y-108966000D01*
X111329044Y-108809238D01*
X111268536Y-108663159D01*
X111244843Y-108632282D01*
X111172282Y-108537717D01*
X111046840Y-108441463D01*
X110900762Y-108380956D01*
X110744000Y-108360317D01*
X110587237Y-108380956D01*
X110441159Y-108441463D01*
X110315717Y-108537717D01*
X110219463Y-108663159D01*
X110158956Y-108809237D01*
X110138317Y-108965999D01*
X108274390Y-108965999D01*
X108252840Y-108949463D01*
X108106762Y-108888956D01*
X107950000Y-108868317D01*
X107793237Y-108888956D01*
X107647159Y-108949463D01*
X107521717Y-109045717D01*
X107425463Y-109171159D01*
X107364956Y-109317237D01*
X107344317Y-109473999D01*
X103378043Y-109473999D01*
X103229116Y-109394396D01*
X103229115Y-109394395D01*
X103229114Y-109394395D01*
X103137172Y-109366504D01*
X103045229Y-109338614D01*
X102854000Y-109319780D01*
X102662770Y-109338614D01*
X102478883Y-109394396D01*
X102309419Y-109484976D01*
X102160880Y-109606880D01*
X102049352Y-109742777D01*
X102000951Y-109778673D01*
X101941345Y-109787515D01*
X101884608Y-109767214D01*
X101844141Y-109722565D01*
X101829499Y-109664112D01*
X101829499Y-109580133D01*
X101826585Y-109555011D01*
X101826585Y-109555009D01*
X101781206Y-109452235D01*
X101781204Y-109452233D01*
X101781204Y-109452232D01*
X101701767Y-109372795D01*
X101651878Y-109350767D01*
X101598991Y-109327415D01*
X101573865Y-109324500D01*
X101573863Y-109324500D01*
X100134132Y-109324500D01*
X100109011Y-109327414D01*
X100006232Y-109372795D01*
X99926795Y-109452232D01*
X99881415Y-109555009D01*
X99878500Y-109580136D01*
X99878500Y-111019867D01*
X99881414Y-111044988D01*
X99881414Y-111044990D01*
X99881415Y-111044991D01*
X99926794Y-111147765D01*
X99926795Y-111147767D01*
X100006232Y-111227204D01*
X100006233Y-111227204D01*
X100006235Y-111227206D01*
X100021088Y-111233764D01*
X100069086Y-111271334D01*
X100093384Y-111327235D01*
X100088111Y-111387961D01*
X100054540Y-111438836D01*
X99981944Y-111505014D01*
X99850712Y-111678794D01*
X99753651Y-111873721D01*
X99703494Y-112049999D01*
X99703495Y-112050000D01*
X100980000Y-112050000D01*
X101042000Y-112066613D01*
X101087387Y-112112000D01*
X101104000Y-112174000D01*
X101104000Y-114426000D01*
X101087387Y-114488000D01*
X101042000Y-114533387D01*
X100980000Y-114550000D01*
X99703495Y-114550000D01*
X99753651Y-114726278D01*
X99850712Y-114921205D01*
X99981944Y-115094985D01*
X100142870Y-115241686D01*
X100259344Y-115313804D01*
X100300333Y-115355328D01*
X100317794Y-115411001D01*
X100307860Y-115468496D01*
X100272733Y-115515083D01*
X100160881Y-115606879D01*
X100038976Y-115755419D01*
X99948396Y-115924883D01*
X99892614Y-116108770D01*
X99873780Y-116300000D01*
X99892614Y-116491229D01*
X99948396Y-116675116D01*
X100020799Y-116810574D01*
X100038977Y-116844581D01*
X100160880Y-116993120D01*
X100272733Y-117084915D01*
X100307860Y-117131501D01*
X100317794Y-117188996D01*
X100300334Y-117244669D01*
X100259346Y-117286193D01*
X100142870Y-117358313D01*
X99981944Y-117505014D01*
X99850712Y-117678794D01*
X99753651Y-117873721D01*
X99703494Y-118049999D01*
X65300500Y-118049999D01*
X65300500Y-114049999D01*
X99703494Y-114049999D01*
X99703495Y-114050000D01*
X100604000Y-114050000D01*
X100604000Y-112550000D01*
X99703495Y-112550000D01*
X99753651Y-112726278D01*
X99850712Y-112921205D01*
X99981942Y-113094981D01*
X100106315Y-113208361D01*
X100142043Y-113266064D01*
X100142043Y-113333933D01*
X100106315Y-113391636D01*
X99981944Y-113505014D01*
X99850712Y-113678794D01*
X99753651Y-113873721D01*
X99703494Y-114049999D01*
X65300500Y-114049999D01*
X65300500Y-112844737D01*
X67504813Y-112844737D01*
X67665619Y-112954372D01*
X67895179Y-113064922D01*
X68138654Y-113140025D01*
X68390603Y-113178000D01*
X68645397Y-113178000D01*
X68897345Y-113140025D01*
X69140823Y-113064921D01*
X69370383Y-112954372D01*
X69531185Y-112844737D01*
X68518000Y-111831553D01*
X67504813Y-112844737D01*
X65300500Y-112844737D01*
X65300500Y-111477999D01*
X66813232Y-111477999D01*
X66832273Y-111732080D01*
X66888971Y-111980491D01*
X66982057Y-112217668D01*
X67109456Y-112438331D01*
X67151452Y-112490993D01*
X67151453Y-112490993D01*
X68164447Y-111478001D01*
X68164447Y-111478000D01*
X68871553Y-111478000D01*
X69884545Y-112490993D01*
X69884546Y-112490992D01*
X69926545Y-112438328D01*
X70053942Y-112217669D01*
X70147028Y-111980491D01*
X70203726Y-111732080D01*
X70222767Y-111477999D01*
X70203726Y-111223919D01*
X70147028Y-110975508D01*
X70053942Y-110738330D01*
X69926545Y-110517671D01*
X69884546Y-110465005D01*
X68871553Y-111478000D01*
X68164447Y-111478000D01*
X67151453Y-110465006D01*
X67109453Y-110517673D01*
X66982057Y-110738331D01*
X66888971Y-110975508D01*
X66832273Y-111223919D01*
X66813232Y-111477999D01*
X65300500Y-111477999D01*
X65300500Y-110111261D01*
X67504813Y-110111261D01*
X68518000Y-111124447D01*
X68518001Y-111124447D01*
X69484947Y-110157499D01*
X76991317Y-110157499D01*
X77011956Y-110314262D01*
X77072463Y-110460340D01*
X77168717Y-110585782D01*
X77198422Y-110608575D01*
X77294159Y-110682036D01*
X77440238Y-110742544D01*
X77597000Y-110763182D01*
X77753762Y-110742544D01*
X77899841Y-110682036D01*
X77966013Y-110631260D01*
X78014661Y-110608575D01*
X78068339Y-110608575D01*
X78116986Y-110631260D01*
X78183159Y-110682036D01*
X78329238Y-110742544D01*
X78486000Y-110763182D01*
X78642762Y-110742544D01*
X78788841Y-110682036D01*
X78914282Y-110585782D01*
X79010536Y-110460341D01*
X79071044Y-110314262D01*
X79091682Y-110157500D01*
X79071044Y-110000738D01*
X79010536Y-109854659D01*
X79003527Y-109845525D01*
X78914282Y-109729217D01*
X78788840Y-109632963D01*
X78642762Y-109572456D01*
X78486000Y-109551817D01*
X78329237Y-109572456D01*
X78183159Y-109632963D01*
X78116985Y-109683740D01*
X78068337Y-109706425D01*
X78014660Y-109706425D01*
X77966012Y-109683739D01*
X77899840Y-109632963D01*
X77753762Y-109572456D01*
X77597000Y-109551817D01*
X77440237Y-109572456D01*
X77294159Y-109632963D01*
X77168717Y-109729217D01*
X77072463Y-109854659D01*
X77011956Y-110000737D01*
X76991317Y-110157499D01*
X69484947Y-110157499D01*
X69531185Y-110111261D01*
X69370379Y-110001625D01*
X69140823Y-109891078D01*
X68897345Y-109815974D01*
X68645397Y-109778000D01*
X68390603Y-109778000D01*
X68138654Y-109815974D01*
X67895179Y-109891077D01*
X67665615Y-110001628D01*
X67504813Y-110111261D01*
X65300500Y-110111261D01*
X65300500Y-109222867D01*
X67017500Y-109222867D01*
X67020414Y-109247988D01*
X67020414Y-109247990D01*
X67020415Y-109247991D01*
X67055484Y-109327414D01*
X67065795Y-109350767D01*
X67145232Y-109430204D01*
X67145233Y-109430204D01*
X67145235Y-109430206D01*
X67248009Y-109475585D01*
X67273135Y-109478500D01*
X69762864Y-109478499D01*
X69762867Y-109478499D01*
X69775427Y-109477042D01*
X69787991Y-109475585D01*
X69890765Y-109430206D01*
X69970206Y-109350765D01*
X70015585Y-109247991D01*
X70017150Y-109234500D01*
X85500317Y-109234500D01*
X85520956Y-109391262D01*
X85581463Y-109537340D01*
X85677717Y-109662782D01*
X85755629Y-109722565D01*
X85803159Y-109759036D01*
X85949238Y-109819544D01*
X86106000Y-109840182D01*
X86262762Y-109819544D01*
X86408841Y-109759036D01*
X86534282Y-109662782D01*
X86630536Y-109537341D01*
X86691044Y-109391262D01*
X86711682Y-109234500D01*
X86691044Y-109077738D01*
X86630536Y-108931659D01*
X86585728Y-108873264D01*
X86534282Y-108806217D01*
X86408840Y-108709963D01*
X86262762Y-108649456D01*
X86106000Y-108628817D01*
X85949237Y-108649456D01*
X85803159Y-108709963D01*
X85677717Y-108806217D01*
X85581463Y-108931659D01*
X85520956Y-109077737D01*
X85500317Y-109234500D01*
X70017150Y-109234500D01*
X70018500Y-109222865D01*
X70018499Y-107315000D01*
X74070317Y-107315000D01*
X74090956Y-107471762D01*
X74151463Y-107617840D01*
X74247717Y-107743282D01*
X74291707Y-107777036D01*
X74373159Y-107839536D01*
X74519238Y-107900044D01*
X74676000Y-107920682D01*
X74832762Y-107900044D01*
X74978841Y-107839536D01*
X75104282Y-107743282D01*
X75200536Y-107617841D01*
X75261044Y-107471762D01*
X75279773Y-107329500D01*
X88421317Y-107329500D01*
X88441956Y-107486262D01*
X88502463Y-107632340D01*
X88560376Y-107707814D01*
X88583061Y-107756461D01*
X88583061Y-107810137D01*
X88560377Y-107858785D01*
X88527863Y-107901159D01*
X88467356Y-108047237D01*
X88446717Y-108203999D01*
X88467356Y-108360762D01*
X88527863Y-108506840D01*
X88624117Y-108632282D01*
X88725354Y-108709963D01*
X88749559Y-108728536D01*
X88895638Y-108789044D01*
X89052400Y-108809682D01*
X89209162Y-108789044D01*
X89355241Y-108728536D01*
X89480682Y-108632282D01*
X89576936Y-108506841D01*
X89637444Y-108360762D01*
X89658082Y-108204000D01*
X89658082Y-108203999D01*
X105860217Y-108203999D01*
X105880856Y-108360762D01*
X105941363Y-108506840D01*
X106037617Y-108632282D01*
X106138854Y-108709963D01*
X106163059Y-108728536D01*
X106309138Y-108789044D01*
X106465900Y-108809682D01*
X106622662Y-108789044D01*
X106768741Y-108728536D01*
X106894182Y-108632282D01*
X106990436Y-108506841D01*
X107050944Y-108360762D01*
X107071582Y-108204000D01*
X107054862Y-108077000D01*
X121610817Y-108077000D01*
X121631456Y-108233762D01*
X121691963Y-108379840D01*
X121788217Y-108505282D01*
X121913658Y-108601535D01*
X121913659Y-108601536D01*
X122059738Y-108662044D01*
X122216500Y-108682682D01*
X122373262Y-108662044D01*
X122519341Y-108601536D01*
X122644782Y-108505282D01*
X122741036Y-108379841D01*
X122801544Y-108233762D01*
X122822182Y-108077000D01*
X122801544Y-107920238D01*
X122741036Y-107774159D01*
X122690128Y-107707814D01*
X122644782Y-107648717D01*
X122519340Y-107552463D01*
X122373262Y-107491956D01*
X122216500Y-107471317D01*
X122059737Y-107491956D01*
X121913659Y-107552463D01*
X121788217Y-107648717D01*
X121691963Y-107774159D01*
X121631456Y-107920237D01*
X121610817Y-108077000D01*
X107054862Y-108077000D01*
X107050944Y-108047238D01*
X106990436Y-107901159D01*
X106989580Y-107900043D01*
X106894182Y-107775717D01*
X106768740Y-107679463D01*
X106622662Y-107618956D01*
X106465900Y-107598317D01*
X106309137Y-107618956D01*
X106163059Y-107679463D01*
X106037617Y-107775717D01*
X105941363Y-107901159D01*
X105880856Y-108047237D01*
X105860217Y-108203999D01*
X89658082Y-108203999D01*
X89637444Y-108047238D01*
X89576936Y-107901159D01*
X89519020Y-107825681D01*
X89496337Y-107777036D01*
X89496338Y-107723358D01*
X89519021Y-107674714D01*
X89551536Y-107632341D01*
X89612044Y-107486262D01*
X89632682Y-107329500D01*
X89612044Y-107172738D01*
X89551536Y-107026659D01*
X89539554Y-107011044D01*
X89455282Y-106901217D01*
X89329840Y-106804963D01*
X89183762Y-106744456D01*
X89027000Y-106723817D01*
X88870237Y-106744456D01*
X88724159Y-106804963D01*
X88598717Y-106901217D01*
X88502463Y-107026659D01*
X88441956Y-107172737D01*
X88421317Y-107329500D01*
X75279773Y-107329500D01*
X75281682Y-107315000D01*
X75261044Y-107158238D01*
X75200536Y-107012159D01*
X75199680Y-107011043D01*
X75104282Y-106886717D01*
X74978840Y-106790463D01*
X74832762Y-106729956D01*
X74676000Y-106709317D01*
X74519237Y-106729956D01*
X74373159Y-106790463D01*
X74247717Y-106886717D01*
X74151463Y-107012159D01*
X74090956Y-107158237D01*
X74070317Y-107315000D01*
X70018499Y-107315000D01*
X70018499Y-106733136D01*
X70018130Y-106729956D01*
X70015737Y-106709318D01*
X70015585Y-106708009D01*
X69970206Y-106605235D01*
X69970204Y-106605233D01*
X69970204Y-106605232D01*
X69890767Y-106525795D01*
X69890765Y-106525794D01*
X69787991Y-106480415D01*
X69762865Y-106477500D01*
X69762863Y-106477500D01*
X67273132Y-106477500D01*
X67248011Y-106480414D01*
X67145232Y-106525795D01*
X67065795Y-106605232D01*
X67020415Y-106708009D01*
X67017500Y-106733136D01*
X67017500Y-109222867D01*
X65300500Y-109222867D01*
X65300500Y-106426000D01*
X93120317Y-106426000D01*
X93140956Y-106582762D01*
X93201463Y-106728840D01*
X93297717Y-106854282D01*
X93358885Y-106901217D01*
X93423159Y-106950536D01*
X93569238Y-107011044D01*
X93726000Y-107031682D01*
X93882762Y-107011044D01*
X94028841Y-106950536D01*
X94154282Y-106854282D01*
X94250536Y-106728841D01*
X94311044Y-106582762D01*
X94331682Y-106426000D01*
X107090317Y-106426000D01*
X107110956Y-106582762D01*
X107171463Y-106728840D01*
X107267717Y-106854282D01*
X107328885Y-106901217D01*
X107393159Y-106950536D01*
X107539238Y-107011044D01*
X107696000Y-107031682D01*
X107852762Y-107011044D01*
X107998841Y-106950536D01*
X108124282Y-106854282D01*
X108220536Y-106728841D01*
X108281044Y-106582762D01*
X108301682Y-106426000D01*
X108281618Y-106273600D01*
X130102717Y-106273600D01*
X130123356Y-106430362D01*
X130183863Y-106576440D01*
X130280117Y-106701882D01*
X130395559Y-106790463D01*
X130405559Y-106798136D01*
X130551638Y-106858644D01*
X130708400Y-106879282D01*
X130865162Y-106858644D01*
X131011241Y-106798136D01*
X131136682Y-106701882D01*
X131232936Y-106576441D01*
X131293444Y-106430362D01*
X131314082Y-106273600D01*
X131293444Y-106116838D01*
X131232936Y-105970759D01*
X131136682Y-105845317D01*
X131011240Y-105749063D01*
X130865162Y-105688556D01*
X130708400Y-105667917D01*
X130551637Y-105688556D01*
X130405559Y-105749063D01*
X130280117Y-105845317D01*
X130183863Y-105970759D01*
X130123356Y-106116837D01*
X130102717Y-106273600D01*
X108281618Y-106273600D01*
X108281044Y-106269238D01*
X108220536Y-106123159D01*
X108215685Y-106116837D01*
X108124282Y-105997717D01*
X107998840Y-105901463D01*
X107852762Y-105840956D01*
X107696000Y-105820317D01*
X107539237Y-105840956D01*
X107393159Y-105901463D01*
X107267717Y-105997717D01*
X107171463Y-106123159D01*
X107110956Y-106269237D01*
X107090317Y-106426000D01*
X94331682Y-106426000D01*
X94311044Y-106269238D01*
X94250536Y-106123159D01*
X94245685Y-106116837D01*
X94154282Y-105997717D01*
X94028840Y-105901463D01*
X93882762Y-105840956D01*
X93726000Y-105820317D01*
X93569237Y-105840956D01*
X93423159Y-105901463D01*
X93297717Y-105997717D01*
X93201463Y-106123159D01*
X93140956Y-106269237D01*
X93120317Y-106426000D01*
X65300500Y-106426000D01*
X65300500Y-105003451D01*
X72383572Y-105003451D01*
X72404211Y-105160213D01*
X72464718Y-105306291D01*
X72560972Y-105431733D01*
X72686414Y-105527987D01*
X72832493Y-105588495D01*
X72989255Y-105609133D01*
X73146017Y-105588495D01*
X73292096Y-105527987D01*
X73417537Y-105431733D01*
X73513791Y-105306292D01*
X73574299Y-105160213D01*
X73594937Y-105003451D01*
X73574299Y-104846689D01*
X73513791Y-104700610D01*
X73417537Y-104575168D01*
X73292095Y-104478914D01*
X73146017Y-104418407D01*
X72989255Y-104397768D01*
X72832492Y-104418407D01*
X72686414Y-104478914D01*
X72560972Y-104575168D01*
X72464718Y-104700610D01*
X72404211Y-104846688D01*
X72383572Y-105003451D01*
X65300500Y-105003451D01*
X65300500Y-102489000D01*
X80419949Y-102489000D01*
X80438870Y-102632709D01*
X80494337Y-102766622D01*
X80494338Y-102766624D01*
X80494339Y-102766625D01*
X80582579Y-102881621D01*
X80697575Y-102969861D01*
X80831491Y-103025330D01*
X80975200Y-103044250D01*
X81118909Y-103025330D01*
X81252825Y-102969861D01*
X81306116Y-102928969D01*
X81354761Y-102906285D01*
X81408439Y-102906285D01*
X81457083Y-102928969D01*
X81510375Y-102969861D01*
X81644291Y-103025330D01*
X81788000Y-103044250D01*
X81931709Y-103025330D01*
X82065625Y-102969861D01*
X82180621Y-102881621D01*
X82268861Y-102766625D01*
X82324330Y-102632709D01*
X82326530Y-102616000D01*
X107649117Y-102616000D01*
X107669756Y-102772762D01*
X107730263Y-102918840D01*
X107826517Y-103044282D01*
X107869889Y-103077562D01*
X107951959Y-103140536D01*
X108098038Y-103201044D01*
X108254800Y-103221682D01*
X108411562Y-103201044D01*
X108557641Y-103140536D01*
X108683082Y-103044282D01*
X108777833Y-102920800D01*
X128299317Y-102920800D01*
X128319956Y-103077562D01*
X128380463Y-103223640D01*
X128476717Y-103349082D01*
X128602158Y-103445335D01*
X128602159Y-103445336D01*
X128748238Y-103505844D01*
X128905000Y-103526482D01*
X129061762Y-103505844D01*
X129207841Y-103445336D01*
X129333282Y-103349082D01*
X129429536Y-103223641D01*
X129490044Y-103077562D01*
X129510682Y-102920800D01*
X129490044Y-102764038D01*
X129429536Y-102617959D01*
X129428033Y-102616000D01*
X129333282Y-102492517D01*
X129207840Y-102396263D01*
X129061762Y-102335756D01*
X128905000Y-102315117D01*
X128748237Y-102335756D01*
X128602159Y-102396263D01*
X128476717Y-102492517D01*
X128380463Y-102617959D01*
X128319956Y-102764037D01*
X128299317Y-102920800D01*
X108777833Y-102920800D01*
X108779336Y-102918841D01*
X108839844Y-102772762D01*
X108860482Y-102616000D01*
X108839844Y-102459238D01*
X108779336Y-102313159D01*
X108732469Y-102252080D01*
X108683082Y-102187717D01*
X108557640Y-102091463D01*
X108411562Y-102030956D01*
X108254800Y-102010317D01*
X108098037Y-102030956D01*
X107951959Y-102091463D01*
X107826517Y-102187717D01*
X107730263Y-102313159D01*
X107669756Y-102459237D01*
X107649117Y-102616000D01*
X82326530Y-102616000D01*
X82343250Y-102489000D01*
X82324330Y-102345291D01*
X82268861Y-102211375D01*
X82180621Y-102096379D01*
X82065625Y-102008139D01*
X82065624Y-102008138D01*
X82065622Y-102008137D01*
X81931709Y-101952670D01*
X81788000Y-101933749D01*
X81644290Y-101952670D01*
X81510377Y-102008137D01*
X81507535Y-102010318D01*
X81457085Y-102049029D01*
X81408439Y-102071714D01*
X81354761Y-102071714D01*
X81306114Y-102049029D01*
X81252825Y-102008139D01*
X81252824Y-102008138D01*
X81252822Y-102008137D01*
X81118909Y-101952670D01*
X80975200Y-101933749D01*
X80831490Y-101952670D01*
X80697577Y-102008137D01*
X80582579Y-102096379D01*
X80494337Y-102211377D01*
X80438870Y-102345290D01*
X80419949Y-102489000D01*
X65300500Y-102489000D01*
X65300500Y-101823798D01*
X122054689Y-101823798D01*
X122075328Y-101980560D01*
X122135835Y-102126638D01*
X122232089Y-102252080D01*
X122314243Y-102315118D01*
X122357531Y-102348334D01*
X122503610Y-102408842D01*
X122660372Y-102429480D01*
X122817134Y-102408842D01*
X122963213Y-102348334D01*
X123088654Y-102252080D01*
X123184908Y-102126639D01*
X123192629Y-102108000D01*
X137773517Y-102108000D01*
X137794156Y-102264762D01*
X137854663Y-102410840D01*
X137950917Y-102536282D01*
X138054809Y-102616000D01*
X138076359Y-102632536D01*
X138222438Y-102693044D01*
X138379200Y-102713682D01*
X138535962Y-102693044D01*
X138682041Y-102632536D01*
X138807482Y-102536282D01*
X138903736Y-102410841D01*
X138964244Y-102264762D01*
X138984882Y-102108000D01*
X138964244Y-101951238D01*
X138903736Y-101805159D01*
X138807482Y-101679717D01*
X138682040Y-101583463D01*
X138535962Y-101522956D01*
X138379200Y-101502317D01*
X138222437Y-101522956D01*
X138076359Y-101583463D01*
X137950917Y-101679717D01*
X137854663Y-101805159D01*
X137794156Y-101951237D01*
X137773517Y-102108000D01*
X123192629Y-102108000D01*
X123245416Y-101980560D01*
X123266054Y-101823798D01*
X123245416Y-101667036D01*
X123184908Y-101520957D01*
X123170605Y-101502317D01*
X123088654Y-101395515D01*
X122963212Y-101299261D01*
X122817134Y-101238754D01*
X122660372Y-101218115D01*
X122503609Y-101238754D01*
X122357531Y-101299261D01*
X122232089Y-101395515D01*
X122135835Y-101520957D01*
X122075328Y-101667035D01*
X122054689Y-101823798D01*
X65300500Y-101823798D01*
X65300500Y-99187000D01*
X87786317Y-99187000D01*
X87806956Y-99343762D01*
X87867463Y-99489840D01*
X87963717Y-99615282D01*
X88089096Y-99711488D01*
X88089159Y-99711536D01*
X88235238Y-99772044D01*
X88392000Y-99792682D01*
X88548762Y-99772044D01*
X88694841Y-99711536D01*
X88820282Y-99615282D01*
X88916536Y-99489841D01*
X88977044Y-99343762D01*
X88997682Y-99187000D01*
X88977044Y-99030238D01*
X88916536Y-98884159D01*
X88895542Y-98856799D01*
X88820282Y-98758717D01*
X88782595Y-98729799D01*
X114379749Y-98729799D01*
X114398670Y-98873509D01*
X114454137Y-99007422D01*
X114454138Y-99007424D01*
X114454139Y-99007425D01*
X114542379Y-99122421D01*
X114657375Y-99210661D01*
X114791291Y-99266130D01*
X114935000Y-99285050D01*
X114956410Y-99282231D01*
X115013987Y-99288282D01*
X115062542Y-99319813D01*
X115091489Y-99369951D01*
X115094520Y-99427766D01*
X115070972Y-99480656D01*
X115029138Y-99535174D01*
X114973670Y-99669090D01*
X114954749Y-99812799D01*
X114973670Y-99956509D01*
X115029137Y-100090422D01*
X115029138Y-100090424D01*
X115029139Y-100090425D01*
X115117379Y-100205421D01*
X115232375Y-100293661D01*
X115366291Y-100349130D01*
X115510000Y-100368050D01*
X115653709Y-100349130D01*
X115787625Y-100293661D01*
X115902621Y-100205421D01*
X115904479Y-100202999D01*
X116284749Y-100202999D01*
X116303670Y-100346709D01*
X116359137Y-100480622D01*
X116359138Y-100480624D01*
X116359139Y-100480625D01*
X116447379Y-100595621D01*
X116562375Y-100683861D01*
X116696291Y-100739330D01*
X116840000Y-100758250D01*
X116983709Y-100739330D01*
X117117625Y-100683861D01*
X117232621Y-100595621D01*
X117320861Y-100480625D01*
X117376330Y-100346709D01*
X117395250Y-100203000D01*
X117376330Y-100059291D01*
X117376329Y-100059290D01*
X117374199Y-100043107D01*
X117376929Y-100042747D01*
X117372025Y-100005483D01*
X117396590Y-99946183D01*
X117447512Y-99907111D01*
X117473225Y-99896461D01*
X117588221Y-99808221D01*
X117676461Y-99693225D01*
X117731930Y-99559309D01*
X117750850Y-99415600D01*
X117731930Y-99271891D01*
X117676461Y-99137975D01*
X117588221Y-99022979D01*
X117473225Y-98934739D01*
X117473224Y-98934738D01*
X117473222Y-98934737D01*
X117339309Y-98879270D01*
X117195600Y-98860349D01*
X117051890Y-98879270D01*
X116917977Y-98934737D01*
X116802979Y-99022979D01*
X116714737Y-99137977D01*
X116659270Y-99271890D01*
X116640349Y-99415600D01*
X116661401Y-99575493D01*
X116658670Y-99575852D01*
X116663573Y-99613123D01*
X116639008Y-99672417D01*
X116588088Y-99711488D01*
X116562376Y-99722137D01*
X116447379Y-99810379D01*
X116359137Y-99925377D01*
X116303670Y-100059290D01*
X116284749Y-100202999D01*
X115904479Y-100202999D01*
X115990861Y-100090425D01*
X116046330Y-99956509D01*
X116065250Y-99812800D01*
X116046330Y-99669091D01*
X116003428Y-99565515D01*
X115990862Y-99535177D01*
X115990861Y-99535176D01*
X115990861Y-99535175D01*
X115902621Y-99420179D01*
X115787625Y-99331939D01*
X115787624Y-99331938D01*
X115787622Y-99331937D01*
X115653709Y-99276470D01*
X115509997Y-99257549D01*
X115488586Y-99260368D01*
X115431009Y-99254316D01*
X115382455Y-99222784D01*
X115353509Y-99172645D01*
X115350480Y-99114830D01*
X115374026Y-99061944D01*
X115415861Y-99007425D01*
X115471330Y-98873509D01*
X115473530Y-98856799D01*
X120907917Y-98856799D01*
X120928556Y-99013562D01*
X120989063Y-99159640D01*
X121085317Y-99285082D01*
X121146383Y-99331939D01*
X121210759Y-99381336D01*
X121356838Y-99441844D01*
X121513600Y-99462482D01*
X121670362Y-99441844D01*
X121816441Y-99381336D01*
X121941882Y-99285082D01*
X121988854Y-99223867D01*
X154532500Y-99223867D01*
X154535414Y-99248988D01*
X154535414Y-99248990D01*
X154535415Y-99248991D01*
X154547548Y-99276470D01*
X154580795Y-99351767D01*
X154660232Y-99431204D01*
X154660233Y-99431204D01*
X154660235Y-99431206D01*
X154763009Y-99476585D01*
X154788135Y-99479500D01*
X157877864Y-99479499D01*
X157877867Y-99479499D01*
X157890427Y-99478041D01*
X157902991Y-99476585D01*
X158005765Y-99431206D01*
X158085206Y-99351765D01*
X158130585Y-99248991D01*
X158133500Y-99223865D01*
X158133499Y-96634136D01*
X158130585Y-96609009D01*
X158085206Y-96506235D01*
X158085204Y-96506233D01*
X158085204Y-96506232D01*
X158005767Y-96426795D01*
X157976873Y-96414037D01*
X157902991Y-96381415D01*
X157877865Y-96378500D01*
X157877863Y-96378500D01*
X154788132Y-96378500D01*
X154763011Y-96381414D01*
X154660232Y-96426795D01*
X154580795Y-96506232D01*
X154535415Y-96609009D01*
X154532500Y-96634136D01*
X154532500Y-99223867D01*
X121988854Y-99223867D01*
X122038136Y-99159641D01*
X122098644Y-99013562D01*
X122119282Y-98856800D01*
X122098644Y-98700038D01*
X122038136Y-98553959D01*
X122038135Y-98553958D01*
X121941882Y-98428517D01*
X121816440Y-98332263D01*
X121670362Y-98271756D01*
X121513600Y-98251117D01*
X121356837Y-98271756D01*
X121210759Y-98332263D01*
X121085317Y-98428517D01*
X120989063Y-98553959D01*
X120928556Y-98700037D01*
X120907917Y-98856799D01*
X115473530Y-98856799D01*
X115490250Y-98729800D01*
X115471330Y-98586091D01*
X115415861Y-98452175D01*
X115327621Y-98337179D01*
X115212625Y-98248939D01*
X115212624Y-98248938D01*
X115212622Y-98248937D01*
X115078709Y-98193470D01*
X114935000Y-98174549D01*
X114791290Y-98193470D01*
X114657377Y-98248937D01*
X114542379Y-98337179D01*
X114454137Y-98452177D01*
X114398670Y-98586090D01*
X114379749Y-98729799D01*
X88782595Y-98729799D01*
X88694840Y-98662463D01*
X88548762Y-98601956D01*
X88392000Y-98581317D01*
X88235237Y-98601956D01*
X88089159Y-98662463D01*
X87963717Y-98758717D01*
X87867463Y-98884159D01*
X87806956Y-99030237D01*
X87786317Y-99187000D01*
X65300500Y-99187000D01*
X65300500Y-97790000D01*
X132236317Y-97790000D01*
X132256956Y-97946762D01*
X132317463Y-98092840D01*
X132413717Y-98218282D01*
X132539159Y-98314536D01*
X132685238Y-98375044D01*
X132842000Y-98395682D01*
X132998762Y-98375044D01*
X133144841Y-98314536D01*
X133270282Y-98218282D01*
X133366536Y-98092841D01*
X133427044Y-97946762D01*
X133447682Y-97790000D01*
X133427044Y-97633238D01*
X133366536Y-97487159D01*
X133366535Y-97487158D01*
X133270282Y-97361717D01*
X133144840Y-97265463D01*
X132998762Y-97204956D01*
X132842000Y-97184317D01*
X132685237Y-97204956D01*
X132539159Y-97265463D01*
X132413717Y-97361717D01*
X132317463Y-97487159D01*
X132256956Y-97633237D01*
X132236317Y-97790000D01*
X65300500Y-97790000D01*
X65300500Y-96570799D01*
X107674517Y-96570799D01*
X107695156Y-96727562D01*
X107755663Y-96873640D01*
X107851917Y-96999082D01*
X107977359Y-97095336D01*
X108123438Y-97155844D01*
X108280200Y-97176482D01*
X108436962Y-97155844D01*
X108583041Y-97095336D01*
X108708482Y-96999082D01*
X108804736Y-96873641D01*
X108865244Y-96727562D01*
X108885882Y-96570800D01*
X108865244Y-96414038D01*
X108804736Y-96267959D01*
X108758243Y-96207368D01*
X108708482Y-96142517D01*
X108583040Y-96046263D01*
X108436962Y-95985756D01*
X108280200Y-95965117D01*
X108123437Y-95985756D01*
X107977359Y-96046263D01*
X107851917Y-96142517D01*
X107755663Y-96267959D01*
X107695156Y-96414037D01*
X107674517Y-96570799D01*
X65300500Y-96570799D01*
X65300500Y-95503999D01*
X99343317Y-95503999D01*
X99363956Y-95660762D01*
X99424463Y-95806840D01*
X99520717Y-95932282D01*
X99646159Y-96028536D01*
X99792238Y-96089044D01*
X99949000Y-96109682D01*
X100105762Y-96089044D01*
X100251841Y-96028536D01*
X100377282Y-95932282D01*
X100473536Y-95806841D01*
X100534044Y-95660762D01*
X100554682Y-95504000D01*
X100534044Y-95347238D01*
X100473536Y-95201159D01*
X100377282Y-95075718D01*
X100374035Y-95071486D01*
X100351350Y-95022838D01*
X100351350Y-94969162D01*
X100374035Y-94920514D01*
X100483474Y-94777890D01*
X100485118Y-94779151D01*
X100503467Y-94753896D01*
X100555052Y-94727611D01*
X100612948Y-94727611D01*
X100664533Y-94753896D01*
X100682881Y-94779151D01*
X100684526Y-94777890D01*
X100790717Y-94916282D01*
X100894609Y-94996000D01*
X100916159Y-95012536D01*
X101062238Y-95073044D01*
X101219000Y-95093682D01*
X101375762Y-95073044D01*
X101521841Y-95012536D01*
X101647282Y-94916282D01*
X101714256Y-94829000D01*
X147527531Y-94829000D01*
X147547364Y-95055689D01*
X147606261Y-95275497D01*
X147702432Y-95481735D01*
X147832953Y-95668140D01*
X147993859Y-95829046D01*
X148180264Y-95959567D01*
X148180265Y-95959567D01*
X148180266Y-95959568D01*
X148386504Y-96055739D01*
X148606308Y-96114635D01*
X148833000Y-96134468D01*
X149059692Y-96114635D01*
X149279496Y-96055739D01*
X149286206Y-96052610D01*
X162462942Y-96052610D01*
X162509766Y-96089055D01*
X162728393Y-96207368D01*
X162963506Y-96288083D01*
X163208707Y-96329000D01*
X163457293Y-96329000D01*
X163702493Y-96288083D01*
X163937606Y-96207368D01*
X164156233Y-96089053D01*
X164203056Y-96052609D01*
X163333000Y-95182553D01*
X162462942Y-96052609D01*
X162462942Y-96052610D01*
X149286206Y-96052610D01*
X149485734Y-95959568D01*
X149672139Y-95829047D01*
X149833047Y-95668139D01*
X149963568Y-95481734D01*
X150059739Y-95275496D01*
X150118635Y-95055692D01*
X150138468Y-94829000D01*
X150138468Y-94828999D01*
X161827858Y-94828999D01*
X161848386Y-95076732D01*
X161909413Y-95317721D01*
X162009268Y-95545370D01*
X162109563Y-95698882D01*
X162109564Y-95698882D01*
X162979447Y-94829001D01*
X162979447Y-94829000D01*
X162109564Y-93959116D01*
X162009266Y-94112634D01*
X161909413Y-94340278D01*
X161848386Y-94581267D01*
X161827858Y-94828999D01*
X150138468Y-94828999D01*
X150118635Y-94602308D01*
X150059739Y-94382504D01*
X149963568Y-94176266D01*
X149923460Y-94118986D01*
X149833046Y-93989859D01*
X149672140Y-93828953D01*
X149636350Y-93803893D01*
X149595885Y-93756394D01*
X149583677Y-93695201D01*
X149602818Y-93635810D01*
X149635449Y-93605390D01*
X162462942Y-93605390D01*
X163333000Y-94475447D01*
X163333001Y-94475447D01*
X164203057Y-93605390D01*
X164203056Y-93605388D01*
X164156235Y-93568947D01*
X163937606Y-93450631D01*
X163702493Y-93369916D01*
X163457293Y-93329000D01*
X163208707Y-93329000D01*
X162963506Y-93369916D01*
X162728393Y-93450631D01*
X162509764Y-93568946D01*
X162462942Y-93605388D01*
X162462942Y-93605390D01*
X149635449Y-93605390D01*
X149648460Y-93593261D01*
X149656234Y-93589054D01*
X149703056Y-93552610D01*
X149703056Y-93552609D01*
X148833000Y-92682553D01*
X147962942Y-93552609D01*
X148009768Y-93589055D01*
X148017545Y-93593264D01*
X148063184Y-93635814D01*
X148082322Y-93695203D01*
X148070113Y-93756394D01*
X148029650Y-93803893D01*
X147993857Y-93828955D01*
X147832953Y-93989859D01*
X147702432Y-94176264D01*
X147606261Y-94382502D01*
X147547364Y-94602310D01*
X147527531Y-94829000D01*
X101714256Y-94829000D01*
X101743536Y-94790841D01*
X101804044Y-94644762D01*
X101824682Y-94488000D01*
X101804044Y-94331238D01*
X101743536Y-94185159D01*
X101692760Y-94118986D01*
X101670075Y-94070339D01*
X101670075Y-94016661D01*
X101692760Y-93968014D01*
X101719843Y-93932718D01*
X101743536Y-93901841D01*
X101804044Y-93755762D01*
X101824682Y-93599000D01*
X101809200Y-93481400D01*
X107678317Y-93481400D01*
X107698956Y-93638162D01*
X107759463Y-93784240D01*
X107855717Y-93909682D01*
X107962978Y-93991985D01*
X107981159Y-94005936D01*
X108127238Y-94066444D01*
X108284000Y-94087082D01*
X108440762Y-94066444D01*
X108586841Y-94005936D01*
X108712282Y-93909682D01*
X108808536Y-93784241D01*
X108869044Y-93638162D01*
X108889682Y-93481400D01*
X108869044Y-93324638D01*
X108808536Y-93178559D01*
X108732420Y-93079362D01*
X108712282Y-93053117D01*
X108586840Y-92956863D01*
X108504121Y-92922600D01*
X109710317Y-92922600D01*
X109730956Y-93079362D01*
X109791463Y-93225440D01*
X109887717Y-93350882D01*
X109914254Y-93371244D01*
X110013159Y-93447136D01*
X110159238Y-93507644D01*
X110316000Y-93528282D01*
X110472762Y-93507644D01*
X110618841Y-93447136D01*
X110744282Y-93350882D01*
X110840536Y-93225441D01*
X110901044Y-93079362D01*
X110921682Y-92922600D01*
X110901044Y-92765838D01*
X110840536Y-92619759D01*
X110814041Y-92585230D01*
X110744282Y-92494317D01*
X110627707Y-92404867D01*
X130140500Y-92404867D01*
X130143414Y-92429988D01*
X130143414Y-92429990D01*
X130143415Y-92429991D01*
X130171818Y-92494317D01*
X130188795Y-92532767D01*
X130268232Y-92612204D01*
X130268233Y-92612204D01*
X130268235Y-92612206D01*
X130371009Y-92657585D01*
X130396135Y-92660500D01*
X131985864Y-92660499D01*
X131985867Y-92660499D01*
X131998427Y-92659041D01*
X132010991Y-92657585D01*
X132113765Y-92612206D01*
X132193206Y-92532765D01*
X132238585Y-92429991D01*
X132238585Y-92429989D01*
X132246162Y-92412830D01*
X132246620Y-92413032D01*
X132262643Y-92373296D01*
X132314814Y-92333481D01*
X132379999Y-92325870D01*
X132439939Y-92352594D01*
X132528445Y-92425227D01*
X132604550Y-92487685D01*
X132787046Y-92585232D01*
X132985066Y-92645300D01*
X133191000Y-92665583D01*
X133396934Y-92645300D01*
X133594954Y-92585232D01*
X133777450Y-92487685D01*
X133937410Y-92356410D01*
X134068685Y-92196450D01*
X134081642Y-92172208D01*
X134127251Y-92124304D01*
X134191000Y-92106662D01*
X134254749Y-92124304D01*
X134300357Y-92172208D01*
X134313315Y-92196450D01*
X134444589Y-92356410D01*
X134524569Y-92422047D01*
X134604550Y-92487685D01*
X134787046Y-92585232D01*
X134985066Y-92645300D01*
X135191000Y-92665583D01*
X135317497Y-92653124D01*
X136501426Y-92653124D01*
X136501427Y-92653125D01*
X136563610Y-92696666D01*
X136761840Y-92789102D01*
X136973113Y-92845712D01*
X137191000Y-92864775D01*
X137408886Y-92845712D01*
X137620159Y-92789102D01*
X137626384Y-92786199D01*
X145190317Y-92786199D01*
X145210956Y-92942962D01*
X145271463Y-93089040D01*
X145367717Y-93214482D01*
X145474162Y-93296159D01*
X145493159Y-93310736D01*
X145639238Y-93371244D01*
X145796000Y-93391882D01*
X145952762Y-93371244D01*
X146098841Y-93310736D01*
X146224282Y-93214482D01*
X146320536Y-93089041D01*
X146381044Y-92942962D01*
X146401682Y-92786200D01*
X146381044Y-92629438D01*
X146320536Y-92483359D01*
X146320535Y-92483358D01*
X146279505Y-92429886D01*
X146256820Y-92381239D01*
X146256820Y-92329000D01*
X147327858Y-92329000D01*
X147348386Y-92576732D01*
X147409413Y-92817721D01*
X147509268Y-93045370D01*
X147609563Y-93198882D01*
X147609564Y-93198882D01*
X148479447Y-92329001D01*
X149186553Y-92329001D01*
X150056434Y-93198882D01*
X150156730Y-93045369D01*
X150256586Y-92817721D01*
X150317613Y-92576732D01*
X150338141Y-92329000D01*
X150317613Y-92081267D01*
X150256586Y-91840278D01*
X150156730Y-91612630D01*
X150056434Y-91459116D01*
X149186553Y-92329000D01*
X149186553Y-92329001D01*
X148479447Y-92329001D01*
X148479447Y-92329000D01*
X147609564Y-91459116D01*
X147509266Y-91612634D01*
X147409413Y-91840278D01*
X147348386Y-92081267D01*
X147327858Y-92329000D01*
X146256820Y-92329000D01*
X146256820Y-92327561D01*
X146279505Y-92278914D01*
X146313368Y-92234782D01*
X146320536Y-92225441D01*
X146381044Y-92079362D01*
X146401682Y-91922600D01*
X146381044Y-91765838D01*
X146320536Y-91619759D01*
X146315066Y-91612630D01*
X146224282Y-91494317D01*
X146098840Y-91398063D01*
X145952762Y-91337556D01*
X145796000Y-91316917D01*
X145639237Y-91337556D01*
X145493159Y-91398063D01*
X145367717Y-91494317D01*
X145271463Y-91619759D01*
X145210956Y-91765837D01*
X145190317Y-91922599D01*
X145210956Y-92079362D01*
X145271463Y-92225441D01*
X145312494Y-92278914D01*
X145335179Y-92327562D01*
X145335179Y-92381238D01*
X145312494Y-92429886D01*
X145271463Y-92483358D01*
X145210956Y-92629437D01*
X145190317Y-92786199D01*
X137626384Y-92786199D01*
X137818385Y-92696667D01*
X137880572Y-92653124D01*
X137191001Y-91963553D01*
X137191000Y-91963553D01*
X136501426Y-92653124D01*
X135317497Y-92653124D01*
X135396934Y-92645300D01*
X135594954Y-92585232D01*
X135777450Y-92487685D01*
X135921653Y-92369340D01*
X135937409Y-92356411D01*
X135937410Y-92356410D01*
X135968769Y-92318198D01*
X136013753Y-92283777D01*
X136069354Y-92272953D01*
X136123968Y-92287987D01*
X136135739Y-92298510D01*
X136147875Y-92299572D01*
X136837447Y-91610001D01*
X136837447Y-91610000D01*
X137544553Y-91610000D01*
X138234124Y-92299572D01*
X138277667Y-92237385D01*
X138370102Y-92039159D01*
X138426712Y-91827886D01*
X138445775Y-91610000D01*
X138426712Y-91392113D01*
X138370102Y-91180840D01*
X138277667Y-90982615D01*
X138234123Y-90920428D01*
X137544553Y-91610000D01*
X136837447Y-91610000D01*
X136147875Y-90920427D01*
X136135739Y-90921489D01*
X136123968Y-90932013D01*
X136069355Y-90947046D01*
X136013755Y-90936222D01*
X135968770Y-90901801D01*
X135937411Y-90863590D01*
X135847619Y-90789901D01*
X135777450Y-90732315D01*
X135594954Y-90634768D01*
X135495944Y-90604734D01*
X135396932Y-90574699D01*
X135317492Y-90566875D01*
X136501427Y-90566875D01*
X137191000Y-91256447D01*
X137191001Y-91256447D01*
X137573580Y-90873867D01*
X147532500Y-90873867D01*
X147535414Y-90898988D01*
X147535414Y-90898990D01*
X147535415Y-90898991D01*
X147580794Y-91001765D01*
X147580795Y-91001767D01*
X147660232Y-91081204D01*
X147660233Y-91081204D01*
X147660235Y-91081206D01*
X147763009Y-91126585D01*
X147788135Y-91129500D01*
X147935693Y-91129499D01*
X147983142Y-91138938D01*
X148023371Y-91165818D01*
X148833000Y-91975447D01*
X148833001Y-91975447D01*
X149642628Y-91165818D01*
X149682856Y-91138938D01*
X149730308Y-91129499D01*
X149877864Y-91129499D01*
X149877867Y-91129499D01*
X149890427Y-91128041D01*
X149902991Y-91126585D01*
X150005765Y-91081206D01*
X150085206Y-91001765D01*
X150130585Y-90898991D01*
X150133500Y-90873865D01*
X150133499Y-88784136D01*
X150130585Y-88759009D01*
X150085206Y-88656235D01*
X150085204Y-88656233D01*
X150085204Y-88656232D01*
X150005767Y-88576795D01*
X150005765Y-88576794D01*
X149902991Y-88531415D01*
X149877865Y-88528500D01*
X149877863Y-88528500D01*
X147788132Y-88528500D01*
X147763011Y-88531414D01*
X147660232Y-88576795D01*
X147580795Y-88656232D01*
X147535415Y-88759009D01*
X147532500Y-88784136D01*
X147532500Y-90873867D01*
X137573580Y-90873867D01*
X137880572Y-90566875D01*
X137880571Y-90566873D01*
X137818386Y-90523331D01*
X137620161Y-90430898D01*
X137408886Y-90374287D01*
X137191000Y-90355224D01*
X136973113Y-90374287D01*
X136761840Y-90430897D01*
X136563611Y-90523333D01*
X136501428Y-90566874D01*
X136501427Y-90566875D01*
X135317492Y-90566875D01*
X135191000Y-90554417D01*
X134985067Y-90574699D01*
X134787043Y-90634769D01*
X134604551Y-90732314D01*
X134444589Y-90863589D01*
X134313315Y-91023549D01*
X134300358Y-91047791D01*
X134254748Y-91095696D01*
X134191000Y-91113337D01*
X134127252Y-91095696D01*
X134081642Y-91047791D01*
X134068684Y-91023549D01*
X133937410Y-90863589D01*
X133839952Y-90783609D01*
X133777450Y-90732315D01*
X133594954Y-90634768D01*
X133495944Y-90604734D01*
X133396932Y-90574699D01*
X133191000Y-90554417D01*
X132985067Y-90574699D01*
X132787043Y-90634769D01*
X132604551Y-90732314D01*
X132439939Y-90867405D01*
X132379998Y-90894129D01*
X132314812Y-90886517D01*
X132262641Y-90846700D01*
X132246622Y-90806970D01*
X132246163Y-90807173D01*
X132238585Y-90790010D01*
X132238585Y-90790009D01*
X132193206Y-90687235D01*
X132193204Y-90687233D01*
X132193204Y-90687232D01*
X132113767Y-90607795D01*
X132113765Y-90607794D01*
X132010991Y-90562415D01*
X131985865Y-90559500D01*
X131985863Y-90559500D01*
X130396132Y-90559500D01*
X130371011Y-90562414D01*
X130268232Y-90607795D01*
X130188795Y-90687232D01*
X130143415Y-90790009D01*
X130140500Y-90815136D01*
X130140500Y-92404867D01*
X110627707Y-92404867D01*
X110618840Y-92398063D01*
X110472762Y-92337556D01*
X110316000Y-92316917D01*
X110159237Y-92337556D01*
X110013159Y-92398063D01*
X109887717Y-92494317D01*
X109791463Y-92619759D01*
X109730956Y-92765837D01*
X109710317Y-92922600D01*
X108504121Y-92922600D01*
X108440762Y-92896356D01*
X108284000Y-92875717D01*
X108127237Y-92896356D01*
X107981159Y-92956863D01*
X107855717Y-93053117D01*
X107759463Y-93178559D01*
X107698956Y-93324637D01*
X107678317Y-93481400D01*
X101809200Y-93481400D01*
X101804044Y-93442238D01*
X101743536Y-93296159D01*
X101743535Y-93296158D01*
X101647282Y-93170717D01*
X101521840Y-93074463D01*
X101375762Y-93013956D01*
X101219000Y-92993317D01*
X101062237Y-93013956D01*
X100916159Y-93074463D01*
X100790717Y-93170717D01*
X100684526Y-93309110D01*
X100682881Y-93307847D01*
X100664529Y-93333106D01*
X100612946Y-93359388D01*
X100555054Y-93359388D01*
X100503471Y-93333106D01*
X100485118Y-93307847D01*
X100483474Y-93309110D01*
X100377282Y-93170717D01*
X100251840Y-93074463D01*
X100105762Y-93013956D01*
X99949000Y-92993317D01*
X99792237Y-93013956D01*
X99646159Y-93074463D01*
X99520717Y-93170717D01*
X99424463Y-93296159D01*
X99363956Y-93442237D01*
X99343317Y-93599000D01*
X99363956Y-93755762D01*
X99424463Y-93901840D01*
X99475239Y-93968014D01*
X99497924Y-94016662D01*
X99497924Y-94070338D01*
X99475239Y-94118986D01*
X99424463Y-94185159D01*
X99363956Y-94331237D01*
X99343317Y-94487999D01*
X99363956Y-94644762D01*
X99424463Y-94790840D01*
X99523964Y-94920514D01*
X99546649Y-94969162D01*
X99546649Y-95022838D01*
X99523964Y-95071486D01*
X99424463Y-95201159D01*
X99363956Y-95347237D01*
X99343317Y-95503999D01*
X65300500Y-95503999D01*
X65300500Y-94361000D01*
X92993317Y-94361000D01*
X93013956Y-94517762D01*
X93074463Y-94663840D01*
X93170717Y-94789282D01*
X93296159Y-94885536D01*
X93442238Y-94946044D01*
X93599000Y-94966682D01*
X93755762Y-94946044D01*
X93901841Y-94885536D01*
X94027282Y-94789282D01*
X94123536Y-94663841D01*
X94184044Y-94517762D01*
X94204682Y-94361000D01*
X94184044Y-94204238D01*
X94123536Y-94058159D01*
X94112288Y-94043500D01*
X94072760Y-93991985D01*
X94050075Y-93943337D01*
X94050075Y-93889660D01*
X94072761Y-93841012D01*
X94123536Y-93774841D01*
X94184044Y-93628762D01*
X94204682Y-93472000D01*
X94184044Y-93315238D01*
X94123536Y-93169159D01*
X94027282Y-93043717D01*
X93901840Y-92947463D01*
X93755762Y-92886956D01*
X93599000Y-92866317D01*
X93442237Y-92886956D01*
X93296159Y-92947463D01*
X93170717Y-93043717D01*
X93074463Y-93169159D01*
X93013956Y-93315237D01*
X92993317Y-93471999D01*
X93013956Y-93628762D01*
X93074463Y-93774840D01*
X93125239Y-93841014D01*
X93147924Y-93889662D01*
X93147924Y-93943338D01*
X93125239Y-93991986D01*
X93074463Y-94058159D01*
X93013956Y-94204237D01*
X92993317Y-94361000D01*
X65300500Y-94361000D01*
X65300500Y-91806500D01*
X85119317Y-91806500D01*
X85139956Y-91963262D01*
X85200463Y-92109340D01*
X85296717Y-92234782D01*
X85417630Y-92327561D01*
X85422159Y-92331036D01*
X85568238Y-92391544D01*
X85725000Y-92412182D01*
X85881762Y-92391544D01*
X86027841Y-92331036D01*
X86153282Y-92234782D01*
X86249536Y-92109341D01*
X86310044Y-91963262D01*
X86330682Y-91806500D01*
X86310044Y-91649738D01*
X86249536Y-91503659D01*
X86173116Y-91404066D01*
X86153282Y-91378217D01*
X86027840Y-91281963D01*
X85881762Y-91221456D01*
X85725000Y-91200817D01*
X85568237Y-91221456D01*
X85422159Y-91281963D01*
X85296717Y-91378217D01*
X85200463Y-91503659D01*
X85139956Y-91649737D01*
X85119317Y-91806500D01*
X65300500Y-91806500D01*
X65300500Y-89712800D01*
X84293317Y-89712800D01*
X84313956Y-89869562D01*
X84374463Y-90015640D01*
X84470717Y-90141082D01*
X84596158Y-90237335D01*
X84596159Y-90237336D01*
X84742238Y-90297844D01*
X84899000Y-90318482D01*
X85055762Y-90297844D01*
X85201841Y-90237336D01*
X85327282Y-90141082D01*
X85423536Y-90015641D01*
X85484044Y-89869562D01*
X85504682Y-89712800D01*
X85484044Y-89556038D01*
X85423536Y-89409959D01*
X85402468Y-89382502D01*
X85327282Y-89284517D01*
X85201840Y-89188263D01*
X85055762Y-89127756D01*
X84899000Y-89107117D01*
X84742237Y-89127756D01*
X84596159Y-89188263D01*
X84470717Y-89284517D01*
X84374463Y-89409959D01*
X84313956Y-89556037D01*
X84293317Y-89712800D01*
X65300500Y-89712800D01*
X65300500Y-88023867D01*
X154532500Y-88023867D01*
X154535414Y-88048988D01*
X154580795Y-88151767D01*
X154660232Y-88231204D01*
X154660233Y-88231204D01*
X154660235Y-88231206D01*
X154763009Y-88276585D01*
X154788135Y-88279500D01*
X157877864Y-88279499D01*
X157877867Y-88279499D01*
X157890427Y-88278042D01*
X157902991Y-88276585D01*
X158005765Y-88231206D01*
X158085206Y-88151765D01*
X158130585Y-88048991D01*
X158133500Y-88023865D01*
X158133499Y-85434136D01*
X158130585Y-85409009D01*
X158085206Y-85306235D01*
X158085204Y-85306233D01*
X158085204Y-85306232D01*
X158005767Y-85226795D01*
X158005765Y-85226794D01*
X157902991Y-85181415D01*
X157877865Y-85178500D01*
X157877863Y-85178500D01*
X154788132Y-85178500D01*
X154763011Y-85181414D01*
X154660232Y-85226795D01*
X154580795Y-85306232D01*
X154535415Y-85409009D01*
X154532500Y-85434136D01*
X154532500Y-88023867D01*
X65300500Y-88023867D01*
X65300500Y-86461599D01*
X85918917Y-86461599D01*
X85939556Y-86618362D01*
X86000063Y-86764440D01*
X86096317Y-86889882D01*
X86138722Y-86922420D01*
X86221759Y-86986136D01*
X86367838Y-87046644D01*
X86524600Y-87067282D01*
X86681362Y-87046644D01*
X86827441Y-86986136D01*
X86880913Y-86945105D01*
X86929561Y-86922420D01*
X86983239Y-86922420D01*
X87031886Y-86945105D01*
X87085359Y-86986136D01*
X87231438Y-87046644D01*
X87388200Y-87067282D01*
X87544962Y-87046644D01*
X87691041Y-86986136D01*
X87816482Y-86889882D01*
X87912736Y-86764441D01*
X87973244Y-86618362D01*
X87993882Y-86461600D01*
X87973244Y-86304838D01*
X87912736Y-86158759D01*
X87816482Y-86033318D01*
X87815437Y-86032516D01*
X87777520Y-85984294D01*
X87767357Y-85923798D01*
X87787436Y-85865833D01*
X87832842Y-85824585D01*
X87833650Y-85824156D01*
X87833659Y-85824154D01*
X87997104Y-85737500D01*
X88138100Y-85617737D01*
X88250054Y-85470464D01*
X88250053Y-85470464D01*
X88250055Y-85470463D01*
X88327731Y-85302569D01*
X88327730Y-85302569D01*
X88327732Y-85302567D01*
X88367500Y-85121897D01*
X88367500Y-85000000D01*
X92194753Y-85000000D01*
X92213722Y-85325669D01*
X92270368Y-85646928D01*
X92270370Y-85646934D01*
X92363931Y-85959451D01*
X92493141Y-86258992D01*
X92493142Y-86258994D01*
X92656250Y-86541507D01*
X92713467Y-86618362D01*
X92851057Y-86803177D01*
X93074923Y-87040462D01*
X93324823Y-87250153D01*
X93597377Y-87429414D01*
X93597383Y-87429417D01*
X93888896Y-87575821D01*
X93888899Y-87575822D01*
X94195446Y-87687396D01*
X94512874Y-87762628D01*
X94836889Y-87800500D01*
X95163107Y-87800500D01*
X95163111Y-87800500D01*
X95487126Y-87762628D01*
X95804554Y-87687396D01*
X96111101Y-87575822D01*
X96402623Y-87429414D01*
X96675177Y-87250153D01*
X96925077Y-87040462D01*
X97148943Y-86803177D01*
X97343749Y-86541508D01*
X97506859Y-86258992D01*
X97636069Y-85959451D01*
X97729630Y-85646934D01*
X97786278Y-85325669D01*
X97805246Y-85000000D01*
X132194753Y-85000000D01*
X132213722Y-85325669D01*
X132270368Y-85646928D01*
X132270370Y-85646934D01*
X132363931Y-85959451D01*
X132493141Y-86258992D01*
X132493142Y-86258994D01*
X132656250Y-86541507D01*
X132713467Y-86618362D01*
X132851057Y-86803177D01*
X133074923Y-87040462D01*
X133324823Y-87250153D01*
X133597377Y-87429414D01*
X133597383Y-87429417D01*
X133888896Y-87575821D01*
X133888899Y-87575822D01*
X134195446Y-87687396D01*
X134512874Y-87762628D01*
X134836889Y-87800500D01*
X135163107Y-87800500D01*
X135163111Y-87800500D01*
X135487126Y-87762628D01*
X135804554Y-87687396D01*
X136111101Y-87575822D01*
X136402623Y-87429414D01*
X136675177Y-87250153D01*
X136925077Y-87040462D01*
X137148943Y-86803177D01*
X137343749Y-86541508D01*
X137506859Y-86258992D01*
X137636069Y-85959451D01*
X137729630Y-85646934D01*
X137786278Y-85325669D01*
X137805246Y-85000000D01*
X137786278Y-84674331D01*
X137736748Y-84393435D01*
X137729631Y-84353071D01*
X137704815Y-84270179D01*
X137636069Y-84040549D01*
X137506859Y-83741008D01*
X137343749Y-83458492D01*
X137148943Y-83196823D01*
X136925077Y-82959538D01*
X136835920Y-82884726D01*
X136675180Y-82749849D01*
X136531055Y-82655057D01*
X136402623Y-82570586D01*
X136402619Y-82570584D01*
X136402616Y-82570582D01*
X136111103Y-82424178D01*
X135804557Y-82312605D01*
X135804556Y-82312604D01*
X135804554Y-82312604D01*
X135630157Y-82271271D01*
X135487127Y-82237372D01*
X135422322Y-82229797D01*
X135163111Y-82199500D01*
X134836889Y-82199500D01*
X134620878Y-82224748D01*
X134512872Y-82237372D01*
X134195442Y-82312605D01*
X133888896Y-82424178D01*
X133597383Y-82570582D01*
X133324819Y-82749849D01*
X133074922Y-82959538D01*
X132851058Y-83196821D01*
X132656250Y-83458492D01*
X132493142Y-83741005D01*
X132493141Y-83741008D01*
X132363931Y-84040549D01*
X132321003Y-84183940D01*
X132270368Y-84353071D01*
X132213722Y-84674330D01*
X132194753Y-85000000D01*
X97805246Y-85000000D01*
X97786278Y-84674331D01*
X97736748Y-84393435D01*
X97729631Y-84353071D01*
X97704815Y-84270179D01*
X97636069Y-84040549D01*
X97506859Y-83741008D01*
X97343749Y-83458492D01*
X97148943Y-83196823D01*
X96925077Y-82959538D01*
X96835920Y-82884726D01*
X96675180Y-82749849D01*
X96531055Y-82655057D01*
X96402623Y-82570586D01*
X96402619Y-82570584D01*
X96402616Y-82570582D01*
X96111103Y-82424178D01*
X95804557Y-82312605D01*
X95804556Y-82312604D01*
X95804554Y-82312604D01*
X95630157Y-82271271D01*
X95487127Y-82237372D01*
X95422322Y-82229797D01*
X95163111Y-82199500D01*
X94836889Y-82199500D01*
X94620878Y-82224748D01*
X94512872Y-82237372D01*
X94195442Y-82312605D01*
X93888896Y-82424178D01*
X93597383Y-82570582D01*
X93324819Y-82749849D01*
X93074922Y-82959538D01*
X92851058Y-83196821D01*
X92656250Y-83458492D01*
X92493142Y-83741005D01*
X92493141Y-83741008D01*
X92363931Y-84040549D01*
X92321003Y-84183940D01*
X92270368Y-84353071D01*
X92213722Y-84674330D01*
X92194753Y-85000000D01*
X88367500Y-85000000D01*
X88367500Y-84583287D01*
X88352514Y-84445490D01*
X88293444Y-84270179D01*
X88198070Y-84111664D01*
X88070849Y-83977359D01*
X87917730Y-83873542D01*
X87917729Y-83873541D01*
X87917727Y-83873540D01*
X87745878Y-83805069D01*
X87647615Y-83788960D01*
X87563317Y-83775140D01*
X87563314Y-83775140D01*
X87378592Y-83785154D01*
X87200341Y-83834645D01*
X87036896Y-83921299D01*
X86895899Y-84041063D01*
X86783944Y-84188336D01*
X86706268Y-84356230D01*
X86666500Y-84536903D01*
X86666500Y-85075515D01*
X86681485Y-85213308D01*
X86706346Y-85287092D01*
X86740556Y-85388621D01*
X86789799Y-85470464D01*
X86835931Y-85547137D01*
X86963152Y-85681442D01*
X87062684Y-85748927D01*
X87101789Y-85791877D01*
X87117044Y-85847923D01*
X87105101Y-85904767D01*
X87068582Y-85949937D01*
X87031885Y-85978095D01*
X86983238Y-86000779D01*
X86929562Y-86000779D01*
X86880914Y-85978094D01*
X86827441Y-85937063D01*
X86681362Y-85876556D01*
X86524600Y-85855917D01*
X86367837Y-85876556D01*
X86221759Y-85937063D01*
X86096317Y-86033317D01*
X86000063Y-86158759D01*
X85939556Y-86304837D01*
X85918917Y-86461599D01*
X65300500Y-86461599D01*
X65300500Y-85075515D01*
X81826500Y-85075515D01*
X81841485Y-85213308D01*
X81866346Y-85287092D01*
X81900556Y-85388621D01*
X81995930Y-85547136D01*
X82123151Y-85681441D01*
X82276270Y-85785258D01*
X82276271Y-85785258D01*
X82276272Y-85785259D01*
X82448121Y-85853730D01*
X82448123Y-85853730D01*
X82448125Y-85853731D01*
X82630683Y-85883660D01*
X82815407Y-85873645D01*
X82993659Y-85824154D01*
X83157104Y-85737500D01*
X83298100Y-85617737D01*
X83410054Y-85470464D01*
X83410053Y-85470464D01*
X83410055Y-85470463D01*
X83487731Y-85302569D01*
X83487730Y-85302569D01*
X83487732Y-85302567D01*
X83527500Y-85121897D01*
X83527500Y-84583287D01*
X83512514Y-84445490D01*
X83453444Y-84270179D01*
X83358070Y-84111664D01*
X83230849Y-83977359D01*
X83077730Y-83873542D01*
X83077729Y-83873541D01*
X83077727Y-83873540D01*
X82905878Y-83805069D01*
X82807615Y-83788960D01*
X82723317Y-83775140D01*
X82723314Y-83775140D01*
X82538592Y-83785154D01*
X82360341Y-83834645D01*
X82196896Y-83921299D01*
X82055899Y-84041063D01*
X81943944Y-84188336D01*
X81866268Y-84356230D01*
X81826500Y-84536903D01*
X81826500Y-85075515D01*
X65300500Y-85075515D01*
X65300500Y-85002706D01*
X65300618Y-84997297D01*
X65301716Y-84972156D01*
X65318147Y-84595795D01*
X65319087Y-84585064D01*
X65371189Y-84189302D01*
X65373063Y-84178672D01*
X65459463Y-83788950D01*
X65462261Y-83778512D01*
X65582291Y-83397823D01*
X65585979Y-83387691D01*
X65738742Y-83018888D01*
X65743300Y-83009114D01*
X65927617Y-82655045D01*
X65933012Y-82645700D01*
X66147495Y-82309029D01*
X66153685Y-82300189D01*
X66342692Y-82053871D01*
X81391500Y-82053871D01*
X81406541Y-82201783D01*
X81465930Y-82391073D01*
X81562217Y-82564548D01*
X81691446Y-82715082D01*
X81848331Y-82836521D01*
X81927686Y-82875446D01*
X82026456Y-82923895D01*
X82218520Y-82973624D01*
X82416663Y-82983672D01*
X82612773Y-82953630D01*
X82798820Y-82884725D01*
X82967189Y-82779780D01*
X83110986Y-82643091D01*
X83224324Y-82480254D01*
X83302563Y-82297935D01*
X83342500Y-82103599D01*
X83342500Y-82053871D01*
X86851500Y-82053871D01*
X86866541Y-82201783D01*
X86925930Y-82391073D01*
X87022217Y-82564548D01*
X87151446Y-82715082D01*
X87308331Y-82836521D01*
X87387686Y-82875446D01*
X87486456Y-82923895D01*
X87678520Y-82973624D01*
X87876663Y-82983672D01*
X88072773Y-82953630D01*
X88258820Y-82884725D01*
X88427189Y-82779780D01*
X88570986Y-82643091D01*
X88684324Y-82480254D01*
X88762563Y-82297935D01*
X88802500Y-82103599D01*
X88802500Y-81604927D01*
X88787459Y-81457021D01*
X88787458Y-81457018D01*
X88787458Y-81457016D01*
X88728069Y-81267726D01*
X88678570Y-81178546D01*
X88631784Y-81094254D01*
X88631783Y-81094252D01*
X88631782Y-81094251D01*
X88502553Y-80943717D01*
X88345668Y-80822278D01*
X88167544Y-80734905D01*
X87975480Y-80685176D01*
X87777336Y-80675128D01*
X87777334Y-80675128D01*
X87581227Y-80705169D01*
X87395182Y-80774073D01*
X87226812Y-80879019D01*
X87083012Y-81015710D01*
X86969676Y-81178545D01*
X86891437Y-81360864D01*
X86851500Y-81555202D01*
X86851500Y-82053871D01*
X83342500Y-82053871D01*
X83342500Y-81604927D01*
X83327459Y-81457021D01*
X83327458Y-81457018D01*
X83327458Y-81457016D01*
X83268069Y-81267726D01*
X83218570Y-81178546D01*
X83171784Y-81094254D01*
X83171783Y-81094252D01*
X83171782Y-81094251D01*
X83042553Y-80943717D01*
X82885668Y-80822278D01*
X82707544Y-80734905D01*
X82515480Y-80685176D01*
X82317336Y-80675128D01*
X82317334Y-80675128D01*
X82121227Y-80705169D01*
X81935182Y-80774073D01*
X81766812Y-80879019D01*
X81623012Y-81015710D01*
X81509676Y-81178545D01*
X81431437Y-81360864D01*
X81391500Y-81555202D01*
X81391500Y-82053871D01*
X66342692Y-82053871D01*
X66396687Y-81983503D01*
X66403625Y-81975234D01*
X66673304Y-81680932D01*
X66680932Y-81673304D01*
X66975234Y-81403625D01*
X66983503Y-81396687D01*
X67300189Y-81153685D01*
X67309029Y-81147495D01*
X67645700Y-80933012D01*
X67655045Y-80927617D01*
X68009114Y-80743300D01*
X68018888Y-80738742D01*
X68387691Y-80585979D01*
X68397823Y-80582291D01*
X68778521Y-80462258D01*
X68788950Y-80459463D01*
X69178672Y-80373063D01*
X69189302Y-80371189D01*
X69585064Y-80319087D01*
X69595795Y-80318147D01*
X69997297Y-80300617D01*
X70002706Y-80300500D01*
X70047595Y-80300500D01*
X159952405Y-80300500D01*
X159997294Y-80300500D01*
X160002702Y-80300617D01*
G37*
%TD.AperFunction*%
%TD*%
M02*
