%TF.GenerationSoftware,KiCad,Pcbnew,7.0.1*%
%TF.CreationDate,2023-10-06T11:12:28+02:00*%
%TF.ProjectId,Controller_board,436f6e74-726f-46c6-9c65-725f626f6172,rev?*%
%TF.SameCoordinates,Original*%
%TF.FileFunction,Copper,L3,Inr*%
%TF.FilePolarity,Positive*%
%FSLAX46Y46*%
G04 Gerber Fmt 4.6, Leading zero omitted, Abs format (unit mm)*
G04 Created by KiCad (PCBNEW 7.0.1) date 2023-10-06 11:12:28*
%MOMM*%
%LPD*%
G01*
G04 APERTURE LIST*
%TA.AperFunction,ComponentPad*%
%ADD10R,2.000000X2.000000*%
%TD*%
%TA.AperFunction,ComponentPad*%
%ADD11C,2.000000*%
%TD*%
%TA.AperFunction,ComponentPad*%
%ADD12R,3.000000X2.500000*%
%TD*%
%TA.AperFunction,ComponentPad*%
%ADD13O,1.350000X1.700000*%
%TD*%
%TA.AperFunction,ComponentPad*%
%ADD14O,1.100000X1.500000*%
%TD*%
%TA.AperFunction,ComponentPad*%
%ADD15C,1.778000*%
%TD*%
%TA.AperFunction,ComponentPad*%
%ADD16C,2.286000*%
%TD*%
%TA.AperFunction,ComponentPad*%
%ADD17R,1.500000X1.500000*%
%TD*%
%TA.AperFunction,ComponentPad*%
%ADD18C,1.500000*%
%TD*%
%TA.AperFunction,ComponentPad*%
%ADD19R,1.350000X1.350000*%
%TD*%
%TA.AperFunction,ComponentPad*%
%ADD20O,1.350000X1.350000*%
%TD*%
%TA.AperFunction,ComponentPad*%
%ADD21R,2.400000X2.400000*%
%TD*%
%TA.AperFunction,ComponentPad*%
%ADD22C,2.400000*%
%TD*%
%TA.AperFunction,ViaPad*%
%ADD23C,0.600000*%
%TD*%
%TA.AperFunction,ViaPad*%
%ADD24C,0.700000*%
%TD*%
%TA.AperFunction,ViaPad*%
%ADD25C,0.500000*%
%TD*%
G04 APERTURE END LIST*
D10*
%TO.N,ENC_A*%
%TO.C,SW2*%
X148833000Y-89829000D03*
D11*
%TO.N,ENC_B*%
X148833000Y-94829000D03*
%TO.N,-BATT*%
X148833000Y-92329000D03*
D12*
%TO.N,N/C*%
X156333000Y-86729000D03*
X156333000Y-97929000D03*
D11*
%TO.N,ENC_BUTTON*%
X163333000Y-89829000D03*
%TO.N,-BATT*%
X163333000Y-94829000D03*
%TD*%
D13*
%TO.N,unconnected-(J1-Shield-Pad6)*%
%TO.C,J1*%
X87827000Y-81829400D03*
D14*
X87517000Y-84829400D03*
X82677000Y-84829400D03*
D13*
X82367000Y-81829400D03*
%TD*%
D15*
%TO.N,JOY2_BUTTON*%
%TO.C,U9*%
X137300000Y-133175000D03*
%TO.N,N/C*%
X137300000Y-126825000D03*
%TO.N,-BATT*%
X142380000Y-133175000D03*
%TO.N,N/C*%
X142380000Y-126825000D03*
%TO.N,+3.3V*%
X160160000Y-132540000D03*
%TO.N,JOY2_ADC_X*%
X160160000Y-130000000D03*
%TO.N,-BATT*%
X160160000Y-127460000D03*
D16*
%TO.N,unconnected-(U9-SHIELD-PadS1)*%
X143332500Y-137620000D03*
%TO.N,unconnected-(U9-SHIELD-PadS2)*%
X156667500Y-137620000D03*
%TO.N,unconnected-(U9-SHIELD-PadS3)*%
X156667500Y-122380000D03*
%TO.N,unconnected-(U9-SHIELD-PadS4)*%
X143332500Y-122380000D03*
D15*
%TO.N,+3.3V*%
X147460000Y-140160000D03*
%TO.N,JOY2_ADC_Y*%
X150000000Y-140160000D03*
%TO.N,-BATT*%
X152540000Y-140160000D03*
%TD*%
D17*
%TO.N,OLED_SDA*%
%TO.C,J2*%
X131191000Y-91610000D03*
D18*
%TO.N,OLED_SCL*%
X133191000Y-91610000D03*
%TO.N,+3.3V*%
X135191000Y-91610000D03*
%TO.N,-BATT*%
X137191000Y-91610000D03*
%TD*%
D19*
%TO.N,+3.3V*%
%TO.C,J3*%
X100854000Y-110300000D03*
D20*
%TO.N,SWDIO*%
X102854000Y-110300000D03*
%TO.N,-BATT*%
X100854000Y-112300000D03*
%TO.N,SWCLK*%
X102854000Y-112300000D03*
%TO.N,-BATT*%
X100854000Y-114300000D03*
%TO.N,SWO*%
X102854000Y-114300000D03*
%TO.N,unconnected-(J3-Pin_7-Pad7)*%
X100854000Y-116300000D03*
%TO.N,unconnected-(J3-Pin_8-Pad8)*%
X102854000Y-116300000D03*
%TO.N,-BATT*%
X100854000Y-118300000D03*
%TO.N,NRST*%
X102854000Y-118300000D03*
%TD*%
D15*
%TO.N,JOY1_BUTTON*%
%TO.C,U8*%
X67300000Y-133175000D03*
%TO.N,N/C*%
X67300000Y-126825000D03*
%TO.N,-BATT*%
X72380000Y-133175000D03*
%TO.N,N/C*%
X72380000Y-126825000D03*
%TO.N,+3.3V*%
X90160000Y-132540000D03*
%TO.N,JOY1_ADC_X*%
X90160000Y-130000000D03*
%TO.N,-BATT*%
X90160000Y-127460000D03*
D16*
%TO.N,unconnected-(U8-SHIELD-PadS1)*%
X73332500Y-137620000D03*
%TO.N,unconnected-(U8-SHIELD-PadS2)*%
X86667500Y-137620000D03*
%TO.N,unconnected-(U8-SHIELD-PadS3)*%
X86667500Y-122380000D03*
%TO.N,unconnected-(U8-SHIELD-PadS4)*%
X73332500Y-122380000D03*
D15*
%TO.N,+3.3V*%
X77460000Y-140160000D03*
%TO.N,JOY1_ADC_Y*%
X80000000Y-140160000D03*
%TO.N,-BATT*%
X82540000Y-140160000D03*
%TD*%
D21*
%TO.N,+BATT*%
%TO.C,BT1*%
X68518000Y-107978000D03*
D22*
%TO.N,-BATT*%
X68518000Y-111478000D03*
%TD*%
D23*
%TO.N,-BATT*%
X107950000Y-119761000D03*
X115062000Y-113030000D03*
X84328000Y-115364500D03*
D24*
X125526800Y-83185000D03*
D23*
X121285000Y-80772000D03*
X83312000Y-93980000D03*
X103124000Y-93599000D03*
X132080000Y-119761000D03*
X94488000Y-109855000D03*
X133477000Y-121285000D03*
X83312000Y-99060000D03*
X112928400Y-92151200D03*
X121285000Y-82677000D03*
X80772000Y-99060000D03*
X73609200Y-105918000D03*
D24*
X104571800Y-87909400D03*
D23*
X108284000Y-92567000D03*
X108458000Y-125282200D03*
X113748200Y-120370600D03*
X108673600Y-118377609D03*
X127635000Y-118618000D03*
X88392000Y-93980000D03*
X136550400Y-101549200D03*
D24*
X104571800Y-85547200D03*
D23*
X111760000Y-117348000D03*
X116941600Y-121704400D03*
D24*
X106934000Y-90297000D03*
D23*
X122656600Y-105359200D03*
X76174600Y-96342200D03*
X76149200Y-83896200D03*
X108712000Y-80772000D03*
X70993000Y-96342200D03*
X112318800Y-86461600D03*
X92456000Y-98171000D03*
X93599000Y-98171000D03*
D24*
X104571800Y-83185000D03*
D23*
X116057649Y-87472360D03*
X108280200Y-97434400D03*
X85852000Y-96520000D03*
X90932000Y-93980000D03*
X119634000Y-100203000D03*
X113157000Y-98552000D03*
X138938000Y-107696000D03*
X80772000Y-96520000D03*
X132680200Y-108077000D03*
X104267000Y-94488000D03*
X117044639Y-87482536D03*
X133477000Y-120015000D03*
X111252000Y-101498400D03*
X118770400Y-121704400D03*
X83312000Y-96520000D03*
X92456000Y-100838000D03*
X124712259Y-117615721D03*
D24*
X125526800Y-80822800D03*
D23*
X124219868Y-101831556D03*
X122174000Y-112979200D03*
X135128000Y-112293400D03*
D24*
X125526800Y-90297000D03*
X104571800Y-80822800D03*
X125526800Y-85547200D03*
D23*
X80772000Y-93980000D03*
X96012000Y-96520000D03*
D24*
X104571800Y-90297000D03*
D23*
X93599000Y-100838000D03*
X85852000Y-93980000D03*
X83312000Y-104140000D03*
X103124000Y-94488000D03*
X71145400Y-83896200D03*
X139192000Y-112776000D03*
D24*
X111658400Y-90297000D03*
X109296200Y-90297000D03*
X123164600Y-90297000D03*
D23*
X125730000Y-118618000D03*
X112293400Y-97002600D03*
X85965800Y-89712800D03*
X136480896Y-103792531D03*
X124650000Y-92215200D03*
X121285000Y-84582000D03*
X83705200Y-86461600D03*
X104267000Y-95504000D03*
X108712000Y-82677000D03*
X107467400Y-115392200D03*
X95504000Y-109855000D03*
X140081000Y-108204000D03*
X134924800Y-103987600D03*
X109702600Y-120306600D03*
X108712000Y-84582000D03*
X82790800Y-86461600D03*
X116433600Y-113030000D03*
X131191000Y-111633000D03*
D24*
X120802400Y-90297000D03*
D23*
X110363000Y-94742000D03*
X121957600Y-97701600D03*
D24*
X120370600Y-96139000D03*
X118440200Y-90297000D03*
X125526800Y-87909400D03*
D23*
X80772000Y-104140000D03*
X104267000Y-93599000D03*
%TO.N,+3.3V*%
X125730000Y-122682000D03*
X110316000Y-92922600D03*
X101219000Y-93599000D03*
X123571000Y-117602000D03*
X124510800Y-111912400D03*
X120040400Y-121704400D03*
X138379200Y-102108000D03*
X108280200Y-96570800D03*
X121513600Y-98856800D03*
X108254800Y-102616000D03*
X99949000Y-93599000D03*
X145796000Y-92786200D03*
X108284000Y-93481400D03*
X99949000Y-95504000D03*
X129667000Y-114554000D03*
X126873000Y-122682000D03*
X101219000Y-94488000D03*
X145796000Y-91922600D03*
X109593159Y-118383631D03*
X128905000Y-102920800D03*
X122660372Y-101823798D03*
X99949000Y-94488000D03*
X132842000Y-97790000D03*
X130708400Y-106273600D03*
X103428800Y-125282200D03*
X108407200Y-115392200D03*
%TO.N,V_USB*%
X93599000Y-93472000D03*
X93599000Y-94361000D03*
X86524600Y-86461600D03*
X84899000Y-89712800D03*
X85725000Y-91806500D03*
X87388200Y-86461600D03*
D25*
%TO.N,+BATT*%
X80975200Y-102489000D03*
D23*
X72989255Y-105003451D03*
D25*
X81788000Y-102489000D03*
D23*
X77597000Y-110157500D03*
X78486000Y-110157500D03*
%TO.N,BATTERY_ADC*%
X110744000Y-108966000D03*
X89027000Y-107329500D03*
%TO.N,BOOT0*%
X105918000Y-117856000D03*
X105918000Y-115824000D03*
%TO.N,ENC_A*%
X139192000Y-110490000D03*
X132588000Y-110490000D03*
%TO.N,ENC_B*%
X139192000Y-109397800D03*
X132588000Y-109397800D03*
%TO.N,BUTTON_UP*%
X107696000Y-106426000D03*
X93726000Y-106426000D03*
%TO.N,ENC_BUTTON*%
X132562600Y-111607600D03*
X139192000Y-111607600D03*
%TO.N,MPU-6050_IRQ*%
X122216500Y-108077000D03*
X112395000Y-113425500D03*
%TO.N,JOY1_ADC_X*%
X116156266Y-116507734D03*
X113792000Y-117602000D03*
%TO.N,JOY2_ADC_Y*%
X118770400Y-117906800D03*
X118770400Y-116281200D03*
D25*
%TO.N,NRF_SCK*%
X114935000Y-98729800D03*
X117195600Y-99415600D03*
%TO.N,NRF_MISO*%
X116840000Y-100203000D03*
%TO.N,NRF_MOSI*%
X115510000Y-99812800D03*
D23*
%TO.N,I2C_SCL*%
X133604000Y-114554000D03*
X133604000Y-117475000D03*
%TO.N,Power_Btn*%
X89052400Y-108204000D03*
X106465900Y-108204000D03*
%TO.N,EN*%
X88392000Y-99187000D03*
X74676000Y-107315000D03*
%TO.N,KEEP_ALIVE*%
X86106000Y-109234500D03*
X107950000Y-109474000D03*
%TD*%
%TA.AperFunction,Conductor*%
%TO.N,V_USB*%
G36*
X95527848Y-80314511D02*
G01*
X95572166Y-80353377D01*
X95593530Y-80408316D01*
X95604539Y-80491942D01*
X95605600Y-80508126D01*
X95605600Y-82111882D01*
X95586502Y-82177999D01*
X95535092Y-82223751D01*
X95467205Y-82235043D01*
X95163111Y-82199500D01*
X94836889Y-82199500D01*
X94629409Y-82223751D01*
X94512872Y-82237372D01*
X94195442Y-82312605D01*
X93888896Y-82424178D01*
X93597383Y-82570582D01*
X93324819Y-82749849D01*
X93074922Y-82959538D01*
X92851058Y-83196821D01*
X92656250Y-83458492D01*
X92493142Y-83741005D01*
X92493141Y-83741008D01*
X92363931Y-84040549D01*
X92321003Y-84183940D01*
X92270368Y-84353071D01*
X92213722Y-84674330D01*
X92194753Y-85000000D01*
X92213722Y-85325669D01*
X92270368Y-85646928D01*
X92270370Y-85646934D01*
X92363931Y-85959451D01*
X92493141Y-86258992D01*
X92493142Y-86258994D01*
X92656250Y-86541507D01*
X92704614Y-86606471D01*
X92851057Y-86803177D01*
X93074923Y-87040462D01*
X93106886Y-87067282D01*
X93222620Y-87164395D01*
X93324823Y-87250153D01*
X93597377Y-87429414D01*
X93597383Y-87429417D01*
X93888896Y-87575821D01*
X93888899Y-87575822D01*
X94195446Y-87687396D01*
X94512874Y-87762628D01*
X94836889Y-87800500D01*
X95163107Y-87800500D01*
X95163111Y-87800500D01*
X95467205Y-87764956D01*
X95535092Y-87776249D01*
X95586502Y-87822001D01*
X95605600Y-87888118D01*
X95605600Y-95351474D01*
X95604539Y-95367660D01*
X95590693Y-95472824D01*
X95582315Y-95504091D01*
X95544859Y-95594518D01*
X95528674Y-95622551D01*
X95469091Y-95700201D01*
X95446201Y-95723091D01*
X95368551Y-95782674D01*
X95340518Y-95798859D01*
X95250091Y-95836315D01*
X95218824Y-95844693D01*
X95124998Y-95857046D01*
X95113658Y-95858539D01*
X95097474Y-95859600D01*
X76574185Y-95859600D01*
X76534326Y-95853019D01*
X76498698Y-95833975D01*
X76477440Y-95817663D01*
X76331362Y-95757156D01*
X76174600Y-95736517D01*
X76017837Y-95757156D01*
X75871759Y-95817663D01*
X75850502Y-95833975D01*
X75814874Y-95853019D01*
X75775015Y-95859600D01*
X71392585Y-95859600D01*
X71352726Y-95853019D01*
X71317098Y-95833975D01*
X71295840Y-95817663D01*
X71149762Y-95757156D01*
X70993000Y-95736517D01*
X70836237Y-95757156D01*
X70690159Y-95817663D01*
X70668902Y-95833975D01*
X70633274Y-95853019D01*
X70593415Y-95859600D01*
X65508126Y-95859600D01*
X65491942Y-95858539D01*
X65464919Y-95854981D01*
X65408314Y-95847529D01*
X65353377Y-95826166D01*
X65314511Y-95781848D01*
X65300500Y-95724591D01*
X65300500Y-93979999D01*
X80166317Y-93979999D01*
X80186956Y-94136762D01*
X80247463Y-94282840D01*
X80343717Y-94408282D01*
X80466010Y-94502120D01*
X80469159Y-94504536D01*
X80615238Y-94565044D01*
X80772000Y-94585682D01*
X80928762Y-94565044D01*
X81074841Y-94504536D01*
X81200282Y-94408282D01*
X81296536Y-94282841D01*
X81357044Y-94136762D01*
X81377682Y-93980000D01*
X81377682Y-93979999D01*
X82706317Y-93979999D01*
X82726956Y-94136762D01*
X82787463Y-94282840D01*
X82883717Y-94408282D01*
X83006010Y-94502120D01*
X83009159Y-94504536D01*
X83155238Y-94565044D01*
X83312000Y-94585682D01*
X83468762Y-94565044D01*
X83614841Y-94504536D01*
X83740282Y-94408282D01*
X83836536Y-94282841D01*
X83897044Y-94136762D01*
X83917682Y-93980000D01*
X83917682Y-93979999D01*
X85246317Y-93979999D01*
X85266956Y-94136762D01*
X85327463Y-94282840D01*
X85423717Y-94408282D01*
X85546010Y-94502120D01*
X85549159Y-94504536D01*
X85695238Y-94565044D01*
X85852000Y-94585682D01*
X86008762Y-94565044D01*
X86154841Y-94504536D01*
X86280282Y-94408282D01*
X86376536Y-94282841D01*
X86437044Y-94136762D01*
X86457682Y-93980000D01*
X86457682Y-93979999D01*
X87786317Y-93979999D01*
X87806956Y-94136762D01*
X87867463Y-94282840D01*
X87963717Y-94408282D01*
X88086010Y-94502120D01*
X88089159Y-94504536D01*
X88235238Y-94565044D01*
X88392000Y-94585682D01*
X88548762Y-94565044D01*
X88694841Y-94504536D01*
X88820282Y-94408282D01*
X88916536Y-94282841D01*
X88977044Y-94136762D01*
X88997682Y-93980000D01*
X88997682Y-93979999D01*
X90326317Y-93979999D01*
X90346956Y-94136762D01*
X90407463Y-94282840D01*
X90503717Y-94408282D01*
X90626010Y-94502120D01*
X90629159Y-94504536D01*
X90775238Y-94565044D01*
X90932000Y-94585682D01*
X91088762Y-94565044D01*
X91234841Y-94504536D01*
X91360282Y-94408282D01*
X91456536Y-94282841D01*
X91517044Y-94136762D01*
X91537682Y-93980000D01*
X91517044Y-93823238D01*
X91456536Y-93677159D01*
X91384416Y-93583170D01*
X91360282Y-93551717D01*
X91234840Y-93455463D01*
X91088762Y-93394956D01*
X90932000Y-93374317D01*
X90775237Y-93394956D01*
X90629159Y-93455463D01*
X90503717Y-93551717D01*
X90407463Y-93677159D01*
X90346956Y-93823237D01*
X90326317Y-93979999D01*
X88997682Y-93979999D01*
X88977044Y-93823238D01*
X88916536Y-93677159D01*
X88844416Y-93583170D01*
X88820282Y-93551717D01*
X88694840Y-93455463D01*
X88548762Y-93394956D01*
X88392000Y-93374317D01*
X88235237Y-93394956D01*
X88089159Y-93455463D01*
X87963717Y-93551717D01*
X87867463Y-93677159D01*
X87806956Y-93823237D01*
X87786317Y-93979999D01*
X86457682Y-93979999D01*
X86437044Y-93823238D01*
X86376536Y-93677159D01*
X86304416Y-93583170D01*
X86280282Y-93551717D01*
X86154840Y-93455463D01*
X86008762Y-93394956D01*
X85852000Y-93374317D01*
X85695237Y-93394956D01*
X85549159Y-93455463D01*
X85423717Y-93551717D01*
X85327463Y-93677159D01*
X85266956Y-93823237D01*
X85246317Y-93979999D01*
X83917682Y-93979999D01*
X83897044Y-93823238D01*
X83836536Y-93677159D01*
X83764416Y-93583170D01*
X83740282Y-93551717D01*
X83614840Y-93455463D01*
X83468762Y-93394956D01*
X83312000Y-93374317D01*
X83155237Y-93394956D01*
X83009159Y-93455463D01*
X82883717Y-93551717D01*
X82787463Y-93677159D01*
X82726956Y-93823237D01*
X82706317Y-93979999D01*
X81377682Y-93979999D01*
X81357044Y-93823238D01*
X81296536Y-93677159D01*
X81224416Y-93583170D01*
X81200282Y-93551717D01*
X81074840Y-93455463D01*
X80928762Y-93394956D01*
X80772000Y-93374317D01*
X80615237Y-93394956D01*
X80469159Y-93455463D01*
X80343717Y-93551717D01*
X80247463Y-93677159D01*
X80186956Y-93823237D01*
X80166317Y-93979999D01*
X65300500Y-93979999D01*
X65300500Y-89712800D01*
X85360117Y-89712800D01*
X85380756Y-89869562D01*
X85441263Y-90015640D01*
X85537517Y-90141082D01*
X85619538Y-90204018D01*
X85662959Y-90237336D01*
X85809038Y-90297844D01*
X85965800Y-90318482D01*
X86122562Y-90297844D01*
X86268641Y-90237336D01*
X86394082Y-90141082D01*
X86490336Y-90015641D01*
X86550844Y-89869562D01*
X86571482Y-89712800D01*
X86550844Y-89556038D01*
X86490336Y-89409959D01*
X86468559Y-89381578D01*
X86394082Y-89284517D01*
X86268640Y-89188263D01*
X86122562Y-89127756D01*
X85965800Y-89107117D01*
X85809037Y-89127756D01*
X85662959Y-89188263D01*
X85537517Y-89284517D01*
X85441263Y-89409959D01*
X85380756Y-89556037D01*
X85360117Y-89712800D01*
X65300500Y-89712800D01*
X65300500Y-85075515D01*
X81826500Y-85075515D01*
X81841485Y-85213308D01*
X81841486Y-85213310D01*
X81900556Y-85388621D01*
X81995930Y-85547136D01*
X82123151Y-85681441D01*
X82222087Y-85748521D01*
X82276273Y-85785260D01*
X82343148Y-85811905D01*
X82394855Y-85850615D01*
X82420078Y-85910078D01*
X82411975Y-85974159D01*
X82372742Y-86025471D01*
X82362519Y-86033315D01*
X82266263Y-86158759D01*
X82205756Y-86304837D01*
X82185117Y-86461599D01*
X82205756Y-86618362D01*
X82266263Y-86764440D01*
X82362517Y-86889882D01*
X82409086Y-86925615D01*
X82487959Y-86986136D01*
X82634038Y-87046644D01*
X82790800Y-87067282D01*
X82947562Y-87046644D01*
X83093641Y-86986136D01*
X83172513Y-86925615D01*
X83221161Y-86902930D01*
X83274839Y-86902930D01*
X83323486Y-86925615D01*
X83402359Y-86986136D01*
X83548438Y-87046644D01*
X83705200Y-87067282D01*
X83861962Y-87046644D01*
X84008041Y-86986136D01*
X84133482Y-86889882D01*
X84229736Y-86764441D01*
X84290244Y-86618362D01*
X84310882Y-86461600D01*
X84290244Y-86304838D01*
X84229736Y-86158759D01*
X84184457Y-86099750D01*
X84133482Y-86033317D01*
X84008040Y-85937063D01*
X83861962Y-85876556D01*
X83705200Y-85855917D01*
X83548437Y-85876556D01*
X83402359Y-85937063D01*
X83323485Y-85997585D01*
X83274837Y-86020270D01*
X83221159Y-86020269D01*
X83172514Y-85997585D01*
X83118907Y-85956451D01*
X83080991Y-85908230D01*
X83070828Y-85847733D01*
X83090908Y-85789768D01*
X83136313Y-85748522D01*
X83157104Y-85737500D01*
X83298100Y-85617737D01*
X83410054Y-85470464D01*
X83410053Y-85470464D01*
X83410055Y-85470463D01*
X83487731Y-85302569D01*
X83487730Y-85302569D01*
X83487732Y-85302567D01*
X83527500Y-85121897D01*
X83527500Y-85075515D01*
X86666500Y-85075515D01*
X86681485Y-85213308D01*
X86681486Y-85213310D01*
X86740556Y-85388621D01*
X86835930Y-85547136D01*
X86963151Y-85681441D01*
X87116270Y-85785258D01*
X87116271Y-85785258D01*
X87116272Y-85785259D01*
X87288121Y-85853730D01*
X87288123Y-85853730D01*
X87288125Y-85853731D01*
X87470683Y-85883660D01*
X87655407Y-85873645D01*
X87833659Y-85824154D01*
X87997104Y-85737500D01*
X88138100Y-85617737D01*
X88250054Y-85470464D01*
X88250053Y-85470464D01*
X88250055Y-85470463D01*
X88327731Y-85302569D01*
X88327730Y-85302569D01*
X88327732Y-85302567D01*
X88367500Y-85121897D01*
X88367500Y-84583287D01*
X88365966Y-84569186D01*
X88352514Y-84445491D01*
X88322438Y-84356230D01*
X88293444Y-84270179D01*
X88198070Y-84111664D01*
X88070849Y-83977359D01*
X87917730Y-83873542D01*
X87917729Y-83873541D01*
X87917727Y-83873540D01*
X87745878Y-83805069D01*
X87647615Y-83788960D01*
X87563317Y-83775140D01*
X87563314Y-83775140D01*
X87378592Y-83785154D01*
X87200341Y-83834645D01*
X87036896Y-83921299D01*
X86895899Y-84041063D01*
X86783944Y-84188336D01*
X86706268Y-84356230D01*
X86666500Y-84536903D01*
X86666500Y-85075515D01*
X83527500Y-85075515D01*
X83527500Y-84583287D01*
X83525966Y-84569186D01*
X83512514Y-84445491D01*
X83482438Y-84356230D01*
X83453444Y-84270179D01*
X83358070Y-84111664D01*
X83230849Y-83977359D01*
X83077730Y-83873542D01*
X83077729Y-83873541D01*
X83077727Y-83873540D01*
X82905878Y-83805069D01*
X82807615Y-83788960D01*
X82723317Y-83775140D01*
X82723314Y-83775140D01*
X82538592Y-83785154D01*
X82360341Y-83834645D01*
X82196896Y-83921299D01*
X82055899Y-84041063D01*
X81943944Y-84188336D01*
X81866268Y-84356230D01*
X81826500Y-84536903D01*
X81826500Y-85075515D01*
X65300500Y-85075515D01*
X65300500Y-85002705D01*
X65300618Y-84997296D01*
X65301200Y-84983971D01*
X65318147Y-84595795D01*
X65319087Y-84585064D01*
X65371189Y-84189302D01*
X65373063Y-84178672D01*
X65435686Y-83896199D01*
X70539717Y-83896199D01*
X70560356Y-84052962D01*
X70620863Y-84199040D01*
X70717117Y-84324482D01*
X70842559Y-84420736D01*
X70988638Y-84481244D01*
X71145400Y-84501882D01*
X71302162Y-84481244D01*
X71448241Y-84420736D01*
X71573682Y-84324482D01*
X71669936Y-84199041D01*
X71730444Y-84052962D01*
X71751082Y-83896200D01*
X71751082Y-83896199D01*
X75543517Y-83896199D01*
X75564156Y-84052962D01*
X75624663Y-84199040D01*
X75720917Y-84324482D01*
X75846359Y-84420736D01*
X75992438Y-84481244D01*
X76149200Y-84501882D01*
X76305962Y-84481244D01*
X76452041Y-84420736D01*
X76577482Y-84324482D01*
X76673736Y-84199041D01*
X76734244Y-84052962D01*
X76754882Y-83896200D01*
X76734244Y-83739438D01*
X76673736Y-83593359D01*
X76577482Y-83467917D01*
X76452040Y-83371663D01*
X76305962Y-83311156D01*
X76149200Y-83290517D01*
X75992437Y-83311156D01*
X75846359Y-83371663D01*
X75720917Y-83467917D01*
X75624663Y-83593359D01*
X75564156Y-83739437D01*
X75543517Y-83896199D01*
X71751082Y-83896199D01*
X71730444Y-83739438D01*
X71669936Y-83593359D01*
X71573682Y-83467917D01*
X71448240Y-83371663D01*
X71302162Y-83311156D01*
X71145400Y-83290517D01*
X70988637Y-83311156D01*
X70842559Y-83371663D01*
X70717117Y-83467917D01*
X70620863Y-83593359D01*
X70560356Y-83739437D01*
X70539717Y-83896199D01*
X65435686Y-83896199D01*
X65459463Y-83788950D01*
X65462261Y-83778512D01*
X65582291Y-83397823D01*
X65585979Y-83387691D01*
X65738742Y-83018888D01*
X65743300Y-83009114D01*
X65927617Y-82655045D01*
X65933012Y-82645700D01*
X66147495Y-82309029D01*
X66153685Y-82300189D01*
X66342692Y-82053871D01*
X81391500Y-82053871D01*
X81406541Y-82201783D01*
X81465930Y-82391073D01*
X81562217Y-82564548D01*
X81691446Y-82715082D01*
X81848331Y-82836521D01*
X81927686Y-82875446D01*
X82026456Y-82923895D01*
X82218520Y-82973624D01*
X82416663Y-82983672D01*
X82612773Y-82953630D01*
X82798820Y-82884725D01*
X82967189Y-82779780D01*
X83110986Y-82643091D01*
X83224324Y-82480254D01*
X83302563Y-82297935D01*
X83342500Y-82103599D01*
X83342500Y-82053871D01*
X86851500Y-82053871D01*
X86866541Y-82201783D01*
X86925930Y-82391073D01*
X87022217Y-82564548D01*
X87151446Y-82715082D01*
X87308331Y-82836521D01*
X87387686Y-82875446D01*
X87486456Y-82923895D01*
X87678520Y-82973624D01*
X87876663Y-82983672D01*
X88072773Y-82953630D01*
X88258820Y-82884725D01*
X88427189Y-82779780D01*
X88570986Y-82643091D01*
X88684324Y-82480254D01*
X88762563Y-82297935D01*
X88802500Y-82103599D01*
X88802500Y-81604927D01*
X88787459Y-81457021D01*
X88787458Y-81457018D01*
X88787458Y-81457016D01*
X88728069Y-81267726D01*
X88678570Y-81178546D01*
X88631784Y-81094254D01*
X88631783Y-81094252D01*
X88631782Y-81094251D01*
X88502553Y-80943717D01*
X88345668Y-80822278D01*
X88167544Y-80734905D01*
X87975480Y-80685176D01*
X87777336Y-80675128D01*
X87777334Y-80675128D01*
X87581227Y-80705169D01*
X87395182Y-80774073D01*
X87226812Y-80879019D01*
X87083012Y-81015710D01*
X86969676Y-81178545D01*
X86891437Y-81360864D01*
X86851500Y-81555202D01*
X86851500Y-82053871D01*
X83342500Y-82053871D01*
X83342500Y-81604927D01*
X83327459Y-81457021D01*
X83327458Y-81457018D01*
X83327458Y-81457016D01*
X83268069Y-81267726D01*
X83218570Y-81178546D01*
X83171784Y-81094254D01*
X83171783Y-81094252D01*
X83171782Y-81094251D01*
X83042553Y-80943717D01*
X82885668Y-80822278D01*
X82707544Y-80734905D01*
X82515480Y-80685176D01*
X82317336Y-80675128D01*
X82317334Y-80675128D01*
X82121227Y-80705169D01*
X81935182Y-80774073D01*
X81766812Y-80879019D01*
X81623012Y-81015710D01*
X81509676Y-81178545D01*
X81431437Y-81360864D01*
X81391500Y-81555202D01*
X81391500Y-82053871D01*
X66342692Y-82053871D01*
X66396687Y-81983503D01*
X66403625Y-81975234D01*
X66673304Y-81680932D01*
X66680932Y-81673304D01*
X66975234Y-81403625D01*
X66983503Y-81396687D01*
X67300189Y-81153685D01*
X67309029Y-81147495D01*
X67645700Y-80933012D01*
X67655045Y-80927617D01*
X68009114Y-80743300D01*
X68018888Y-80738742D01*
X68387691Y-80585979D01*
X68397823Y-80582291D01*
X68778521Y-80462258D01*
X68788950Y-80459463D01*
X69178672Y-80373063D01*
X69189302Y-80371189D01*
X69585064Y-80319087D01*
X69595795Y-80318147D01*
X69997297Y-80300617D01*
X70002706Y-80300500D01*
X70047595Y-80300500D01*
X95470591Y-80300500D01*
X95527848Y-80314511D01*
G37*
%TD.AperFunction*%
%TD*%
%TA.AperFunction,Conductor*%
%TO.N,+3.3V*%
G36*
X103808248Y-80314511D02*
G01*
X103852566Y-80353377D01*
X103873930Y-80408316D01*
X103884939Y-80491942D01*
X103886000Y-80508126D01*
X103886000Y-91186000D01*
X104385999Y-91186000D01*
X125857002Y-91186000D01*
X126238000Y-91186000D01*
X126238000Y-90424000D01*
X126238000Y-90170000D01*
X126238000Y-88023867D01*
X154532500Y-88023867D01*
X154535414Y-88048988D01*
X154535414Y-88048990D01*
X154535415Y-88048991D01*
X154580794Y-88151765D01*
X154580795Y-88151767D01*
X154660232Y-88231204D01*
X154660233Y-88231204D01*
X154660235Y-88231206D01*
X154763009Y-88276585D01*
X154788135Y-88279500D01*
X157877864Y-88279499D01*
X157877867Y-88279499D01*
X157890427Y-88278042D01*
X157902991Y-88276585D01*
X158005765Y-88231206D01*
X158085206Y-88151765D01*
X158130585Y-88048991D01*
X158133500Y-88023865D01*
X158133499Y-85434136D01*
X158130585Y-85409009D01*
X158085206Y-85306235D01*
X158085204Y-85306233D01*
X158085204Y-85306232D01*
X158005767Y-85226795D01*
X158005765Y-85226794D01*
X157902991Y-85181415D01*
X157877865Y-85178500D01*
X157877863Y-85178500D01*
X154788132Y-85178500D01*
X154763011Y-85181414D01*
X154660232Y-85226795D01*
X154580795Y-85306232D01*
X154535415Y-85409009D01*
X154532500Y-85434136D01*
X154532500Y-88023867D01*
X126238000Y-88023867D01*
X126238000Y-85000000D01*
X132194753Y-85000000D01*
X132213722Y-85325669D01*
X132270368Y-85646928D01*
X132270370Y-85646934D01*
X132363931Y-85959451D01*
X132450395Y-86159896D01*
X132493142Y-86258994D01*
X132656250Y-86541507D01*
X132713467Y-86618362D01*
X132851057Y-86803177D01*
X133074923Y-87040462D01*
X133324823Y-87250153D01*
X133597377Y-87429414D01*
X133597383Y-87429417D01*
X133888896Y-87575821D01*
X133888899Y-87575822D01*
X134195446Y-87687396D01*
X134512874Y-87762628D01*
X134836889Y-87800500D01*
X135163107Y-87800500D01*
X135163111Y-87800500D01*
X135487126Y-87762628D01*
X135804554Y-87687396D01*
X136111101Y-87575822D01*
X136402623Y-87429414D01*
X136675177Y-87250153D01*
X136925077Y-87040462D01*
X137148943Y-86803177D01*
X137343749Y-86541508D01*
X137506859Y-86258992D01*
X137636069Y-85959451D01*
X137729630Y-85646934D01*
X137786278Y-85325669D01*
X137805246Y-85000000D01*
X137786278Y-84674331D01*
X137736748Y-84393435D01*
X137729631Y-84353071D01*
X137726858Y-84343807D01*
X137636069Y-84040549D01*
X137506859Y-83741008D01*
X137343749Y-83458492D01*
X137148943Y-83196823D01*
X136925077Y-82959538D01*
X136882599Y-82923895D01*
X136675180Y-82749849D01*
X136531055Y-82655057D01*
X136402623Y-82570586D01*
X136402619Y-82570584D01*
X136402616Y-82570582D01*
X136111103Y-82424178D01*
X135804557Y-82312605D01*
X135804556Y-82312604D01*
X135804554Y-82312604D01*
X135630157Y-82271271D01*
X135487127Y-82237372D01*
X135422322Y-82229797D01*
X135163111Y-82199500D01*
X134836889Y-82199500D01*
X134620878Y-82224748D01*
X134512872Y-82237372D01*
X134195442Y-82312605D01*
X133888896Y-82424178D01*
X133597383Y-82570582D01*
X133324819Y-82749849D01*
X133074922Y-82959538D01*
X132851058Y-83196821D01*
X132656250Y-83458492D01*
X132493142Y-83741005D01*
X132493141Y-83741008D01*
X132363931Y-84040549D01*
X132321003Y-84183940D01*
X132270368Y-84353071D01*
X132213722Y-84674330D01*
X132194753Y-85000000D01*
X126238000Y-85000000D01*
X126238000Y-80508126D01*
X126239061Y-80491942D01*
X126250070Y-80408316D01*
X126271434Y-80353377D01*
X126315752Y-80314511D01*
X126373009Y-80300500D01*
X159952405Y-80300500D01*
X159997294Y-80300500D01*
X160002702Y-80300617D01*
X160404202Y-80318147D01*
X160414937Y-80319087D01*
X160810693Y-80371189D01*
X160821331Y-80373064D01*
X161211043Y-80459462D01*
X161221483Y-80462260D01*
X161602168Y-80582289D01*
X161612315Y-80585982D01*
X161981102Y-80738739D01*
X161990893Y-80743305D01*
X162344942Y-80927611D01*
X162354310Y-80933019D01*
X162690959Y-81147488D01*
X162699820Y-81153693D01*
X163016487Y-81396680D01*
X163024774Y-81403634D01*
X163319056Y-81673294D01*
X163326705Y-81680943D01*
X163596365Y-81975225D01*
X163603319Y-81983512D01*
X163846306Y-82300179D01*
X163852511Y-82309040D01*
X164066980Y-82645689D01*
X164072388Y-82655057D01*
X164256691Y-83009099D01*
X164261263Y-83018903D01*
X164414013Y-83387674D01*
X164417713Y-83397840D01*
X164537738Y-83778512D01*
X164540538Y-83788960D01*
X164626933Y-84178660D01*
X164628811Y-84189314D01*
X164680910Y-84585042D01*
X164681853Y-84595818D01*
X164699382Y-84997297D01*
X164699500Y-85002706D01*
X164699500Y-89122896D01*
X164681789Y-89186760D01*
X164633715Y-89232381D01*
X164569012Y-89246726D01*
X164506162Y-89225698D01*
X164470879Y-89184389D01*
X164469790Y-89185152D01*
X164333046Y-88989859D01*
X164172140Y-88828953D01*
X163985735Y-88698432D01*
X163779497Y-88602261D01*
X163559689Y-88543364D01*
X163332999Y-88523531D01*
X163106310Y-88543364D01*
X162886502Y-88602261D01*
X162680264Y-88698432D01*
X162493859Y-88828953D01*
X162332953Y-88989859D01*
X162202432Y-89176264D01*
X162106261Y-89382502D01*
X162047364Y-89602310D01*
X162027531Y-89829000D01*
X162047364Y-90055689D01*
X162106261Y-90275497D01*
X162202432Y-90481735D01*
X162332953Y-90668140D01*
X162493859Y-90829046D01*
X162680264Y-90959567D01*
X162680265Y-90959567D01*
X162680266Y-90959568D01*
X162886504Y-91055739D01*
X163106308Y-91114635D01*
X163333000Y-91134468D01*
X163559692Y-91114635D01*
X163779496Y-91055739D01*
X163985734Y-90959568D01*
X164172139Y-90829047D01*
X164333047Y-90668139D01*
X164463568Y-90481734D01*
X164463568Y-90481733D01*
X164469790Y-90472848D01*
X164470879Y-90473610D01*
X164506162Y-90432302D01*
X164569012Y-90411274D01*
X164633715Y-90425619D01*
X164681789Y-90471240D01*
X164699500Y-90535104D01*
X164699500Y-94122896D01*
X164681789Y-94186760D01*
X164633715Y-94232381D01*
X164569012Y-94246726D01*
X164506162Y-94225698D01*
X164470879Y-94184389D01*
X164469790Y-94185152D01*
X164333046Y-93989859D01*
X164172140Y-93828953D01*
X163985735Y-93698432D01*
X163779497Y-93602261D01*
X163559689Y-93543364D01*
X163332999Y-93523531D01*
X163106310Y-93543364D01*
X162886502Y-93602261D01*
X162680264Y-93698432D01*
X162493859Y-93828953D01*
X162332953Y-93989859D01*
X162202432Y-94176264D01*
X162106261Y-94382502D01*
X162047364Y-94602310D01*
X162027531Y-94829000D01*
X162047364Y-95055689D01*
X162106261Y-95275497D01*
X162202432Y-95481735D01*
X162332953Y-95668140D01*
X162493859Y-95829046D01*
X162680264Y-95959567D01*
X162680265Y-95959567D01*
X162680266Y-95959568D01*
X162886504Y-96055739D01*
X163106308Y-96114635D01*
X163333000Y-96134468D01*
X163559692Y-96114635D01*
X163779496Y-96055739D01*
X163985734Y-95959568D01*
X164172139Y-95829047D01*
X164333047Y-95668139D01*
X164463568Y-95481734D01*
X164463568Y-95481733D01*
X164469790Y-95472848D01*
X164470879Y-95473610D01*
X164506162Y-95432302D01*
X164569012Y-95411274D01*
X164633715Y-95425619D01*
X164681789Y-95471240D01*
X164699500Y-95535104D01*
X164699500Y-139997294D01*
X164699382Y-140002703D01*
X164681853Y-140404181D01*
X164680910Y-140414957D01*
X164628811Y-140810685D01*
X164626933Y-140821339D01*
X164540538Y-141211039D01*
X164537738Y-141221487D01*
X164417713Y-141602159D01*
X164414013Y-141612325D01*
X164261263Y-141981096D01*
X164256691Y-141990900D01*
X164072388Y-142344942D01*
X164066980Y-142354310D01*
X163852511Y-142690959D01*
X163846306Y-142699820D01*
X163603319Y-143016487D01*
X163596365Y-143024774D01*
X163326705Y-143319056D01*
X163319056Y-143326705D01*
X163024774Y-143596365D01*
X163016487Y-143603319D01*
X162699820Y-143846306D01*
X162690959Y-143852511D01*
X162354310Y-144066980D01*
X162344942Y-144072388D01*
X161990900Y-144256691D01*
X161981096Y-144261263D01*
X161612325Y-144414013D01*
X161602159Y-144417713D01*
X161221487Y-144537738D01*
X161211039Y-144540538D01*
X160821339Y-144626933D01*
X160810685Y-144628811D01*
X160414957Y-144680910D01*
X160404181Y-144681853D01*
X160002703Y-144699382D01*
X159997294Y-144699500D01*
X70002706Y-144699500D01*
X69997297Y-144699382D01*
X69595818Y-144681853D01*
X69585042Y-144680910D01*
X69189314Y-144628811D01*
X69178660Y-144626933D01*
X68788960Y-144540538D01*
X68778512Y-144537738D01*
X68397840Y-144417713D01*
X68387674Y-144414013D01*
X68018903Y-144261263D01*
X68009099Y-144256691D01*
X67655057Y-144072388D01*
X67645689Y-144066980D01*
X67309040Y-143852511D01*
X67300179Y-143846306D01*
X66983512Y-143603319D01*
X66975225Y-143596365D01*
X66680943Y-143326705D01*
X66673294Y-143319056D01*
X66403634Y-143024774D01*
X66396680Y-143016487D01*
X66153693Y-142699820D01*
X66147488Y-142690959D01*
X65933019Y-142354310D01*
X65927611Y-142344942D01*
X65812884Y-142124554D01*
X65743305Y-141990893D01*
X65738736Y-141981096D01*
X65585982Y-141612315D01*
X65582286Y-141602159D01*
X65567505Y-141555281D01*
X65488439Y-141304512D01*
X76669038Y-141304512D01*
X76697685Y-141326808D01*
X76900137Y-141436369D01*
X77117848Y-141511110D01*
X77344905Y-141549000D01*
X77575095Y-141549000D01*
X77802151Y-141511110D01*
X78019862Y-141436369D01*
X78222315Y-141326807D01*
X78250959Y-141304512D01*
X77460000Y-140513553D01*
X76669038Y-141304512D01*
X65488439Y-141304512D01*
X65462260Y-141221483D01*
X65459461Y-141211039D01*
X65373064Y-140821331D01*
X65371188Y-140810685D01*
X65368317Y-140788874D01*
X65319087Y-140414937D01*
X65318147Y-140404202D01*
X65307485Y-140160000D01*
X76066239Y-140160000D01*
X76085248Y-140389400D01*
X76141759Y-140612554D01*
X76234223Y-140823353D01*
X76316760Y-140949685D01*
X77106447Y-140160001D01*
X77106447Y-140160000D01*
X77813553Y-140160000D01*
X78603238Y-140949686D01*
X78685773Y-140823358D01*
X78727201Y-140728912D01*
X78771678Y-140675746D01*
X78837742Y-140654759D01*
X78904748Y-140672509D01*
X78951756Y-140723449D01*
X78984334Y-140788874D01*
X79024236Y-140841712D01*
X79117183Y-140964795D01*
X79280094Y-141113308D01*
X79467524Y-141229359D01*
X79653916Y-141301567D01*
X79673083Y-141308993D01*
X79889777Y-141349500D01*
X80110221Y-141349500D01*
X80110223Y-141349500D01*
X80326917Y-141308993D01*
X80463956Y-141255903D01*
X80532475Y-141229359D01*
X80719905Y-141113308D01*
X80882816Y-140964795D01*
X80894226Y-140949686D01*
X81015666Y-140788874D01*
X81113928Y-140591538D01*
X81120264Y-140569272D01*
X81150734Y-140462179D01*
X81183133Y-140407625D01*
X81238275Y-140376240D01*
X81301725Y-140376240D01*
X81356867Y-140407625D01*
X81389266Y-140462179D01*
X81426070Y-140591536D01*
X81491757Y-140723450D01*
X81524334Y-140788874D01*
X81564236Y-140841712D01*
X81657183Y-140964795D01*
X81820094Y-141113308D01*
X82007524Y-141229359D01*
X82193916Y-141301567D01*
X82213083Y-141308993D01*
X82429777Y-141349500D01*
X82650221Y-141349500D01*
X82650223Y-141349500D01*
X82866917Y-141308993D01*
X83003956Y-141255903D01*
X83072475Y-141229359D01*
X83259905Y-141113308D01*
X83422816Y-140964795D01*
X83434226Y-140949686D01*
X83555666Y-140788874D01*
X83653928Y-140591538D01*
X83660264Y-140569272D01*
X83676606Y-140511832D01*
X83714256Y-140379506D01*
X83734596Y-140160000D01*
X83719770Y-140000000D01*
X92194753Y-140000000D01*
X92213722Y-140325669D01*
X92270368Y-140646928D01*
X92273142Y-140656193D01*
X92363931Y-140959451D01*
X92430299Y-141113308D01*
X92493142Y-141258994D01*
X92656250Y-141541507D01*
X92701404Y-141602159D01*
X92851057Y-141803177D01*
X93074923Y-142040462D01*
X93324823Y-142250153D01*
X93597377Y-142429414D01*
X93597383Y-142429417D01*
X93888896Y-142575821D01*
X93888899Y-142575822D01*
X94195446Y-142687396D01*
X94512874Y-142762628D01*
X94836889Y-142800500D01*
X95163107Y-142800500D01*
X95163111Y-142800500D01*
X95487126Y-142762628D01*
X95804554Y-142687396D01*
X96111101Y-142575822D01*
X96402623Y-142429414D01*
X96675177Y-142250153D01*
X96925077Y-142040462D01*
X97148943Y-141803177D01*
X97343749Y-141541508D01*
X97506859Y-141258992D01*
X97636069Y-140959451D01*
X97729630Y-140646934D01*
X97786278Y-140325669D01*
X97805246Y-140000000D01*
X132194753Y-140000000D01*
X132213722Y-140325669D01*
X132270368Y-140646928D01*
X132273142Y-140656193D01*
X132363931Y-140959451D01*
X132430299Y-141113308D01*
X132493142Y-141258994D01*
X132656250Y-141541507D01*
X132701404Y-141602159D01*
X132851057Y-141803177D01*
X133074923Y-142040462D01*
X133324823Y-142250153D01*
X133597377Y-142429414D01*
X133597383Y-142429417D01*
X133888896Y-142575821D01*
X133888899Y-142575822D01*
X134195446Y-142687396D01*
X134512874Y-142762628D01*
X134836889Y-142800500D01*
X135163107Y-142800500D01*
X135163111Y-142800500D01*
X135487126Y-142762628D01*
X135804554Y-142687396D01*
X136111101Y-142575822D01*
X136402623Y-142429414D01*
X136675177Y-142250153D01*
X136925077Y-142040462D01*
X137148943Y-141803177D01*
X137343749Y-141541508D01*
X137480578Y-141304512D01*
X146669038Y-141304512D01*
X146697685Y-141326808D01*
X146900137Y-141436369D01*
X147117848Y-141511110D01*
X147344905Y-141549000D01*
X147575095Y-141549000D01*
X147802151Y-141511110D01*
X148019862Y-141436369D01*
X148222315Y-141326807D01*
X148250959Y-141304512D01*
X147460000Y-140513553D01*
X146669038Y-141304512D01*
X137480578Y-141304512D01*
X137506859Y-141258992D01*
X137636069Y-140959451D01*
X137729630Y-140646934D01*
X137786278Y-140325669D01*
X137795927Y-140159999D01*
X146066239Y-140159999D01*
X146085248Y-140389400D01*
X146141759Y-140612554D01*
X146234223Y-140823353D01*
X146316760Y-140949685D01*
X147106447Y-140160001D01*
X147813553Y-140160001D01*
X148603238Y-140949686D01*
X148685773Y-140823358D01*
X148727201Y-140728912D01*
X148771678Y-140675746D01*
X148837742Y-140654759D01*
X148904748Y-140672509D01*
X148951756Y-140723449D01*
X148984334Y-140788874D01*
X149024236Y-140841712D01*
X149117183Y-140964795D01*
X149280094Y-141113308D01*
X149467524Y-141229359D01*
X149653916Y-141301567D01*
X149673083Y-141308993D01*
X149889777Y-141349500D01*
X150110221Y-141349500D01*
X150110223Y-141349500D01*
X150326917Y-141308993D01*
X150463956Y-141255903D01*
X150532475Y-141229359D01*
X150719905Y-141113308D01*
X150882816Y-140964795D01*
X150894226Y-140949686D01*
X151015666Y-140788874D01*
X151113928Y-140591538D01*
X151120264Y-140569272D01*
X151150734Y-140462179D01*
X151183133Y-140407625D01*
X151238275Y-140376240D01*
X151301725Y-140376240D01*
X151356867Y-140407625D01*
X151389266Y-140462179D01*
X151426070Y-140591536D01*
X151491757Y-140723450D01*
X151524334Y-140788874D01*
X151564236Y-140841712D01*
X151657183Y-140964795D01*
X151820094Y-141113308D01*
X152007524Y-141229359D01*
X152193916Y-141301567D01*
X152213083Y-141308993D01*
X152429777Y-141349500D01*
X152650221Y-141349500D01*
X152650223Y-141349500D01*
X152866917Y-141308993D01*
X153003956Y-141255903D01*
X153072475Y-141229359D01*
X153259905Y-141113308D01*
X153422816Y-140964795D01*
X153434226Y-140949686D01*
X153555666Y-140788874D01*
X153653928Y-140591538D01*
X153660264Y-140569272D01*
X153676606Y-140511832D01*
X153714256Y-140379506D01*
X153734596Y-140160000D01*
X153714256Y-139940494D01*
X153653929Y-139728464D01*
X153653929Y-139728463D01*
X153621084Y-139662503D01*
X153555666Y-139531126D01*
X153467704Y-139414647D01*
X153422816Y-139355204D01*
X153259905Y-139206691D01*
X153072475Y-139090640D01*
X152866921Y-139011008D01*
X152866918Y-139011007D01*
X152866917Y-139011007D01*
X152650223Y-138970500D01*
X152429777Y-138970500D01*
X152213083Y-139011007D01*
X152213078Y-139011008D01*
X152007524Y-139090640D01*
X151820094Y-139206691D01*
X151657183Y-139355204D01*
X151524334Y-139531126D01*
X151426070Y-139728464D01*
X151389266Y-139857820D01*
X151356867Y-139912374D01*
X151301725Y-139943759D01*
X151238275Y-139943759D01*
X151183133Y-139912374D01*
X151150734Y-139857820D01*
X151113929Y-139728464D01*
X151082447Y-139665240D01*
X151015666Y-139531126D01*
X150927704Y-139414647D01*
X150882816Y-139355204D01*
X150719905Y-139206691D01*
X150532475Y-139090640D01*
X150326921Y-139011008D01*
X150326918Y-139011007D01*
X150326917Y-139011007D01*
X150110223Y-138970500D01*
X149889777Y-138970500D01*
X149673083Y-139011007D01*
X149673078Y-139011008D01*
X149467524Y-139090640D01*
X149280094Y-139206691D01*
X149117183Y-139355204D01*
X149060151Y-139430728D01*
X148984334Y-139531126D01*
X148954477Y-139591087D01*
X148951757Y-139596550D01*
X148904747Y-139647490D01*
X148837741Y-139665240D01*
X148771678Y-139644253D01*
X148727201Y-139591087D01*
X148685774Y-139496643D01*
X148603238Y-139370312D01*
X147813553Y-140160000D01*
X147813553Y-140160001D01*
X147106447Y-140160001D01*
X147106447Y-140160000D01*
X146316760Y-139370313D01*
X146234224Y-139496644D01*
X146141758Y-139707445D01*
X146085248Y-139930599D01*
X146066239Y-140159999D01*
X137795927Y-140159999D01*
X137805246Y-140000000D01*
X137786278Y-139674331D01*
X137729630Y-139353066D01*
X137636069Y-139040549D01*
X137506859Y-138741008D01*
X137343749Y-138458492D01*
X137148943Y-138196823D01*
X136925077Y-137959538D01*
X136804548Y-137858402D01*
X136675180Y-137749849D01*
X136675177Y-137749847D01*
X136477752Y-137619999D01*
X141884052Y-137619999D01*
X141903807Y-137858402D01*
X141903807Y-137858405D01*
X141903808Y-137858407D01*
X141931542Y-137967927D01*
X141962535Y-138090312D01*
X142058627Y-138309382D01*
X142189473Y-138509656D01*
X142351493Y-138685657D01*
X142422605Y-138741005D01*
X142540275Y-138832591D01*
X142750665Y-138946449D01*
X142820723Y-138970500D01*
X142976923Y-139024124D01*
X142976925Y-139024124D01*
X142976927Y-139024125D01*
X143212888Y-139063500D01*
X143452111Y-139063500D01*
X143452112Y-139063500D01*
X143688073Y-139024125D01*
X143713237Y-139015486D01*
X146669039Y-139015486D01*
X147460000Y-139806447D01*
X147460001Y-139806447D01*
X148250959Y-139015487D01*
X148250959Y-139015485D01*
X148222317Y-138993193D01*
X148019862Y-138883630D01*
X147802151Y-138808889D01*
X147575095Y-138771000D01*
X147344905Y-138771000D01*
X147117848Y-138808889D01*
X146900134Y-138883631D01*
X146697682Y-138993192D01*
X146669039Y-139015484D01*
X146669039Y-139015486D01*
X143713237Y-139015486D01*
X143914335Y-138946449D01*
X144124725Y-138832591D01*
X144313506Y-138685657D01*
X144475528Y-138509655D01*
X144606371Y-138309385D01*
X144702466Y-138090310D01*
X144761192Y-137858407D01*
X144780947Y-137620000D01*
X144780947Y-137619999D01*
X155219052Y-137619999D01*
X155238807Y-137858402D01*
X155238807Y-137858405D01*
X155238808Y-137858407D01*
X155266542Y-137967927D01*
X155297535Y-138090312D01*
X155393627Y-138309382D01*
X155524473Y-138509656D01*
X155686493Y-138685657D01*
X155757605Y-138741005D01*
X155875275Y-138832591D01*
X156085665Y-138946449D01*
X156155723Y-138970500D01*
X156311923Y-139024124D01*
X156311925Y-139024124D01*
X156311927Y-139024125D01*
X156547888Y-139063500D01*
X156787111Y-139063500D01*
X156787112Y-139063500D01*
X157023073Y-139024125D01*
X157249335Y-138946449D01*
X157459725Y-138832591D01*
X157648506Y-138685657D01*
X157810528Y-138509655D01*
X157941371Y-138309385D01*
X158037466Y-138090310D01*
X158096192Y-137858407D01*
X158115947Y-137620000D01*
X158096192Y-137381593D01*
X158037466Y-137149690D01*
X157941371Y-136930615D01*
X157810528Y-136730345D01*
X157786681Y-136704440D01*
X157648506Y-136554342D01*
X157459726Y-136407410D01*
X157459725Y-136407409D01*
X157249335Y-136293551D01*
X157249331Y-136293549D01*
X157249330Y-136293549D01*
X157023076Y-136215875D01*
X156846102Y-136186343D01*
X156787112Y-136176500D01*
X156547888Y-136176500D01*
X156500695Y-136184374D01*
X156311923Y-136215875D01*
X156085669Y-136293549D01*
X155875273Y-136407410D01*
X155686493Y-136554342D01*
X155524473Y-136730343D01*
X155393627Y-136930617D01*
X155297535Y-137149687D01*
X155297534Y-137149690D01*
X155256278Y-137312605D01*
X155238807Y-137381597D01*
X155219052Y-137619999D01*
X144780947Y-137619999D01*
X144761192Y-137381593D01*
X144702466Y-137149690D01*
X144606371Y-136930615D01*
X144475528Y-136730345D01*
X144451681Y-136704440D01*
X144313506Y-136554342D01*
X144124726Y-136407410D01*
X144124725Y-136407409D01*
X143914335Y-136293551D01*
X143914331Y-136293549D01*
X143914330Y-136293549D01*
X143688076Y-136215875D01*
X143511102Y-136186343D01*
X143452112Y-136176500D01*
X143212888Y-136176500D01*
X143165695Y-136184374D01*
X142976923Y-136215875D01*
X142750669Y-136293549D01*
X142540273Y-136407410D01*
X142351493Y-136554342D01*
X142189473Y-136730343D01*
X142058627Y-136930617D01*
X141962535Y-137149687D01*
X141962534Y-137149690D01*
X141921278Y-137312605D01*
X141903807Y-137381597D01*
X141884052Y-137619999D01*
X136477752Y-137619999D01*
X136402623Y-137570586D01*
X136402619Y-137570584D01*
X136402616Y-137570582D01*
X136111103Y-137424178D01*
X135804557Y-137312605D01*
X135804556Y-137312604D01*
X135804554Y-137312604D01*
X135630157Y-137271271D01*
X135487127Y-137237372D01*
X135422322Y-137229797D01*
X135163111Y-137199500D01*
X134836889Y-137199500D01*
X134620879Y-137224747D01*
X134512872Y-137237372D01*
X134195442Y-137312605D01*
X133888896Y-137424178D01*
X133597383Y-137570582D01*
X133324819Y-137749849D01*
X133074922Y-137959538D01*
X132851058Y-138196821D01*
X132656250Y-138458492D01*
X132493142Y-138741005D01*
X132463860Y-138808889D01*
X132363931Y-139040549D01*
X132314192Y-139206691D01*
X132270368Y-139353071D01*
X132213722Y-139674330D01*
X132194753Y-140000000D01*
X97805246Y-140000000D01*
X97786278Y-139674331D01*
X97729630Y-139353066D01*
X97636069Y-139040549D01*
X97506859Y-138741008D01*
X97343749Y-138458492D01*
X97148943Y-138196823D01*
X96925077Y-137959538D01*
X96804548Y-137858402D01*
X96675180Y-137749849D01*
X96675177Y-137749847D01*
X96402623Y-137570586D01*
X96402619Y-137570584D01*
X96402616Y-137570582D01*
X96111103Y-137424178D01*
X95804557Y-137312605D01*
X95804556Y-137312604D01*
X95804554Y-137312604D01*
X95630157Y-137271271D01*
X95487127Y-137237372D01*
X95422322Y-137229797D01*
X95163111Y-137199500D01*
X94836889Y-137199500D01*
X94620879Y-137224747D01*
X94512872Y-137237372D01*
X94195442Y-137312605D01*
X93888896Y-137424178D01*
X93597383Y-137570582D01*
X93324819Y-137749849D01*
X93074922Y-137959538D01*
X92851058Y-138196821D01*
X92656250Y-138458492D01*
X92493142Y-138741005D01*
X92463860Y-138808889D01*
X92363931Y-139040549D01*
X92314192Y-139206691D01*
X92270368Y-139353071D01*
X92213722Y-139674330D01*
X92194753Y-140000000D01*
X83719770Y-140000000D01*
X83714256Y-139940494D01*
X83653929Y-139728464D01*
X83653929Y-139728463D01*
X83621084Y-139662503D01*
X83555666Y-139531126D01*
X83467704Y-139414647D01*
X83422816Y-139355204D01*
X83259905Y-139206691D01*
X83072475Y-139090640D01*
X82866921Y-139011008D01*
X82866918Y-139011007D01*
X82866917Y-139011007D01*
X82650223Y-138970500D01*
X82429777Y-138970500D01*
X82213083Y-139011007D01*
X82213078Y-139011008D01*
X82007524Y-139090640D01*
X81820094Y-139206691D01*
X81657183Y-139355204D01*
X81524334Y-139531126D01*
X81426070Y-139728464D01*
X81389266Y-139857820D01*
X81356867Y-139912374D01*
X81301725Y-139943759D01*
X81238275Y-139943759D01*
X81183133Y-139912374D01*
X81150734Y-139857820D01*
X81113929Y-139728464D01*
X81082447Y-139665240D01*
X81015666Y-139531126D01*
X80927704Y-139414647D01*
X80882816Y-139355204D01*
X80719905Y-139206691D01*
X80532475Y-139090640D01*
X80326921Y-139011008D01*
X80326918Y-139011007D01*
X80326917Y-139011007D01*
X80110223Y-138970500D01*
X79889777Y-138970500D01*
X79673083Y-139011007D01*
X79673078Y-139011008D01*
X79467524Y-139090640D01*
X79280094Y-139206691D01*
X79117183Y-139355204D01*
X79060151Y-139430728D01*
X78984334Y-139531126D01*
X78954477Y-139591087D01*
X78951757Y-139596550D01*
X78904747Y-139647490D01*
X78837741Y-139665240D01*
X78771678Y-139644253D01*
X78727201Y-139591087D01*
X78685774Y-139496643D01*
X78603238Y-139370312D01*
X77813553Y-140160000D01*
X77106447Y-140160000D01*
X76316760Y-139370313D01*
X76234224Y-139496644D01*
X76141758Y-139707445D01*
X76085248Y-139930599D01*
X76066239Y-140160000D01*
X65307485Y-140160000D01*
X65300617Y-140002702D01*
X65300500Y-139997294D01*
X65300500Y-137619999D01*
X71884052Y-137619999D01*
X71903807Y-137858402D01*
X71903807Y-137858405D01*
X71903808Y-137858407D01*
X71931542Y-137967927D01*
X71962535Y-138090312D01*
X72058627Y-138309382D01*
X72189473Y-138509656D01*
X72351493Y-138685657D01*
X72422605Y-138741005D01*
X72540275Y-138832591D01*
X72750665Y-138946449D01*
X72820723Y-138970500D01*
X72976923Y-139024124D01*
X72976925Y-139024124D01*
X72976927Y-139024125D01*
X73212888Y-139063500D01*
X73452111Y-139063500D01*
X73452112Y-139063500D01*
X73688073Y-139024125D01*
X73713237Y-139015486D01*
X76669039Y-139015486D01*
X77460000Y-139806447D01*
X77460001Y-139806447D01*
X78250959Y-139015487D01*
X78250959Y-139015485D01*
X78222317Y-138993193D01*
X78019862Y-138883630D01*
X77802151Y-138808889D01*
X77575095Y-138771000D01*
X77344905Y-138771000D01*
X77117848Y-138808889D01*
X76900134Y-138883631D01*
X76697682Y-138993192D01*
X76669039Y-139015484D01*
X76669039Y-139015486D01*
X73713237Y-139015486D01*
X73914335Y-138946449D01*
X74124725Y-138832591D01*
X74313506Y-138685657D01*
X74475528Y-138509655D01*
X74606371Y-138309385D01*
X74702466Y-138090310D01*
X74761192Y-137858407D01*
X74780947Y-137620000D01*
X74780947Y-137619999D01*
X85219052Y-137619999D01*
X85238807Y-137858402D01*
X85238807Y-137858405D01*
X85238808Y-137858407D01*
X85266542Y-137967927D01*
X85297535Y-138090312D01*
X85393627Y-138309382D01*
X85524473Y-138509656D01*
X85686493Y-138685657D01*
X85757605Y-138741005D01*
X85875275Y-138832591D01*
X86085665Y-138946449D01*
X86155723Y-138970500D01*
X86311923Y-139024124D01*
X86311925Y-139024124D01*
X86311927Y-139024125D01*
X86547888Y-139063500D01*
X86787111Y-139063500D01*
X86787112Y-139063500D01*
X87023073Y-139024125D01*
X87249335Y-138946449D01*
X87459725Y-138832591D01*
X87648506Y-138685657D01*
X87810528Y-138509655D01*
X87941371Y-138309385D01*
X88037466Y-138090310D01*
X88096192Y-137858407D01*
X88115947Y-137620000D01*
X88096192Y-137381593D01*
X88037466Y-137149690D01*
X87941371Y-136930615D01*
X87810528Y-136730345D01*
X87786681Y-136704440D01*
X87648506Y-136554342D01*
X87459726Y-136407410D01*
X87459725Y-136407409D01*
X87249335Y-136293551D01*
X87249331Y-136293549D01*
X87249330Y-136293549D01*
X87023076Y-136215875D01*
X86846102Y-136186343D01*
X86787112Y-136176500D01*
X86547888Y-136176500D01*
X86500695Y-136184374D01*
X86311923Y-136215875D01*
X86085669Y-136293549D01*
X85875273Y-136407410D01*
X85686493Y-136554342D01*
X85524473Y-136730343D01*
X85393627Y-136930617D01*
X85297535Y-137149687D01*
X85297534Y-137149690D01*
X85256278Y-137312605D01*
X85238807Y-137381597D01*
X85219052Y-137619999D01*
X74780947Y-137619999D01*
X74761192Y-137381593D01*
X74702466Y-137149690D01*
X74606371Y-136930615D01*
X74475528Y-136730345D01*
X74451681Y-136704440D01*
X74313506Y-136554342D01*
X74124726Y-136407410D01*
X74124725Y-136407409D01*
X73914335Y-136293551D01*
X73914331Y-136293549D01*
X73914330Y-136293549D01*
X73688076Y-136215875D01*
X73511102Y-136186343D01*
X73452112Y-136176500D01*
X73212888Y-136176500D01*
X73165695Y-136184374D01*
X72976923Y-136215875D01*
X72750669Y-136293549D01*
X72540273Y-136407410D01*
X72351493Y-136554342D01*
X72189473Y-136730343D01*
X72058627Y-136930617D01*
X71962535Y-137149687D01*
X71962534Y-137149690D01*
X71921278Y-137312605D01*
X71903807Y-137381597D01*
X71884052Y-137619999D01*
X65300500Y-137619999D01*
X65300500Y-133174999D01*
X66105404Y-133174999D01*
X66125744Y-133394507D01*
X66186070Y-133606536D01*
X66251758Y-133738454D01*
X66284334Y-133803874D01*
X66293770Y-133816369D01*
X66417183Y-133979795D01*
X66580094Y-134128308D01*
X66767524Y-134244359D01*
X66953916Y-134316567D01*
X66973083Y-134323993D01*
X67189777Y-134364500D01*
X67410221Y-134364500D01*
X67410223Y-134364500D01*
X67626917Y-134323993D01*
X67763956Y-134270903D01*
X67832475Y-134244359D01*
X68019905Y-134128308D01*
X68182816Y-133979795D01*
X68182817Y-133979794D01*
X68315666Y-133803874D01*
X68413928Y-133606538D01*
X68474256Y-133394506D01*
X68494596Y-133175000D01*
X68494596Y-133174999D01*
X71185404Y-133174999D01*
X71205744Y-133394507D01*
X71266070Y-133606536D01*
X71331758Y-133738454D01*
X71364334Y-133803874D01*
X71373770Y-133816369D01*
X71497183Y-133979795D01*
X71660094Y-134128308D01*
X71847524Y-134244359D01*
X72033916Y-134316567D01*
X72053083Y-134323993D01*
X72269777Y-134364500D01*
X72490221Y-134364500D01*
X72490223Y-134364500D01*
X72706917Y-134323993D01*
X72843956Y-134270903D01*
X72912475Y-134244359D01*
X73099905Y-134128308D01*
X73262816Y-133979795D01*
X73262817Y-133979794D01*
X73395666Y-133803874D01*
X73455101Y-133684512D01*
X89369038Y-133684512D01*
X89397685Y-133706808D01*
X89600137Y-133816369D01*
X89817848Y-133891110D01*
X90044905Y-133929000D01*
X90275095Y-133929000D01*
X90502151Y-133891110D01*
X90719862Y-133816369D01*
X90922315Y-133706807D01*
X90950959Y-133684512D01*
X90160000Y-132893553D01*
X89369038Y-133684512D01*
X73455101Y-133684512D01*
X73493928Y-133606538D01*
X73554256Y-133394506D01*
X73574596Y-133175000D01*
X73554256Y-132955494D01*
X73531577Y-132875788D01*
X73493929Y-132743463D01*
X73461084Y-132677503D01*
X73395666Y-132546126D01*
X73391040Y-132540000D01*
X88766239Y-132540000D01*
X88785248Y-132769400D01*
X88841759Y-132992554D01*
X88934223Y-133203353D01*
X89016760Y-133329685D01*
X89806447Y-132540001D01*
X90513553Y-132540001D01*
X91303238Y-133329686D01*
X91385773Y-133203357D01*
X91398212Y-133174999D01*
X136105404Y-133174999D01*
X136125744Y-133394507D01*
X136186070Y-133606536D01*
X136251758Y-133738454D01*
X136284334Y-133803874D01*
X136293770Y-133816369D01*
X136417183Y-133979795D01*
X136580094Y-134128308D01*
X136767524Y-134244359D01*
X136953916Y-134316567D01*
X136973083Y-134323993D01*
X137189777Y-134364500D01*
X137410221Y-134364500D01*
X137410223Y-134364500D01*
X137626917Y-134323993D01*
X137763956Y-134270903D01*
X137832475Y-134244359D01*
X138019905Y-134128308D01*
X138182816Y-133979795D01*
X138182817Y-133979794D01*
X138315666Y-133803874D01*
X138413928Y-133606538D01*
X138474256Y-133394506D01*
X138494596Y-133175000D01*
X138494596Y-133174999D01*
X141185404Y-133174999D01*
X141205744Y-133394507D01*
X141266070Y-133606536D01*
X141331758Y-133738454D01*
X141364334Y-133803874D01*
X141373770Y-133816369D01*
X141497183Y-133979795D01*
X141660094Y-134128308D01*
X141847524Y-134244359D01*
X142033916Y-134316567D01*
X142053083Y-134323993D01*
X142269777Y-134364500D01*
X142490221Y-134364500D01*
X142490223Y-134364500D01*
X142706917Y-134323993D01*
X142843956Y-134270903D01*
X142912475Y-134244359D01*
X143099905Y-134128308D01*
X143262816Y-133979795D01*
X143262817Y-133979794D01*
X143395666Y-133803874D01*
X143455101Y-133684512D01*
X159369038Y-133684512D01*
X159397685Y-133706808D01*
X159600137Y-133816369D01*
X159817848Y-133891110D01*
X160044905Y-133929000D01*
X160275095Y-133929000D01*
X160502151Y-133891110D01*
X160719862Y-133816369D01*
X160922315Y-133706807D01*
X160950959Y-133684512D01*
X160160000Y-132893553D01*
X159369038Y-133684512D01*
X143455101Y-133684512D01*
X143493928Y-133606538D01*
X143554256Y-133394506D01*
X143574596Y-133175000D01*
X143554256Y-132955494D01*
X143531577Y-132875788D01*
X143493929Y-132743463D01*
X143461084Y-132677503D01*
X143395666Y-132546126D01*
X143391040Y-132540000D01*
X158766239Y-132540000D01*
X158785248Y-132769400D01*
X158841759Y-132992554D01*
X158934223Y-133203353D01*
X159016760Y-133329685D01*
X159806447Y-132540001D01*
X159806447Y-132540000D01*
X160513553Y-132540000D01*
X161303238Y-133329686D01*
X161385773Y-133203357D01*
X161478241Y-132992554D01*
X161534751Y-132769400D01*
X161553760Y-132540000D01*
X161534751Y-132310599D01*
X161478241Y-132087445D01*
X161385774Y-131876643D01*
X161303238Y-131750312D01*
X160513553Y-132540000D01*
X159806447Y-132540000D01*
X159016760Y-131750313D01*
X158934224Y-131876644D01*
X158841758Y-132087445D01*
X158785248Y-132310599D01*
X158766239Y-132540000D01*
X143391040Y-132540000D01*
X143307704Y-132429647D01*
X143262816Y-132370204D01*
X143099905Y-132221691D01*
X142912475Y-132105640D01*
X142706921Y-132026008D01*
X142706918Y-132026007D01*
X142706917Y-132026007D01*
X142490223Y-131985500D01*
X142269777Y-131985500D01*
X142053083Y-132026007D01*
X142053078Y-132026008D01*
X141847524Y-132105640D01*
X141660094Y-132221691D01*
X141497183Y-132370204D01*
X141364334Y-132546126D01*
X141266070Y-132743463D01*
X141205744Y-132955492D01*
X141185404Y-133174999D01*
X138494596Y-133174999D01*
X138474256Y-132955494D01*
X138451577Y-132875788D01*
X138413929Y-132743463D01*
X138381084Y-132677503D01*
X138315666Y-132546126D01*
X138227704Y-132429647D01*
X138182816Y-132370204D01*
X138019905Y-132221691D01*
X137832475Y-132105640D01*
X137626921Y-132026008D01*
X137626918Y-132026007D01*
X137626917Y-132026007D01*
X137410223Y-131985500D01*
X137189777Y-131985500D01*
X136973083Y-132026007D01*
X136973078Y-132026008D01*
X136767524Y-132105640D01*
X136580094Y-132221691D01*
X136417183Y-132370204D01*
X136284334Y-132546126D01*
X136186070Y-132743463D01*
X136125744Y-132955492D01*
X136105404Y-133174999D01*
X91398212Y-133174999D01*
X91478241Y-132992554D01*
X91534751Y-132769400D01*
X91553760Y-132540000D01*
X91534751Y-132310599D01*
X91478241Y-132087445D01*
X91385774Y-131876643D01*
X91303238Y-131750312D01*
X90513553Y-132540000D01*
X90513553Y-132540001D01*
X89806447Y-132540001D01*
X89806447Y-132540000D01*
X89016760Y-131750313D01*
X88934224Y-131876644D01*
X88841758Y-132087445D01*
X88785248Y-132310599D01*
X88766239Y-132540000D01*
X73391040Y-132540000D01*
X73307704Y-132429647D01*
X73262816Y-132370204D01*
X73099905Y-132221691D01*
X72912475Y-132105640D01*
X72706921Y-132026008D01*
X72706918Y-132026007D01*
X72706917Y-132026007D01*
X72490223Y-131985500D01*
X72269777Y-131985500D01*
X72053083Y-132026007D01*
X72053078Y-132026008D01*
X71847524Y-132105640D01*
X71660094Y-132221691D01*
X71497183Y-132370204D01*
X71364334Y-132546126D01*
X71266070Y-132743463D01*
X71205744Y-132955492D01*
X71185404Y-133174999D01*
X68494596Y-133174999D01*
X68474256Y-132955494D01*
X68451577Y-132875788D01*
X68413929Y-132743463D01*
X68381084Y-132677503D01*
X68315666Y-132546126D01*
X68227704Y-132429647D01*
X68182816Y-132370204D01*
X68019905Y-132221691D01*
X67832475Y-132105640D01*
X67626921Y-132026008D01*
X67626918Y-132026007D01*
X67626917Y-132026007D01*
X67410223Y-131985500D01*
X67189777Y-131985500D01*
X66973083Y-132026007D01*
X66973078Y-132026008D01*
X66767524Y-132105640D01*
X66580094Y-132221691D01*
X66417183Y-132370204D01*
X66284334Y-132546126D01*
X66186070Y-132743463D01*
X66125744Y-132955492D01*
X66105404Y-133174999D01*
X65300500Y-133174999D01*
X65300500Y-130000000D01*
X88965404Y-130000000D01*
X88985744Y-130219507D01*
X89046070Y-130431536D01*
X89111758Y-130563454D01*
X89144334Y-130628874D01*
X89210758Y-130716834D01*
X89277183Y-130804795D01*
X89440094Y-130953308D01*
X89600252Y-131052473D01*
X89644173Y-131099148D01*
X89658922Y-131161518D01*
X89640560Y-131222921D01*
X89593992Y-131266955D01*
X89397682Y-131373192D01*
X89369039Y-131395484D01*
X89369039Y-131395486D01*
X90160000Y-132186447D01*
X90160001Y-132186447D01*
X90950959Y-131395487D01*
X90950959Y-131395485D01*
X90922315Y-131373191D01*
X90726007Y-131266955D01*
X90679439Y-131222921D01*
X90661077Y-131161517D01*
X90675826Y-131099148D01*
X90719747Y-131052473D01*
X90879905Y-130953308D01*
X91042817Y-130804794D01*
X91175666Y-130628874D01*
X91273928Y-130431538D01*
X91334256Y-130219506D01*
X91354596Y-130000000D01*
X91354596Y-129999999D01*
X158965404Y-129999999D01*
X158985744Y-130219507D01*
X159046070Y-130431536D01*
X159111758Y-130563454D01*
X159144334Y-130628874D01*
X159210758Y-130716834D01*
X159277183Y-130804795D01*
X159440094Y-130953308D01*
X159600252Y-131052473D01*
X159644173Y-131099148D01*
X159658922Y-131161518D01*
X159640560Y-131222921D01*
X159593992Y-131266955D01*
X159397682Y-131373192D01*
X159369039Y-131395484D01*
X159369039Y-131395486D01*
X160160000Y-132186447D01*
X160160001Y-132186447D01*
X160950959Y-131395487D01*
X160950959Y-131395485D01*
X160922315Y-131373191D01*
X160726007Y-131266955D01*
X160679439Y-131222921D01*
X160661077Y-131161517D01*
X160675826Y-131099148D01*
X160719747Y-131052473D01*
X160879905Y-130953308D01*
X161042817Y-130804794D01*
X161175666Y-130628874D01*
X161273928Y-130431538D01*
X161334256Y-130219506D01*
X161354596Y-130000000D01*
X161334256Y-129780494D01*
X161311577Y-129700788D01*
X161273929Y-129568463D01*
X161241084Y-129502503D01*
X161175666Y-129371126D01*
X161087704Y-129254647D01*
X161042816Y-129195204D01*
X160879905Y-129046691D01*
X160692475Y-128930640D01*
X160476203Y-128846856D01*
X160477063Y-128844634D01*
X160430879Y-128821637D01*
X160395151Y-128763934D01*
X160395151Y-128696066D01*
X160430879Y-128638363D01*
X160477063Y-128615365D01*
X160476203Y-128613144D01*
X160692475Y-128529359D01*
X160879905Y-128413308D01*
X161042816Y-128264795D01*
X161042817Y-128264794D01*
X161175666Y-128088874D01*
X161273928Y-127891538D01*
X161334256Y-127679506D01*
X161354596Y-127460000D01*
X161334256Y-127240494D01*
X161311577Y-127160788D01*
X161273929Y-127028463D01*
X161241084Y-126962503D01*
X161175666Y-126831126D01*
X161087704Y-126714647D01*
X161042816Y-126655204D01*
X160879905Y-126506691D01*
X160692475Y-126390640D01*
X160486921Y-126311008D01*
X160486918Y-126311007D01*
X160486917Y-126311007D01*
X160270223Y-126270500D01*
X160049777Y-126270500D01*
X159833083Y-126311007D01*
X159833078Y-126311008D01*
X159627524Y-126390640D01*
X159440094Y-126506691D01*
X159277183Y-126655204D01*
X159144334Y-126831126D01*
X159046070Y-127028463D01*
X158985744Y-127240492D01*
X158965404Y-127459999D01*
X158985744Y-127679507D01*
X159046070Y-127891536D01*
X159107300Y-128014500D01*
X159144334Y-128088874D01*
X159210758Y-128176833D01*
X159277183Y-128264795D01*
X159440094Y-128413308D01*
X159627524Y-128529359D01*
X159843797Y-128613144D01*
X159842936Y-128615365D01*
X159889122Y-128638364D01*
X159924849Y-128696066D01*
X159924849Y-128763934D01*
X159889122Y-128821636D01*
X159842936Y-128844634D01*
X159843797Y-128846856D01*
X159627524Y-128930640D01*
X159440094Y-129046691D01*
X159277183Y-129195204D01*
X159144334Y-129371126D01*
X159046070Y-129568463D01*
X158985744Y-129780492D01*
X158965404Y-129999999D01*
X91354596Y-129999999D01*
X91334256Y-129780494D01*
X91311577Y-129700788D01*
X91273929Y-129568463D01*
X91241084Y-129502503D01*
X91175666Y-129371126D01*
X91087704Y-129254647D01*
X91042816Y-129195204D01*
X90879905Y-129046691D01*
X90692475Y-128930640D01*
X90476203Y-128846856D01*
X90477063Y-128844634D01*
X90430879Y-128821637D01*
X90395151Y-128763934D01*
X90395151Y-128696066D01*
X90430879Y-128638363D01*
X90477063Y-128615365D01*
X90476203Y-128613144D01*
X90692475Y-128529359D01*
X90879905Y-128413308D01*
X91042816Y-128264795D01*
X91042817Y-128264794D01*
X91175666Y-128088874D01*
X91273928Y-127891538D01*
X91334256Y-127679506D01*
X91354596Y-127460000D01*
X91334256Y-127240494D01*
X91311577Y-127160788D01*
X91273929Y-127028463D01*
X91241084Y-126962503D01*
X91175666Y-126831126D01*
X91171040Y-126825000D01*
X136105404Y-126825000D01*
X136125744Y-127044507D01*
X136186070Y-127256536D01*
X136251758Y-127388454D01*
X136284334Y-127453874D01*
X136350758Y-127541834D01*
X136417183Y-127629795D01*
X136580094Y-127778308D01*
X136767524Y-127894359D01*
X136953916Y-127966567D01*
X136973083Y-127973993D01*
X137189777Y-128014500D01*
X137410221Y-128014500D01*
X137410223Y-128014500D01*
X137626917Y-127973993D01*
X137763956Y-127920903D01*
X137832475Y-127894359D01*
X137837035Y-127891536D01*
X138019905Y-127778308D01*
X138019904Y-127778308D01*
X138182816Y-127629795D01*
X138182817Y-127629794D01*
X138315666Y-127453874D01*
X138413928Y-127256538D01*
X138418494Y-127240492D01*
X138436606Y-127176832D01*
X138474256Y-127044506D01*
X138494596Y-126825000D01*
X141185404Y-126825000D01*
X141205744Y-127044507D01*
X141266070Y-127256536D01*
X141331758Y-127388454D01*
X141364334Y-127453874D01*
X141430758Y-127541834D01*
X141497183Y-127629795D01*
X141660094Y-127778308D01*
X141847524Y-127894359D01*
X142033916Y-127966567D01*
X142053083Y-127973993D01*
X142269777Y-128014500D01*
X142490221Y-128014500D01*
X142490223Y-128014500D01*
X142706917Y-127973993D01*
X142843956Y-127920903D01*
X142912475Y-127894359D01*
X142917035Y-127891536D01*
X143099905Y-127778308D01*
X143099904Y-127778308D01*
X143262816Y-127629795D01*
X143262817Y-127629794D01*
X143395666Y-127453874D01*
X143493928Y-127256538D01*
X143498494Y-127240492D01*
X143516606Y-127176832D01*
X143554256Y-127044506D01*
X143574596Y-126825000D01*
X143554256Y-126605494D01*
X143526144Y-126506691D01*
X143493929Y-126393463D01*
X143432700Y-126270500D01*
X143395666Y-126196126D01*
X143307704Y-126079647D01*
X143262816Y-126020204D01*
X143099905Y-125871691D01*
X142912475Y-125755640D01*
X142706921Y-125676008D01*
X142706918Y-125676007D01*
X142706917Y-125676007D01*
X142490223Y-125635500D01*
X142269777Y-125635500D01*
X142053083Y-125676007D01*
X142053078Y-125676008D01*
X141847524Y-125755640D01*
X141660094Y-125871691D01*
X141497183Y-126020204D01*
X141364334Y-126196126D01*
X141266070Y-126393463D01*
X141205744Y-126605492D01*
X141185404Y-126825000D01*
X138494596Y-126825000D01*
X138474256Y-126605494D01*
X138446144Y-126506691D01*
X138413929Y-126393463D01*
X138352700Y-126270500D01*
X138315666Y-126196126D01*
X138227704Y-126079647D01*
X138182816Y-126020204D01*
X138019905Y-125871691D01*
X137832475Y-125755640D01*
X137626921Y-125676008D01*
X137626918Y-125676007D01*
X137626917Y-125676007D01*
X137410223Y-125635500D01*
X137189777Y-125635500D01*
X136973083Y-125676007D01*
X136973078Y-125676008D01*
X136767524Y-125755640D01*
X136580094Y-125871691D01*
X136417183Y-126020204D01*
X136284334Y-126196126D01*
X136186070Y-126393463D01*
X136125744Y-126605492D01*
X136105404Y-126825000D01*
X91171040Y-126825000D01*
X91087704Y-126714647D01*
X91042816Y-126655204D01*
X90879905Y-126506691D01*
X90692475Y-126390640D01*
X90486921Y-126311008D01*
X90486918Y-126311007D01*
X90486917Y-126311007D01*
X90270223Y-126270500D01*
X90049777Y-126270500D01*
X89833083Y-126311007D01*
X89833078Y-126311008D01*
X89627524Y-126390640D01*
X89440094Y-126506691D01*
X89277183Y-126655204D01*
X89144334Y-126831126D01*
X89046070Y-127028463D01*
X88985744Y-127240492D01*
X88965404Y-127459999D01*
X88985744Y-127679507D01*
X89046070Y-127891536D01*
X89107300Y-128014500D01*
X89144334Y-128088874D01*
X89210758Y-128176833D01*
X89277183Y-128264795D01*
X89440094Y-128413308D01*
X89627524Y-128529359D01*
X89843797Y-128613144D01*
X89842936Y-128615365D01*
X89889122Y-128638364D01*
X89924849Y-128696066D01*
X89924849Y-128763934D01*
X89889122Y-128821636D01*
X89842936Y-128844634D01*
X89843797Y-128846856D01*
X89627524Y-128930640D01*
X89440094Y-129046691D01*
X89277183Y-129195204D01*
X89144334Y-129371126D01*
X89046070Y-129568463D01*
X88985744Y-129780492D01*
X88965404Y-130000000D01*
X65300500Y-130000000D01*
X65300500Y-126824999D01*
X66105404Y-126824999D01*
X66125744Y-127044507D01*
X66186070Y-127256536D01*
X66251758Y-127388454D01*
X66284334Y-127453874D01*
X66350758Y-127541834D01*
X66417183Y-127629795D01*
X66580094Y-127778308D01*
X66767524Y-127894359D01*
X66953916Y-127966567D01*
X66973083Y-127973993D01*
X67189777Y-128014500D01*
X67410221Y-128014500D01*
X67410223Y-128014500D01*
X67626917Y-127973993D01*
X67763956Y-127920903D01*
X67832475Y-127894359D01*
X67837035Y-127891536D01*
X68019905Y-127778308D01*
X68019904Y-127778308D01*
X68182816Y-127629795D01*
X68182817Y-127629794D01*
X68315666Y-127453874D01*
X68413928Y-127256538D01*
X68418494Y-127240492D01*
X68436606Y-127176832D01*
X68474256Y-127044506D01*
X68494596Y-126825000D01*
X68494596Y-126824999D01*
X71185404Y-126824999D01*
X71205744Y-127044507D01*
X71266070Y-127256536D01*
X71331758Y-127388454D01*
X71364334Y-127453874D01*
X71430758Y-127541834D01*
X71497183Y-127629795D01*
X71660094Y-127778308D01*
X71847524Y-127894359D01*
X72033916Y-127966567D01*
X72053083Y-127973993D01*
X72269777Y-128014500D01*
X72490221Y-128014500D01*
X72490223Y-128014500D01*
X72706917Y-127973993D01*
X72843956Y-127920903D01*
X72912475Y-127894359D01*
X72917035Y-127891536D01*
X73099905Y-127778308D01*
X73099904Y-127778308D01*
X73262816Y-127629795D01*
X73262817Y-127629794D01*
X73395666Y-127453874D01*
X73493928Y-127256538D01*
X73498494Y-127240492D01*
X73516606Y-127176832D01*
X73554256Y-127044506D01*
X73574596Y-126825000D01*
X73554256Y-126605494D01*
X73526144Y-126506691D01*
X73493929Y-126393463D01*
X73432700Y-126270500D01*
X73395666Y-126196126D01*
X73307704Y-126079647D01*
X73262816Y-126020204D01*
X73099905Y-125871691D01*
X72912475Y-125755640D01*
X72706921Y-125676008D01*
X72706918Y-125676007D01*
X72706917Y-125676007D01*
X72490223Y-125635500D01*
X72269777Y-125635500D01*
X72053083Y-125676007D01*
X72053078Y-125676008D01*
X71847524Y-125755640D01*
X71660094Y-125871691D01*
X71497183Y-126020204D01*
X71364334Y-126196126D01*
X71266070Y-126393463D01*
X71205744Y-126605492D01*
X71185404Y-126824999D01*
X68494596Y-126824999D01*
X68474256Y-126605494D01*
X68446144Y-126506691D01*
X68413929Y-126393463D01*
X68352700Y-126270500D01*
X68315666Y-126196126D01*
X68227704Y-126079647D01*
X68182816Y-126020204D01*
X68019905Y-125871691D01*
X67832475Y-125755640D01*
X67626921Y-125676008D01*
X67626918Y-125676007D01*
X67626917Y-125676007D01*
X67410223Y-125635500D01*
X67189777Y-125635500D01*
X66973083Y-125676007D01*
X66973078Y-125676008D01*
X66767524Y-125755640D01*
X66580094Y-125871691D01*
X66417183Y-126020204D01*
X66284334Y-126196126D01*
X66186070Y-126393463D01*
X66125744Y-126605492D01*
X66105404Y-126824999D01*
X65300500Y-126824999D01*
X65300500Y-125282200D01*
X107852317Y-125282200D01*
X107872956Y-125438962D01*
X107933463Y-125585040D01*
X108029717Y-125710482D01*
X108155159Y-125806736D01*
X108301238Y-125867244D01*
X108458000Y-125887882D01*
X108614762Y-125867244D01*
X108760841Y-125806736D01*
X108886282Y-125710482D01*
X108982536Y-125585041D01*
X109043044Y-125438962D01*
X109063682Y-125282200D01*
X109043044Y-125125438D01*
X108982536Y-124979359D01*
X108982535Y-124979358D01*
X108886282Y-124853917D01*
X108760840Y-124757663D01*
X108614762Y-124697156D01*
X108458000Y-124676517D01*
X108301237Y-124697156D01*
X108155159Y-124757663D01*
X108029717Y-124853917D01*
X107933463Y-124979359D01*
X107872956Y-125125437D01*
X107852317Y-125282200D01*
X65300500Y-125282200D01*
X65300500Y-122380000D01*
X71884052Y-122380000D01*
X71903807Y-122618402D01*
X71962535Y-122850312D01*
X72058627Y-123069382D01*
X72189473Y-123269656D01*
X72351493Y-123445657D01*
X72471765Y-123539267D01*
X72540275Y-123592591D01*
X72750665Y-123706449D01*
X72863796Y-123745287D01*
X72976923Y-123784124D01*
X72976925Y-123784124D01*
X72976927Y-123784125D01*
X73212888Y-123823500D01*
X73452111Y-123823500D01*
X73452112Y-123823500D01*
X73688073Y-123784125D01*
X73914335Y-123706449D01*
X74124725Y-123592591D01*
X74313506Y-123445657D01*
X74475528Y-123269655D01*
X74606371Y-123069385D01*
X74702466Y-122850310D01*
X74761192Y-122618407D01*
X74780947Y-122380000D01*
X85219052Y-122380000D01*
X85238807Y-122618402D01*
X85297535Y-122850312D01*
X85393627Y-123069382D01*
X85524473Y-123269656D01*
X85686493Y-123445657D01*
X85806765Y-123539267D01*
X85875275Y-123592591D01*
X86085665Y-123706449D01*
X86198796Y-123745287D01*
X86311923Y-123784124D01*
X86311925Y-123784124D01*
X86311927Y-123784125D01*
X86547888Y-123823500D01*
X86787111Y-123823500D01*
X86787112Y-123823500D01*
X87023073Y-123784125D01*
X87249335Y-123706449D01*
X87459725Y-123592591D01*
X87648506Y-123445657D01*
X87810528Y-123269655D01*
X87941371Y-123069385D01*
X88037466Y-122850310D01*
X88096192Y-122618407D01*
X88115947Y-122380000D01*
X88115947Y-122379999D01*
X141884052Y-122379999D01*
X141903807Y-122618402D01*
X141962535Y-122850312D01*
X142058627Y-123069382D01*
X142189473Y-123269656D01*
X142351493Y-123445657D01*
X142471765Y-123539267D01*
X142540275Y-123592591D01*
X142750665Y-123706449D01*
X142863796Y-123745287D01*
X142976923Y-123784124D01*
X142976925Y-123784124D01*
X142976927Y-123784125D01*
X143212888Y-123823500D01*
X143452111Y-123823500D01*
X143452112Y-123823500D01*
X143688073Y-123784125D01*
X143914335Y-123706449D01*
X144124725Y-123592591D01*
X144313506Y-123445657D01*
X144475528Y-123269655D01*
X144606371Y-123069385D01*
X144702466Y-122850310D01*
X144761192Y-122618407D01*
X144780947Y-122380000D01*
X155219052Y-122380000D01*
X155238807Y-122618402D01*
X155297535Y-122850312D01*
X155393627Y-123069382D01*
X155524473Y-123269656D01*
X155686493Y-123445657D01*
X155806765Y-123539267D01*
X155875275Y-123592591D01*
X156085665Y-123706449D01*
X156198796Y-123745287D01*
X156311923Y-123784124D01*
X156311925Y-123784124D01*
X156311927Y-123784125D01*
X156547888Y-123823500D01*
X156787111Y-123823500D01*
X156787112Y-123823500D01*
X157023073Y-123784125D01*
X157249335Y-123706449D01*
X157459725Y-123592591D01*
X157648506Y-123445657D01*
X157810528Y-123269655D01*
X157941371Y-123069385D01*
X158037466Y-122850310D01*
X158096192Y-122618407D01*
X158115947Y-122380000D01*
X158096192Y-122141593D01*
X158037466Y-121909690D01*
X157941371Y-121690615D01*
X157810528Y-121490345D01*
X157765804Y-121441762D01*
X157648506Y-121314342D01*
X157459726Y-121167410D01*
X157459725Y-121167409D01*
X157249335Y-121053551D01*
X157249331Y-121053549D01*
X157249330Y-121053549D01*
X157023076Y-120975875D01*
X156846102Y-120946343D01*
X156787112Y-120936500D01*
X156547888Y-120936500D01*
X156500695Y-120944375D01*
X156311923Y-120975875D01*
X156085669Y-121053549D01*
X155875273Y-121167410D01*
X155686493Y-121314342D01*
X155524473Y-121490343D01*
X155393627Y-121690617D01*
X155297535Y-121909687D01*
X155238807Y-122141597D01*
X155219052Y-122380000D01*
X144780947Y-122380000D01*
X144761192Y-122141593D01*
X144702466Y-121909690D01*
X144606371Y-121690615D01*
X144475528Y-121490345D01*
X144430804Y-121441762D01*
X144313506Y-121314342D01*
X144124726Y-121167410D01*
X144124725Y-121167409D01*
X143914335Y-121053551D01*
X143914331Y-121053549D01*
X143914330Y-121053549D01*
X143688076Y-120975875D01*
X143511102Y-120946343D01*
X143452112Y-120936500D01*
X143212888Y-120936500D01*
X143165695Y-120944375D01*
X142976923Y-120975875D01*
X142750669Y-121053549D01*
X142540273Y-121167410D01*
X142351493Y-121314342D01*
X142189473Y-121490343D01*
X142058627Y-121690617D01*
X141962535Y-121909687D01*
X141903807Y-122141597D01*
X141884052Y-122379999D01*
X88115947Y-122379999D01*
X88096192Y-122141593D01*
X88037466Y-121909690D01*
X87947417Y-121704399D01*
X116335917Y-121704399D01*
X116356556Y-121861162D01*
X116417063Y-122007240D01*
X116513317Y-122132682D01*
X116638758Y-122228935D01*
X116638759Y-122228936D01*
X116784838Y-122289444D01*
X116941600Y-122310082D01*
X117098362Y-122289444D01*
X117244441Y-122228936D01*
X117369882Y-122132682D01*
X117466136Y-122007241D01*
X117526644Y-121861162D01*
X117547282Y-121704400D01*
X117547282Y-121704399D01*
X118164717Y-121704399D01*
X118185356Y-121861162D01*
X118245863Y-122007240D01*
X118342117Y-122132682D01*
X118467558Y-122228935D01*
X118467559Y-122228936D01*
X118613638Y-122289444D01*
X118770400Y-122310082D01*
X118927162Y-122289444D01*
X119073241Y-122228936D01*
X119198682Y-122132682D01*
X119294936Y-122007241D01*
X119355444Y-121861162D01*
X119376082Y-121704400D01*
X119355444Y-121547638D01*
X119294936Y-121401559D01*
X119198682Y-121276117D01*
X119073240Y-121179863D01*
X118927162Y-121119356D01*
X118770400Y-121098717D01*
X118613637Y-121119356D01*
X118467559Y-121179863D01*
X118342117Y-121276117D01*
X118245863Y-121401559D01*
X118185356Y-121547637D01*
X118164717Y-121704399D01*
X117547282Y-121704399D01*
X117526644Y-121547638D01*
X117466136Y-121401559D01*
X117369882Y-121276117D01*
X117244440Y-121179863D01*
X117098362Y-121119356D01*
X116941600Y-121098717D01*
X116784837Y-121119356D01*
X116638759Y-121179863D01*
X116513317Y-121276117D01*
X116417063Y-121401559D01*
X116356556Y-121547637D01*
X116335917Y-121704399D01*
X87947417Y-121704399D01*
X87941371Y-121690615D01*
X87810528Y-121490345D01*
X87765804Y-121441762D01*
X87648506Y-121314342D01*
X87459726Y-121167410D01*
X87459725Y-121167409D01*
X87249335Y-121053551D01*
X87249331Y-121053549D01*
X87249330Y-121053549D01*
X87023076Y-120975875D01*
X86846102Y-120946343D01*
X86787112Y-120936500D01*
X86547888Y-120936500D01*
X86500695Y-120944375D01*
X86311923Y-120975875D01*
X86085669Y-121053549D01*
X85875273Y-121167410D01*
X85686493Y-121314342D01*
X85524473Y-121490343D01*
X85393627Y-121690617D01*
X85297535Y-121909687D01*
X85238807Y-122141597D01*
X85219052Y-122380000D01*
X74780947Y-122380000D01*
X74761192Y-122141593D01*
X74702466Y-121909690D01*
X74606371Y-121690615D01*
X74475528Y-121490345D01*
X74430804Y-121441762D01*
X74313506Y-121314342D01*
X74124726Y-121167410D01*
X74124725Y-121167409D01*
X73914335Y-121053551D01*
X73914331Y-121053549D01*
X73914330Y-121053549D01*
X73688076Y-120975875D01*
X73511102Y-120946343D01*
X73452112Y-120936500D01*
X73212888Y-120936500D01*
X73165695Y-120944375D01*
X72976923Y-120975875D01*
X72750669Y-121053549D01*
X72540273Y-121167410D01*
X72351493Y-121314342D01*
X72189473Y-121490343D01*
X72058627Y-121690617D01*
X71962535Y-121909687D01*
X71903807Y-122141597D01*
X71884052Y-122380000D01*
X65300500Y-122380000D01*
X65300500Y-119761000D01*
X107344317Y-119761000D01*
X107364956Y-119917762D01*
X107425463Y-120063840D01*
X107521717Y-120189282D01*
X107647159Y-120285536D01*
X107793238Y-120346044D01*
X107950000Y-120366682D01*
X108106762Y-120346044D01*
X108201988Y-120306600D01*
X109096917Y-120306600D01*
X109117556Y-120463362D01*
X109178063Y-120609440D01*
X109274317Y-120734882D01*
X109399758Y-120831135D01*
X109399759Y-120831136D01*
X109545838Y-120891644D01*
X109702600Y-120912282D01*
X109859362Y-120891644D01*
X110005441Y-120831136D01*
X110130882Y-120734882D01*
X110227136Y-120609441D01*
X110287644Y-120463362D01*
X110299856Y-120370599D01*
X113142517Y-120370599D01*
X113163156Y-120527362D01*
X113223663Y-120673440D01*
X113319917Y-120798882D01*
X113440807Y-120891643D01*
X113445359Y-120895136D01*
X113591438Y-120955644D01*
X113748200Y-120976282D01*
X113904962Y-120955644D01*
X114051041Y-120895136D01*
X114176482Y-120798882D01*
X114272736Y-120673441D01*
X114333244Y-120527362D01*
X114353882Y-120370600D01*
X114333244Y-120213838D01*
X114272736Y-120067759D01*
X114269729Y-120063840D01*
X114176482Y-119942317D01*
X114051040Y-119846063D01*
X113904962Y-119785556D01*
X113748200Y-119764917D01*
X113591437Y-119785556D01*
X113445359Y-119846063D01*
X113319917Y-119942317D01*
X113223663Y-120067759D01*
X113163156Y-120213837D01*
X113142517Y-120370599D01*
X110299856Y-120370599D01*
X110308282Y-120306600D01*
X110287644Y-120149838D01*
X110227136Y-120003759D01*
X110165758Y-119923769D01*
X110130882Y-119878317D01*
X110005440Y-119782063D01*
X109954587Y-119760999D01*
X131474317Y-119760999D01*
X131494956Y-119917762D01*
X131555463Y-120063840D01*
X131651717Y-120189282D01*
X131777159Y-120285536D01*
X131923238Y-120346044D01*
X132080000Y-120366682D01*
X132236762Y-120346044D01*
X132382841Y-120285536D01*
X132508282Y-120189282D01*
X132604536Y-120063841D01*
X132634758Y-119990877D01*
X132673832Y-119939955D01*
X132733133Y-119915391D01*
X132796771Y-119923769D01*
X132847694Y-119962843D01*
X132872258Y-120022144D01*
X132891956Y-120171762D01*
X132952463Y-120317840D01*
X133048717Y-120443282D01*
X133187110Y-120549474D01*
X133185847Y-120551118D01*
X133211106Y-120569471D01*
X133237388Y-120621054D01*
X133237388Y-120678946D01*
X133211106Y-120730529D01*
X133185847Y-120748881D01*
X133187110Y-120750526D01*
X133048717Y-120856717D01*
X132952463Y-120982159D01*
X132891956Y-121128237D01*
X132871317Y-121284999D01*
X132891956Y-121441762D01*
X132952463Y-121587840D01*
X133048717Y-121713282D01*
X133174158Y-121809535D01*
X133174159Y-121809536D01*
X133320238Y-121870044D01*
X133477000Y-121890682D01*
X133633762Y-121870044D01*
X133779841Y-121809536D01*
X133905282Y-121713282D01*
X134001536Y-121587841D01*
X134062044Y-121441762D01*
X134082682Y-121285000D01*
X134062044Y-121128238D01*
X134001536Y-120982159D01*
X133996714Y-120975875D01*
X133905282Y-120856717D01*
X133766890Y-120750526D01*
X133768151Y-120748881D01*
X133742896Y-120730533D01*
X133716611Y-120678948D01*
X133716611Y-120621052D01*
X133742896Y-120569467D01*
X133768151Y-120551118D01*
X133766890Y-120549474D01*
X133905282Y-120443282D01*
X133905281Y-120443282D01*
X134001536Y-120317841D01*
X134062044Y-120171762D01*
X134082682Y-120015000D01*
X134062044Y-119858238D01*
X134001536Y-119712159D01*
X133918725Y-119604237D01*
X133905282Y-119586717D01*
X133779840Y-119490463D01*
X133633762Y-119429956D01*
X133477000Y-119409317D01*
X133320237Y-119429956D01*
X133174159Y-119490463D01*
X133048717Y-119586717D01*
X132952463Y-119712158D01*
X132922241Y-119785122D01*
X132883166Y-119836045D01*
X132823865Y-119860608D01*
X132760227Y-119852230D01*
X132709304Y-119813155D01*
X132684741Y-119753854D01*
X132679252Y-119712159D01*
X132665044Y-119604238D01*
X132604536Y-119458159D01*
X132567059Y-119409318D01*
X132508282Y-119332717D01*
X132382840Y-119236463D01*
X132236762Y-119175956D01*
X132080000Y-119155317D01*
X131923237Y-119175956D01*
X131777159Y-119236463D01*
X131651717Y-119332717D01*
X131555463Y-119458159D01*
X131494956Y-119604237D01*
X131474317Y-119760999D01*
X109954587Y-119760999D01*
X109859362Y-119721556D01*
X109702600Y-119700917D01*
X109545837Y-119721556D01*
X109399759Y-119782063D01*
X109274317Y-119878317D01*
X109178063Y-120003759D01*
X109117556Y-120149837D01*
X109096917Y-120306600D01*
X108201988Y-120306600D01*
X108252841Y-120285536D01*
X108378282Y-120189282D01*
X108474536Y-120063841D01*
X108535044Y-119917762D01*
X108555682Y-119761000D01*
X108535044Y-119604238D01*
X108474536Y-119458159D01*
X108437059Y-119409318D01*
X108378282Y-119332717D01*
X108252840Y-119236463D01*
X108106762Y-119175956D01*
X107950000Y-119155317D01*
X107793237Y-119175956D01*
X107647159Y-119236463D01*
X107521717Y-119332717D01*
X107425463Y-119458159D01*
X107364956Y-119604237D01*
X107344317Y-119761000D01*
X65300500Y-119761000D01*
X65300500Y-115451009D01*
X65314511Y-115393752D01*
X65340165Y-115364499D01*
X83722317Y-115364499D01*
X83742956Y-115521262D01*
X83803463Y-115667340D01*
X83899717Y-115792782D01*
X83978089Y-115852918D01*
X84025159Y-115889036D01*
X84171238Y-115949544D01*
X84328000Y-115970182D01*
X84484762Y-115949544D01*
X84630841Y-115889036D01*
X84756282Y-115792782D01*
X84852536Y-115667341D01*
X84913044Y-115521262D01*
X84933682Y-115364500D01*
X84913044Y-115207738D01*
X84852536Y-115061659D01*
X84852535Y-115061658D01*
X84756282Y-114936217D01*
X84630840Y-114839963D01*
X84484762Y-114779456D01*
X84328000Y-114758817D01*
X84171237Y-114779456D01*
X84025159Y-114839963D01*
X83899717Y-114936217D01*
X83803463Y-115061659D01*
X83742956Y-115207737D01*
X83722317Y-115364499D01*
X65340165Y-115364499D01*
X65353377Y-115349434D01*
X65408314Y-115328070D01*
X65464919Y-115320618D01*
X65491942Y-115317061D01*
X65508126Y-115316000D01*
X81288001Y-115316000D01*
X81788000Y-115316000D01*
X81788000Y-111022824D01*
X99679000Y-111022824D01*
X99685402Y-111082375D01*
X99735647Y-111217089D01*
X99821811Y-111332188D01*
X99936910Y-111418352D01*
X100064209Y-111465832D01*
X100112567Y-111498536D01*
X100140602Y-111549742D01*
X100142100Y-111608102D01*
X100116728Y-111660679D01*
X100038976Y-111755419D01*
X99948396Y-111924883D01*
X99892614Y-112108770D01*
X99873780Y-112299999D01*
X99892614Y-112491229D01*
X99948396Y-112675116D01*
X100027140Y-112822437D01*
X100038977Y-112844581D01*
X100160880Y-112993120D01*
X100309419Y-113115023D01*
X100369184Y-113146968D01*
X100450892Y-113190642D01*
X100498797Y-113236251D01*
X100516439Y-113300000D01*
X100498797Y-113363749D01*
X100450892Y-113409358D01*
X100309420Y-113484976D01*
X100160880Y-113606880D01*
X100038976Y-113755419D01*
X99948396Y-113924883D01*
X99892614Y-114108770D01*
X99873780Y-114300000D01*
X99892614Y-114491229D01*
X99948396Y-114675116D01*
X100038976Y-114844580D01*
X100057920Y-114867663D01*
X100160880Y-114993120D01*
X100309419Y-115115023D01*
X100392970Y-115159682D01*
X100450892Y-115190642D01*
X100498797Y-115236251D01*
X100516439Y-115300000D01*
X100498797Y-115363749D01*
X100450892Y-115409358D01*
X100309420Y-115484976D01*
X100160880Y-115606880D01*
X100038976Y-115755419D01*
X99948396Y-115924883D01*
X99892614Y-116108770D01*
X99873780Y-116300000D01*
X99892614Y-116491229D01*
X99948396Y-116675116D01*
X100027689Y-116823464D01*
X100038977Y-116844581D01*
X100160880Y-116993120D01*
X100309419Y-117115023D01*
X100450896Y-117190644D01*
X100498797Y-117236250D01*
X100516439Y-117299998D01*
X100498798Y-117363747D01*
X100450893Y-117409357D01*
X100309418Y-117484977D01*
X100160880Y-117606880D01*
X100038976Y-117755419D01*
X99948396Y-117924883D01*
X99892614Y-118108770D01*
X99873780Y-118300000D01*
X99892614Y-118491229D01*
X99948396Y-118675116D01*
X100018296Y-118805891D01*
X100038977Y-118844581D01*
X100160880Y-118993120D01*
X100309419Y-119115023D01*
X100478886Y-119205605D01*
X100662769Y-119261385D01*
X100854000Y-119280220D01*
X101045231Y-119261385D01*
X101229114Y-119205605D01*
X101398581Y-119115023D01*
X101547120Y-118993120D01*
X101669023Y-118844581D01*
X101744642Y-118703105D01*
X101790251Y-118655202D01*
X101854000Y-118637560D01*
X101917749Y-118655202D01*
X101963357Y-118703105D01*
X102038977Y-118844581D01*
X102160880Y-118993120D01*
X102309419Y-119115023D01*
X102478886Y-119205605D01*
X102662769Y-119261385D01*
X102854000Y-119280220D01*
X103045231Y-119261385D01*
X103229114Y-119205605D01*
X103398581Y-119115023D01*
X103547120Y-118993120D01*
X103669023Y-118844581D01*
X103759605Y-118675114D01*
X103815385Y-118491231D01*
X103834220Y-118300000D01*
X103815385Y-118108769D01*
X103759605Y-117924886D01*
X103722785Y-117856000D01*
X105312317Y-117856000D01*
X105332956Y-118012762D01*
X105393463Y-118158840D01*
X105489717Y-118284282D01*
X105555922Y-118335082D01*
X105615159Y-118380536D01*
X105761238Y-118441044D01*
X105918000Y-118461682D01*
X106074762Y-118441044D01*
X106220841Y-118380536D01*
X106224656Y-118377609D01*
X108067917Y-118377609D01*
X108088556Y-118534371D01*
X108149063Y-118680449D01*
X108245317Y-118805891D01*
X108370759Y-118902145D01*
X108516838Y-118962653D01*
X108673600Y-118983291D01*
X108830362Y-118962653D01*
X108976441Y-118902145D01*
X109101882Y-118805891D01*
X109198136Y-118680450D01*
X109258644Y-118534371D01*
X109279282Y-118377609D01*
X109258644Y-118220847D01*
X109198136Y-118074768D01*
X109164001Y-118030282D01*
X109101882Y-117949326D01*
X108976440Y-117853072D01*
X108830362Y-117792565D01*
X108673600Y-117771926D01*
X108516837Y-117792565D01*
X108370759Y-117853072D01*
X108245317Y-117949326D01*
X108149063Y-118074768D01*
X108088556Y-118220846D01*
X108067917Y-118377609D01*
X106224656Y-118377609D01*
X106346282Y-118284282D01*
X106442536Y-118158841D01*
X106503044Y-118012762D01*
X106523682Y-117856000D01*
X106503044Y-117699238D01*
X106442536Y-117553159D01*
X106405400Y-117504762D01*
X106346282Y-117427717D01*
X106242392Y-117348000D01*
X111154317Y-117348000D01*
X111174956Y-117504762D01*
X111235463Y-117650840D01*
X111331717Y-117776282D01*
X111352938Y-117792565D01*
X111457159Y-117872536D01*
X111603238Y-117933044D01*
X111760000Y-117953682D01*
X111916762Y-117933044D01*
X112062841Y-117872536D01*
X112188282Y-117776282D01*
X112284536Y-117650841D01*
X112304767Y-117602000D01*
X113186317Y-117602000D01*
X113206956Y-117758762D01*
X113267463Y-117904840D01*
X113363717Y-118030282D01*
X113478908Y-118118670D01*
X113489159Y-118126536D01*
X113635238Y-118187044D01*
X113792000Y-118207682D01*
X113948762Y-118187044D01*
X114094841Y-118126536D01*
X114220282Y-118030282D01*
X114315033Y-117906800D01*
X118164717Y-117906800D01*
X118185356Y-118063562D01*
X118245863Y-118209640D01*
X118342117Y-118335082D01*
X118467558Y-118431335D01*
X118467559Y-118431336D01*
X118613638Y-118491844D01*
X118770400Y-118512482D01*
X118927162Y-118491844D01*
X119073241Y-118431336D01*
X119198682Y-118335082D01*
X119294936Y-118209641D01*
X119355444Y-118063562D01*
X119376082Y-117906800D01*
X119355444Y-117750038D01*
X119299808Y-117615721D01*
X124106576Y-117615721D01*
X124127215Y-117772483D01*
X124187722Y-117918561D01*
X124283976Y-118044003D01*
X124391536Y-118126536D01*
X124409418Y-118140257D01*
X124555497Y-118200765D01*
X124712259Y-118221403D01*
X124869021Y-118200765D01*
X125015100Y-118140257D01*
X125057168Y-118107976D01*
X125111122Y-118084236D01*
X125169942Y-118088091D01*
X125220335Y-118118670D01*
X125250916Y-118169063D01*
X125254771Y-118227883D01*
X125231032Y-118281837D01*
X125205463Y-118315159D01*
X125144956Y-118461237D01*
X125124317Y-118618000D01*
X125144956Y-118774762D01*
X125205463Y-118920840D01*
X125301717Y-119046282D01*
X125391303Y-119115023D01*
X125427159Y-119142536D01*
X125573238Y-119203044D01*
X125730000Y-119223682D01*
X125886762Y-119203044D01*
X126032841Y-119142536D01*
X126158282Y-119046282D01*
X126254536Y-118920841D01*
X126315044Y-118774762D01*
X126335682Y-118618000D01*
X127029317Y-118618000D01*
X127049956Y-118774762D01*
X127110463Y-118920840D01*
X127206717Y-119046282D01*
X127296303Y-119115023D01*
X127332159Y-119142536D01*
X127478238Y-119203044D01*
X127635000Y-119223682D01*
X127791762Y-119203044D01*
X127937841Y-119142536D01*
X128063282Y-119046282D01*
X128159536Y-118920841D01*
X128220044Y-118774762D01*
X128240682Y-118618000D01*
X128220044Y-118461238D01*
X128159536Y-118315159D01*
X128087595Y-118221403D01*
X128063282Y-118189717D01*
X127937840Y-118093463D01*
X127791762Y-118032956D01*
X127635000Y-118012317D01*
X127478237Y-118032956D01*
X127332159Y-118093463D01*
X127206717Y-118189717D01*
X127110463Y-118315159D01*
X127049956Y-118461237D01*
X127029317Y-118618000D01*
X126335682Y-118618000D01*
X126315044Y-118461238D01*
X126254536Y-118315159D01*
X126182595Y-118221403D01*
X126158282Y-118189717D01*
X126032840Y-118093463D01*
X125886762Y-118032956D01*
X125730000Y-118012317D01*
X125573237Y-118032956D01*
X125427159Y-118093463D01*
X125385088Y-118125745D01*
X125331134Y-118149484D01*
X125272314Y-118145628D01*
X125221921Y-118115048D01*
X125191342Y-118064654D01*
X125187487Y-118005834D01*
X125211226Y-117951883D01*
X125236795Y-117918562D01*
X125297303Y-117772483D01*
X125317941Y-117615721D01*
X125299415Y-117474999D01*
X132998317Y-117474999D01*
X133018956Y-117631762D01*
X133079463Y-117777840D01*
X133175717Y-117903282D01*
X133252813Y-117962439D01*
X133301159Y-117999536D01*
X133447238Y-118060044D01*
X133604000Y-118080682D01*
X133760762Y-118060044D01*
X133906841Y-117999536D01*
X134032282Y-117903282D01*
X134128536Y-117777841D01*
X134189044Y-117631762D01*
X134209682Y-117475000D01*
X134189044Y-117318238D01*
X134128536Y-117172159D01*
X134084694Y-117115023D01*
X134032282Y-117046717D01*
X133906840Y-116950463D01*
X133760762Y-116889956D01*
X133604000Y-116869317D01*
X133447237Y-116889956D01*
X133301159Y-116950463D01*
X133175717Y-117046717D01*
X133079463Y-117172159D01*
X133018956Y-117318237D01*
X132998317Y-117474999D01*
X125299415Y-117474999D01*
X125297303Y-117458959D01*
X125236795Y-117312880D01*
X125177995Y-117236250D01*
X125140541Y-117187438D01*
X125015099Y-117091184D01*
X124869021Y-117030677D01*
X124712259Y-117010038D01*
X124555496Y-117030677D01*
X124409418Y-117091184D01*
X124283976Y-117187438D01*
X124187722Y-117312880D01*
X124127215Y-117458958D01*
X124106576Y-117615721D01*
X119299808Y-117615721D01*
X119294936Y-117603959D01*
X119218820Y-117504762D01*
X119198682Y-117478517D01*
X119073240Y-117382263D01*
X118927162Y-117321756D01*
X118770400Y-117301117D01*
X118613637Y-117321756D01*
X118467559Y-117382263D01*
X118342117Y-117478517D01*
X118245863Y-117603959D01*
X118185356Y-117750037D01*
X118164717Y-117906800D01*
X114315033Y-117906800D01*
X114316536Y-117904841D01*
X114377044Y-117758762D01*
X114397682Y-117602000D01*
X114377044Y-117445238D01*
X114316536Y-117299159D01*
X114279059Y-117250318D01*
X114220282Y-117173717D01*
X114094840Y-117077463D01*
X113948762Y-117016956D01*
X113792000Y-116996317D01*
X113635237Y-117016956D01*
X113489159Y-117077463D01*
X113363717Y-117173717D01*
X113267463Y-117299159D01*
X113206956Y-117445237D01*
X113186317Y-117602000D01*
X112304767Y-117602000D01*
X112345044Y-117504762D01*
X112365682Y-117348000D01*
X112345044Y-117191238D01*
X112284536Y-117045159D01*
X112247059Y-116996318D01*
X112188282Y-116919717D01*
X112062840Y-116823463D01*
X111916762Y-116762956D01*
X111760000Y-116742317D01*
X111603237Y-116762956D01*
X111457159Y-116823463D01*
X111331717Y-116919717D01*
X111235463Y-117045159D01*
X111174956Y-117191237D01*
X111154317Y-117348000D01*
X106242392Y-117348000D01*
X106220840Y-117331463D01*
X106074762Y-117270956D01*
X105918000Y-117250317D01*
X105761237Y-117270956D01*
X105615159Y-117331463D01*
X105489717Y-117427717D01*
X105393463Y-117553159D01*
X105332956Y-117699237D01*
X105312317Y-117856000D01*
X103722785Y-117856000D01*
X103669023Y-117755419D01*
X103547120Y-117606880D01*
X103398581Y-117484977D01*
X103379915Y-117475000D01*
X103257107Y-117409357D01*
X103209201Y-117363747D01*
X103191560Y-117299998D01*
X103209202Y-117236250D01*
X103257103Y-117190644D01*
X103398581Y-117115023D01*
X103547120Y-116993120D01*
X103669023Y-116844581D01*
X103759605Y-116675114D01*
X103810379Y-116507733D01*
X115550583Y-116507733D01*
X115571222Y-116664496D01*
X115631729Y-116810574D01*
X115727983Y-116936016D01*
X115824453Y-117010039D01*
X115853425Y-117032270D01*
X115999504Y-117092778D01*
X116156266Y-117113416D01*
X116313028Y-117092778D01*
X116459107Y-117032270D01*
X116584548Y-116936016D01*
X116680802Y-116810575D01*
X116741310Y-116664496D01*
X116761948Y-116507734D01*
X116741310Y-116350972D01*
X116712409Y-116281200D01*
X118164717Y-116281200D01*
X118185356Y-116437962D01*
X118245863Y-116584040D01*
X118342117Y-116709482D01*
X118467558Y-116805735D01*
X118467559Y-116805736D01*
X118613638Y-116866244D01*
X118770400Y-116886882D01*
X118927162Y-116866244D01*
X119073241Y-116805736D01*
X119198682Y-116709482D01*
X119294936Y-116584041D01*
X119355444Y-116437962D01*
X119376082Y-116281200D01*
X119355444Y-116124438D01*
X119294936Y-115978359D01*
X119252220Y-115922690D01*
X119198682Y-115852917D01*
X119073240Y-115756663D01*
X118927162Y-115696156D01*
X118770400Y-115675517D01*
X118613637Y-115696156D01*
X118467559Y-115756663D01*
X118342117Y-115852917D01*
X118245863Y-115978359D01*
X118185356Y-116124437D01*
X118164717Y-116281200D01*
X116712409Y-116281200D01*
X116680802Y-116204893D01*
X116619067Y-116124438D01*
X116584548Y-116079451D01*
X116459106Y-115983197D01*
X116313028Y-115922690D01*
X116156266Y-115902051D01*
X115999503Y-115922690D01*
X115853425Y-115983197D01*
X115727983Y-116079451D01*
X115631729Y-116204893D01*
X115571222Y-116350971D01*
X115550583Y-116507733D01*
X103810379Y-116507733D01*
X103815385Y-116491231D01*
X103834220Y-116300000D01*
X103815385Y-116108769D01*
X103759605Y-115924886D01*
X103705680Y-115824000D01*
X105312317Y-115824000D01*
X105332956Y-115980762D01*
X105393463Y-116126840D01*
X105489717Y-116252282D01*
X105551905Y-116300000D01*
X105615159Y-116348536D01*
X105761238Y-116409044D01*
X105918000Y-116429682D01*
X106074762Y-116409044D01*
X106220841Y-116348536D01*
X106346282Y-116252282D01*
X106442536Y-116126841D01*
X106503044Y-115980762D01*
X106523682Y-115824000D01*
X106503044Y-115667238D01*
X106442536Y-115521159D01*
X106414772Y-115484976D01*
X106346282Y-115395717D01*
X106341699Y-115392200D01*
X106861717Y-115392200D01*
X106882356Y-115548962D01*
X106942863Y-115695040D01*
X107039117Y-115820482D01*
X107138698Y-115896892D01*
X107164559Y-115916736D01*
X107310638Y-115977244D01*
X107467400Y-115997882D01*
X107624162Y-115977244D01*
X107770241Y-115916736D01*
X107895682Y-115820482D01*
X107991936Y-115695041D01*
X108052444Y-115548962D01*
X108073082Y-115392200D01*
X108052444Y-115235438D01*
X107991936Y-115089359D01*
X107970681Y-115061659D01*
X107895682Y-114963917D01*
X107770240Y-114867663D01*
X107624162Y-114807156D01*
X107467400Y-114786517D01*
X107310637Y-114807156D01*
X107164559Y-114867663D01*
X107039117Y-114963917D01*
X106942863Y-115089359D01*
X106882356Y-115235437D01*
X106861717Y-115392200D01*
X106341699Y-115392200D01*
X106220840Y-115299463D01*
X106074762Y-115238956D01*
X105918000Y-115218317D01*
X105761237Y-115238956D01*
X105615159Y-115299463D01*
X105489717Y-115395717D01*
X105393463Y-115521159D01*
X105332956Y-115667237D01*
X105312317Y-115824000D01*
X103705680Y-115824000D01*
X103669023Y-115755419D01*
X103547120Y-115606880D01*
X103398581Y-115484977D01*
X103383308Y-115476813D01*
X103257107Y-115409357D01*
X103209201Y-115363747D01*
X103191560Y-115299998D01*
X103209202Y-115236250D01*
X103257103Y-115190644D01*
X103398581Y-115115023D01*
X103547120Y-114993120D01*
X103669023Y-114844581D01*
X103759605Y-114675114D01*
X103796344Y-114554000D01*
X132998317Y-114554000D01*
X133018956Y-114710762D01*
X133079463Y-114856840D01*
X133175717Y-114982282D01*
X133189842Y-114993120D01*
X133301159Y-115078536D01*
X133447238Y-115139044D01*
X133604000Y-115159682D01*
X133760762Y-115139044D01*
X133906841Y-115078536D01*
X134032282Y-114982282D01*
X134128536Y-114856841D01*
X134189044Y-114710762D01*
X134209682Y-114554000D01*
X134189044Y-114397238D01*
X134128536Y-114251159D01*
X134128535Y-114251158D01*
X134032282Y-114125717D01*
X133906840Y-114029463D01*
X133760762Y-113968956D01*
X133604000Y-113948317D01*
X133447237Y-113968956D01*
X133301159Y-114029463D01*
X133175717Y-114125717D01*
X133079463Y-114251159D01*
X133018956Y-114397237D01*
X132998317Y-114554000D01*
X103796344Y-114554000D01*
X103815385Y-114491231D01*
X103834220Y-114300000D01*
X103815385Y-114108769D01*
X103759605Y-113924886D01*
X103669023Y-113755419D01*
X103547120Y-113606880D01*
X103398581Y-113484977D01*
X103398580Y-113484976D01*
X103287307Y-113425500D01*
X111789317Y-113425500D01*
X111809956Y-113582262D01*
X111870463Y-113728340D01*
X111966717Y-113853782D01*
X112022900Y-113896892D01*
X112092159Y-113950036D01*
X112238238Y-114010544D01*
X112395000Y-114031182D01*
X112551762Y-114010544D01*
X112697841Y-113950036D01*
X112823282Y-113853782D01*
X112919536Y-113728341D01*
X112980044Y-113582262D01*
X113000682Y-113425500D01*
X112980044Y-113268738D01*
X112919536Y-113122659D01*
X112913677Y-113115023D01*
X112848436Y-113029999D01*
X114456317Y-113029999D01*
X114476956Y-113186762D01*
X114537463Y-113332840D01*
X114633717Y-113458282D01*
X114759159Y-113554536D01*
X114905238Y-113615044D01*
X115062000Y-113635682D01*
X115218762Y-113615044D01*
X115364841Y-113554536D01*
X115490282Y-113458282D01*
X115586536Y-113332841D01*
X115633239Y-113220089D01*
X115667268Y-113173252D01*
X115718853Y-113146968D01*
X115776747Y-113146968D01*
X115828332Y-113173252D01*
X115862361Y-113220090D01*
X115909063Y-113332840D01*
X116005317Y-113458282D01*
X116130759Y-113554536D01*
X116276838Y-113615044D01*
X116433600Y-113635682D01*
X116590362Y-113615044D01*
X116736441Y-113554536D01*
X116861882Y-113458282D01*
X116958136Y-113332841D01*
X117018644Y-113186762D01*
X117039282Y-113030000D01*
X117032594Y-112979200D01*
X121568317Y-112979200D01*
X121588956Y-113135962D01*
X121649463Y-113282040D01*
X121745717Y-113407482D01*
X121811922Y-113458282D01*
X121871159Y-113503736D01*
X122017238Y-113564244D01*
X122174000Y-113584882D01*
X122330762Y-113564244D01*
X122476841Y-113503736D01*
X122602282Y-113407482D01*
X122698536Y-113282041D01*
X122759044Y-113135962D01*
X122779682Y-112979200D01*
X122759044Y-112822438D01*
X122698536Y-112676359D01*
X122654705Y-112619237D01*
X122602282Y-112550917D01*
X122476840Y-112454663D01*
X122330762Y-112394156D01*
X122174000Y-112373517D01*
X122017237Y-112394156D01*
X121871159Y-112454663D01*
X121745717Y-112550917D01*
X121649463Y-112676359D01*
X121588956Y-112822437D01*
X121568317Y-112979200D01*
X117032594Y-112979200D01*
X117018644Y-112873238D01*
X116958136Y-112727159D01*
X116902922Y-112655202D01*
X116861882Y-112601717D01*
X116736440Y-112505463D01*
X116590362Y-112444956D01*
X116433600Y-112424317D01*
X116276837Y-112444956D01*
X116130759Y-112505463D01*
X116005317Y-112601717D01*
X115909064Y-112727158D01*
X115862361Y-112839910D01*
X115828332Y-112886747D01*
X115776747Y-112913031D01*
X115718853Y-112913031D01*
X115667268Y-112886747D01*
X115633239Y-112839910D01*
X115626002Y-112822438D01*
X115586536Y-112727159D01*
X115531322Y-112655202D01*
X115490282Y-112601717D01*
X115364840Y-112505463D01*
X115218762Y-112444956D01*
X115062000Y-112424317D01*
X114905237Y-112444956D01*
X114759159Y-112505463D01*
X114633717Y-112601717D01*
X114537463Y-112727159D01*
X114476956Y-112873237D01*
X114456317Y-113029999D01*
X112848436Y-113029999D01*
X112823282Y-112997217D01*
X112697840Y-112900963D01*
X112551762Y-112840456D01*
X112395000Y-112819817D01*
X112238237Y-112840456D01*
X112092159Y-112900963D01*
X111966717Y-112997217D01*
X111870463Y-113122659D01*
X111809956Y-113268737D01*
X111789317Y-113425500D01*
X103287307Y-113425500D01*
X103257105Y-113409357D01*
X103209202Y-113363749D01*
X103191560Y-113300000D01*
X103209202Y-113236251D01*
X103257105Y-113190642D01*
X103398581Y-113115023D01*
X103547120Y-112993120D01*
X103669023Y-112844581D01*
X103759605Y-112675114D01*
X103815385Y-112491231D01*
X103834220Y-112300000D01*
X103833570Y-112293400D01*
X134522317Y-112293400D01*
X134542956Y-112450162D01*
X134603463Y-112596240D01*
X134699717Y-112721682D01*
X134825159Y-112817936D01*
X134971238Y-112878444D01*
X135128000Y-112899082D01*
X135284762Y-112878444D01*
X135430841Y-112817936D01*
X135485495Y-112775999D01*
X138586317Y-112775999D01*
X138606956Y-112932762D01*
X138667463Y-113078840D01*
X138763717Y-113204282D01*
X138865054Y-113282040D01*
X138889159Y-113300536D01*
X139035238Y-113361044D01*
X139192000Y-113381682D01*
X139348762Y-113361044D01*
X139494841Y-113300536D01*
X139620282Y-113204282D01*
X139716536Y-113078841D01*
X139777044Y-112932762D01*
X139797682Y-112776000D01*
X139777044Y-112619238D01*
X139716536Y-112473159D01*
X139679059Y-112424318D01*
X139620282Y-112347717D01*
X139545292Y-112290176D01*
X139509566Y-112246644D01*
X139496778Y-112191800D01*
X139509566Y-112136956D01*
X139545292Y-112093424D01*
X139620282Y-112035882D01*
X139673228Y-111966881D01*
X139716536Y-111910441D01*
X139777044Y-111764362D01*
X139797682Y-111607600D01*
X139777044Y-111450838D01*
X139716536Y-111304759D01*
X139639772Y-111204718D01*
X139620281Y-111179316D01*
X139578393Y-111147174D01*
X139542667Y-111103642D01*
X139529880Y-111048798D01*
X139542668Y-110993954D01*
X139578392Y-110950424D01*
X139620282Y-110918282D01*
X139716536Y-110792841D01*
X139777044Y-110646762D01*
X139797682Y-110490000D01*
X139777044Y-110333238D01*
X139716536Y-110187159D01*
X139693778Y-110157500D01*
X139620282Y-110061717D01*
X139594945Y-110042276D01*
X139559219Y-109998744D01*
X139546431Y-109943900D01*
X139559219Y-109889056D01*
X139594945Y-109845524D01*
X139620282Y-109826082D01*
X139625299Y-109819544D01*
X139716536Y-109700641D01*
X139777044Y-109554562D01*
X139797682Y-109397800D01*
X139777044Y-109241038D01*
X139716536Y-109094959D01*
X139678752Y-109045718D01*
X139620282Y-108969517D01*
X139494840Y-108873263D01*
X139348762Y-108812756D01*
X139192000Y-108792117D01*
X139035237Y-108812756D01*
X138889159Y-108873263D01*
X138763717Y-108969517D01*
X138667463Y-109094959D01*
X138606956Y-109241037D01*
X138586317Y-109397799D01*
X138606956Y-109554562D01*
X138667463Y-109700640D01*
X138763718Y-109826083D01*
X138789055Y-109845525D01*
X138824780Y-109889057D01*
X138837568Y-109943900D01*
X138824780Y-109998743D01*
X138789055Y-110042275D01*
X138763718Y-110061716D01*
X138667463Y-110187159D01*
X138606956Y-110333237D01*
X138586317Y-110489999D01*
X138606956Y-110646762D01*
X138667463Y-110792840D01*
X138763718Y-110918283D01*
X138805606Y-110950425D01*
X138841331Y-110993957D01*
X138854119Y-111048800D01*
X138841331Y-111103643D01*
X138805606Y-111147175D01*
X138763718Y-111179316D01*
X138667463Y-111304759D01*
X138606956Y-111450837D01*
X138586317Y-111607600D01*
X138606956Y-111764362D01*
X138667463Y-111910440D01*
X138728940Y-111990559D01*
X138763718Y-112035882D01*
X138796820Y-112061282D01*
X138838708Y-112093424D01*
X138874433Y-112136956D01*
X138887221Y-112191800D01*
X138874433Y-112246644D01*
X138838708Y-112290176D01*
X138763716Y-112347719D01*
X138667463Y-112473159D01*
X138606956Y-112619237D01*
X138586317Y-112775999D01*
X135485495Y-112775999D01*
X135556282Y-112721682D01*
X135652536Y-112596241D01*
X135713044Y-112450162D01*
X135733682Y-112293400D01*
X135713044Y-112136638D01*
X135652536Y-111990559D01*
X135610549Y-111935840D01*
X135556282Y-111865117D01*
X135430840Y-111768863D01*
X135284762Y-111708356D01*
X135128000Y-111687717D01*
X134971237Y-111708356D01*
X134825159Y-111768863D01*
X134699717Y-111865117D01*
X134603463Y-111990559D01*
X134542956Y-112136637D01*
X134522317Y-112293400D01*
X103833570Y-112293400D01*
X103815385Y-112108769D01*
X103759605Y-111924886D01*
X103669023Y-111755419D01*
X103568555Y-111632999D01*
X130585317Y-111632999D01*
X130605956Y-111789762D01*
X130666463Y-111935840D01*
X130762717Y-112061282D01*
X130888158Y-112157535D01*
X130888159Y-112157536D01*
X131034238Y-112218044D01*
X131191000Y-112238682D01*
X131347762Y-112218044D01*
X131493841Y-112157536D01*
X131619282Y-112061282D01*
X131715536Y-111935841D01*
X131767500Y-111810388D01*
X131801528Y-111763552D01*
X131853112Y-111737268D01*
X131911007Y-111737268D01*
X131962591Y-111763552D01*
X131996621Y-111810389D01*
X132038064Y-111910441D01*
X132134317Y-112035882D01*
X132209308Y-112093424D01*
X132259759Y-112132136D01*
X132405838Y-112192644D01*
X132562600Y-112213282D01*
X132719362Y-112192644D01*
X132865441Y-112132136D01*
X132990882Y-112035882D01*
X133087136Y-111910441D01*
X133147644Y-111764362D01*
X133168282Y-111607600D01*
X133147644Y-111450838D01*
X133087136Y-111304759D01*
X133053854Y-111261385D01*
X132990882Y-111179317D01*
X132961694Y-111156921D01*
X132925968Y-111113389D01*
X132913180Y-111058545D01*
X132925968Y-111003701D01*
X132961694Y-110960169D01*
X133016282Y-110918282D01*
X133016283Y-110918281D01*
X133112536Y-110792841D01*
X133173044Y-110646762D01*
X133193682Y-110490000D01*
X133173044Y-110333238D01*
X133112536Y-110187159D01*
X133089778Y-110157500D01*
X133016282Y-110061717D01*
X132990945Y-110042276D01*
X132955219Y-109998744D01*
X132942431Y-109943900D01*
X132955219Y-109889056D01*
X132990945Y-109845524D01*
X133016282Y-109826082D01*
X133021299Y-109819544D01*
X133112536Y-109700641D01*
X133173044Y-109554562D01*
X133193682Y-109397800D01*
X133173044Y-109241038D01*
X133112536Y-109094959D01*
X133074752Y-109045718D01*
X133016282Y-108969517D01*
X132890842Y-108873264D01*
X132887944Y-108872064D01*
X132885510Y-108871056D01*
X132838673Y-108837028D01*
X132812389Y-108785443D01*
X132812389Y-108727548D01*
X132838673Y-108675963D01*
X132885509Y-108641934D01*
X132983041Y-108601536D01*
X133108482Y-108505282D01*
X133204736Y-108379841D01*
X133265244Y-108233762D01*
X133285882Y-108077000D01*
X133265244Y-107920238D01*
X133204736Y-107774159D01*
X133181043Y-107743282D01*
X133144762Y-107695999D01*
X138332317Y-107695999D01*
X138352956Y-107852762D01*
X138413463Y-107998840D01*
X138509717Y-108124282D01*
X138613609Y-108204000D01*
X138635159Y-108220536D01*
X138781238Y-108281044D01*
X138938000Y-108301682D01*
X139094762Y-108281044D01*
X139240841Y-108220536D01*
X139285389Y-108186352D01*
X139344690Y-108161789D01*
X139408328Y-108170167D01*
X139459251Y-108209241D01*
X139483815Y-108268542D01*
X139495956Y-108360762D01*
X139556463Y-108506840D01*
X139652717Y-108632282D01*
X139753954Y-108709963D01*
X139778159Y-108728536D01*
X139924238Y-108789044D01*
X140081000Y-108809682D01*
X140237762Y-108789044D01*
X140383841Y-108728536D01*
X140509282Y-108632282D01*
X140605536Y-108506841D01*
X140666044Y-108360762D01*
X140686682Y-108204000D01*
X140666044Y-108047238D01*
X140605536Y-107901159D01*
X140604680Y-107900044D01*
X140509282Y-107775717D01*
X140383840Y-107679463D01*
X140237762Y-107618956D01*
X140081000Y-107598317D01*
X139924237Y-107618956D01*
X139778159Y-107679463D01*
X139733608Y-107713648D01*
X139674307Y-107738210D01*
X139610669Y-107729832D01*
X139559747Y-107690757D01*
X139535184Y-107631458D01*
X139523044Y-107539238D01*
X139462536Y-107393159D01*
X139402563Y-107315000D01*
X139366282Y-107267717D01*
X139240840Y-107171463D01*
X139094762Y-107110956D01*
X138938000Y-107090317D01*
X138781237Y-107110956D01*
X138635159Y-107171463D01*
X138509717Y-107267717D01*
X138413463Y-107393159D01*
X138352956Y-107539237D01*
X138332317Y-107695999D01*
X133144762Y-107695999D01*
X133108482Y-107648717D01*
X132983040Y-107552463D01*
X132836962Y-107491956D01*
X132680200Y-107471317D01*
X132523437Y-107491956D01*
X132377359Y-107552463D01*
X132251917Y-107648717D01*
X132155663Y-107774159D01*
X132095156Y-107920237D01*
X132074517Y-108077000D01*
X132095156Y-108233762D01*
X132155663Y-108379840D01*
X132251917Y-108505282D01*
X132377356Y-108601534D01*
X132377359Y-108601536D01*
X132382686Y-108603742D01*
X132429524Y-108637769D01*
X132455809Y-108689354D01*
X132455810Y-108747249D01*
X132429527Y-108798834D01*
X132382689Y-108832865D01*
X132285158Y-108873263D01*
X132159717Y-108969517D01*
X132063463Y-109094959D01*
X132002956Y-109241037D01*
X131982317Y-109397799D01*
X132002956Y-109554562D01*
X132063463Y-109700640D01*
X132159718Y-109826083D01*
X132185055Y-109845525D01*
X132220780Y-109889057D01*
X132233568Y-109943900D01*
X132220780Y-109998743D01*
X132185055Y-110042275D01*
X132159718Y-110061716D01*
X132063463Y-110187159D01*
X132002956Y-110333237D01*
X131982317Y-110489999D01*
X132002956Y-110646762D01*
X132063463Y-110792840D01*
X132103164Y-110844580D01*
X132159718Y-110918282D01*
X132180843Y-110934491D01*
X132188905Y-110940678D01*
X132224631Y-110984209D01*
X132237419Y-111039053D01*
X132224632Y-111093896D01*
X132188907Y-111137429D01*
X132134317Y-111179318D01*
X132038063Y-111304758D01*
X131986100Y-111430210D01*
X131952070Y-111477048D01*
X131900486Y-111503331D01*
X131842591Y-111503331D01*
X131791007Y-111477047D01*
X131756978Y-111430209D01*
X131715536Y-111330159D01*
X131619282Y-111204717D01*
X131493840Y-111108463D01*
X131347762Y-111047956D01*
X131191000Y-111027317D01*
X131034237Y-111047956D01*
X130888159Y-111108463D01*
X130762717Y-111204717D01*
X130666463Y-111330159D01*
X130605956Y-111476237D01*
X130585317Y-111632999D01*
X103568555Y-111632999D01*
X103547120Y-111606880D01*
X103398581Y-111484977D01*
X103398580Y-111484976D01*
X103273934Y-111418352D01*
X103257105Y-111409357D01*
X103209202Y-111363749D01*
X103191560Y-111300000D01*
X103209202Y-111236251D01*
X103257105Y-111190642D01*
X103398581Y-111115023D01*
X103547120Y-110993120D01*
X103669023Y-110844581D01*
X103759605Y-110675114D01*
X103815385Y-110491231D01*
X103834220Y-110300000D01*
X103815385Y-110108769D01*
X103759605Y-109924886D01*
X103669023Y-109755419D01*
X103547120Y-109606880D01*
X103398581Y-109484977D01*
X103398580Y-109484976D01*
X103378043Y-109473999D01*
X107344317Y-109473999D01*
X107364956Y-109630762D01*
X107425463Y-109776840D01*
X107521717Y-109902282D01*
X107619744Y-109977500D01*
X107647159Y-109998536D01*
X107793238Y-110059044D01*
X107950000Y-110079682D01*
X108106762Y-110059044D01*
X108252841Y-109998536D01*
X108378282Y-109902282D01*
X108474536Y-109776841D01*
X108535044Y-109630762D01*
X108555682Y-109474000D01*
X108535044Y-109317238D01*
X108474536Y-109171159D01*
X108474535Y-109171158D01*
X108378282Y-109045717D01*
X108274390Y-108965999D01*
X110138317Y-108965999D01*
X110158956Y-109122762D01*
X110219463Y-109268840D01*
X110315717Y-109394282D01*
X110419609Y-109474000D01*
X110441159Y-109490536D01*
X110587238Y-109551044D01*
X110744000Y-109571682D01*
X110900762Y-109551044D01*
X111046841Y-109490536D01*
X111172282Y-109394282D01*
X111268536Y-109268841D01*
X111329044Y-109122762D01*
X111349682Y-108966000D01*
X111329044Y-108809238D01*
X111268536Y-108663159D01*
X111244843Y-108632282D01*
X111172282Y-108537717D01*
X111046840Y-108441463D01*
X110900762Y-108380956D01*
X110744000Y-108360317D01*
X110587237Y-108380956D01*
X110441159Y-108441463D01*
X110315717Y-108537717D01*
X110219463Y-108663159D01*
X110158956Y-108809237D01*
X110138317Y-108965999D01*
X108274390Y-108965999D01*
X108252840Y-108949463D01*
X108106762Y-108888956D01*
X107950000Y-108868317D01*
X107793237Y-108888956D01*
X107647159Y-108949463D01*
X107521717Y-109045717D01*
X107425463Y-109171159D01*
X107364956Y-109317237D01*
X107344317Y-109473999D01*
X103378043Y-109473999D01*
X103229116Y-109394396D01*
X103229115Y-109394395D01*
X103229114Y-109394395D01*
X103137172Y-109366504D01*
X103045229Y-109338614D01*
X102854000Y-109319780D01*
X102662770Y-109338614D01*
X102478883Y-109394396D01*
X102309419Y-109484976D01*
X102214679Y-109562728D01*
X102162102Y-109588100D01*
X102103742Y-109586602D01*
X102052536Y-109558567D01*
X102019832Y-109510209D01*
X101972352Y-109382910D01*
X101886188Y-109267811D01*
X101771089Y-109181647D01*
X101636375Y-109131402D01*
X101576824Y-109125000D01*
X101104000Y-109125000D01*
X101104000Y-110426000D01*
X101087387Y-110488000D01*
X101042000Y-110533387D01*
X100980000Y-110550000D01*
X99679000Y-110550000D01*
X99679000Y-111022824D01*
X81788000Y-111022824D01*
X81788000Y-109854999D01*
X93882317Y-109854999D01*
X93902956Y-110011762D01*
X93963463Y-110157840D01*
X94059717Y-110283282D01*
X94124822Y-110333238D01*
X94185159Y-110379536D01*
X94331238Y-110440044D01*
X94488000Y-110460682D01*
X94644762Y-110440044D01*
X94790841Y-110379536D01*
X94916282Y-110283282D01*
X94916281Y-110283282D01*
X94920514Y-110280035D01*
X94969162Y-110257350D01*
X95022838Y-110257350D01*
X95071486Y-110280035D01*
X95075718Y-110283282D01*
X95201159Y-110379536D01*
X95347238Y-110440044D01*
X95504000Y-110460682D01*
X95660762Y-110440044D01*
X95806841Y-110379536D01*
X95932282Y-110283282D01*
X96028536Y-110157841D01*
X96073205Y-110050000D01*
X99679000Y-110050000D01*
X100604000Y-110050000D01*
X100604000Y-109125000D01*
X100131176Y-109125000D01*
X100071624Y-109131402D01*
X99936910Y-109181647D01*
X99821811Y-109267811D01*
X99735647Y-109382910D01*
X99685402Y-109517624D01*
X99679000Y-109577176D01*
X99679000Y-110050000D01*
X96073205Y-110050000D01*
X96089044Y-110011762D01*
X96109682Y-109855000D01*
X96108434Y-109845524D01*
X96097048Y-109759036D01*
X96089044Y-109698238D01*
X96028536Y-109552159D01*
X96017165Y-109537340D01*
X95932282Y-109426717D01*
X95806840Y-109330463D01*
X95660762Y-109269956D01*
X95504000Y-109249317D01*
X95347237Y-109269956D01*
X95201159Y-109330463D01*
X95071486Y-109429964D01*
X95022838Y-109452649D01*
X94969162Y-109452649D01*
X94920514Y-109429964D01*
X94790840Y-109330463D01*
X94644762Y-109269956D01*
X94488000Y-109249317D01*
X94331237Y-109269956D01*
X94185159Y-109330463D01*
X94059717Y-109426717D01*
X93963463Y-109552159D01*
X93902956Y-109698237D01*
X93882317Y-109854999D01*
X81788000Y-109854999D01*
X81788000Y-109234500D01*
X85500317Y-109234500D01*
X85520956Y-109391262D01*
X85581463Y-109537340D01*
X85677717Y-109662782D01*
X85764299Y-109729218D01*
X85803159Y-109759036D01*
X85949238Y-109819544D01*
X86106000Y-109840182D01*
X86262762Y-109819544D01*
X86408841Y-109759036D01*
X86534282Y-109662782D01*
X86630536Y-109537341D01*
X86691044Y-109391262D01*
X86711682Y-109234500D01*
X86691044Y-109077738D01*
X86630536Y-108931659D01*
X86585728Y-108873264D01*
X86534282Y-108806217D01*
X86408840Y-108709963D01*
X86262762Y-108649456D01*
X86106000Y-108628817D01*
X85949237Y-108649456D01*
X85803159Y-108709963D01*
X85677717Y-108806217D01*
X85581463Y-108931659D01*
X85520956Y-109077737D01*
X85500317Y-109234500D01*
X81788000Y-109234500D01*
X81788000Y-107329500D01*
X88421317Y-107329500D01*
X88441956Y-107486262D01*
X88502463Y-107632340D01*
X88560376Y-107707814D01*
X88583061Y-107756461D01*
X88583061Y-107810137D01*
X88560377Y-107858785D01*
X88527863Y-107901159D01*
X88467356Y-108047237D01*
X88446717Y-108203999D01*
X88467356Y-108360762D01*
X88527863Y-108506840D01*
X88624117Y-108632282D01*
X88725354Y-108709963D01*
X88749559Y-108728536D01*
X88895638Y-108789044D01*
X89052400Y-108809682D01*
X89209162Y-108789044D01*
X89355241Y-108728536D01*
X89480682Y-108632282D01*
X89576936Y-108506841D01*
X89637444Y-108360762D01*
X89658082Y-108204000D01*
X89658082Y-108203999D01*
X105860217Y-108203999D01*
X105880856Y-108360762D01*
X105941363Y-108506840D01*
X106037617Y-108632282D01*
X106138854Y-108709963D01*
X106163059Y-108728536D01*
X106309138Y-108789044D01*
X106465900Y-108809682D01*
X106622662Y-108789044D01*
X106768741Y-108728536D01*
X106894182Y-108632282D01*
X106990436Y-108506841D01*
X107050944Y-108360762D01*
X107071582Y-108204000D01*
X107054862Y-108077000D01*
X121610817Y-108077000D01*
X121631456Y-108233762D01*
X121691963Y-108379840D01*
X121788217Y-108505282D01*
X121913656Y-108601534D01*
X121913659Y-108601536D01*
X122059738Y-108662044D01*
X122216500Y-108682682D01*
X122373262Y-108662044D01*
X122519341Y-108601536D01*
X122644782Y-108505282D01*
X122741036Y-108379841D01*
X122801544Y-108233762D01*
X122822182Y-108077000D01*
X122801544Y-107920238D01*
X122741036Y-107774159D01*
X122717343Y-107743282D01*
X122644782Y-107648717D01*
X122519340Y-107552463D01*
X122373262Y-107491956D01*
X122216500Y-107471317D01*
X122059737Y-107491956D01*
X121913659Y-107552463D01*
X121788217Y-107648717D01*
X121691963Y-107774159D01*
X121631456Y-107920237D01*
X121610817Y-108077000D01*
X107054862Y-108077000D01*
X107050944Y-108047238D01*
X106990436Y-107901159D01*
X106989580Y-107900044D01*
X106894182Y-107775717D01*
X106768740Y-107679463D01*
X106622662Y-107618956D01*
X106465900Y-107598317D01*
X106309137Y-107618956D01*
X106163059Y-107679463D01*
X106037617Y-107775717D01*
X105941363Y-107901159D01*
X105880856Y-108047237D01*
X105860217Y-108203999D01*
X89658082Y-108203999D01*
X89637444Y-108047238D01*
X89576936Y-107901159D01*
X89519020Y-107825681D01*
X89496337Y-107777036D01*
X89496338Y-107723358D01*
X89519021Y-107674714D01*
X89551536Y-107632341D01*
X89612044Y-107486262D01*
X89632682Y-107329500D01*
X89612044Y-107172738D01*
X89551536Y-107026659D01*
X89539554Y-107011044D01*
X89455282Y-106901217D01*
X89329840Y-106804963D01*
X89183762Y-106744456D01*
X89027000Y-106723817D01*
X88870237Y-106744456D01*
X88724159Y-106804963D01*
X88598717Y-106901217D01*
X88502463Y-107026659D01*
X88441956Y-107172737D01*
X88421317Y-107329500D01*
X81788000Y-107329500D01*
X81788000Y-106172126D01*
X81789061Y-106155941D01*
X81802906Y-106050776D01*
X81811284Y-106019508D01*
X81848740Y-105929081D01*
X81864923Y-105901050D01*
X81924513Y-105823392D01*
X81947392Y-105800513D01*
X82025050Y-105740923D01*
X82053079Y-105724740D01*
X82143509Y-105687283D01*
X82174775Y-105678906D01*
X82279940Y-105665061D01*
X82296126Y-105664000D01*
X93373057Y-105664000D01*
X93437847Y-105682273D01*
X93483542Y-105731705D01*
X93496675Y-105797729D01*
X93473375Y-105860885D01*
X93435506Y-105890738D01*
X93436110Y-105891526D01*
X93297717Y-105997717D01*
X93201463Y-106123159D01*
X93140956Y-106269237D01*
X93120317Y-106426000D01*
X93140956Y-106582762D01*
X93201463Y-106728840D01*
X93297717Y-106854282D01*
X93358885Y-106901217D01*
X93423159Y-106950536D01*
X93569238Y-107011044D01*
X93726000Y-107031682D01*
X93882762Y-107011044D01*
X94028841Y-106950536D01*
X94154282Y-106854282D01*
X94250536Y-106728841D01*
X94311044Y-106582762D01*
X94331682Y-106426000D01*
X107090317Y-106426000D01*
X107110956Y-106582762D01*
X107171463Y-106728840D01*
X107267717Y-106854282D01*
X107328885Y-106901217D01*
X107393159Y-106950536D01*
X107539238Y-107011044D01*
X107696000Y-107031682D01*
X107852762Y-107011044D01*
X107998841Y-106950536D01*
X108124282Y-106854282D01*
X108220536Y-106728841D01*
X108281044Y-106582762D01*
X108301682Y-106426000D01*
X108281044Y-106269238D01*
X108220536Y-106123159D01*
X108164995Y-106050776D01*
X108124282Y-105997717D01*
X107998840Y-105901463D01*
X107852762Y-105840956D01*
X107696000Y-105820317D01*
X107539237Y-105840956D01*
X107393159Y-105901463D01*
X107267717Y-105997717D01*
X107171463Y-106123159D01*
X107110956Y-106269237D01*
X107090317Y-106426000D01*
X94331682Y-106426000D01*
X94311044Y-106269238D01*
X94250536Y-106123159D01*
X94194995Y-106050776D01*
X94154282Y-105997717D01*
X94015890Y-105891526D01*
X94016493Y-105890738D01*
X93978625Y-105860885D01*
X93955325Y-105797729D01*
X93968458Y-105731705D01*
X94014153Y-105682273D01*
X94078943Y-105664000D01*
X95512001Y-105664000D01*
X96012000Y-105664000D01*
X96012000Y-105359199D01*
X122050917Y-105359199D01*
X122071556Y-105515962D01*
X122132063Y-105662040D01*
X122228317Y-105787482D01*
X122323979Y-105860885D01*
X122353759Y-105883736D01*
X122499838Y-105944244D01*
X122656600Y-105964882D01*
X122813362Y-105944244D01*
X122959441Y-105883736D01*
X123084882Y-105787482D01*
X123181136Y-105662041D01*
X123241644Y-105515962D01*
X123262282Y-105359200D01*
X123241644Y-105202438D01*
X123181136Y-105056359D01*
X123084882Y-104930917D01*
X122959440Y-104834663D01*
X122813362Y-104774156D01*
X122656600Y-104753517D01*
X122499837Y-104774156D01*
X122353759Y-104834663D01*
X122228317Y-104930917D01*
X122132063Y-105056359D01*
X122071556Y-105202437D01*
X122050917Y-105359199D01*
X96012000Y-105359199D01*
X96012000Y-103987600D01*
X134319117Y-103987600D01*
X134339756Y-104144362D01*
X134400263Y-104290440D01*
X134496517Y-104415882D01*
X134578664Y-104478915D01*
X134621959Y-104512136D01*
X134768038Y-104572644D01*
X134924800Y-104593282D01*
X135081562Y-104572644D01*
X135227641Y-104512136D01*
X135353082Y-104415882D01*
X135449336Y-104290441D01*
X135509844Y-104144362D01*
X135530482Y-103987600D01*
X135509844Y-103830838D01*
X135493976Y-103792530D01*
X135875213Y-103792530D01*
X135895852Y-103949293D01*
X135956359Y-104095371D01*
X136052613Y-104220813D01*
X136143354Y-104290440D01*
X136178055Y-104317067D01*
X136324134Y-104377575D01*
X136480896Y-104398213D01*
X136637658Y-104377575D01*
X136783737Y-104317067D01*
X136909178Y-104220813D01*
X137005432Y-104095372D01*
X137065940Y-103949293D01*
X137086578Y-103792531D01*
X137065940Y-103635769D01*
X137005432Y-103489690D01*
X136985001Y-103463064D01*
X136909178Y-103364248D01*
X136783736Y-103267994D01*
X136637658Y-103207487D01*
X136480896Y-103186848D01*
X136324133Y-103207487D01*
X136178055Y-103267994D01*
X136052613Y-103364248D01*
X135956359Y-103489690D01*
X135895852Y-103635768D01*
X135875213Y-103792530D01*
X135493976Y-103792530D01*
X135449336Y-103684759D01*
X135411744Y-103635768D01*
X135353082Y-103559317D01*
X135227640Y-103463063D01*
X135081562Y-103402556D01*
X134924800Y-103381917D01*
X134768037Y-103402556D01*
X134621959Y-103463063D01*
X134496517Y-103559317D01*
X134400263Y-103684759D01*
X134339756Y-103830837D01*
X134319117Y-103987600D01*
X96012000Y-103987600D01*
X96012000Y-101498399D01*
X110646317Y-101498399D01*
X110666956Y-101655162D01*
X110727463Y-101801240D01*
X110823717Y-101926682D01*
X110929875Y-102008139D01*
X110949159Y-102022936D01*
X111095238Y-102083444D01*
X111252000Y-102104082D01*
X111408762Y-102083444D01*
X111554841Y-102022936D01*
X111680282Y-101926682D01*
X111753275Y-101831555D01*
X123614185Y-101831555D01*
X123634824Y-101988318D01*
X123695331Y-102134396D01*
X123791585Y-102259838D01*
X123902951Y-102345291D01*
X123917027Y-102356092D01*
X124063106Y-102416600D01*
X124219868Y-102437238D01*
X124376630Y-102416600D01*
X124522709Y-102356092D01*
X124648150Y-102259838D01*
X124744404Y-102134397D01*
X124804912Y-101988318D01*
X124825550Y-101831556D01*
X124804912Y-101674794D01*
X124752889Y-101549199D01*
X135944717Y-101549199D01*
X135965356Y-101705962D01*
X136025863Y-101852040D01*
X136122117Y-101977482D01*
X136247558Y-102073735D01*
X136247559Y-102073736D01*
X136393638Y-102134244D01*
X136550400Y-102154882D01*
X136707162Y-102134244D01*
X136853241Y-102073736D01*
X136978682Y-101977482D01*
X137074936Y-101852041D01*
X137135444Y-101705962D01*
X137156082Y-101549200D01*
X137135444Y-101392438D01*
X137074936Y-101246359D01*
X137035956Y-101195559D01*
X136978682Y-101120917D01*
X136853240Y-101024663D01*
X136707162Y-100964156D01*
X136550400Y-100943517D01*
X136393637Y-100964156D01*
X136247559Y-101024663D01*
X136122117Y-101120917D01*
X136025863Y-101246359D01*
X135965356Y-101392437D01*
X135944717Y-101549199D01*
X124752889Y-101549199D01*
X124744404Y-101528715D01*
X124721142Y-101498399D01*
X124648150Y-101403273D01*
X124522708Y-101307019D01*
X124376630Y-101246512D01*
X124219868Y-101225873D01*
X124063105Y-101246512D01*
X123917027Y-101307019D01*
X123791585Y-101403273D01*
X123695331Y-101528715D01*
X123634824Y-101674793D01*
X123614185Y-101831555D01*
X111753275Y-101831555D01*
X111776536Y-101801241D01*
X111837044Y-101655162D01*
X111857682Y-101498400D01*
X111837044Y-101341638D01*
X111776536Y-101195559D01*
X111734550Y-101140841D01*
X111680282Y-101070117D01*
X111554840Y-100973863D01*
X111408762Y-100913356D01*
X111252000Y-100892717D01*
X111095237Y-100913356D01*
X110949159Y-100973863D01*
X110823717Y-101070117D01*
X110727463Y-101195559D01*
X110666956Y-101341637D01*
X110646317Y-101498399D01*
X96012000Y-101498399D01*
X96012000Y-98552000D01*
X112551317Y-98552000D01*
X112571956Y-98708762D01*
X112632463Y-98854840D01*
X112728717Y-98980282D01*
X112793822Y-99030238D01*
X112854159Y-99076536D01*
X113000238Y-99137044D01*
X113157000Y-99157682D01*
X113313762Y-99137044D01*
X113459841Y-99076536D01*
X113585282Y-98980282D01*
X113681536Y-98854841D01*
X113733330Y-98729799D01*
X114379749Y-98729799D01*
X114398670Y-98873509D01*
X114454137Y-99007422D01*
X114454138Y-99007424D01*
X114454139Y-99007425D01*
X114542379Y-99122421D01*
X114657375Y-99210661D01*
X114791291Y-99266130D01*
X114935000Y-99285050D01*
X114956410Y-99282231D01*
X115013987Y-99288282D01*
X115062542Y-99319813D01*
X115091489Y-99369951D01*
X115094520Y-99427766D01*
X115070972Y-99480656D01*
X115029138Y-99535174D01*
X114973670Y-99669090D01*
X114954749Y-99812799D01*
X114973670Y-99956509D01*
X115029137Y-100090422D01*
X115029138Y-100090424D01*
X115029139Y-100090425D01*
X115117379Y-100205421D01*
X115232375Y-100293661D01*
X115366291Y-100349130D01*
X115510000Y-100368050D01*
X115653709Y-100349130D01*
X115787625Y-100293661D01*
X115902621Y-100205421D01*
X115904479Y-100202999D01*
X116284749Y-100202999D01*
X116303670Y-100346709D01*
X116359137Y-100480622D01*
X116359138Y-100480624D01*
X116359139Y-100480625D01*
X116447379Y-100595621D01*
X116562375Y-100683861D01*
X116696291Y-100739330D01*
X116840000Y-100758250D01*
X116983709Y-100739330D01*
X117117625Y-100683861D01*
X117232621Y-100595621D01*
X117320861Y-100480625D01*
X117376330Y-100346709D01*
X117395250Y-100203000D01*
X119028317Y-100203000D01*
X119048956Y-100359762D01*
X119109463Y-100505840D01*
X119205717Y-100631282D01*
X119331158Y-100727535D01*
X119331159Y-100727536D01*
X119477238Y-100788044D01*
X119634000Y-100808682D01*
X119790762Y-100788044D01*
X119936841Y-100727536D01*
X120062282Y-100631282D01*
X120158536Y-100505841D01*
X120219044Y-100359762D01*
X120239682Y-100203000D01*
X120219044Y-100046238D01*
X120158536Y-99900159D01*
X120155698Y-99896461D01*
X120062282Y-99774717D01*
X119936840Y-99678463D01*
X119790762Y-99617956D01*
X119634000Y-99597317D01*
X119477237Y-99617956D01*
X119331159Y-99678463D01*
X119205717Y-99774717D01*
X119109463Y-99900159D01*
X119048956Y-100046237D01*
X119028317Y-100203000D01*
X117395250Y-100203000D01*
X117376330Y-100059291D01*
X117376329Y-100059290D01*
X117374199Y-100043107D01*
X117376929Y-100042747D01*
X117372025Y-100005483D01*
X117396590Y-99946183D01*
X117447512Y-99907111D01*
X117473225Y-99896461D01*
X117588221Y-99808221D01*
X117676461Y-99693225D01*
X117731930Y-99559309D01*
X117750850Y-99415600D01*
X117731930Y-99271891D01*
X117712038Y-99223867D01*
X154532500Y-99223867D01*
X154535414Y-99248988D01*
X154535414Y-99248990D01*
X154535415Y-99248991D01*
X154547548Y-99276470D01*
X154580795Y-99351767D01*
X154660232Y-99431204D01*
X154660233Y-99431204D01*
X154660235Y-99431206D01*
X154763009Y-99476585D01*
X154788135Y-99479500D01*
X157877864Y-99479499D01*
X157877867Y-99479499D01*
X157890427Y-99478041D01*
X157902991Y-99476585D01*
X158005765Y-99431206D01*
X158085206Y-99351765D01*
X158130585Y-99248991D01*
X158133500Y-99223865D01*
X158133499Y-96634136D01*
X158130585Y-96609009D01*
X158085206Y-96506235D01*
X158085204Y-96506233D01*
X158085204Y-96506232D01*
X158005767Y-96426795D01*
X158005765Y-96426794D01*
X157902991Y-96381415D01*
X157877865Y-96378500D01*
X157877863Y-96378500D01*
X154788132Y-96378500D01*
X154763011Y-96381414D01*
X154660232Y-96426795D01*
X154580795Y-96506232D01*
X154535415Y-96609009D01*
X154532500Y-96634136D01*
X154532500Y-99223867D01*
X117712038Y-99223867D01*
X117676461Y-99137975D01*
X117588221Y-99022979D01*
X117473225Y-98934739D01*
X117473224Y-98934738D01*
X117473222Y-98934737D01*
X117339309Y-98879270D01*
X117195600Y-98860349D01*
X117051890Y-98879270D01*
X116917977Y-98934737D01*
X116802979Y-99022979D01*
X116714737Y-99137977D01*
X116659270Y-99271890D01*
X116640349Y-99415600D01*
X116661401Y-99575493D01*
X116658670Y-99575852D01*
X116663573Y-99613123D01*
X116639008Y-99672417D01*
X116588088Y-99711488D01*
X116562376Y-99722137D01*
X116447379Y-99810379D01*
X116359137Y-99925377D01*
X116303670Y-100059290D01*
X116284749Y-100202999D01*
X115904479Y-100202999D01*
X115990861Y-100090425D01*
X116046330Y-99956509D01*
X116065250Y-99812800D01*
X116046330Y-99669091D01*
X116003428Y-99565515D01*
X115990862Y-99535177D01*
X115990861Y-99535176D01*
X115990861Y-99535175D01*
X115902621Y-99420179D01*
X115787625Y-99331939D01*
X115787624Y-99331938D01*
X115787622Y-99331937D01*
X115653709Y-99276470D01*
X115509997Y-99257549D01*
X115488586Y-99260368D01*
X115431009Y-99254316D01*
X115382455Y-99222784D01*
X115353509Y-99172645D01*
X115350480Y-99114830D01*
X115374026Y-99061944D01*
X115415861Y-99007425D01*
X115471330Y-98873509D01*
X115490250Y-98729800D01*
X115471330Y-98586091D01*
X115415861Y-98452175D01*
X115327621Y-98337179D01*
X115212625Y-98248939D01*
X115212624Y-98248938D01*
X115212622Y-98248937D01*
X115078709Y-98193470D01*
X114935000Y-98174549D01*
X114791290Y-98193470D01*
X114657377Y-98248937D01*
X114542379Y-98337179D01*
X114454137Y-98452177D01*
X114398670Y-98586090D01*
X114379749Y-98729799D01*
X113733330Y-98729799D01*
X113742044Y-98708762D01*
X113762682Y-98552000D01*
X113742044Y-98395238D01*
X113681536Y-98249159D01*
X113663870Y-98226136D01*
X113585282Y-98123717D01*
X113459840Y-98027463D01*
X113313762Y-97966956D01*
X113157000Y-97946317D01*
X113000237Y-97966956D01*
X112854159Y-98027463D01*
X112728717Y-98123717D01*
X112632463Y-98249159D01*
X112571956Y-98395237D01*
X112551317Y-98552000D01*
X96012000Y-98552000D01*
X96012000Y-97434399D01*
X107674517Y-97434399D01*
X107695156Y-97591162D01*
X107755663Y-97737240D01*
X107851917Y-97862682D01*
X107960915Y-97946318D01*
X107977359Y-97958936D01*
X108123438Y-98019444D01*
X108280200Y-98040082D01*
X108436962Y-98019444D01*
X108583041Y-97958936D01*
X108708482Y-97862682D01*
X108804736Y-97737241D01*
X108819499Y-97701599D01*
X121351917Y-97701599D01*
X121372556Y-97858362D01*
X121433063Y-98004440D01*
X121529317Y-98129882D01*
X121654759Y-98226136D01*
X121800838Y-98286644D01*
X121957600Y-98307282D01*
X122114362Y-98286644D01*
X122260441Y-98226136D01*
X122385882Y-98129882D01*
X122482136Y-98004441D01*
X122542644Y-97858362D01*
X122563282Y-97701600D01*
X122542644Y-97544838D01*
X122482136Y-97398759D01*
X122410531Y-97305441D01*
X122385882Y-97273317D01*
X122260440Y-97177063D01*
X122114362Y-97116556D01*
X121957600Y-97095917D01*
X121800837Y-97116556D01*
X121654759Y-97177063D01*
X121529317Y-97273317D01*
X121433063Y-97398759D01*
X121372556Y-97544837D01*
X121351917Y-97701599D01*
X108819499Y-97701599D01*
X108865244Y-97591162D01*
X108885882Y-97434400D01*
X108865244Y-97277638D01*
X108804736Y-97131559D01*
X108789335Y-97111488D01*
X108708482Y-97006117D01*
X108703899Y-97002600D01*
X111687717Y-97002600D01*
X111708356Y-97159362D01*
X111768863Y-97305440D01*
X111865117Y-97430882D01*
X111990559Y-97527136D01*
X112136638Y-97587644D01*
X112293400Y-97608282D01*
X112450162Y-97587644D01*
X112596241Y-97527136D01*
X112721682Y-97430882D01*
X112817936Y-97305441D01*
X112878444Y-97159362D01*
X112899082Y-97002600D01*
X112878444Y-96845838D01*
X112817936Y-96699759D01*
X112748303Y-96609011D01*
X112721682Y-96574317D01*
X112596240Y-96478063D01*
X112450162Y-96417556D01*
X112293400Y-96396917D01*
X112136637Y-96417556D01*
X111990559Y-96478063D01*
X111865117Y-96574317D01*
X111768863Y-96699759D01*
X111708356Y-96845837D01*
X111687717Y-97002600D01*
X108703899Y-97002600D01*
X108583040Y-96909863D01*
X108436962Y-96849356D01*
X108280200Y-96828717D01*
X108123437Y-96849356D01*
X107977359Y-96909863D01*
X107851917Y-97006117D01*
X107755663Y-97131559D01*
X107695156Y-97277637D01*
X107674517Y-97434399D01*
X96012000Y-97434399D01*
X96012000Y-97234427D01*
X96026011Y-97177170D01*
X96064876Y-97132852D01*
X96119813Y-97111488D01*
X96168762Y-97105044D01*
X96314841Y-97044536D01*
X96440282Y-96948282D01*
X96536536Y-96822841D01*
X96597044Y-96676762D01*
X96617682Y-96520000D01*
X96597044Y-96363238D01*
X96536536Y-96217159D01*
X96476562Y-96138999D01*
X119715321Y-96138999D01*
X119734363Y-96295818D01*
X119790380Y-96443523D01*
X119880115Y-96573528D01*
X119880116Y-96573529D01*
X119880117Y-96573530D01*
X119998360Y-96678283D01*
X120138235Y-96751696D01*
X120291615Y-96789500D01*
X120449585Y-96789500D01*
X120602965Y-96751696D01*
X120742840Y-96678283D01*
X120861083Y-96573530D01*
X120950820Y-96443523D01*
X121006837Y-96295818D01*
X121025878Y-96139000D01*
X121006837Y-95982182D01*
X120950820Y-95834477D01*
X120861083Y-95704470D01*
X120742840Y-95599717D01*
X120729594Y-95592765D01*
X120602964Y-95526303D01*
X120449585Y-95488500D01*
X120291615Y-95488500D01*
X120138235Y-95526303D01*
X119998361Y-95599716D01*
X119880115Y-95704471D01*
X119790380Y-95834476D01*
X119734363Y-95982181D01*
X119715321Y-96138999D01*
X96476562Y-96138999D01*
X96440282Y-96091717D01*
X96314840Y-95995463D01*
X96168762Y-95934956D01*
X96148451Y-95932282D01*
X96119813Y-95928511D01*
X96064876Y-95907148D01*
X96026011Y-95862830D01*
X96012000Y-95805573D01*
X96012000Y-94487999D01*
X102518317Y-94487999D01*
X102538956Y-94644762D01*
X102599463Y-94790840D01*
X102695717Y-94916282D01*
X102799609Y-94996000D01*
X102821159Y-95012536D01*
X102967238Y-95073044D01*
X103124000Y-95093682D01*
X103280762Y-95073044D01*
X103426841Y-95012536D01*
X103552282Y-94916282D01*
X103597123Y-94857843D01*
X103640656Y-94822117D01*
X103695501Y-94809329D01*
X103750345Y-94822117D01*
X103793877Y-94857844D01*
X103841965Y-94920515D01*
X103864649Y-94969162D01*
X103864649Y-95022839D01*
X103841964Y-95071486D01*
X103742463Y-95201159D01*
X103681956Y-95347237D01*
X103661317Y-95503999D01*
X103681956Y-95660762D01*
X103742463Y-95806840D01*
X103838717Y-95932282D01*
X103964159Y-96028536D01*
X104110238Y-96089044D01*
X104267000Y-96109682D01*
X104423762Y-96089044D01*
X104569841Y-96028536D01*
X104695282Y-95932282D01*
X104791536Y-95806841D01*
X104852044Y-95660762D01*
X104872682Y-95504000D01*
X104852044Y-95347238D01*
X104791536Y-95201159D01*
X104695282Y-95075718D01*
X104692035Y-95071486D01*
X104669350Y-95022838D01*
X104669350Y-94969162D01*
X104692035Y-94920514D01*
X104740123Y-94857844D01*
X104791536Y-94790841D01*
X104811767Y-94741999D01*
X109757317Y-94741999D01*
X109777956Y-94898762D01*
X109838463Y-95044840D01*
X109934717Y-95170282D01*
X110060158Y-95266535D01*
X110060159Y-95266536D01*
X110206238Y-95327044D01*
X110363000Y-95347682D01*
X110519762Y-95327044D01*
X110665841Y-95266536D01*
X110791282Y-95170282D01*
X110887536Y-95044841D01*
X110948044Y-94898762D01*
X110957228Y-94829000D01*
X147527531Y-94829000D01*
X147547364Y-95055689D01*
X147606261Y-95275497D01*
X147702432Y-95481735D01*
X147832953Y-95668140D01*
X147993859Y-95829046D01*
X148180264Y-95959567D01*
X148180265Y-95959567D01*
X148180266Y-95959568D01*
X148386504Y-96055739D01*
X148606308Y-96114635D01*
X148833000Y-96134468D01*
X149059692Y-96114635D01*
X149279496Y-96055739D01*
X149485734Y-95959568D01*
X149672139Y-95829047D01*
X149833047Y-95668139D01*
X149963568Y-95481734D01*
X150059739Y-95275496D01*
X150118635Y-95055692D01*
X150138468Y-94829000D01*
X150118635Y-94602308D01*
X150059739Y-94382504D01*
X149963568Y-94176266D01*
X149950047Y-94156956D01*
X149833046Y-93989859D01*
X149672140Y-93828953D01*
X149485738Y-93698434D01*
X149485734Y-93698432D01*
X149470612Y-93691380D01*
X149418439Y-93645626D01*
X149399019Y-93579000D01*
X149418439Y-93512374D01*
X149470612Y-93466619D01*
X149485734Y-93459568D01*
X149672139Y-93329047D01*
X149833047Y-93168139D01*
X149963568Y-92981734D01*
X150059739Y-92775496D01*
X150118635Y-92555692D01*
X150138468Y-92329000D01*
X150118635Y-92102308D01*
X150059739Y-91882504D01*
X149963568Y-91676266D01*
X149917169Y-91610001D01*
X149833046Y-91489859D01*
X149684367Y-91341180D01*
X149654117Y-91291817D01*
X149649575Y-91234101D01*
X149671730Y-91180614D01*
X149715753Y-91143014D01*
X149772048Y-91129499D01*
X149877867Y-91129499D01*
X149890427Y-91128041D01*
X149902991Y-91126585D01*
X150005765Y-91081206D01*
X150085206Y-91001765D01*
X150130585Y-90898991D01*
X150133500Y-90873865D01*
X150133499Y-88784136D01*
X150130585Y-88759009D01*
X150085206Y-88656235D01*
X150085204Y-88656233D01*
X150085204Y-88656232D01*
X150005767Y-88576795D01*
X150005765Y-88576794D01*
X149902991Y-88531415D01*
X149877865Y-88528500D01*
X149877863Y-88528500D01*
X147788132Y-88528500D01*
X147763011Y-88531414D01*
X147660232Y-88576795D01*
X147580795Y-88656232D01*
X147535415Y-88759009D01*
X147532500Y-88784136D01*
X147532500Y-90873867D01*
X147535414Y-90898988D01*
X147535414Y-90898990D01*
X147535415Y-90898991D01*
X147556634Y-90947047D01*
X147580795Y-91001767D01*
X147660232Y-91081204D01*
X147660233Y-91081204D01*
X147660235Y-91081206D01*
X147763009Y-91126585D01*
X147788135Y-91129500D01*
X147893953Y-91129499D01*
X147950245Y-91143014D01*
X147994269Y-91180613D01*
X148016424Y-91234100D01*
X148011882Y-91291817D01*
X147981633Y-91341180D01*
X147832950Y-91489863D01*
X147702432Y-91676264D01*
X147606261Y-91882502D01*
X147547364Y-92102310D01*
X147527531Y-92329000D01*
X147547364Y-92555689D01*
X147606261Y-92775497D01*
X147702432Y-92981735D01*
X147832953Y-93168140D01*
X147993859Y-93329046D01*
X148180264Y-93459567D01*
X148195385Y-93466618D01*
X148247561Y-93512375D01*
X148266980Y-93579000D01*
X148247561Y-93645625D01*
X148195385Y-93691382D01*
X148180264Y-93698432D01*
X147993859Y-93828953D01*
X147832953Y-93989859D01*
X147702432Y-94176264D01*
X147606261Y-94382502D01*
X147547364Y-94602310D01*
X147527531Y-94829000D01*
X110957228Y-94829000D01*
X110968682Y-94742000D01*
X110948044Y-94585238D01*
X110887536Y-94439159D01*
X110863843Y-94408282D01*
X110791282Y-94313717D01*
X110665840Y-94217463D01*
X110519762Y-94156956D01*
X110363000Y-94136317D01*
X110206237Y-94156956D01*
X110060159Y-94217463D01*
X109934717Y-94313717D01*
X109838463Y-94439159D01*
X109777956Y-94585237D01*
X109757317Y-94741999D01*
X104811767Y-94741999D01*
X104852044Y-94644762D01*
X104872682Y-94488000D01*
X104852044Y-94331238D01*
X104791536Y-94185159D01*
X104740760Y-94118986D01*
X104718075Y-94070339D01*
X104718075Y-94016661D01*
X104740760Y-93968014D01*
X104767843Y-93932718D01*
X104791536Y-93901841D01*
X104852044Y-93755762D01*
X104872682Y-93599000D01*
X104852044Y-93442238D01*
X104791536Y-93296159D01*
X104767537Y-93264883D01*
X104695282Y-93170717D01*
X104569840Y-93074463D01*
X104423762Y-93013956D01*
X104267000Y-92993317D01*
X104110237Y-93013956D01*
X103964159Y-93074463D01*
X103838718Y-93170717D01*
X103793874Y-93229158D01*
X103750342Y-93264883D01*
X103695498Y-93277670D01*
X103640654Y-93264882D01*
X103597123Y-93229156D01*
X103552282Y-93170717D01*
X103426840Y-93074463D01*
X103280762Y-93013956D01*
X103124000Y-92993317D01*
X102967237Y-93013956D01*
X102821159Y-93074463D01*
X102695717Y-93170717D01*
X102599463Y-93296159D01*
X102538956Y-93442237D01*
X102518317Y-93599000D01*
X102538956Y-93755762D01*
X102599463Y-93901840D01*
X102650239Y-93968014D01*
X102672924Y-94016662D01*
X102672924Y-94070338D01*
X102650239Y-94118986D01*
X102599463Y-94185159D01*
X102538956Y-94331237D01*
X102518317Y-94487999D01*
X96012000Y-94487999D01*
X96012000Y-92567000D01*
X107678317Y-92567000D01*
X107698956Y-92723762D01*
X107759463Y-92869840D01*
X107855717Y-92995282D01*
X107880054Y-93013956D01*
X107981159Y-93091536D01*
X108127238Y-93152044D01*
X108284000Y-93172682D01*
X108440762Y-93152044D01*
X108586841Y-93091536D01*
X108712282Y-92995282D01*
X108808536Y-92869841D01*
X108869044Y-92723762D01*
X108889682Y-92567000D01*
X108869044Y-92410238D01*
X108808536Y-92264159D01*
X108770968Y-92215199D01*
X108721860Y-92151199D01*
X112322717Y-92151199D01*
X112343356Y-92307962D01*
X112403863Y-92454040D01*
X112500117Y-92579482D01*
X112601903Y-92657584D01*
X112625559Y-92675736D01*
X112771638Y-92736244D01*
X112928400Y-92756882D01*
X113085162Y-92736244D01*
X113231241Y-92675736D01*
X113356682Y-92579482D01*
X113452936Y-92454041D01*
X113513444Y-92307962D01*
X113525656Y-92215200D01*
X124044317Y-92215200D01*
X124064956Y-92371962D01*
X124125463Y-92518040D01*
X124221717Y-92643482D01*
X124291030Y-92696667D01*
X124347159Y-92739736D01*
X124493238Y-92800244D01*
X124650000Y-92820882D01*
X124806762Y-92800244D01*
X124952841Y-92739736D01*
X125078282Y-92643482D01*
X125174536Y-92518041D01*
X125221414Y-92404867D01*
X130140500Y-92404867D01*
X130143414Y-92429988D01*
X130143414Y-92429990D01*
X130143415Y-92429991D01*
X130182292Y-92518040D01*
X130188795Y-92532767D01*
X130268232Y-92612204D01*
X130268233Y-92612204D01*
X130268235Y-92612206D01*
X130371009Y-92657585D01*
X130396135Y-92660500D01*
X131985864Y-92660499D01*
X131985867Y-92660499D01*
X131998427Y-92659041D01*
X132010991Y-92657585D01*
X132113765Y-92612206D01*
X132193206Y-92532765D01*
X132238585Y-92429991D01*
X132238585Y-92429989D01*
X132246162Y-92412830D01*
X132246620Y-92413032D01*
X132262643Y-92373296D01*
X132314814Y-92333481D01*
X132379999Y-92325870D01*
X132439939Y-92352594D01*
X132528445Y-92425227D01*
X132604550Y-92487685D01*
X132787046Y-92585232D01*
X132985066Y-92645300D01*
X133191000Y-92665583D01*
X133317497Y-92653124D01*
X134501426Y-92653124D01*
X134501427Y-92653125D01*
X134563610Y-92696666D01*
X134761840Y-92789102D01*
X134973113Y-92845712D01*
X135191000Y-92864775D01*
X135408886Y-92845712D01*
X135620159Y-92789102D01*
X135818385Y-92696667D01*
X135880572Y-92653124D01*
X135191001Y-91963553D01*
X135191000Y-91963553D01*
X134501426Y-92653124D01*
X133317497Y-92653124D01*
X133396934Y-92645300D01*
X133594954Y-92585232D01*
X133777450Y-92487685D01*
X133937410Y-92356410D01*
X133968769Y-92318198D01*
X134013753Y-92283777D01*
X134069354Y-92272953D01*
X134123968Y-92287987D01*
X134135739Y-92298510D01*
X134147875Y-92299572D01*
X134837447Y-91610001D01*
X134837447Y-91610000D01*
X135544553Y-91610000D01*
X136234124Y-92299572D01*
X136246257Y-92298511D01*
X136258027Y-92287988D01*
X136312641Y-92272953D01*
X136368242Y-92283776D01*
X136413229Y-92318198D01*
X136444588Y-92356409D01*
X136487401Y-92391544D01*
X136604550Y-92487685D01*
X136787046Y-92585232D01*
X136985066Y-92645300D01*
X137191000Y-92665583D01*
X137396934Y-92645300D01*
X137594954Y-92585232D01*
X137777450Y-92487685D01*
X137937410Y-92356410D01*
X138068685Y-92196450D01*
X138166232Y-92013954D01*
X138226300Y-91815934D01*
X138246583Y-91610000D01*
X138226300Y-91404066D01*
X138166232Y-91206046D01*
X138068685Y-91023550D01*
X137966462Y-90898990D01*
X137937410Y-90863589D01*
X137839952Y-90783609D01*
X137777450Y-90732315D01*
X137594954Y-90634768D01*
X137485359Y-90601523D01*
X137396932Y-90574699D01*
X137191000Y-90554417D01*
X136985067Y-90574699D01*
X136787043Y-90634769D01*
X136604551Y-90732314D01*
X136444588Y-90863590D01*
X136413229Y-90901802D01*
X136368243Y-90936223D01*
X136312643Y-90947047D01*
X136258030Y-90932013D01*
X136246258Y-90921489D01*
X136234124Y-90920427D01*
X135544553Y-91610000D01*
X134837447Y-91610000D01*
X134147875Y-90920427D01*
X134135739Y-90921489D01*
X134123968Y-90932013D01*
X134069355Y-90947046D01*
X134013755Y-90936222D01*
X133968770Y-90901801D01*
X133937411Y-90863590D01*
X133847619Y-90789901D01*
X133777450Y-90732315D01*
X133594954Y-90634768D01*
X133485359Y-90601523D01*
X133396932Y-90574699D01*
X133317492Y-90566875D01*
X134501427Y-90566875D01*
X135191000Y-91256447D01*
X135191001Y-91256447D01*
X135880572Y-90566875D01*
X135880571Y-90566873D01*
X135818386Y-90523331D01*
X135620161Y-90430898D01*
X135408886Y-90374287D01*
X135191000Y-90355224D01*
X134973113Y-90374287D01*
X134761840Y-90430897D01*
X134563611Y-90523333D01*
X134501428Y-90566874D01*
X134501427Y-90566875D01*
X133317492Y-90566875D01*
X133191000Y-90554417D01*
X132985067Y-90574699D01*
X132787043Y-90634769D01*
X132604551Y-90732314D01*
X132439939Y-90867405D01*
X132379998Y-90894129D01*
X132314812Y-90886517D01*
X132262641Y-90846700D01*
X132246622Y-90806970D01*
X132246163Y-90807173D01*
X132238585Y-90790010D01*
X132238585Y-90790009D01*
X132193206Y-90687235D01*
X132193204Y-90687233D01*
X132193204Y-90687232D01*
X132113767Y-90607795D01*
X132099562Y-90601523D01*
X132010991Y-90562415D01*
X131985865Y-90559500D01*
X131985863Y-90559500D01*
X130396132Y-90559500D01*
X130371011Y-90562414D01*
X130268232Y-90607795D01*
X130188795Y-90687232D01*
X130143415Y-90790009D01*
X130140500Y-90815136D01*
X130140500Y-92404867D01*
X125221414Y-92404867D01*
X125235044Y-92371962D01*
X125255682Y-92215200D01*
X125235044Y-92058438D01*
X125174536Y-91912359D01*
X125151626Y-91882502D01*
X125078282Y-91786917D01*
X124952840Y-91690663D01*
X124806762Y-91630156D01*
X124650000Y-91609517D01*
X124493237Y-91630156D01*
X124347159Y-91690663D01*
X124221717Y-91786917D01*
X124125463Y-91912359D01*
X124064956Y-92058437D01*
X124044317Y-92215200D01*
X113525656Y-92215200D01*
X113534082Y-92151200D01*
X113513444Y-91994438D01*
X113452936Y-91848359D01*
X113356682Y-91722917D01*
X113231240Y-91626663D01*
X113085162Y-91566156D01*
X112928400Y-91545517D01*
X112771637Y-91566156D01*
X112625559Y-91626663D01*
X112500117Y-91722917D01*
X112403863Y-91848359D01*
X112343356Y-91994437D01*
X112322717Y-92151199D01*
X108721860Y-92151199D01*
X108712282Y-92138717D01*
X108586840Y-92042463D01*
X108440762Y-91981956D01*
X108284000Y-91961317D01*
X108127237Y-91981956D01*
X107981159Y-92042463D01*
X107855717Y-92138717D01*
X107759463Y-92264159D01*
X107698956Y-92410237D01*
X107678317Y-92567000D01*
X96012000Y-92567000D01*
X96012000Y-87698718D01*
X96022141Y-87649604D01*
X96050905Y-87608524D01*
X96093588Y-87582197D01*
X96111101Y-87575822D01*
X96111103Y-87575821D01*
X96402623Y-87429414D01*
X96675177Y-87250153D01*
X96925077Y-87040462D01*
X97148943Y-86803177D01*
X97343749Y-86541508D01*
X97506859Y-86258992D01*
X97636069Y-85959451D01*
X97729630Y-85646934D01*
X97786278Y-85325669D01*
X97805246Y-85000000D01*
X97786278Y-84674331D01*
X97736748Y-84393435D01*
X97729631Y-84353071D01*
X97726858Y-84343807D01*
X97636069Y-84040549D01*
X97506859Y-83741008D01*
X97343749Y-83458492D01*
X97148943Y-83196823D01*
X96925077Y-82959538D01*
X96882599Y-82923895D01*
X96675180Y-82749849D01*
X96531055Y-82655057D01*
X96402623Y-82570586D01*
X96402619Y-82570584D01*
X96402616Y-82570582D01*
X96111101Y-82424177D01*
X96093588Y-82417803D01*
X96050905Y-82391476D01*
X96022141Y-82350396D01*
X96012000Y-82301282D01*
X96012000Y-80508126D01*
X96013061Y-80491942D01*
X96024070Y-80408316D01*
X96045434Y-80353377D01*
X96089752Y-80314511D01*
X96147009Y-80300500D01*
X103750991Y-80300500D01*
X103808248Y-80314511D01*
G37*
%TD.AperFunction*%
%TD*%
%TA.AperFunction,Conductor*%
%TO.N,+BATT*%
G36*
X65442043Y-96160105D02*
G01*
X65452066Y-96161425D01*
X65462271Y-96162430D01*
X65471934Y-96163383D01*
X65471942Y-96163383D01*
X65471957Y-96163385D01*
X65488141Y-96164446D01*
X65508126Y-96165100D01*
X70269239Y-96165100D01*
X70335864Y-96184520D01*
X70381621Y-96236696D01*
X70392178Y-96305286D01*
X70387317Y-96342200D01*
X70407956Y-96498962D01*
X70468463Y-96645040D01*
X70564717Y-96770482D01*
X70665903Y-96848124D01*
X70690159Y-96866736D01*
X70836238Y-96927244D01*
X70993000Y-96947882D01*
X71149762Y-96927244D01*
X71295841Y-96866736D01*
X71421282Y-96770482D01*
X71517536Y-96645041D01*
X71578044Y-96498962D01*
X71598682Y-96342200D01*
X71593822Y-96305285D01*
X71604379Y-96236696D01*
X71650136Y-96184520D01*
X71716761Y-96165100D01*
X75450839Y-96165100D01*
X75517464Y-96184520D01*
X75563221Y-96236696D01*
X75573778Y-96305286D01*
X75568917Y-96342200D01*
X75589556Y-96498962D01*
X75650063Y-96645040D01*
X75746317Y-96770482D01*
X75847503Y-96848124D01*
X75871759Y-96866736D01*
X76017838Y-96927244D01*
X76174600Y-96947882D01*
X76331362Y-96927244D01*
X76477441Y-96866736D01*
X76602882Y-96770482D01*
X76699136Y-96645041D01*
X76759644Y-96498962D01*
X76780282Y-96342200D01*
X76775422Y-96305285D01*
X76785979Y-96236696D01*
X76831736Y-96184520D01*
X76898361Y-96165100D01*
X80083449Y-96165100D01*
X80141902Y-96179742D01*
X80186551Y-96220209D01*
X80206852Y-96276946D01*
X80198010Y-96336550D01*
X80192017Y-96351018D01*
X80186955Y-96363239D01*
X80166317Y-96519999D01*
X80186956Y-96676762D01*
X80247463Y-96822840D01*
X80343717Y-96948282D01*
X80458174Y-97036107D01*
X80469159Y-97044536D01*
X80615238Y-97105044D01*
X80772000Y-97125682D01*
X80928762Y-97105044D01*
X81074841Y-97044536D01*
X81200282Y-96948282D01*
X81287422Y-96834717D01*
X81335331Y-96796939D01*
X81395459Y-96786582D01*
X81453249Y-96806156D01*
X81494707Y-96850921D01*
X81509797Y-96910040D01*
X81512147Y-98672691D01*
X81497183Y-98731907D01*
X81455765Y-98776797D01*
X81397942Y-98796469D01*
X81337742Y-98786149D01*
X81289771Y-98748342D01*
X81200282Y-98631717D01*
X81074840Y-98535463D01*
X80928762Y-98474956D01*
X80772000Y-98454317D01*
X80615237Y-98474956D01*
X80469159Y-98535463D01*
X80343717Y-98631717D01*
X80247463Y-98757159D01*
X80186956Y-98903237D01*
X80166317Y-99060000D01*
X80186956Y-99216762D01*
X80247463Y-99362840D01*
X80343717Y-99488282D01*
X80441996Y-99563693D01*
X80469159Y-99584536D01*
X80615238Y-99645044D01*
X80772000Y-99665682D01*
X80928762Y-99645044D01*
X81074841Y-99584536D01*
X81200282Y-99488282D01*
X81256053Y-99415600D01*
X81290802Y-99370314D01*
X81338712Y-99332534D01*
X81398841Y-99322177D01*
X81456630Y-99341751D01*
X81498088Y-99386516D01*
X81513178Y-99445635D01*
X81518932Y-103761533D01*
X81503968Y-103820749D01*
X81462550Y-103865639D01*
X81404727Y-103885311D01*
X81344527Y-103874991D01*
X81296556Y-103837184D01*
X81200282Y-103711717D01*
X81074840Y-103615463D01*
X80928762Y-103554956D01*
X80772000Y-103534317D01*
X80615237Y-103554956D01*
X80469159Y-103615463D01*
X80343717Y-103711717D01*
X80247463Y-103837159D01*
X80186956Y-103983237D01*
X80166317Y-104139999D01*
X80186956Y-104296762D01*
X80247463Y-104442840D01*
X80343717Y-104568282D01*
X80469158Y-104664535D01*
X80469159Y-104664536D01*
X80615238Y-104725044D01*
X80772000Y-104745682D01*
X80928762Y-104725044D01*
X81074841Y-104664536D01*
X81200282Y-104568282D01*
X81296536Y-104442841D01*
X81296536Y-104442839D01*
X81297563Y-104441502D01*
X81345473Y-104403722D01*
X81405602Y-104393365D01*
X81463391Y-104412939D01*
X81504849Y-104457704D01*
X81519939Y-104516823D01*
X81521787Y-105903322D01*
X81516378Y-105936290D01*
X81517243Y-105936522D01*
X81507814Y-105971712D01*
X81500020Y-106010898D01*
X81486173Y-106116074D01*
X81484216Y-106135936D01*
X81483154Y-106152138D01*
X81482500Y-106172139D01*
X81482500Y-114748442D01*
X81473072Y-114795867D01*
X81472769Y-114796599D01*
X81456631Y-114824584D01*
X81397056Y-114902348D01*
X81374164Y-114925271D01*
X81296632Y-114984833D01*
X81260982Y-115003908D01*
X81221090Y-115010500D01*
X65508126Y-115010500D01*
X65490805Y-115011066D01*
X65488139Y-115011154D01*
X65471956Y-115012215D01*
X65465327Y-115012867D01*
X65452069Y-115014174D01*
X65440685Y-115015672D01*
X65372097Y-115005117D01*
X65319920Y-114959360D01*
X65300500Y-114892734D01*
X65300500Y-111477999D01*
X67012356Y-111477999D01*
X67032891Y-111725816D01*
X67032891Y-111725819D01*
X67032892Y-111725821D01*
X67093937Y-111966881D01*
X67127047Y-112042363D01*
X67193825Y-112194604D01*
X67193827Y-112194607D01*
X67329836Y-112402785D01*
X67498256Y-112585738D01*
X67563667Y-112636649D01*
X67694485Y-112738470D01*
X67694487Y-112738471D01*
X67694491Y-112738474D01*
X67913190Y-112856828D01*
X68148386Y-112937571D01*
X68393665Y-112978500D01*
X68642335Y-112978500D01*
X68887614Y-112937571D01*
X69122810Y-112856828D01*
X69341509Y-112738474D01*
X69537744Y-112585738D01*
X69706164Y-112402785D01*
X69842173Y-112194607D01*
X69942063Y-111966881D01*
X70003108Y-111725821D01*
X70023643Y-111478000D01*
X70003108Y-111230179D01*
X69942063Y-110989119D01*
X69852016Y-110783833D01*
X69842174Y-110761395D01*
X69842173Y-110761393D01*
X69706164Y-110553215D01*
X69537744Y-110370262D01*
X69500436Y-110341224D01*
X69341514Y-110217529D01*
X69341510Y-110217526D01*
X69341509Y-110217526D01*
X69122810Y-110099172D01*
X69122806Y-110099170D01*
X69122805Y-110099170D01*
X68887615Y-110018429D01*
X68642335Y-109977500D01*
X68393665Y-109977500D01*
X68148384Y-110018429D01*
X67913194Y-110099170D01*
X67694485Y-110217529D01*
X67498259Y-110370259D01*
X67498256Y-110370261D01*
X67498256Y-110370262D01*
X67329836Y-110553215D01*
X67320824Y-110567009D01*
X67193825Y-110761395D01*
X67103780Y-110966678D01*
X67093937Y-110989119D01*
X67045702Y-111179594D01*
X67032891Y-111230183D01*
X67012356Y-111477999D01*
X65300500Y-111477999D01*
X65300500Y-107315000D01*
X74070317Y-107315000D01*
X74090956Y-107471762D01*
X74151463Y-107617840D01*
X74247717Y-107743282D01*
X74373159Y-107839536D01*
X74519238Y-107900044D01*
X74676000Y-107920682D01*
X74832762Y-107900044D01*
X74978841Y-107839536D01*
X75104282Y-107743282D01*
X75200536Y-107617841D01*
X75261044Y-107471762D01*
X75281682Y-107315000D01*
X75261044Y-107158238D01*
X75200536Y-107012159D01*
X75104282Y-106886717D01*
X74978840Y-106790463D01*
X74832762Y-106729956D01*
X74676000Y-106709317D01*
X74519237Y-106729956D01*
X74373159Y-106790463D01*
X74247717Y-106886717D01*
X74151463Y-107012159D01*
X74090956Y-107158237D01*
X74070317Y-107315000D01*
X65300500Y-107315000D01*
X65300500Y-105918000D01*
X73003517Y-105918000D01*
X73024156Y-106074762D01*
X73084663Y-106220840D01*
X73180917Y-106346282D01*
X73284809Y-106426000D01*
X73306359Y-106442536D01*
X73452438Y-106503044D01*
X73609200Y-106523682D01*
X73765962Y-106503044D01*
X73912041Y-106442536D01*
X74037482Y-106346282D01*
X74133736Y-106220841D01*
X74194244Y-106074762D01*
X74214882Y-105918000D01*
X74194244Y-105761238D01*
X74133736Y-105615159D01*
X74127760Y-105607371D01*
X74037482Y-105489717D01*
X73912040Y-105393463D01*
X73765962Y-105332956D01*
X73609200Y-105312317D01*
X73452437Y-105332956D01*
X73306359Y-105393463D01*
X73180917Y-105489717D01*
X73084663Y-105615159D01*
X73024156Y-105761237D01*
X73003517Y-105918000D01*
X65300500Y-105918000D01*
X65300500Y-96282866D01*
X65319920Y-96216240D01*
X65372096Y-96170483D01*
X65440687Y-96159927D01*
X65442043Y-96160105D01*
G37*
%TD.AperFunction*%
%TD*%
M02*
