M48
; DRILL file {KiCad 7.0.1} date Fri Oct  6 11:12:31 2023
; FORMAT={-:-/ absolute / metric / decimal}
; #@! TF.CreationDate,2023-10-06T11:12:31+02:00
; #@! TF.GenerationSoftware,Kicad,Pcbnew,7.0.1
; #@! TF.FileFunction,Plated,1,4,PTH
FMAT,2
METRIC
; #@! TA.AperFunction,Plated,PTH,ViaDrill
T1C0.200
; #@! TA.AperFunction,Plated,PTH,ViaDrill
T2C0.250
; #@! TA.AperFunction,Plated,PTH,ViaDrill
T3C0.300
; #@! TA.AperFunction,Plated,PTH,ComponentDrill
T4C0.650
; #@! TA.AperFunction,Plated,PTH,ComponentDrill
T5C0.700
; #@! TA.AperFunction,Plated,PTH,ComponentDrill
T6C0.800
; #@! TA.AperFunction,Plated,PTH,ComponentDrill
T7C0.889
; #@! TA.AperFunction,Plated,PTH,ComponentDrill
T8C0.900
; #@! TA.AperFunction,Plated,PTH,ComponentDrill
T9C1.000
; #@! TA.AperFunction,Plated,PTH,ComponentDrill
T10C1.200
; #@! TA.AperFunction,Plated,PTH,ComponentDrill
T11C1.397
; #@! TA.AperFunction,Plated,PTH,ComponentDrill
T12C2.000
%
G90
G05
T1
X80.975Y-102.489
X81.788Y-102.489
X114.935Y-98.73
X115.51Y-99.813
X116.84Y-100.203
X117.196Y-99.416
T2
X70.993Y-96.342
X71.145Y-83.896
X72.989Y-105.003
X73.609Y-105.918
X74.676Y-107.315
X76.149Y-83.896
X76.175Y-96.342
X77.597Y-110.157
X78.486Y-110.157
X80.772Y-93.98
X80.772Y-96.52
X80.772Y-99.06
X80.772Y-104.14
X82.791Y-86.462
X83.312Y-93.98
X83.312Y-96.52
X83.312Y-99.06
X83.312Y-104.14
X83.705Y-86.462
X84.328Y-115.364
X84.899Y-89.713
X85.725Y-91.806
X85.852Y-93.98
X85.852Y-96.52
X85.966Y-89.713
X86.106Y-109.234
X86.525Y-86.462
X87.388Y-86.462
X88.392Y-93.98
X88.392Y-99.187
X89.027Y-107.329
X89.052Y-108.204
X90.932Y-93.98
X92.456Y-98.171
X92.456Y-100.838
X93.599Y-93.472
X93.599Y-94.361
X93.599Y-98.171
X93.599Y-100.838
X93.726Y-106.426
X94.488Y-109.855
X95.504Y-109.855
X96.012Y-96.52
X99.949Y-93.599
X99.949Y-94.488
X99.949Y-95.504
X101.219Y-93.599
X101.219Y-94.488
X103.124Y-93.599
X103.124Y-94.488
X103.429Y-125.282
X104.267Y-93.599
X104.267Y-94.488
X104.267Y-95.504
X105.918Y-115.824
X105.918Y-117.856
X106.466Y-108.204
X107.467Y-115.392
X107.696Y-106.426
X107.95Y-109.474
X107.95Y-119.761
X108.255Y-102.616
X108.28Y-96.571
X108.28Y-97.434
X108.284Y-92.567
X108.284Y-93.481
X108.407Y-115.392
X108.458Y-125.282
X108.674Y-118.378
X108.712Y-80.772
X108.712Y-82.677
X108.712Y-84.582
X109.593Y-118.384
X109.703Y-120.307
X110.316Y-92.923
X110.363Y-94.742
X110.744Y-108.966
X111.252Y-101.498
X111.76Y-117.348
X112.293Y-97.003
X112.319Y-86.462
X112.395Y-113.425
X112.928Y-92.151
X113.157Y-98.552
X113.748Y-120.371
X113.792Y-117.602
X115.062Y-113.03
X116.058Y-87.472
X116.156Y-116.508
X116.434Y-113.03
X116.942Y-121.704
X117.045Y-87.483
X118.77Y-116.281
X118.77Y-117.907
X118.77Y-121.704
X119.634Y-100.203
X120.04Y-121.704
X121.285Y-80.772
X121.285Y-82.677
X121.285Y-84.582
X121.514Y-98.857
X121.958Y-97.702
X122.174Y-112.979
X122.216Y-108.077
X122.657Y-105.359
X122.66Y-101.824
X123.571Y-117.602
X124.22Y-101.832
X124.511Y-111.912
X124.65Y-92.215
X124.712Y-117.616
X125.73Y-118.618
X125.73Y-122.682
X126.873Y-122.682
X127.635Y-118.618
X128.905Y-102.921
X129.667Y-114.554
X130.708Y-106.274
X131.191Y-111.633
X132.08Y-119.761
X132.563Y-111.608
X132.588Y-109.398
X132.588Y-110.49
X132.68Y-108.077
X132.842Y-97.79
X133.477Y-120.015
X133.477Y-121.285
X133.604Y-114.554
X133.604Y-117.475
X134.925Y-103.988
X135.128Y-112.293
X136.481Y-103.793
X136.55Y-101.549
X138.379Y-102.108
X138.938Y-107.696
X139.192Y-109.398
X139.192Y-110.49
X139.192Y-111.608
X139.192Y-112.776
X140.081Y-108.204
X145.796Y-91.923
X145.796Y-92.786
T3
X104.572Y-80.823
X104.572Y-83.185
X104.572Y-85.547
X104.572Y-87.909
X104.572Y-90.297
X106.934Y-90.297
X109.296Y-90.297
X111.658Y-90.297
X118.44Y-90.297
X120.371Y-96.139
X120.802Y-90.297
X123.165Y-90.297
X125.527Y-80.823
X125.527Y-83.185
X125.527Y-85.547
X125.527Y-87.909
X125.527Y-90.297
T6
X100.854Y-110.3
X100.854Y-112.3
X100.854Y-114.3
X100.854Y-116.3
X100.854Y-118.3
X102.854Y-110.3
X102.854Y-112.3
X102.854Y-114.3
X102.854Y-116.3
X102.854Y-118.3
T7
X77.46Y-140.16
X80.0Y-140.16
X82.54Y-140.16
X90.16Y-127.46
X90.16Y-130.0
X90.16Y-132.54
X147.46Y-140.16
X150.0Y-140.16
X152.54Y-140.16
X160.16Y-127.46
X160.16Y-130.0
X160.16Y-132.54
T8
X67.3Y-126.825
X67.3Y-133.175
X72.38Y-126.825
X72.38Y-133.175
X137.3Y-126.825
X137.3Y-133.175
X142.38Y-126.825
X142.38Y-133.175
T9
X131.191Y-91.61
X133.191Y-91.61
X135.191Y-91.61
X137.191Y-91.61
X148.833Y-89.829
X148.833Y-92.329
X148.833Y-94.829
X163.333Y-89.829
X163.333Y-94.829
T10
X68.518Y-107.978
X68.518Y-111.478
T11
X73.332Y-122.38
X73.332Y-137.62
X86.667Y-122.38
X86.667Y-137.62
X143.332Y-122.38
X143.332Y-137.62
X156.667Y-122.38
X156.667Y-137.62
T4
X82.677Y-84.629G85X82.677Y-85.029
G05
X87.517Y-84.629G85X87.517Y-85.029
G05
T5
X82.367Y-81.579G85X82.367Y-82.079
G05
X87.827Y-81.579G85X87.827Y-82.079
G05
T12
X156.083Y-86.729G85X156.583Y-86.729
G05
X156.083Y-97.929G85X156.583Y-97.929
G05
T0
M30
