%TF.GenerationSoftware,KiCad,Pcbnew,7.0.1*%
%TF.CreationDate,2023-10-06T11:12:28+02:00*%
%TF.ProjectId,Controller_board,436f6e74-726f-46c6-9c65-725f626f6172,rev?*%
%TF.SameCoordinates,Original*%
%TF.FileFunction,Legend,Bot*%
%TF.FilePolarity,Positive*%
%FSLAX46Y46*%
G04 Gerber Fmt 4.6, Leading zero omitted, Abs format (unit mm)*
G04 Created by KiCad (PCBNEW 7.0.1) date 2023-10-06 11:12:28*
%MOMM*%
%LPD*%
G01*
G04 APERTURE LIST*
%ADD10C,0.125000*%
%ADD11C,0.150000*%
%ADD12C,0.120000*%
G04 APERTURE END LIST*
D10*
G36*
X118669291Y-105009873D02*
G01*
X117252879Y-105009873D01*
X117252879Y-104661191D01*
X117567170Y-104661191D01*
X117569002Y-104669387D01*
X117573986Y-104676060D01*
X117576744Y-104678386D01*
X117583631Y-104682613D01*
X117591395Y-104685086D01*
X117599214Y-104685811D01*
X117606872Y-104683973D01*
X117613906Y-104679546D01*
X117619340Y-104674674D01*
X117948189Y-104315148D01*
X118310450Y-104696949D01*
X118316544Y-104702332D01*
X118323532Y-104706520D01*
X118330575Y-104708086D01*
X118338771Y-104706702D01*
X118345920Y-104702551D01*
X118347770Y-104700856D01*
X118352451Y-104694499D01*
X118354823Y-104686570D01*
X118355000Y-104683466D01*
X118355000Y-104614101D01*
X118354409Y-104605542D01*
X118352636Y-104597450D01*
X118349683Y-104589825D01*
X118345547Y-104582667D01*
X118340230Y-104575977D01*
X118338196Y-104573850D01*
X118037288Y-104256725D01*
X118324909Y-104256725D01*
X118332979Y-104255663D01*
X118340265Y-104252477D01*
X118346207Y-104247737D01*
X118351213Y-104241277D01*
X118354141Y-104233985D01*
X118355000Y-104226635D01*
X118355000Y-104180717D01*
X118353937Y-104172646D01*
X118350751Y-104165361D01*
X118346011Y-104159419D01*
X118339416Y-104154302D01*
X118331990Y-104151309D01*
X118324518Y-104150431D01*
X117597651Y-104150431D01*
X117589470Y-104151493D01*
X117582119Y-104154679D01*
X117576158Y-104159419D01*
X117571041Y-104165991D01*
X117568048Y-104173348D01*
X117567170Y-104180717D01*
X117567170Y-104226635D01*
X117568255Y-104234682D01*
X117571510Y-104241898D01*
X117576353Y-104247737D01*
X117583059Y-104252854D01*
X117590551Y-104255848D01*
X117598042Y-104256725D01*
X117864560Y-104256725D01*
X117584364Y-104555874D01*
X117578521Y-104562409D01*
X117573886Y-104569411D01*
X117570461Y-104576880D01*
X117568244Y-104584817D01*
X117567237Y-104593220D01*
X117567170Y-104596125D01*
X117567170Y-104661191D01*
X117252879Y-104661191D01*
X117252879Y-103690668D01*
X117554665Y-103690668D01*
X117554823Y-103703553D01*
X117555297Y-103716170D01*
X117556086Y-103728520D01*
X117557192Y-103740603D01*
X117558614Y-103752419D01*
X117560352Y-103763968D01*
X117562406Y-103775250D01*
X117564776Y-103786265D01*
X117567462Y-103797012D01*
X117570464Y-103807492D01*
X117573782Y-103817706D01*
X117577416Y-103827652D01*
X117581366Y-103837331D01*
X117585631Y-103846742D01*
X117590213Y-103855887D01*
X117595111Y-103864764D01*
X117600239Y-103873390D01*
X117605513Y-103881730D01*
X117610931Y-103889785D01*
X117616495Y-103897554D01*
X117622203Y-103905038D01*
X117628056Y-103912236D01*
X117634055Y-103919149D01*
X117640198Y-103925776D01*
X117646487Y-103932118D01*
X117652920Y-103938175D01*
X117659499Y-103943946D01*
X117666222Y-103949431D01*
X117673091Y-103954631D01*
X117680105Y-103959546D01*
X117687263Y-103964175D01*
X117694567Y-103968519D01*
X117701904Y-103972597D01*
X117709212Y-103976429D01*
X117716491Y-103980016D01*
X117723742Y-103983356D01*
X117730963Y-103986451D01*
X117741740Y-103990633D01*
X117752452Y-103994262D01*
X117763099Y-103997338D01*
X117773681Y-103999860D01*
X117784197Y-104001830D01*
X117794648Y-104003247D01*
X117805034Y-104004111D01*
X117808482Y-104004276D01*
X117816715Y-104002892D01*
X117823976Y-103998741D01*
X117825872Y-103997046D01*
X117830553Y-103990688D01*
X117832925Y-103982760D01*
X117833101Y-103979656D01*
X117833101Y-103928267D01*
X117831973Y-103920302D01*
X117828587Y-103912918D01*
X117826263Y-103909705D01*
X117820474Y-103904255D01*
X117813367Y-103900509D01*
X117807896Y-103898958D01*
X117799397Y-103896882D01*
X117791095Y-103894559D01*
X117782990Y-103891991D01*
X117775081Y-103889176D01*
X117767370Y-103886116D01*
X117759856Y-103882811D01*
X117752539Y-103879259D01*
X117745418Y-103875462D01*
X117738495Y-103871419D01*
X117731768Y-103867130D01*
X117725238Y-103862596D01*
X117718906Y-103857816D01*
X117712770Y-103852790D01*
X117706831Y-103847518D01*
X117701089Y-103842000D01*
X117695544Y-103836237D01*
X117690267Y-103830173D01*
X117685331Y-103823704D01*
X117680736Y-103816831D01*
X117676481Y-103809553D01*
X117672566Y-103801871D01*
X117668992Y-103793784D01*
X117665758Y-103785293D01*
X117662864Y-103776397D01*
X117660311Y-103767097D01*
X117658098Y-103757392D01*
X117656226Y-103747283D01*
X117654694Y-103736769D01*
X117653503Y-103725850D01*
X117652652Y-103714528D01*
X117652141Y-103702800D01*
X117651971Y-103690668D01*
X117652197Y-103678673D01*
X117652875Y-103667013D01*
X117654004Y-103655689D01*
X117655586Y-103644702D01*
X117657619Y-103634049D01*
X117660104Y-103623733D01*
X117663041Y-103613753D01*
X117666430Y-103604108D01*
X117670271Y-103594800D01*
X117674563Y-103585827D01*
X117679308Y-103577190D01*
X117684504Y-103568889D01*
X117690152Y-103560923D01*
X117696252Y-103553294D01*
X117702804Y-103546000D01*
X117709808Y-103539042D01*
X117717191Y-103532451D01*
X117724883Y-103526256D01*
X117732884Y-103520458D01*
X117741193Y-103515057D01*
X117749810Y-103510053D01*
X117758736Y-103505446D01*
X117767969Y-103501236D01*
X117777512Y-103497423D01*
X117787362Y-103494007D01*
X117797521Y-103490987D01*
X117807989Y-103488365D01*
X117818764Y-103486139D01*
X117829848Y-103484310D01*
X117841241Y-103482878D01*
X117852942Y-103481843D01*
X117864951Y-103481205D01*
X117873975Y-103480976D01*
X117883855Y-103480778D01*
X117891826Y-103480649D01*
X117900277Y-103480538D01*
X117909210Y-103480443D01*
X117918623Y-103480366D01*
X117928517Y-103480306D01*
X117938892Y-103480263D01*
X117949748Y-103480237D01*
X117961085Y-103480228D01*
X117972421Y-103480237D01*
X117983277Y-103480263D01*
X117993652Y-103480306D01*
X118003546Y-103480366D01*
X118012960Y-103480443D01*
X118021892Y-103480538D01*
X118030344Y-103480649D01*
X118038314Y-103480778D01*
X118048194Y-103480976D01*
X118057219Y-103481205D01*
X118069228Y-103481843D01*
X118080928Y-103482878D01*
X118092321Y-103484310D01*
X118103405Y-103486139D01*
X118114181Y-103488365D01*
X118124648Y-103490987D01*
X118134807Y-103494007D01*
X118144658Y-103497423D01*
X118154200Y-103501236D01*
X118163434Y-103505446D01*
X118172359Y-103510053D01*
X118180976Y-103515057D01*
X118189285Y-103520458D01*
X118197286Y-103526256D01*
X118204978Y-103532451D01*
X118212362Y-103539042D01*
X118219365Y-103546000D01*
X118225917Y-103553294D01*
X118232017Y-103560923D01*
X118237665Y-103568889D01*
X118242862Y-103577190D01*
X118247606Y-103585827D01*
X118251898Y-103594800D01*
X118255739Y-103604108D01*
X118259128Y-103613753D01*
X118262065Y-103623733D01*
X118264550Y-103634049D01*
X118266584Y-103644702D01*
X118268165Y-103655689D01*
X118269295Y-103667013D01*
X118269972Y-103678673D01*
X118270198Y-103690668D01*
X118270029Y-103702800D01*
X118269521Y-103714528D01*
X118268673Y-103725850D01*
X118267487Y-103736769D01*
X118265962Y-103747283D01*
X118264098Y-103757392D01*
X118261896Y-103767097D01*
X118259354Y-103776397D01*
X118256473Y-103785293D01*
X118253254Y-103793784D01*
X118249696Y-103801871D01*
X118245799Y-103809553D01*
X118241562Y-103816831D01*
X118236987Y-103823704D01*
X118232074Y-103830173D01*
X118226821Y-103836237D01*
X118221277Y-103842000D01*
X118215537Y-103847518D01*
X118209602Y-103852790D01*
X118203471Y-103857816D01*
X118197145Y-103862596D01*
X118190624Y-103867130D01*
X118183907Y-103871419D01*
X118176995Y-103875462D01*
X118169888Y-103879259D01*
X118162585Y-103882811D01*
X118155087Y-103886116D01*
X118147393Y-103889176D01*
X118139504Y-103891991D01*
X118131420Y-103894559D01*
X118123140Y-103896882D01*
X118114665Y-103898958D01*
X118106678Y-103901569D01*
X118100010Y-103905883D01*
X118096297Y-103909705D01*
X118091870Y-103916822D01*
X118089699Y-103924519D01*
X118089459Y-103928267D01*
X118089459Y-103979656D01*
X118090684Y-103987428D01*
X118094745Y-103994715D01*
X118096884Y-103997046D01*
X118103209Y-104001727D01*
X118111031Y-104004099D01*
X118114078Y-104004276D01*
X118124409Y-104003596D01*
X118134812Y-104002364D01*
X118145287Y-104000578D01*
X118155835Y-103998240D01*
X118166454Y-103995349D01*
X118177146Y-103991904D01*
X118187909Y-103987907D01*
X118198745Y-103983356D01*
X118206009Y-103980016D01*
X118213305Y-103976429D01*
X118220633Y-103972597D01*
X118227993Y-103968519D01*
X118235273Y-103964175D01*
X118242410Y-103959546D01*
X118249403Y-103954631D01*
X118256252Y-103949431D01*
X118262958Y-103943946D01*
X118269521Y-103938175D01*
X118275940Y-103932118D01*
X118282215Y-103925776D01*
X118288347Y-103919149D01*
X118294336Y-103912236D01*
X118300181Y-103905038D01*
X118305882Y-103897554D01*
X118311440Y-103889785D01*
X118316855Y-103881730D01*
X118322126Y-103873390D01*
X118327254Y-103864764D01*
X118332128Y-103855887D01*
X118336687Y-103846742D01*
X118340933Y-103837331D01*
X118344863Y-103827652D01*
X118348480Y-103817706D01*
X118351782Y-103807492D01*
X118354769Y-103797012D01*
X118357442Y-103786265D01*
X118359800Y-103775250D01*
X118361844Y-103763968D01*
X118363574Y-103752419D01*
X118364989Y-103740603D01*
X118366090Y-103728520D01*
X118366876Y-103716170D01*
X118367348Y-103703553D01*
X118367505Y-103690668D01*
X118367351Y-103679012D01*
X118366888Y-103667538D01*
X118366117Y-103656248D01*
X118365038Y-103645141D01*
X118363650Y-103634217D01*
X118361954Y-103623477D01*
X118359950Y-103612919D01*
X118357637Y-103602545D01*
X118355016Y-103592354D01*
X118352087Y-103582346D01*
X118348849Y-103572522D01*
X118345303Y-103562880D01*
X118341449Y-103553422D01*
X118337286Y-103544147D01*
X118332815Y-103535055D01*
X118328035Y-103526146D01*
X118322985Y-103517453D01*
X118317701Y-103509009D01*
X118312183Y-103500814D01*
X118306432Y-103492868D01*
X118300447Y-103485170D01*
X118294229Y-103477722D01*
X118287777Y-103470522D01*
X118281092Y-103463571D01*
X118274173Y-103456869D01*
X118267020Y-103450415D01*
X118259634Y-103444211D01*
X118252015Y-103438255D01*
X118244161Y-103432548D01*
X118236075Y-103427090D01*
X118227754Y-103421881D01*
X118219200Y-103416921D01*
X118210433Y-103412223D01*
X118201520Y-103407801D01*
X118192463Y-103403656D01*
X118183260Y-103399787D01*
X118173913Y-103396194D01*
X118164420Y-103392878D01*
X118154782Y-103389838D01*
X118145000Y-103387074D01*
X118135072Y-103384587D01*
X118124999Y-103382376D01*
X118114781Y-103380441D01*
X118104419Y-103378782D01*
X118093911Y-103377400D01*
X118083258Y-103376294D01*
X118072460Y-103375464D01*
X118061517Y-103374911D01*
X118052554Y-103374636D01*
X118042564Y-103374398D01*
X118034399Y-103374243D01*
X118025656Y-103374109D01*
X118016337Y-103373996D01*
X118006441Y-103373903D01*
X117995967Y-103373831D01*
X117984917Y-103373780D01*
X117973289Y-103373749D01*
X117965217Y-103373740D01*
X117961085Y-103373739D01*
X117952884Y-103373743D01*
X117944940Y-103373757D01*
X117933505Y-103373795D01*
X117922647Y-103373853D01*
X117912366Y-103373932D01*
X117902662Y-103374032D01*
X117893535Y-103374152D01*
X117884985Y-103374293D01*
X117877012Y-103374454D01*
X117867279Y-103374701D01*
X117860652Y-103374911D01*
X117849710Y-103375464D01*
X117838914Y-103376294D01*
X117828265Y-103377400D01*
X117817763Y-103378782D01*
X117807407Y-103380441D01*
X117797198Y-103382376D01*
X117787135Y-103384587D01*
X117777219Y-103387074D01*
X117767449Y-103389838D01*
X117757826Y-103392878D01*
X117748349Y-103396194D01*
X117739019Y-103399787D01*
X117729836Y-103403656D01*
X117720799Y-103407801D01*
X117711908Y-103412223D01*
X117703164Y-103416921D01*
X117694587Y-103421881D01*
X117686244Y-103427090D01*
X117678137Y-103432548D01*
X117670265Y-103438255D01*
X117662628Y-103444211D01*
X117655225Y-103450415D01*
X117648058Y-103456869D01*
X117641127Y-103463571D01*
X117634430Y-103470522D01*
X117627968Y-103477722D01*
X117621741Y-103485170D01*
X117615750Y-103492868D01*
X117609993Y-103500814D01*
X117604472Y-103509009D01*
X117599185Y-103517453D01*
X117594134Y-103526146D01*
X117589355Y-103535055D01*
X117584883Y-103544147D01*
X117580721Y-103553422D01*
X117576866Y-103562880D01*
X117573320Y-103572522D01*
X117570082Y-103582346D01*
X117567153Y-103592354D01*
X117564532Y-103602545D01*
X117562219Y-103612919D01*
X117560215Y-103623477D01*
X117558519Y-103634217D01*
X117557131Y-103645141D01*
X117556052Y-103656248D01*
X117555281Y-103667538D01*
X117554819Y-103679012D01*
X117554665Y-103690668D01*
X117252879Y-103690668D01*
X117252879Y-102953055D01*
X117554665Y-102953055D01*
X117554794Y-102963620D01*
X117555181Y-102974017D01*
X117555825Y-102984246D01*
X117556728Y-102994307D01*
X117557889Y-103004201D01*
X117559308Y-103013926D01*
X117560985Y-103023484D01*
X117562920Y-103032873D01*
X117565113Y-103042095D01*
X117567564Y-103051149D01*
X117570272Y-103060035D01*
X117573239Y-103068752D01*
X117576464Y-103077302D01*
X117579947Y-103085685D01*
X117583687Y-103093899D01*
X117587686Y-103101945D01*
X117591849Y-103109818D01*
X117596131Y-103117464D01*
X117600532Y-103124882D01*
X117605052Y-103132072D01*
X117609691Y-103139036D01*
X117614449Y-103145771D01*
X117619326Y-103152280D01*
X117624323Y-103158561D01*
X117629438Y-103164614D01*
X117634672Y-103170440D01*
X117642747Y-103178752D01*
X117651090Y-103186553D01*
X117659701Y-103193842D01*
X117668579Y-103200619D01*
X117677488Y-103206854D01*
X117686263Y-103212515D01*
X117694904Y-103217602D01*
X117703411Y-103222116D01*
X117711785Y-103226056D01*
X117720024Y-103229422D01*
X117728129Y-103232215D01*
X117736100Y-103234435D01*
X117743938Y-103236080D01*
X117754179Y-103237382D01*
X117756702Y-103237549D01*
X117764506Y-103237018D01*
X117771901Y-103233128D01*
X117774288Y-103230905D01*
X117778969Y-103224168D01*
X117781263Y-103216657D01*
X117781517Y-103212929D01*
X117781517Y-103167011D01*
X117780917Y-103158550D01*
X117778660Y-103150635D01*
X117776437Y-103146886D01*
X117770570Y-103141262D01*
X117763907Y-103136629D01*
X117756311Y-103132231D01*
X117747439Y-103127371D01*
X117740809Y-103123180D01*
X117734200Y-103118523D01*
X117727611Y-103113399D01*
X117721043Y-103107807D01*
X117714495Y-103101748D01*
X117707968Y-103095222D01*
X117701462Y-103088229D01*
X117694976Y-103080769D01*
X117688511Y-103072842D01*
X117686360Y-103070096D01*
X117680215Y-103061564D01*
X117674673Y-103052526D01*
X117669737Y-103042984D01*
X117665404Y-103032937D01*
X117661676Y-103022385D01*
X117658553Y-103011329D01*
X117656807Y-103003677D01*
X117655329Y-102995801D01*
X117654120Y-102987700D01*
X117653180Y-102979376D01*
X117652508Y-102970826D01*
X117652105Y-102962053D01*
X117651971Y-102953055D01*
X117652091Y-102944734D01*
X117652450Y-102936574D01*
X117653049Y-102928577D01*
X117653888Y-102920741D01*
X117655596Y-102909291D01*
X117657843Y-102898205D01*
X117660629Y-102887483D01*
X117663954Y-102877126D01*
X117667819Y-102867132D01*
X117672222Y-102857502D01*
X117677165Y-102848237D01*
X117682648Y-102839335D01*
X117688630Y-102831059D01*
X117695072Y-102823598D01*
X117701975Y-102816950D01*
X117709337Y-102811116D01*
X117717160Y-102806096D01*
X117725444Y-102801890D01*
X117734187Y-102798499D01*
X117743391Y-102795921D01*
X117753055Y-102794157D01*
X117763179Y-102793208D01*
X117770184Y-102793027D01*
X117779588Y-102793384D01*
X117788551Y-102794456D01*
X117797076Y-102796242D01*
X117805160Y-102798742D01*
X117812805Y-102801957D01*
X117820010Y-102805886D01*
X117826775Y-102810530D01*
X117833101Y-102815888D01*
X117839101Y-102822015D01*
X117844886Y-102828869D01*
X117850458Y-102836450D01*
X117855816Y-102844757D01*
X117860960Y-102853791D01*
X117864678Y-102861044D01*
X117868276Y-102868705D01*
X117871754Y-102876774D01*
X117875111Y-102885253D01*
X117878474Y-102894391D01*
X117881967Y-102904368D01*
X117885590Y-102915182D01*
X117888079Y-102922858D01*
X117890625Y-102930906D01*
X117893229Y-102939326D01*
X117895891Y-102948119D01*
X117898612Y-102957284D01*
X117901390Y-102966822D01*
X117904226Y-102976732D01*
X117907120Y-102987014D01*
X117910073Y-102997669D01*
X117913083Y-103008697D01*
X117916151Y-103020097D01*
X117917707Y-103025937D01*
X117919859Y-103033839D01*
X117922041Y-103041595D01*
X117924252Y-103049206D01*
X117928765Y-103063992D01*
X117933396Y-103078196D01*
X117938147Y-103091819D01*
X117943016Y-103104860D01*
X117948005Y-103117319D01*
X117953113Y-103129197D01*
X117958340Y-103140493D01*
X117963685Y-103151208D01*
X117969150Y-103161341D01*
X117974734Y-103170892D01*
X117980437Y-103179862D01*
X117986260Y-103188250D01*
X117992201Y-103196057D01*
X117998261Y-103203282D01*
X118001336Y-103206676D01*
X118007631Y-103213136D01*
X118014207Y-103219179D01*
X118021065Y-103224805D01*
X118028203Y-103230014D01*
X118035621Y-103234806D01*
X118043321Y-103239182D01*
X118051302Y-103243141D01*
X118059563Y-103246683D01*
X118068106Y-103249809D01*
X118076929Y-103252518D01*
X118086033Y-103254810D01*
X118095418Y-103256685D01*
X118105084Y-103258144D01*
X118115031Y-103259186D01*
X118125259Y-103259811D01*
X118135767Y-103260019D01*
X118144229Y-103259872D01*
X118152568Y-103259433D01*
X118160783Y-103258700D01*
X118168874Y-103257674D01*
X118176842Y-103256355D01*
X118184686Y-103254743D01*
X118192406Y-103252838D01*
X118200003Y-103250640D01*
X118207476Y-103248149D01*
X118214825Y-103245364D01*
X118222051Y-103242287D01*
X118229153Y-103238916D01*
X118236132Y-103235253D01*
X118242987Y-103231296D01*
X118249718Y-103227046D01*
X118256325Y-103222503D01*
X118262758Y-103217693D01*
X118269014Y-103212642D01*
X118275092Y-103207350D01*
X118280994Y-103201816D01*
X118286718Y-103196041D01*
X118292266Y-103190025D01*
X118297636Y-103183768D01*
X118302829Y-103177270D01*
X118307845Y-103170530D01*
X118312684Y-103163549D01*
X118317346Y-103156327D01*
X118321831Y-103148864D01*
X118326139Y-103141160D01*
X118330270Y-103133214D01*
X118334224Y-103125028D01*
X118338000Y-103116600D01*
X118341573Y-103107992D01*
X118344915Y-103099216D01*
X118348027Y-103090272D01*
X118350908Y-103081160D01*
X118353559Y-103071880D01*
X118355980Y-103062433D01*
X118358169Y-103052817D01*
X118360129Y-103043034D01*
X118361857Y-103033082D01*
X118363356Y-103022963D01*
X118364623Y-103012676D01*
X118365661Y-103002221D01*
X118366467Y-102991598D01*
X118367044Y-102980807D01*
X118367389Y-102969848D01*
X118367505Y-102958721D01*
X118367383Y-102948422D01*
X118367016Y-102938235D01*
X118366406Y-102928162D01*
X118365551Y-102918201D01*
X118364452Y-102908354D01*
X118363108Y-102898619D01*
X118361521Y-102888997D01*
X118359689Y-102879489D01*
X118357613Y-102870093D01*
X118355293Y-102860810D01*
X118352728Y-102851640D01*
X118349919Y-102842584D01*
X118346866Y-102833640D01*
X118343569Y-102824809D01*
X118340027Y-102816091D01*
X118336242Y-102807486D01*
X118332267Y-102799075D01*
X118328157Y-102790890D01*
X118323913Y-102782930D01*
X118319535Y-102775197D01*
X118315023Y-102767690D01*
X118310376Y-102760408D01*
X118305595Y-102753353D01*
X118300680Y-102746523D01*
X118295630Y-102739919D01*
X118290446Y-102733541D01*
X118285128Y-102727390D01*
X118279675Y-102721464D01*
X118274088Y-102715764D01*
X118268367Y-102710289D01*
X118262511Y-102705041D01*
X118256521Y-102700019D01*
X118247405Y-102692981D01*
X118238303Y-102686596D01*
X118229215Y-102680864D01*
X118220141Y-102675784D01*
X118211080Y-102671357D01*
X118202033Y-102667582D01*
X118193000Y-102664460D01*
X118183981Y-102661990D01*
X118174975Y-102660173D01*
X118165983Y-102659009D01*
X118159996Y-102658595D01*
X118152224Y-102659789D01*
X118144937Y-102663742D01*
X118142606Y-102665825D01*
X118137925Y-102672183D01*
X118135553Y-102680112D01*
X118135376Y-102683215D01*
X118135376Y-102729133D01*
X118136000Y-102737065D01*
X118138344Y-102745070D01*
X118140652Y-102749258D01*
X118146392Y-102755447D01*
X118153002Y-102759989D01*
X118160582Y-102763913D01*
X118168217Y-102767510D01*
X118175736Y-102771632D01*
X118183138Y-102776279D01*
X118190423Y-102781453D01*
X118197591Y-102787151D01*
X118204642Y-102793376D01*
X118211577Y-102800125D01*
X118218394Y-102807400D01*
X118225096Y-102815201D01*
X118231680Y-102823527D01*
X118236004Y-102829370D01*
X118242115Y-102838608D01*
X118247625Y-102848444D01*
X118252534Y-102858877D01*
X118255472Y-102866165D01*
X118258144Y-102873718D01*
X118260548Y-102881537D01*
X118262685Y-102889621D01*
X118264555Y-102897971D01*
X118266158Y-102906587D01*
X118267494Y-102915468D01*
X118268562Y-102924615D01*
X118269364Y-102934028D01*
X118269898Y-102943706D01*
X118270165Y-102953650D01*
X118270198Y-102958721D01*
X118270059Y-102968832D01*
X118269640Y-102978746D01*
X118268941Y-102988463D01*
X118267964Y-102997983D01*
X118266706Y-103007306D01*
X118265170Y-103016433D01*
X118263354Y-103025362D01*
X118261259Y-103034094D01*
X118258885Y-103042630D01*
X118256231Y-103050969D01*
X118253298Y-103059110D01*
X118250085Y-103067055D01*
X118246593Y-103074803D01*
X118242822Y-103082354D01*
X118238771Y-103089708D01*
X118234441Y-103096865D01*
X118229885Y-103103727D01*
X118225154Y-103110146D01*
X118217732Y-103118944D01*
X118209918Y-103126746D01*
X118201712Y-103133553D01*
X118193115Y-103139363D01*
X118184127Y-103144177D01*
X118174747Y-103147996D01*
X118164975Y-103150818D01*
X118154812Y-103152644D01*
X118144257Y-103153474D01*
X118140652Y-103153529D01*
X118131505Y-103153065D01*
X118122725Y-103151673D01*
X118114310Y-103149353D01*
X118106263Y-103146104D01*
X118098581Y-103141928D01*
X118091266Y-103136823D01*
X118084317Y-103130790D01*
X118077735Y-103123829D01*
X118071461Y-103116108D01*
X118065437Y-103107697D01*
X118061084Y-103100936D01*
X118056871Y-103093787D01*
X118052800Y-103086249D01*
X118048869Y-103078324D01*
X118045078Y-103070010D01*
X118041429Y-103061308D01*
X118037921Y-103052219D01*
X118034553Y-103042741D01*
X118031180Y-103032646D01*
X118027656Y-103021707D01*
X118025223Y-103013944D01*
X118022722Y-103005807D01*
X118020155Y-102997293D01*
X118017520Y-102988404D01*
X118014818Y-102979140D01*
X118012049Y-102969500D01*
X118009213Y-102959484D01*
X118006309Y-102949093D01*
X118003339Y-102938327D01*
X118000301Y-102927185D01*
X117997196Y-102915667D01*
X117994024Y-102903774D01*
X117990785Y-102891505D01*
X117987143Y-102878161D01*
X117983302Y-102865289D01*
X117979260Y-102852888D01*
X117975019Y-102840959D01*
X117970577Y-102829502D01*
X117965936Y-102818517D01*
X117961095Y-102808003D01*
X117956053Y-102797960D01*
X117950812Y-102788390D01*
X117945371Y-102779291D01*
X117939729Y-102770664D01*
X117933888Y-102762509D01*
X117927847Y-102754825D01*
X117921606Y-102747613D01*
X117915165Y-102740872D01*
X117908524Y-102734604D01*
X117901682Y-102728783D01*
X117894641Y-102723338D01*
X117887400Y-102718269D01*
X117879959Y-102713575D01*
X117872318Y-102709256D01*
X117864477Y-102705313D01*
X117856436Y-102701746D01*
X117848196Y-102698554D01*
X117839755Y-102695737D01*
X117831114Y-102693296D01*
X117822273Y-102691231D01*
X117813232Y-102689541D01*
X117803991Y-102688227D01*
X117794551Y-102687288D01*
X117784910Y-102686725D01*
X117775069Y-102686537D01*
X117764051Y-102686803D01*
X117753197Y-102687602D01*
X117742509Y-102688933D01*
X117731985Y-102690796D01*
X117721626Y-102693191D01*
X117711432Y-102696120D01*
X117701403Y-102699580D01*
X117691538Y-102703573D01*
X117681839Y-102708098D01*
X117672304Y-102713155D01*
X117666039Y-102716823D01*
X117656830Y-102722766D01*
X117647961Y-102729238D01*
X117639433Y-102736239D01*
X117631244Y-102743769D01*
X117623395Y-102751828D01*
X117615886Y-102760416D01*
X117608718Y-102769532D01*
X117604127Y-102775904D01*
X117599688Y-102782511D01*
X117595400Y-102789353D01*
X117591263Y-102796430D01*
X117587278Y-102803742D01*
X117585341Y-102807486D01*
X117581627Y-102815153D01*
X117578152Y-102823011D01*
X117574916Y-102831059D01*
X117571920Y-102839299D01*
X117569164Y-102847729D01*
X117566648Y-102856350D01*
X117564371Y-102865162D01*
X117562334Y-102874164D01*
X117560536Y-102883358D01*
X117558978Y-102892742D01*
X117557660Y-102902317D01*
X117556582Y-102912083D01*
X117555743Y-102922040D01*
X117555144Y-102932187D01*
X117554784Y-102942525D01*
X117554665Y-102953055D01*
X117252879Y-102953055D01*
X117252879Y-102356810D01*
X118669291Y-102356810D01*
X118669291Y-105009873D01*
G37*
G36*
X115686421Y-104667453D02*
G01*
X115697277Y-104667478D01*
X115707652Y-104667521D01*
X115717546Y-104667581D01*
X115726960Y-104667659D01*
X115735892Y-104667753D01*
X115744344Y-104667865D01*
X115752314Y-104667994D01*
X115762194Y-104668192D01*
X115771219Y-104668421D01*
X115784183Y-104669061D01*
X115796745Y-104670100D01*
X115808906Y-104671540D01*
X115820666Y-104673379D01*
X115832024Y-104675619D01*
X115842980Y-104678258D01*
X115853535Y-104681297D01*
X115863689Y-104684736D01*
X115873441Y-104688576D01*
X115882792Y-104692815D01*
X115891741Y-104697454D01*
X115900289Y-104702493D01*
X115908435Y-104707932D01*
X115916180Y-104713771D01*
X115923523Y-104720010D01*
X115930465Y-104726648D01*
X115936972Y-104733648D01*
X115943059Y-104740918D01*
X115948726Y-104748461D01*
X115953973Y-104756275D01*
X115958801Y-104764361D01*
X115963209Y-104772719D01*
X115967197Y-104781348D01*
X115970765Y-104790249D01*
X115973913Y-104799422D01*
X115976642Y-104808867D01*
X115978951Y-104818583D01*
X115980840Y-104828571D01*
X115982309Y-104838831D01*
X115983359Y-104849362D01*
X115983988Y-104860165D01*
X115984198Y-104871240D01*
X115983988Y-104882314D01*
X115983359Y-104893115D01*
X115982309Y-104903643D01*
X115980840Y-104913897D01*
X115978951Y-104923878D01*
X115976642Y-104933586D01*
X115973913Y-104943021D01*
X115970765Y-104952182D01*
X115967197Y-104961070D01*
X115963209Y-104969685D01*
X115958801Y-104978027D01*
X115953973Y-104986095D01*
X115948726Y-104993891D01*
X115943059Y-105001413D01*
X115936972Y-105008661D01*
X115930465Y-105015637D01*
X115923523Y-105022298D01*
X115916180Y-105028557D01*
X115908435Y-105034413D01*
X115900289Y-105039866D01*
X115891741Y-105044915D01*
X115882792Y-105049562D01*
X115873441Y-105053806D01*
X115863689Y-105057646D01*
X115853535Y-105061084D01*
X115842980Y-105064119D01*
X115832024Y-105066751D01*
X115820666Y-105068979D01*
X115808906Y-105070805D01*
X115796745Y-105072228D01*
X115784183Y-105073247D01*
X115771219Y-105073864D01*
X115762806Y-105074148D01*
X115754714Y-105074414D01*
X115743177Y-105074778D01*
X115732361Y-105075101D01*
X115722267Y-105075382D01*
X115712893Y-105075623D01*
X115704242Y-105075822D01*
X115696311Y-105075980D01*
X115686859Y-105076126D01*
X115678689Y-105076200D01*
X115675085Y-105076209D01*
X115665473Y-105076152D01*
X115656342Y-105076023D01*
X115645928Y-105075822D01*
X115637276Y-105075623D01*
X115627903Y-105075382D01*
X115617808Y-105075101D01*
X115606992Y-105074778D01*
X115595455Y-105074414D01*
X115587363Y-105074148D01*
X115578951Y-105073864D01*
X115565987Y-105073247D01*
X115553427Y-105072228D01*
X115541270Y-105070805D01*
X115529516Y-105068979D01*
X115518165Y-105066751D01*
X115507217Y-105064119D01*
X115496671Y-105061084D01*
X115486529Y-105057646D01*
X115476790Y-105053806D01*
X115467454Y-105049562D01*
X115458521Y-105044915D01*
X115449990Y-105039866D01*
X115441863Y-105034413D01*
X115434139Y-105028557D01*
X115426818Y-105022298D01*
X115419900Y-105015637D01*
X115413369Y-105008661D01*
X115407260Y-105001413D01*
X115401572Y-104993891D01*
X115396306Y-104986095D01*
X115391461Y-104978027D01*
X115387037Y-104969685D01*
X115383034Y-104961070D01*
X115379453Y-104952182D01*
X115376293Y-104943021D01*
X115373555Y-104933586D01*
X115371237Y-104923878D01*
X115369341Y-104913897D01*
X115367867Y-104903643D01*
X115366814Y-104893115D01*
X115366182Y-104882314D01*
X115365971Y-104871240D01*
X115366182Y-104860165D01*
X115366814Y-104849362D01*
X115367867Y-104838831D01*
X115369341Y-104828571D01*
X115371237Y-104818583D01*
X115373555Y-104808867D01*
X115376293Y-104799422D01*
X115379453Y-104790249D01*
X115383034Y-104781348D01*
X115387037Y-104772719D01*
X115391461Y-104764361D01*
X115396306Y-104756275D01*
X115401572Y-104748461D01*
X115407260Y-104740918D01*
X115413369Y-104733648D01*
X115419900Y-104726648D01*
X115426818Y-104720010D01*
X115434139Y-104713771D01*
X115441863Y-104707932D01*
X115449990Y-104702493D01*
X115458521Y-104697454D01*
X115467454Y-104692815D01*
X115476790Y-104688576D01*
X115486529Y-104684736D01*
X115496671Y-104681297D01*
X115507217Y-104678258D01*
X115518165Y-104675619D01*
X115529516Y-104673379D01*
X115541270Y-104671540D01*
X115553427Y-104670100D01*
X115565987Y-104669061D01*
X115578951Y-104668421D01*
X115587975Y-104668192D01*
X115597855Y-104667994D01*
X115605826Y-104667865D01*
X115614277Y-104667753D01*
X115623210Y-104667659D01*
X115632623Y-104667581D01*
X115642517Y-104667521D01*
X115652892Y-104667478D01*
X115663748Y-104667453D01*
X115675085Y-104667444D01*
X115686421Y-104667453D01*
G37*
G36*
X116383291Y-105484290D02*
G01*
X114966879Y-105484290D01*
X114966879Y-104871240D01*
X115268665Y-104871240D01*
X115268823Y-104883034D01*
X115269300Y-104894627D01*
X115270093Y-104906017D01*
X115271205Y-104917207D01*
X115272633Y-104928195D01*
X115274380Y-104938981D01*
X115276444Y-104949566D01*
X115278825Y-104959949D01*
X115281524Y-104970131D01*
X115284540Y-104980112D01*
X115287874Y-104989890D01*
X115291526Y-104999468D01*
X115295495Y-105008844D01*
X115299781Y-105018018D01*
X115304385Y-105026991D01*
X115309307Y-105035762D01*
X115314500Y-105044328D01*
X115319919Y-105052633D01*
X115325564Y-105060680D01*
X115331435Y-105068466D01*
X115337532Y-105075994D01*
X115343855Y-105083261D01*
X115350403Y-105090270D01*
X115357178Y-105097018D01*
X115364179Y-105103508D01*
X115371405Y-105109737D01*
X115378858Y-105115707D01*
X115386536Y-105121418D01*
X115394440Y-105126869D01*
X115402571Y-105132061D01*
X115410927Y-105136993D01*
X115419509Y-105141666D01*
X115428244Y-105146099D01*
X115437107Y-105150263D01*
X115446098Y-105154159D01*
X115455217Y-105157786D01*
X115464465Y-105161144D01*
X115473841Y-105164234D01*
X115483345Y-105167055D01*
X115492977Y-105169607D01*
X115502738Y-105171891D01*
X115512627Y-105173906D01*
X115522644Y-105175652D01*
X115532789Y-105177130D01*
X115543062Y-105178339D01*
X115553464Y-105179279D01*
X115563994Y-105179951D01*
X115574652Y-105180354D01*
X115582967Y-105180614D01*
X115591010Y-105180858D01*
X115602566Y-105181191D01*
X115613509Y-105181487D01*
X115623842Y-105181746D01*
X115633563Y-105181966D01*
X115642673Y-105182149D01*
X115651172Y-105182293D01*
X115659059Y-105182400D01*
X115668624Y-105182484D01*
X115675085Y-105182503D01*
X115683835Y-105182470D01*
X115693672Y-105182369D01*
X115701762Y-105182249D01*
X115710465Y-105182092D01*
X115719778Y-105181897D01*
X115729703Y-105181664D01*
X115740240Y-105181393D01*
X115751388Y-105181084D01*
X115763147Y-105180738D01*
X115771326Y-105180486D01*
X115775517Y-105180354D01*
X115786176Y-105179809D01*
X115796708Y-105179005D01*
X115807114Y-105177941D01*
X115817393Y-105176617D01*
X115827545Y-105175034D01*
X115837570Y-105173192D01*
X115847469Y-105171090D01*
X115857241Y-105168728D01*
X115866886Y-105166107D01*
X115876405Y-105163226D01*
X115885797Y-105160086D01*
X115895062Y-105156687D01*
X115904200Y-105153028D01*
X115913212Y-105149109D01*
X115922097Y-105144931D01*
X115930856Y-105140494D01*
X115939414Y-105135823D01*
X115947748Y-105130898D01*
X115955858Y-105125718D01*
X115963743Y-105120282D01*
X115971404Y-105114592D01*
X115978840Y-105108647D01*
X115986052Y-105102447D01*
X115993040Y-105095993D01*
X115999803Y-105089283D01*
X116006342Y-105082318D01*
X116012656Y-105075098D01*
X116018747Y-105067624D01*
X116024612Y-105059894D01*
X116030253Y-105051910D01*
X116035670Y-105043670D01*
X116040863Y-105035176D01*
X116045784Y-105026476D01*
X116050388Y-105017569D01*
X116054675Y-105008457D01*
X116058644Y-104999138D01*
X116062295Y-104989613D01*
X116065629Y-104979883D01*
X116068645Y-104969946D01*
X116071344Y-104959803D01*
X116073726Y-104949454D01*
X116075789Y-104938899D01*
X116077536Y-104928137D01*
X116078965Y-104917170D01*
X116080076Y-104905997D01*
X116080870Y-104894617D01*
X116081346Y-104883032D01*
X116081505Y-104871240D01*
X116081346Y-104859448D01*
X116080870Y-104847860D01*
X116080076Y-104836477D01*
X116078965Y-104825298D01*
X116077536Y-104814324D01*
X116075789Y-104803554D01*
X116073726Y-104792989D01*
X116071344Y-104782629D01*
X116068645Y-104772473D01*
X116065629Y-104762522D01*
X116062295Y-104752775D01*
X116058644Y-104743233D01*
X116054675Y-104733895D01*
X116050388Y-104724762D01*
X116045784Y-104715833D01*
X116040863Y-104707109D01*
X116035670Y-104698638D01*
X116030253Y-104690418D01*
X116024612Y-104682450D01*
X116018747Y-104674735D01*
X116012656Y-104667271D01*
X116006342Y-104660059D01*
X115999803Y-104653099D01*
X115993040Y-104646390D01*
X115986052Y-104639934D01*
X115978840Y-104633729D01*
X115971404Y-104627777D01*
X115963743Y-104622076D01*
X115955858Y-104616627D01*
X115947748Y-104611430D01*
X115939414Y-104606485D01*
X115930856Y-104601792D01*
X115922097Y-104597378D01*
X115913212Y-104593222D01*
X115904200Y-104589324D01*
X115895062Y-104585684D01*
X115885797Y-104582302D01*
X115876405Y-104579178D01*
X115866886Y-104576312D01*
X115857241Y-104573704D01*
X115847469Y-104571354D01*
X115837570Y-104569261D01*
X115827545Y-104567427D01*
X115817393Y-104565851D01*
X115807114Y-104564533D01*
X115796708Y-104563473D01*
X115786176Y-104562671D01*
X115775517Y-104562127D01*
X115766554Y-104561852D01*
X115756564Y-104561614D01*
X115748399Y-104561459D01*
X115739656Y-104561325D01*
X115730337Y-104561212D01*
X115720441Y-104561119D01*
X115709967Y-104561047D01*
X115698917Y-104560995D01*
X115687289Y-104560964D01*
X115679217Y-104560955D01*
X115675085Y-104560954D01*
X115666884Y-104560959D01*
X115658940Y-104560972D01*
X115647505Y-104561010D01*
X115636647Y-104561069D01*
X115626366Y-104561148D01*
X115616662Y-104561247D01*
X115607535Y-104561367D01*
X115598985Y-104561508D01*
X115591012Y-104561670D01*
X115581279Y-104561917D01*
X115574652Y-104562127D01*
X115563994Y-104562529D01*
X115553464Y-104563198D01*
X115543062Y-104564135D01*
X115532789Y-104565338D01*
X115522644Y-104566809D01*
X115512627Y-104568547D01*
X115502738Y-104570552D01*
X115492977Y-104572824D01*
X115483345Y-104575364D01*
X115473841Y-104578170D01*
X115464465Y-104581244D01*
X115455217Y-104584585D01*
X115446098Y-104588193D01*
X115437107Y-104592068D01*
X115428244Y-104596210D01*
X115419509Y-104600619D01*
X115410927Y-104605315D01*
X115402571Y-104610267D01*
X115394440Y-104615475D01*
X115386536Y-104620940D01*
X115378858Y-104626662D01*
X115371405Y-104632639D01*
X115364179Y-104638874D01*
X115357178Y-104645364D01*
X115350403Y-104652112D01*
X115343855Y-104659115D01*
X115337532Y-104666375D01*
X115331435Y-104673892D01*
X115325564Y-104681665D01*
X115319919Y-104689695D01*
X115314500Y-104697980D01*
X115309307Y-104706523D01*
X115304385Y-104715318D01*
X115299781Y-104724313D01*
X115295495Y-104733508D01*
X115291526Y-104742903D01*
X115287874Y-104752498D01*
X115284540Y-104762293D01*
X115281524Y-104772288D01*
X115278825Y-104782482D01*
X115276444Y-104792877D01*
X115274380Y-104803472D01*
X115272633Y-104814267D01*
X115271205Y-104825262D01*
X115270093Y-104836456D01*
X115269300Y-104847851D01*
X115268823Y-104859446D01*
X115268665Y-104871240D01*
X114966879Y-104871240D01*
X114966879Y-104140270D01*
X115268665Y-104140270D01*
X115268794Y-104150835D01*
X115269181Y-104161232D01*
X115269825Y-104171462D01*
X115270728Y-104181523D01*
X115271889Y-104191416D01*
X115273308Y-104201142D01*
X115274985Y-104210699D01*
X115276920Y-104220089D01*
X115279113Y-104229311D01*
X115281564Y-104238364D01*
X115284272Y-104247250D01*
X115287239Y-104255968D01*
X115290464Y-104264518D01*
X115293947Y-104272900D01*
X115297687Y-104281114D01*
X115301686Y-104289161D01*
X115305849Y-104297034D01*
X115310131Y-104304679D01*
X115314532Y-104312097D01*
X115319052Y-104319288D01*
X115323691Y-104326251D01*
X115328449Y-104332987D01*
X115333326Y-104339495D01*
X115338323Y-104345776D01*
X115343438Y-104351830D01*
X115348672Y-104357656D01*
X115356747Y-104365968D01*
X115365090Y-104373769D01*
X115373701Y-104381058D01*
X115382579Y-104387835D01*
X115391488Y-104394069D01*
X115400263Y-104399730D01*
X115408904Y-104404818D01*
X115417411Y-104409331D01*
X115425785Y-104413271D01*
X115434024Y-104416638D01*
X115442129Y-104419431D01*
X115450100Y-104421650D01*
X115457938Y-104423296D01*
X115468179Y-104424598D01*
X115470702Y-104424764D01*
X115478506Y-104424233D01*
X115485901Y-104420344D01*
X115488288Y-104418121D01*
X115492969Y-104411384D01*
X115495263Y-104403872D01*
X115495517Y-104400145D01*
X115495517Y-104354227D01*
X115494917Y-104345766D01*
X115492660Y-104337851D01*
X115490437Y-104334101D01*
X115484570Y-104328478D01*
X115477907Y-104323845D01*
X115470311Y-104319447D01*
X115461439Y-104314586D01*
X115454809Y-104310396D01*
X115448200Y-104305739D01*
X115441611Y-104300614D01*
X115435043Y-104295023D01*
X115428495Y-104288964D01*
X115421968Y-104282438D01*
X115415462Y-104275445D01*
X115408976Y-104267985D01*
X115402511Y-104260058D01*
X115400360Y-104257311D01*
X115394215Y-104248779D01*
X115388673Y-104239742D01*
X115383737Y-104230200D01*
X115379404Y-104220153D01*
X115375676Y-104209601D01*
X115372553Y-104198544D01*
X115370807Y-104190893D01*
X115369329Y-104183017D01*
X115368120Y-104174916D01*
X115367180Y-104166591D01*
X115366508Y-104158042D01*
X115366105Y-104149268D01*
X115365971Y-104140270D01*
X115366091Y-104131949D01*
X115366450Y-104123790D01*
X115367049Y-104115793D01*
X115367888Y-104107957D01*
X115369596Y-104096507D01*
X115371843Y-104085421D01*
X115374629Y-104074699D01*
X115377954Y-104064341D01*
X115381819Y-104054348D01*
X115386222Y-104044718D01*
X115391165Y-104035452D01*
X115396648Y-104026551D01*
X115402630Y-104018275D01*
X115409072Y-104010813D01*
X115415975Y-104004165D01*
X115423337Y-103998332D01*
X115431160Y-103993312D01*
X115439444Y-103989106D01*
X115448187Y-103985714D01*
X115457391Y-103983137D01*
X115467055Y-103981373D01*
X115477179Y-103980423D01*
X115484184Y-103980242D01*
X115493588Y-103980600D01*
X115502551Y-103981671D01*
X115511076Y-103983457D01*
X115519160Y-103985958D01*
X115526805Y-103989172D01*
X115534010Y-103993102D01*
X115540775Y-103997745D01*
X115547101Y-104003103D01*
X115553101Y-104009231D01*
X115558886Y-104016085D01*
X115564458Y-104023666D01*
X115569816Y-104031973D01*
X115574960Y-104041007D01*
X115578678Y-104048259D01*
X115582276Y-104055920D01*
X115585754Y-104063990D01*
X115589111Y-104072468D01*
X115592474Y-104081607D01*
X115595967Y-104091584D01*
X115599590Y-104102398D01*
X115602079Y-104110073D01*
X115604625Y-104118121D01*
X115607229Y-104126542D01*
X115609891Y-104135334D01*
X115612612Y-104144499D01*
X115615390Y-104154037D01*
X115618226Y-104163947D01*
X115621120Y-104174230D01*
X115624073Y-104184885D01*
X115627083Y-104195913D01*
X115630151Y-104207313D01*
X115631707Y-104213152D01*
X115633859Y-104221054D01*
X115636041Y-104228811D01*
X115638252Y-104236422D01*
X115642765Y-104251207D01*
X115647396Y-104265412D01*
X115652147Y-104279034D01*
X115657016Y-104292075D01*
X115662005Y-104304535D01*
X115667113Y-104316413D01*
X115672340Y-104327709D01*
X115677685Y-104338424D01*
X115683150Y-104348557D01*
X115688734Y-104358108D01*
X115694437Y-104367078D01*
X115700260Y-104375466D01*
X115706201Y-104383273D01*
X115712261Y-104390498D01*
X115715336Y-104393892D01*
X115721631Y-104400351D01*
X115728207Y-104406394D01*
X115735065Y-104412020D01*
X115742203Y-104417229D01*
X115749621Y-104422022D01*
X115757321Y-104426398D01*
X115765302Y-104430357D01*
X115773563Y-104433899D01*
X115782106Y-104437025D01*
X115790929Y-104439733D01*
X115800033Y-104442025D01*
X115809418Y-104443901D01*
X115819084Y-104445359D01*
X115829031Y-104446401D01*
X115839259Y-104447026D01*
X115849767Y-104447235D01*
X115858229Y-104447088D01*
X115866568Y-104446648D01*
X115874783Y-104445916D01*
X115882874Y-104444890D01*
X115890842Y-104443571D01*
X115898686Y-104441959D01*
X115906406Y-104440054D01*
X115914003Y-104437856D01*
X115921476Y-104435364D01*
X115928825Y-104432580D01*
X115936051Y-104429503D01*
X115943153Y-104426132D01*
X115950132Y-104422468D01*
X115956987Y-104418512D01*
X115963718Y-104414262D01*
X115970325Y-104409719D01*
X115976758Y-104404909D01*
X115983014Y-104399858D01*
X115989092Y-104394565D01*
X115994994Y-104389032D01*
X116000718Y-104383257D01*
X116006266Y-104377241D01*
X116011636Y-104370984D01*
X116016829Y-104364485D01*
X116021845Y-104357746D01*
X116026684Y-104350765D01*
X116031346Y-104343543D01*
X116035831Y-104336080D01*
X116040139Y-104328375D01*
X116044270Y-104320430D01*
X116048224Y-104312243D01*
X116052000Y-104303815D01*
X116055573Y-104295207D01*
X116058915Y-104286431D01*
X116062027Y-104277487D01*
X116064908Y-104268376D01*
X116067559Y-104259096D01*
X116069980Y-104249648D01*
X116072169Y-104240033D01*
X116074129Y-104230249D01*
X116075857Y-104220298D01*
X116077356Y-104210179D01*
X116078623Y-104199891D01*
X116079661Y-104189436D01*
X116080467Y-104178813D01*
X116081044Y-104168022D01*
X116081389Y-104157063D01*
X116081505Y-104145937D01*
X116081383Y-104135637D01*
X116081016Y-104125451D01*
X116080406Y-104115377D01*
X116079551Y-104105417D01*
X116078452Y-104095569D01*
X116077108Y-104085835D01*
X116075521Y-104076213D01*
X116073689Y-104066704D01*
X116071613Y-104057309D01*
X116069293Y-104048026D01*
X116066728Y-104038856D01*
X116063919Y-104029799D01*
X116060866Y-104020855D01*
X116057569Y-104012024D01*
X116054027Y-104003307D01*
X116050242Y-103994702D01*
X116046267Y-103986290D01*
X116042157Y-103978105D01*
X116037913Y-103970146D01*
X116033535Y-103962413D01*
X116029023Y-103954905D01*
X116024376Y-103947624D01*
X116019595Y-103940568D01*
X116014680Y-103933739D01*
X116009630Y-103927135D01*
X116004446Y-103920757D01*
X115999128Y-103914605D01*
X115993675Y-103908679D01*
X115988088Y-103902979D01*
X115982367Y-103897505D01*
X115976511Y-103892257D01*
X115970521Y-103887235D01*
X115961405Y-103880197D01*
X115952303Y-103873812D01*
X115943215Y-103868080D01*
X115934141Y-103863000D01*
X115925080Y-103858572D01*
X115916033Y-103854798D01*
X115907000Y-103851676D01*
X115897981Y-103849206D01*
X115888975Y-103847389D01*
X115879983Y-103846225D01*
X115873996Y-103845811D01*
X115866224Y-103847004D01*
X115858937Y-103850958D01*
X115856606Y-103853041D01*
X115851925Y-103859398D01*
X115849553Y-103867327D01*
X115849376Y-103870431D01*
X115849376Y-103916348D01*
X115850000Y-103924280D01*
X115852344Y-103932285D01*
X115854652Y-103936474D01*
X115860392Y-103942663D01*
X115867002Y-103947204D01*
X115874582Y-103951129D01*
X115882217Y-103954725D01*
X115889736Y-103958847D01*
X115897138Y-103963495D01*
X115904423Y-103968668D01*
X115911591Y-103974367D01*
X115918642Y-103980591D01*
X115925577Y-103987341D01*
X115932394Y-103994616D01*
X115939096Y-104002417D01*
X115945680Y-104010743D01*
X115950004Y-104016586D01*
X115956115Y-104025824D01*
X115961625Y-104035660D01*
X115966534Y-104046093D01*
X115969472Y-104053380D01*
X115972144Y-104060934D01*
X115974548Y-104068753D01*
X115976685Y-104076837D01*
X115978555Y-104085187D01*
X115980158Y-104093803D01*
X115981494Y-104102684D01*
X115982562Y-104111831D01*
X115983364Y-104121243D01*
X115983898Y-104130921D01*
X115984165Y-104140865D01*
X115984198Y-104145937D01*
X115984059Y-104156048D01*
X115983640Y-104165962D01*
X115982941Y-104175679D01*
X115981964Y-104185199D01*
X115980706Y-104194522D01*
X115979170Y-104203648D01*
X115977354Y-104212578D01*
X115975259Y-104221310D01*
X115972885Y-104229846D01*
X115970231Y-104238184D01*
X115967298Y-104246326D01*
X115964085Y-104254271D01*
X115960593Y-104262018D01*
X115956822Y-104269569D01*
X115952771Y-104276923D01*
X115948441Y-104284080D01*
X115943885Y-104290942D01*
X115939154Y-104297361D01*
X115931732Y-104306160D01*
X115923918Y-104313962D01*
X115915712Y-104320768D01*
X115907115Y-104326579D01*
X115898127Y-104331393D01*
X115888747Y-104335211D01*
X115878975Y-104338033D01*
X115868812Y-104339859D01*
X115858257Y-104340689D01*
X115854652Y-104340745D01*
X115845505Y-104340281D01*
X115836725Y-104338889D01*
X115828310Y-104336568D01*
X115820263Y-104333320D01*
X115812581Y-104329143D01*
X115805266Y-104324039D01*
X115798317Y-104318006D01*
X115791735Y-104311045D01*
X115785461Y-104303324D01*
X115779437Y-104294913D01*
X115775084Y-104288151D01*
X115770871Y-104281002D01*
X115766800Y-104273465D01*
X115762869Y-104265539D01*
X115759078Y-104257226D01*
X115755429Y-104248524D01*
X115751921Y-104239434D01*
X115748553Y-104229956D01*
X115745180Y-104219862D01*
X115741656Y-104208922D01*
X115739223Y-104201160D01*
X115736722Y-104193022D01*
X115734155Y-104184509D01*
X115731520Y-104175620D01*
X115728818Y-104166355D01*
X115726049Y-104156715D01*
X115723213Y-104146700D01*
X115720309Y-104136309D01*
X115717339Y-104125542D01*
X115714301Y-104114400D01*
X115711196Y-104102883D01*
X115708024Y-104090990D01*
X115704785Y-104078721D01*
X115701143Y-104065377D01*
X115697302Y-104052505D01*
X115693260Y-104040104D01*
X115689019Y-104028175D01*
X115684577Y-104016718D01*
X115679936Y-104005732D01*
X115675095Y-103995218D01*
X115670053Y-103985176D01*
X115664812Y-103975606D01*
X115659371Y-103966507D01*
X115653729Y-103957880D01*
X115647888Y-103949724D01*
X115641847Y-103942040D01*
X115635606Y-103934828D01*
X115629165Y-103928088D01*
X115622524Y-103921819D01*
X115615682Y-103915999D01*
X115608641Y-103910554D01*
X115601400Y-103905484D01*
X115593959Y-103900790D01*
X115586318Y-103896472D01*
X115578477Y-103892529D01*
X115570436Y-103888961D01*
X115562196Y-103885769D01*
X115553755Y-103882953D01*
X115545114Y-103880512D01*
X115536273Y-103878447D01*
X115527232Y-103876757D01*
X115517991Y-103875442D01*
X115508551Y-103874504D01*
X115498910Y-103873940D01*
X115489069Y-103873752D01*
X115478051Y-103874019D01*
X115467197Y-103874817D01*
X115456509Y-103876148D01*
X115445985Y-103878011D01*
X115435626Y-103880407D01*
X115425432Y-103883335D01*
X115415403Y-103886796D01*
X115405538Y-103890788D01*
X115395839Y-103895314D01*
X115386304Y-103900371D01*
X115380039Y-103904039D01*
X115370830Y-103909982D01*
X115361961Y-103916454D01*
X115353433Y-103923455D01*
X115345244Y-103930985D01*
X115337395Y-103939044D01*
X115329886Y-103947631D01*
X115322718Y-103956748D01*
X115318127Y-103963120D01*
X115313688Y-103969727D01*
X115309400Y-103976568D01*
X115305263Y-103983645D01*
X115301278Y-103990957D01*
X115299341Y-103994702D01*
X115295627Y-104002368D01*
X115292152Y-104010226D01*
X115288916Y-104018275D01*
X115285920Y-104026514D01*
X115283164Y-104034944D01*
X115280648Y-104043565D01*
X115278371Y-104052377D01*
X115276334Y-104061380D01*
X115274536Y-104070573D01*
X115272978Y-104079958D01*
X115271660Y-104089533D01*
X115270582Y-104099299D01*
X115269743Y-104109255D01*
X115269144Y-104119403D01*
X115268784Y-104129741D01*
X115268665Y-104140270D01*
X114966879Y-104140270D01*
X114966879Y-103677186D01*
X115281170Y-103677186D01*
X115282232Y-103685233D01*
X115285418Y-103692449D01*
X115290158Y-103698288D01*
X115296753Y-103703406D01*
X115304179Y-103706399D01*
X115311651Y-103707277D01*
X116038518Y-103707277D01*
X116046700Y-103706214D01*
X116054050Y-103703028D01*
X116060011Y-103698288D01*
X116065129Y-103691828D01*
X116068122Y-103684536D01*
X116069000Y-103677186D01*
X116069000Y-103631268D01*
X116067937Y-103623198D01*
X116064751Y-103615912D01*
X116060011Y-103609970D01*
X116053416Y-103604853D01*
X116045990Y-103601860D01*
X116038518Y-103600982D01*
X115311651Y-103600982D01*
X115303470Y-103602044D01*
X115296119Y-103605230D01*
X115290158Y-103609970D01*
X115285041Y-103616542D01*
X115282048Y-103623899D01*
X115281170Y-103631268D01*
X115281170Y-103677186D01*
X114966879Y-103677186D01*
X114966879Y-103378623D01*
X115281170Y-103378623D01*
X115282232Y-103386782D01*
X115285418Y-103394063D01*
X115290158Y-103399921D01*
X115296753Y-103405039D01*
X115304179Y-103408032D01*
X115311651Y-103408909D01*
X116038518Y-103408909D01*
X116046700Y-103407847D01*
X116054050Y-103404661D01*
X116060011Y-103399921D01*
X116065129Y-103393438D01*
X116068122Y-103386077D01*
X116069000Y-103378623D01*
X116069000Y-103332706D01*
X116067937Y-103324635D01*
X116064751Y-103317350D01*
X116060011Y-103311408D01*
X116053440Y-103306402D01*
X116046083Y-103303474D01*
X116038713Y-103302615D01*
X115508413Y-103302615D01*
X115844101Y-103127933D01*
X115851535Y-103123916D01*
X115858979Y-103119120D01*
X115865298Y-103114104D01*
X115871065Y-103108198D01*
X115875702Y-103101107D01*
X115878621Y-103093024D01*
X115879781Y-103084901D01*
X115879858Y-103082015D01*
X115879858Y-103039419D01*
X115879162Y-103030934D01*
X115877076Y-103023283D01*
X115873126Y-103015761D01*
X115871065Y-103013041D01*
X115865298Y-103007229D01*
X115858979Y-103002271D01*
X115851535Y-102997508D01*
X115844101Y-102993501D01*
X115508413Y-102818623D01*
X116038713Y-102818623D01*
X116046784Y-102817561D01*
X116054069Y-102814375D01*
X116060011Y-102809635D01*
X116065129Y-102803175D01*
X116068122Y-102795883D01*
X116069000Y-102788533D01*
X116069000Y-102742615D01*
X116067937Y-102734544D01*
X116064751Y-102727259D01*
X116060011Y-102721317D01*
X116053416Y-102716200D01*
X116045990Y-102713207D01*
X116038518Y-102712329D01*
X115311651Y-102712329D01*
X115303470Y-102713391D01*
X115296119Y-102716577D01*
X115290158Y-102721317D01*
X115285041Y-102727889D01*
X115282048Y-102735246D01*
X115281170Y-102742615D01*
X115281170Y-102785211D01*
X115282052Y-102794656D01*
X115284700Y-102803453D01*
X115289112Y-102811601D01*
X115295290Y-102819100D01*
X115301503Y-102824632D01*
X115308846Y-102829749D01*
X115317318Y-102834450D01*
X115758323Y-103060717D01*
X115317318Y-103286788D01*
X115308846Y-103291493D01*
X115301503Y-103296619D01*
X115295290Y-103302166D01*
X115290207Y-103308135D01*
X115285441Y-103316188D01*
X115282441Y-103324900D01*
X115281205Y-103334270D01*
X115281170Y-103336223D01*
X115281170Y-103378623D01*
X114966879Y-103378623D01*
X114966879Y-102410544D01*
X116383291Y-102410544D01*
X116383291Y-105484290D01*
G37*
G36*
X113400421Y-103677194D02*
G01*
X113411277Y-103677220D01*
X113421652Y-103677263D01*
X113431546Y-103677323D01*
X113440960Y-103677400D01*
X113449892Y-103677495D01*
X113458344Y-103677607D01*
X113466314Y-103677735D01*
X113476194Y-103677934D01*
X113485219Y-103678163D01*
X113498183Y-103678802D01*
X113510745Y-103679842D01*
X113522906Y-103681281D01*
X113534666Y-103683121D01*
X113546024Y-103685360D01*
X113556980Y-103688000D01*
X113567535Y-103691039D01*
X113577689Y-103694478D01*
X113587441Y-103698317D01*
X113596792Y-103702557D01*
X113605741Y-103707196D01*
X113614289Y-103712235D01*
X113622435Y-103717674D01*
X113630180Y-103723513D01*
X113637523Y-103729751D01*
X113644465Y-103736390D01*
X113650972Y-103743389D01*
X113657059Y-103750660D01*
X113662726Y-103758203D01*
X113667973Y-103766017D01*
X113672801Y-103774103D01*
X113677209Y-103782461D01*
X113681197Y-103791090D01*
X113684765Y-103799991D01*
X113687913Y-103809164D01*
X113690642Y-103818609D01*
X113692951Y-103828325D01*
X113694840Y-103838313D01*
X113696309Y-103848573D01*
X113697359Y-103859104D01*
X113697988Y-103869907D01*
X113698198Y-103880982D01*
X113697988Y-103892056D01*
X113697359Y-103902857D01*
X113696309Y-103913385D01*
X113694840Y-103923639D01*
X113692951Y-103933620D01*
X113690642Y-103943328D01*
X113687913Y-103952763D01*
X113684765Y-103961924D01*
X113681197Y-103970812D01*
X113677209Y-103979427D01*
X113672801Y-103987769D01*
X113667973Y-103995837D01*
X113662726Y-104003632D01*
X113657059Y-104011154D01*
X113650972Y-104018403D01*
X113644465Y-104025378D01*
X113637523Y-104032040D01*
X113630180Y-104038299D01*
X113622435Y-104044155D01*
X113614289Y-104049607D01*
X113605741Y-104054657D01*
X113596792Y-104059304D01*
X113587441Y-104063547D01*
X113577689Y-104067388D01*
X113567535Y-104070826D01*
X113556980Y-104073861D01*
X113546024Y-104076492D01*
X113534666Y-104078721D01*
X113522906Y-104080547D01*
X113510745Y-104081969D01*
X113498183Y-104082989D01*
X113485219Y-104083606D01*
X113476806Y-104083890D01*
X113468714Y-104084155D01*
X113457177Y-104084520D01*
X113446361Y-104084842D01*
X113436267Y-104085124D01*
X113426893Y-104085364D01*
X113418242Y-104085564D01*
X113410311Y-104085722D01*
X113400859Y-104085868D01*
X113392689Y-104085941D01*
X113389085Y-104085951D01*
X113379473Y-104085893D01*
X113370342Y-104085765D01*
X113359928Y-104085564D01*
X113351276Y-104085364D01*
X113341903Y-104085124D01*
X113331808Y-104084842D01*
X113320992Y-104084520D01*
X113309455Y-104084155D01*
X113301363Y-104083890D01*
X113292951Y-104083606D01*
X113279987Y-104082989D01*
X113267427Y-104081969D01*
X113255270Y-104080547D01*
X113243516Y-104078721D01*
X113232165Y-104076492D01*
X113221217Y-104073861D01*
X113210671Y-104070826D01*
X113200529Y-104067388D01*
X113190790Y-104063547D01*
X113181454Y-104059304D01*
X113172521Y-104054657D01*
X113163990Y-104049607D01*
X113155863Y-104044155D01*
X113148139Y-104038299D01*
X113140818Y-104032040D01*
X113133900Y-104025378D01*
X113127369Y-104018403D01*
X113121260Y-104011154D01*
X113115572Y-104003632D01*
X113110306Y-103995837D01*
X113105461Y-103987769D01*
X113101037Y-103979427D01*
X113097034Y-103970812D01*
X113093453Y-103961924D01*
X113090293Y-103952763D01*
X113087555Y-103943328D01*
X113085237Y-103933620D01*
X113083341Y-103923639D01*
X113081867Y-103913385D01*
X113080814Y-103902857D01*
X113080182Y-103892056D01*
X113079971Y-103880982D01*
X113080182Y-103869907D01*
X113080814Y-103859104D01*
X113081867Y-103848573D01*
X113083341Y-103838313D01*
X113085237Y-103828325D01*
X113087555Y-103818609D01*
X113090293Y-103809164D01*
X113093453Y-103799991D01*
X113097034Y-103791090D01*
X113101037Y-103782461D01*
X113105461Y-103774103D01*
X113110306Y-103766017D01*
X113115572Y-103758203D01*
X113121260Y-103750660D01*
X113127369Y-103743389D01*
X113133900Y-103736390D01*
X113140818Y-103729751D01*
X113148139Y-103723513D01*
X113155863Y-103717674D01*
X113163990Y-103712235D01*
X113172521Y-103707196D01*
X113181454Y-103702557D01*
X113190790Y-103698317D01*
X113200529Y-103694478D01*
X113210671Y-103691039D01*
X113221217Y-103688000D01*
X113232165Y-103685360D01*
X113243516Y-103683121D01*
X113255270Y-103681281D01*
X113267427Y-103679842D01*
X113279987Y-103678802D01*
X113292951Y-103678163D01*
X113301975Y-103677934D01*
X113311855Y-103677735D01*
X113319826Y-103677607D01*
X113328277Y-103677495D01*
X113337210Y-103677400D01*
X113346623Y-103677323D01*
X113356517Y-103677263D01*
X113366892Y-103677220D01*
X113377748Y-103677194D01*
X113389085Y-103677186D01*
X113400421Y-103677194D01*
G37*
G36*
X114097291Y-105453418D02*
G01*
X112680879Y-105453418D01*
X112680879Y-105121540D01*
X112995170Y-105121540D01*
X112996232Y-105129588D01*
X112999418Y-105136804D01*
X113004158Y-105142643D01*
X113010753Y-105147760D01*
X113018179Y-105150753D01*
X113025651Y-105151631D01*
X113752518Y-105151631D01*
X113760700Y-105150569D01*
X113768050Y-105147383D01*
X113774011Y-105142643D01*
X113779129Y-105136182D01*
X113782122Y-105128891D01*
X113783000Y-105121540D01*
X113783000Y-105075623D01*
X113781937Y-105067552D01*
X113778751Y-105060267D01*
X113774011Y-105054325D01*
X113767416Y-105049207D01*
X113759990Y-105046214D01*
X113752518Y-105045337D01*
X113025651Y-105045337D01*
X113017470Y-105046399D01*
X113010119Y-105049585D01*
X113004158Y-105054325D01*
X112999041Y-105060897D01*
X112996048Y-105068253D01*
X112995170Y-105075623D01*
X112995170Y-105121540D01*
X112680879Y-105121540D01*
X112680879Y-104594367D01*
X112982665Y-104594367D01*
X112982794Y-104604932D01*
X112983181Y-104615329D01*
X112983825Y-104625558D01*
X112984728Y-104635619D01*
X112985889Y-104645513D01*
X112987308Y-104655238D01*
X112988985Y-104664796D01*
X112990920Y-104674185D01*
X112993113Y-104683407D01*
X112995564Y-104692461D01*
X112998272Y-104701346D01*
X113001239Y-104710064D01*
X113004464Y-104718614D01*
X113007947Y-104726997D01*
X113011687Y-104735211D01*
X113015686Y-104743257D01*
X113019849Y-104751130D01*
X113024131Y-104758776D01*
X113028532Y-104766194D01*
X113033052Y-104773384D01*
X113037691Y-104780348D01*
X113042449Y-104787083D01*
X113047326Y-104793592D01*
X113052323Y-104799872D01*
X113057438Y-104805926D01*
X113062672Y-104811752D01*
X113070747Y-104820064D01*
X113079090Y-104827865D01*
X113087701Y-104835154D01*
X113096579Y-104841931D01*
X113105488Y-104848166D01*
X113114263Y-104853827D01*
X113122904Y-104858914D01*
X113131411Y-104863428D01*
X113139785Y-104867368D01*
X113148024Y-104870734D01*
X113156129Y-104873527D01*
X113164100Y-104875747D01*
X113171938Y-104877392D01*
X113182179Y-104878694D01*
X113184702Y-104878861D01*
X113192506Y-104878330D01*
X113199901Y-104874440D01*
X113202288Y-104872217D01*
X113206969Y-104865480D01*
X113209263Y-104857969D01*
X113209517Y-104854241D01*
X113209517Y-104808323D01*
X113208917Y-104799862D01*
X113206660Y-104791947D01*
X113204437Y-104788198D01*
X113198570Y-104782574D01*
X113191907Y-104777941D01*
X113184311Y-104773543D01*
X113175439Y-104768683D01*
X113168809Y-104764492D01*
X113162200Y-104759835D01*
X113155611Y-104754710D01*
X113149043Y-104749119D01*
X113142495Y-104743060D01*
X113135968Y-104736534D01*
X113129462Y-104729541D01*
X113122976Y-104722081D01*
X113116511Y-104714154D01*
X113114360Y-104711408D01*
X113108215Y-104702875D01*
X113102673Y-104693838D01*
X113097737Y-104684296D01*
X113093404Y-104674249D01*
X113089676Y-104663697D01*
X113086553Y-104652641D01*
X113084807Y-104644989D01*
X113083329Y-104637113D01*
X113082120Y-104629012D01*
X113081180Y-104620688D01*
X113080508Y-104612138D01*
X113080105Y-104603365D01*
X113079971Y-104594367D01*
X113080091Y-104586046D01*
X113080450Y-104577886D01*
X113081049Y-104569889D01*
X113081888Y-104562053D01*
X113083596Y-104550603D01*
X113085843Y-104539517D01*
X113088629Y-104528795D01*
X113091954Y-104518438D01*
X113095819Y-104508444D01*
X113100222Y-104498814D01*
X113105165Y-104489549D01*
X113110648Y-104480647D01*
X113116630Y-104472371D01*
X113123072Y-104464909D01*
X113129975Y-104458262D01*
X113137337Y-104452428D01*
X113145160Y-104447408D01*
X113153444Y-104443202D01*
X113162187Y-104439811D01*
X113171391Y-104437233D01*
X113181055Y-104435469D01*
X113191179Y-104434520D01*
X113198184Y-104434339D01*
X113207588Y-104434696D01*
X113216551Y-104435767D01*
X113225076Y-104437553D01*
X113233160Y-104440054D01*
X113240805Y-104443269D01*
X113248010Y-104447198D01*
X113254775Y-104451842D01*
X113261101Y-104457200D01*
X113267101Y-104463327D01*
X113272886Y-104470181D01*
X113278458Y-104477762D01*
X113283816Y-104486069D01*
X113288960Y-104495103D01*
X113292678Y-104502356D01*
X113296276Y-104510017D01*
X113299754Y-104518086D01*
X113303111Y-104526565D01*
X113306474Y-104535703D01*
X113309967Y-104545680D01*
X113313590Y-104556494D01*
X113316079Y-104564170D01*
X113318625Y-104572218D01*
X113321229Y-104580638D01*
X113323891Y-104589431D01*
X113326612Y-104598596D01*
X113329390Y-104608133D01*
X113332226Y-104618044D01*
X113335120Y-104628326D01*
X113338073Y-104638981D01*
X113341083Y-104650009D01*
X113344151Y-104661409D01*
X113345707Y-104667249D01*
X113347859Y-104675150D01*
X113350041Y-104682907D01*
X113352252Y-104690518D01*
X113356765Y-104705304D01*
X113361396Y-104719508D01*
X113366147Y-104733131D01*
X113371016Y-104746172D01*
X113376005Y-104758631D01*
X113381113Y-104770509D01*
X113386340Y-104781805D01*
X113391685Y-104792520D01*
X113397150Y-104802653D01*
X113402734Y-104812204D01*
X113408437Y-104821174D01*
X113414260Y-104829562D01*
X113420201Y-104837369D01*
X113426261Y-104844594D01*
X113429336Y-104847988D01*
X113435631Y-104854448D01*
X113442207Y-104860491D01*
X113449065Y-104866116D01*
X113456203Y-104871326D01*
X113463621Y-104876118D01*
X113471321Y-104880494D01*
X113479302Y-104884453D01*
X113487563Y-104887995D01*
X113496106Y-104891121D01*
X113504929Y-104893830D01*
X113514033Y-104896122D01*
X113523418Y-104897997D01*
X113533084Y-104899456D01*
X113543031Y-104900497D01*
X113553259Y-104901123D01*
X113563767Y-104901331D01*
X113572229Y-104901184D01*
X113580568Y-104900745D01*
X113588783Y-104900012D01*
X113596874Y-104898986D01*
X113604842Y-104897667D01*
X113612686Y-104896055D01*
X113620406Y-104894150D01*
X113628003Y-104891952D01*
X113635476Y-104889461D01*
X113642825Y-104886676D01*
X113650051Y-104883599D01*
X113657153Y-104880228D01*
X113664132Y-104876565D01*
X113670987Y-104872608D01*
X113677718Y-104868358D01*
X113684325Y-104863815D01*
X113690758Y-104859005D01*
X113697014Y-104853954D01*
X113703092Y-104848662D01*
X113708994Y-104843128D01*
X113714718Y-104837353D01*
X113720266Y-104831337D01*
X113725636Y-104825080D01*
X113730829Y-104818581D01*
X113735845Y-104811842D01*
X113740684Y-104804861D01*
X113745346Y-104797639D01*
X113749831Y-104790176D01*
X113754139Y-104782472D01*
X113758270Y-104774526D01*
X113762224Y-104766339D01*
X113766000Y-104757912D01*
X113769573Y-104749304D01*
X113772915Y-104740528D01*
X113776027Y-104731584D01*
X113778908Y-104722472D01*
X113781559Y-104713192D01*
X113783980Y-104703745D01*
X113786169Y-104694129D01*
X113788129Y-104684346D01*
X113789857Y-104674394D01*
X113791356Y-104664275D01*
X113792623Y-104653988D01*
X113793661Y-104643533D01*
X113794467Y-104632910D01*
X113795044Y-104622119D01*
X113795389Y-104611160D01*
X113795505Y-104600033D01*
X113795383Y-104589734D01*
X113795016Y-104579547D01*
X113794406Y-104569474D01*
X113793551Y-104559513D01*
X113792452Y-104549666D01*
X113791108Y-104539931D01*
X113789521Y-104530309D01*
X113787689Y-104520801D01*
X113785613Y-104511405D01*
X113783293Y-104502122D01*
X113780728Y-104492952D01*
X113777919Y-104483896D01*
X113774866Y-104474952D01*
X113771569Y-104466121D01*
X113768027Y-104457403D01*
X113764242Y-104448798D01*
X113760267Y-104440387D01*
X113756157Y-104432202D01*
X113751913Y-104424242D01*
X113747535Y-104416509D01*
X113743023Y-104409002D01*
X113738376Y-104401720D01*
X113733595Y-104394664D01*
X113728680Y-104387835D01*
X113723630Y-104381231D01*
X113718446Y-104374853D01*
X113713128Y-104368701D01*
X113707675Y-104362775D01*
X113702088Y-104357075D01*
X113696367Y-104351601D01*
X113690511Y-104346353D01*
X113684521Y-104341331D01*
X113675405Y-104334293D01*
X113666303Y-104327908D01*
X113657215Y-104322176D01*
X113648141Y-104317096D01*
X113639080Y-104312669D01*
X113630033Y-104308894D01*
X113621000Y-104305772D01*
X113611981Y-104303302D01*
X113602975Y-104301485D01*
X113593983Y-104300321D01*
X113587996Y-104299907D01*
X113580224Y-104301101D01*
X113572937Y-104305054D01*
X113570606Y-104307137D01*
X113565925Y-104313495D01*
X113563553Y-104321423D01*
X113563376Y-104324527D01*
X113563376Y-104370445D01*
X113564000Y-104378377D01*
X113566344Y-104386382D01*
X113568652Y-104390570D01*
X113574392Y-104396759D01*
X113581002Y-104401301D01*
X113588582Y-104405225D01*
X113596217Y-104408822D01*
X113603736Y-104412944D01*
X113611138Y-104417591D01*
X113618423Y-104422765D01*
X113625591Y-104428463D01*
X113632642Y-104434687D01*
X113639577Y-104441437D01*
X113646394Y-104448712D01*
X113653096Y-104456513D01*
X113659680Y-104464839D01*
X113664004Y-104470682D01*
X113670115Y-104479920D01*
X113675625Y-104489756D01*
X113680534Y-104500189D01*
X113683472Y-104507477D01*
X113686144Y-104515030D01*
X113688548Y-104522849D01*
X113690685Y-104530933D01*
X113692555Y-104539283D01*
X113694158Y-104547899D01*
X113695494Y-104556780D01*
X113696562Y-104565927D01*
X113697364Y-104575340D01*
X113697898Y-104585018D01*
X113698165Y-104594962D01*
X113698198Y-104600033D01*
X113698059Y-104610144D01*
X113697640Y-104620058D01*
X113696941Y-104629775D01*
X113695964Y-104639295D01*
X113694706Y-104648618D01*
X113693170Y-104657745D01*
X113691354Y-104666674D01*
X113689259Y-104675406D01*
X113686885Y-104683942D01*
X113684231Y-104692280D01*
X113681298Y-104700422D01*
X113678085Y-104708367D01*
X113674593Y-104716115D01*
X113670822Y-104723666D01*
X113666771Y-104731020D01*
X113662441Y-104738177D01*
X113657885Y-104745038D01*
X113653154Y-104751457D01*
X113645732Y-104760256D01*
X113637918Y-104768058D01*
X113629712Y-104774865D01*
X113621115Y-104780675D01*
X113612127Y-104785489D01*
X113602747Y-104789307D01*
X113592975Y-104792130D01*
X113582812Y-104793956D01*
X113572257Y-104794786D01*
X113568652Y-104794841D01*
X113559505Y-104794377D01*
X113550725Y-104792985D01*
X113542310Y-104790665D01*
X113534263Y-104787416D01*
X113526581Y-104783240D01*
X113519266Y-104778135D01*
X113512317Y-104772102D01*
X113505735Y-104765141D01*
X113499461Y-104757420D01*
X113493437Y-104749009D01*
X113489084Y-104742248D01*
X113484871Y-104735099D01*
X113480800Y-104727561D01*
X113476869Y-104719636D01*
X113473078Y-104711322D01*
X113469429Y-104702620D01*
X113465921Y-104693530D01*
X113462553Y-104684053D01*
X113459180Y-104673958D01*
X113455656Y-104663019D01*
X113453223Y-104655256D01*
X113450722Y-104647118D01*
X113448155Y-104638605D01*
X113445520Y-104629716D01*
X113442818Y-104620452D01*
X113440049Y-104610812D01*
X113437213Y-104600796D01*
X113434309Y-104590405D01*
X113431339Y-104579639D01*
X113428301Y-104568497D01*
X113425196Y-104556979D01*
X113422024Y-104545086D01*
X113418785Y-104532817D01*
X113415143Y-104519473D01*
X113411302Y-104506601D01*
X113407260Y-104494200D01*
X113403019Y-104482271D01*
X113398577Y-104470814D01*
X113393936Y-104459828D01*
X113389095Y-104449315D01*
X113384053Y-104439272D01*
X113378812Y-104429702D01*
X113373371Y-104420603D01*
X113367729Y-104411976D01*
X113361888Y-104403821D01*
X113355847Y-104396137D01*
X113349606Y-104388925D01*
X113343165Y-104382184D01*
X113336524Y-104375916D01*
X113329682Y-104370095D01*
X113322641Y-104364650D01*
X113315400Y-104359580D01*
X113307959Y-104354886D01*
X113300318Y-104350568D01*
X113292477Y-104346625D01*
X113284436Y-104343057D01*
X113276196Y-104339866D01*
X113267755Y-104337049D01*
X113259114Y-104334608D01*
X113250273Y-104332543D01*
X113241232Y-104330853D01*
X113231991Y-104329539D01*
X113222551Y-104328600D01*
X113212910Y-104328037D01*
X113203069Y-104327849D01*
X113192051Y-104328115D01*
X113181197Y-104328914D01*
X113170509Y-104330244D01*
X113159985Y-104332108D01*
X113149626Y-104334503D01*
X113139432Y-104337431D01*
X113129403Y-104340892D01*
X113119538Y-104344885D01*
X113109839Y-104349410D01*
X113100304Y-104354467D01*
X113094039Y-104358135D01*
X113084830Y-104364078D01*
X113075961Y-104370550D01*
X113067433Y-104377551D01*
X113059244Y-104385081D01*
X113051395Y-104393140D01*
X113043886Y-104401728D01*
X113036718Y-104410844D01*
X113032127Y-104417216D01*
X113027688Y-104423823D01*
X113023400Y-104430665D01*
X113019263Y-104437742D01*
X113015278Y-104445054D01*
X113013341Y-104448798D01*
X113009627Y-104456465D01*
X113006152Y-104464323D01*
X113002916Y-104472371D01*
X112999920Y-104480610D01*
X112997164Y-104489041D01*
X112994648Y-104497662D01*
X112992371Y-104506473D01*
X112990334Y-104515476D01*
X112988536Y-104524670D01*
X112986978Y-104534054D01*
X112985660Y-104543629D01*
X112984582Y-104553395D01*
X112983743Y-104563352D01*
X112983144Y-104573499D01*
X112982784Y-104583837D01*
X112982665Y-104594367D01*
X112680879Y-104594367D01*
X112680879Y-103880982D01*
X112982665Y-103880982D01*
X112982823Y-103892776D01*
X112983300Y-103904368D01*
X112984093Y-103915759D01*
X112985205Y-103926949D01*
X112986633Y-103937936D01*
X112988380Y-103948723D01*
X112990444Y-103959308D01*
X112992825Y-103969691D01*
X112995524Y-103979873D01*
X112998540Y-103989853D01*
X113001874Y-103999632D01*
X113005526Y-104009210D01*
X113009495Y-104018585D01*
X113013781Y-104027760D01*
X113018385Y-104036733D01*
X113023307Y-104045504D01*
X113028500Y-104054069D01*
X113033919Y-104062375D01*
X113039564Y-104070421D01*
X113045435Y-104078208D01*
X113051532Y-104085735D01*
X113057855Y-104093003D01*
X113064403Y-104100011D01*
X113071178Y-104106760D01*
X113078179Y-104113249D01*
X113085405Y-104119479D01*
X113092858Y-104125449D01*
X113100536Y-104131160D01*
X113108440Y-104136611D01*
X113116571Y-104141803D01*
X113124927Y-104146735D01*
X113133509Y-104151408D01*
X113142244Y-104155841D01*
X113151107Y-104160005D01*
X113160098Y-104163901D01*
X113169217Y-104167528D01*
X113178465Y-104170886D01*
X113187841Y-104173976D01*
X113197345Y-104176797D01*
X113206977Y-104179349D01*
X113216738Y-104181633D01*
X113226627Y-104183648D01*
X113236644Y-104185394D01*
X113246789Y-104186872D01*
X113257062Y-104188081D01*
X113267464Y-104189021D01*
X113277994Y-104189693D01*
X113288652Y-104190096D01*
X113296967Y-104190356D01*
X113305010Y-104190600D01*
X113316566Y-104190933D01*
X113327509Y-104191229D01*
X113337842Y-104191487D01*
X113347563Y-104191708D01*
X113356673Y-104191890D01*
X113365172Y-104192035D01*
X113373059Y-104192142D01*
X113382624Y-104192226D01*
X113389085Y-104192245D01*
X113397835Y-104192212D01*
X113407672Y-104192111D01*
X113415762Y-104191991D01*
X113424465Y-104191834D01*
X113433778Y-104191639D01*
X113443703Y-104191406D01*
X113454240Y-104191135D01*
X113465388Y-104190826D01*
X113477147Y-104190480D01*
X113485326Y-104190228D01*
X113489517Y-104190096D01*
X113500176Y-104189551D01*
X113510708Y-104188746D01*
X113521114Y-104187682D01*
X113531393Y-104186359D01*
X113541545Y-104184776D01*
X113551570Y-104182933D01*
X113561469Y-104180831D01*
X113571241Y-104178470D01*
X113580886Y-104175849D01*
X113590405Y-104172968D01*
X113599797Y-104169828D01*
X113609062Y-104166429D01*
X113618200Y-104162770D01*
X113627212Y-104158851D01*
X113636097Y-104154673D01*
X113644856Y-104150235D01*
X113653414Y-104145565D01*
X113661748Y-104140640D01*
X113669858Y-104135459D01*
X113677743Y-104130024D01*
X113685404Y-104124334D01*
X113692840Y-104118389D01*
X113700052Y-104112189D01*
X113707040Y-104105734D01*
X113713803Y-104099025D01*
X113720342Y-104092060D01*
X113726656Y-104084840D01*
X113732747Y-104077366D01*
X113738612Y-104069636D01*
X113744253Y-104061652D01*
X113749670Y-104053412D01*
X113754863Y-104044918D01*
X113759784Y-104036217D01*
X113764388Y-104027311D01*
X113768675Y-104018198D01*
X113772644Y-104008880D01*
X113776295Y-103999355D01*
X113779629Y-103989624D01*
X113782645Y-103979687D01*
X113785344Y-103969545D01*
X113787726Y-103959195D01*
X113789789Y-103948640D01*
X113791536Y-103937879D01*
X113792965Y-103926912D01*
X113794076Y-103915739D01*
X113794870Y-103904359D01*
X113795346Y-103892774D01*
X113795505Y-103880982D01*
X113795346Y-103869190D01*
X113794870Y-103857602D01*
X113794076Y-103846219D01*
X113792965Y-103835040D01*
X113791536Y-103824066D01*
X113789789Y-103813296D01*
X113787726Y-103802731D01*
X113785344Y-103792371D01*
X113782645Y-103782215D01*
X113779629Y-103772263D01*
X113776295Y-103762517D01*
X113772644Y-103752974D01*
X113768675Y-103743637D01*
X113764388Y-103734504D01*
X113759784Y-103725575D01*
X113754863Y-103716851D01*
X113749670Y-103708379D01*
X113744253Y-103700160D01*
X113738612Y-103692192D01*
X113732747Y-103684476D01*
X113726656Y-103677013D01*
X113720342Y-103669801D01*
X113713803Y-103662840D01*
X113707040Y-103656132D01*
X113700052Y-103649676D01*
X113692840Y-103643471D01*
X113685404Y-103637518D01*
X113677743Y-103631818D01*
X113669858Y-103626369D01*
X113661748Y-103621172D01*
X113653414Y-103616227D01*
X113644856Y-103611533D01*
X113636097Y-103607119D01*
X113627212Y-103602963D01*
X113618200Y-103599066D01*
X113609062Y-103595426D01*
X113599797Y-103592044D01*
X113590405Y-103588920D01*
X113580886Y-103586053D01*
X113571241Y-103583445D01*
X113561469Y-103581095D01*
X113551570Y-103579003D01*
X113541545Y-103577169D01*
X113531393Y-103575593D01*
X113521114Y-103574275D01*
X113510708Y-103573215D01*
X113500176Y-103572413D01*
X113489517Y-103571868D01*
X113480554Y-103571594D01*
X113470564Y-103571355D01*
X113462399Y-103571201D01*
X113453656Y-103571067D01*
X113444337Y-103570954D01*
X113434441Y-103570861D01*
X113423967Y-103570789D01*
X113412917Y-103570737D01*
X113401289Y-103570706D01*
X113393217Y-103570697D01*
X113389085Y-103570696D01*
X113380884Y-103570701D01*
X113372940Y-103570714D01*
X113361505Y-103570752D01*
X113350647Y-103570810D01*
X113340366Y-103570889D01*
X113330662Y-103570989D01*
X113321535Y-103571109D01*
X113312985Y-103571250D01*
X113305012Y-103571411D01*
X113295279Y-103571659D01*
X113288652Y-103571868D01*
X113277994Y-103572271D01*
X113267464Y-103572940D01*
X113257062Y-103573876D01*
X113246789Y-103575080D01*
X113236644Y-103576551D01*
X113226627Y-103578289D01*
X113216738Y-103580294D01*
X113206977Y-103582566D01*
X113197345Y-103585106D01*
X113187841Y-103587912D01*
X113178465Y-103590986D01*
X113169217Y-103594326D01*
X113160098Y-103597934D01*
X113151107Y-103601809D01*
X113142244Y-103605952D01*
X113133509Y-103610361D01*
X113124927Y-103615057D01*
X113116571Y-103620009D01*
X113108440Y-103625217D01*
X113100536Y-103630682D01*
X113092858Y-103636403D01*
X113085405Y-103642381D01*
X113078179Y-103648616D01*
X113071178Y-103655106D01*
X113064403Y-103661853D01*
X113057855Y-103668857D01*
X113051532Y-103676117D01*
X113045435Y-103683634D01*
X113039564Y-103691407D01*
X113033919Y-103699436D01*
X113028500Y-103707722D01*
X113023307Y-103716265D01*
X113018385Y-103725060D01*
X113013781Y-103734055D01*
X113009495Y-103743250D01*
X113005526Y-103752645D01*
X113001874Y-103762240D01*
X112998540Y-103772034D01*
X112995524Y-103782029D01*
X112992825Y-103792224D01*
X112990444Y-103802619D01*
X112988380Y-103813214D01*
X112986633Y-103824009D01*
X112985205Y-103835003D01*
X112984093Y-103846198D01*
X112983300Y-103857593D01*
X112982823Y-103869187D01*
X112982665Y-103880982D01*
X112680879Y-103880982D01*
X112680879Y-103378623D01*
X112995170Y-103378623D01*
X112996232Y-103386782D01*
X112999418Y-103394063D01*
X113004158Y-103399921D01*
X113010753Y-103405039D01*
X113018179Y-103408032D01*
X113025651Y-103408909D01*
X113752518Y-103408909D01*
X113760700Y-103407847D01*
X113768050Y-103404661D01*
X113774011Y-103399921D01*
X113779129Y-103393438D01*
X113782122Y-103386077D01*
X113783000Y-103378623D01*
X113783000Y-103332706D01*
X113781937Y-103324635D01*
X113778751Y-103317350D01*
X113774011Y-103311408D01*
X113767440Y-103306402D01*
X113760083Y-103303474D01*
X113752713Y-103302615D01*
X113222413Y-103302615D01*
X113558101Y-103127933D01*
X113565535Y-103123916D01*
X113572979Y-103119120D01*
X113579298Y-103114104D01*
X113585065Y-103108198D01*
X113589702Y-103101107D01*
X113592621Y-103093024D01*
X113593781Y-103084901D01*
X113593858Y-103082015D01*
X113593858Y-103039419D01*
X113593162Y-103030934D01*
X113591076Y-103023283D01*
X113587126Y-103015761D01*
X113585065Y-103013041D01*
X113579298Y-103007229D01*
X113572979Y-103002271D01*
X113565535Y-102997508D01*
X113558101Y-102993501D01*
X113222413Y-102818623D01*
X113752713Y-102818623D01*
X113760784Y-102817561D01*
X113768069Y-102814375D01*
X113774011Y-102809635D01*
X113779129Y-102803175D01*
X113782122Y-102795883D01*
X113783000Y-102788533D01*
X113783000Y-102742615D01*
X113781937Y-102734544D01*
X113778751Y-102727259D01*
X113774011Y-102721317D01*
X113767416Y-102716200D01*
X113759990Y-102713207D01*
X113752518Y-102712329D01*
X113025651Y-102712329D01*
X113017470Y-102713391D01*
X113010119Y-102716577D01*
X113004158Y-102721317D01*
X112999041Y-102727889D01*
X112996048Y-102735246D01*
X112995170Y-102742615D01*
X112995170Y-102785211D01*
X112996052Y-102794656D01*
X112998700Y-102803453D01*
X113003112Y-102811601D01*
X113009290Y-102819100D01*
X113015503Y-102824632D01*
X113022846Y-102829749D01*
X113031318Y-102834450D01*
X113472323Y-103060717D01*
X113031318Y-103286788D01*
X113022846Y-103291493D01*
X113015503Y-103296619D01*
X113009290Y-103302166D01*
X113004207Y-103308135D01*
X112999441Y-103316188D01*
X112996441Y-103324900D01*
X112995205Y-103334270D01*
X112995170Y-103336223D01*
X112995170Y-103378623D01*
X112680879Y-103378623D01*
X112680879Y-102410544D01*
X114097291Y-102410544D01*
X114097291Y-105453418D01*
G37*
D11*
G36*
X123301820Y-144267098D02*
G01*
X123303148Y-144277215D01*
X123307130Y-144286408D01*
X123313055Y-144293964D01*
X123321270Y-144300361D01*
X123330466Y-144304102D01*
X123339678Y-144305200D01*
X123391457Y-144305200D01*
X123401545Y-144303872D01*
X123410652Y-144299889D01*
X123418080Y-144293964D01*
X123424476Y-144285582D01*
X123428218Y-144276218D01*
X123429315Y-144266853D01*
X123429315Y-143893162D01*
X123429517Y-143880081D01*
X123430124Y-143867398D01*
X123431135Y-143855114D01*
X123432551Y-143843229D01*
X123434371Y-143831743D01*
X123436596Y-143820656D01*
X123439226Y-143809968D01*
X123442260Y-143799678D01*
X123445698Y-143789787D01*
X123449541Y-143780295D01*
X123453789Y-143771202D01*
X123458441Y-143762507D01*
X123466177Y-143750213D01*
X123474824Y-143738817D01*
X123481094Y-143731717D01*
X123491159Y-143721853D01*
X123501937Y-143712958D01*
X123513427Y-143705034D01*
X123525630Y-143698080D01*
X123538546Y-143692097D01*
X123552175Y-143687084D01*
X123561656Y-143684281D01*
X123571455Y-143681909D01*
X123581570Y-143679968D01*
X123592002Y-143678459D01*
X123602750Y-143677381D01*
X123613815Y-143676734D01*
X123625198Y-143676518D01*
X123636435Y-143676734D01*
X123647370Y-143677381D01*
X123658004Y-143678459D01*
X123668337Y-143679968D01*
X123678368Y-143681909D01*
X123688098Y-143684281D01*
X123697526Y-143687084D01*
X123711103Y-143692097D01*
X123724001Y-143698080D01*
X123736222Y-143705034D01*
X123747764Y-143712958D01*
X123758627Y-143721853D01*
X123768812Y-143731717D01*
X123778153Y-143742516D01*
X123786575Y-143754211D01*
X123794079Y-143766805D01*
X123798570Y-143775698D01*
X123802654Y-143784991D01*
X123806329Y-143794683D01*
X123809596Y-143804773D01*
X123812454Y-143815262D01*
X123814904Y-143826150D01*
X123816946Y-143837437D01*
X123818579Y-143849122D01*
X123819804Y-143861206D01*
X123820621Y-143873689D01*
X123821029Y-143886571D01*
X123821080Y-143893162D01*
X123821080Y-144266853D01*
X123822408Y-144277109D01*
X123826391Y-144286384D01*
X123832315Y-144293964D01*
X123840530Y-144300361D01*
X123849726Y-144304102D01*
X123858938Y-144305200D01*
X123910717Y-144305200D01*
X123920806Y-144303872D01*
X123929912Y-144299889D01*
X123937340Y-144293964D01*
X123943736Y-144285610D01*
X123947478Y-144276333D01*
X123948575Y-144267098D01*
X123948575Y-143608619D01*
X123947247Y-143598531D01*
X123943265Y-143589424D01*
X123937340Y-143581996D01*
X123929125Y-143575461D01*
X123919929Y-143571638D01*
X123910717Y-143570517D01*
X123858938Y-143570517D01*
X123848850Y-143571845D01*
X123839743Y-143575827D01*
X123832315Y-143581752D01*
X123825919Y-143589967D01*
X123822177Y-143599163D01*
X123821080Y-143608375D01*
X123821080Y-143651850D01*
X123813028Y-143641741D01*
X123806518Y-143634434D01*
X123799604Y-143627364D01*
X123792287Y-143620529D01*
X123784566Y-143613931D01*
X123776442Y-143607569D01*
X123767914Y-143601443D01*
X123758982Y-143595554D01*
X123749647Y-143589900D01*
X123739908Y-143584483D01*
X123736572Y-143582729D01*
X123726237Y-143577753D01*
X123715472Y-143573267D01*
X123704278Y-143569270D01*
X123692654Y-143565762D01*
X123680602Y-143562744D01*
X123668119Y-143560215D01*
X123655208Y-143558176D01*
X123641867Y-143556626D01*
X123628097Y-143555565D01*
X123613897Y-143554994D01*
X123604193Y-143554885D01*
X123593248Y-143555035D01*
X123582455Y-143555485D01*
X123571815Y-143556234D01*
X123561328Y-143557282D01*
X123550994Y-143558630D01*
X123540812Y-143560278D01*
X123530782Y-143562225D01*
X123520906Y-143564472D01*
X123511182Y-143567018D01*
X123501611Y-143569864D01*
X123492192Y-143573010D01*
X123482926Y-143576455D01*
X123473813Y-143580200D01*
X123464852Y-143584244D01*
X123456044Y-143588588D01*
X123447389Y-143593232D01*
X123438928Y-143598125D01*
X123426681Y-143605955D01*
X123414966Y-143614374D01*
X123403783Y-143623381D01*
X123393132Y-143632975D01*
X123383015Y-143643159D01*
X123373429Y-143653930D01*
X123364376Y-143665289D01*
X123355855Y-143677237D01*
X123350470Y-143685529D01*
X123345322Y-143694082D01*
X123340410Y-143702897D01*
X123335737Y-143711915D01*
X123331366Y-143721139D01*
X123327296Y-143730569D01*
X123323527Y-143740205D01*
X123320060Y-143750047D01*
X123316894Y-143760095D01*
X123314030Y-143770350D01*
X123311468Y-143780810D01*
X123309206Y-143791477D01*
X123307247Y-143802349D01*
X123305589Y-143813428D01*
X123304232Y-143824713D01*
X123303177Y-143836204D01*
X123302423Y-143847901D01*
X123301971Y-143859804D01*
X123301820Y-143871913D01*
X123301820Y-144267098D01*
G37*
G36*
X123055554Y-143321510D02*
G01*
X123064750Y-143325251D01*
X123072964Y-143331648D01*
X123078889Y-143339099D01*
X123082872Y-143348287D01*
X123084200Y-143358514D01*
X123084200Y-144267098D01*
X123083102Y-144276438D01*
X123079361Y-144285721D01*
X123072964Y-144293964D01*
X123065537Y-144299889D01*
X123056430Y-144303872D01*
X123046342Y-144305200D01*
X122988945Y-144305200D01*
X122979757Y-144304078D01*
X122970642Y-144300256D01*
X122962567Y-144293720D01*
X122956642Y-144286116D01*
X122952659Y-144276760D01*
X122951332Y-144266365D01*
X122951332Y-143898779D01*
X122710508Y-143898779D01*
X122507298Y-144266365D01*
X122503201Y-144273305D01*
X122497244Y-144281497D01*
X122489003Y-144290030D01*
X122479879Y-144296667D01*
X122469874Y-144301407D01*
X122458985Y-144304251D01*
X122447214Y-144305200D01*
X122387131Y-144305200D01*
X122383251Y-144304973D01*
X122373340Y-144301928D01*
X122365393Y-144295918D01*
X122362239Y-144292309D01*
X122357643Y-144283605D01*
X122356112Y-144273692D01*
X122356953Y-144267047D01*
X122360508Y-144257816D01*
X122571778Y-143879973D01*
X122560386Y-143876188D01*
X122549289Y-143872100D01*
X122538488Y-143867708D01*
X122527982Y-143863013D01*
X122517773Y-143858015D01*
X122507859Y-143852713D01*
X122498241Y-143847108D01*
X122488919Y-143841199D01*
X122479892Y-143834987D01*
X122471162Y-143828472D01*
X122462727Y-143821653D01*
X122454587Y-143814531D01*
X122446744Y-143807105D01*
X122439196Y-143799376D01*
X122431944Y-143791344D01*
X122424988Y-143783008D01*
X122418363Y-143774364D01*
X122412165Y-143765408D01*
X122406395Y-143756138D01*
X122401052Y-143746555D01*
X122396137Y-143736659D01*
X122391649Y-143726451D01*
X122387589Y-143715929D01*
X122383955Y-143705095D01*
X122380750Y-143693947D01*
X122377971Y-143682487D01*
X122375621Y-143670714D01*
X122373697Y-143658628D01*
X122372201Y-143646228D01*
X122371133Y-143633516D01*
X122370492Y-143620491D01*
X122370278Y-143607153D01*
X122370288Y-143606665D01*
X122503146Y-143606665D01*
X122503352Y-143617154D01*
X122503972Y-143627309D01*
X122506451Y-143646622D01*
X122510582Y-143664602D01*
X122516366Y-143681251D01*
X122523802Y-143696567D01*
X122532890Y-143710552D01*
X122543631Y-143723205D01*
X122556024Y-143734526D01*
X122570070Y-143744515D01*
X122585769Y-143753173D01*
X122603119Y-143760498D01*
X122612415Y-143763661D01*
X122622123Y-143766491D01*
X122632244Y-143768989D01*
X122642778Y-143771153D01*
X122653726Y-143772984D01*
X122665087Y-143774483D01*
X122676860Y-143775648D01*
X122689047Y-143776481D01*
X122701647Y-143776980D01*
X122714660Y-143777146D01*
X122951332Y-143777146D01*
X122951332Y-143442045D01*
X122714660Y-143442045D01*
X122708147Y-143442083D01*
X122695423Y-143442387D01*
X122683104Y-143442993D01*
X122671190Y-143443904D01*
X122659680Y-143445117D01*
X122648574Y-143446634D01*
X122637874Y-143448455D01*
X122627577Y-143450578D01*
X122617685Y-143453005D01*
X122603606Y-143457215D01*
X122590437Y-143462107D01*
X122578178Y-143467682D01*
X122566829Y-143473940D01*
X122556391Y-143480880D01*
X122549943Y-143485894D01*
X122541052Y-143494126D01*
X122533096Y-143503213D01*
X122526077Y-143513154D01*
X122519993Y-143523950D01*
X122514845Y-143535600D01*
X122510633Y-143548104D01*
X122507358Y-143561463D01*
X122505018Y-143575676D01*
X122503978Y-143585626D01*
X122503354Y-143595955D01*
X122503146Y-143606665D01*
X122370288Y-143606665D01*
X122370650Y-143589425D01*
X122371766Y-143572265D01*
X122373627Y-143555674D01*
X122376231Y-143539651D01*
X122379580Y-143524197D01*
X122383673Y-143509311D01*
X122388510Y-143494994D01*
X122394091Y-143481246D01*
X122400417Y-143468067D01*
X122407487Y-143455456D01*
X122415301Y-143443413D01*
X122423859Y-143431940D01*
X122433161Y-143421035D01*
X122443207Y-143410698D01*
X122453998Y-143400930D01*
X122465533Y-143391731D01*
X122477612Y-143383095D01*
X122490098Y-143375016D01*
X122502990Y-143367494D01*
X122516289Y-143360529D01*
X122529994Y-143354122D01*
X122544106Y-143348271D01*
X122558624Y-143342978D01*
X122573549Y-143338242D01*
X122588880Y-143334063D01*
X122604617Y-143330442D01*
X122620761Y-143327377D01*
X122637312Y-143324870D01*
X122654268Y-143322920D01*
X122671631Y-143321527D01*
X122689401Y-143320691D01*
X122707577Y-143320412D01*
X123046342Y-143320412D01*
X123055554Y-143321510D01*
G37*
G36*
X121579175Y-143320412D02*
G01*
X121569087Y-143321711D01*
X121559980Y-143325607D01*
X121552553Y-143331403D01*
X121546156Y-143339253D01*
X121542206Y-143348870D01*
X121541318Y-143356805D01*
X121541318Y-143405653D01*
X121542898Y-143416129D01*
X121547637Y-143425574D01*
X121552553Y-143431299D01*
X121560768Y-143437417D01*
X121569964Y-143440996D01*
X121579175Y-143442045D01*
X122039817Y-143442045D01*
X122039817Y-143773727D01*
X121607019Y-143773727D01*
X121596960Y-143775026D01*
X121587939Y-143778922D01*
X121580641Y-143784718D01*
X121574244Y-143792568D01*
X121570294Y-143802185D01*
X121569406Y-143810119D01*
X121569406Y-143858968D01*
X121570985Y-143869444D01*
X121575725Y-143878889D01*
X121580641Y-143884613D01*
X121588716Y-143890732D01*
X121597831Y-143894311D01*
X121607019Y-143895360D01*
X122039817Y-143895360D01*
X122039817Y-144266853D01*
X122041145Y-144277109D01*
X122045128Y-144286384D01*
X122051052Y-144293964D01*
X122059128Y-144300361D01*
X122068243Y-144304102D01*
X122077431Y-144305200D01*
X122134828Y-144305200D01*
X122144916Y-144303872D01*
X122154023Y-144299889D01*
X122161450Y-144293964D01*
X122167847Y-144285721D01*
X122171588Y-144276438D01*
X122172685Y-144267098D01*
X122172685Y-143358514D01*
X122171358Y-143348287D01*
X122167375Y-143339099D01*
X122161450Y-143331648D01*
X122153235Y-143325251D01*
X122144039Y-143321510D01*
X122134828Y-143320412D01*
X121579175Y-143320412D01*
G37*
G36*
X120928268Y-143932973D02*
G01*
X120927470Y-143947985D01*
X120926177Y-143962611D01*
X120924387Y-143976851D01*
X120922101Y-143990706D01*
X120919319Y-144004176D01*
X120916041Y-144017260D01*
X120912266Y-144029959D01*
X120907996Y-144042272D01*
X120903229Y-144054200D01*
X120897967Y-144065742D01*
X120892208Y-144076899D01*
X120885953Y-144087671D01*
X120879202Y-144098057D01*
X120871955Y-144108057D01*
X120864212Y-144117673D01*
X120855972Y-144126902D01*
X120847275Y-144135657D01*
X120838158Y-144143847D01*
X120828621Y-144151472D01*
X120818664Y-144158532D01*
X120808288Y-144165027D01*
X120797491Y-144170958D01*
X120786275Y-144176323D01*
X120774639Y-144181124D01*
X120762584Y-144185360D01*
X120750108Y-144189031D01*
X120737213Y-144192138D01*
X120723898Y-144194680D01*
X120710163Y-144196656D01*
X120696008Y-144198068D01*
X120681434Y-144198916D01*
X120666440Y-144199198D01*
X120651275Y-144198986D01*
X120636615Y-144198351D01*
X120622462Y-144197292D01*
X120608814Y-144195809D01*
X120595671Y-144193903D01*
X120583035Y-144191573D01*
X120570904Y-144188820D01*
X120559278Y-144185643D01*
X120548158Y-144182042D01*
X120537544Y-144178018D01*
X120527436Y-144173570D01*
X120517833Y-144168698D01*
X120508736Y-144163403D01*
X120500145Y-144157684D01*
X120492059Y-144151542D01*
X120484479Y-144144976D01*
X120477275Y-144138046D01*
X120470378Y-144130871D01*
X120463788Y-144123452D01*
X120457505Y-144115789D01*
X120451530Y-144107882D01*
X120445862Y-144099730D01*
X120440501Y-144091334D01*
X120435447Y-144082694D01*
X120430701Y-144073810D01*
X120426261Y-144064681D01*
X120422129Y-144055309D01*
X120418304Y-144045691D01*
X120414787Y-144035830D01*
X120411576Y-144025725D01*
X120408673Y-144015375D01*
X120406077Y-144004781D01*
X120402814Y-143994797D01*
X120397421Y-143986463D01*
X120392643Y-143981822D01*
X120383747Y-143976287D01*
X120374126Y-143973574D01*
X120369440Y-143973273D01*
X120305205Y-143973273D01*
X120295490Y-143974805D01*
X120286380Y-143979881D01*
X120283467Y-143982555D01*
X120277616Y-143990462D01*
X120274651Y-144000239D01*
X120274430Y-144004048D01*
X120275279Y-144016962D01*
X120276820Y-144029965D01*
X120279052Y-144043059D01*
X120281975Y-144056244D01*
X120285589Y-144069518D01*
X120289895Y-144082882D01*
X120294891Y-144096337D01*
X120300579Y-144109882D01*
X120304755Y-144118961D01*
X120309238Y-144128081D01*
X120314029Y-144137242D01*
X120319126Y-144146442D01*
X120324556Y-144155542D01*
X120330342Y-144164462D01*
X120336486Y-144173203D01*
X120342986Y-144181765D01*
X120349843Y-144190148D01*
X120357057Y-144198351D01*
X120364627Y-144206375D01*
X120372554Y-144214219D01*
X120380839Y-144221884D01*
X120389480Y-144229370D01*
X120398478Y-144236676D01*
X120407832Y-144243803D01*
X120417544Y-144250751D01*
X120427612Y-144257519D01*
X120438037Y-144264108D01*
X120448819Y-144270517D01*
X120459916Y-144276610D01*
X120471347Y-144282309D01*
X120483112Y-144287616D01*
X120495210Y-144292529D01*
X120507643Y-144297050D01*
X120520409Y-144301177D01*
X120533510Y-144304911D01*
X120546944Y-144308253D01*
X120560712Y-144311201D01*
X120574814Y-144313756D01*
X120589250Y-144315918D01*
X120604020Y-144317686D01*
X120619124Y-144319062D01*
X120634562Y-144320045D01*
X120650334Y-144320635D01*
X120666440Y-144320831D01*
X120681010Y-144320638D01*
X120695352Y-144320060D01*
X120709465Y-144319097D01*
X120723348Y-144317747D01*
X120737003Y-144316013D01*
X120750429Y-144313893D01*
X120763625Y-144311388D01*
X120776593Y-144308497D01*
X120789332Y-144305220D01*
X120801842Y-144301559D01*
X120814123Y-144297512D01*
X120826175Y-144293079D01*
X120837997Y-144288261D01*
X120849591Y-144283057D01*
X120860956Y-144277468D01*
X120872092Y-144271494D01*
X120882958Y-144265181D01*
X120893513Y-144258576D01*
X120903757Y-144251679D01*
X120913690Y-144244490D01*
X120923312Y-144237009D01*
X120932622Y-144229236D01*
X120941622Y-144221171D01*
X120950311Y-144212815D01*
X120958689Y-144204166D01*
X120966755Y-144195225D01*
X120974511Y-144185993D01*
X120981956Y-144176468D01*
X120989089Y-144166652D01*
X120995912Y-144156543D01*
X121002423Y-144146143D01*
X121008624Y-144135451D01*
X121014496Y-144124491D01*
X121020023Y-144113351D01*
X121025205Y-144102029D01*
X121030041Y-144090525D01*
X121034532Y-144078841D01*
X121038677Y-144066975D01*
X121042477Y-144054928D01*
X121045932Y-144042700D01*
X121049041Y-144030290D01*
X121051805Y-144017699D01*
X121054224Y-144004927D01*
X121056297Y-143991973D01*
X121058025Y-143978839D01*
X121059407Y-143965523D01*
X121060444Y-143952025D01*
X121061136Y-143938347D01*
X121061480Y-143927142D01*
X121061777Y-143914655D01*
X121061970Y-143904449D01*
X121062138Y-143893521D01*
X121062280Y-143881871D01*
X121062396Y-143869501D01*
X121062486Y-143856409D01*
X121062550Y-143842596D01*
X121062589Y-143828062D01*
X121062600Y-143817971D01*
X121062602Y-143812806D01*
X121062596Y-143802555D01*
X121062579Y-143792625D01*
X121062531Y-143778331D01*
X121062458Y-143764759D01*
X121062360Y-143751907D01*
X121062235Y-143739777D01*
X121062085Y-143728368D01*
X121061909Y-143717681D01*
X121061707Y-143707715D01*
X121061398Y-143695548D01*
X121061136Y-143687265D01*
X121060444Y-143673587D01*
X121059407Y-143660093D01*
X121058025Y-143646782D01*
X121056297Y-143633654D01*
X121054224Y-143620709D01*
X121051805Y-143607947D01*
X121049041Y-143595369D01*
X121045932Y-143582973D01*
X121042477Y-143570761D01*
X121038677Y-143558732D01*
X121034532Y-143546887D01*
X121030041Y-143535224D01*
X121025205Y-143523745D01*
X121020023Y-143512448D01*
X121014496Y-143501335D01*
X121008624Y-143490405D01*
X121002423Y-143479683D01*
X120995912Y-143469255D01*
X120989089Y-143459121D01*
X120981956Y-143449281D01*
X120974511Y-143439735D01*
X120966755Y-143430482D01*
X120958689Y-143421523D01*
X120950311Y-143412858D01*
X120941622Y-143404487D01*
X120932622Y-143396410D01*
X120923312Y-143388627D01*
X120913690Y-143381137D01*
X120903757Y-143373942D01*
X120893513Y-143367040D01*
X120882958Y-143360432D01*
X120872092Y-143354118D01*
X120860956Y-143348143D01*
X120849591Y-143342554D01*
X120837997Y-143337351D01*
X120826175Y-143332533D01*
X120814123Y-143328100D01*
X120801842Y-143324053D01*
X120789332Y-143320391D01*
X120776593Y-143317115D01*
X120763625Y-143314224D01*
X120750429Y-143311719D01*
X120737003Y-143309599D01*
X120723348Y-143307864D01*
X120709465Y-143306515D01*
X120695352Y-143305552D01*
X120681010Y-143304974D01*
X120666440Y-143304781D01*
X120650334Y-143304978D01*
X120634562Y-143305571D01*
X120619124Y-143306558D01*
X120604020Y-143307941D01*
X120589250Y-143309718D01*
X120574814Y-143311891D01*
X120560712Y-143314458D01*
X120546944Y-143317420D01*
X120533510Y-143320778D01*
X120520409Y-143324530D01*
X120507643Y-143328677D01*
X120495210Y-143333220D01*
X120483112Y-143338157D01*
X120471347Y-143343489D01*
X120459916Y-143349217D01*
X120448819Y-143355339D01*
X120438037Y-143361749D01*
X120427612Y-143368341D01*
X120417544Y-143375114D01*
X120407832Y-143382068D01*
X120398478Y-143389204D01*
X120389480Y-143396521D01*
X120380839Y-143404019D01*
X120372554Y-143411698D01*
X120364627Y-143419559D01*
X120357057Y-143427601D01*
X120349843Y-143435824D01*
X120342986Y-143444228D01*
X120336486Y-143452814D01*
X120330342Y-143461581D01*
X120324556Y-143470529D01*
X120319126Y-143479659D01*
X120314029Y-143488830D01*
X120309238Y-143497965D01*
X120304755Y-143507064D01*
X120300579Y-143516127D01*
X120296710Y-143525154D01*
X120291483Y-143538625D01*
X120286947Y-143552016D01*
X120283103Y-143565324D01*
X120279949Y-143578551D01*
X120277487Y-143591697D01*
X120275716Y-143604761D01*
X120274636Y-143617743D01*
X120274430Y-143622052D01*
X120276160Y-143632344D01*
X120281349Y-143641420D01*
X120283467Y-143643790D01*
X120291414Y-143649641D01*
X120301325Y-143652606D01*
X120305205Y-143652827D01*
X120369440Y-143652827D01*
X120379397Y-143651416D01*
X120388628Y-143647184D01*
X120392643Y-143644278D01*
X120399456Y-143637043D01*
X120404138Y-143628158D01*
X120406077Y-143621320D01*
X120408673Y-143610696D01*
X120411576Y-143600318D01*
X120414787Y-143590187D01*
X120418304Y-143580302D01*
X120422129Y-143570663D01*
X120426261Y-143561270D01*
X120430701Y-143552123D01*
X120435447Y-143543223D01*
X120440501Y-143534568D01*
X120445862Y-143526160D01*
X120451530Y-143517998D01*
X120457505Y-143510082D01*
X120463788Y-143502412D01*
X120470378Y-143494989D01*
X120477275Y-143487811D01*
X120484479Y-143480880D01*
X120492059Y-143474284D01*
X120500145Y-143468114D01*
X120508736Y-143462370D01*
X120517833Y-143457051D01*
X120527436Y-143452158D01*
X120537544Y-143447690D01*
X120548158Y-143443647D01*
X120559278Y-143440030D01*
X120570904Y-143436839D01*
X120583035Y-143434073D01*
X120595671Y-143431733D01*
X120608814Y-143429818D01*
X120622462Y-143428329D01*
X120636615Y-143427265D01*
X120651275Y-143426626D01*
X120666440Y-143426414D01*
X120681434Y-143426696D01*
X120696008Y-143427543D01*
X120710163Y-143428955D01*
X120723898Y-143430932D01*
X120737213Y-143433474D01*
X120750108Y-143436580D01*
X120762584Y-143440252D01*
X120774639Y-143444488D01*
X120786275Y-143449289D01*
X120797491Y-143454654D01*
X120808288Y-143460585D01*
X120818664Y-143467080D01*
X120828621Y-143474140D01*
X120838158Y-143481765D01*
X120847275Y-143489955D01*
X120855972Y-143498710D01*
X120864212Y-143507939D01*
X120871955Y-143517554D01*
X120879202Y-143527555D01*
X120885953Y-143537941D01*
X120892208Y-143548713D01*
X120897967Y-143559870D01*
X120903229Y-143571412D01*
X120907996Y-143583340D01*
X120912266Y-143595653D01*
X120916041Y-143608352D01*
X120919319Y-143621436D01*
X120922101Y-143634906D01*
X120924387Y-143648761D01*
X120926177Y-143663001D01*
X120927470Y-143677627D01*
X120928268Y-143692638D01*
X120928554Y-143703919D01*
X120928802Y-143716269D01*
X120928963Y-143726232D01*
X120929103Y-143736797D01*
X120929221Y-143747962D01*
X120929318Y-143759729D01*
X120929393Y-143772097D01*
X120929446Y-143785065D01*
X120929479Y-143798635D01*
X120929489Y-143812806D01*
X120929479Y-143826977D01*
X120929446Y-143840547D01*
X120929393Y-143853515D01*
X120929318Y-143865883D01*
X120929221Y-143877650D01*
X120929103Y-143888815D01*
X120928963Y-143899380D01*
X120928802Y-143909343D01*
X120928554Y-143921692D01*
X120928268Y-143932973D01*
G37*
G36*
X119827048Y-143555221D02*
G01*
X119844723Y-143556229D01*
X119861929Y-143557908D01*
X119878665Y-143560259D01*
X119894932Y-143563281D01*
X119910729Y-143566975D01*
X119926058Y-143571341D01*
X119940916Y-143576379D01*
X119955306Y-143582088D01*
X119969226Y-143588469D01*
X119982676Y-143595521D01*
X119995657Y-143603246D01*
X120008169Y-143611641D01*
X120020211Y-143620709D01*
X120031784Y-143630448D01*
X120042888Y-143640859D01*
X120053431Y-143651805D01*
X120063385Y-143663211D01*
X120072749Y-143675077D01*
X120081524Y-143687402D01*
X120089709Y-143700188D01*
X120097304Y-143713433D01*
X120104310Y-143727139D01*
X120110726Y-143741304D01*
X120116553Y-143755929D01*
X120121790Y-143771014D01*
X120126437Y-143786558D01*
X120130495Y-143802563D01*
X120133963Y-143819027D01*
X120136841Y-143835952D01*
X120139130Y-143853336D01*
X120140829Y-143871180D01*
X120140904Y-143872193D01*
X120141419Y-143882890D01*
X120141706Y-143893938D01*
X120141879Y-143905126D01*
X120141974Y-143915373D01*
X120142031Y-143926772D01*
X120142050Y-143939324D01*
X120142031Y-143951189D01*
X120141974Y-143961993D01*
X120141849Y-143974005D01*
X120141664Y-143984361D01*
X120141363Y-143994599D01*
X120140829Y-144004537D01*
X120138955Y-144022382D01*
X120136509Y-144039769D01*
X120133490Y-144056698D01*
X120129899Y-144073169D01*
X120125736Y-144089182D01*
X120121000Y-144104737D01*
X120115691Y-144119834D01*
X120109810Y-144134474D01*
X120103357Y-144148655D01*
X120096331Y-144162378D01*
X120088733Y-144175644D01*
X120080562Y-144188451D01*
X120071819Y-144200801D01*
X120062503Y-144212693D01*
X120052615Y-144224126D01*
X120042155Y-144235102D01*
X120031140Y-144245483D01*
X120019650Y-144255195D01*
X120007685Y-144264236D01*
X119995245Y-144272608D01*
X119982330Y-144280311D01*
X119968939Y-144287343D01*
X119955074Y-144293706D01*
X119940733Y-144299399D01*
X119925917Y-144304422D01*
X119910626Y-144308775D01*
X119894860Y-144312459D01*
X119878619Y-144315473D01*
X119861903Y-144317817D01*
X119844711Y-144319492D01*
X119827045Y-144320496D01*
X119808903Y-144320831D01*
X119790762Y-144320496D01*
X119773099Y-144319492D01*
X119755912Y-144317817D01*
X119739202Y-144315473D01*
X119722970Y-144312459D01*
X119707214Y-144308775D01*
X119691936Y-144304422D01*
X119677134Y-144299399D01*
X119662810Y-144293706D01*
X119648962Y-144287343D01*
X119635592Y-144280311D01*
X119622698Y-144272608D01*
X119610282Y-144264236D01*
X119598343Y-144255195D01*
X119586881Y-144245483D01*
X119575895Y-144235102D01*
X119565406Y-144224126D01*
X119555493Y-144212693D01*
X119546157Y-144200801D01*
X119537397Y-144188451D01*
X119529213Y-144175644D01*
X119521605Y-144162378D01*
X119514573Y-144148655D01*
X119508118Y-144134474D01*
X119502239Y-144119834D01*
X119496936Y-144104737D01*
X119492210Y-144089182D01*
X119488060Y-144073169D01*
X119484486Y-144056698D01*
X119481488Y-144039769D01*
X119479066Y-144022382D01*
X119477221Y-144004537D01*
X119476866Y-144000618D01*
X119476079Y-143990730D01*
X119475435Y-143980711D01*
X119474934Y-143970561D01*
X119474577Y-143960280D01*
X119474362Y-143949867D01*
X119474290Y-143939324D01*
X119601785Y-143939324D01*
X119601796Y-143942699D01*
X119601953Y-143953032D01*
X119602299Y-143963674D01*
X119602835Y-143974624D01*
X119603559Y-143985884D01*
X119604472Y-143997454D01*
X119605048Y-144003098D01*
X119606448Y-144014178D01*
X119608181Y-144024982D01*
X119610245Y-144035509D01*
X119612642Y-144045760D01*
X119615371Y-144055734D01*
X119618431Y-144065431D01*
X119621824Y-144074852D01*
X119625549Y-144083995D01*
X119631758Y-144097192D01*
X119638715Y-144109767D01*
X119646419Y-144121719D01*
X119654869Y-144133048D01*
X119664067Y-144143755D01*
X119667299Y-144147166D01*
X119677497Y-144156749D01*
X119688445Y-144165358D01*
X119700145Y-144172993D01*
X119712597Y-144179652D01*
X119725799Y-144185337D01*
X119735019Y-144188586D01*
X119744572Y-144191401D01*
X119754459Y-144193784D01*
X119764680Y-144195733D01*
X119775235Y-144197249D01*
X119786124Y-144198332D01*
X119797346Y-144198982D01*
X119808903Y-144199198D01*
X119820461Y-144198982D01*
X119831686Y-144198332D01*
X119842580Y-144197249D01*
X119853142Y-144195733D01*
X119863371Y-144193784D01*
X119873269Y-144191401D01*
X119882834Y-144188586D01*
X119896560Y-144183551D01*
X119909539Y-144177541D01*
X119921770Y-144170556D01*
X119933255Y-144162597D01*
X119943993Y-144153663D01*
X119953983Y-144143755D01*
X119960197Y-144136686D01*
X119968892Y-144125564D01*
X119976835Y-144113820D01*
X119984027Y-144101453D01*
X119990468Y-144088464D01*
X119994344Y-144079458D01*
X119997887Y-144070176D01*
X120001095Y-144060617D01*
X120003970Y-144050781D01*
X120006511Y-144040669D01*
X120008718Y-144030280D01*
X120010590Y-144019615D01*
X120012129Y-144008672D01*
X120013334Y-143997454D01*
X120013756Y-143991913D01*
X120014227Y-143981952D01*
X120014519Y-143971367D01*
X120014684Y-143961104D01*
X120014777Y-143949528D01*
X120014800Y-143939324D01*
X120014787Y-143931317D01*
X120014730Y-143921375D01*
X120014594Y-143910129D01*
X120014336Y-143898365D01*
X120013975Y-143888491D01*
X120013334Y-143878263D01*
X120012774Y-143872619D01*
X120011402Y-143861538D01*
X120009696Y-143850734D01*
X120007656Y-143840207D01*
X120005282Y-143829957D01*
X120002575Y-143819983D01*
X119999533Y-143810285D01*
X119996157Y-143800865D01*
X119992448Y-143791721D01*
X119986258Y-143778524D01*
X119979316Y-143765950D01*
X119971623Y-143753998D01*
X119963179Y-143742668D01*
X119953983Y-143731962D01*
X119950736Y-143728550D01*
X119940497Y-143718967D01*
X119929510Y-143710358D01*
X119917776Y-143702724D01*
X119905296Y-143696064D01*
X119892068Y-143690379D01*
X119882834Y-143687131D01*
X119873269Y-143684315D01*
X119863371Y-143681933D01*
X119853142Y-143679984D01*
X119842580Y-143678468D01*
X119831686Y-143677385D01*
X119820461Y-143676735D01*
X119808903Y-143676518D01*
X119797346Y-143676735D01*
X119786124Y-143677385D01*
X119775235Y-143678468D01*
X119764680Y-143679984D01*
X119754459Y-143681933D01*
X119744572Y-143684315D01*
X119735019Y-143687131D01*
X119721315Y-143692166D01*
X119708363Y-143698176D01*
X119696162Y-143705160D01*
X119684712Y-143713120D01*
X119674014Y-143722053D01*
X119664067Y-143731962D01*
X119657852Y-143739030D01*
X119649152Y-143750152D01*
X119641200Y-143761897D01*
X119633994Y-143774263D01*
X119627536Y-143787253D01*
X119623645Y-143796258D01*
X119620086Y-143805541D01*
X119616859Y-143815100D01*
X119613965Y-143824935D01*
X119611402Y-143835047D01*
X119609172Y-143845436D01*
X119607273Y-143856102D01*
X119605706Y-143867044D01*
X119604472Y-143878263D01*
X119603842Y-143886644D01*
X119603173Y-143896819D01*
X119602635Y-143906660D01*
X119602163Y-143918029D01*
X119601880Y-143928917D01*
X119601785Y-143939324D01*
X119474290Y-143939324D01*
X119474302Y-143934736D01*
X119474431Y-143923457D01*
X119474703Y-143912453D01*
X119475118Y-143901723D01*
X119475676Y-143891268D01*
X119476377Y-143881087D01*
X119477221Y-143871180D01*
X119478920Y-143853336D01*
X119481209Y-143835952D01*
X119484088Y-143819027D01*
X119487556Y-143802563D01*
X119491613Y-143786558D01*
X119496261Y-143771014D01*
X119501498Y-143755929D01*
X119507324Y-143741304D01*
X119513740Y-143727139D01*
X119520746Y-143713433D01*
X119528341Y-143700188D01*
X119536526Y-143687402D01*
X119545301Y-143675077D01*
X119554665Y-143663211D01*
X119564619Y-143651805D01*
X119575163Y-143640859D01*
X119586237Y-143630448D01*
X119597782Y-143620709D01*
X119609798Y-143611641D01*
X119622286Y-143603246D01*
X119635245Y-143595521D01*
X119648676Y-143588469D01*
X119662578Y-143582088D01*
X119676951Y-143576379D01*
X119691795Y-143571341D01*
X119707111Y-143566975D01*
X119722898Y-143563281D01*
X119739156Y-143560259D01*
X119755886Y-143557908D01*
X119773087Y-143556229D01*
X119790759Y-143555221D01*
X119808903Y-143554885D01*
X119827048Y-143555221D01*
G37*
G36*
X118653390Y-144267098D02*
G01*
X118654718Y-144277215D01*
X118658701Y-144286408D01*
X118664625Y-144293964D01*
X118672840Y-144300361D01*
X118682036Y-144304102D01*
X118691248Y-144305200D01*
X118743027Y-144305200D01*
X118753115Y-144303872D01*
X118762222Y-144299889D01*
X118769650Y-144293964D01*
X118776046Y-144285582D01*
X118779788Y-144276218D01*
X118780885Y-144266853D01*
X118780885Y-143893162D01*
X118781087Y-143880081D01*
X118781694Y-143867398D01*
X118782705Y-143855114D01*
X118784121Y-143843229D01*
X118785942Y-143831743D01*
X118788166Y-143820656D01*
X118790796Y-143809968D01*
X118793830Y-143799678D01*
X118797268Y-143789787D01*
X118801111Y-143780295D01*
X118805359Y-143771202D01*
X118810011Y-143762507D01*
X118817747Y-143750213D01*
X118826394Y-143738817D01*
X118832664Y-143731717D01*
X118842729Y-143721853D01*
X118853507Y-143712958D01*
X118864997Y-143705034D01*
X118877201Y-143698080D01*
X118890116Y-143692097D01*
X118903745Y-143687084D01*
X118913226Y-143684281D01*
X118923025Y-143681909D01*
X118933140Y-143679968D01*
X118943572Y-143678459D01*
X118954320Y-143677381D01*
X118965386Y-143676734D01*
X118976768Y-143676518D01*
X118988005Y-143676734D01*
X118998940Y-143677381D01*
X119009574Y-143678459D01*
X119019907Y-143679968D01*
X119029938Y-143681909D01*
X119039668Y-143684281D01*
X119049096Y-143687084D01*
X119062673Y-143692097D01*
X119075572Y-143698080D01*
X119087792Y-143705034D01*
X119099334Y-143712958D01*
X119110197Y-143721853D01*
X119120382Y-143731717D01*
X119129723Y-143742516D01*
X119138145Y-143754211D01*
X119145649Y-143766805D01*
X119150141Y-143775698D01*
X119154224Y-143784991D01*
X119157899Y-143794683D01*
X119161166Y-143804773D01*
X119164024Y-143815262D01*
X119166474Y-143826150D01*
X119168516Y-143837437D01*
X119170149Y-143849122D01*
X119171374Y-143861206D01*
X119172191Y-143873689D01*
X119172599Y-143886571D01*
X119172650Y-143893162D01*
X119172650Y-144266853D01*
X119173978Y-144277109D01*
X119177961Y-144286384D01*
X119183886Y-144293964D01*
X119192100Y-144300361D01*
X119201297Y-144304102D01*
X119210508Y-144305200D01*
X119262288Y-144305200D01*
X119272376Y-144303872D01*
X119281483Y-144299889D01*
X119288910Y-144293964D01*
X119295307Y-144285610D01*
X119299048Y-144276333D01*
X119300145Y-144267098D01*
X119300145Y-143608619D01*
X119298818Y-143598531D01*
X119294835Y-143589424D01*
X119288910Y-143581996D01*
X119280695Y-143575461D01*
X119271499Y-143571638D01*
X119262288Y-143570517D01*
X119210508Y-143570517D01*
X119200420Y-143571845D01*
X119191313Y-143575827D01*
X119183886Y-143581752D01*
X119177489Y-143589967D01*
X119173748Y-143599163D01*
X119172650Y-143608375D01*
X119172650Y-143651850D01*
X119164598Y-143641741D01*
X119158088Y-143634434D01*
X119151174Y-143627364D01*
X119143857Y-143620529D01*
X119136136Y-143613931D01*
X119128012Y-143607569D01*
X119119484Y-143601443D01*
X119110552Y-143595554D01*
X119101217Y-143589900D01*
X119091478Y-143584483D01*
X119088142Y-143582729D01*
X119077807Y-143577753D01*
X119067042Y-143573267D01*
X119055848Y-143569270D01*
X119044225Y-143565762D01*
X119032172Y-143562744D01*
X119019690Y-143560215D01*
X119006778Y-143558176D01*
X118993437Y-143556626D01*
X118979667Y-143555565D01*
X118965468Y-143554994D01*
X118955763Y-143554885D01*
X118944818Y-143555035D01*
X118934025Y-143555485D01*
X118923385Y-143556234D01*
X118912898Y-143557282D01*
X118902564Y-143558630D01*
X118892382Y-143560278D01*
X118882353Y-143562225D01*
X118872476Y-143564472D01*
X118862752Y-143567018D01*
X118853181Y-143569864D01*
X118843762Y-143573010D01*
X118834496Y-143576455D01*
X118825383Y-143580200D01*
X118816422Y-143584244D01*
X118807614Y-143588588D01*
X118798959Y-143593232D01*
X118790498Y-143598125D01*
X118778251Y-143605955D01*
X118766536Y-143614374D01*
X118755353Y-143623381D01*
X118744703Y-143632975D01*
X118734585Y-143643159D01*
X118724999Y-143653930D01*
X118715946Y-143665289D01*
X118707425Y-143677237D01*
X118702040Y-143685529D01*
X118696892Y-143694082D01*
X118691981Y-143702897D01*
X118687307Y-143711915D01*
X118682936Y-143721139D01*
X118678866Y-143730569D01*
X118675097Y-143740205D01*
X118671630Y-143750047D01*
X118668465Y-143760095D01*
X118665600Y-143770350D01*
X118663038Y-143780810D01*
X118660777Y-143791477D01*
X118658817Y-143802349D01*
X118657159Y-143813428D01*
X118655802Y-143824713D01*
X118654747Y-143836204D01*
X118653993Y-143847901D01*
X118653541Y-143859804D01*
X118653390Y-143871913D01*
X118653390Y-144267098D01*
G37*
G36*
X118260892Y-144057781D02*
G01*
X118260677Y-144068936D01*
X118260033Y-144079592D01*
X118258960Y-144089750D01*
X118257457Y-144099410D01*
X118254786Y-144111515D01*
X118251351Y-144122735D01*
X118247153Y-144133069D01*
X118242192Y-144142518D01*
X118236468Y-144151082D01*
X118229614Y-144158696D01*
X118221386Y-144165294D01*
X118211784Y-144170877D01*
X118200808Y-144175445D01*
X118188459Y-144178998D01*
X118178295Y-144180997D01*
X118167358Y-144182425D01*
X118155649Y-144183281D01*
X118143167Y-144183567D01*
X118068917Y-144183567D01*
X118058858Y-144184923D01*
X118049837Y-144188992D01*
X118042539Y-144195046D01*
X118036142Y-144203261D01*
X118032401Y-144212457D01*
X118031304Y-144221668D01*
X118031304Y-144267098D01*
X118032631Y-144277215D01*
X118036614Y-144286408D01*
X118042539Y-144293964D01*
X118050615Y-144300361D01*
X118059729Y-144304102D01*
X118068917Y-144305200D01*
X118157089Y-144305200D01*
X118171740Y-144304954D01*
X118185898Y-144304219D01*
X118199561Y-144302993D01*
X118212730Y-144301276D01*
X118225405Y-144299070D01*
X118237586Y-144296372D01*
X118249272Y-144293185D01*
X118260464Y-144289507D01*
X118271162Y-144285339D01*
X118281366Y-144280680D01*
X118291076Y-144275531D01*
X118300291Y-144269891D01*
X118309013Y-144263761D01*
X118317239Y-144257141D01*
X118324972Y-144250030D01*
X118332211Y-144242429D01*
X118338984Y-144234324D01*
X118345320Y-144225763D01*
X118351219Y-144216746D01*
X118356681Y-144207273D01*
X118361706Y-144197344D01*
X118366294Y-144186959D01*
X118370445Y-144176118D01*
X118374160Y-144164821D01*
X118377437Y-144153068D01*
X118380277Y-144140858D01*
X118382680Y-144128193D01*
X118384647Y-144115072D01*
X118386176Y-144101494D01*
X118387268Y-144087461D01*
X118387924Y-144072971D01*
X118388142Y-144058026D01*
X118388142Y-143692150D01*
X118491701Y-143692150D01*
X118501790Y-143690822D01*
X118510896Y-143686840D01*
X118518324Y-143680915D01*
X118524720Y-143672561D01*
X118528462Y-143663284D01*
X118529559Y-143654048D01*
X118529559Y-143608619D01*
X118528231Y-143598531D01*
X118524249Y-143589424D01*
X118518324Y-143581996D01*
X118510109Y-143575461D01*
X118500913Y-143571638D01*
X118491701Y-143570517D01*
X118388142Y-143570517D01*
X118388142Y-143342638D01*
X118386815Y-143332550D01*
X118382832Y-143323443D01*
X118376907Y-143316016D01*
X118368692Y-143309619D01*
X118359496Y-143305878D01*
X118350285Y-143304781D01*
X118298505Y-143304781D01*
X118288446Y-143306108D01*
X118279426Y-143310091D01*
X118272127Y-143316016D01*
X118265730Y-143324231D01*
X118261989Y-143333427D01*
X118260892Y-143342638D01*
X118260892Y-143570517D01*
X118083083Y-143570517D01*
X118072995Y-143571873D01*
X118063888Y-143575943D01*
X118056461Y-143581996D01*
X118050064Y-143590211D01*
X118046323Y-143599407D01*
X118045225Y-143608619D01*
X118045225Y-143654048D01*
X118046553Y-143664165D01*
X118050536Y-143673359D01*
X118056461Y-143680915D01*
X118064675Y-143687311D01*
X118073872Y-143691053D01*
X118083083Y-143692150D01*
X118260892Y-143692150D01*
X118260892Y-144057781D01*
G37*
G36*
X117521813Y-143570517D02*
G01*
X117511725Y-143571873D01*
X117502618Y-143575943D01*
X117495191Y-143581996D01*
X117488794Y-143590211D01*
X117485053Y-143599407D01*
X117483955Y-143608619D01*
X117483955Y-143654048D01*
X117485283Y-143664165D01*
X117489266Y-143673359D01*
X117495191Y-143680915D01*
X117503405Y-143687311D01*
X117512601Y-143691053D01*
X117521813Y-143692150D01*
X117602902Y-143692150D01*
X117617276Y-143692517D01*
X117630997Y-143693618D01*
X117644066Y-143695454D01*
X117656482Y-143698023D01*
X117668246Y-143701327D01*
X117679357Y-143705365D01*
X117689816Y-143710137D01*
X117699622Y-143715643D01*
X117708775Y-143721883D01*
X117717276Y-143728858D01*
X117722581Y-143733915D01*
X117729957Y-143742031D01*
X117736608Y-143750808D01*
X117742534Y-143760246D01*
X117747734Y-143770346D01*
X117752208Y-143781106D01*
X117755957Y-143792528D01*
X117758980Y-143804611D01*
X117761278Y-143817355D01*
X117762850Y-143830760D01*
X117763696Y-143844827D01*
X117763858Y-143854571D01*
X117763858Y-144267098D01*
X117765185Y-144277215D01*
X117769168Y-144286408D01*
X117775093Y-144293964D01*
X117783308Y-144300361D01*
X117792504Y-144304102D01*
X117801715Y-144305200D01*
X117853495Y-144305200D01*
X117863583Y-144303872D01*
X117872690Y-144299889D01*
X117880117Y-144293964D01*
X117886514Y-144285610D01*
X117890255Y-144276333D01*
X117891352Y-144267098D01*
X117891352Y-143608619D01*
X117890025Y-143598531D01*
X117886042Y-143589424D01*
X117880117Y-143581996D01*
X117871902Y-143575461D01*
X117862706Y-143571638D01*
X117853495Y-143570517D01*
X117801715Y-143570517D01*
X117791627Y-143571873D01*
X117782520Y-143575943D01*
X117775093Y-143581996D01*
X117768696Y-143590379D01*
X117764955Y-143599743D01*
X117763858Y-143609107D01*
X117763858Y-143653315D01*
X117756721Y-143642985D01*
X117749234Y-143633364D01*
X117741395Y-143624453D01*
X117733205Y-143616251D01*
X117724664Y-143608760D01*
X117715772Y-143601979D01*
X117706529Y-143595907D01*
X117696935Y-143590545D01*
X117686734Y-143585851D01*
X117675793Y-143581783D01*
X117664111Y-143578340D01*
X117651689Y-143575524D01*
X117641887Y-143573822D01*
X117631668Y-143572473D01*
X117621033Y-143571475D01*
X117609981Y-143570830D01*
X117598513Y-143570537D01*
X117594597Y-143570517D01*
X117521813Y-143570517D01*
G37*
G36*
X117082735Y-143555221D02*
G01*
X117100410Y-143556229D01*
X117117616Y-143557908D01*
X117134352Y-143560259D01*
X117150619Y-143563281D01*
X117166417Y-143566975D01*
X117181745Y-143571341D01*
X117196604Y-143576379D01*
X117210993Y-143582088D01*
X117224913Y-143588469D01*
X117238363Y-143595521D01*
X117251345Y-143603246D01*
X117263856Y-143611641D01*
X117275899Y-143620709D01*
X117287472Y-143630448D01*
X117298575Y-143640859D01*
X117309119Y-143651805D01*
X117319072Y-143663211D01*
X117328437Y-143675077D01*
X117337211Y-143687402D01*
X117345396Y-143700188D01*
X117352992Y-143713433D01*
X117359997Y-143727139D01*
X117366414Y-143741304D01*
X117372240Y-143755929D01*
X117377477Y-143771014D01*
X117382124Y-143786558D01*
X117386182Y-143802563D01*
X117389650Y-143819027D01*
X117392528Y-143835952D01*
X117394817Y-143853336D01*
X117396516Y-143871180D01*
X117396592Y-143872193D01*
X117397107Y-143882890D01*
X117397393Y-143893938D01*
X117397566Y-143905126D01*
X117397661Y-143915373D01*
X117397719Y-143926772D01*
X117397738Y-143939324D01*
X117397719Y-143951189D01*
X117397661Y-143961993D01*
X117397536Y-143974005D01*
X117397351Y-143984361D01*
X117397051Y-143994599D01*
X117396516Y-144004537D01*
X117394643Y-144022382D01*
X117392196Y-144039769D01*
X117389178Y-144056698D01*
X117385587Y-144073169D01*
X117381423Y-144089182D01*
X117376687Y-144104737D01*
X117371379Y-144119834D01*
X117365498Y-144134474D01*
X117359044Y-144148655D01*
X117352018Y-144162378D01*
X117344420Y-144175644D01*
X117336250Y-144188451D01*
X117327506Y-144200801D01*
X117318191Y-144212693D01*
X117308303Y-144224126D01*
X117297842Y-144235102D01*
X117286828Y-144245483D01*
X117275338Y-144255195D01*
X117263373Y-144264236D01*
X117250932Y-144272608D01*
X117238017Y-144280311D01*
X117224627Y-144287343D01*
X117210761Y-144293706D01*
X117196421Y-144299399D01*
X117181605Y-144304422D01*
X117166314Y-144308775D01*
X117150548Y-144312459D01*
X117134306Y-144315473D01*
X117117590Y-144317817D01*
X117100399Y-144319492D01*
X117082732Y-144320496D01*
X117064590Y-144320831D01*
X117046450Y-144320496D01*
X117028786Y-144319492D01*
X117011599Y-144317817D01*
X116994890Y-144315473D01*
X116978657Y-144312459D01*
X116962901Y-144308775D01*
X116947623Y-144304422D01*
X116932821Y-144299399D01*
X116918497Y-144293706D01*
X116904650Y-144287343D01*
X116891279Y-144280311D01*
X116878386Y-144272608D01*
X116865969Y-144264236D01*
X116854030Y-144255195D01*
X116842568Y-144245483D01*
X116831583Y-144235102D01*
X116821094Y-144224126D01*
X116811181Y-144212693D01*
X116801844Y-144200801D01*
X116793084Y-144188451D01*
X116784900Y-144175644D01*
X116777292Y-144162378D01*
X116770261Y-144148655D01*
X116763805Y-144134474D01*
X116757926Y-144119834D01*
X116752624Y-144104737D01*
X116747897Y-144089182D01*
X116743747Y-144073169D01*
X116740173Y-144056698D01*
X116737175Y-144039769D01*
X116734754Y-144022382D01*
X116732909Y-144004537D01*
X116732554Y-144000618D01*
X116731767Y-143990730D01*
X116731123Y-143980711D01*
X116730622Y-143970561D01*
X116730264Y-143960280D01*
X116730049Y-143949867D01*
X116729978Y-143939324D01*
X116857472Y-143939324D01*
X116857483Y-143942699D01*
X116857640Y-143953032D01*
X116857987Y-143963674D01*
X116858522Y-143974624D01*
X116859246Y-143985884D01*
X116860159Y-143997454D01*
X116860735Y-144003098D01*
X116862136Y-144014178D01*
X116863868Y-144024982D01*
X116865933Y-144035509D01*
X116868329Y-144045760D01*
X116871058Y-144055734D01*
X116874119Y-144065431D01*
X116877511Y-144074852D01*
X116881236Y-144083995D01*
X116887446Y-144097192D01*
X116894402Y-144109767D01*
X116902106Y-144121719D01*
X116910557Y-144133048D01*
X116919754Y-144143755D01*
X116922987Y-144147166D01*
X116933184Y-144156749D01*
X116944133Y-144165358D01*
X116955833Y-144172993D01*
X116968284Y-144179652D01*
X116981487Y-144185337D01*
X116990706Y-144188586D01*
X117000259Y-144191401D01*
X117010146Y-144193784D01*
X117020367Y-144195733D01*
X117030922Y-144197249D01*
X117041811Y-144198332D01*
X117053034Y-144198982D01*
X117064590Y-144199198D01*
X117076148Y-144198982D01*
X117087374Y-144198332D01*
X117098267Y-144197249D01*
X117108829Y-144195733D01*
X117119058Y-144193784D01*
X117128956Y-144191401D01*
X117138522Y-144188586D01*
X117152247Y-144183551D01*
X117165226Y-144177541D01*
X117177458Y-144170556D01*
X117188942Y-144162597D01*
X117199680Y-144153663D01*
X117209671Y-144143755D01*
X117215885Y-144136686D01*
X117224579Y-144125564D01*
X117232523Y-144113820D01*
X117239715Y-144101453D01*
X117246155Y-144088464D01*
X117250032Y-144079458D01*
X117253574Y-144070176D01*
X117256783Y-144060617D01*
X117259657Y-144050781D01*
X117262198Y-144040669D01*
X117264405Y-144030280D01*
X117266278Y-144019615D01*
X117267817Y-144008672D01*
X117269022Y-143997454D01*
X117269444Y-143991913D01*
X117269915Y-143981952D01*
X117270207Y-143971367D01*
X117270371Y-143961104D01*
X117270464Y-143949528D01*
X117270487Y-143939324D01*
X117270474Y-143931317D01*
X117270417Y-143921375D01*
X117270281Y-143910129D01*
X117270023Y-143898365D01*
X117269663Y-143888491D01*
X117269022Y-143878263D01*
X117268461Y-143872619D01*
X117267089Y-143861538D01*
X117265383Y-143850734D01*
X117263343Y-143840207D01*
X117260970Y-143829957D01*
X117258262Y-143819983D01*
X117255220Y-143810285D01*
X117251845Y-143800865D01*
X117248135Y-143791721D01*
X117241945Y-143778524D01*
X117235003Y-143765950D01*
X117227311Y-143753998D01*
X117218866Y-143742668D01*
X117209671Y-143731962D01*
X117206423Y-143728550D01*
X117196184Y-143718967D01*
X117185197Y-143710358D01*
X117173464Y-143702724D01*
X117160983Y-143696064D01*
X117147755Y-143690379D01*
X117138522Y-143687131D01*
X117128956Y-143684315D01*
X117119058Y-143681933D01*
X117108829Y-143679984D01*
X117098267Y-143678468D01*
X117087374Y-143677385D01*
X117076148Y-143676735D01*
X117064590Y-143676518D01*
X117053034Y-143676735D01*
X117041811Y-143677385D01*
X117030922Y-143678468D01*
X117020367Y-143679984D01*
X117010146Y-143681933D01*
X117000259Y-143684315D01*
X116990706Y-143687131D01*
X116977002Y-143692166D01*
X116964050Y-143698176D01*
X116951849Y-143705160D01*
X116940400Y-143713120D01*
X116929701Y-143722053D01*
X116919754Y-143731962D01*
X116913540Y-143739030D01*
X116904840Y-143750152D01*
X116896887Y-143761897D01*
X116889682Y-143774263D01*
X116883223Y-143787253D01*
X116879332Y-143796258D01*
X116875774Y-143805541D01*
X116872547Y-143815100D01*
X116869652Y-143824935D01*
X116867090Y-143835047D01*
X116864859Y-143845436D01*
X116862960Y-143856102D01*
X116861394Y-143867044D01*
X116860159Y-143878263D01*
X116859529Y-143886644D01*
X116858860Y-143896819D01*
X116858323Y-143906660D01*
X116857850Y-143918029D01*
X116857567Y-143928917D01*
X116857472Y-143939324D01*
X116729978Y-143939324D01*
X116729989Y-143934736D01*
X116730118Y-143923457D01*
X116730390Y-143912453D01*
X116730805Y-143901723D01*
X116731363Y-143891268D01*
X116732064Y-143881087D01*
X116732909Y-143871180D01*
X116734608Y-143853336D01*
X116736897Y-143835952D01*
X116739775Y-143819027D01*
X116743243Y-143802563D01*
X116747301Y-143786558D01*
X116751948Y-143771014D01*
X116757185Y-143755929D01*
X116763012Y-143741304D01*
X116769428Y-143727139D01*
X116776433Y-143713433D01*
X116784029Y-143700188D01*
X116792214Y-143687402D01*
X116800988Y-143675077D01*
X116810353Y-143663211D01*
X116820307Y-143651805D01*
X116830850Y-143640859D01*
X116841924Y-143630448D01*
X116853469Y-143620709D01*
X116865486Y-143611641D01*
X116877974Y-143603246D01*
X116890933Y-143595521D01*
X116904363Y-143588469D01*
X116918265Y-143582088D01*
X116932638Y-143576379D01*
X116947483Y-143571341D01*
X116962798Y-143566975D01*
X116978585Y-143563281D01*
X116994844Y-143560259D01*
X117011574Y-143557908D01*
X117028775Y-143556229D01*
X117046447Y-143555221D01*
X117064590Y-143554885D01*
X117082735Y-143555221D01*
G37*
G36*
X116428338Y-144267098D02*
G01*
X116429665Y-144277325D01*
X116433648Y-144286513D01*
X116439573Y-144293964D01*
X116447788Y-144300361D01*
X116456984Y-144304102D01*
X116466195Y-144305200D01*
X116517975Y-144305200D01*
X116528063Y-144303872D01*
X116537170Y-144299889D01*
X116544597Y-144293964D01*
X116550994Y-144285721D01*
X116554735Y-144276438D01*
X116555833Y-144267098D01*
X116555833Y-143342883D01*
X116554505Y-143332655D01*
X116550522Y-143323467D01*
X116544597Y-143316016D01*
X116536383Y-143309619D01*
X116527187Y-143305878D01*
X116517975Y-143304781D01*
X116466195Y-143304781D01*
X116456107Y-143306108D01*
X116447000Y-143310091D01*
X116439573Y-143316016D01*
X116433176Y-143324260D01*
X116429435Y-143333542D01*
X116428338Y-143342883D01*
X116428338Y-144267098D01*
G37*
G36*
X116091283Y-144267098D02*
G01*
X116092610Y-144277325D01*
X116096593Y-144286513D01*
X116102518Y-144293964D01*
X116110733Y-144300361D01*
X116119929Y-144304102D01*
X116129140Y-144305200D01*
X116180920Y-144305200D01*
X116191008Y-144303872D01*
X116200115Y-144299889D01*
X116207542Y-144293964D01*
X116213939Y-144285721D01*
X116217680Y-144276438D01*
X116218777Y-144267098D01*
X116218777Y-143342883D01*
X116217450Y-143332655D01*
X116213467Y-143323467D01*
X116207542Y-143316016D01*
X116199327Y-143309619D01*
X116190131Y-143305878D01*
X116180920Y-143304781D01*
X116129140Y-143304781D01*
X116119052Y-143306108D01*
X116109945Y-143310091D01*
X116102518Y-143316016D01*
X116096121Y-143324260D01*
X116092380Y-143333542D01*
X116091283Y-143342883D01*
X116091283Y-144267098D01*
G37*
G36*
X115606040Y-143555048D02*
G01*
X115617173Y-143555534D01*
X115628136Y-143556345D01*
X115638930Y-143557481D01*
X115649553Y-143558940D01*
X115660007Y-143560724D01*
X115670291Y-143562833D01*
X115680405Y-143565266D01*
X115690349Y-143568023D01*
X115700124Y-143571105D01*
X115709729Y-143574511D01*
X115719163Y-143578241D01*
X115728428Y-143582296D01*
X115737524Y-143586675D01*
X115746449Y-143591379D01*
X115755205Y-143596407D01*
X115763736Y-143601684D01*
X115772050Y-143607195D01*
X115780146Y-143612942D01*
X115788025Y-143618923D01*
X115795686Y-143625139D01*
X115803130Y-143631589D01*
X115810356Y-143638274D01*
X115817364Y-143645194D01*
X115824155Y-143652349D01*
X115830729Y-143659738D01*
X115837085Y-143667362D01*
X115843224Y-143675221D01*
X115849145Y-143683314D01*
X115854848Y-143691642D01*
X115860334Y-143700205D01*
X115865602Y-143709003D01*
X115870634Y-143717984D01*
X115875410Y-143727100D01*
X115879931Y-143736348D01*
X115884195Y-143745731D01*
X115888204Y-143755247D01*
X115891958Y-143764896D01*
X115895455Y-143774679D01*
X115898697Y-143784596D01*
X115901683Y-143794646D01*
X115904414Y-143804830D01*
X115906889Y-143815147D01*
X115909108Y-143825598D01*
X115911072Y-143836183D01*
X115912779Y-143846901D01*
X115914231Y-143857752D01*
X115915428Y-143868738D01*
X115916058Y-143879171D01*
X115916727Y-143891333D01*
X115917264Y-143902517D01*
X115917671Y-143912724D01*
X115917986Y-143923680D01*
X115918115Y-143934683D01*
X115918112Y-143936123D01*
X115917947Y-143947307D01*
X115917600Y-143958439D01*
X115917167Y-143968803D01*
X115916603Y-143980158D01*
X115916058Y-143989954D01*
X115915428Y-144000384D01*
X115914231Y-144011731D01*
X115912779Y-144022935D01*
X115911072Y-144033995D01*
X115909108Y-144044913D01*
X115906889Y-144055687D01*
X115904414Y-144066319D01*
X115901683Y-144076807D01*
X115898697Y-144087152D01*
X115895455Y-144097354D01*
X115891958Y-144107412D01*
X115888204Y-144117328D01*
X115884195Y-144127101D01*
X115879931Y-144136730D01*
X115875410Y-144146216D01*
X115870634Y-144155560D01*
X115865602Y-144164760D01*
X115860331Y-144173765D01*
X115854837Y-144182525D01*
X115849119Y-144191038D01*
X115843178Y-144199305D01*
X115837013Y-144207326D01*
X115830626Y-144215101D01*
X115824015Y-144222629D01*
X115817181Y-144229912D01*
X115810124Y-144236948D01*
X115802843Y-144243738D01*
X115795340Y-144250282D01*
X115787612Y-144256580D01*
X115779662Y-144262632D01*
X115771489Y-144268437D01*
X115763092Y-144273997D01*
X115754472Y-144279310D01*
X115745633Y-144284338D01*
X115736642Y-144289041D01*
X115727498Y-144293421D01*
X115718202Y-144297475D01*
X115708753Y-144301206D01*
X115699151Y-144304612D01*
X115689396Y-144307693D01*
X115679489Y-144310451D01*
X115669429Y-144312884D01*
X115659217Y-144314992D01*
X115648852Y-144316776D01*
X115638334Y-144318236D01*
X115627664Y-144319371D01*
X115616841Y-144320182D01*
X115605865Y-144320669D01*
X115594737Y-144320831D01*
X115583298Y-144320724D01*
X115572061Y-144320404D01*
X115561026Y-144319869D01*
X115550193Y-144319121D01*
X115539563Y-144318160D01*
X115529135Y-144316984D01*
X115518909Y-144315595D01*
X115508886Y-144313992D01*
X115499064Y-144312176D01*
X115489445Y-144310145D01*
X115475396Y-144306699D01*
X115461802Y-144302772D01*
X115448663Y-144298365D01*
X115435979Y-144293476D01*
X115427766Y-144289977D01*
X115415899Y-144284547D01*
X115404579Y-144278898D01*
X115393803Y-144273029D01*
X115383573Y-144266942D01*
X115373888Y-144260636D01*
X115364748Y-144254111D01*
X115356153Y-144247367D01*
X115348104Y-144240404D01*
X115340600Y-144233222D01*
X115333641Y-144225821D01*
X115327219Y-144218284D01*
X115319478Y-144208294D01*
X115312675Y-144198374D01*
X115306812Y-144188522D01*
X115301887Y-144178739D01*
X115297901Y-144169025D01*
X115294853Y-144159379D01*
X115292364Y-144147419D01*
X115292689Y-144138078D01*
X115295911Y-144128796D01*
X115302134Y-144120552D01*
X115310522Y-144114155D01*
X115320238Y-144110414D01*
X115330222Y-144109317D01*
X115372232Y-144109317D01*
X115376885Y-144109418D01*
X115386789Y-144110489D01*
X115396656Y-144113469D01*
X115401312Y-144115988D01*
X115409464Y-144121969D01*
X115416928Y-144128856D01*
X115424744Y-144137042D01*
X115432804Y-144144747D01*
X115441108Y-144151971D01*
X115449657Y-144158715D01*
X115458449Y-144164977D01*
X115467486Y-144170759D01*
X115476768Y-144176060D01*
X115486293Y-144180880D01*
X115491210Y-144183098D01*
X115501789Y-144187105D01*
X115513360Y-144190540D01*
X115525923Y-144193402D01*
X115535997Y-144195173D01*
X115546629Y-144196622D01*
X115557819Y-144197749D01*
X115569567Y-144198554D01*
X115581873Y-144199037D01*
X115594737Y-144199198D01*
X115605300Y-144198992D01*
X115615616Y-144198374D01*
X115625686Y-144197343D01*
X115635510Y-144195901D01*
X115649785Y-144192964D01*
X115663506Y-144189100D01*
X115676673Y-144184309D01*
X115689286Y-144178590D01*
X115701345Y-144171944D01*
X115712850Y-144164371D01*
X115723802Y-144155870D01*
X115734200Y-144146442D01*
X115737508Y-144143105D01*
X115746839Y-144132630D01*
X115755277Y-144121456D01*
X115762822Y-144109581D01*
X115769474Y-144097007D01*
X115775232Y-144083732D01*
X115778576Y-144074494D01*
X115781522Y-144064945D01*
X115784071Y-144055084D01*
X115786223Y-144044913D01*
X115787979Y-144034431D01*
X115789337Y-144023637D01*
X115790299Y-144012533D01*
X115790864Y-144001117D01*
X115790864Y-143992569D01*
X115309217Y-143992569D01*
X115300006Y-143991471D01*
X115290809Y-143987730D01*
X115282595Y-143981333D01*
X115276670Y-143973730D01*
X115272687Y-143964373D01*
X115271359Y-143953978D01*
X115271359Y-143915632D01*
X115271444Y-143905274D01*
X115271699Y-143895053D01*
X115272124Y-143884968D01*
X115272718Y-143875019D01*
X115273074Y-143870936D01*
X115397389Y-143870936D01*
X115790864Y-143870936D01*
X115790718Y-143865534D01*
X115790104Y-143854924D01*
X115789058Y-143844575D01*
X115787581Y-143834484D01*
X115785673Y-143824654D01*
X115783334Y-143815082D01*
X115779016Y-143801212D01*
X115773728Y-143787926D01*
X115767470Y-143775223D01*
X115760242Y-143763104D01*
X115752043Y-143751570D01*
X115742874Y-143740619D01*
X115732734Y-143730252D01*
X115729154Y-143726946D01*
X115718129Y-143717658D01*
X115706680Y-143709315D01*
X115694805Y-143701916D01*
X115682505Y-143695462D01*
X115669781Y-143689952D01*
X115656631Y-143685387D01*
X115643056Y-143681766D01*
X115629056Y-143679090D01*
X115614631Y-143677358D01*
X115604779Y-143676728D01*
X115594737Y-143676518D01*
X115589170Y-143676569D01*
X115578246Y-143676974D01*
X115567602Y-143677783D01*
X115557239Y-143678996D01*
X115547156Y-143680614D01*
X115537354Y-143682637D01*
X115523177Y-143686429D01*
X115509631Y-143691132D01*
X115496715Y-143696745D01*
X115484432Y-143703268D01*
X115472779Y-143710701D01*
X115461757Y-143719044D01*
X115451366Y-143728298D01*
X115448046Y-143731568D01*
X115438715Y-143741788D01*
X115430334Y-143752623D01*
X115422902Y-143764071D01*
X115416418Y-143776133D01*
X115410883Y-143788809D01*
X115406297Y-143802099D01*
X115402660Y-143816003D01*
X115400762Y-143825613D01*
X115399286Y-143835497D01*
X115398232Y-143845653D01*
X115397600Y-143856082D01*
X115397389Y-143866784D01*
X115397389Y-143870936D01*
X115273074Y-143870936D01*
X115274416Y-143855531D01*
X115276794Y-143836589D01*
X115279851Y-143818193D01*
X115283587Y-143800342D01*
X115288002Y-143783037D01*
X115293097Y-143766278D01*
X115298871Y-143750064D01*
X115305324Y-143734396D01*
X115312457Y-143719274D01*
X115320269Y-143704698D01*
X115328760Y-143690667D01*
X115337931Y-143677182D01*
X115347781Y-143664243D01*
X115358310Y-143651850D01*
X115369394Y-143640108D01*
X115380971Y-143629124D01*
X115393040Y-143618897D01*
X115405601Y-143609428D01*
X115418655Y-143600716D01*
X115432201Y-143592762D01*
X115446239Y-143585566D01*
X115460770Y-143579127D01*
X115475793Y-143573445D01*
X115491308Y-143568521D01*
X115507315Y-143564355D01*
X115523815Y-143560946D01*
X115540807Y-143558294D01*
X115558291Y-143556401D01*
X115576268Y-143555264D01*
X115594737Y-143554885D01*
X115606040Y-143555048D01*
G37*
G36*
X114732560Y-143570517D02*
G01*
X114722472Y-143571873D01*
X114713365Y-143575943D01*
X114705937Y-143581996D01*
X114699541Y-143590211D01*
X114695799Y-143599407D01*
X114694702Y-143608619D01*
X114694702Y-143654048D01*
X114696030Y-143664165D01*
X114700012Y-143673359D01*
X114705937Y-143680915D01*
X114714152Y-143687311D01*
X114723348Y-143691053D01*
X114732560Y-143692150D01*
X114813648Y-143692150D01*
X114828022Y-143692517D01*
X114841744Y-143693618D01*
X114854813Y-143695454D01*
X114867229Y-143698023D01*
X114878993Y-143701327D01*
X114890104Y-143705365D01*
X114900563Y-143710137D01*
X114910369Y-143715643D01*
X114919522Y-143721883D01*
X114928023Y-143728858D01*
X114933327Y-143733915D01*
X114940704Y-143742031D01*
X114947355Y-143750808D01*
X114953281Y-143760246D01*
X114958481Y-143770346D01*
X114962955Y-143781106D01*
X114966704Y-143792528D01*
X114969727Y-143804611D01*
X114972025Y-143817355D01*
X114973597Y-143830760D01*
X114974443Y-143844827D01*
X114974604Y-143854571D01*
X114974604Y-144267098D01*
X114975932Y-144277215D01*
X114979915Y-144286408D01*
X114985840Y-144293964D01*
X114994054Y-144300361D01*
X115003250Y-144304102D01*
X115012462Y-144305200D01*
X115064242Y-144305200D01*
X115074330Y-144303872D01*
X115083437Y-144299889D01*
X115090864Y-144293964D01*
X115097261Y-144285610D01*
X115101002Y-144276333D01*
X115102099Y-144267098D01*
X115102099Y-143608619D01*
X115100772Y-143598531D01*
X115096789Y-143589424D01*
X115090864Y-143581996D01*
X115082649Y-143575461D01*
X115073453Y-143571638D01*
X115064242Y-143570517D01*
X115012462Y-143570517D01*
X115002374Y-143571873D01*
X114993267Y-143575943D01*
X114985840Y-143581996D01*
X114979443Y-143590379D01*
X114975702Y-143599743D01*
X114974604Y-143609107D01*
X114974604Y-143653315D01*
X114967468Y-143642985D01*
X114959980Y-143633364D01*
X114952142Y-143624453D01*
X114943952Y-143616251D01*
X114935411Y-143608760D01*
X114926519Y-143601979D01*
X114917276Y-143595907D01*
X114907682Y-143590545D01*
X114897481Y-143585851D01*
X114886540Y-143581783D01*
X114874858Y-143578340D01*
X114862436Y-143575524D01*
X114852633Y-143573822D01*
X114842415Y-143572473D01*
X114831779Y-143571475D01*
X114820728Y-143570830D01*
X114809259Y-143570537D01*
X114805344Y-143570517D01*
X114732560Y-143570517D01*
G37*
G36*
X113863055Y-143570517D02*
G01*
X113852967Y-143571873D01*
X113843860Y-143575943D01*
X113836433Y-143581996D01*
X113830036Y-143590211D01*
X113826295Y-143599407D01*
X113825198Y-143608619D01*
X113825198Y-143654048D01*
X113826525Y-143664165D01*
X113830508Y-143673359D01*
X113836433Y-143680915D01*
X113844648Y-143687311D01*
X113853844Y-143691053D01*
X113863055Y-143692150D01*
X113944144Y-143692150D01*
X113958518Y-143692517D01*
X113972239Y-143693618D01*
X113985308Y-143695454D01*
X113997725Y-143698023D01*
X114009488Y-143701327D01*
X114020599Y-143705365D01*
X114031058Y-143710137D01*
X114040864Y-143715643D01*
X114050017Y-143721883D01*
X114058518Y-143728858D01*
X114063823Y-143733915D01*
X114071199Y-143742031D01*
X114077851Y-143750808D01*
X114083776Y-143760246D01*
X114088976Y-143770346D01*
X114093450Y-143781106D01*
X114097199Y-143792528D01*
X114100222Y-143804611D01*
X114102520Y-143817355D01*
X114104092Y-143830760D01*
X114104939Y-143844827D01*
X114105100Y-143854571D01*
X114105100Y-144267098D01*
X114106427Y-144277215D01*
X114110410Y-144286408D01*
X114116335Y-144293964D01*
X114124550Y-144300361D01*
X114133746Y-144304102D01*
X114142957Y-144305200D01*
X114194737Y-144305200D01*
X114204825Y-144303872D01*
X114213932Y-144299889D01*
X114221359Y-144293964D01*
X114227756Y-144285610D01*
X114231497Y-144276333D01*
X114232595Y-144267098D01*
X114232595Y-143608619D01*
X114231267Y-143598531D01*
X114227284Y-143589424D01*
X114221359Y-143581996D01*
X114213145Y-143575461D01*
X114203949Y-143571638D01*
X114194737Y-143570517D01*
X114142957Y-143570517D01*
X114132869Y-143571873D01*
X114123762Y-143575943D01*
X114116335Y-143581996D01*
X114109938Y-143590379D01*
X114106197Y-143599743D01*
X114105100Y-143609107D01*
X114105100Y-143653315D01*
X114097963Y-143642985D01*
X114090476Y-143633364D01*
X114082637Y-143624453D01*
X114074447Y-143616251D01*
X114065907Y-143608760D01*
X114057015Y-143601979D01*
X114047771Y-143595907D01*
X114038177Y-143590545D01*
X114027976Y-143585851D01*
X114017035Y-143581783D01*
X114005353Y-143578340D01*
X113992931Y-143575524D01*
X113983129Y-143573822D01*
X113972910Y-143572473D01*
X113962275Y-143571475D01*
X113951223Y-143570830D01*
X113939755Y-143570537D01*
X113935840Y-143570517D01*
X113863055Y-143570517D01*
G37*
G36*
X113428371Y-143555048D02*
G01*
X113439504Y-143555534D01*
X113450467Y-143556345D01*
X113461260Y-143557481D01*
X113471884Y-143558940D01*
X113482338Y-143560724D01*
X113492622Y-143562833D01*
X113502736Y-143565266D01*
X113512680Y-143568023D01*
X113522455Y-143571105D01*
X113532059Y-143574511D01*
X113541494Y-143578241D01*
X113550759Y-143582296D01*
X113559854Y-143586675D01*
X113568780Y-143591379D01*
X113577535Y-143596407D01*
X113586067Y-143601684D01*
X113594380Y-143607195D01*
X113602477Y-143612942D01*
X113610355Y-143618923D01*
X113618017Y-143625139D01*
X113625460Y-143631589D01*
X113632686Y-143638274D01*
X113639695Y-143645194D01*
X113646486Y-143652349D01*
X113653060Y-143659738D01*
X113659416Y-143667362D01*
X113665554Y-143675221D01*
X113671475Y-143683314D01*
X113677179Y-143691642D01*
X113682665Y-143700205D01*
X113687933Y-143709003D01*
X113692965Y-143717984D01*
X113697741Y-143727100D01*
X113702261Y-143736348D01*
X113706526Y-143745731D01*
X113710535Y-143755247D01*
X113714288Y-143764896D01*
X113717786Y-143774679D01*
X113721028Y-143784596D01*
X113724014Y-143794646D01*
X113726745Y-143804830D01*
X113729220Y-143815147D01*
X113731439Y-143825598D01*
X113733402Y-143836183D01*
X113735110Y-143846901D01*
X113736562Y-143857752D01*
X113737759Y-143868738D01*
X113738388Y-143879171D01*
X113739057Y-143891333D01*
X113739595Y-143902517D01*
X113740002Y-143912724D01*
X113740317Y-143923680D01*
X113740445Y-143934683D01*
X113740443Y-143936123D01*
X113740277Y-143947307D01*
X113739931Y-143958439D01*
X113739498Y-143968803D01*
X113738934Y-143980158D01*
X113738388Y-143989954D01*
X113737759Y-144000384D01*
X113736562Y-144011731D01*
X113735110Y-144022935D01*
X113733402Y-144033995D01*
X113731439Y-144044913D01*
X113729220Y-144055687D01*
X113726745Y-144066319D01*
X113724014Y-144076807D01*
X113721028Y-144087152D01*
X113717786Y-144097354D01*
X113714288Y-144107412D01*
X113710535Y-144117328D01*
X113706526Y-144127101D01*
X113702261Y-144136730D01*
X113697741Y-144146216D01*
X113692965Y-144155560D01*
X113687933Y-144164760D01*
X113682662Y-144173765D01*
X113677167Y-144182525D01*
X113671450Y-144191038D01*
X113665509Y-144199305D01*
X113659344Y-144207326D01*
X113652957Y-144215101D01*
X113646346Y-144222629D01*
X113639512Y-144229912D01*
X113632455Y-144236948D01*
X113625174Y-144243738D01*
X113617670Y-144250282D01*
X113609943Y-144256580D01*
X113601993Y-144262632D01*
X113593819Y-144268437D01*
X113585423Y-144273997D01*
X113576803Y-144279310D01*
X113567964Y-144284338D01*
X113558973Y-144289041D01*
X113549829Y-144293421D01*
X113540533Y-144297475D01*
X113531083Y-144301206D01*
X113521482Y-144304612D01*
X113511727Y-144307693D01*
X113501820Y-144310451D01*
X113491760Y-144312884D01*
X113481548Y-144314992D01*
X113471183Y-144316776D01*
X113460665Y-144318236D01*
X113449995Y-144319371D01*
X113439172Y-144320182D01*
X113428196Y-144320669D01*
X113417068Y-144320831D01*
X113405628Y-144320724D01*
X113394391Y-144320404D01*
X113383357Y-144319869D01*
X113372524Y-144319121D01*
X113361894Y-144318160D01*
X113351466Y-144316984D01*
X113341240Y-144315595D01*
X113331216Y-144313992D01*
X113321395Y-144312176D01*
X113311776Y-144310145D01*
X113297727Y-144306699D01*
X113284133Y-144302772D01*
X113270994Y-144298365D01*
X113258310Y-144293476D01*
X113250096Y-144289977D01*
X113238230Y-144284547D01*
X113226909Y-144278898D01*
X113216134Y-144273029D01*
X113205904Y-144266942D01*
X113196219Y-144260636D01*
X113187079Y-144254111D01*
X113178484Y-144247367D01*
X113170435Y-144240404D01*
X113162931Y-144233222D01*
X113155972Y-144225821D01*
X113149550Y-144218284D01*
X113141809Y-144208294D01*
X113135006Y-144198374D01*
X113129142Y-144188522D01*
X113124217Y-144178739D01*
X113120231Y-144169025D01*
X113117184Y-144159379D01*
X113114695Y-144147419D01*
X113115019Y-144138078D01*
X113118241Y-144128796D01*
X113124465Y-144120552D01*
X113132853Y-144114155D01*
X113142568Y-144110414D01*
X113152553Y-144109317D01*
X113194563Y-144109317D01*
X113199216Y-144109418D01*
X113209119Y-144110489D01*
X113218987Y-144113469D01*
X113223643Y-144115988D01*
X113231795Y-144121969D01*
X113239259Y-144128856D01*
X113247075Y-144137042D01*
X113255135Y-144144747D01*
X113263439Y-144151971D01*
X113271987Y-144158715D01*
X113280780Y-144164977D01*
X113289817Y-144170759D01*
X113299098Y-144176060D01*
X113308624Y-144180880D01*
X113313541Y-144183098D01*
X113324120Y-144187105D01*
X113335691Y-144190540D01*
X113348254Y-144193402D01*
X113358328Y-144195173D01*
X113368960Y-144196622D01*
X113380149Y-144197749D01*
X113391897Y-144198554D01*
X113404203Y-144199037D01*
X113417068Y-144199198D01*
X113427630Y-144198992D01*
X113437947Y-144198374D01*
X113448017Y-144197343D01*
X113457841Y-144195901D01*
X113472116Y-144192964D01*
X113485836Y-144189100D01*
X113499003Y-144184309D01*
X113511616Y-144178590D01*
X113523676Y-144171944D01*
X113535181Y-144164371D01*
X113546133Y-144155870D01*
X113556530Y-144146442D01*
X113559839Y-144143105D01*
X113569170Y-144132630D01*
X113577608Y-144121456D01*
X113585153Y-144109581D01*
X113591804Y-144097007D01*
X113597563Y-144083732D01*
X113600906Y-144074494D01*
X113603852Y-144064945D01*
X113606402Y-144055084D01*
X113608554Y-144044913D01*
X113610310Y-144034431D01*
X113611668Y-144023637D01*
X113612630Y-144012533D01*
X113613195Y-144001117D01*
X113613195Y-143992569D01*
X113131548Y-143992569D01*
X113122336Y-143991471D01*
X113113140Y-143987730D01*
X113104925Y-143981333D01*
X113099001Y-143973730D01*
X113095018Y-143964373D01*
X113093690Y-143953978D01*
X113093690Y-143915632D01*
X113093775Y-143905274D01*
X113094030Y-143895053D01*
X113094454Y-143884968D01*
X113095049Y-143875019D01*
X113095405Y-143870936D01*
X113219720Y-143870936D01*
X113613195Y-143870936D01*
X113613049Y-143865534D01*
X113612435Y-143854924D01*
X113611389Y-143844575D01*
X113609912Y-143834484D01*
X113608004Y-143824654D01*
X113605665Y-143815082D01*
X113601347Y-143801212D01*
X113596059Y-143787926D01*
X113589801Y-143775223D01*
X113582572Y-143763104D01*
X113574373Y-143751570D01*
X113565204Y-143740619D01*
X113555065Y-143730252D01*
X113551485Y-143726946D01*
X113540460Y-143717658D01*
X113529010Y-143709315D01*
X113517136Y-143701916D01*
X113504836Y-143695462D01*
X113492111Y-143689952D01*
X113478962Y-143685387D01*
X113465387Y-143681766D01*
X113451387Y-143679090D01*
X113436962Y-143677358D01*
X113427109Y-143676728D01*
X113417068Y-143676518D01*
X113411500Y-143676569D01*
X113400576Y-143676974D01*
X113389933Y-143677783D01*
X113379570Y-143678996D01*
X113369487Y-143680614D01*
X113359685Y-143682637D01*
X113345507Y-143686429D01*
X113331961Y-143691132D01*
X113319046Y-143696745D01*
X113306762Y-143703268D01*
X113295109Y-143710701D01*
X113284088Y-143719044D01*
X113273697Y-143728298D01*
X113270376Y-143731568D01*
X113261046Y-143741788D01*
X113252665Y-143752623D01*
X113245232Y-143764071D01*
X113238749Y-143776133D01*
X113233214Y-143788809D01*
X113228628Y-143802099D01*
X113224991Y-143816003D01*
X113223093Y-143825613D01*
X113221617Y-143835497D01*
X113220563Y-143845653D01*
X113219930Y-143856082D01*
X113219720Y-143866784D01*
X113219720Y-143870936D01*
X113095405Y-143870936D01*
X113096747Y-143855531D01*
X113099125Y-143836589D01*
X113102181Y-143818193D01*
X113105918Y-143800342D01*
X113110333Y-143783037D01*
X113115428Y-143766278D01*
X113121202Y-143750064D01*
X113127655Y-143734396D01*
X113134788Y-143719274D01*
X113142600Y-143704698D01*
X113151091Y-143690667D01*
X113160262Y-143677182D01*
X113170112Y-143664243D01*
X113180641Y-143651850D01*
X113191725Y-143640108D01*
X113203302Y-143629124D01*
X113215371Y-143618897D01*
X113227932Y-143609428D01*
X113240986Y-143600716D01*
X113254532Y-143592762D01*
X113268570Y-143585566D01*
X113283101Y-143579127D01*
X113298123Y-143573445D01*
X113313639Y-143568521D01*
X113329646Y-143564355D01*
X113346146Y-143560946D01*
X113363138Y-143558294D01*
X113380622Y-143556401D01*
X113398599Y-143555264D01*
X113417068Y-143554885D01*
X113428371Y-143555048D01*
G37*
G36*
X112610822Y-144305200D02*
G01*
X112600787Y-144303972D01*
X112590339Y-144299435D01*
X112582462Y-144292886D01*
X112575581Y-144283882D01*
X112570608Y-144274502D01*
X112568812Y-144270273D01*
X112290375Y-143623762D01*
X112288946Y-143613889D01*
X112288910Y-143611794D01*
X112289864Y-143601481D01*
X112293118Y-143591348D01*
X112298680Y-143582485D01*
X112305887Y-143575671D01*
X112314869Y-143571464D01*
X112322371Y-143570517D01*
X112379768Y-143570517D01*
X112389760Y-143571719D01*
X112400050Y-143576160D01*
X112407698Y-143582572D01*
X112414264Y-143591387D01*
X112418909Y-143600570D01*
X112420557Y-143604711D01*
X112637445Y-144120063D01*
X112854576Y-143604711D01*
X112858988Y-143594860D01*
X112864437Y-143586679D01*
X112872345Y-143579066D01*
X112881748Y-143573856D01*
X112892644Y-143571051D01*
X112900738Y-143570517D01*
X112952518Y-143570517D01*
X112962375Y-143572303D01*
X112971065Y-143577661D01*
X112976209Y-143583218D01*
X112981361Y-143591704D01*
X112984605Y-143601288D01*
X112985941Y-143611969D01*
X112985979Y-143614236D01*
X112984758Y-143624006D01*
X112706077Y-144270273D01*
X112701345Y-144280335D01*
X112695849Y-144288691D01*
X112688247Y-144296468D01*
X112679546Y-144301789D01*
X112669746Y-144304654D01*
X112662602Y-144305200D01*
X112610822Y-144305200D01*
G37*
G36*
X111419161Y-144267098D02*
G01*
X111420489Y-144277325D01*
X111424472Y-144286513D01*
X111430396Y-144293964D01*
X111438611Y-144300361D01*
X111447807Y-144304102D01*
X111457019Y-144305200D01*
X111514416Y-144305200D01*
X111524504Y-144303872D01*
X111533611Y-144299889D01*
X111541038Y-144293964D01*
X111547435Y-144285750D01*
X111551176Y-144276553D01*
X111552274Y-144267342D01*
X111552274Y-143493581D01*
X111778931Y-143665039D01*
X111787594Y-143670416D01*
X111797709Y-143673051D01*
X111802867Y-143673343D01*
X111813495Y-143671960D01*
X111822788Y-143667810D01*
X111830745Y-143660893D01*
X111832176Y-143659177D01*
X111865881Y-143615702D01*
X111870942Y-143607069D01*
X111873788Y-143597253D01*
X111874186Y-143591766D01*
X111872969Y-143582022D01*
X111868761Y-143572510D01*
X111861548Y-143564382D01*
X111858798Y-143562213D01*
X111559112Y-143331648D01*
X111550549Y-143326732D01*
X111540245Y-143323221D01*
X111529801Y-143321301D01*
X111519789Y-143320511D01*
X111514416Y-143320412D01*
X111457019Y-143320412D01*
X111446931Y-143321740D01*
X111437824Y-143325723D01*
X111430396Y-143331648D01*
X111424000Y-143339891D01*
X111420258Y-143349174D01*
X111419161Y-143358514D01*
X111419161Y-144267098D01*
G37*
G36*
X111096028Y-144133253D02*
G01*
X111085940Y-144134609D01*
X111076833Y-144138678D01*
X111069406Y-144144732D01*
X111063009Y-144152976D01*
X111059268Y-144162258D01*
X111058170Y-144171599D01*
X111058170Y-144266853D01*
X111059498Y-144277109D01*
X111063481Y-144286384D01*
X111069406Y-144293964D01*
X111077620Y-144300361D01*
X111086816Y-144304102D01*
X111096028Y-144305200D01*
X111189817Y-144305200D01*
X111199905Y-144303872D01*
X111209012Y-144299889D01*
X111216440Y-144293964D01*
X111222836Y-144285582D01*
X111226578Y-144276218D01*
X111227675Y-144266853D01*
X111227675Y-144171599D01*
X111226347Y-144161371D01*
X111222364Y-144152183D01*
X111216440Y-144144732D01*
X111208225Y-144138196D01*
X111199029Y-144134374D01*
X111189817Y-144133253D01*
X111096028Y-144133253D01*
G37*
G36*
X110537145Y-143304886D02*
G01*
X110547911Y-143305200D01*
X110558505Y-143305723D01*
X110568929Y-143306456D01*
X110579182Y-143307399D01*
X110589264Y-143308550D01*
X110599176Y-143309912D01*
X110608916Y-143311482D01*
X110627885Y-143315252D01*
X110646171Y-143319859D01*
X110663773Y-143325304D01*
X110680693Y-143331586D01*
X110696929Y-143338707D01*
X110712483Y-143346665D01*
X110727353Y-143355460D01*
X110741540Y-143365094D01*
X110755044Y-143375564D01*
X110767865Y-143386873D01*
X110780003Y-143399019D01*
X110791457Y-143412003D01*
X110802234Y-143425671D01*
X110812340Y-143439870D01*
X110821774Y-143454599D01*
X110830536Y-143469858D01*
X110838627Y-143485648D01*
X110846045Y-143501969D01*
X110852793Y-143518820D01*
X110858868Y-143536201D01*
X110864272Y-143554113D01*
X110869004Y-143572555D01*
X110873065Y-143591528D01*
X110874843Y-143601213D01*
X110876454Y-143611031D01*
X110877896Y-143620981D01*
X110879171Y-143631064D01*
X110880278Y-143641280D01*
X110881216Y-143651629D01*
X110881987Y-143662110D01*
X110882590Y-143672723D01*
X110883025Y-143683469D01*
X110883292Y-143694348D01*
X110884514Y-143812806D01*
X110883292Y-143932729D01*
X110883025Y-143943607D01*
X110882590Y-143954351D01*
X110881987Y-143964961D01*
X110881216Y-143975437D01*
X110880278Y-143985779D01*
X110879171Y-143995987D01*
X110877896Y-144006061D01*
X110876454Y-144016001D01*
X110874843Y-144025806D01*
X110873065Y-144035478D01*
X110869004Y-144054419D01*
X110864272Y-144072824D01*
X110858868Y-144090693D01*
X110852793Y-144108026D01*
X110846045Y-144124822D01*
X110838627Y-144141083D01*
X110830536Y-144156807D01*
X110821774Y-144171995D01*
X110812340Y-144186646D01*
X110802234Y-144200762D01*
X110791457Y-144214341D01*
X110780003Y-144227236D01*
X110767865Y-144239300D01*
X110755044Y-144250531D01*
X110741540Y-144260930D01*
X110727353Y-144270498D01*
X110712483Y-144279233D01*
X110696929Y-144287137D01*
X110680693Y-144294209D01*
X110663773Y-144300448D01*
X110646171Y-144305856D01*
X110627885Y-144310432D01*
X110608916Y-144314175D01*
X110599176Y-144315735D01*
X110589264Y-144317087D01*
X110579182Y-144318231D01*
X110568929Y-144319167D01*
X110558505Y-144319895D01*
X110547911Y-144320415D01*
X110537145Y-144320727D01*
X110526209Y-144320831D01*
X110515273Y-144320727D01*
X110504508Y-144320415D01*
X110493914Y-144319895D01*
X110483490Y-144319167D01*
X110473237Y-144318231D01*
X110463155Y-144317087D01*
X110453243Y-144315735D01*
X110443503Y-144314175D01*
X110424534Y-144310432D01*
X110406248Y-144305856D01*
X110388645Y-144300448D01*
X110371726Y-144294209D01*
X110355489Y-144287137D01*
X110339936Y-144279233D01*
X110325066Y-144270498D01*
X110310879Y-144260930D01*
X110297375Y-144250531D01*
X110284554Y-144239300D01*
X110272416Y-144227236D01*
X110260962Y-144214341D01*
X110250184Y-144200762D01*
X110240079Y-144186646D01*
X110230645Y-144171995D01*
X110221883Y-144156807D01*
X110213792Y-144141083D01*
X110206373Y-144124822D01*
X110199626Y-144108026D01*
X110193551Y-144090693D01*
X110188147Y-144072824D01*
X110183415Y-144054419D01*
X110179354Y-144035478D01*
X110177576Y-144025806D01*
X110175965Y-144016001D01*
X110174523Y-144006061D01*
X110173248Y-143995987D01*
X110172141Y-143985779D01*
X110171202Y-143975437D01*
X110170432Y-143964961D01*
X110169829Y-143954351D01*
X110169394Y-143943607D01*
X110169126Y-143932729D01*
X110168840Y-143921612D01*
X110168592Y-143909389D01*
X110168431Y-143899495D01*
X110168292Y-143888978D01*
X110168173Y-143877839D01*
X110168077Y-143866078D01*
X110168002Y-143853693D01*
X110167948Y-143840687D01*
X110167916Y-143827058D01*
X110167905Y-143812806D01*
X110299308Y-143812806D01*
X110299321Y-143827239D01*
X110299359Y-143841045D01*
X110299424Y-143854224D01*
X110299514Y-143866776D01*
X110299630Y-143878701D01*
X110299771Y-143890000D01*
X110299939Y-143900672D01*
X110300132Y-143910717D01*
X110300430Y-143923135D01*
X110300773Y-143934439D01*
X110301334Y-143950728D01*
X110302312Y-143966500D01*
X110303709Y-143981754D01*
X110305525Y-143996492D01*
X110307758Y-144010712D01*
X110310410Y-144024416D01*
X110313481Y-144037602D01*
X110316970Y-144050271D01*
X110320877Y-144062423D01*
X110325202Y-144074058D01*
X110329946Y-144085176D01*
X110335108Y-144095777D01*
X110340689Y-144105860D01*
X110346688Y-144115427D01*
X110353105Y-144124476D01*
X110359941Y-144133008D01*
X110367195Y-144141023D01*
X110374868Y-144148522D01*
X110382958Y-144155502D01*
X110391467Y-144161966D01*
X110400395Y-144167913D01*
X110409741Y-144173343D01*
X110419505Y-144178255D01*
X110429688Y-144182651D01*
X110440289Y-144186529D01*
X110451308Y-144189890D01*
X110462746Y-144192734D01*
X110474602Y-144195061D01*
X110486876Y-144196871D01*
X110499569Y-144198164D01*
X110512680Y-144198940D01*
X110526209Y-144199198D01*
X110539739Y-144198940D01*
X110552850Y-144198164D01*
X110565543Y-144196871D01*
X110577817Y-144195061D01*
X110589673Y-144192734D01*
X110601111Y-144189890D01*
X110612130Y-144186529D01*
X110622731Y-144182651D01*
X110632914Y-144178255D01*
X110642678Y-144173343D01*
X110652024Y-144167913D01*
X110660951Y-144161966D01*
X110669460Y-144155502D01*
X110677551Y-144148522D01*
X110685224Y-144141023D01*
X110692478Y-144133008D01*
X110699313Y-144124476D01*
X110705731Y-144115427D01*
X110711730Y-144105860D01*
X110717310Y-144095777D01*
X110722473Y-144085176D01*
X110727217Y-144074058D01*
X110731542Y-144062423D01*
X110735449Y-144050271D01*
X110738938Y-144037602D01*
X110742008Y-144024416D01*
X110744661Y-144010712D01*
X110746894Y-143996492D01*
X110748710Y-143981754D01*
X110750107Y-143966500D01*
X110751085Y-143950728D01*
X110751646Y-143934439D01*
X110753111Y-143812806D01*
X110751646Y-143692638D01*
X110751085Y-143676259D01*
X110750107Y-143660400D01*
X110748710Y-143645061D01*
X110746894Y-143630242D01*
X110744661Y-143615943D01*
X110742008Y-143602164D01*
X110738938Y-143588904D01*
X110735449Y-143576165D01*
X110731542Y-143563946D01*
X110727217Y-143552247D01*
X110722473Y-143541067D01*
X110717310Y-143530408D01*
X110711730Y-143520268D01*
X110705731Y-143510649D01*
X110699313Y-143501549D01*
X110692478Y-143492970D01*
X110685224Y-143484910D01*
X110677551Y-143477371D01*
X110669460Y-143470351D01*
X110660951Y-143463852D01*
X110652024Y-143457872D01*
X110642678Y-143452412D01*
X110632914Y-143447473D01*
X110622731Y-143443053D01*
X110612130Y-143439153D01*
X110601111Y-143435773D01*
X110589673Y-143432913D01*
X110577817Y-143430573D01*
X110565543Y-143428754D01*
X110552850Y-143427454D01*
X110539739Y-143426674D01*
X110526209Y-143426414D01*
X110512680Y-143426674D01*
X110499569Y-143427454D01*
X110486876Y-143428754D01*
X110474602Y-143430573D01*
X110462746Y-143432913D01*
X110451308Y-143435773D01*
X110440289Y-143439153D01*
X110429688Y-143443053D01*
X110419505Y-143447473D01*
X110409741Y-143452412D01*
X110400395Y-143457872D01*
X110391467Y-143463852D01*
X110382958Y-143470351D01*
X110374868Y-143477371D01*
X110367195Y-143484910D01*
X110359941Y-143492970D01*
X110353105Y-143501549D01*
X110346688Y-143510649D01*
X110340689Y-143520268D01*
X110335108Y-143530408D01*
X110329946Y-143541067D01*
X110325202Y-143552247D01*
X110320877Y-143563946D01*
X110316970Y-143576165D01*
X110313481Y-143588904D01*
X110310410Y-143602164D01*
X110307758Y-143615943D01*
X110305525Y-143630242D01*
X110303709Y-143645061D01*
X110302312Y-143660400D01*
X110301334Y-143676259D01*
X110300773Y-143692638D01*
X110300430Y-143703919D01*
X110300132Y-143716269D01*
X110299939Y-143726232D01*
X110299771Y-143736797D01*
X110299630Y-143747962D01*
X110299514Y-143759729D01*
X110299424Y-143772097D01*
X110299359Y-143785065D01*
X110299321Y-143798635D01*
X110299308Y-143812806D01*
X110167905Y-143812806D01*
X110167916Y-143798816D01*
X110167948Y-143785423D01*
X110168002Y-143772627D01*
X110168077Y-143760427D01*
X110168173Y-143748825D01*
X110168292Y-143737819D01*
X110168431Y-143727409D01*
X110168592Y-143717597D01*
X110168840Y-143705442D01*
X110169126Y-143694348D01*
X110169394Y-143683469D01*
X110169829Y-143672723D01*
X110170432Y-143662110D01*
X110171202Y-143651629D01*
X110172141Y-143641280D01*
X110173248Y-143631064D01*
X110174523Y-143620981D01*
X110175965Y-143611031D01*
X110177576Y-143601213D01*
X110179354Y-143591528D01*
X110183415Y-143572555D01*
X110188147Y-143554113D01*
X110193551Y-143536201D01*
X110199626Y-143518820D01*
X110206373Y-143501969D01*
X110213792Y-143485648D01*
X110221883Y-143469858D01*
X110230645Y-143454599D01*
X110240079Y-143439870D01*
X110250184Y-143425671D01*
X110260962Y-143412003D01*
X110272416Y-143399019D01*
X110284554Y-143386873D01*
X110297375Y-143375564D01*
X110310879Y-143365094D01*
X110325066Y-143355460D01*
X110339936Y-143346665D01*
X110355489Y-143338707D01*
X110371726Y-143331586D01*
X110388645Y-143325304D01*
X110406248Y-143319859D01*
X110424534Y-143315252D01*
X110443503Y-143311482D01*
X110453243Y-143309912D01*
X110463155Y-143308550D01*
X110473237Y-143307399D01*
X110483490Y-143306456D01*
X110493914Y-143305723D01*
X110504508Y-143305200D01*
X110515273Y-143304886D01*
X110526209Y-143304781D01*
X110537145Y-143304886D01*
G37*
G36*
X109608833Y-143945674D02*
G01*
X109619060Y-143944346D01*
X109628249Y-143940364D01*
X109635700Y-143934439D01*
X109641958Y-143926085D01*
X109645618Y-143916808D01*
X109646691Y-143907572D01*
X109646691Y-143862143D01*
X109645392Y-143852055D01*
X109641496Y-143842948D01*
X109635700Y-143835521D01*
X109627456Y-143828985D01*
X109618174Y-143825162D01*
X109608833Y-143824041D01*
X109196063Y-143824041D01*
X109185865Y-143825398D01*
X109176763Y-143829467D01*
X109169440Y-143835521D01*
X109163044Y-143843735D01*
X109159302Y-143852931D01*
X109158205Y-143862143D01*
X109158205Y-143907572D01*
X109159533Y-143917689D01*
X109163516Y-143926883D01*
X109169440Y-143934439D01*
X109177545Y-143940835D01*
X109186746Y-143944577D01*
X109196063Y-143945674D01*
X109608833Y-143945674D01*
G37*
G36*
X108289134Y-143304886D02*
G01*
X108299900Y-143305200D01*
X108310494Y-143305723D01*
X108320918Y-143306456D01*
X108331171Y-143307399D01*
X108341253Y-143308550D01*
X108351164Y-143309912D01*
X108360905Y-143311482D01*
X108379874Y-143315252D01*
X108398160Y-143319859D01*
X108415762Y-143325304D01*
X108432682Y-143331586D01*
X108448918Y-143338707D01*
X108464472Y-143346665D01*
X108479342Y-143355460D01*
X108493529Y-143365094D01*
X108507033Y-143375564D01*
X108519854Y-143386873D01*
X108531991Y-143399019D01*
X108543446Y-143412003D01*
X108554223Y-143425671D01*
X108564329Y-143439870D01*
X108573763Y-143454599D01*
X108582525Y-143469858D01*
X108590615Y-143485648D01*
X108598034Y-143501969D01*
X108604781Y-143518820D01*
X108610857Y-143536201D01*
X108616261Y-143554113D01*
X108620993Y-143572555D01*
X108625054Y-143591528D01*
X108626832Y-143601213D01*
X108628442Y-143611031D01*
X108629885Y-143620981D01*
X108631160Y-143631064D01*
X108632266Y-143641280D01*
X108633205Y-143651629D01*
X108633976Y-143662110D01*
X108634579Y-143672723D01*
X108635014Y-143683469D01*
X108635281Y-143694348D01*
X108636503Y-143812806D01*
X108635281Y-143932729D01*
X108635014Y-143943607D01*
X108634579Y-143954351D01*
X108633976Y-143964961D01*
X108633205Y-143975437D01*
X108632266Y-143985779D01*
X108631160Y-143995987D01*
X108629885Y-144006061D01*
X108628442Y-144016001D01*
X108626832Y-144025806D01*
X108625054Y-144035478D01*
X108620993Y-144054419D01*
X108616261Y-144072824D01*
X108610857Y-144090693D01*
X108604781Y-144108026D01*
X108598034Y-144124822D01*
X108590615Y-144141083D01*
X108582525Y-144156807D01*
X108573763Y-144171995D01*
X108564329Y-144186646D01*
X108554223Y-144200762D01*
X108543446Y-144214341D01*
X108531991Y-144227236D01*
X108519854Y-144239300D01*
X108507033Y-144250531D01*
X108493529Y-144260930D01*
X108479342Y-144270498D01*
X108464472Y-144279233D01*
X108448918Y-144287137D01*
X108432682Y-144294209D01*
X108415762Y-144300448D01*
X108398160Y-144305856D01*
X108379874Y-144310432D01*
X108360905Y-144314175D01*
X108351164Y-144315735D01*
X108341253Y-144317087D01*
X108331171Y-144318231D01*
X108320918Y-144319167D01*
X108310494Y-144319895D01*
X108299900Y-144320415D01*
X108289134Y-144320727D01*
X108278198Y-144320831D01*
X108267262Y-144320727D01*
X108256497Y-144320415D01*
X108245902Y-144319895D01*
X108235479Y-144319167D01*
X108225226Y-144318231D01*
X108215144Y-144317087D01*
X108205232Y-144315735D01*
X108195492Y-144314175D01*
X108176523Y-144310432D01*
X108158237Y-144305856D01*
X108140634Y-144300448D01*
X108123715Y-144294209D01*
X108107478Y-144287137D01*
X108091925Y-144279233D01*
X108077055Y-144270498D01*
X108062868Y-144260930D01*
X108049364Y-144250531D01*
X108036543Y-144239300D01*
X108024405Y-144227236D01*
X108012951Y-144214341D01*
X108002173Y-144200762D01*
X107992068Y-144186646D01*
X107982634Y-144171995D01*
X107973872Y-144156807D01*
X107965781Y-144141083D01*
X107958362Y-144124822D01*
X107951615Y-144108026D01*
X107945539Y-144090693D01*
X107940136Y-144072824D01*
X107935403Y-144054419D01*
X107931343Y-144035478D01*
X107929564Y-144025806D01*
X107927954Y-144016001D01*
X107926511Y-144006061D01*
X107925237Y-143995987D01*
X107924130Y-143985779D01*
X107923191Y-143975437D01*
X107922420Y-143964961D01*
X107921817Y-143954351D01*
X107921382Y-143943607D01*
X107921115Y-143932729D01*
X107920829Y-143921612D01*
X107920581Y-143909389D01*
X107920420Y-143899495D01*
X107920280Y-143888978D01*
X107920162Y-143877839D01*
X107920066Y-143866078D01*
X107919991Y-143853693D01*
X107919937Y-143840687D01*
X107919905Y-143827058D01*
X107919894Y-143812806D01*
X108051297Y-143812806D01*
X108051310Y-143827239D01*
X108051348Y-143841045D01*
X108051413Y-143854224D01*
X108051503Y-143866776D01*
X108051619Y-143878701D01*
X108051760Y-143890000D01*
X108051928Y-143900672D01*
X108052121Y-143910717D01*
X108052419Y-143923135D01*
X108052762Y-143934439D01*
X108053322Y-143950728D01*
X108054301Y-143966500D01*
X108055698Y-143981754D01*
X108057513Y-143996492D01*
X108059747Y-144010712D01*
X108062399Y-144024416D01*
X108065470Y-144037602D01*
X108068958Y-144050271D01*
X108072866Y-144062423D01*
X108077191Y-144074058D01*
X108081935Y-144085176D01*
X108087097Y-144095777D01*
X108092678Y-144105860D01*
X108098677Y-144115427D01*
X108105094Y-144124476D01*
X108111930Y-144133008D01*
X108119184Y-144141023D01*
X108126856Y-144148522D01*
X108134947Y-144155502D01*
X108143456Y-144161966D01*
X108152384Y-144167913D01*
X108161730Y-144173343D01*
X108171494Y-144178255D01*
X108181677Y-144182651D01*
X108192277Y-144186529D01*
X108203297Y-144189890D01*
X108214734Y-144192734D01*
X108226590Y-144195061D01*
X108238865Y-144196871D01*
X108251558Y-144198164D01*
X108264669Y-144198940D01*
X108278198Y-144199198D01*
X108291728Y-144198940D01*
X108304839Y-144198164D01*
X108317532Y-144196871D01*
X108329806Y-144195061D01*
X108341662Y-144192734D01*
X108353100Y-144189890D01*
X108364119Y-144186529D01*
X108374720Y-144182651D01*
X108384903Y-144178255D01*
X108394667Y-144173343D01*
X108404013Y-144167913D01*
X108412940Y-144161966D01*
X108421449Y-144155502D01*
X108429540Y-144148522D01*
X108437213Y-144141023D01*
X108444467Y-144133008D01*
X108451302Y-144124476D01*
X108457720Y-144115427D01*
X108463719Y-144105860D01*
X108469299Y-144095777D01*
X108474461Y-144085176D01*
X108479205Y-144074058D01*
X108483531Y-144062423D01*
X108487438Y-144050271D01*
X108490927Y-144037602D01*
X108493997Y-144024416D01*
X108496649Y-144010712D01*
X108498883Y-143996492D01*
X108500698Y-143981754D01*
X108502095Y-143966500D01*
X108503074Y-143950728D01*
X108503634Y-143934439D01*
X108505100Y-143812806D01*
X108503634Y-143692638D01*
X108503074Y-143676259D01*
X108502095Y-143660400D01*
X108500698Y-143645061D01*
X108498883Y-143630242D01*
X108496649Y-143615943D01*
X108493997Y-143602164D01*
X108490927Y-143588904D01*
X108487438Y-143576165D01*
X108483531Y-143563946D01*
X108479205Y-143552247D01*
X108474461Y-143541067D01*
X108469299Y-143530408D01*
X108463719Y-143520268D01*
X108457720Y-143510649D01*
X108451302Y-143501549D01*
X108444467Y-143492970D01*
X108437213Y-143484910D01*
X108429540Y-143477371D01*
X108421449Y-143470351D01*
X108412940Y-143463852D01*
X108404013Y-143457872D01*
X108394667Y-143452412D01*
X108384903Y-143447473D01*
X108374720Y-143443053D01*
X108364119Y-143439153D01*
X108353100Y-143435773D01*
X108341662Y-143432913D01*
X108329806Y-143430573D01*
X108317532Y-143428754D01*
X108304839Y-143427454D01*
X108291728Y-143426674D01*
X108278198Y-143426414D01*
X108264669Y-143426674D01*
X108251558Y-143427454D01*
X108238865Y-143428754D01*
X108226590Y-143430573D01*
X108214734Y-143432913D01*
X108203297Y-143435773D01*
X108192277Y-143439153D01*
X108181677Y-143443053D01*
X108171494Y-143447473D01*
X108161730Y-143452412D01*
X108152384Y-143457872D01*
X108143456Y-143463852D01*
X108134947Y-143470351D01*
X108126856Y-143477371D01*
X108119184Y-143484910D01*
X108111930Y-143492970D01*
X108105094Y-143501549D01*
X108098677Y-143510649D01*
X108092678Y-143520268D01*
X108087097Y-143530408D01*
X108081935Y-143541067D01*
X108077191Y-143552247D01*
X108072866Y-143563946D01*
X108068958Y-143576165D01*
X108065470Y-143588904D01*
X108062399Y-143602164D01*
X108059747Y-143615943D01*
X108057513Y-143630242D01*
X108055698Y-143645061D01*
X108054301Y-143660400D01*
X108053322Y-143676259D01*
X108052762Y-143692638D01*
X108052419Y-143703919D01*
X108052121Y-143716269D01*
X108051928Y-143726232D01*
X108051760Y-143736797D01*
X108051619Y-143747962D01*
X108051503Y-143759729D01*
X108051413Y-143772097D01*
X108051348Y-143785065D01*
X108051310Y-143798635D01*
X108051297Y-143812806D01*
X107919894Y-143812806D01*
X107919905Y-143798816D01*
X107919937Y-143785423D01*
X107919991Y-143772627D01*
X107920066Y-143760427D01*
X107920162Y-143748825D01*
X107920280Y-143737819D01*
X107920420Y-143727409D01*
X107920581Y-143717597D01*
X107920829Y-143705442D01*
X107921115Y-143694348D01*
X107921382Y-143683469D01*
X107921817Y-143672723D01*
X107922420Y-143662110D01*
X107923191Y-143651629D01*
X107924130Y-143641280D01*
X107925237Y-143631064D01*
X107926511Y-143620981D01*
X107927954Y-143611031D01*
X107929564Y-143601213D01*
X107931343Y-143591528D01*
X107935403Y-143572555D01*
X107940136Y-143554113D01*
X107945539Y-143536201D01*
X107951615Y-143518820D01*
X107958362Y-143501969D01*
X107965781Y-143485648D01*
X107973872Y-143469858D01*
X107982634Y-143454599D01*
X107992068Y-143439870D01*
X108002173Y-143425671D01*
X108012951Y-143412003D01*
X108024405Y-143399019D01*
X108036543Y-143386873D01*
X108049364Y-143375564D01*
X108062868Y-143365094D01*
X108077055Y-143355460D01*
X108091925Y-143346665D01*
X108107478Y-143338707D01*
X108123715Y-143331586D01*
X108140634Y-143325304D01*
X108158237Y-143319859D01*
X108176523Y-143315252D01*
X108195492Y-143311482D01*
X108205232Y-143309912D01*
X108215144Y-143308550D01*
X108225226Y-143307399D01*
X108235479Y-143306456D01*
X108245902Y-143305723D01*
X108256497Y-143305200D01*
X108267262Y-143304886D01*
X108278198Y-143304781D01*
X108289134Y-143304886D01*
G37*
G36*
X107189608Y-143320412D02*
G01*
X107179410Y-143321740D01*
X107170308Y-143325723D01*
X107162985Y-143331648D01*
X107156589Y-143339891D01*
X107152847Y-143349174D01*
X107151750Y-143358514D01*
X107151750Y-143409072D01*
X107152712Y-143420002D01*
X107155131Y-143431269D01*
X107158377Y-143442191D01*
X107161908Y-143452185D01*
X107166191Y-143462990D01*
X107167138Y-143465248D01*
X107477814Y-144271494D01*
X107482545Y-144281204D01*
X107489026Y-144290684D01*
X107496381Y-144297794D01*
X107506070Y-144303093D01*
X107516951Y-144305167D01*
X107518603Y-144305200D01*
X107582839Y-144305200D01*
X107592845Y-144303826D01*
X107602290Y-144299237D01*
X107606775Y-144295430D01*
X107612728Y-144287519D01*
X107616077Y-144277630D01*
X107616544Y-144271738D01*
X107614922Y-144261740D01*
X107612392Y-144254641D01*
X107300006Y-143442045D01*
X107759182Y-143442045D01*
X107769409Y-143440775D01*
X107778598Y-143436966D01*
X107786049Y-143431299D01*
X107792306Y-143423309D01*
X107796170Y-143413606D01*
X107797040Y-143405653D01*
X107797040Y-143356805D01*
X107795494Y-143346363D01*
X107790857Y-143337021D01*
X107786049Y-143331403D01*
X107777805Y-143325146D01*
X107768523Y-143321486D01*
X107759182Y-143320412D01*
X107189608Y-143320412D01*
G37*
G36*
X106607089Y-143237858D02*
G01*
X106602173Y-143227898D01*
X106596464Y-143219265D01*
X106589961Y-143211961D01*
X106580716Y-143204698D01*
X106570231Y-143199510D01*
X106558505Y-143196398D01*
X106548232Y-143195402D01*
X106545539Y-143195360D01*
X106499378Y-143195360D01*
X106489663Y-143197093D01*
X106481158Y-143202293D01*
X106477640Y-143205862D01*
X106472133Y-143214140D01*
X106469168Y-143223585D01*
X106468603Y-143230531D01*
X106470243Y-143240203D01*
X106471290Y-143243232D01*
X106944388Y-144387754D01*
X106949040Y-144397714D01*
X106954570Y-144406347D01*
X106962717Y-144415270D01*
X106972235Y-144422117D01*
X106983124Y-144426890D01*
X106992823Y-144429214D01*
X107003400Y-144430210D01*
X107006181Y-144430252D01*
X107048191Y-144430252D01*
X107058483Y-144428475D01*
X107067559Y-144423146D01*
X107069929Y-144420971D01*
X107075780Y-144413023D01*
X107078745Y-144403112D01*
X107078966Y-144399233D01*
X107077177Y-144389561D01*
X107076035Y-144386532D01*
X106607089Y-143237858D01*
G37*
G36*
X105925651Y-143783497D02*
G01*
X105917492Y-143775816D01*
X105909774Y-143768161D01*
X105902499Y-143760532D01*
X105895667Y-143752928D01*
X105889276Y-143745351D01*
X105881443Y-143735287D01*
X105874396Y-143725269D01*
X105868136Y-143715297D01*
X105862661Y-143705371D01*
X105861415Y-143702897D01*
X105856778Y-143692616D01*
X105852760Y-143681678D01*
X105849360Y-143670084D01*
X105846578Y-143657834D01*
X105844414Y-143644927D01*
X105843197Y-143634816D01*
X105842327Y-143624336D01*
X105841805Y-143613487D01*
X105841632Y-143602269D01*
X105841807Y-143592468D01*
X105842729Y-143578226D01*
X105844440Y-143564533D01*
X105846942Y-143551390D01*
X105850234Y-143538796D01*
X105854315Y-143526752D01*
X105859187Y-143515257D01*
X105864848Y-143504312D01*
X105871299Y-143493916D01*
X105878541Y-143484070D01*
X105886572Y-143474774D01*
X105895361Y-143466131D01*
X105904965Y-143458339D01*
X105915385Y-143451397D01*
X105926620Y-143445304D01*
X105938672Y-143440062D01*
X105951539Y-143435670D01*
X105965222Y-143432128D01*
X105979720Y-143429436D01*
X105989839Y-143428114D01*
X106000321Y-143427169D01*
X106011165Y-143426603D01*
X106022371Y-143426414D01*
X106033400Y-143426601D01*
X106044078Y-143427162D01*
X106054405Y-143428097D01*
X106064381Y-143429406D01*
X106074006Y-143431089D01*
X106087785Y-143434314D01*
X106100773Y-143438382D01*
X106112972Y-143443290D01*
X106124381Y-143449041D01*
X106135000Y-143455632D01*
X106144829Y-143463065D01*
X106153867Y-143471340D01*
X106156705Y-143474285D01*
X106164866Y-143483555D01*
X106172590Y-143493414D01*
X106179876Y-143503860D01*
X106186724Y-143514895D01*
X106193134Y-143526517D01*
X106199106Y-143538728D01*
X106204640Y-143551527D01*
X106209736Y-143564915D01*
X106212890Y-143574166D01*
X106215850Y-143583679D01*
X106218615Y-143593454D01*
X106221185Y-143603490D01*
X106224703Y-143613539D01*
X106230056Y-143622526D01*
X106235107Y-143627914D01*
X106243528Y-143633449D01*
X106252917Y-143636162D01*
X106257577Y-143636463D01*
X106321813Y-143636463D01*
X106331568Y-143634971D01*
X106340811Y-143630029D01*
X106343795Y-143627426D01*
X106349646Y-143619478D01*
X106352611Y-143609567D01*
X106352832Y-143605688D01*
X106351958Y-143592329D01*
X106350436Y-143578995D01*
X106348266Y-143565687D01*
X106345447Y-143552405D01*
X106341980Y-143539149D01*
X106337865Y-143525918D01*
X106333102Y-143512713D01*
X106327690Y-143499534D01*
X106321630Y-143486381D01*
X106317230Y-143477626D01*
X106312542Y-143468883D01*
X106310089Y-143464516D01*
X106304950Y-143455853D01*
X106299545Y-143447388D01*
X106293875Y-143439122D01*
X106287940Y-143431054D01*
X106281739Y-143423185D01*
X106275273Y-143415514D01*
X106268542Y-143408042D01*
X106261546Y-143400768D01*
X106254285Y-143393693D01*
X106246758Y-143386816D01*
X106238966Y-143380137D01*
X106230909Y-143373657D01*
X106222587Y-143367376D01*
X106213999Y-143361292D01*
X106205146Y-143355408D01*
X106196028Y-143349721D01*
X106186648Y-143344279D01*
X106177072Y-143339189D01*
X106167300Y-143334449D01*
X106157331Y-143330060D01*
X106147165Y-143326022D01*
X106136803Y-143322336D01*
X106126244Y-143319000D01*
X106115489Y-143316016D01*
X106104537Y-143313383D01*
X106093389Y-143311101D01*
X106082044Y-143309170D01*
X106070502Y-143307590D01*
X106058764Y-143306361D01*
X106046830Y-143305483D01*
X106034699Y-143304956D01*
X106022371Y-143304781D01*
X106010058Y-143304939D01*
X105997970Y-143305414D01*
X105986107Y-143306206D01*
X105974469Y-143307315D01*
X105963057Y-143308740D01*
X105951869Y-143310482D01*
X105940907Y-143312541D01*
X105930170Y-143314917D01*
X105919658Y-143317609D01*
X105909371Y-143320618D01*
X105899309Y-143323944D01*
X105889473Y-143327587D01*
X105879861Y-143331546D01*
X105870475Y-143335823D01*
X105861314Y-143340415D01*
X105852378Y-143345325D01*
X105843659Y-143350474D01*
X105835209Y-143355847D01*
X105827028Y-143361442D01*
X105819115Y-143367261D01*
X105807752Y-143376408D01*
X105796993Y-143386057D01*
X105786840Y-143396209D01*
X105777293Y-143406863D01*
X105768350Y-143418019D01*
X105760013Y-143429678D01*
X105752282Y-143441838D01*
X105745156Y-143454502D01*
X105738652Y-143467514D01*
X105732788Y-143480814D01*
X105727564Y-143494402D01*
X105722979Y-143508277D01*
X105720278Y-143517687D01*
X105717862Y-143527225D01*
X105715729Y-143536891D01*
X105713881Y-143546684D01*
X105712317Y-143556606D01*
X105711038Y-143566655D01*
X105710043Y-143576832D01*
X105709332Y-143587137D01*
X105708906Y-143597570D01*
X105708763Y-143608130D01*
X105708881Y-143619173D01*
X105709233Y-143630013D01*
X105709820Y-143640651D01*
X105710641Y-143651087D01*
X105711697Y-143661320D01*
X105712988Y-143671351D01*
X105714514Y-143681180D01*
X105716274Y-143690807D01*
X105719354Y-143704867D01*
X105722963Y-143718473D01*
X105727100Y-143731623D01*
X105731764Y-143744319D01*
X105736957Y-143756559D01*
X105738805Y-143760538D01*
X105744814Y-143772373D01*
X105751574Y-143784246D01*
X105759085Y-143796158D01*
X105767347Y-143808108D01*
X105773273Y-143816097D01*
X105779533Y-143824102D01*
X105786126Y-143832125D01*
X105793054Y-143840165D01*
X105800315Y-143848222D01*
X105807911Y-143856296D01*
X105815840Y-143864388D01*
X105824103Y-143872497D01*
X105832701Y-143880622D01*
X105841632Y-143888765D01*
X106154018Y-144183567D01*
X105725616Y-144183567D01*
X105715528Y-144184865D01*
X105706421Y-144188761D01*
X105698994Y-144194557D01*
X105692597Y-144202408D01*
X105688647Y-144212025D01*
X105687759Y-144219959D01*
X105687759Y-144268807D01*
X105689339Y-144279283D01*
X105694078Y-144288728D01*
X105698994Y-144294453D01*
X105707209Y-144300571D01*
X105716405Y-144304150D01*
X105725616Y-144305200D01*
X106328896Y-144305200D01*
X106338984Y-144303872D01*
X106348091Y-144299889D01*
X106355519Y-144293964D01*
X106361915Y-144285582D01*
X106365657Y-144276218D01*
X106366754Y-144266853D01*
X106366754Y-144215807D01*
X106366003Y-144205805D01*
X106363473Y-144196211D01*
X106360403Y-144189917D01*
X106354652Y-144181778D01*
X106347886Y-144174003D01*
X106340314Y-144166248D01*
X106335979Y-144162073D01*
X105925651Y-143783497D01*
G37*
G36*
X105199029Y-144199198D02*
G01*
X105187434Y-144199015D01*
X105176097Y-144198465D01*
X105165017Y-144197549D01*
X105154195Y-144196267D01*
X105143630Y-144194619D01*
X105133324Y-144192604D01*
X105123274Y-144190222D01*
X105113483Y-144187474D01*
X105103949Y-144184360D01*
X105094672Y-144180880D01*
X105085653Y-144177033D01*
X105072608Y-144170576D01*
X105060142Y-144163294D01*
X105048256Y-144155189D01*
X105044423Y-144152303D01*
X105033554Y-144143135D01*
X105023755Y-144133215D01*
X105015024Y-144122544D01*
X105007363Y-144111122D01*
X105000771Y-144098948D01*
X104995247Y-144086023D01*
X104990793Y-144072347D01*
X104988417Y-144062812D01*
X104986517Y-144052943D01*
X104985091Y-144042740D01*
X104984141Y-144032203D01*
X104983666Y-144021332D01*
X104983606Y-144015772D01*
X104983834Y-144004970D01*
X104984515Y-143994545D01*
X104985650Y-143984499D01*
X104987240Y-143974831D01*
X104990475Y-143961036D01*
X104994733Y-143948092D01*
X105000012Y-143935997D01*
X105006313Y-143924753D01*
X105013636Y-143914359D01*
X105021981Y-143904815D01*
X105031348Y-143896121D01*
X105041736Y-143888277D01*
X105052955Y-143881162D01*
X105064903Y-143874747D01*
X105077581Y-143869032D01*
X105090989Y-143864017D01*
X105100334Y-143861062D01*
X105110002Y-143858418D01*
X105119995Y-143856086D01*
X105130312Y-143854064D01*
X105140954Y-143852353D01*
X105151920Y-143850954D01*
X105163211Y-143849865D01*
X105174826Y-143849087D01*
X105186765Y-143848621D01*
X105199029Y-143848465D01*
X105315288Y-143848465D01*
X105325376Y-143847167D01*
X105334483Y-143843270D01*
X105341911Y-143837474D01*
X105348307Y-143829428D01*
X105352049Y-143820399D01*
X105353146Y-143811340D01*
X105353146Y-143761759D01*
X105351912Y-143751480D01*
X105348209Y-143742167D01*
X105347528Y-143740999D01*
X105342037Y-143732893D01*
X105335942Y-143725153D01*
X105330676Y-143719017D01*
X105078617Y-143442045D01*
X105481862Y-143442045D01*
X105491950Y-143440775D01*
X105501057Y-143436966D01*
X105508484Y-143431299D01*
X105514881Y-143423309D01*
X105518831Y-143413606D01*
X105519720Y-143405653D01*
X105519720Y-143356805D01*
X105518140Y-143346363D01*
X105513400Y-143337021D01*
X105508484Y-143331403D01*
X105500270Y-143325146D01*
X105491073Y-143321486D01*
X105481862Y-143320412D01*
X104930362Y-143320412D01*
X104920273Y-143321740D01*
X104911167Y-143325723D01*
X104903739Y-143331648D01*
X104897342Y-143339891D01*
X104893601Y-143349174D01*
X104892504Y-143358514D01*
X104892504Y-143409317D01*
X104894076Y-143419728D01*
X104898032Y-143429689D01*
X104903338Y-143438859D01*
X104909111Y-143446947D01*
X104916113Y-143455441D01*
X104917661Y-143457188D01*
X105165567Y-143726832D01*
X105148104Y-143727137D01*
X105131068Y-143728050D01*
X105114460Y-143729572D01*
X105098278Y-143731702D01*
X105082525Y-143734441D01*
X105067199Y-143737789D01*
X105052300Y-143741746D01*
X105037828Y-143746311D01*
X105023784Y-143751485D01*
X105010168Y-143757267D01*
X104996979Y-143763659D01*
X104984217Y-143770659D01*
X104971883Y-143778268D01*
X104959976Y-143786485D01*
X104948497Y-143795311D01*
X104937445Y-143804746D01*
X104926915Y-143814664D01*
X104917066Y-143825003D01*
X104907895Y-143835761D01*
X104899404Y-143846939D01*
X104891592Y-143858537D01*
X104884459Y-143870554D01*
X104878006Y-143882991D01*
X104872232Y-143895848D01*
X104867137Y-143909125D01*
X104862722Y-143922822D01*
X104858985Y-143936939D01*
X104855929Y-143951475D01*
X104853551Y-143966431D01*
X104851853Y-143981807D01*
X104850834Y-143997602D01*
X104850494Y-144013818D01*
X104850677Y-144025419D01*
X104851227Y-144036838D01*
X104852143Y-144048073D01*
X104853425Y-144059125D01*
X104855074Y-144069994D01*
X104857089Y-144080679D01*
X104859470Y-144091182D01*
X104862218Y-144101501D01*
X104865332Y-144111637D01*
X104868812Y-144121590D01*
X104872659Y-144131360D01*
X104876872Y-144140946D01*
X104881452Y-144150350D01*
X104886398Y-144159570D01*
X104891710Y-144168607D01*
X104897389Y-144177460D01*
X104903377Y-144186063D01*
X104909616Y-144194409D01*
X104916108Y-144202496D01*
X104922851Y-144210326D01*
X104929846Y-144217899D01*
X104937093Y-144225214D01*
X104944592Y-144232271D01*
X104952343Y-144239071D01*
X104960346Y-144245613D01*
X104968601Y-144251897D01*
X104977107Y-144257924D01*
X104985866Y-144263693D01*
X104994876Y-144269205D01*
X105004138Y-144274459D01*
X105013652Y-144279456D01*
X105023418Y-144284195D01*
X105033378Y-144288631D01*
X105043473Y-144292781D01*
X105053703Y-144296645D01*
X105064069Y-144300223D01*
X105074571Y-144303515D01*
X105085208Y-144306520D01*
X105095980Y-144309239D01*
X105106888Y-144311672D01*
X105117931Y-144313819D01*
X105129110Y-144315679D01*
X105140425Y-144317253D01*
X105151875Y-144318541D01*
X105163460Y-144319543D01*
X105175181Y-144320259D01*
X105187037Y-144320688D01*
X105199029Y-144320831D01*
X105213780Y-144320692D01*
X105228235Y-144320274D01*
X105242394Y-144319577D01*
X105256258Y-144318602D01*
X105269826Y-144317349D01*
X105283098Y-144315816D01*
X105296074Y-144314006D01*
X105308755Y-144311916D01*
X105321140Y-144309548D01*
X105333229Y-144306902D01*
X105345022Y-144303976D01*
X105356520Y-144300773D01*
X105367721Y-144297290D01*
X105378627Y-144293529D01*
X105389238Y-144289490D01*
X105399552Y-144285172D01*
X105409525Y-144280603D01*
X105419172Y-144275871D01*
X105428492Y-144270978D01*
X105437486Y-144265922D01*
X105446154Y-144260704D01*
X105454495Y-144255324D01*
X105466396Y-144246950D01*
X105477562Y-144238211D01*
X105487994Y-144229107D01*
X105497692Y-144219638D01*
X105506656Y-144209804D01*
X105514885Y-144199605D01*
X105519964Y-144192604D01*
X105526971Y-144181867D01*
X105533339Y-144170997D01*
X105539067Y-144159994D01*
X105544155Y-144148857D01*
X105548604Y-144137588D01*
X105552413Y-144126186D01*
X105555582Y-144114650D01*
X105558111Y-144102982D01*
X105560001Y-144091180D01*
X105561251Y-144079245D01*
X105561729Y-144071215D01*
X105560000Y-144060970D01*
X105554810Y-144052034D01*
X105552692Y-144049721D01*
X105544627Y-144043712D01*
X105534770Y-144040667D01*
X105530955Y-144040440D01*
X105466475Y-144040440D01*
X105456720Y-144041780D01*
X105447703Y-144046254D01*
X105443516Y-144049966D01*
X105436821Y-144057870D01*
X105431820Y-144066499D01*
X105430082Y-144070726D01*
X105426427Y-144081594D01*
X105422240Y-144092033D01*
X105417520Y-144102042D01*
X105412268Y-144111622D01*
X105406483Y-144120772D01*
X105400166Y-144129493D01*
X105393317Y-144137785D01*
X105385936Y-144145648D01*
X105378021Y-144153081D01*
X105369575Y-144160085D01*
X105363648Y-144164516D01*
X105353984Y-144170714D01*
X105343126Y-144176302D01*
X105331075Y-144181281D01*
X105317830Y-144185650D01*
X105308337Y-144188224D01*
X105298313Y-144190527D01*
X105287759Y-144192560D01*
X105276675Y-144194321D01*
X105265060Y-144195811D01*
X105252915Y-144197030D01*
X105240239Y-144197979D01*
X105227033Y-144198656D01*
X105213296Y-144199063D01*
X105199029Y-144199198D01*
G37*
D12*
%TO.C,TP4*%
X118683000Y-101346000D02*
G75*
G03*
X118683000Y-101346000I-700000J0D01*
G01*
%TO.C,TP2*%
X114111000Y-101346000D02*
G75*
G03*
X114111000Y-101346000I-700000J0D01*
G01*
%TO.C,TP3*%
X116397000Y-101346000D02*
G75*
G03*
X116397000Y-101346000I-700000J0D01*
G01*
%TD*%
M02*
