M48
; DRILL file {KiCad 7.0.1} date Thu Oct 12 07:58:31 2023
; FORMAT={-:-/ absolute / metric / decimal}
; #@! TF.CreationDate,2023-10-12T07:58:31+02:00
; #@! TF.GenerationSoftware,Kicad,Pcbnew,7.0.1
; #@! TF.FileFunction,Plated,1,4,PTH
FMAT,2
METRIC
; #@! TA.AperFunction,Plated,PTH,ViaDrill
T1C0.200
; #@! TA.AperFunction,Plated,PTH,ViaDrill
T2C0.250
; #@! TA.AperFunction,Plated,PTH,ViaDrill
T3C0.300
; #@! TA.AperFunction,Plated,PTH,ComponentDrill
T4C0.460
; #@! TA.AperFunction,Plated,PTH,ComponentDrill
T5C0.650
; #@! TA.AperFunction,Plated,PTH,ComponentDrill
T6C0.700
; #@! TA.AperFunction,Plated,PTH,ComponentDrill
T7C0.800
; #@! TA.AperFunction,Plated,PTH,ComponentDrill
T8C0.889
; #@! TA.AperFunction,Plated,PTH,ComponentDrill
T9C0.900
; #@! TA.AperFunction,Plated,PTH,ComponentDrill
T10C1.000
; #@! TA.AperFunction,Plated,PTH,ComponentDrill
T11C1.200
; #@! TA.AperFunction,Plated,PTH,ComponentDrill
T12C1.397
; #@! TA.AperFunction,Plated,PTH,ComponentDrill
T13C2.000
%
G90
G05
T1
X80.975Y-102.489
X81.788Y-102.489
X105.918Y-122.047
X111.76Y-93.98
X112.014Y-96.84
X112.078Y-99.123
X112.312Y-93.218
X113.661Y-101.092
X114.578Y-101.12
X114.937Y-100.519
X115.939Y-101.108
X116.866Y-101.117
X117.279Y-100.533
X118.319Y-100.561
T2
X70.993Y-96.342
X71.145Y-83.896
X73.603Y-104.128
X73.609Y-105.918
X76.149Y-83.896
X76.175Y-96.342
X77.597Y-110.157
X78.486Y-110.157
X80.264Y-115.367
X80.772Y-93.98
X80.772Y-96.52
X80.772Y-99.06
X80.772Y-104.14
X82.791Y-86.462
X83.312Y-93.98
X83.312Y-96.52
X83.312Y-99.06
X83.312Y-104.14
X83.705Y-86.462
X84.328Y-115.364
X84.899Y-89.713
X85.725Y-91.806
X85.852Y-93.98
X85.852Y-96.52
X85.966Y-89.713
X86.106Y-109.234
X86.525Y-86.462
X87.388Y-86.462
X88.392Y-93.98
X88.392Y-99.187
X89.027Y-107.329
X89.052Y-108.204
X89.55Y-99.5
X90.932Y-93.98
X92.456Y-98.171
X92.456Y-100.838
X93.599Y-93.472
X93.599Y-94.361
X93.599Y-98.171
X93.599Y-100.838
X93.726Y-106.426
X96.012Y-96.52
X97.79Y-109.727
X99.949Y-93.599
X99.949Y-94.488
X99.949Y-95.504
X101.219Y-93.599
X101.219Y-94.488
X103.124Y-93.599
X103.124Y-94.488
X103.429Y-125.282
X104.267Y-93.599
X104.267Y-94.488
X104.267Y-95.504
X105.918Y-115.824
X105.918Y-117.856
X106.466Y-108.204
X107.124Y-102.552
X107.315Y-119.888
X107.467Y-115.392
X107.696Y-106.426
X107.899Y-98.336
X107.899Y-99.199
X107.95Y-109.474
X108.077Y-94.894
X108.077Y-95.809
X108.077Y-121.285
X108.407Y-115.392
X108.458Y-102.87
X108.458Y-125.282
X108.674Y-118.378
X109.593Y-118.384
X110.744Y-108.966
X111.76Y-86.487
X112.395Y-113.425
X113.157Y-121.285
X113.157Y-122.936
X113.792Y-117.602
X115.062Y-113.03
X116.156Y-116.508
X116.434Y-113.03
X116.942Y-121.704
X117.348Y-86.982
X118.77Y-116.281
X118.77Y-117.907
X118.77Y-121.704
X118.872Y-86.982
X119.617Y-98.015
X120.04Y-121.704
X120.523Y-97.917
X120.76Y-100.733
X121.793Y-100.711
X122.174Y-113.03
X122.216Y-109.32
X123.168Y-103.297
X123.571Y-117.602
X124.397Y-105.537
X124.46Y-93.853
X124.46Y-95.758
X124.712Y-117.616
X124.728Y-103.305
X125.73Y-118.618
X125.73Y-122.682
X125.857Y-112.522
X126.873Y-122.682
X127.635Y-118.618
X128.524Y-105.664
X129.667Y-114.554
X130.708Y-106.274
X132.08Y-119.761
X132.563Y-111.608
X132.588Y-109.398
X132.588Y-110.49
X132.68Y-108.077
X132.842Y-97.79
X133.477Y-120.015
X133.477Y-121.285
X133.604Y-114.554
X133.604Y-117.475
X134.123Y-112.395
X134.925Y-103.988
X135.89Y-101.384
X136.481Y-103.793
X136.842Y-101.917
X138.379Y-102.108
X138.938Y-107.696
X139.192Y-109.398
X139.192Y-110.49
X139.192Y-111.608
X139.192Y-112.776
X140.081Y-108.204
X145.796Y-91.923
X145.796Y-92.786
T3
X105.842Y-81.585
X105.842Y-83.947
X105.842Y-86.309
X105.842Y-88.671
X105.842Y-91.059
X108.204Y-91.059
X110.566Y-91.059
X112.928Y-91.059
X119.355Y-91.059
X121.717Y-91.059
X124.079Y-81.585
X124.079Y-83.947
X124.079Y-86.309
X124.079Y-88.671
X124.079Y-91.059
T4
X111.507Y-85.383
X118.492Y-85.383
T7
X100.854Y-110.3
X100.854Y-112.3
X100.854Y-114.3
X100.854Y-116.3
X100.854Y-118.3
X102.854Y-110.3
X102.854Y-112.3
X102.854Y-114.3
X102.854Y-116.3
X102.854Y-118.3
T8
X77.46Y-140.16
X80.0Y-140.16
X82.54Y-140.16
X90.16Y-127.46
X90.16Y-130.0
X90.16Y-132.54
X147.46Y-140.16
X150.0Y-140.16
X152.54Y-140.16
X160.16Y-127.46
X160.16Y-130.0
X160.16Y-132.54
T9
X67.3Y-126.825
X67.3Y-133.175
X72.38Y-126.825
X72.38Y-133.175
X137.3Y-126.825
X137.3Y-133.175
X142.38Y-126.825
X142.38Y-133.175
T10
X131.191Y-91.61
X133.191Y-91.61
X135.191Y-91.61
X137.191Y-91.61
X148.833Y-89.829
X148.833Y-92.329
X148.833Y-94.829
X163.333Y-89.829
X163.333Y-94.829
T11
X68.899Y-107.978
X68.899Y-111.478
T12
X73.332Y-122.38
X73.332Y-137.62
X86.667Y-122.38
X86.667Y-137.62
X143.332Y-122.38
X143.332Y-137.62
X156.667Y-122.38
X156.667Y-137.62
T5
X82.677Y-84.629G85X82.677Y-85.029
G05
X87.517Y-84.629G85X87.517Y-85.029
G05
T6
X82.367Y-81.579G85X82.367Y-82.079
G05
X87.827Y-81.579G85X87.827Y-82.079
G05
T13
X156.083Y-86.729G85X156.583Y-86.729
G05
X156.083Y-97.929G85X156.583Y-97.929
G05
T0
M30
