G04 #@! TF.GenerationSoftware,KiCad,Pcbnew,7.0.1*
G04 #@! TF.CreationDate,2023-10-12T07:58:09+02:00*
G04 #@! TF.ProjectId,Controller_board,436f6e74-726f-46c6-9c65-725f626f6172,rev?*
G04 #@! TF.SameCoordinates,Original*
G04 #@! TF.FileFunction,Soldermask,Top*
G04 #@! TF.FilePolarity,Negative*
%FSLAX46Y46*%
G04 Gerber Fmt 4.6, Leading zero omitted, Abs format (unit mm)*
G04 Created by KiCad (PCBNEW 7.0.1) date 2023-10-12 07:58:09*
%MOMM*%
%LPD*%
G01*
G04 APERTURE LIST*
G04 Aperture macros list*
%AMRoundRect*
0 Rectangle with rounded corners*
0 $1 Rounding radius*
0 $2 $3 $4 $5 $6 $7 $8 $9 X,Y pos of 4 corners*
0 Add a 4 corners polygon primitive as box body*
4,1,4,$2,$3,$4,$5,$6,$7,$8,$9,$2,$3,0*
0 Add four circle primitives for the rounded corners*
1,1,$1+$1,$2,$3*
1,1,$1+$1,$4,$5*
1,1,$1+$1,$6,$7*
1,1,$1+$1,$8,$9*
0 Add four rect primitives between the rounded corners*
20,1,$1+$1,$2,$3,$4,$5,0*
20,1,$1+$1,$4,$5,$6,$7,0*
20,1,$1+$1,$6,$7,$8,$9,0*
20,1,$1+$1,$8,$9,$2,$3,0*%
G04 Aperture macros list end*
%ADD10C,0.150000*%
%ADD11R,2.000000X2.000000*%
%ADD12C,2.000000*%
%ADD13R,3.000000X2.500000*%
%ADD14RoundRect,0.225000X-0.250000X0.225000X-0.250000X-0.225000X0.250000X-0.225000X0.250000X0.225000X0*%
%ADD15RoundRect,0.225000X-0.225000X-0.250000X0.225000X-0.250000X0.225000X0.250000X-0.225000X0.250000X0*%
%ADD16RoundRect,0.150000X0.587500X0.150000X-0.587500X0.150000X-0.587500X-0.150000X0.587500X-0.150000X0*%
%ADD17R,0.400000X1.650000*%
%ADD18R,1.825000X0.700000*%
%ADD19R,2.000000X1.500000*%
%ADD20R,1.350000X2.000000*%
%ADD21O,1.350000X1.700000*%
%ADD22O,1.100000X1.500000*%
%ADD23R,1.430000X2.500000*%
%ADD24RoundRect,0.225000X0.250000X-0.225000X0.250000X0.225000X-0.250000X0.225000X-0.250000X-0.225000X0*%
%ADD25RoundRect,0.225000X0.225000X0.250000X-0.225000X0.250000X-0.225000X-0.250000X0.225000X-0.250000X0*%
%ADD26RoundRect,0.200000X-0.275000X0.200000X-0.275000X-0.200000X0.275000X-0.200000X0.275000X0.200000X0*%
%ADD27R,1.500000X2.200000*%
%ADD28R,3.800000X2.200000*%
%ADD29RoundRect,0.075000X0.350000X0.075000X-0.350000X0.075000X-0.350000X-0.075000X0.350000X-0.075000X0*%
%ADD30RoundRect,0.075000X-0.075000X0.350000X-0.075000X-0.350000X0.075000X-0.350000X0.075000X0.350000X0*%
%ADD31RoundRect,0.150000X-0.150000X0.587500X-0.150000X-0.587500X0.150000X-0.587500X0.150000X0.587500X0*%
%ADD32RoundRect,0.225000X0.225000X0.375000X-0.225000X0.375000X-0.225000X-0.375000X0.225000X-0.375000X0*%
%ADD33RoundRect,0.075000X0.075000X-0.700000X0.075000X0.700000X-0.075000X0.700000X-0.075000X-0.700000X0*%
%ADD34RoundRect,0.075000X0.700000X-0.075000X0.700000X0.075000X-0.700000X0.075000X-0.700000X-0.075000X0*%
%ADD35RoundRect,0.250000X0.250000X0.475000X-0.250000X0.475000X-0.250000X-0.475000X0.250000X-0.475000X0*%
%ADD36RoundRect,0.200000X-0.200000X-0.275000X0.200000X-0.275000X0.200000X0.275000X-0.200000X0.275000X0*%
%ADD37C,1.778000*%
%ADD38C,2.286000*%
%ADD39R,1.500000X1.500000*%
%ADD40C,1.500000*%
%ADD41RoundRect,0.250000X-0.312500X-1.450000X0.312500X-1.450000X0.312500X1.450000X-0.312500X1.450000X0*%
%ADD42R,1.350000X1.350000*%
%ADD43O,1.350000X1.350000*%
%ADD44RoundRect,0.200000X0.200000X0.275000X-0.200000X0.275000X-0.200000X-0.275000X0.200000X-0.275000X0*%
%ADD45R,2.400000X2.400000*%
%ADD46C,2.400000*%
%ADD47R,1.550000X1.300000*%
%ADD48RoundRect,0.218750X0.256250X-0.218750X0.256250X0.218750X-0.256250X0.218750X-0.256250X-0.218750X0*%
%ADD49RoundRect,0.150000X0.825000X0.150000X-0.825000X0.150000X-0.825000X-0.150000X0.825000X-0.150000X0*%
%ADD50RoundRect,0.218750X0.218750X0.256250X-0.218750X0.256250X-0.218750X-0.256250X0.218750X-0.256250X0*%
%ADD51R,1.400000X1.200000*%
%ADD52R,1.780000X4.190000*%
%ADD53R,2.665000X4.190000*%
%ADD54RoundRect,0.218750X-0.256250X0.218750X-0.256250X-0.218750X0.256250X-0.218750X0.256250X0.218750X0*%
%ADD55RoundRect,0.200000X0.275000X-0.200000X0.275000X0.200000X-0.275000X0.200000X-0.275000X-0.200000X0*%
%ADD56RoundRect,0.218750X-0.218750X-0.256250X0.218750X-0.256250X0.218750X0.256250X-0.218750X0.256250X0*%
%ADD57RoundRect,0.150000X0.512500X0.150000X-0.512500X0.150000X-0.512500X-0.150000X0.512500X-0.150000X0*%
%ADD58RoundRect,0.062500X0.062500X-0.350000X0.062500X0.350000X-0.062500X0.350000X-0.062500X-0.350000X0*%
%ADD59RoundRect,0.062500X0.350000X-0.062500X0.350000X0.062500X-0.350000X0.062500X-0.350000X-0.062500X0*%
%ADD60R,2.500000X2.500000*%
%ADD61R,1.200000X1.400000*%
%ADD62RoundRect,0.150000X-0.150000X0.512500X-0.150000X-0.512500X0.150000X-0.512500X0.150000X0.512500X0*%
G04 APERTURE END LIST*
D10*
X124612400Y-91592400D02*
X118211600Y-91592400D01*
X118211600Y-90576400D01*
X123545600Y-90576400D01*
X123545600Y-80137000D01*
X124612400Y-80137000D01*
X124612400Y-91592400D01*
G36*
X124612400Y-91592400D02*
G01*
X118211600Y-91592400D01*
X118211600Y-90576400D01*
X123545600Y-90576400D01*
X123545600Y-80137000D01*
X124612400Y-80137000D01*
X124612400Y-91592400D01*
G37*
X106375200Y-90576400D02*
X113487200Y-90576400D01*
X113487200Y-91592400D01*
X105308400Y-91592400D01*
X105308400Y-80137000D01*
X106375200Y-80137000D01*
X106375200Y-90576400D01*
G36*
X106375200Y-90576400D02*
G01*
X113487200Y-90576400D01*
X113487200Y-91592400D01*
X105308400Y-91592400D01*
X105308400Y-80137000D01*
X106375200Y-80137000D01*
X106375200Y-90576400D01*
G37*
D11*
X148833000Y-89829000D03*
D12*
X148833000Y-94829000D03*
X148833000Y-92329000D03*
D13*
X156333000Y-86729000D03*
X156333000Y-97929000D03*
D12*
X163333000Y-89829000D03*
X163333000Y-94829000D03*
D14*
X118770400Y-119253000D03*
X118770400Y-120803000D03*
D15*
X136842200Y-102920800D03*
X138392200Y-102920800D03*
X111620000Y-119888000D03*
X113170000Y-119888000D03*
D16*
X83335100Y-102810600D03*
X83335100Y-100910600D03*
X81460100Y-101860600D03*
D17*
X86397000Y-84709400D03*
X85747000Y-84709400D03*
X85097000Y-84709400D03*
X84447000Y-84709400D03*
X83797000Y-84709400D03*
D18*
X88047000Y-83509400D03*
D19*
X87947000Y-84809400D03*
D20*
X87827000Y-82759400D03*
D21*
X87827000Y-81829400D03*
D22*
X87517000Y-84829400D03*
D23*
X86057000Y-81559400D03*
X84137000Y-81559400D03*
D22*
X82677000Y-84829400D03*
D21*
X82367000Y-81829400D03*
D20*
X82347000Y-82759400D03*
D19*
X82197000Y-84829400D03*
D18*
X82097000Y-83509400D03*
D24*
X114300000Y-89548000D03*
X114300000Y-87998000D03*
D25*
X124727000Y-113030000D03*
X123177000Y-113030000D03*
D24*
X131673600Y-107810600D03*
X131673600Y-106260600D03*
X127635000Y-121374200D03*
X127635000Y-119824200D03*
D26*
X105918000Y-119063000D03*
X105918000Y-120713000D03*
D27*
X103392000Y-99466000D03*
X101092000Y-99466000D03*
X98792000Y-99466000D03*
D28*
X101092000Y-105766000D03*
D29*
X137820400Y-108297600D03*
X137820400Y-107797600D03*
X137820400Y-107297600D03*
X137820400Y-106797600D03*
X137820400Y-106297600D03*
X137820400Y-105797600D03*
D30*
X137120400Y-105097600D03*
X136620400Y-105097600D03*
X136120400Y-105097600D03*
X135620400Y-105097600D03*
X135120400Y-105097600D03*
X134620400Y-105097600D03*
D29*
X133920400Y-105797600D03*
X133920400Y-106297600D03*
X133920400Y-106797600D03*
X133920400Y-107297600D03*
X133920400Y-107797600D03*
X133920400Y-108297600D03*
D30*
X134620400Y-108997600D03*
X135120400Y-108997600D03*
X135620400Y-108997600D03*
X136120400Y-108997600D03*
X136620400Y-108997600D03*
X137120400Y-108997600D03*
D31*
X85278000Y-112268000D03*
X83378000Y-112268000D03*
X84328000Y-114143000D03*
D32*
X98043000Y-93980000D03*
X94743000Y-93980000D03*
D31*
X81214000Y-112268000D03*
X79314000Y-112268000D03*
X80264000Y-114143000D03*
D24*
X125730000Y-121374200D03*
X125730000Y-119824200D03*
D33*
X111250000Y-114895000D03*
X111750000Y-114895000D03*
X112250000Y-114895000D03*
X112750000Y-114895000D03*
X113250000Y-114895000D03*
X113750000Y-114895000D03*
X114250000Y-114895000D03*
X114750000Y-114895000D03*
X115250000Y-114895000D03*
X115750000Y-114895000D03*
X116250000Y-114895000D03*
X116750000Y-114895000D03*
X117250000Y-114895000D03*
X117750000Y-114895000D03*
X118250000Y-114895000D03*
X118750000Y-114895000D03*
D34*
X120675000Y-112970000D03*
X120675000Y-112470000D03*
X120675000Y-111970000D03*
X120675000Y-111470000D03*
X120675000Y-110970000D03*
X120675000Y-110470000D03*
X120675000Y-109970000D03*
X120675000Y-109470000D03*
X120675000Y-108970000D03*
X120675000Y-108470000D03*
X120675000Y-107970000D03*
X120675000Y-107470000D03*
X120675000Y-106970000D03*
X120675000Y-106470000D03*
X120675000Y-105970000D03*
X120675000Y-105470000D03*
D33*
X118750000Y-103545000D03*
X118250000Y-103545000D03*
X117750000Y-103545000D03*
X117250000Y-103545000D03*
X116750000Y-103545000D03*
X116250000Y-103545000D03*
X115750000Y-103545000D03*
X115250000Y-103545000D03*
X114750000Y-103545000D03*
X114250000Y-103545000D03*
X113750000Y-103545000D03*
X113250000Y-103545000D03*
X112750000Y-103545000D03*
X112250000Y-103545000D03*
X111750000Y-103545000D03*
X111250000Y-103545000D03*
D34*
X109325000Y-105470000D03*
X109325000Y-105970000D03*
X109325000Y-106470000D03*
X109325000Y-106970000D03*
X109325000Y-107470000D03*
X109325000Y-107970000D03*
X109325000Y-108470000D03*
X109325000Y-108970000D03*
X109325000Y-109470000D03*
X109325000Y-109970000D03*
X109325000Y-110470000D03*
X109325000Y-110970000D03*
X109325000Y-111470000D03*
X109325000Y-111970000D03*
X109325000Y-112470000D03*
X109325000Y-112970000D03*
D14*
X117348000Y-87985000D03*
X117348000Y-89535000D03*
D35*
X95057000Y-99517200D03*
X93157000Y-99517200D03*
D24*
X96774000Y-99530200D03*
X96774000Y-97980200D03*
D36*
X132842000Y-98806000D03*
X134492000Y-98806000D03*
D14*
X116941600Y-119253000D03*
X116941600Y-120803000D03*
D37*
X137300000Y-133175000D03*
X137300000Y-126825000D03*
X142380000Y-133175000D03*
X142380000Y-126825000D03*
X160160000Y-132540000D03*
X160160000Y-130000000D03*
X160160000Y-127460000D03*
D38*
X143332500Y-137620000D03*
X156667500Y-137620000D03*
X156667500Y-122380000D03*
X143332500Y-122380000D03*
D37*
X147460000Y-140160000D03*
X150000000Y-140160000D03*
X152540000Y-140160000D03*
D39*
X131191000Y-91610000D03*
D40*
X133191000Y-91610000D03*
X135191000Y-91610000D03*
X137191000Y-91610000D03*
D25*
X108420200Y-114401600D03*
X106870200Y-114401600D03*
D41*
X85949700Y-103454200D03*
X90224700Y-103454200D03*
D42*
X100854000Y-110300000D03*
D43*
X102854000Y-110300000D03*
X100854000Y-112300000D03*
X102854000Y-112300000D03*
X100854000Y-114300000D03*
X102854000Y-114300000D03*
X100854000Y-116300000D03*
X102854000Y-116300000D03*
X100854000Y-118300000D03*
X102854000Y-118300000D03*
D14*
X134975600Y-101383800D03*
X134975600Y-102933800D03*
D37*
X67300000Y-133175000D03*
X67300000Y-126825000D03*
X72380000Y-133175000D03*
X72380000Y-126825000D03*
X90160000Y-132540000D03*
X90160000Y-130000000D03*
X90160000Y-127460000D03*
D38*
X73332500Y-137620000D03*
X86667500Y-137620000D03*
X86667500Y-122380000D03*
X73332500Y-122380000D03*
D37*
X77460000Y-140160000D03*
X80000000Y-140160000D03*
X82540000Y-140160000D03*
D44*
X132841000Y-96774000D03*
X131191000Y-96774000D03*
D24*
X119616700Y-100720600D03*
X119616700Y-99170600D03*
D45*
X68899000Y-107978000D03*
D46*
X68899000Y-111478000D03*
D47*
X69685000Y-96338000D03*
X77635000Y-96338000D03*
X69685000Y-100838000D03*
X77635000Y-100838000D03*
D36*
X83503000Y-110157500D03*
X85153000Y-110157500D03*
X109334800Y-96266000D03*
X110984800Y-96266000D03*
D25*
X108471000Y-103759000D03*
X106921000Y-103759000D03*
D48*
X120523000Y-120802500D03*
X120523000Y-119227500D03*
D15*
X123177000Y-106680000D03*
X124727000Y-106680000D03*
D44*
X93103200Y-96596200D03*
X91453200Y-96596200D03*
D49*
X135317000Y-121285000D03*
X135317000Y-120015000D03*
X135317000Y-118745000D03*
X135317000Y-117475000D03*
X130367000Y-117475000D03*
X130367000Y-118745000D03*
X130367000Y-120015000D03*
X130367000Y-121285000D03*
D25*
X123291000Y-99822000D03*
X121741000Y-99822000D03*
D15*
X101485400Y-95504000D03*
X103035400Y-95504000D03*
D44*
X128587000Y-114554000D03*
X126937000Y-114554000D03*
D50*
X96545500Y-108508800D03*
X94970500Y-108508800D03*
D51*
X109517000Y-123405000D03*
X111717000Y-123405000D03*
X111717000Y-121705000D03*
X109517000Y-121705000D03*
D25*
X110934800Y-94437200D03*
X109384800Y-94437200D03*
D52*
X115000000Y-82397600D03*
D53*
X111507500Y-82397600D03*
X118492500Y-82397600D03*
D15*
X123177000Y-104394000D03*
X124727000Y-104394000D03*
D44*
X96583000Y-106730800D03*
X94933000Y-106730800D03*
D54*
X126746000Y-106654500D03*
X126746000Y-108229500D03*
D55*
X119616700Y-96745200D03*
X119616700Y-95095200D03*
D14*
X118872000Y-87985000D03*
X118872000Y-89535000D03*
D44*
X76263000Y-104140000D03*
X74613000Y-104140000D03*
D36*
X130874000Y-114554000D03*
X132524000Y-114554000D03*
D14*
X109220000Y-98018000D03*
X109220000Y-99568000D03*
D25*
X109741000Y-119888000D03*
X108191000Y-119888000D03*
X114363800Y-86461600D03*
X112813800Y-86461600D03*
D56*
X115798500Y-91046000D03*
X117373500Y-91046000D03*
D24*
X135128000Y-112154000D03*
X135128000Y-110604000D03*
D47*
X69685000Y-83892000D03*
X77635000Y-83892000D03*
X69685000Y-88392000D03*
X77635000Y-88392000D03*
D15*
X101485400Y-97180400D03*
X103035400Y-97180400D03*
D57*
X90748700Y-100467200D03*
X90748700Y-99517200D03*
X90748700Y-98567200D03*
X88473700Y-98567200D03*
X88473700Y-100467200D03*
D44*
X89547200Y-96596200D03*
X87897200Y-96596200D03*
D58*
X114011200Y-99625900D03*
X114511200Y-99625900D03*
X115011200Y-99625900D03*
X115511200Y-99625900D03*
X116011200Y-99625900D03*
D59*
X116948700Y-98688400D03*
X116948700Y-98188400D03*
X116948700Y-97688400D03*
X116948700Y-97188400D03*
X116948700Y-96688400D03*
D58*
X116011200Y-95750900D03*
X115511200Y-95750900D03*
X115011200Y-95750900D03*
X114511200Y-95750900D03*
X114011200Y-95750900D03*
D59*
X113073700Y-96688400D03*
X113073700Y-97188400D03*
X113073700Y-97688400D03*
X113073700Y-98188400D03*
X113073700Y-98688400D03*
D60*
X115011200Y-97688400D03*
D61*
X123366000Y-97917000D03*
X123366000Y-95717000D03*
X121666000Y-95717000D03*
X121666000Y-97917000D03*
D48*
X114300000Y-92608500D03*
X114300000Y-91033500D03*
D36*
X87567000Y-110157500D03*
X89217000Y-110157500D03*
D32*
X95198200Y-102565200D03*
X91898200Y-102565200D03*
D56*
X114274500Y-94107000D03*
X115849500Y-94107000D03*
D24*
X85420200Y-100546200D03*
X85420200Y-98996200D03*
D14*
X110998000Y-98018000D03*
X110998000Y-99568000D03*
D31*
X89342000Y-112268000D03*
X87442000Y-112268000D03*
X88392000Y-114143000D03*
D55*
X145796000Y-95414600D03*
X145796000Y-93764600D03*
D36*
X79439000Y-110157500D03*
X81089000Y-110157500D03*
D15*
X121741000Y-93853000D03*
X123291000Y-93853000D03*
D62*
X86382400Y-88575300D03*
X85432400Y-88575300D03*
X84482400Y-88575300D03*
X84482400Y-90850300D03*
X85432400Y-90850300D03*
X86382400Y-90850300D03*
D55*
X145796000Y-90995000D03*
X145796000Y-89345000D03*
D36*
X74613000Y-105918000D03*
X76263000Y-105918000D03*
D55*
X128524000Y-108267000D03*
X128524000Y-106617000D03*
D25*
X109601000Y-117336209D03*
X108051000Y-117336209D03*
D15*
X123177000Y-116459000D03*
X124727000Y-116459000D03*
M02*
