%TF.GenerationSoftware,KiCad,Pcbnew,7.0.1*%
%TF.CreationDate,2023-10-12T07:58:31+02:00*%
%TF.ProjectId,Controller_board,436f6e74-726f-46c6-9c65-725f626f6172,rev?*%
%TF.SameCoordinates,Original*%
%TF.FileFunction,Drillmap*%
%TF.FilePolarity,Positive*%
%FSLAX45Y45*%
G04 Gerber Fmt 4.5, Leading zero omitted, Abs format (unit mm)*
G04 Created by KiCad (PCBNEW 7.0.1) date 2023-10-12 07:58:31*
%MOMM*%
%LPD*%
G01*
G04 APERTURE LIST*
%ADD10C,0.100000*%
%ADD11C,0.200000*%
G04 APERTURE END LIST*
D10*
X7000000Y-8000000D02*
G75*
G03*
X6500000Y-8500000I0J-500000D01*
G01*
X7000000Y-14500000D02*
X16000000Y-14500000D01*
X7000000Y-8000000D02*
X16000000Y-8000000D01*
X16500000Y-8500000D02*
X16500000Y-14000000D01*
X9750000Y-8500000D02*
G75*
G03*
X9750000Y-8500000I-250000J0D01*
G01*
X9750000Y-14000000D02*
G75*
G03*
X9750000Y-14000000I-250000J0D01*
G01*
X13750000Y-8500000D02*
G75*
G03*
X13750000Y-8500000I-250000J0D01*
G01*
X6500000Y-14000000D02*
G75*
G03*
X7000000Y-14500000I500000J0D01*
G01*
X16000000Y-14500000D02*
G75*
G03*
X16500000Y-14000000I0J500000D01*
G01*
X6500000Y-14000000D02*
X6500000Y-8500000D01*
X13750000Y-14000000D02*
G75*
G03*
X13750000Y-14000000I-250000J0D01*
G01*
X16500000Y-8500000D02*
G75*
G03*
X16000000Y-8000000I-500000J0D01*
G01*
D11*
X6742619Y-14817524D02*
X6742619Y-14617524D01*
X6742619Y-14617524D02*
X6790238Y-14617524D01*
X6790238Y-14617524D02*
X6818809Y-14627048D01*
X6818809Y-14627048D02*
X6837857Y-14646095D01*
X6837857Y-14646095D02*
X6847381Y-14665143D01*
X6847381Y-14665143D02*
X6856905Y-14703238D01*
X6856905Y-14703238D02*
X6856905Y-14731809D01*
X6856905Y-14731809D02*
X6847381Y-14769905D01*
X6847381Y-14769905D02*
X6837857Y-14788952D01*
X6837857Y-14788952D02*
X6818809Y-14808000D01*
X6818809Y-14808000D02*
X6790238Y-14817524D01*
X6790238Y-14817524D02*
X6742619Y-14817524D01*
X6942619Y-14817524D02*
X6942619Y-14684190D01*
X6942619Y-14722286D02*
X6952143Y-14703238D01*
X6952143Y-14703238D02*
X6961667Y-14693714D01*
X6961667Y-14693714D02*
X6980714Y-14684190D01*
X6980714Y-14684190D02*
X6999762Y-14684190D01*
X7066428Y-14817524D02*
X7066428Y-14684190D01*
X7066428Y-14617524D02*
X7056905Y-14627048D01*
X7056905Y-14627048D02*
X7066428Y-14636571D01*
X7066428Y-14636571D02*
X7075952Y-14627048D01*
X7075952Y-14627048D02*
X7066428Y-14617524D01*
X7066428Y-14617524D02*
X7066428Y-14636571D01*
X7190238Y-14817524D02*
X7171190Y-14808000D01*
X7171190Y-14808000D02*
X7161667Y-14788952D01*
X7161667Y-14788952D02*
X7161667Y-14617524D01*
X7295000Y-14817524D02*
X7275952Y-14808000D01*
X7275952Y-14808000D02*
X7266428Y-14788952D01*
X7266428Y-14788952D02*
X7266428Y-14617524D01*
X7523571Y-14817524D02*
X7523571Y-14617524D01*
X7523571Y-14617524D02*
X7590238Y-14760381D01*
X7590238Y-14760381D02*
X7656905Y-14617524D01*
X7656905Y-14617524D02*
X7656905Y-14817524D01*
X7837857Y-14817524D02*
X7837857Y-14712762D01*
X7837857Y-14712762D02*
X7828333Y-14693714D01*
X7828333Y-14693714D02*
X7809286Y-14684190D01*
X7809286Y-14684190D02*
X7771190Y-14684190D01*
X7771190Y-14684190D02*
X7752143Y-14693714D01*
X7837857Y-14808000D02*
X7818809Y-14817524D01*
X7818809Y-14817524D02*
X7771190Y-14817524D01*
X7771190Y-14817524D02*
X7752143Y-14808000D01*
X7752143Y-14808000D02*
X7742619Y-14788952D01*
X7742619Y-14788952D02*
X7742619Y-14769905D01*
X7742619Y-14769905D02*
X7752143Y-14750857D01*
X7752143Y-14750857D02*
X7771190Y-14741333D01*
X7771190Y-14741333D02*
X7818809Y-14741333D01*
X7818809Y-14741333D02*
X7837857Y-14731809D01*
X7933095Y-14684190D02*
X7933095Y-14884190D01*
X7933095Y-14693714D02*
X7952143Y-14684190D01*
X7952143Y-14684190D02*
X7990238Y-14684190D01*
X7990238Y-14684190D02*
X8009286Y-14693714D01*
X8009286Y-14693714D02*
X8018809Y-14703238D01*
X8018809Y-14703238D02*
X8028333Y-14722286D01*
X8028333Y-14722286D02*
X8028333Y-14779428D01*
X8028333Y-14779428D02*
X8018809Y-14798476D01*
X8018809Y-14798476D02*
X8009286Y-14808000D01*
X8009286Y-14808000D02*
X7990238Y-14817524D01*
X7990238Y-14817524D02*
X7952143Y-14817524D01*
X7952143Y-14817524D02*
X7933095Y-14808000D01*
X8114048Y-14798476D02*
X8123571Y-14808000D01*
X8123571Y-14808000D02*
X8114048Y-14817524D01*
X8114048Y-14817524D02*
X8104524Y-14808000D01*
X8104524Y-14808000D02*
X8114048Y-14798476D01*
X8114048Y-14798476D02*
X8114048Y-14817524D01*
X8114048Y-14693714D02*
X8123571Y-14703238D01*
X8123571Y-14703238D02*
X8114048Y-14712762D01*
X8114048Y-14712762D02*
X8104524Y-14703238D01*
X8104524Y-14703238D02*
X8114048Y-14693714D01*
X8114048Y-14693714D02*
X8114048Y-14712762D01*
M02*
