G04 #@! TF.GenerationSoftware,KiCad,Pcbnew,7.0.1*
G04 #@! TF.CreationDate,2023-10-12T07:58:09+02:00*
G04 #@! TF.ProjectId,Controller_board,436f6e74-726f-46c6-9c65-725f626f6172,rev?*
G04 #@! TF.SameCoordinates,Original*
G04 #@! TF.FileFunction,Soldermask,Bot*
G04 #@! TF.FilePolarity,Negative*
%FSLAX46Y46*%
G04 Gerber Fmt 4.6, Leading zero omitted, Abs format (unit mm)*
G04 Created by KiCad (PCBNEW 7.0.1) date 2023-10-12 07:58:09*
%MOMM*%
%LPD*%
G01*
G04 APERTURE LIST*
G04 Aperture macros list*
%AMFreePoly0*
4,1,19,0.550000,-0.750000,0.000000,-0.750000,0.000000,-0.744911,-0.071157,-0.744911,-0.207708,-0.704816,-0.327430,-0.627875,-0.420627,-0.520320,-0.479746,-0.390866,-0.500000,-0.250000,-0.500000,0.250000,-0.479746,0.390866,-0.420627,0.520320,-0.327430,0.627875,-0.207708,0.704816,-0.071157,0.744911,0.000000,0.744911,0.000000,0.750000,0.550000,0.750000,0.550000,-0.750000,0.550000,-0.750000,
$1*%
%AMFreePoly1*
4,1,19,0.000000,0.744911,0.071157,0.744911,0.207708,0.704816,0.327430,0.627875,0.420627,0.520320,0.479746,0.390866,0.500000,0.250000,0.500000,-0.250000,0.479746,-0.390866,0.420627,-0.520320,0.327430,-0.627875,0.207708,-0.704816,0.071157,-0.744911,0.000000,-0.744911,0.000000,-0.750000,-0.550000,-0.750000,-0.550000,0.750000,0.000000,0.750000,0.000000,0.744911,0.000000,0.744911,
$1*%
G04 Aperture macros list end*
%ADD10C,0.150000*%
%ADD11R,2.000000X2.000000*%
%ADD12C,2.000000*%
%ADD13R,3.000000X2.500000*%
%ADD14O,1.350000X1.700000*%
%ADD15O,1.100000X1.500000*%
%ADD16C,1.778000*%
%ADD17C,2.286000*%
%ADD18R,1.500000X1.500000*%
%ADD19C,1.500000*%
%ADD20R,1.350000X1.350000*%
%ADD21O,1.350000X1.350000*%
%ADD22R,2.400000X2.400000*%
%ADD23C,2.400000*%
%ADD24R,2.665000X4.190000*%
%ADD25FreePoly0,270.000000*%
%ADD26R,1.500000X1.000000*%
%ADD27FreePoly1,270.000000*%
%ADD28C,1.000000*%
%ADD29FreePoly0,180.000000*%
%ADD30R,1.000000X1.500000*%
%ADD31FreePoly1,180.000000*%
G04 APERTURE END LIST*
D10*
X106375200Y-90576400D02*
X113487200Y-90576400D01*
X113487200Y-91592400D01*
X105308400Y-91592400D01*
X105308400Y-80137000D01*
X106375200Y-80137000D01*
X106375200Y-90576400D01*
G36*
X106375200Y-90576400D02*
G01*
X113487200Y-90576400D01*
X113487200Y-91592400D01*
X105308400Y-91592400D01*
X105308400Y-80137000D01*
X106375200Y-80137000D01*
X106375200Y-90576400D01*
G37*
X124612400Y-91592400D02*
X118211600Y-91592400D01*
X118211600Y-90576400D01*
X123545600Y-90576400D01*
X123545600Y-80137000D01*
X124612400Y-80137000D01*
X124612400Y-91592400D01*
G36*
X124612400Y-91592400D02*
G01*
X118211600Y-91592400D01*
X118211600Y-90576400D01*
X123545600Y-90576400D01*
X123545600Y-80137000D01*
X124612400Y-80137000D01*
X124612400Y-91592400D01*
G37*
D11*
X148833000Y-89829000D03*
D12*
X148833000Y-94829000D03*
X148833000Y-92329000D03*
D13*
X156333000Y-86729000D03*
X156333000Y-97929000D03*
D12*
X163333000Y-89829000D03*
X163333000Y-94829000D03*
D14*
X87827000Y-81829400D03*
D15*
X87517000Y-84829400D03*
X82677000Y-84829400D03*
D14*
X82367000Y-81829400D03*
D16*
X137300000Y-133175000D03*
X137300000Y-126825000D03*
X142380000Y-133175000D03*
X142380000Y-126825000D03*
X160160000Y-132540000D03*
X160160000Y-130000000D03*
X160160000Y-127460000D03*
D17*
X143332500Y-137620000D03*
X156667500Y-137620000D03*
X156667500Y-122380000D03*
X143332500Y-122380000D03*
D16*
X147460000Y-140160000D03*
X150000000Y-140160000D03*
X152540000Y-140160000D03*
D18*
X131191000Y-91610000D03*
D19*
X133191000Y-91610000D03*
X135191000Y-91610000D03*
X137191000Y-91610000D03*
D20*
X100854000Y-110300000D03*
D21*
X102854000Y-110300000D03*
X100854000Y-112300000D03*
X102854000Y-112300000D03*
X100854000Y-114300000D03*
X102854000Y-114300000D03*
X100854000Y-116300000D03*
X102854000Y-116300000D03*
X100854000Y-118300000D03*
X102854000Y-118300000D03*
D16*
X67300000Y-133175000D03*
X67300000Y-126825000D03*
X72380000Y-133175000D03*
X72380000Y-126825000D03*
X90160000Y-132540000D03*
X90160000Y-130000000D03*
X90160000Y-127460000D03*
D17*
X73332500Y-137620000D03*
X86667500Y-137620000D03*
X86667500Y-122380000D03*
X73332500Y-122380000D03*
D16*
X77460000Y-140160000D03*
X80000000Y-140160000D03*
X82540000Y-140160000D03*
D22*
X68899000Y-107978000D03*
D23*
X68899000Y-111478000D03*
D24*
X111507500Y-82397600D03*
X118492500Y-82397600D03*
D25*
X76200000Y-110254500D03*
D26*
X76200000Y-111554500D03*
D27*
X76200000Y-112854500D03*
D28*
X117983000Y-102870000D03*
D29*
X107218000Y-125292100D03*
D30*
X105918000Y-125292100D03*
D31*
X104618000Y-125292100D03*
D28*
X117983000Y-99060000D03*
X113284000Y-99060000D03*
X113411000Y-102870000D03*
X115697000Y-99060000D03*
X115697000Y-102870000D03*
M02*
