G04 #@! TF.GenerationSoftware,KiCad,Pcbnew,7.0.1*
G04 #@! TF.CreationDate,2023-10-12T07:58:09+02:00*
G04 #@! TF.ProjectId,Controller_board,436f6e74-726f-46c6-9c65-725f626f6172,rev?*
G04 #@! TF.SameCoordinates,Original*
G04 #@! TF.FileFunction,Copper,L4,Bot*
G04 #@! TF.FilePolarity,Positive*
%FSLAX46Y46*%
G04 Gerber Fmt 4.6, Leading zero omitted, Abs format (unit mm)*
G04 Created by KiCad (PCBNEW 7.0.1) date 2023-10-12 07:58:09*
%MOMM*%
%LPD*%
G01*
G04 APERTURE LIST*
G04 Aperture macros list*
%AMFreePoly0*
4,1,19,0.550000,-0.750000,0.000000,-0.750000,0.000000,-0.744911,-0.071157,-0.744911,-0.207708,-0.704816,-0.327430,-0.627875,-0.420627,-0.520320,-0.479746,-0.390866,-0.500000,-0.250000,-0.500000,0.250000,-0.479746,0.390866,-0.420627,0.520320,-0.327430,0.627875,-0.207708,0.704816,-0.071157,0.744911,0.000000,0.744911,0.000000,0.750000,0.550000,0.750000,0.550000,-0.750000,0.550000,-0.750000,
$1*%
%AMFreePoly1*
4,1,19,0.000000,0.744911,0.071157,0.744911,0.207708,0.704816,0.327430,0.627875,0.420627,0.520320,0.479746,0.390866,0.500000,0.250000,0.500000,-0.250000,0.479746,-0.390866,0.420627,-0.520320,0.327430,-0.627875,0.207708,-0.704816,0.071157,-0.744911,0.000000,-0.744911,0.000000,-0.750000,-0.550000,-0.750000,-0.550000,0.750000,0.000000,0.750000,0.000000,0.744911,0.000000,0.744911,
$1*%
G04 Aperture macros list end*
G04 #@! TA.AperFunction,ComponentPad*
%ADD10R,2.000000X2.000000*%
G04 #@! TD*
G04 #@! TA.AperFunction,ComponentPad*
%ADD11C,2.000000*%
G04 #@! TD*
G04 #@! TA.AperFunction,ComponentPad*
%ADD12R,3.000000X2.500000*%
G04 #@! TD*
G04 #@! TA.AperFunction,ComponentPad*
%ADD13O,1.350000X1.700000*%
G04 #@! TD*
G04 #@! TA.AperFunction,ComponentPad*
%ADD14O,1.100000X1.500000*%
G04 #@! TD*
G04 #@! TA.AperFunction,ComponentPad*
%ADD15C,1.778000*%
G04 #@! TD*
G04 #@! TA.AperFunction,ComponentPad*
%ADD16C,2.286000*%
G04 #@! TD*
G04 #@! TA.AperFunction,ComponentPad*
%ADD17R,1.500000X1.500000*%
G04 #@! TD*
G04 #@! TA.AperFunction,ComponentPad*
%ADD18C,1.500000*%
G04 #@! TD*
G04 #@! TA.AperFunction,ComponentPad*
%ADD19R,1.350000X1.350000*%
G04 #@! TD*
G04 #@! TA.AperFunction,ComponentPad*
%ADD20O,1.350000X1.350000*%
G04 #@! TD*
G04 #@! TA.AperFunction,ComponentPad*
%ADD21R,2.400000X2.400000*%
G04 #@! TD*
G04 #@! TA.AperFunction,ComponentPad*
%ADD22C,2.400000*%
G04 #@! TD*
G04 #@! TA.AperFunction,ComponentPad*
%ADD23C,0.970000*%
G04 #@! TD*
G04 #@! TA.AperFunction,SMDPad,CuDef*
%ADD24R,0.460000X0.890000*%
G04 #@! TD*
G04 #@! TA.AperFunction,SMDPad,CuDef*
%ADD25R,2.665000X4.190000*%
G04 #@! TD*
G04 #@! TA.AperFunction,SMDPad,CuDef*
%ADD26FreePoly0,270.000000*%
G04 #@! TD*
G04 #@! TA.AperFunction,SMDPad,CuDef*
%ADD27R,1.500000X1.000000*%
G04 #@! TD*
G04 #@! TA.AperFunction,SMDPad,CuDef*
%ADD28FreePoly1,270.000000*%
G04 #@! TD*
G04 #@! TA.AperFunction,SMDPad,CuDef*
%ADD29C,1.000000*%
G04 #@! TD*
G04 #@! TA.AperFunction,SMDPad,CuDef*
%ADD30FreePoly0,180.000000*%
G04 #@! TD*
G04 #@! TA.AperFunction,SMDPad,CuDef*
%ADD31R,1.000000X1.500000*%
G04 #@! TD*
G04 #@! TA.AperFunction,SMDPad,CuDef*
%ADD32FreePoly1,180.000000*%
G04 #@! TD*
G04 #@! TA.AperFunction,ViaPad*
%ADD33C,0.600000*%
G04 #@! TD*
G04 #@! TA.AperFunction,ViaPad*
%ADD34C,0.700000*%
G04 #@! TD*
G04 #@! TA.AperFunction,ViaPad*
%ADD35C,0.500000*%
G04 #@! TD*
G04 #@! TA.AperFunction,Conductor*
%ADD36C,0.500000*%
G04 #@! TD*
G04 #@! TA.AperFunction,Conductor*
%ADD37C,0.300000*%
G04 #@! TD*
G04 #@! TA.AperFunction,Conductor*
%ADD38C,0.250000*%
G04 #@! TD*
G04 APERTURE END LIST*
D10*
X148833000Y-89829000D03*
D11*
X148833000Y-94829000D03*
X148833000Y-92329000D03*
D12*
X156333000Y-86729000D03*
X156333000Y-97929000D03*
D11*
X163333000Y-89829000D03*
X163333000Y-94829000D03*
D13*
X87827000Y-81829400D03*
D14*
X87517000Y-84829400D03*
X82677000Y-84829400D03*
D13*
X82367000Y-81829400D03*
D15*
X137300000Y-133175000D03*
X137300000Y-126825000D03*
X142380000Y-133175000D03*
X142380000Y-126825000D03*
X160160000Y-132540000D03*
X160160000Y-130000000D03*
X160160000Y-127460000D03*
D16*
X143332500Y-137620000D03*
X156667500Y-137620000D03*
X156667500Y-122380000D03*
X143332500Y-122380000D03*
D15*
X147460000Y-140160000D03*
X150000000Y-140160000D03*
X152540000Y-140160000D03*
D17*
X131191000Y-91610000D03*
D18*
X133191000Y-91610000D03*
X135191000Y-91610000D03*
X137191000Y-91610000D03*
D19*
X100854000Y-110300000D03*
D20*
X102854000Y-110300000D03*
X100854000Y-112300000D03*
X102854000Y-112300000D03*
X100854000Y-114300000D03*
X102854000Y-114300000D03*
X100854000Y-116300000D03*
X102854000Y-116300000D03*
X100854000Y-118300000D03*
X102854000Y-118300000D03*
D15*
X67300000Y-133175000D03*
X67300000Y-126825000D03*
X72380000Y-133175000D03*
X72380000Y-126825000D03*
X90160000Y-132540000D03*
X90160000Y-130000000D03*
X90160000Y-127460000D03*
D16*
X73332500Y-137620000D03*
X86667500Y-137620000D03*
X86667500Y-122380000D03*
X73332500Y-122380000D03*
D15*
X77460000Y-140160000D03*
X80000000Y-140160000D03*
X82540000Y-140160000D03*
D21*
X68899000Y-107978000D03*
D22*
X68899000Y-111478000D03*
D23*
X111507500Y-85382600D03*
X118492500Y-85382600D03*
D24*
X111507500Y-84937600D03*
X118492500Y-84937600D03*
D25*
X111507500Y-82397600D03*
X118492500Y-82397600D03*
D26*
X76200000Y-110254500D03*
D27*
X76200000Y-111554500D03*
D28*
X76200000Y-112854500D03*
D29*
X117983000Y-102870000D03*
D30*
X107218000Y-125292100D03*
D31*
X105918000Y-125292100D03*
D32*
X104618000Y-125292100D03*
D29*
X117983000Y-99060000D03*
X113284000Y-99060000D03*
X113411000Y-102870000D03*
X115697000Y-99060000D03*
X115697000Y-102870000D03*
D33*
X115062000Y-113030000D03*
X84328000Y-115364500D03*
X83312000Y-93980000D03*
X120523000Y-97917000D03*
X103124000Y-93599000D03*
D34*
X124079000Y-88671400D03*
D33*
X132080000Y-119761000D03*
X133477000Y-121285000D03*
X83312000Y-99060000D03*
X136842200Y-101917200D03*
D34*
X121716800Y-91059000D03*
D33*
X80772000Y-99060000D03*
X73609200Y-105918000D03*
D34*
X105841800Y-88671400D03*
X119354600Y-91059000D03*
X124079000Y-91059000D03*
D33*
X108077000Y-94894400D03*
X121793000Y-100711000D03*
X108673600Y-118377609D03*
X127635000Y-118618000D03*
X88392000Y-93980000D03*
X135890000Y-101383800D03*
D34*
X105841800Y-86309200D03*
D33*
X116941600Y-121704400D03*
D34*
X108204000Y-91059000D03*
D33*
X124397000Y-105537000D03*
X76174600Y-96342200D03*
D35*
X112077500Y-99123500D03*
D33*
X76149200Y-83896200D03*
X70993000Y-96342200D03*
X111760000Y-86487000D03*
X92456000Y-98171000D03*
D35*
X112311808Y-93218000D03*
D33*
X93599000Y-98171000D03*
D34*
X105841800Y-83947000D03*
D33*
X117348000Y-86982000D03*
X107899200Y-99199400D03*
X85852000Y-96520000D03*
X90932000Y-93980000D03*
X113157000Y-122936000D03*
X138938000Y-107696000D03*
X80772000Y-96520000D03*
X124460000Y-93853000D03*
X89550093Y-99499893D03*
X132680200Y-108077000D03*
X104267000Y-94488000D03*
X118872000Y-86982000D03*
X133477000Y-120015000D03*
X122174000Y-113030000D03*
X118770400Y-121704400D03*
X83312000Y-96520000D03*
X92456000Y-100838000D03*
X124712259Y-117615721D03*
X124727868Y-103304756D03*
D34*
X124079000Y-81584800D03*
D33*
X107315000Y-119888000D03*
X134122900Y-112395000D03*
D34*
X105841800Y-81584800D03*
D33*
X124460000Y-95758000D03*
X80772000Y-93980000D03*
X96012000Y-96520000D03*
D34*
X124079000Y-83947000D03*
X105841800Y-91059000D03*
D33*
X107124500Y-102552500D03*
X93599000Y-100838000D03*
X85852000Y-93980000D03*
X83312000Y-104140000D03*
X103124000Y-94488000D03*
X71145400Y-83896200D03*
X139192000Y-112776000D03*
D34*
X110566200Y-91059000D03*
D33*
X113157000Y-121285000D03*
X125730000Y-118618000D03*
X85965800Y-89712800D03*
D34*
X124079000Y-86309200D03*
D33*
X136480896Y-103792531D03*
X97790000Y-109727500D03*
X83705200Y-86461600D03*
X104267000Y-95504000D03*
X107467400Y-115392200D03*
X140081000Y-108204000D03*
X134924800Y-103987600D03*
D35*
X112014000Y-96840500D03*
D33*
X82790800Y-86461600D03*
X116433600Y-113030000D03*
X108077000Y-121285000D03*
X103428800Y-125282200D03*
D34*
X112928400Y-91059000D03*
D33*
X119616700Y-98015200D03*
X80772000Y-104140000D03*
X104267000Y-93599000D03*
X125730000Y-122682000D03*
X108458000Y-125282200D03*
X101219000Y-93599000D03*
X123571000Y-117602000D03*
D35*
X111760000Y-93980000D03*
D33*
X120040400Y-121704400D03*
X138379200Y-102108000D03*
X107899200Y-98335800D03*
X120759700Y-100733000D03*
X108458000Y-102870000D03*
X125857000Y-112522000D03*
X99949000Y-93599000D03*
X145796000Y-92786200D03*
X108077000Y-95808800D03*
X99949000Y-95504000D03*
X129667000Y-114554000D03*
X126873000Y-122682000D03*
X101219000Y-94488000D03*
X145796000Y-91922600D03*
X109593159Y-118383631D03*
X123168372Y-103296998D03*
X99949000Y-94488000D03*
X132842000Y-97790000D03*
X130708400Y-106273600D03*
X128524000Y-105664000D03*
X108407200Y-115392200D03*
X93599000Y-93472000D03*
X93599000Y-94361000D03*
X86524600Y-86461600D03*
X84899000Y-89712800D03*
X85725000Y-91806500D03*
X87388200Y-86461600D03*
D35*
X80975200Y-102489000D03*
D33*
X73603191Y-104127876D03*
D35*
X81788000Y-102489000D03*
D33*
X77597000Y-110157500D03*
X78486000Y-110157500D03*
X110744000Y-108966000D03*
X89027000Y-107329500D03*
X105918000Y-117856000D03*
X105918000Y-115824000D03*
D35*
X105918000Y-122047000D03*
D33*
X139192000Y-110490000D03*
X132588000Y-110490000D03*
X139192000Y-109397800D03*
X132588000Y-109397800D03*
X107696000Y-106426000D03*
X93726000Y-106426000D03*
X132562600Y-111607600D03*
X139192000Y-111607600D03*
X122216500Y-109320500D03*
X112395000Y-113425500D03*
X116156266Y-116507734D03*
X113792000Y-117602000D03*
X118770400Y-117906800D03*
X118770400Y-116281200D03*
D35*
X118318542Y-100560864D03*
X117278834Y-100533200D03*
X114936700Y-100519266D03*
X116866098Y-101116702D03*
X115938998Y-101107700D03*
X114577976Y-101119783D03*
X113661122Y-101092000D03*
D33*
X133604000Y-114554000D03*
X133604000Y-117475000D03*
X89052400Y-108204000D03*
X106465900Y-108204000D03*
X88392000Y-99187000D03*
X80264000Y-115366800D03*
X86106000Y-109234500D03*
X107950000Y-109474000D03*
D36*
X104618000Y-125292100D02*
X103438700Y-125292100D01*
X107218000Y-125292100D02*
X108448100Y-125292100D01*
X78486000Y-110157500D02*
X76297000Y-110157500D01*
X76297000Y-110157500D02*
X76200000Y-110254500D01*
D37*
X89027000Y-107329500D02*
X89041500Y-107315000D01*
X110109000Y-107315000D02*
X110744000Y-107950000D01*
X110744000Y-107950000D02*
X110744000Y-108966000D01*
X89041500Y-107315000D02*
X110109000Y-107315000D01*
X105918000Y-117856000D02*
X105918000Y-115824000D01*
D38*
X105918000Y-122047000D02*
X105918000Y-125292100D01*
D37*
X132588000Y-110490000D02*
X139192000Y-110490000D01*
D38*
X149250400Y-95246400D02*
X148833000Y-94829000D01*
D37*
X132588000Y-109397800D02*
X139192000Y-109397800D01*
X93726000Y-106426000D02*
X107696000Y-106426000D01*
X132562600Y-111607600D02*
X139192000Y-111607600D01*
X122216500Y-109320500D02*
X122215400Y-109321600D01*
X113080800Y-109321600D02*
X112395000Y-110007400D01*
X112395000Y-110007400D02*
X112395000Y-113425500D01*
X122215400Y-109321600D02*
X113080800Y-109321600D01*
X116156266Y-116507734D02*
X115062000Y-117602000D01*
X115062000Y-117602000D02*
X113792000Y-117602000D01*
X118770400Y-116281200D02*
X118770400Y-117906800D01*
D38*
X118318542Y-100560864D02*
X118318542Y-99395542D01*
X118318542Y-99395542D02*
X117983000Y-99060000D01*
X114950634Y-100533200D02*
X114936700Y-100519266D01*
X117983000Y-101237366D02*
X117278834Y-100533200D01*
X117278834Y-100533200D02*
X114950634Y-100533200D01*
X117983000Y-102870000D02*
X117983000Y-101237366D01*
X116866098Y-101116702D02*
X116866098Y-101700902D01*
X116866098Y-101700902D02*
X115697000Y-102870000D01*
X115938998Y-101107700D02*
X114176698Y-102870000D01*
X114176698Y-102870000D02*
X113411000Y-102870000D01*
X114361700Y-100903507D02*
X114361700Y-100014300D01*
X114361700Y-100014300D02*
X115316000Y-99060000D01*
X115316000Y-99060000D02*
X115697000Y-99060000D01*
X114577976Y-101119783D02*
X114361700Y-100903507D01*
X113661122Y-101092000D02*
X113661122Y-99437122D01*
X113661122Y-99437122D02*
X113284000Y-99060000D01*
D37*
X133604000Y-117475000D02*
X133604000Y-114554000D01*
X89052400Y-108204000D02*
X106465900Y-108204000D01*
X74724500Y-111554500D02*
X76200000Y-111554500D01*
X74117200Y-108000800D02*
X74117200Y-110947200D01*
X87452200Y-107315000D02*
X74803000Y-107315000D01*
X74803000Y-107315000D02*
X74117200Y-108000800D01*
X74117200Y-110947200D02*
X74724500Y-111554500D01*
X88392000Y-106375200D02*
X87452200Y-107315000D01*
X88392000Y-99187000D02*
X88392000Y-106375200D01*
D38*
X76200000Y-114503200D02*
X76200000Y-112854500D01*
X80264000Y-115366800D02*
X77063600Y-115366800D01*
X77063600Y-115366800D02*
X76200000Y-114503200D01*
D37*
X86262500Y-109078000D02*
X107554000Y-109078000D01*
X86106000Y-109234500D02*
X86262500Y-109078000D01*
X107554000Y-109078000D02*
X107950000Y-109474000D01*
G04 #@! TA.AperFunction,Conductor*
G36*
X106313200Y-80317113D02*
G01*
X106358587Y-80362500D01*
X106375200Y-80424500D01*
X106375200Y-90576400D01*
X113363200Y-90576400D01*
X113425200Y-90593013D01*
X113470587Y-90638400D01*
X113487200Y-90700400D01*
X113487200Y-91468400D01*
X113470587Y-91530400D01*
X113425200Y-91575787D01*
X113363200Y-91592400D01*
X105432400Y-91592400D01*
X105370400Y-91575787D01*
X105325013Y-91530400D01*
X105308400Y-91468400D01*
X105308400Y-80424500D01*
X105325013Y-80362500D01*
X105370400Y-80317113D01*
X105432400Y-80300500D01*
X106251200Y-80300500D01*
X106313200Y-80317113D01*
G37*
G04 #@! TD.AperFunction*
G04 #@! TA.AperFunction,Conductor*
G36*
X124550400Y-80317113D02*
G01*
X124595787Y-80362500D01*
X124612400Y-80424500D01*
X124612400Y-91468400D01*
X124595787Y-91530400D01*
X124550400Y-91575787D01*
X124488400Y-91592400D01*
X118335600Y-91592400D01*
X118273600Y-91575787D01*
X118228213Y-91530400D01*
X118211600Y-91468400D01*
X118211600Y-90700400D01*
X118228213Y-90638400D01*
X118273600Y-90593013D01*
X118335600Y-90576400D01*
X123545600Y-90576400D01*
X123545600Y-80424500D01*
X123562213Y-80362500D01*
X123607600Y-80317113D01*
X123669600Y-80300500D01*
X124488400Y-80300500D01*
X124550400Y-80317113D01*
G37*
G04 #@! TD.AperFunction*
M02*
